<svg xmlns="http://www.w3.org/2000/svg" xmlns:xlink="http://www.w3.org/1999/xlink" width="500" zoomAndPan="magnify" viewBox="0 0 375 374.999991" height="500" preserveAspectRatio="xMidYMid meet" version="1.0"><defs><g/><clipPath id="980af4c5ae"><path d="M 167.417969 151.160156 L 207.917969 151.160156 L 207.917969 197.660156 L 167.417969 197.660156 Z M 167.417969 151.160156 " clip-rule="nonzero"/></clipPath></defs><rect x="-37.5" width="450" fill="#ffffff" y="-37.499999" height="449.999989" fill-opacity="1"/><g fill="#ff5757" fill-opacity="1"><g transform="translate(146.866886, 220.041729)"><g><path d="M 11.109375 0 L 9.640625 0 L 9.640625 -11.265625 L 3.1875 -11.265625 L 3.1875 0 L 1.734375 0 L 1.734375 -12.578125 L 11.109375 -12.578125 Z M 11.109375 0 "/></g></g></g><g fill="#ff5757" fill-opacity="1"><g transform="translate(159.697896, 220.041729)"><g><path d="M 12.640625 -6.296875 C 12.640625 -4.285156 12.128906 -2.703125 11.109375 -1.546875 C 10.097656 -0.398438 8.6875 0.171875 6.875 0.171875 C 5.019531 0.171875 3.585938 -0.390625 2.578125 -1.515625 C 1.578125 -2.648438 1.078125 -4.25 1.078125 -6.3125 C 1.078125 -8.363281 1.578125 -9.953125 2.578125 -11.078125 C 3.585938 -12.203125 5.023438 -12.765625 6.890625 -12.765625 C 8.691406 -12.765625 10.097656 -12.191406 11.109375 -11.046875 C 12.128906 -9.898438 12.640625 -8.316406 12.640625 -6.296875 Z M 2.625 -6.296875 C 2.625 -4.597656 2.984375 -3.304688 3.703125 -2.421875 C 4.429688 -1.546875 5.488281 -1.109375 6.875 -1.109375 C 8.257812 -1.109375 9.304688 -1.546875 10.015625 -2.421875 C 10.734375 -3.296875 11.09375 -4.585938 11.09375 -6.296875 C 11.09375 -7.992188 10.738281 -9.28125 10.03125 -10.15625 C 9.320312 -11.03125 8.273438 -11.46875 6.890625 -11.46875 C 5.492188 -11.46875 4.429688 -11.023438 3.703125 -10.140625 C 2.984375 -9.265625 2.625 -7.984375 2.625 -6.296875 Z M 2.625 -6.296875 "/></g></g></g><g fill="#ff5757" fill-opacity="1"><g transform="translate(173.405505, 220.041729)"><g><path d="M 7.109375 -11.4375 C 5.722656 -11.4375 4.628906 -10.976562 3.828125 -10.0625 C 3.035156 -9.144531 2.640625 -7.882812 2.640625 -6.28125 C 2.640625 -4.632812 3.023438 -3.363281 3.796875 -2.46875 C 4.566406 -1.570312 5.664062 -1.125 7.09375 -1.125 C 7.96875 -1.125 8.96875 -1.28125 10.09375 -1.59375 L 10.09375 -0.3125 C 9.21875 0.0078125 8.144531 0.171875 6.875 0.171875 C 5.019531 0.171875 3.585938 -0.390625 2.578125 -1.515625 C 1.578125 -2.640625 1.078125 -4.234375 1.078125 -6.296875 C 1.078125 -7.597656 1.316406 -8.734375 1.796875 -9.703125 C 2.285156 -10.679688 2.984375 -11.429688 3.890625 -11.953125 C 4.804688 -12.484375 5.882812 -12.75 7.125 -12.75 C 8.445312 -12.75 9.597656 -12.507812 10.578125 -12.03125 L 9.96875 -10.78125 C 9.007812 -11.21875 8.054688 -11.4375 7.109375 -11.4375 Z M 7.109375 -11.4375 "/></g></g></g><g fill="#ff5757" fill-opacity="1"><g transform="translate(184.509098, 220.041729)"><g><path d="M 10.671875 0 L 9.203125 0 L 9.203125 -11.265625 L 5.125 -11.265625 L 4.859375 -9.203125 C 4.503906 -6.460938 4.191406 -4.457031 3.921875 -3.1875 C 3.660156 -1.914062 3.3125 -1.03125 2.875 -0.53125 C 2.445312 -0.03125 1.867188 0.210938 1.140625 0.203125 C 0.710938 0.203125 0.332031 0.128906 0 -0.015625 L 0 -1.25 C 0.3125 -1.09375 0.632812 -1.015625 0.96875 -1.015625 C 1.269531 -1.015625 1.535156 -1.140625 1.765625 -1.390625 C 1.992188 -1.640625 2.191406 -2.070312 2.359375 -2.6875 C 2.535156 -3.3125 2.757812 -4.484375 3.03125 -6.203125 C 3.300781 -7.921875 3.59375 -10.046875 3.90625 -12.578125 L 10.671875 -12.578125 Z M 10.671875 0 "/></g></g></g><g fill="#ff5757" fill-opacity="1"><g transform="translate(196.901808, 220.041729)"><g><path d="M 2.515625 0.171875 C 1.878906 0.171875 1.320312 0.0820312 0.84375 -0.09375 L 0.84375 -1.515625 C 1.375 -1.265625 1.914062 -1.140625 2.46875 -1.140625 C 3.09375 -1.140625 3.597656 -1.285156 3.984375 -1.578125 C 4.367188 -1.867188 4.75 -2.410156 5.125 -3.203125 L 0.234375 -12.578125 L 1.84375 -12.578125 L 5.5625 -5.421875 C 5.707031 -5.140625 5.820312 -4.863281 5.90625 -4.59375 L 5.96875 -4.59375 C 6.125 -5.082031 6.234375 -5.390625 6.296875 -5.515625 L 9.390625 -12.578125 L 10.9375 -12.578125 L 6.921875 -3.578125 C 6.441406 -2.503906 6.003906 -1.722656 5.609375 -1.234375 C 5.222656 -0.742188 4.785156 -0.382812 4.296875 -0.15625 C 3.816406 0.0625 3.222656 0.171875 2.515625 0.171875 Z M 2.515625 0.171875 "/></g></g></g><g fill="#ff5757" fill-opacity="1"><g transform="translate(207.833519, 220.041729)"><g><path d="M 8.734375 -12.578125 L 8.734375 -11.25 L 3.1875 -11.25 L 3.1875 0 L 1.734375 0 L 1.734375 -12.578125 Z M 8.734375 -12.578125 "/></g></g></g><g fill="#ff5757" fill-opacity="1"><g transform="translate(216.986249, 220.041729)"><g><path d="M 9.625 0 L 8.0625 -4 L 3.03125 -4 L 1.484375 0 L 0 0 L 4.96875 -12.625 L 6.203125 -12.625 L 11.140625 0 Z M 7.609375 -5.3125 L 6.140625 -9.203125 C 5.953125 -9.703125 5.757812 -10.304688 5.5625 -11.015625 C 5.4375 -10.472656 5.253906 -9.867188 5.015625 -9.203125 L 3.546875 -5.3125 Z M 7.609375 -5.3125 "/></g></g></g><g fill="#ff5757" fill-opacity="1"><g transform="translate(228.127808, 220.041729)"><g/></g></g><g clip-path="url(#980af4c5ae)"><path fill="#ff5757" d="M 200.558594 197.363281 L 174.304688 197.363281 C 173.855469 197.359375 173.410156 197.316406 172.96875 197.226562 C 172.527344 197.140625 172.097656 197.007812 171.679688 196.835938 C 171.265625 196.664062 170.871094 196.453125 170.496094 196.203125 C 170.121094 195.953125 169.773438 195.667969 169.457031 195.347656 C 169.136719 195.03125 168.855469 194.683594 168.601562 194.308594 C 168.351562 193.9375 168.140625 193.539062 167.96875 193.125 C 167.796875 192.707031 167.664062 192.28125 167.578125 191.839844 C 167.488281 191.394531 167.445312 190.949219 167.445312 190.5 L 167.445312 172.097656 C 167.441406 171.21875 167.605469 170.378906 167.933594 169.566406 C 168.261719 168.753906 168.730469 168.035156 169.339844 167.40625 L 183.386719 152.882812 C 183.648438 152.609375 183.933594 152.367188 184.246094 152.152344 C 184.554688 151.9375 184.886719 151.757812 185.234375 151.609375 C 185.582031 151.460938 185.941406 151.347656 186.3125 151.273438 C 186.679688 151.195312 187.054688 151.160156 187.433594 151.160156 C 187.8125 151.160156 188.183594 151.195312 188.554688 151.273438 C 188.925781 151.347656 189.285156 151.460938 189.632812 151.609375 C 189.980469 151.757812 190.308594 151.9375 190.621094 152.152344 C 190.933594 152.367188 191.21875 152.609375 191.480469 152.882812 L 206.835938 168.761719 C 207.027344 168.960938 207.175781 169.1875 207.28125 169.445312 C 207.382812 169.703125 207.433594 169.972656 207.429688 170.25 C 207.425781 170.527344 207.367188 170.792969 207.257812 171.046875 C 207.148438 171.304688 206.992188 171.527344 206.792969 171.71875 C 206.59375 171.914062 206.363281 172.0625 206.105469 172.164062 C 205.847656 172.265625 205.578125 172.3125 205.300781 172.308594 C 205.023438 172.300781 204.757812 172.242188 204.503906 172.132812 C 204.246094 172.019531 204.023438 171.863281 203.832031 171.664062 L 188.476562 155.792969 C 188.34375 155.648438 188.183594 155.535156 188.003906 155.457031 C 187.820312 155.378906 187.632812 155.339844 187.433594 155.339844 C 187.234375 155.339844 187.046875 155.378906 186.863281 155.457031 C 186.683594 155.535156 186.523438 155.648438 186.390625 155.792969 L 172.34375 170.308594 C 171.863281 170.808594 171.621094 171.40625 171.628906 172.101562 L 171.628906 190.5 C 171.628906 190.855469 171.695312 191.199219 171.832031 191.527344 C 171.96875 191.855469 172.164062 192.144531 172.414062 192.398438 C 172.667969 192.648438 172.957031 192.84375 173.285156 192.980469 C 173.613281 193.117188 173.957031 193.183594 174.3125 193.183594 L 200.566406 193.183594 C 200.84375 193.183594 201.109375 193.238281 201.367188 193.34375 C 201.621094 193.449219 201.847656 193.601562 202.042969 193.796875 C 202.238281 193.992188 202.390625 194.21875 202.496094 194.472656 C 202.601562 194.730469 202.65625 194.996094 202.65625 195.273438 C 202.65625 195.550781 202.601562 195.816406 202.496094 196.074219 C 202.390625 196.328125 202.238281 196.554688 202.042969 196.75 C 201.847656 196.945312 201.621094 197.097656 201.367188 197.203125 C 201.109375 197.308594 200.84375 197.363281 200.566406 197.363281 Z M 200.558594 197.363281 " fill-opacity="1" fill-rule="nonzero"/></g></svg>