<svg xmlns="http://www.w3.org/2000/svg" xmlns:xlink="http://www.w3.org/1999/xlink" width="50" zoomAndPan="magnify" viewBox="0 0 37.5 37.499999" height="50" preserveAspectRatio="xMidYMid meet" version="1.0"><defs><filter x="0%" y="0%" width="100%" height="100%" id="c33d853320"><feColorMatrix values="0 0 0 0 1 0 0 0 0 1 0 0 0 0 1 0 0 0 1 0" color-interpolation-filters="sRGB"/></filter><clipPath id="b5bc4965cc"><path d="M 4.496094 0.742188 L 32.621094 0.742188 L 32.621094 36.269531 L 4.496094 36.269531 Z M 4.496094 0.742188 " clip-rule="nonzero"/></clipPath><mask id="5b2dfe6155"><g filter="url(#c33d853320)"><rect x="-3.75" width="45" fill="#000000" y="-3.75" height="44.999999" fill-opacity="0.08"/></g></mask><clipPath id="24715a7481"><path d="M 0.316406 0.105469 L 7.65625 0.105469 L 7.65625 2.949219 L 0.316406 2.949219 Z M 0.316406 0.105469 " clip-rule="nonzero"/></clipPath><clipPath id="54bef919c1"><rect x="0" width="8" y="0" height="3"/></clipPath></defs><g clip-path="url(#b5bc4965cc)"><path stroke-linecap="round" transform="matrix(0.134018, 0, 0, 0.134018, 4.45443, 0.662553)" fill-opacity="1" fill="#000000" fill-rule="nonzero" stroke-linejoin="round" d="M 89.967732 29.566548 L 86.149446 30.440964 L 86.790685 26.622678 L 82.535191 26.331206 L 77.521869 21.259589 L 76.968072 20.326878 L 79.183261 18.403162 L 78.017372 13.797901 L 78.746052 13.331545 L 77.521869 13.040073 L 74.344822 8.813726 L 71.284363 6.307065 L 68.107316 5.19947 L 66.096158 3.275754 L 65.192594 5.811562 L 62.685933 3.712962 L 62.219578 3.94614 L 62.685933 5.636679 L 62.102989 5.957298 L 54.728742 4.091876 L 54.378975 5.753268 L 52.892467 6.715126 L 51.901461 6.394506 L 51.143633 7.910162 L 48.403795 5.782415 L 46.101164 6.394506 L 45.255895 7.181481 L 45.72225 7.82272 L 44.818686 10.854031 L 42.282878 9.513259 L 40.330014 10.358529 L 39.543039 9.221787 L 38.726917 9.513259 L 38.726917 11.29124 L 35.258398 9.454965 L 33.97592 5.869857 L 35.287545 5.257765 L 35.170956 2.867693 L 34.617159 1.177154 L 33.159798 1.206301 L 32.635148 2.168159 L 30.070192 3.304901 L 29.749573 4.295907 L 28.904304 3.94614 L 27.884151 4.703968 L 27.184617 4.062729 L 26.42679 5.374354 L 25.406637 5.578384 L 25.37749 7.472954 L 23.628656 8.87202 L 20.539051 6.860862 L 18.935954 10.679148 L 19.139984 13.331545 L 17.799212 16.187973 L 11.328529 14.64317 L 9.288223 15.69247 L 7.655979 17.732776 L 7.655979 18.782076 L 10.16264 18.403162 L 10.48326 24.728109 L 7.393654 30.470111 L 5.557379 30.732436 L 5.586526 30.032903 L 1.097854 31.490264 L 3.050718 41.137994 L 4.741257 47.171469 L 5.353349 47.317205 L 5.732262 43.877833 L 6.898151 43.586361 L 11.503412 46.734261 L 14.797048 51.543552 L 18.353009 54.749747 L 15.088521 59.821363 L 15.263404 63.348177 L 15.962937 64.135152 L 13.485423 63.144147 L 11.474265 63.289883 L 11.386823 67.399641 L 13.10651 67.982585 L 14.855343 69.760566 L 16.400146 73.549705 L 18.644482 75.38598 L 19.227426 76.697605 L 17.653476 80.195271 L 19.664634 81.565191 L 20.626493 81.098835 L 21.151143 82.818521 L 18.207273 82.264724 L 17.274562 82.760227 L 17.50774 84.363324 L 19.052543 85.296035 L 18.148979 85.966421 L 18.440451 87.161457 L 15.671465 87.511224 L 18.23642 88.094168 L 19.985254 87.015721 L 22.899976 87.482077 L 22.95827 89.813854 L 24.736251 92.233074 L 23.249743 95.73074 L 20.014401 98.091665 L 19.956107 99.607321 L 18.265568 100.598326 L 17.041384 100.015382 L 16.429293 100.394296 L 16.021232 100.918946 L 16.662471 101.880804 L 15.40914 103.163282 L 15.642318 103.804521 L 14.476429 103.571343 L 14.738754 104.212582 L 13.806043 104.620643 L 17.216268 107.651954 L 18.03239 109.779701 L 17.770065 112.461245 L 16.808207 113.976901 L 14.855343 113.802017 L 15.40914 115.055348 L 14.88449 116.39612 L 18.119832 117.999217 L 18.411304 121.205412 L 16.487587 122.633626 L 14.534723 121.380295 L 14.039221 123.362306 L 17.391151 123.770367 L 17.653476 124.907109 L 15.525729 127.588653 L 13.602012 127.442917 L 14.709607 129.220898 L 16.166968 128.871131 L 16.895648 127.763537 L 22.22959 126.830825 L 24.153306 129.658106 L 24.240748 132.106473 L 25.639815 132.456239 L 26.193612 133.418098 L 27.563531 132.747711 L 26.018729 136.041347 L 26.718262 137.294678 L 30.011898 138.227389 L 31.585848 137.819328 L 30.361665 140.938081 L 31.206934 142.83265 L 29.57469 143.473889 L 32.168792 148.399769 L 31.14864 148.836978 L 30.332517 151.343639 L 28.146476 153.792005 L 31.556701 157.027347 L 29.195776 159.912922 L 29.05004 160.87478 L 30.390812 160.991369 L 28.437948 162.390436 L 31.789878 166.325311 L 31.614995 169.47321 L 30.390812 170.464216 L 31.906467 173.46638 L 31.381817 174.340796 L 33.392976 176.643427 L 33.043209 177.313813 L 34.617159 180.141093 L 33.97592 181.54016 L 30.09934 183.697054 L 31.760731 184.629766 L 28.671126 187.51534 L 29.603837 187.981696 L 28.641979 189.060143 L 27.855004 188.593788 L 26.397642 190.517504 L 25.173459 190.109443 L 24.736251 191.362774 L 21.18029 192.266338 L 20.626493 194.044318 L 18.265568 192.324632 L 17.157973 193.257343 L 17.50774 194.306643 L 16.487587 195.880593 L 15.613171 194.598115 L 14.155809 195.880593 L 13.223098 195.618268 L 15.001079 200.369265 L 13.31054 204.158404 L 13.951779 205.87809 L 17.303709 205.936384 L 17.041384 210.629087 L 18.790218 211.357768 L 18.03239 212.873423 L 20.072695 214.301637 L 18.353009 215.963029 L 17.799212 218.936045 L 19.926959 222.987509 L 20.743082 227.038973 L 22.75424 228.904395 L 23.861834 228.64207 L 23.716098 229.778812 L 21.121995 230.973848 L 21.38432 232.285473 L 24.473926 234.762986 L 21.967265 239.047628 L 18.119832 240.883903 L 17.799212 243.186533 L 19.110837 244.264981 L 19.431457 247.412881 L 20.597345 248.986831 L 22.95827 248.870242 L 26.339348 250.823105 L 25.785551 252.513644 L 26.077023 254.145889 L 26.893145 254.23333 L 25.843845 255.457514 L 27.913298 257.293789 L 29.57469 257.002316 L 31.294376 258.255647 L 31.993909 256.215341 L 32.984915 255.690691 L 33.597006 258.722002 L 34.588012 259.2758 L 36.103667 259.625566 L 35.345839 261.257811 L 34.034214 261.724166 L 36.774053 264.755477 L 40.300867 264.055944 L 40.854664 264.930361 L 43.273884 263.822766 L 45.314189 264.026797 L 44.67295 262.4237 L 46.276048 261.89905 L 48.724414 257.118905 L 50.4441 256.419372 L 50.356659 253.388061 L 49.453095 251.289461 L 49.890303 250.065278 L 50.735572 250.531633 L 53.417117 249.802953 L 54.553858 248.170708 L 55.661453 247.908383 L 58.925942 248.841094 L 59.800358 252.892558 L 61.257719 254.641391 L 62.365314 252.98 L 61.374308 250.910547 L 62.889964 250.240161 L 64.085 247.704353 L 64.28903 248.724506 L 67.990727 248.345592 L 67.145458 254.116741 L 79.562174 256.244489 L 79.737058 258.255647 L 80.407444 258.343089 L 82.185424 251.289461 L 83.671933 250.8814 L 83.409608 248.25815 L 85.100146 247.7335 L 85.158441 245.693194 L 87.548513 244.235833 L 90.813002 248.316444 L 92.212068 248.316444 L 94.543846 245.460017 L 95.476557 245.838931 L 97.167096 243.769478 L 99.353138 245.226839 L 101.918093 245.255986 L 105.998704 247.908383 L 107.397771 246.480169 L 109.787843 246.509317 L 111.099468 245.460017 L 115.763023 245.693194 L 117.016354 244.614747 L 118.765187 244.90622 L 119.697898 242.487 L 120.426579 242.457853 L 120.718051 239.572278 L 119.668751 238.61042 L 125.060987 237.794297 L 125.847962 236.744998 L 125.702226 235.054459 L 127.451059 232.664387 L 128.587801 234.238336 L 128.238034 232.402062 L 129.811984 231.848264 L 132.027173 229.69137 L 132.58097 224.619753 L 133.42624 223.308128 L 134.184067 222.929215 L 135.320809 224.124251 L 135.699723 223.074951 L 136.370109 223.162392 L 135.437398 221.238676 L 136.136931 220.509995 L 134.767012 220.305965 L 135.145926 217.886745 L 140.100953 210.366762 L 139.867776 208.588782 L 140.829634 209.055137 L 141.179401 208.18072 L 139.692892 207.335451 L 140.45072 204.187551 L 141.208548 203.692048 L 140.217542 201.593448 L 140.771339 198.911904 L 138.964212 197.454543 L 141.091959 192.849282 L 140.392426 190.546652 L 142.869939 188.972702 L 144.035828 190.022002 L 146.309311 187.078132 L 152.371934 185.154416 L 152.546817 184.338293 L 150.593953 181.394424 L 149.544653 181.073805 L 149.515506 180.228535 L 150.389922 179.587296 L 147.737525 178.129935 L 146.134428 178.858616 L 147.854114 176.876605 L 146.629931 176.730869 L 147.242023 175.215213 L 153.100614 174.71971 L 155.782158 175.186066 L 156.977195 176.29366 L 157.297814 177.168077 L 155.782158 181.452718 L 155.840453 185.154416 L 157.064636 187.748518 L 158.930058 188.185727 L 159.54215 189.730529 L 160.970364 189.468204 L 161.407572 191.450215 L 162.252842 191.217038 L 162.631755 188.302315 L 165.400742 187.894254 L 166.158569 185.708213 L 167.295311 185.387593 L 167.645078 184.338293 L 169.248175 184.454882 L 169.597941 190.13859 L 176.680716 190.779829 L 179.420555 186.116274 L 180.790474 186.028832 L 180.615591 183.143257 L 182.568455 181.394424 L 183.938374 177.896757 L 189.12658 178.275671 L 190.059291 180.665743 L 191.254327 178.042494 L 189.942702 172.038166 L 194.664552 169.298327 L 195.772146 169.444063 L 196.092766 168.42391 L 191.95386 167.432905 L 190.409058 167.811819 L 190.70053 162.798497 L 195.130907 160.291836 L 194.110755 158.630444 L 193.32378 158.921916 L 192.536805 156.648433 L 194.57711 157.231377 L 196.967182 152.48038 L 196.67571 151.693405 L 198.103924 151.256197 L 201.135235 153.179914 L 203.262982 149.390775 L 204.720343 149.565658 L 205.419877 148.632947 L 203.49616 146.5052 L 204.574607 142.745208 L 204.166546 142.249706 L 207.16871 140.238547 L 206.381735 138.985217 L 207.926538 136.740881 L 207.431035 135.458403 L 207.256151 134.700575 L 208.480335 133.097478 L 208.21801 132.193914 L 205.565613 131.698411 L 203.17554 132.397945 L 202.592596 130.357639 L 204.166546 127.880125 L 200.610585 129.541517 L 198.803457 123.041687 L 194.722846 121.64262 L 195.480674 120.38929 L 194.460521 119.86464 L 195.859588 120.010376 L 196.034471 118.727898 L 197.112918 118.611309 L 197.637568 119.777198 L 200.231671 118.931928 L 201.543296 117.037359 L 200.814616 115.696587 L 201.543296 113.656281 L 193.644399 113.335662 L 191.42921 107.651954 L 188.631077 106.282034 L 186.882244 103.629637 L 183.472019 104.562348 L 183.413724 106.22374 L 181.577449 106.573507 L 181.927216 109.255051 L 181.111094 109.721406 L 181.315124 111.645123 L 174.582116 111.266209 L 173.18305 112.72357 L 171.725689 112.257215 L 171.725689 114.501551 L 170.618094 115.784029 L 166.275158 115.201084 L 165.196711 116.19209 L 162.835786 114.967906 L 162.456872 115.813176 L 160.620597 115.784029 L 156.860606 118.203248 L 155.286656 118.057512 L 154.966036 116.366973 L 151.876431 114.443256 L 148.932561 118.232395 L 148.145586 115.317673 L 143.744356 113.656281 L 143.80265 111.790859 L 143.190559 111.849154 L 142.928234 110.566676 L 138.818476 109.808848 L 138.789328 108.293193 L 137.390262 108.293193 L 137.419409 106.048857 L 140.97537 106.282034 L 141.616609 105.582501 L 141.033664 104.795526 L 141.529167 104.008551 L 139.692892 102.172276 L 141.266842 99.140965 L 140.97537 96.401126 L 140.188395 96.138801 L 140.130101 95.176943 L 139.022506 95.555857 L 138.935064 93.049196 L 137.244526 92.932607 L 137.30282 91.883307 L 134.184067 89.95959 L 134.329803 87.278046 L 130.861284 86.695102 L 130.103456 88.473082 L 122.292001 88.560524 L 121.796498 89.289204 L 118.240537 88.298199 L 117.453562 87.452929 L 116.491704 88.065021 L 116.229379 90.425946 L 114.655429 90.717418 L 113.460393 90.659124 L 113.168921 89.43494 L 114.101632 89.580676 L 114.159926 88.38564 L 116.229379 86.753396 L 113.372951 88.91029 L 109.175751 86.928279 L 106.523354 87.598665 L 106.348471 86.199599 L 107.252035 84.450765 L 106.14444 82.643638 L 107.106299 82.264724 L 108.213893 83.139141 L 108.476218 81.623485 L 109.496371 80.749068 L 108.621954 75.823188 L 106.494207 74.599005 L 106.115293 73.578852 L 102.821657 72.704435 L 101.131118 67.691113 L 99.790346 65.854838 L 99.761199 61.803374 L 96.992213 60.637486 L 96.700741 58.801211 L 89.559671 59.238419 L 89.093316 55.857341 L 90.113469 53.379827 L 88.42293 51.018903 L 90.404941 50.057044 L 90.72556 49.211775 L 89.005874 46.705114 L 88.743549 42.682797 L 89.530524 41.60435 L 91.395946 41.866675 L 92.270363 41.283731 L 90.579824 40.438461 L 91.629124 38.485597 L 89.734555 35.920642 L 90.346646 35.221108 L 92.853307 35.483433 L 93.523693 34.958783 L 93.407105 33.239097 L 92.270363 31.723442 Z M 112.556829 114.705581 L 111.18691 115.550851 L 109.700401 115.113642 L 107.922421 115.988059 L 106.814826 118.757045 L 108.03901 124.090987 L 111.18691 126.451912 L 111.565824 130.270198 L 108.709396 134.117631 L 104.628785 136.041347 L 101.364296 133.884453 L 99.557168 134.117631 L 98.886782 134.9629 L 98.624457 138.139947 L 99.440579 138.781186 L 99.732052 141.346142 L 98.624457 143.240711 L 98.624457 145.397606 L 99.440579 148.80783 L 97.54601 150.935578 L 95.359968 150.061161 L 93.290516 146.884114 L 91.658271 142.191411 L 90.987885 136.85747 L 88.801844 137.0615 L 86.907274 135.341814 L 85.683091 135.137784 L 83.90511 129.803842 L 81.719069 129.803842 L 80.611474 128.958573 L 79.649616 124.673931 L 76.938924 124.26587 L 74.199086 125.111139 L 72.829166 125.956409 L 72.304516 127.442917 L 70.788861 127.676095 L 70.235064 125.752378 L 72.566841 119.952081 L 72.566841 117.824334 L 75.860477 113.976901 L 77.755047 114.384962 L 78.425433 113.102484 L 77.871636 111.790859 L 75.015208 109.867143 L 74.898619 108.788695 L 75.569005 108.380634 L 81.311008 107.943426 L 86.353477 108.788695 L 92.765866 115.66744 L 96.059502 113.743723 L 102.209565 113.743723 L 103.550338 112.636129 L 104.920257 109.867143 L 107.368624 109.021873 L 111.332646 110.333498 L 112.556829 111.615976 Z M 112.556829 114.705581 " stroke="#ffffff" stroke-width="1.19" stroke-opacity="1" stroke-miterlimit="4"/></g><g mask="url(#5b2dfe6155)"><g transform="matrix(1, 0, 0, 1, 12, 25)"><g clip-path="url(#54bef919c1)"><g clip-path="url(#24715a7481)"><path fill="#ff5757" d="M 0.613281 2.789062 L 0.613281 0.453125 L 0.96875 0.453125 L 0.96875 1.570312 L 0.996094 1.570312 L 1.976562 0.453125 L 2.421875 0.453125 L 1.476562 1.503906 L 2.425781 2.789062 L 2 2.789062 L 1.246094 1.746094 L 0.96875 2.0625 L 0.96875 2.789062 Z M 2.472656 0.453125 L 2.875 0.453125 L 3.484375 1.515625 L 3.511719 1.515625 L 4.121094 0.453125 L 4.523438 0.453125 L 3.675781 1.871094 L 3.675781 2.789062 L 3.324219 2.789062 L 3.324219 1.871094 Z M 5.113281 0.453125 L 5.113281 2.789062 L 4.757812 2.789062 L 4.757812 0.453125 Z M 5.734375 0.453125 L 6.386719 2.355469 L 6.410156 2.355469 L 7.0625 0.453125 L 7.445312 0.453125 L 6.601562 2.789062 L 6.195312 2.789062 L 5.351562 0.453125 Z M 5.734375 0.453125 " fill-opacity="1" fill-rule="nonzero"/></g></g></g></g><path stroke-linecap="round" transform="matrix(0.134018, 0, 0, 0.134018, 4.45443, 0.662553)" fill-opacity="1" fill="#000000" fill-rule="nonzero" stroke-linejoin="round" d="M 107.222888 117.299684 L 106.814826 120.272701 L 107.630949 121.351148 L 107.630949 123.274864 L 111.18691 126.481059 L 111.565824 130.328492 L 108.709396 134.175925 L 104.628785 136.070495 L 101.364296 133.942747 L 99.557168 134.175925 L 98.886782 135.021195 L 98.624457 138.227389 L 99.440579 138.839481 L 99.732052 141.404436 L 98.624457 143.328153 L 98.624457 145.4559 L 99.440579 148.866125 L 97.54601 150.993872 L 95.359968 150.148603 L 93.290516 146.942408 L 91.658271 142.249706 L 90.958738 136.944911 L 88.801844 137.148942 L 86.878127 135.429256 L 85.653944 135.225225 L 83.875963 129.891284 L 81.689922 129.891284 L 80.611474 129.046014 L 79.649616 124.761373 L 76.938924 124.353312 L 74.199086 125.198581 L 72.829166 126.04385 L 72.304516 127.530359 L 70.788861 127.763537 L 70.235064 125.83982 L 72.566841 120.06867 L 72.566841 117.911776 L 73.645288 116.221237 L 75.83133 114.064342 L 77.725899 114.501551 L 78.425433 113.219073 L 77.871636 111.936595 L 75.015208 110.012879 L 74.869472 108.934432 L 75.539858 108.497223 L 81.28186 108.060015 L 86.32433 108.934432 L 92.736718 115.784029 L 96.030354 113.860312 L 102.180418 113.860312 L 103.52119 112.781865 L 104.920257 110.012879 L 107.368624 109.138462 L 111.332646 110.42094 L 112.556829 111.732565 L 112.556829 114.705581 L 111.18691 115.579998 L 109.671254 115.14279 L 107.893274 115.988059 Z M 107.222888 117.299684 " stroke="#ffffff" stroke-width="1.19" stroke-opacity="1" stroke-miterlimit="4"/><path fill="#ff5757" d="M 20.121094 19.480469 L 20.121094 18.34375 L 20.292969 18.34375 L 20.292969 18.886719 L 20.308594 18.886719 L 20.785156 18.34375 L 21 18.34375 L 20.542969 18.855469 L 21 19.480469 L 20.796875 19.480469 L 20.429688 18.972656 L 20.292969 19.128906 L 20.292969 19.480469 Z M 21.1875 19.800781 C 21.164062 19.800781 21.140625 19.800781 21.121094 19.796875 C 21.101562 19.792969 21.085938 19.789062 21.074219 19.78125 L 21.117188 19.648438 C 21.144531 19.65625 21.171875 19.660156 21.195312 19.65625 C 21.21875 19.65625 21.242188 19.648438 21.257812 19.632812 C 21.277344 19.613281 21.292969 19.585938 21.308594 19.550781 L 21.328125 19.492188 L 21.015625 18.628906 L 21.195312 18.628906 L 21.410156 19.289062 L 21.417969 19.289062 L 21.636719 18.628906 L 21.8125 18.628906 L 21.460938 19.59375 C 21.445312 19.640625 21.425781 19.675781 21.398438 19.707031 C 21.375 19.738281 21.34375 19.761719 21.308594 19.777344 C 21.273438 19.792969 21.234375 19.800781 21.1875 19.800781 Z M 21.96875 19.480469 L 21.96875 18.628906 L 22.136719 18.628906 L 22.136719 19.480469 Z M 22.054688 18.496094 C 22.023438 18.496094 22 18.488281 21.980469 18.46875 C 21.957031 18.449219 21.949219 18.425781 21.949219 18.398438 C 21.949219 18.371094 21.957031 18.347656 21.980469 18.328125 C 22 18.308594 22.023438 18.300781 22.054688 18.300781 C 22.082031 18.300781 22.105469 18.308594 22.128906 18.328125 C 22.148438 18.347656 22.160156 18.371094 22.160156 18.398438 C 22.160156 18.425781 22.148438 18.449219 22.128906 18.46875 C 22.105469 18.488281 22.082031 18.496094 22.054688 18.496094 Z M 23.089844 18.628906 L 22.78125 19.480469 L 22.601562 19.480469 L 22.292969 18.628906 L 22.46875 18.628906 L 22.6875 19.285156 L 22.695312 19.285156 L 22.910156 18.628906 Z M 23.089844 18.628906 " fill-opacity="1" fill-rule="nonzero"/></svg>