<svg xmlns="http://www.w3.org/2000/svg" xmlns:xlink="http://www.w3.org/1999/xlink" width="50" zoomAndPan="magnify" viewBox="0 0 37.5 37.499999" height="50" preserveAspectRatio="xMidYMid meet" version="1.0"><defs><filter x="0%" y="0%" width="100%" height="100%" id="e10d758e09"><feColorMatrix values="0 0 0 0 1 0 0 0 0 1 0 0 0 0 1 0 0 0 1 0" color-interpolation-filters="sRGB"/></filter><clipPath id="18cb8d7e6f"><path d="M 8 24 L 14 24 L 14 29.566406 L 8 29.566406 Z M 8 24 " clip-rule="nonzero"/></clipPath><clipPath id="b87a84b735"><path d="M 0.726562 7.363281 L 36.253906 7.363281 L 36.253906 29.566406 L 0.726562 29.566406 Z M 0.726562 7.363281 " clip-rule="nonzero"/></clipPath><mask id="fdc19f08af"><g filter="url(#e10d758e09)"><rect x="-3.75" width="45" fill="#000000" y="-3.75" height="44.999999" fill-opacity="0.05"/></g></mask><clipPath id="6953ed2822"><path d="M 0.394531 1 L 11 1 L 11 3.289062 L 0.394531 3.289062 Z M 0.394531 1 " clip-rule="nonzero"/></clipPath><clipPath id="1f83e5e22d"><rect x="0" width="12" y="0" height="4"/></clipPath></defs><g clip-path="url(#18cb8d7e6f)"><path stroke-linecap="round" transform="matrix(0.118224, 0, 0, 0.118224, 0.680216, 7.352096)" fill-opacity="1" fill="#000000" fill-rule="nonzero" stroke-linejoin="round" d="M 78.137953 145.608028 L 79.955218 145.343699 L 81.805525 146.500141 L 86.431292 146.665347 L 87.554693 147.656582 L 88.248558 150.828537 L 86.827787 151.522402 L 84.779233 151.225031 L 83.854079 152.249308 L 84.085368 153.835286 L 85.902633 155.553428 L 91.024018 153.537915 L 94.592467 155.685593 L 95.121126 158.031517 L 94.823756 158.857547 L 92.345666 160.31136 L 92.246542 164.011973 L 92.874325 165.168415 L 98.887822 168.175164 L 99.713852 173.032219 L 105.132608 181.9203 L 104.141372 183.770607 L 102.588436 183.770607 L 101.86153 184.464472 L 101.795447 186.215656 L 98.920864 186.182614 L 94.691591 187.768592 L 91.552677 187.933798 L 89.305876 184.464472 L 86.464334 184.761843 L 85.307892 184.034937 L 84.250574 179.607417 L 82.862843 177.889275 L 81.93769 177.426698 L 78.534447 177.856233 L 74.932957 176.336339 L 73.677392 176.964121 L 71.364508 173.693043 L 67.432606 170.785418 L 65.846629 168.505576 L 67.432606 167.712587 L 67.432606 169.529853 L 67.961265 169.100317 L 68.027347 169.893306 L 68.556007 167.547381 L 69.74549 169.662017 L 69.018583 167.117846 L 69.811572 166.457022 L 75.395534 165.135374 L 81.045578 165.465786 L 78.963983 164.21022 L 75.362492 163.615479 L 76.981511 162.492078 L 77.939706 159.419247 L 77.113676 147.326171 Z M 78.137953 145.608028 " stroke="#ffffff" stroke-width="1.19" stroke-opacity="1" stroke-miterlimit="4"/></g><path fill="#000000" d="M 1.871094 25.355469 C 1.867188 25.308594 1.847656 25.273438 1.808594 25.246094 C 1.769531 25.21875 1.722656 25.207031 1.664062 25.207031 C 1.625 25.207031 1.589844 25.214844 1.558594 25.226562 C 1.527344 25.238281 1.503906 25.257812 1.488281 25.28125 C 1.472656 25.300781 1.464844 25.328125 1.464844 25.355469 C 1.464844 25.378906 1.46875 25.402344 1.480469 25.417969 C 1.492188 25.433594 1.507812 25.449219 1.523438 25.460938 C 1.542969 25.472656 1.5625 25.484375 1.585938 25.492188 C 1.605469 25.496094 1.625 25.503906 1.644531 25.507812 L 1.742188 25.535156 C 1.777344 25.542969 1.808594 25.554688 1.84375 25.566406 C 1.875 25.578125 1.90625 25.597656 1.9375 25.621094 C 1.964844 25.640625 1.988281 25.667969 2.003906 25.699219 C 2.023438 25.734375 2.03125 25.769531 2.03125 25.816406 C 2.03125 25.875 2.019531 25.925781 1.988281 25.96875 C 1.960938 26.011719 1.917969 26.046875 1.863281 26.070312 C 1.804688 26.097656 1.738281 26.109375 1.660156 26.109375 C 1.585938 26.109375 1.519531 26.097656 1.464844 26.074219 C 1.410156 26.050781 1.367188 26.015625 1.335938 25.972656 C 1.304688 25.929688 1.289062 25.875 1.285156 25.816406 L 1.4375 25.816406 C 1.441406 25.851562 1.453125 25.882812 1.472656 25.90625 C 1.492188 25.929688 1.519531 25.949219 1.554688 25.960938 C 1.585938 25.972656 1.621094 25.976562 1.660156 25.976562 C 1.703125 25.976562 1.742188 25.972656 1.773438 25.957031 C 1.808594 25.945312 1.835938 25.925781 1.855469 25.902344 C 1.871094 25.875 1.882812 25.847656 1.882812 25.816406 C 1.882812 25.785156 1.875 25.761719 1.855469 25.742188 C 1.839844 25.722656 1.816406 25.707031 1.789062 25.695312 C 1.761719 25.683594 1.726562 25.671875 1.691406 25.664062 L 1.574219 25.628906 C 1.492188 25.609375 1.429688 25.574219 1.382812 25.535156 C 1.335938 25.492188 1.3125 25.433594 1.3125 25.363281 C 1.3125 25.308594 1.328125 25.257812 1.359375 25.214844 C 1.390625 25.171875 1.433594 25.136719 1.488281 25.113281 C 1.539062 25.089844 1.601562 25.078125 1.667969 25.078125 C 1.738281 25.078125 1.796875 25.089844 1.847656 25.113281 C 1.902344 25.136719 1.941406 25.167969 1.972656 25.210938 C 2 25.253906 2.015625 25.300781 2.019531 25.355469 Z M 2.527344 26.109375 C 2.453125 26.109375 2.386719 26.09375 2.335938 26.0625 C 2.28125 26.03125 2.238281 25.984375 2.210938 25.925781 C 2.183594 25.867188 2.167969 25.800781 2.167969 25.722656 C 2.167969 25.644531 2.183594 25.578125 2.210938 25.519531 C 2.238281 25.460938 2.28125 25.414062 2.332031 25.382812 C 2.382812 25.347656 2.445312 25.332031 2.515625 25.332031 C 2.558594 25.332031 2.597656 25.339844 2.640625 25.351562 C 2.679688 25.367188 2.714844 25.390625 2.746094 25.417969 C 2.777344 25.449219 2.804688 25.488281 2.820312 25.535156 C 2.839844 25.582031 2.847656 25.640625 2.847656 25.710938 L 2.847656 25.761719 L 2.25 25.761719 L 2.25 25.652344 L 2.703125 25.652344 C 2.703125 25.613281 2.695312 25.578125 2.679688 25.550781 C 2.664062 25.519531 2.644531 25.496094 2.617188 25.480469 C 2.585938 25.460938 2.554688 25.453125 2.515625 25.453125 C 2.476562 25.453125 2.4375 25.460938 2.410156 25.484375 C 2.378906 25.503906 2.355469 25.527344 2.339844 25.5625 C 2.320312 25.59375 2.3125 25.628906 2.3125 25.664062 L 2.3125 25.75 C 2.3125 25.800781 2.324219 25.84375 2.339844 25.878906 C 2.359375 25.914062 2.382812 25.941406 2.414062 25.960938 C 2.445312 25.980469 2.484375 25.988281 2.527344 25.988281 C 2.554688 25.988281 2.582031 25.984375 2.601562 25.976562 C 2.625 25.96875 2.644531 25.957031 2.664062 25.941406 C 2.679688 25.925781 2.691406 25.902344 2.699219 25.878906 L 2.839844 25.90625 C 2.828125 25.945312 2.808594 25.980469 2.78125 26.011719 C 2.75 26.042969 2.714844 26.066406 2.671875 26.082031 C 2.628906 26.101562 2.582031 26.109375 2.527344 26.109375 Z M 3.632812 25.339844 L 3.359375 26.09375 L 3.203125 26.09375 L 2.929688 25.339844 L 3.085938 25.339844 L 3.277344 25.921875 L 3.285156 25.921875 L 3.476562 25.339844 Z M 3.96875 26.109375 C 3.921875 26.109375 3.878906 26.101562 3.839844 26.082031 C 3.800781 26.066406 3.769531 26.039062 3.746094 26.007812 C 3.726562 25.972656 3.714844 25.929688 3.714844 25.882812 C 3.714844 25.839844 3.722656 25.804688 3.738281 25.777344 C 3.753906 25.75 3.777344 25.726562 3.804688 25.710938 C 3.832031 25.695312 3.863281 25.683594 3.898438 25.675781 C 3.933594 25.667969 3.964844 25.660156 4.003906 25.65625 C 4.046875 25.652344 4.082031 25.648438 4.113281 25.644531 C 4.140625 25.640625 4.160156 25.632812 4.171875 25.625 C 4.1875 25.617188 4.191406 25.605469 4.191406 25.589844 L 4.191406 25.585938 C 4.191406 25.542969 4.179688 25.507812 4.15625 25.484375 C 4.132812 25.460938 4.097656 25.449219 4.050781 25.449219 C 4 25.449219 3.960938 25.460938 3.933594 25.484375 C 3.90625 25.503906 3.886719 25.527344 3.875 25.554688 L 3.738281 25.523438 C 3.753906 25.476562 3.777344 25.441406 3.808594 25.414062 C 3.839844 25.382812 3.875 25.363281 3.917969 25.351562 C 3.957031 25.339844 4.003906 25.332031 4.046875 25.332031 C 4.078125 25.332031 4.109375 25.335938 4.144531 25.34375 C 4.175781 25.347656 4.207031 25.363281 4.238281 25.378906 C 4.269531 25.398438 4.292969 25.425781 4.3125 25.460938 C 4.328125 25.496094 4.339844 25.539062 4.339844 25.59375 L 4.339844 26.09375 L 4.195312 26.09375 L 4.195312 25.992188 L 4.191406 25.992188 C 4.179688 26.011719 4.167969 26.027344 4.148438 26.046875 C 4.128906 26.066406 4.105469 26.082031 4.074219 26.09375 C 4.046875 26.105469 4.007812 26.109375 3.96875 26.109375 Z M 4 25.992188 C 4.039062 25.992188 4.074219 25.984375 4.105469 25.96875 C 4.132812 25.953125 4.15625 25.933594 4.167969 25.90625 C 4.183594 25.878906 4.191406 25.851562 4.191406 25.824219 L 4.191406 25.726562 C 4.1875 25.730469 4.175781 25.734375 4.164062 25.738281 C 4.148438 25.746094 4.132812 25.75 4.113281 25.75 C 4.09375 25.753906 4.074219 25.757812 4.058594 25.757812 C 4.039062 25.761719 4.023438 25.765625 4.011719 25.765625 C 3.984375 25.769531 3.957031 25.773438 3.933594 25.785156 C 3.910156 25.792969 3.890625 25.804688 3.878906 25.820312 C 3.863281 25.835938 3.855469 25.855469 3.855469 25.882812 C 3.855469 25.917969 3.871094 25.945312 3.898438 25.964844 C 3.925781 25.984375 3.957031 25.992188 4 25.992188 Z M 5.097656 25.523438 L 4.964844 25.546875 C 4.960938 25.53125 4.949219 25.515625 4.9375 25.5 C 4.925781 25.484375 4.910156 25.472656 4.890625 25.460938 C 4.871094 25.453125 4.84375 25.449219 4.816406 25.449219 C 4.773438 25.449219 4.738281 25.457031 4.710938 25.476562 C 4.683594 25.492188 4.667969 25.519531 4.667969 25.546875 C 4.667969 25.570312 4.679688 25.59375 4.699219 25.609375 C 4.714844 25.621094 4.746094 25.636719 4.789062 25.644531 L 4.90625 25.671875 C 4.976562 25.6875 5.027344 25.714844 5.0625 25.746094 C 5.097656 25.78125 5.113281 25.824219 5.113281 25.875 C 5.113281 25.921875 5.101562 25.960938 5.074219 25.996094 C 5.046875 26.03125 5.011719 26.058594 4.964844 26.078125 C 4.917969 26.097656 4.867188 26.109375 4.804688 26.109375 C 4.722656 26.109375 4.652344 26.089844 4.597656 26.054688 C 4.546875 26.019531 4.511719 25.96875 4.5 25.902344 L 4.644531 25.878906 C 4.652344 25.917969 4.667969 25.945312 4.695312 25.964844 C 4.722656 25.980469 4.761719 25.992188 4.804688 25.992188 C 4.851562 25.992188 4.890625 25.980469 4.917969 25.960938 C 4.949219 25.941406 4.960938 25.917969 4.960938 25.886719 C 4.960938 25.863281 4.953125 25.84375 4.9375 25.828125 C 4.917969 25.8125 4.890625 25.800781 4.855469 25.792969 L 4.730469 25.761719 C 4.660156 25.746094 4.605469 25.722656 4.574219 25.6875 C 4.539062 25.652344 4.523438 25.609375 4.523438 25.554688 C 4.523438 25.511719 4.535156 25.472656 4.558594 25.4375 C 4.585938 25.40625 4.621094 25.378906 4.664062 25.359375 C 4.707031 25.339844 4.757812 25.332031 4.8125 25.332031 C 4.894531 25.332031 4.957031 25.347656 5.003906 25.382812 C 5.050781 25.417969 5.082031 25.464844 5.097656 25.523438 Z M 5.625 25.339844 L 5.625 25.460938 L 5.214844 25.460938 L 5.214844 25.339844 Z M 5.324219 25.160156 L 5.46875 25.160156 L 5.46875 25.871094 C 5.46875 25.902344 5.476562 25.921875 5.484375 25.9375 C 5.492188 25.949219 5.503906 25.960938 5.515625 25.964844 C 5.53125 25.972656 5.542969 25.972656 5.5625 25.972656 C 5.574219 25.972656 5.582031 25.972656 5.589844 25.972656 C 5.601562 25.96875 5.605469 25.96875 5.613281 25.96875 L 5.640625 26.089844 C 5.628906 26.089844 5.617188 26.09375 5.601562 26.097656 C 5.585938 26.101562 5.566406 26.101562 5.542969 26.105469 C 5.503906 26.105469 5.46875 26.097656 5.4375 26.082031 C 5.402344 26.070312 5.375 26.046875 5.355469 26.015625 C 5.335938 25.988281 5.324219 25.949219 5.324219 25.902344 Z M 6.097656 26.109375 C 6.023438 26.109375 5.964844 26.09375 5.910156 26.058594 C 5.859375 26.027344 5.816406 25.984375 5.789062 25.925781 C 5.757812 25.867188 5.746094 25.796875 5.746094 25.722656 C 5.746094 25.644531 5.757812 25.574219 5.789062 25.515625 C 5.816406 25.457031 5.859375 25.414062 5.910156 25.378906 C 5.964844 25.347656 6.023438 25.332031 6.097656 25.332031 C 6.167969 25.332031 6.226562 25.347656 6.28125 25.378906 C 6.332031 25.414062 6.375 25.457031 6.402344 25.515625 C 6.433594 25.574219 6.445312 25.644531 6.445312 25.722656 C 6.445312 25.796875 6.433594 25.867188 6.402344 25.925781 C 6.375 25.984375 6.332031 26.027344 6.28125 26.058594 C 6.226562 26.09375 6.167969 26.109375 6.097656 26.109375 Z M 6.097656 25.984375 C 6.140625 25.984375 6.179688 25.972656 6.210938 25.949219 C 6.238281 25.925781 6.261719 25.894531 6.277344 25.851562 C 6.292969 25.8125 6.296875 25.769531 6.296875 25.71875 C 6.296875 25.671875 6.292969 25.628906 6.277344 25.589844 C 6.261719 25.546875 6.238281 25.515625 6.210938 25.492188 C 6.179688 25.464844 6.140625 25.453125 6.097656 25.453125 C 6.050781 25.453125 6.011719 25.464844 5.980469 25.492188 C 5.953125 25.515625 5.929688 25.546875 5.914062 25.589844 C 5.898438 25.628906 5.894531 25.671875 5.894531 25.71875 C 5.894531 25.769531 5.898438 25.8125 5.914062 25.851562 C 5.929688 25.894531 5.953125 25.925781 5.980469 25.949219 C 6.011719 25.972656 6.050781 25.984375 6.097656 25.984375 Z M 6.609375 26.375 L 6.609375 25.339844 L 6.753906 25.339844 L 6.753906 25.464844 L 6.765625 25.464844 C 6.773438 25.449219 6.785156 25.429688 6.800781 25.410156 C 6.816406 25.386719 6.839844 25.371094 6.867188 25.355469 C 6.898438 25.339844 6.933594 25.332031 6.980469 25.332031 C 7.042969 25.332031 7.097656 25.347656 7.144531 25.378906 C 7.191406 25.410156 7.230469 25.453125 7.257812 25.511719 C 7.285156 25.566406 7.296875 25.636719 7.296875 25.71875 C 7.296875 25.800781 7.285156 25.871094 7.257812 25.929688 C 7.230469 25.984375 7.191406 26.03125 7.144531 26.0625 C 7.097656 26.09375 7.042969 26.109375 6.984375 26.109375 C 6.9375 26.109375 6.898438 26.101562 6.871094 26.085938 C 6.839844 26.070312 6.820312 26.050781 6.804688 26.03125 C 6.785156 26.011719 6.773438 25.992188 6.765625 25.976562 L 6.757812 25.976562 L 6.757812 26.375 Z M 6.753906 25.71875 C 6.753906 25.769531 6.761719 25.816406 6.777344 25.855469 C 6.792969 25.898438 6.8125 25.929688 6.84375 25.949219 C 6.871094 25.972656 6.90625 25.984375 6.949219 25.984375 C 6.992188 25.984375 7.03125 25.972656 7.058594 25.949219 C 7.089844 25.925781 7.109375 25.894531 7.125 25.851562 C 7.140625 25.8125 7.148438 25.769531 7.148438 25.71875 C 7.148438 25.667969 7.140625 25.625 7.125 25.582031 C 7.113281 25.542969 7.089844 25.511719 7.058594 25.492188 C 7.03125 25.46875 6.992188 25.457031 6.949219 25.457031 C 6.90625 25.457031 6.871094 25.46875 6.84375 25.488281 C 6.8125 25.511719 6.789062 25.542969 6.777344 25.582031 C 6.761719 25.621094 6.753906 25.664062 6.753906 25.71875 Z M 7.777344 26.109375 C 7.707031 26.109375 7.644531 26.09375 7.59375 26.058594 C 7.539062 26.027344 7.5 25.984375 7.472656 25.925781 C 7.441406 25.867188 7.425781 25.796875 7.425781 25.722656 C 7.425781 25.644531 7.441406 25.574219 7.472656 25.515625 C 7.5 25.457031 7.539062 25.414062 7.59375 25.378906 C 7.644531 25.347656 7.707031 25.332031 7.777344 25.332031 C 7.847656 25.332031 7.910156 25.347656 7.960938 25.378906 C 8.015625 25.414062 8.054688 25.457031 8.085938 25.515625 C 8.113281 25.574219 8.128906 25.644531 8.128906 25.722656 C 8.128906 25.796875 8.113281 25.867188 8.085938 25.925781 C 8.054688 25.984375 8.015625 26.027344 7.960938 26.058594 C 7.910156 26.09375 7.847656 26.109375 7.777344 26.109375 Z M 7.777344 25.984375 C 7.824219 25.984375 7.863281 25.972656 7.890625 25.949219 C 7.921875 25.925781 7.945312 25.894531 7.957031 25.851562 C 7.972656 25.8125 7.980469 25.769531 7.980469 25.71875 C 7.980469 25.671875 7.972656 25.628906 7.957031 25.589844 C 7.945312 25.546875 7.921875 25.515625 7.890625 25.492188 C 7.863281 25.464844 7.824219 25.453125 7.777344 25.453125 C 7.734375 25.453125 7.695312 25.464844 7.664062 25.492188 C 7.632812 25.515625 7.613281 25.546875 7.597656 25.589844 C 7.582031 25.628906 7.574219 25.671875 7.574219 25.71875 C 7.574219 25.769531 7.582031 25.8125 7.597656 25.851562 C 7.613281 25.894531 7.632812 25.925781 7.664062 25.949219 C 7.695312 25.972656 7.734375 25.984375 7.777344 25.984375 Z M 8.4375 25.089844 L 8.4375 26.09375 L 8.292969 26.09375 L 8.292969 25.089844 Z M 8.4375 25.089844 " fill-opacity="1" fill-rule="nonzero"/><g clip-path="url(#b87a84b735)"><path stroke-linecap="round" transform="matrix(0.118224, 0, 0, 0.118224, 0.680216, 7.352096)" fill-opacity="1" fill="#000000" fill-rule="nonzero" stroke-linejoin="round" d="M 299.910445 87.092074 L 300.04261 87.686816 L 298.919209 88.34764 L 297.333232 91.1231 L 293.137 91.189182 L 289.634634 89.504082 L 288.015615 90.396194 L 287.553038 92.676036 L 290.163293 94.394178 L 288.940769 95.649744 L 285.900979 96.508815 L 284.414125 97.896545 L 285.041908 100.341593 L 285.471443 98.689533 L 285.900979 99.879016 L 283.323766 105.297772 L 284.711496 113.161576 L 287.123503 117.225643 L 281.176088 121.190586 L 273.014913 121.85141 L 270.371618 124.362541 L 256.229987 122.016616 L 253.718856 122.479193 L 252.496332 124.164294 L 250.612984 125.122488 L 247.275823 124.494706 L 242.319644 126.576301 L 241.724903 125.122488 L 240.27109 124.296459 L 240.27109 122.446152 L 237.627795 119.538527 L 231.614297 115.606625 L 224.047864 113.227659 L 217.902202 114.549306 L 213.672929 116.895231 L 209.80711 121.190586 L 209.972316 123.800841 L 212.549529 125.089447 L 207.758556 127.534495 L 207.461185 128.823102 L 208.221132 130.111709 L 210.005357 131.003821 L 209.641904 131.598562 L 205.11526 129.450885 L 200.753823 129.946503 L 199.86171 131.069903 L 200.159081 132.688922 L 199.134804 134.704435 L 195.764602 135.530464 L 193.583884 136.852112 L 191.865741 140.684891 L 191.436206 144.220298 L 188.032963 147.326171 L 185.620956 146.467099 L 185.753121 145.046328 L 184.398432 143.625557 L 182.250754 143.063857 L 181.424724 143.625557 L 179.772665 142.535197 L 176.33638 143.559474 L 176.303339 144.418545 L 174.65128 144.947205 L 172.99922 144.385504 L 162.822532 145.409781 L 158.593259 147.821788 L 154.165739 149.209519 L 143.262146 155.586469 L 140.222356 159.386206 L 137.01736 167.613463 L 135.497465 168.406452 L 135.3653 171.875777 L 132.391593 171.38016 L 130.309998 172.701807 L 128.393608 176.138091 L 122.479235 177.360616 L 119.604651 183.935813 L 114.813678 184.794884 L 112.864247 186.314779 L 109.494046 186.546067 L 108.337604 187.405138 L 101.795447 186.215656 L 101.86153 184.464472 L 102.588436 183.770607 L 104.141372 183.770607 L 105.132608 181.9203 L 99.713852 173.032219 L 98.887822 168.175164 L 92.874325 165.168415 L 92.246542 164.011973 L 92.345666 160.31136 L 94.823756 158.857547 L 95.121126 158.031517 L 94.592467 155.685593 L 91.024018 153.537915 L 85.902633 155.553428 L 84.085368 153.835286 L 83.854079 152.249308 L 84.779233 151.225031 L 86.827787 151.522402 L 88.248558 150.828537 L 87.554693 147.656582 L 86.431292 146.665347 L 81.805525 146.500141 L 79.955218 145.343699 L 78.137953 145.608028 L 78.468365 142.634321 L 79.823054 142.766486 L 81.276866 141.907415 L 82.235061 139.726696 L 82.697637 135.530464 L 81.772484 128.889184 L 82.069855 126.741507 L 79.129189 117.820385 L 75.659863 112.864205 L 71.034096 108.601892 L 66.507453 106.454214 L 63.831116 108.734056 L 60.593079 108.866221 L 59.007102 111.476475 L 57.355042 111.443434 L 55.108241 108.800139 L 52.03541 107.74282 L 49.458197 105.859472 L 43.312535 98.392163 L 37.794655 93.369901 L 32.078529 89.73537 L 28.443997 89.008464 L 21.373182 89.338876 L 13.740666 94.526343 L 2.473619 91.222224 L 3.828308 89.768411 L 3.894391 88.413722 L 1.449342 86.199962 L 5.909903 80.186465 L 9.214023 77.543169 L 14.897108 74.106885 L 16.813497 73.545185 L 17.771692 74.007762 L 18.069063 72.653073 L 23.686066 69.24983 L 24.710343 70.141942 L 25.73462 69.580242 L 26.263279 70.141942 L 27.617968 67.829058 L 27.188432 67.03607 L 25.800702 67.102152 L 26.03199 66.507411 L 32.342858 61.253861 L 45.625418 53.852634 L 48.665208 53.357016 L 49.82165 51.110214 L 51.275462 44.435893 L 50.746803 46.220118 L 51.638915 47.806095 L 54.216129 49.755526 L 55.868188 50.052896 L 63.798075 46.616612 L 69.084666 41.495227 L 70.769767 42.552545 L 71.265384 41.594351 L 72.52095 41.230898 L 72.52095 39.975332 L 73.413062 39.446673 L 74.106927 39.380591 L 74.536463 40.867444 L 76.585017 40.107497 L 77.047593 41.429145 L 77.642335 41.396104 L 79.327436 37.959819 L 80.219548 38.125025 L 82.697637 35.779101 L 84.41578 37.530284 L 85.737427 37.794613 L 87.653817 40.73528 L 87.455569 34.060959 L 88.545929 34.127041 L 90.759689 32.045446 L 92.874325 32.474981 L 93.204737 31.88024 L 92.18046 29.567356 L 86.133922 29.170862 L 84.481862 29.798645 L 84.349697 30.49251 L 82.961967 29.996892 L 83.953203 28.311791 L 82.76372 19.060257 L 84.779233 15.954384 L 82.829802 10.601711 L 84.316656 10.073052 L 82.76372 1.085847 L 84.845315 0.722394 L 87.852064 3.696102 L 88.975464 3.960431 L 89.669329 7.198468 L 90.429277 6.504603 L 91.090101 6.768933 L 90.825771 8.619239 L 91.684842 9.775681 L 93.105613 10.30434 L 93.865561 9.610475 L 95.583703 12.022482 L 96.04628 12.187688 L 98.226999 8.982693 L 97.037516 8.520116 L 96.541898 6.240273 L 97.764422 5.414244 L 99.218234 6.471562 L 100.738129 8.751404 L 100.738129 9.973928 L 98.854781 12.286812 L 99.350399 13.178924 L 97.797463 12.650265 L 97.632257 13.674542 L 99.713852 13.872789 L 102.324107 16.053508 L 103.381425 19.72108 L 103.084054 20.348863 L 102.191942 19.886286 L 101.927612 21.604429 L 102.621477 20.679275 L 103.546631 21.604429 L 103.943125 21.274017 L 103.877043 18.564639 L 104.802196 17.50732 L 105.859514 17.077785 L 106.520338 17.573403 L 105.826473 17.870774 L 106.02472 18.928092 L 106.883791 21.075769 L 107.511574 21.207934 L 108.172398 20.844481 L 106.619462 18.663762 L 110.45224 18.002938 L 109.461004 17.011703 L 107.875027 17.540362 L 105.661267 15.987426 L 106.520338 14.764901 L 112.005176 13.938872 L 115.309296 16.780414 L 116.333573 16.780414 L 117.09352 19.787163 L 119.802898 20.712316 L 122.512276 23.950353 L 123.866965 24.346848 L 120.661969 27.684008 L 120.067228 27.617926 L 119.769857 26.230196 L 117.787385 26.395402 L 119.241198 29.303027 L 121.554081 29.40215 L 121.289752 30.822922 L 124.428665 29.930809 L 125.056448 29.038697 L 125.94856 29.897768 L 126.245931 29.203903 L 125.320777 28.543079 L 124.692995 24.214683 L 123.437429 23.256488 L 123.866965 22.067005 L 122.380111 21.703552 L 123.073976 22.793911 L 122.280988 23.0252 L 120.13331 19.820204 L 118.844703 18.928092 L 117.952591 19.42371 L 118.48125 17.342115 L 120.893257 19.291545 L 122.314029 18.564639 L 125.089489 19.919328 L 125.94856 19.654998 L 127.732784 21.207934 L 127.732784 22.496541 L 126.708507 22.793911 L 127.765826 25.073754 L 128.228402 24.611177 L 127.567579 22.926076 L 129.880462 19.258504 L 130.904739 20.117575 L 130.11175 22.364376 L 130.673451 24.115559 L 133.481952 24.842465 L 133.548035 25.668495 L 134.638394 24.611177 L 134.109735 23.652983 L 134.53927 22.859994 L 132.887211 22.331335 L 132.986334 21.670511 L 134.836641 21.472264 L 135.927001 20.613193 L 138.40509 23.785147 L 139.726738 27.518802 L 145.475905 32.17761 L 144.682917 35.118277 L 145.3107 37.464201 L 147.326212 36.340801 L 148.879148 32.408899 L 151.291156 33.763588 L 152.348474 33.036682 L 150.29992 27.750091 L 151.225073 26.527566 L 150.366002 25.668495 L 156.379499 29.567356 L 157.139447 30.988128 L 155.586511 36.076471 L 150.266879 38.587602 L 150.233837 40.73528 L 147.52446 43.114246 L 147.227089 44.435893 L 143.625599 44.634141 L 144.550752 46.682695 L 149.771261 45.592335 L 154.231822 40.669197 L 157.734188 37.992861 L 163.020779 36.30776 L 164.573715 35.085236 L 165.697116 37.067707 L 164.904127 38.389355 L 163.185985 36.968584 L 158.857589 39.314508 L 157.734188 45.030635 L 164.507633 42.68471 L 164.771963 44.733264 L 165.564951 44.501976 L 166.688352 45.7245 L 165.234539 47.872177 L 164.210262 48.301713 L 163.912892 50.019855 L 161.269596 50.383308 L 158.725424 53.125727 L 159.98099 53.522222 L 160.344443 54.645622 L 164.243304 52.894439 L 165.267581 53.092686 L 166.985723 51.80408 L 173.461797 50.019855 L 169.39773 53.290933 L 170.455048 53.621345 L 170.388966 55.835105 L 173.296591 53.951757 L 174.453032 55.40557 L 173.56092 55.934229 L 173.527879 57.123712 L 174.750403 58.280154 L 176.171174 57.255877 L 179.772665 56.595053 L 179.409211 58.74273 L 180.863024 60.361749 L 184.034979 61.319943 L 188.330334 69.646324 L 190.048476 77.113634 L 188.297293 79.261312 L 185.224462 80.417753 L 184.167143 81.904607 L 186.28178 86.992951 L 188.462498 90.065782 L 191.997906 92.576913 L 193.088266 92.477789 L 193.881254 91.486553 L 196.095014 91.850006 L 201.811141 95.55062 L 207.32902 97.731339 L 208.122009 98.788657 L 205.974331 100.738087 L 207.692473 101.92757 L 207.59335 103.117053 L 208.98108 100.572881 L 214.333753 99.41644 L 215.027618 100.077264 L 215.291948 96.409691 L 211.954787 96.013197 L 209.707986 91.982171 L 206.965567 90.29707 L 205.11526 86.629498 L 203.99186 86.992951 L 198.143568 77.080593 L 194.938572 72.719155 L 192.92306 71.100137 L 187.636469 63.203291 L 186.215697 62.245097 L 184.62972 58.577524 L 183.374155 57.189794 L 182.515084 57.189794 L 179.904829 49.32599 L 177.889317 46.517489 L 179.078799 45.922747 L 187.041727 61.386026 L 203.958818 84.812232 L 211.161799 92.642995 L 215.126742 95.616702 L 219.322973 97.665256 L 225.6008 94.592425 L 233.695893 92.543871 L 234.191511 90.825729 L 236.504394 88.645011 L 236.636559 87.686816 L 235.777488 86.563415 L 241.031038 82.26806 L 240.865832 79.558682 L 242.980468 78.303117 L 244.665569 79.063064 L 242.716139 80.913371 L 244.302116 83.754914 L 248.399224 87.356404 L 251.934632 88.876299 L 255.337875 88.578928 L 257.782923 86.860786 L 259.071529 85.04352 L 258.906323 81.772442 L 259.897559 80.847289 L 265.283274 78.831776 L 274.270479 77.543169 L 276.715527 78.66657 L 278.268463 78.071829 L 280.350058 78.831776 L 283.323766 81.078577 L 286.165308 80.021259 L 287.982574 80.153424 L 291.650146 83.028008 L 293.500453 83.490584 L 294.491689 83.028008 L 294.921225 81.772442 L 296.507202 81.970689 L 297.762767 83.688831 L 297.465396 85.142644 Z M 299.910445 87.092074 " stroke="#ffffff" stroke-width="1.19" stroke-opacity="1" stroke-miterlimit="4"/></g><path fill="#ff5757" d="M 13.164062 20.46875 C 13.15625 20.421875 13.136719 20.386719 13.097656 20.363281 C 13.058594 20.335938 13.011719 20.324219 12.953125 20.324219 C 12.914062 20.324219 12.878906 20.328125 12.847656 20.34375 C 12.816406 20.355469 12.792969 20.375 12.777344 20.394531 C 12.761719 20.417969 12.753906 20.441406 12.753906 20.472656 C 12.753906 20.496094 12.757812 20.515625 12.769531 20.535156 C 12.78125 20.550781 12.796875 20.566406 12.816406 20.578125 C 12.832031 20.589844 12.851562 20.597656 12.875 20.605469 C 12.894531 20.613281 12.917969 20.621094 12.9375 20.625 L 13.035156 20.648438 C 13.066406 20.65625 13.097656 20.667969 13.132812 20.679688 C 13.164062 20.695312 13.195312 20.710938 13.226562 20.734375 C 13.253906 20.757812 13.277344 20.785156 13.296875 20.816406 C 13.3125 20.847656 13.320312 20.886719 13.320312 20.933594 C 13.320312 20.988281 13.308594 21.039062 13.277344 21.082031 C 13.25 21.128906 13.207031 21.160156 13.152344 21.1875 C 13.097656 21.214844 13.03125 21.226562 12.949219 21.226562 C 12.875 21.226562 12.8125 21.214844 12.757812 21.191406 C 12.703125 21.167969 12.660156 21.132812 12.628906 21.089844 C 12.597656 21.042969 12.578125 20.992188 12.574219 20.933594 L 12.726562 20.933594 C 12.730469 20.96875 12.742188 21 12.761719 21.023438 C 12.785156 21.046875 12.808594 21.0625 12.84375 21.074219 C 12.875 21.085938 12.910156 21.09375 12.949219 21.09375 C 12.992188 21.09375 13.03125 21.085938 13.0625 21.074219 C 13.097656 21.058594 13.125 21.039062 13.144531 21.015625 C 13.164062 20.992188 13.171875 20.964844 13.171875 20.929688 C 13.171875 20.902344 13.164062 20.875 13.148438 20.859375 C 13.128906 20.839844 13.109375 20.824219 13.078125 20.808594 C 13.050781 20.796875 13.019531 20.789062 12.980469 20.777344 L 12.863281 20.746094 C 12.785156 20.722656 12.71875 20.691406 12.671875 20.648438 C 12.625 20.605469 12.601562 20.550781 12.601562 20.480469 C 12.601562 20.421875 12.617188 20.371094 12.648438 20.328125 C 12.679688 20.285156 12.722656 20.253906 12.777344 20.230469 C 12.832031 20.203125 12.890625 20.191406 12.957031 20.191406 C 13.027344 20.191406 13.085938 20.203125 13.136719 20.226562 C 13.191406 20.25 13.230469 20.285156 13.261719 20.328125 C 13.292969 20.367188 13.308594 20.414062 13.308594 20.46875 Z M 13.492188 21.210938 L 13.492188 20.457031 L 13.636719 20.457031 L 13.636719 21.210938 Z M 13.566406 20.339844 C 13.539062 20.339844 13.519531 20.332031 13.5 20.316406 C 13.480469 20.296875 13.472656 20.277344 13.472656 20.253906 C 13.472656 20.230469 13.480469 20.207031 13.5 20.191406 C 13.519531 20.175781 13.539062 20.164062 13.566406 20.164062 C 13.589844 20.164062 13.613281 20.175781 13.628906 20.191406 C 13.648438 20.207031 13.65625 20.230469 13.65625 20.253906 C 13.65625 20.277344 13.648438 20.296875 13.628906 20.316406 C 13.613281 20.332031 13.589844 20.339844 13.566406 20.339844 Z M 13.835938 21.210938 L 13.835938 20.457031 L 13.976562 20.457031 L 13.976562 20.578125 L 13.984375 20.578125 C 14 20.539062 14.027344 20.503906 14.0625 20.480469 C 14.097656 20.457031 14.140625 20.445312 14.1875 20.445312 C 14.238281 20.445312 14.28125 20.457031 14.316406 20.480469 C 14.351562 20.503906 14.375 20.539062 14.390625 20.578125 L 14.398438 20.578125 C 14.417969 20.539062 14.445312 20.507812 14.484375 20.484375 C 14.523438 20.460938 14.570312 20.445312 14.625 20.445312 C 14.695312 20.445312 14.75 20.46875 14.792969 20.511719 C 14.835938 20.554688 14.859375 20.617188 14.859375 20.703125 L 14.859375 21.210938 L 14.710938 21.210938 L 14.710938 20.71875 C 14.710938 20.667969 14.695312 20.628906 14.667969 20.609375 C 14.640625 20.585938 14.609375 20.574219 14.570312 20.574219 C 14.523438 20.574219 14.484375 20.589844 14.457031 20.617188 C 14.433594 20.648438 14.417969 20.683594 14.417969 20.730469 L 14.417969 21.210938 L 14.273438 21.210938 L 14.273438 20.710938 C 14.273438 20.667969 14.261719 20.636719 14.234375 20.609375 C 14.210938 20.585938 14.175781 20.574219 14.136719 20.574219 C 14.109375 20.574219 14.082031 20.582031 14.058594 20.59375 C 14.035156 20.609375 14.015625 20.628906 14.003906 20.65625 C 13.988281 20.679688 13.980469 20.710938 13.980469 20.746094 L 13.980469 21.210938 Z M 15.410156 20.457031 L 15.410156 20.574219 L 14.988281 20.574219 L 14.988281 20.457031 Z M 15.101562 21.210938 L 15.101562 20.371094 C 15.101562 20.324219 15.113281 20.285156 15.132812 20.253906 C 15.15625 20.222656 15.183594 20.199219 15.214844 20.183594 C 15.25 20.167969 15.285156 20.160156 15.328125 20.160156 C 15.355469 20.160156 15.382812 20.160156 15.402344 20.167969 C 15.421875 20.171875 15.4375 20.175781 15.449219 20.179688 L 15.414062 20.296875 C 15.40625 20.296875 15.398438 20.292969 15.386719 20.289062 C 15.375 20.289062 15.363281 20.285156 15.347656 20.285156 C 15.3125 20.285156 15.289062 20.296875 15.273438 20.3125 C 15.257812 20.332031 15.25 20.355469 15.25 20.390625 L 15.25 21.210938 Z M 15.855469 21.222656 C 15.785156 21.222656 15.71875 21.207031 15.664062 21.175781 C 15.613281 21.144531 15.570312 21.101562 15.542969 21.042969 C 15.515625 20.984375 15.5 20.914062 15.5 20.835938 C 15.5 20.761719 15.515625 20.691406 15.542969 20.632812 C 15.570312 20.574219 15.613281 20.53125 15.664062 20.496094 C 15.714844 20.464844 15.777344 20.445312 15.847656 20.445312 C 15.890625 20.445312 15.929688 20.453125 15.96875 20.46875 C 16.011719 20.480469 16.046875 20.503906 16.078125 20.535156 C 16.109375 20.5625 16.132812 20.601562 16.152344 20.652344 C 16.171875 20.699219 16.179688 20.757812 16.179688 20.824219 L 16.179688 20.878906 L 15.582031 20.878906 L 15.582031 20.765625 L 16.035156 20.765625 C 16.035156 20.730469 16.027344 20.695312 16.011719 20.664062 C 15.996094 20.636719 15.976562 20.609375 15.945312 20.59375 C 15.917969 20.578125 15.886719 20.566406 15.847656 20.566406 C 15.808594 20.566406 15.769531 20.578125 15.742188 20.597656 C 15.710938 20.617188 15.6875 20.644531 15.667969 20.675781 C 15.652344 20.707031 15.644531 20.742188 15.644531 20.78125 L 15.644531 20.867188 C 15.644531 20.917969 15.652344 20.960938 15.671875 20.996094 C 15.691406 21.03125 15.714844 21.058594 15.746094 21.074219 C 15.777344 21.09375 15.816406 21.101562 15.859375 21.101562 C 15.886719 21.101562 15.910156 21.097656 15.933594 21.089844 C 15.957031 21.082031 15.976562 21.070312 15.992188 21.054688 C 16.011719 21.039062 16.023438 21.019531 16.03125 20.996094 L 16.171875 21.019531 C 16.160156 21.0625 16.140625 21.097656 16.109375 21.128906 C 16.082031 21.160156 16.046875 21.183594 16.003906 21.199219 C 15.960938 21.214844 15.914062 21.222656 15.855469 21.222656 Z M 16.34375 21.210938 L 16.34375 20.457031 L 16.484375 20.457031 L 16.484375 20.578125 L 16.492188 20.578125 C 16.503906 20.535156 16.53125 20.503906 16.566406 20.480469 C 16.597656 20.457031 16.640625 20.445312 16.683594 20.445312 C 16.691406 20.445312 16.703125 20.445312 16.714844 20.445312 C 16.726562 20.445312 16.738281 20.449219 16.746094 20.449219 L 16.746094 20.589844 C 16.738281 20.585938 16.730469 20.585938 16.714844 20.582031 C 16.699219 20.582031 16.683594 20.582031 16.667969 20.582031 C 16.632812 20.582031 16.601562 20.585938 16.578125 20.601562 C 16.550781 20.617188 16.527344 20.636719 16.511719 20.664062 C 16.496094 20.6875 16.488281 20.71875 16.488281 20.75 L 16.488281 21.210938 Z M 17.160156 21.222656 C 17.089844 21.222656 17.03125 21.207031 16.976562 21.175781 C 16.925781 21.144531 16.882812 21.097656 16.855469 21.039062 C 16.824219 20.980469 16.8125 20.914062 16.8125 20.835938 C 16.8125 20.757812 16.824219 20.691406 16.855469 20.632812 C 16.882812 20.574219 16.925781 20.527344 16.976562 20.496094 C 17.03125 20.464844 17.089844 20.445312 17.160156 20.445312 C 17.234375 20.445312 17.292969 20.464844 17.347656 20.496094 C 17.398438 20.527344 17.441406 20.574219 17.46875 20.632812 C 17.5 20.691406 17.511719 20.757812 17.511719 20.835938 C 17.511719 20.914062 17.5 20.980469 17.46875 21.039062 C 17.441406 21.097656 17.398438 21.144531 17.347656 21.175781 C 17.292969 21.207031 17.234375 21.222656 17.160156 21.222656 Z M 17.164062 21.101562 C 17.207031 21.101562 17.246094 21.089844 17.277344 21.066406 C 17.304688 21.039062 17.328125 21.007812 17.34375 20.96875 C 17.359375 20.929688 17.363281 20.882812 17.363281 20.835938 C 17.363281 20.789062 17.359375 20.742188 17.34375 20.703125 C 17.328125 20.664062 17.304688 20.628906 17.277344 20.605469 C 17.246094 20.582031 17.207031 20.570312 17.164062 20.570312 C 17.117188 20.570312 17.078125 20.582031 17.046875 20.605469 C 17.019531 20.628906 16.996094 20.664062 16.980469 20.703125 C 16.964844 20.742188 16.960938 20.789062 16.960938 20.835938 C 16.960938 20.882812 16.964844 20.929688 16.980469 20.96875 C 16.996094 21.007812 17.019531 21.039062 17.046875 21.066406 C 17.078125 21.089844 17.117188 21.101562 17.164062 21.101562 Z M 17.675781 21.492188 L 17.675781 20.457031 L 17.820312 20.457031 L 17.820312 20.578125 L 17.832031 20.578125 C 17.839844 20.5625 17.851562 20.546875 17.867188 20.523438 C 17.882812 20.503906 17.90625 20.484375 17.933594 20.46875 C 17.964844 20.453125 18 20.445312 18.046875 20.445312 C 18.109375 20.445312 18.164062 20.460938 18.210938 20.492188 C 18.257812 20.523438 18.296875 20.566406 18.320312 20.625 C 18.347656 20.683594 18.363281 20.753906 18.363281 20.835938 C 18.363281 20.914062 18.351562 20.984375 18.324219 21.042969 C 18.296875 21.101562 18.257812 21.144531 18.210938 21.175781 C 18.164062 21.207031 18.109375 21.222656 18.046875 21.222656 C 18.003906 21.222656 17.964844 21.214844 17.9375 21.199219 C 17.90625 21.183594 17.886719 21.167969 17.867188 21.148438 C 17.851562 21.125 17.839844 21.109375 17.832031 21.09375 L 17.824219 21.09375 L 17.824219 21.492188 Z M 17.820312 20.832031 C 17.820312 20.886719 17.828125 20.933594 17.84375 20.972656 C 17.859375 21.011719 17.878906 21.042969 17.910156 21.066406 C 17.9375 21.085938 17.972656 21.097656 18.015625 21.097656 C 18.058594 21.097656 18.097656 21.085938 18.125 21.0625 C 18.15625 21.039062 18.175781 21.007812 18.191406 20.96875 C 18.207031 20.929688 18.214844 20.882812 18.214844 20.832031 C 18.214844 20.785156 18.207031 20.738281 18.191406 20.699219 C 18.179688 20.660156 18.15625 20.628906 18.125 20.605469 C 18.097656 20.582031 18.058594 20.570312 18.015625 20.570312 C 17.972656 20.570312 17.9375 20.582031 17.910156 20.605469 C 17.878906 20.625 17.855469 20.65625 17.84375 20.695312 C 17.828125 20.734375 17.820312 20.78125 17.820312 20.832031 Z M 18.84375 21.222656 C 18.773438 21.222656 18.710938 21.207031 18.660156 21.175781 C 18.605469 21.144531 18.566406 21.097656 18.535156 21.039062 C 18.507812 20.980469 18.492188 20.914062 18.492188 20.835938 C 18.492188 20.757812 18.507812 20.691406 18.535156 20.632812 C 18.566406 20.574219 18.605469 20.527344 18.660156 20.496094 C 18.710938 20.464844 18.773438 20.445312 18.84375 20.445312 C 18.914062 20.445312 18.976562 20.464844 19.027344 20.496094 C 19.082031 20.527344 19.121094 20.574219 19.152344 20.632812 C 19.179688 20.691406 19.195312 20.757812 19.195312 20.835938 C 19.195312 20.914062 19.179688 20.980469 19.152344 21.039062 C 19.121094 21.097656 19.082031 21.144531 19.027344 21.175781 C 18.976562 21.207031 18.914062 21.222656 18.84375 21.222656 Z M 18.84375 21.101562 C 18.890625 21.101562 18.929688 21.089844 18.957031 21.066406 C 18.988281 21.039062 19.011719 21.007812 19.023438 20.96875 C 19.039062 20.929688 19.046875 20.882812 19.046875 20.835938 C 19.046875 20.789062 19.039062 20.742188 19.023438 20.703125 C 19.011719 20.664062 18.988281 20.628906 18.957031 20.605469 C 18.929688 20.582031 18.890625 20.570312 18.84375 20.570312 C 18.796875 20.570312 18.761719 20.582031 18.730469 20.605469 C 18.699219 20.628906 18.675781 20.664062 18.664062 20.703125 C 18.648438 20.742188 18.640625 20.789062 18.640625 20.835938 C 18.640625 20.882812 18.648438 20.929688 18.664062 20.96875 C 18.675781 21.007812 18.699219 21.039062 18.730469 21.066406 C 18.761719 21.089844 18.796875 21.101562 18.84375 21.101562 Z M 19.503906 20.207031 L 19.503906 21.210938 L 19.359375 21.210938 L 19.359375 20.207031 Z M 19.503906 20.207031 " fill-opacity="1" fill-rule="nonzero"/><g mask="url(#fdc19f08af)"><g transform="matrix(1, 0, 0, 1, 6, 14)"><g clip-path="url(#1f83e5e22d)"><g clip-path="url(#6953ed2822)"><path fill="#ff5757" d="M 2.417969 1.796875 L 2.101562 1.796875 C 2.089844 1.730469 2.066406 1.671875 2.035156 1.621094 C 2 1.570312 1.960938 1.523438 1.914062 1.488281 C 1.867188 1.453125 1.8125 1.425781 1.753906 1.410156 C 1.695312 1.390625 1.632812 1.382812 1.566406 1.382812 C 1.449219 1.382812 1.339844 1.410156 1.246094 1.472656 C 1.15625 1.53125 1.082031 1.617188 1.027344 1.734375 C 0.972656 1.851562 0.945312 1.992188 0.945312 2.15625 C 0.945312 2.324219 0.972656 2.46875 1.027344 2.582031 C 1.082031 2.699219 1.15625 2.785156 1.25 2.84375 C 1.34375 2.902344 1.449219 2.933594 1.566406 2.933594 C 1.632812 2.933594 1.691406 2.925781 1.75 2.90625 C 1.8125 2.890625 1.863281 2.863281 1.910156 2.828125 C 1.960938 2.792969 2 2.75 2.03125 2.699219 C 2.066406 2.648438 2.089844 2.589844 2.101562 2.523438 L 2.417969 2.527344 C 2.398438 2.625 2.367188 2.71875 2.320312 2.804688 C 2.269531 2.890625 2.210938 2.964844 2.132812 3.023438 C 2.058594 3.085938 1.972656 3.132812 1.878906 3.167969 C 1.78125 3.199219 1.675781 3.21875 1.5625 3.21875 C 1.386719 3.21875 1.226562 3.175781 1.085938 3.089844 C 0.945312 3.003906 0.835938 2.882812 0.757812 2.726562 C 0.675781 2.566406 0.636719 2.378906 0.636719 2.15625 C 0.636719 1.9375 0.675781 1.75 0.757812 1.589844 C 0.835938 1.433594 0.949219 1.308594 1.085938 1.226562 C 1.226562 1.140625 1.386719 1.097656 1.5625 1.097656 C 1.671875 1.097656 1.777344 1.113281 1.871094 1.144531 C 1.964844 1.175781 2.050781 1.222656 2.128906 1.28125 C 2.203125 1.34375 2.265625 1.414062 2.316406 1.5 C 2.367188 1.585938 2.398438 1.6875 2.417969 1.796875 Z M 2.703125 3.191406 L 2.703125 1.125 L 3.441406 1.125 C 3.597656 1.125 3.730469 1.152344 3.835938 1.207031 C 3.945312 1.261719 4.023438 1.339844 4.074219 1.4375 C 4.128906 1.535156 4.152344 1.644531 4.152344 1.773438 C 4.152344 1.898438 4.128906 2.011719 4.074219 2.105469 C 4.023438 2.203125 3.941406 2.277344 3.835938 2.328125 C 3.730469 2.382812 3.597656 2.410156 3.4375 2.410156 L 2.882812 2.410156 L 2.882812 2.140625 L 3.410156 2.140625 C 3.511719 2.140625 3.59375 2.125 3.65625 2.097656 C 3.71875 2.070312 3.765625 2.027344 3.796875 1.972656 C 3.824219 1.917969 3.839844 1.851562 3.839844 1.773438 C 3.839844 1.695312 3.824219 1.628906 3.796875 1.570312 C 3.765625 1.511719 3.71875 1.46875 3.65625 1.4375 C 3.59375 1.410156 3.507812 1.394531 3.40625 1.394531 L 3.015625 1.394531 L 3.015625 3.191406 Z M 3.722656 2.257812 L 4.234375 3.191406 L 3.878906 3.191406 L 3.378906 2.257812 Z M 4.757812 1.125 L 4.757812 3.191406 L 4.449219 3.191406 L 4.449219 1.125 Z M 5.128906 1.125 L 5.503906 1.125 L 6.160156 2.730469 L 6.1875 2.730469 L 6.84375 1.125 L 7.222656 1.125 L 7.222656 3.191406 L 6.925781 3.191406 L 6.925781 1.695312 L 6.90625 1.695312 L 6.296875 3.1875 L 6.050781 3.1875 L 5.441406 1.695312 L 5.421875 1.695312 L 5.421875 3.191406 L 5.128906 3.191406 Z M 7.589844 3.191406 L 7.589844 1.125 L 8.882812 1.125 L 8.882812 1.394531 L 7.898438 1.394531 L 7.898438 2.023438 L 8.816406 2.023438 L 8.816406 2.289062 L 7.898438 2.289062 L 7.898438 2.921875 L 8.894531 2.921875 L 8.894531 3.191406 Z M 9.386719 3.191406 L 9.058594 3.191406 L 9.800781 1.125 L 10.160156 1.125 L 10.902344 3.191406 L 10.570312 3.191406 L 9.988281 1.5 L 9.972656 1.5 Z M 9.441406 2.382812 L 10.515625 2.382812 L 10.515625 2.644531 L 9.441406 2.644531 Z M 9.441406 2.382812 " fill-opacity="1" fill-rule="nonzero"/></g></g></g></g></svg>