<svg xmlns="http://www.w3.org/2000/svg" xmlns:xlink="http://www.w3.org/1999/xlink" width="50" zoomAndPan="magnify" viewBox="0 0 37.5 37.499999" height="50" preserveAspectRatio="xMidYMid meet" version="1.0"><defs><filter x="0%" y="0%" width="100%" height="100%" id="51a2a838db"><feColorMatrix values="0 0 0 0 1 0 0 0 0 1 0 0 0 0 1 0 0 0 1 0" color-interpolation-filters="sRGB"/></filter><clipPath id="036c3ed4ab"><path d="M 0 5 L 36.265625 5 L 36.265625 32 L 0 32 Z M 0 5 " clip-rule="nonzero"/></clipPath><mask id="0e02a3f1ef"><g filter="url(#51a2a838db)"><rect x="-3.75" width="45" fill="#000000" y="-3.75" height="44.999999" fill-opacity="0.08"/></g></mask><clipPath id="773e4268be"><path d="M 0.15625 1 L 16 1 L 16 3.710938 L 0.15625 3.710938 Z M 0.15625 1 " clip-rule="nonzero"/></clipPath><clipPath id="ab3325b44e"><rect x="0" width="17" y="0" height="4"/></clipPath></defs><g clip-path="url(#036c3ed4ab)"><path stroke-linecap="round" transform="matrix(0.141658, 0, 0, 0.141658, -0.0708285, 4.877477)" fill-opacity="1" fill="#000000" fill-rule="nonzero" stroke-linejoin="round" d="M 231.084012 169.184082 L 234.172437 168.742878 L 233.676083 171.417675 L 231.277039 170.700719 L 228.105888 167.419268 L 229.622525 167.69502 Z M 76.138833 161.849073 L 83.308391 163.117533 L 90.615826 165.489002 L 94.200605 164.799621 L 98.033561 162.455727 L 100.598056 164.57902 L 102.638623 164.937498 L 103.52103 163.889639 L 105.975225 165.654453 L 110.166659 166.012931 L 112.096924 167.171091 L 109.449703 167.943197 L 98.392039 167.11594 L 75.284002 161.986949 Z M 212.85679 156.003125 L 211.615905 156.885532 L 211.174701 158.374594 L 208.720506 159.67063 L 209.023834 162.566028 L 208.499904 162.566028 L 207.645073 158.815798 L 210.457745 156.113426 Z M 238.474172 154.596789 L 241.148969 171.610702 L 247.960049 190.168827 L 246.801889 190.803057 L 245.174951 185.288012 L 243.575588 183.10957 L 242.307128 183.385322 L 241.645323 185.701641 L 240.238986 187.080402 L 238.584473 187.328579 L 238.005393 185.922242 L 239.494455 182.420189 L 240.349287 176.160613 L 239.41173 175.030029 L 239.384154 173.182489 L 241.728048 175.526383 L 239.908084 170.893746 L 238.529322 170.342241 L 238.8878 168.136223 L 238.060544 168.218949 L 237.398738 164.744471 L 236.102703 163.36571 L 234.751517 163.558736 L 233.620933 167.805321 L 232.049145 164.689321 L 229.981003 163.586312 L 230.725534 161.849073 L 230.118879 160.332435 L 227.361357 159.229426 L 227.361357 158.209143 L 230.973711 158.843373 L 233.813959 157.795515 L 234.944543 160.911515 L 235.744225 161.242418 L 237.04026 159.367302 L 236.40603 154.624364 L 237.867517 153.383479 Z M 9.213767 143.511549 L 12.633095 143.04277 L 13.074298 143.5667 L 11.612811 144.035478 L 11.39221 144.752434 L 32.763008 150.046877 L 14.315183 145.938169 L 7.145625 143.235797 L 3.395395 140.119797 L 1.382404 136.645319 L 1.106651 132.674486 L 1.989059 130.882097 L 2.678439 131.047548 L 2.568138 136.369566 L 3.312669 139.071938 L 5.132634 141.415832 Z M 114.220217 3.870619 L 119.762836 5.19423 L 124.340323 4.091221 L 124.588501 5.966336 L 123.26489 7.289947 L 123.016713 8.861735 L 125.002129 8.999611 L 127.539049 7.455398 L 128.062979 7.841451 L 127.897527 10.847151 L 129.938094 11.977735 L 130.07597 14.073452 L 132.750767 12.942868 L 131.234129 11.040177 L 131.096253 9.744142 L 142.457245 7.565699 L 141.823015 3.043363 L 149.075299 1.581876 L 150.178308 4.256672 L 151.281316 4.504849 L 151.033139 5.883611 L 149.957706 6.269664 L 149.902555 11.867434 L 153.101281 10.792 L 153.735511 13.825275 L 174.334203 10.516248 L 177.229601 14.955859 L 179.215017 16.610372 L 189.3627 14.569806 L 195.484399 17.768532 L 196.697709 19.119718 L 198.02132 26.84078 L 198.958877 26.78563 L 200.392789 35.306374 L 201.330346 36.07848 L 202.957285 34.423967 L 205.025426 34.148214 L 206.238736 35.140922 L 208.169002 34.727294 L 207.9484 33.624285 L 209.382312 33.320958 L 209.106559 30.949488 L 216.358843 29.515577 L 216.02794 31.252816 L 213.739197 31.969772 L 214.456153 35.471825 L 216.496719 35.168498 L 217.048224 36.823011 L 217.296401 38.532675 L 214.538878 39.056604 L 216.60702 53.892074 L 218.950914 53.671472 L 219.971197 62.495544 L 221.598135 62.274942 L 222.232366 65.473668 L 223.611127 65.556393 L 223.886879 67.624535 L 228.271339 67.073031 L 228.547092 69.279049 L 232.049145 68.727544 L 233.29003 77.331014 L 236.957535 77.000111 L 237.812367 82.653032 L 233.483057 83.314837 L 234.062136 87.809598 L 233.014278 87.864749 L 232.986703 90.098342 L 231.993995 90.153492 L 232.02157 91.09105 L 226.341074 91.863156 L 226.47895 93.241917 L 224.135056 93.600395 L 224.714136 97.460927 L 228.078313 97.074873 L 228.298915 98.453635 L 232.766101 97.90213 L 233.455481 103.830803 L 230.394632 104.71321 L 231.056437 108.463441 L 232.931552 108.40829 L 233.510632 111.689742 L 243.106809 110.145529 L 243.492863 112.985777 L 242.52773 113.261529 L 243.16196 116.43268 L 246.994916 115.8536 L 252.482385 119.245353 L 254.853855 118.91445 L 256.14989 137.858628 L 258.218032 137.665602 L 256.398067 140.009496 L 253.447518 141.829461 L 243.492863 143.952753 L 238.942951 147.647833 L 237.481464 152.087444 L 234.751517 152.22532 L 233.676083 150.818983 L 231.690667 151.370488 L 228.354065 149.771125 L 224.272932 150.874134 L 223.859304 153.355904 L 225.403516 158.898524 L 222.756295 165.516577 L 221.377534 167.805321 L 218.316684 170.617994 L 217.682454 169.432259 L 216.717321 168.96348 L 216.02794 169.487409 L 214.869781 170.507693 L 213.794347 173.458241 L 213.104967 170.011339 L 213.739197 168.605002 L 212.746489 167.667445 L 209.189285 166.757462 L 209.327161 165.489002 L 210.457745 163.834489 L 213.711622 164.358418 L 213.711622 163.696613 L 211.229852 163.255409 L 210.595621 159.836081 L 212.22256 158.567621 L 213.270418 156.582205 L 212.91194 155.727373 L 213.766772 155.865249 L 214.538878 159.477603 L 215.421285 156.55463 L 218.39941 155.34132 L 219.860896 158.071267 L 219.778171 158.650347 L 218.840613 158.45732 L 218.950914 159.394878 L 220.136649 159.836081 L 221.487835 156.802807 L 221.625711 151.70139 L 219.943622 150.653532 L 218.344259 148.392364 L 217.351551 148.447514 L 216.579445 149.522948 L 216.579445 151.06716 L 217.765179 153.355904 L 215.807339 153.879833 L 215.504011 154.70709 L 213.463445 154.265886 L 211.753781 152.694098 L 210.816223 152.694098 L 210.264719 151.232612 L 209.409887 151.232612 L 206.514488 148.226912 L 204.418771 148.750842 L 203.177886 146.848151 L 203.343338 144.807585 L 202.130028 142.215514 L 200.971869 141.912186 L 202.074877 144.973036 L 201.054594 148.695691 L 201.909426 151.342913 L 203.288187 150.846559 L 203.839692 151.673815 L 202.460931 154.017709 L 202.157603 157.630063 L 200.696116 157.988541 L 200.447939 152.418346 L 197.993744 149.605673 L 196.311656 144.752434 L 194.739868 143.428824 L 193.802311 140.947053 L 191.734169 138.603159 L 190.68631 138.65831 L 189.638452 141.608859 L 187.956363 140.119797 L 187.046381 141.19523 L 190.189956 142.105213 L 192.340824 148.695691 L 194.38139 150.515656 L 194.050488 151.811691 L 190.906912 154.265886 L 190.189956 153.355904 L 191.541142 150.019302 L 190.465709 147.123903 L 189.169673 146.73785 L 188.259691 149.688399 L 186.412151 150.322629 L 186.715478 150.818983 L 188.176965 150.129603 L 189.169673 151.01201 L 189.803903 152.252895 L 189.555726 153.769532 L 191.237815 154.927692 L 190.189956 156.968258 L 189.169673 154.955267 L 188.011514 154.265886 L 186.632753 156.0307 L 185.612469 155.892824 L 185.502168 153.714382 L 183.957956 152.252895 L 182.468894 154.541638 L 182.524044 156.499479 L 177.560504 147.482381 L 175.464787 145.827868 L 173.755123 145.386664 L 171.742132 146.10362 L 170.639123 144.393956 L 169.839442 145.496965 L 167.716149 145.855443 L 163.248963 142.270664 L 162.614733 143.649425 L 159.526308 143.732151 L 159.085105 145.193638 L 160.684468 148.061461 L 159.250556 148.309638 L 157.32029 147.31693 L 156.189706 146.379372 L 155.969104 145.193638 L 155.196998 145.552116 L 153.432184 143.814877 L 153.735511 145.055762 L 151.66737 145.41424 L 153.211582 154.376187 L 151.72252 154.900116 L 151.171016 153.411054 L 149.351051 152.445921 L 147.97229 154.734665 L 146.841706 154.734665 L 146.207475 156.60978 L 145.242343 156.857957 L 144.27721 156.141001 L 144.635688 158.622771 L 147.917139 161.021816 L 144.745989 160.360011 L 143.339652 161.021816 L 142.981174 163.282984 L 144.718413 165.737179 L 142.843298 165.571728 L 140.664856 163.779338 L 138.293386 164.661745 L 138.017634 165.764754 L 131.758059 157.299161 L 131.178979 157.078559 L 130.158696 158.016117 L 129.745067 160.994241 L 127.952678 160.690913 L 127.787226 159.312152 L 129.138412 159.312152 L 129.745067 156.334028 L 128.062979 155.093143 L 125.939686 154.458913 L 123.32004 155.175869 L 122.68581 155.561922 L 122.68581 157.988541 L 121.99643 157.602488 L 122.327332 154.982842 L 123.89912 152.969851 L 122.410058 150.791408 L 123.788819 146.379372 L 122.189456 149.16447 L 121.031297 148.805992 L 121.610376 150.322629 L 120.700394 152.776824 L 116.812288 156.003125 L 113.44811 154.734665 L 112.427827 152.9147 L 109.890907 152.666523 L 109.201526 153.43863 L 109.863331 154.541638 L 108.787898 156.113426 L 109.64273 157.161285 L 108.622446 157.547338 L 105.120393 157.354311 L 103.024676 158.016117 L 97.371755 156.885532 L 95.413914 157.492187 L 91.057029 156.196152 L 89.26464 156.802807 L 88.878587 157.685214 L 84.494126 158.650347 L 82.756887 157.850665 L 79.227258 158.650347 L 75.035825 160.663338 L 74.649771 161.656046 L 75.201276 162.069674 L 71.533771 161.214842 L 50.604177 154.679515 L 52.20354 154.982842 L 53.085947 153.659231 L 52.451717 151.453213 L 52.727469 150.956859 L 53.030797 151.673815 L 53.665027 151.425638 L 53.085947 149.881426 L 50.797203 149.192045 L 49.804495 150.102028 L 50.631752 150.763833 L 49.859646 150.681107 L 47.102124 147.785709 L 45.227008 147.813284 L 42.469486 145.745142 L 41.476778 143.015195 L 39.518937 142.160363 L 38.553804 143.097921 L 34.086618 142.325815 L 32.652707 140.919478 L 31.8806 138.741036 L 28.681875 138.02408 L 27.303113 140.919478 L 20.960812 140.588576 L 20.216281 141.388257 L 19.857803 138.410133 L 18.589343 138.161956 L 19.030546 136.976221 L 20.933237 135.432009 L 23.938936 134.246274 L 30.336388 134.080823 L 33.176636 133.225991 L 36.20991 131.764504 L 37.285344 129.806663 L 39.188035 129.696362 L 40.401344 128.703654 L 38.140176 123.354061 L 36.954441 122.085601 L 35.961733 121.837424 L 34.086618 123.326486 L 32.652707 123.381636 L 22.118971 119.272928 L 23.249556 117.342662 L 24.959219 117.259937 L 25.758901 115.357246 L 27.220388 115.936326 L 29.012777 115.21937 L 29.426406 116.019052 L 34.969025 118.032043 L 39.353486 118.28022 L 41.614654 117.397813 L 45.089132 117.315087 L 50.493876 119.272928 L 54.878336 119.521105 L 60.751859 121.010167 L 64.970868 120.155335 L 66.542656 118.666273 L 66.735682 117.783866 L 65.053594 117.535689 L 62.378797 118.087193 L 60.503682 119.107477 L 60.338231 119.879583 L 59.06977 119.879583 L 56.588 118.252645 L 58.187363 117.756291 L 58.077062 117.01176 L 55.843469 116.598131 L 58.463115 116.43268 L 57.194655 115.908751 L 56.836177 114.557565 L 57.939186 113.509706 L 56.781027 112.516998 L 57.773735 112.323972 L 57.856461 110.25583 L 57.194655 109.400998 L 53.665027 107.608609 L 45.916389 111.083087 L 43.379468 105.402591 L 39.84984 105.154414 L 34.858724 100.935405 L 35.217202 99.942697 L 38.222902 99.777245 L 37.395645 98.619086 L 42.221309 97.819404 L 41.531928 93.186767 L 40.566796 93.324643 L 40.208318 91.614979 L 43.682796 90.760147 L 44.344601 91.339227 L 47.984531 90.704997 L 48.370584 89.574413 L 51.817487 88.802307 L 51.348708 85.162377 L 53.995929 83.838766 L 52.231115 80.777917 L 61.055186 86.403262 L 62.985452 86.210236 L 62.461523 82.570306 L 69.410479 81.412147 L 69.879258 84.004218 L 74.318869 83.425138 L 73.877665 80.777917 L 74.815223 80.557315 L 74.236143 77.248288 L 75.008249 77.137987 L 75.201276 78.461598 L 77.186692 78.130695 L 78.041524 80.060961 L 85.597135 79.509456 L 86.148639 83.64574 L 90.450374 82.956359 L 91.194905 83.64574 L 91.498233 82.570306 L 94.366056 82.211828 L 94.448782 81.439722 L 104.15526 79.674908 L 103.962234 78.489173 L 102.142269 78.820076 L 101.811366 77.000111 L 97.371755 77.744642 L 96.461773 77.358589 L 96.268746 75.511049 L 102.611048 74.077137 L 102.362871 72.367474 L 106.499154 71.843544 L 106.168251 70.216606 L 104.237986 70.409633 L 102.8868 66.107898 L 104.320712 64.839438 L 109.477278 67.679686 L 112.731155 62.550694 L 103.024676 56.622021 L 101.232287 51.686056 L 104.182835 47.632498 L 104.78949 44.957702 L 108.015791 44.957702 L 108.153668 44.295896 L 108.980924 45.95041 L 110.525137 46.198587 L 110.414836 45.261029 L 112.510553 43.937419 L 112.538128 41.869277 L 114.854447 41.538374 L 115.92988 43.385914 L 117.115615 43.551365 L 118.080748 42.917135 L 117.14319 42.089879 L 117.253491 40.46294 L 120.755544 39.939011 L 117.72227 36.492108 L 116.288358 35.333949 L 115.323226 35.361524 L 115.185349 31.004639 L 117.501668 29.95678 L 116.619261 24.110833 L 110.635438 25.048391 L 110.27696 24.248709 L 110.001207 18.016709 L 111.572995 17.520355 L 111.517845 15.590089 L 112.648429 15.148886 L 112.924181 21.546337 L 117.66712 20.829382 L 116.729562 11.591682 L 118.328925 10.73685 L 117.998022 8.337805 L 117.694695 7.703575 L 114.468394 9.661416 Z M 114.220217 3.870619 " stroke="#ffffff" stroke-width="1.19" stroke-opacity="1" stroke-miterlimit="4"/></g><path fill="#ff5757" d="M 10.8125 22.511719 L 10.8125 21.308594 L 10.992188 21.308594 L 10.992188 21.882812 L 11.007812 21.882812 L 11.511719 21.308594 L 11.742188 21.308594 L 11.253906 21.851562 L 11.742188 22.511719 L 11.523438 22.511719 L 11.136719 21.972656 L 10.992188 22.136719 L 10.992188 22.511719 Z M 12.070312 21.976562 L 12.070312 22.511719 L 11.894531 22.511719 L 11.894531 21.308594 L 12.066406 21.308594 L 12.066406 21.757812 L 12.078125 21.757812 C 12.101562 21.707031 12.132812 21.667969 12.175781 21.640625 C 12.21875 21.613281 12.277344 21.597656 12.347656 21.597656 C 12.410156 21.597656 12.460938 21.609375 12.507812 21.636719 C 12.554688 21.660156 12.589844 21.699219 12.617188 21.75 C 12.640625 21.800781 12.65625 21.863281 12.65625 21.9375 L 12.65625 22.511719 L 12.480469 22.511719 L 12.480469 21.957031 C 12.480469 21.890625 12.460938 21.839844 12.429688 21.804688 C 12.394531 21.769531 12.347656 21.75 12.285156 21.75 C 12.246094 21.75 12.207031 21.757812 12.175781 21.777344 C 12.144531 21.792969 12.117188 21.820312 12.097656 21.851562 C 12.078125 21.886719 12.070312 21.925781 12.070312 21.976562 Z M 13.277344 22.527344 C 13.1875 22.527344 13.113281 22.511719 13.046875 22.472656 C 12.984375 22.433594 12.933594 22.378906 12.902344 22.308594 C 12.867188 22.242188 12.847656 22.160156 12.847656 22.066406 C 12.847656 21.972656 12.867188 21.890625 12.902344 21.820312 C 12.933594 21.75 12.984375 21.695312 13.046875 21.65625 C 13.109375 21.617188 13.183594 21.597656 13.265625 21.597656 C 13.316406 21.597656 13.367188 21.605469 13.414062 21.621094 C 13.460938 21.640625 13.503906 21.664062 13.542969 21.703125 C 13.578125 21.738281 13.609375 21.785156 13.632812 21.84375 C 13.652344 21.898438 13.664062 21.96875 13.664062 22.050781 L 13.664062 22.113281 L 12.949219 22.113281 L 12.949219 21.980469 L 13.492188 21.980469 C 13.492188 21.933594 13.484375 21.894531 13.464844 21.859375 C 13.445312 21.824219 13.417969 21.792969 13.386719 21.773438 C 13.351562 21.753906 13.3125 21.742188 13.265625 21.742188 C 13.21875 21.742188 13.175781 21.753906 13.136719 21.777344 C 13.101562 21.800781 13.074219 21.832031 13.054688 21.871094 C 13.035156 21.910156 13.023438 21.953125 13.023438 21.996094 L 13.023438 22.101562 C 13.023438 22.160156 13.035156 22.210938 13.054688 22.253906 C 13.078125 22.296875 13.105469 22.328125 13.144531 22.351562 C 13.183594 22.371094 13.226562 22.382812 13.28125 22.382812 C 13.3125 22.382812 13.34375 22.378906 13.371094 22.371094 C 13.398438 22.359375 13.421875 22.34375 13.441406 22.328125 C 13.460938 22.308594 13.476562 22.285156 13.488281 22.253906 L 13.652344 22.285156 C 13.640625 22.335938 13.617188 22.375 13.582031 22.414062 C 13.546875 22.449219 13.503906 22.476562 13.453125 22.5 C 13.402344 22.519531 13.34375 22.527344 13.277344 22.527344 Z M 13.859375 22.511719 L 13.859375 21.609375 L 14.027344 21.609375 L 14.027344 21.753906 L 14.039062 21.753906 C 14.054688 21.703125 14.082031 21.664062 14.125 21.636719 C 14.167969 21.609375 14.214844 21.59375 14.265625 21.59375 C 14.277344 21.59375 14.292969 21.597656 14.304688 21.597656 C 14.320312 21.597656 14.332031 21.597656 14.339844 21.601562 L 14.339844 21.769531 C 14.335938 21.765625 14.320312 21.761719 14.304688 21.761719 C 14.285156 21.757812 14.269531 21.757812 14.25 21.757812 C 14.207031 21.757812 14.171875 21.765625 14.140625 21.785156 C 14.105469 21.800781 14.082031 21.824219 14.0625 21.855469 C 14.042969 21.886719 14.035156 21.921875 14.035156 21.960938 L 14.035156 22.511719 Z M 15.167969 21.828125 L 15.011719 21.855469 C 15.003906 21.835938 14.992188 21.816406 14.976562 21.800781 C 14.964844 21.78125 14.945312 21.765625 14.921875 21.753906 C 14.894531 21.742188 14.867188 21.738281 14.828125 21.738281 C 14.78125 21.738281 14.738281 21.746094 14.707031 21.769531 C 14.671875 21.792969 14.65625 21.820312 14.65625 21.855469 C 14.65625 21.886719 14.667969 21.910156 14.6875 21.929688 C 14.710938 21.945312 14.746094 21.960938 14.796875 21.972656 L 14.941406 22.007812 C 15.023438 22.023438 15.085938 22.054688 15.125 22.09375 C 15.167969 22.132812 15.1875 22.1875 15.1875 22.25 C 15.1875 22.304688 15.171875 22.351562 15.140625 22.394531 C 15.109375 22.4375 15.066406 22.46875 15.011719 22.492188 C 14.953125 22.515625 14.890625 22.527344 14.816406 22.527344 C 14.71875 22.527344 14.632812 22.507812 14.570312 22.464844 C 14.507812 22.421875 14.46875 22.359375 14.453125 22.28125 L 14.625 22.253906 C 14.632812 22.296875 14.65625 22.332031 14.6875 22.355469 C 14.722656 22.375 14.765625 22.386719 14.816406 22.386719 C 14.875 22.386719 14.921875 22.375 14.953125 22.351562 C 14.988281 22.328125 15.007812 22.296875 15.007812 22.261719 C 15.007812 22.234375 14.996094 22.210938 14.976562 22.191406 C 14.953125 22.171875 14.921875 22.15625 14.878906 22.148438 L 14.726562 22.113281 C 14.640625 22.097656 14.582031 22.066406 14.539062 22.023438 C 14.5 21.980469 14.480469 21.929688 14.480469 21.863281 C 14.480469 21.8125 14.496094 21.765625 14.523438 21.726562 C 14.554688 21.683594 14.59375 21.652344 14.648438 21.632812 C 14.699219 21.609375 14.761719 21.597656 14.828125 21.597656 C 14.925781 21.597656 15.003906 21.617188 15.058594 21.660156 C 15.113281 21.703125 15.152344 21.757812 15.167969 21.828125 Z M 15.757812 22.527344 C 15.675781 22.527344 15.601562 22.507812 15.539062 22.46875 C 15.476562 22.433594 15.425781 22.378906 15.390625 22.308594 C 15.355469 22.238281 15.339844 22.15625 15.339844 22.0625 C 15.339844 21.96875 15.355469 21.886719 15.390625 21.820312 C 15.425781 21.75 15.476562 21.695312 15.539062 21.65625 C 15.601562 21.617188 15.675781 21.597656 15.757812 21.597656 C 15.84375 21.597656 15.917969 21.617188 15.980469 21.65625 C 16.042969 21.695312 16.09375 21.75 16.128906 21.820312 C 16.160156 21.886719 16.179688 21.96875 16.179688 22.0625 C 16.179688 22.15625 16.160156 22.238281 16.128906 22.308594 C 16.09375 22.378906 16.042969 22.433594 15.980469 22.46875 C 15.917969 22.507812 15.84375 22.527344 15.757812 22.527344 Z M 15.757812 22.382812 C 15.816406 22.382812 15.859375 22.367188 15.894531 22.339844 C 15.933594 22.308594 15.957031 22.269531 15.976562 22.222656 C 15.992188 22.175781 16.003906 22.121094 16.003906 22.0625 C 16.003906 22.007812 15.992188 21.953125 15.976562 21.90625 C 15.957031 21.855469 15.933594 21.816406 15.894531 21.789062 C 15.859375 21.757812 15.816406 21.742188 15.757812 21.742188 C 15.703125 21.742188 15.660156 21.757812 15.621094 21.789062 C 15.585938 21.816406 15.558594 21.855469 15.542969 21.90625 C 15.523438 21.953125 15.515625 22.007812 15.515625 22.0625 C 15.515625 22.121094 15.523438 22.175781 15.542969 22.222656 C 15.558594 22.269531 15.585938 22.308594 15.621094 22.339844 C 15.660156 22.367188 15.703125 22.382812 15.757812 22.382812 Z M 16.550781 21.976562 L 16.550781 22.511719 L 16.375 22.511719 L 16.375 21.609375 L 16.542969 21.609375 L 16.542969 21.757812 L 16.554688 21.757812 C 16.574219 21.707031 16.609375 21.667969 16.652344 21.640625 C 16.695312 21.613281 16.753906 21.597656 16.820312 21.597656 C 16.882812 21.597656 16.9375 21.609375 16.980469 21.636719 C 17.027344 21.660156 17.0625 21.699219 17.089844 21.75 C 17.113281 21.800781 17.128906 21.863281 17.128906 21.9375 L 17.128906 22.511719 L 16.953125 22.511719 L 16.953125 21.957031 C 16.953125 21.894531 16.933594 21.84375 16.902344 21.804688 C 16.867188 21.769531 16.820312 21.75 16.761719 21.75 C 16.71875 21.75 16.683594 21.757812 16.652344 21.777344 C 16.621094 21.792969 16.597656 21.820312 16.578125 21.851562 C 16.558594 21.886719 16.550781 21.925781 16.550781 21.976562 Z M 16.550781 21.976562 " fill-opacity="1" fill-rule="nonzero"/><g mask="url(#0e02a3f1ef)"><g transform="matrix(1, 0, 0, 1, 15, 15)"><g clip-path="url(#ab3325b44e)"><g clip-path="url(#773e4268be)"><path fill="#ff5757" d="M 0.484375 3.542969 L 0.484375 1.070312 L 0.859375 1.070312 L 0.859375 2.253906 L 0.886719 2.253906 L 1.925781 1.070312 L 2.394531 1.070312 L 1.398438 2.183594 L 2.398438 3.542969 L 1.949219 3.542969 L 1.148438 2.4375 L 0.859375 2.773438 L 0.859375 3.542969 Z M 2.640625 3.542969 L 2.640625 1.070312 L 3.011719 1.070312 L 3.011719 2.144531 L 4.246094 2.144531 L 4.246094 1.070312 L 4.621094 1.070312 L 4.621094 3.542969 L 4.246094 3.542969 L 4.246094 2.464844 L 3.011719 2.464844 L 3.011719 3.542969 Z M 5.0625 3.542969 L 5.0625 1.070312 L 6.613281 1.070312 L 6.613281 1.394531 L 5.433594 1.394531 L 5.433594 2.144531 L 6.53125 2.144531 L 6.53125 2.464844 L 5.433594 2.464844 L 5.433594 3.222656 L 6.625 3.222656 L 6.625 3.542969 Z M 7.007812 3.542969 L 7.007812 1.070312 L 7.890625 1.070312 C 8.082031 1.070312 8.238281 1.105469 8.367188 1.171875 C 8.492188 1.238281 8.589844 1.328125 8.652344 1.445312 C 8.714844 1.558594 8.746094 1.695312 8.746094 1.847656 C 8.746094 1.996094 8.714844 2.132812 8.648438 2.246094 C 8.585938 2.359375 8.492188 2.449219 8.363281 2.511719 C 8.238281 2.578125 8.078125 2.609375 7.886719 2.609375 L 7.21875 2.609375 L 7.21875 2.289062 L 7.855469 2.289062 C 7.976562 2.289062 8.074219 2.269531 8.148438 2.234375 C 8.226562 2.199219 8.28125 2.152344 8.316406 2.085938 C 8.351562 2.019531 8.371094 1.9375 8.371094 1.847656 C 8.371094 1.753906 8.351562 1.671875 8.316406 1.605469 C 8.28125 1.535156 8.222656 1.484375 8.148438 1.445312 C 8.070312 1.410156 7.972656 1.390625 7.847656 1.390625 L 7.382812 1.390625 L 7.382812 3.542969 Z M 8.230469 2.429688 L 8.839844 3.542969 L 8.414062 3.542969 L 7.816406 2.429688 Z M 10.445312 1.722656 C 10.433594 1.605469 10.378906 1.519531 10.285156 1.457031 C 10.191406 1.390625 10.074219 1.359375 9.933594 1.359375 C 9.832031 1.359375 9.746094 1.375 9.671875 1.410156 C 9.597656 1.441406 9.539062 1.484375 9.496094 1.539062 C 9.457031 1.59375 9.4375 1.65625 9.4375 1.726562 C 9.4375 1.785156 9.453125 1.835938 9.480469 1.878906 C 9.507812 1.921875 9.542969 1.957031 9.589844 1.984375 C 9.632812 2.011719 9.683594 2.039062 9.734375 2.058594 C 9.789062 2.074219 9.839844 2.089844 9.886719 2.101562 L 10.128906 2.164062 C 10.207031 2.183594 10.289062 2.210938 10.371094 2.242188 C 10.453125 2.277344 10.53125 2.320312 10.601562 2.375 C 10.671875 2.429688 10.730469 2.496094 10.773438 2.574219 C 10.816406 2.65625 10.839844 2.75 10.839844 2.859375 C 10.839844 3 10.804688 3.125 10.730469 3.234375 C 10.660156 3.34375 10.554688 3.429688 10.417969 3.492188 C 10.28125 3.554688 10.117188 3.585938 9.925781 3.585938 C 9.738281 3.585938 9.578125 3.554688 9.445312 3.496094 C 9.308594 3.4375 9.203125 3.355469 9.125 3.246094 C 9.050781 3.136719 9.007812 3.007812 9 2.859375 L 9.375 2.859375 C 9.382812 2.949219 9.410156 3.023438 9.460938 3.085938 C 9.511719 3.144531 9.578125 3.1875 9.65625 3.214844 C 9.738281 3.242188 9.824219 3.257812 9.921875 3.257812 C 10.027344 3.257812 10.121094 3.242188 10.203125 3.207031 C 10.285156 3.175781 10.351562 3.128906 10.398438 3.070312 C 10.445312 3.007812 10.46875 2.9375 10.46875 2.855469 C 10.46875 2.785156 10.449219 2.722656 10.40625 2.675781 C 10.367188 2.628906 10.308594 2.59375 10.238281 2.5625 C 10.167969 2.53125 10.089844 2.503906 10 2.480469 L 9.710938 2.402344 C 9.511719 2.347656 9.355469 2.269531 9.238281 2.164062 C 9.125 2.058594 9.066406 1.917969 9.066406 1.746094 C 9.066406 1.605469 9.105469 1.480469 9.183594 1.375 C 9.257812 1.269531 9.363281 1.1875 9.496094 1.128906 C 9.628906 1.066406 9.777344 1.039062 9.941406 1.039062 C 10.109375 1.039062 10.257812 1.066406 10.386719 1.125 C 10.515625 1.183594 10.617188 1.265625 10.691406 1.367188 C 10.765625 1.472656 10.800781 1.589844 10.804688 1.722656 Z M 13.332031 2.308594 C 13.332031 2.570312 13.28125 2.796875 13.1875 2.988281 C 13.089844 3.179688 12.957031 3.324219 12.789062 3.425781 C 12.621094 3.527344 12.429688 3.578125 12.21875 3.578125 C 12.003906 3.578125 11.8125 3.527344 11.644531 3.425781 C 11.476562 3.324219 11.34375 3.175781 11.25 2.988281 C 11.152344 2.796875 11.105469 2.570312 11.105469 2.308594 C 11.105469 2.042969 11.152344 1.816406 11.25 1.628906 C 11.34375 1.4375 11.476562 1.292969 11.644531 1.191406 C 11.8125 1.089844 12.003906 1.039062 12.21875 1.039062 C 12.429688 1.039062 12.621094 1.089844 12.789062 1.191406 C 12.957031 1.292969 13.089844 1.4375 13.1875 1.628906 C 13.28125 1.816406 13.332031 2.042969 13.332031 2.308594 Z M 12.960938 2.308594 C 12.960938 2.105469 12.929688 1.9375 12.863281 1.800781 C 12.800781 1.660156 12.710938 1.554688 12.597656 1.484375 C 12.484375 1.414062 12.359375 1.378906 12.21875 1.378906 C 12.074219 1.378906 11.949219 1.414062 11.835938 1.484375 C 11.722656 1.554688 11.636719 1.660156 11.570312 1.800781 C 11.507812 1.9375 11.472656 2.105469 11.472656 2.308594 C 11.472656 2.507812 11.507812 2.679688 11.570312 2.816406 C 11.636719 2.953125 11.722656 3.058594 11.835938 3.132812 C 11.949219 3.203125 12.074219 3.238281 12.21875 3.238281 C 12.359375 3.238281 12.484375 3.203125 12.597656 3.132812 C 12.710938 3.058594 12.800781 2.953125 12.863281 2.816406 C 12.929688 2.679688 12.960938 2.507812 12.960938 2.308594 Z M 15.691406 1.070312 L 15.691406 3.542969 L 15.347656 3.542969 L 14.089844 1.730469 L 14.066406 1.730469 L 14.066406 3.542969 L 13.695312 3.542969 L 13.695312 1.070312 L 14.039062 1.070312 L 15.296875 2.886719 L 15.320312 2.886719 L 15.320312 1.070312 Z M 15.691406 1.070312 " fill-opacity="1" fill-rule="nonzero"/></g></g></g></g></svg>