<svg xmlns="http://www.w3.org/2000/svg" xmlns:xlink="http://www.w3.org/1999/xlink" width="50" zoomAndPan="magnify" viewBox="0 0 37.5 37.499999" height="50" preserveAspectRatio="xMidYMid meet" version="1.0"><defs><filter x="0%" y="0%" width="100%" height="100%" id="27020bffe1"><feColorMatrix values="0 0 0 0 1 0 0 0 0 1 0 0 0 0 1 0 0 0 1 0" color-interpolation-filters="sRGB"/></filter><clipPath id="7c95290064"><path d="M 4.246094 3.128906 L 33 3.128906 L 33 34 L 4.246094 34 Z M 4.246094 3.128906 " clip-rule="nonzero"/></clipPath><mask id="f639ffa407"><g filter="url(#27020bffe1)"><rect x="-3.75" width="45" fill="#000000" y="-3.75" height="44.999999" fill-opacity="0.08"/></g></mask><clipPath id="392f2de22f"><path d="M 1 0.210938 L 17.527344 0.210938 L 17.527344 2.816406 L 1 2.816406 Z M 1 0.210938 " clip-rule="nonzero"/></clipPath><clipPath id="c6e2be2fa9"><rect x="0" width="18" y="0" height="3"/></clipPath></defs><g clip-path="url(#7c95290064)"><path stroke-linecap="round" transform="matrix(0.131186, 0, 0, 0.131186, 4.126831, 3.105024)" fill-opacity="1" fill="#000000" fill-rule="nonzero" stroke-linejoin="round" d="M 196.004853 1.521994 L 196.808819 1.283781 L 203.657418 4.231657 L 204.610266 3.725456 L 206.009762 4.172104 L 208.570543 1.819759 L 209.910486 1.879312 L 211.518418 3.278808 L 211.309982 4.320986 L 212.411714 4.856963 L 211.399312 7.507073 L 209.702051 8.13238 L 210.535793 10.067854 L 209.434062 10.454949 L 210.059369 11.229138 L 209.166073 12.24154 L 209.255403 13.789919 L 208.51099 14.951203 L 207.587918 15.100085 L 208.183448 16.827123 L 206.873281 19.209245 L 204.431607 20.162093 L 205.652444 21.591366 L 204.193395 23.050415 L 204.431607 24.628571 L 206.009762 26.921362 L 205.235573 27.159575 L 204.848478 29.184378 L 206.307528 29.392813 L 205.26535 28.886613 L 206.218198 28.291082 L 211.429089 30.673204 L 211.250429 31.864264 L 212.977467 32.489571 L 213.632551 33.94862 L 213.21568 35.020575 L 214.585399 34.63348 L 216.937744 35.467223 L 217.592828 34.871692 L 217.533274 40.61856 L 215.270259 40.678113 L 212.322384 41.98828 L 210.625123 39.278617 L 209.612721 39.219064 L 207.200823 41.511856 L 204.431607 41.422526 L 203.568088 43.328223 L 205.741774 44.251295 L 208.600319 47.735148 L 206.962611 53.303356 L 205.205796 53.333133 L 204.193395 52.469614 L 202.853452 52.886485 L 202.406804 54.315758 L 200.173565 53.750004 L 199.369599 54.911288 L 197.434126 55.030394 L 197.553232 55.953466 L 194.396921 56.221455 L 194.337368 58.48447 L 190.466421 60.955921 L 190.823739 64.350444 L 191.627705 64.677986 L 192.193459 66.315694 L 190.525974 67.060107 L 189.007371 70.395077 L 188.054523 70.275971 L 187.458992 71.169267 L 188.292735 71.437255 L 189.18603 74.534013 L 191.449046 77.094793 L 192.0148 83.79451 L 190.942845 86.057525 L 192.669883 86.563726 L 192.848542 90.226237 L 195.409322 93.174113 L 197.642561 93.590984 L 196.54083 94.782044 L 193.20586 94.692715 L 192.967648 95.58601 L 193.89072 97.849026 L 195.022228 98.474333 L 195.528429 102.077291 L 192.461447 103.715 L 191.627705 103.357681 L 191.121504 104.727401 L 191.419269 106.513992 L 190.466421 107.734829 L 189.96022 111.129352 L 191.32994 112.379966 L 190.168655 113.928345 L 191.449046 114.613205 L 191.121504 116.518902 L 190.168655 116.459349 L 189.722008 115.387394 L 188.024746 115.238512 L 188.530947 116.221137 L 189.573125 116.310466 L 189.722008 117.799292 L 187.965193 118.097057 L 186.148826 117.680186 L 186.208379 116.399796 L 184.511117 115.476724 L 185.851061 113.958121 L 185.195977 113.392368 L 183.171174 114.881193 L 184.600447 117.948175 L 184.451564 120.568508 L 186.416814 120.508955 L 187.458992 123.099512 L 186.565697 125.005209 L 185.106648 125.451857 L 186.02972 126.226046 L 184.719553 126.523812 L 187.071898 127.059789 L 186.02972 129.769452 L 186.71458 131.139172 L 184.064469 134.087047 L 184.66 136.677604 L 183.707151 137.332687 L 181.057041 137.422017 L 180.04464 138.583301 L 180.64017 139.119278 L 179.032238 141.590729 L 181.176147 143.675085 L 177.781624 149.511283 L 178.615367 150.225919 L 178.913132 149.689942 L 184.481341 150.702343 L 184.600447 151.774298 L 186.863462 152.220946 L 186.119049 154.424408 L 187.786534 155.823904 L 185.970167 157.134071 L 184.808882 160.885912 L 187.369663 161.957867 L 187.369663 160.885912 L 190.198432 159.218427 L 191.776587 164.846189 L 192.521 165.233283 L 193.384519 164.548424 L 196.183512 164.399541 L 195.885747 168.627806 L 196.63016 172.022329 L 194.873345 171.992553 L 194.009826 172.826295 L 194.66491 175.059534 L 193.89072 176.786572 L 194.962675 177.23322 L 192.908095 179.704671 L 193.801391 182.771652 L 192.759212 183.664947 L 195.290216 188.607849 L 196.600383 188.607849 L 197.106584 189.769133 L 198.386974 189.620251 L 198.863398 190.215781 L 197.076807 191.406842 L 191.657481 192.657456 L 192.640106 194.563153 L 192.431671 198.821195 L 190.168655 200.012255 L 190.496197 201.024657 L 189.215807 204.955157 L 190.525974 205.788899 L 189.037148 206.205771 L 188.798936 207.545714 L 185.315083 211.863309 L 186.655026 214.156101 L 184.868435 216.091574 L 183.498716 216.240457 L 182.724526 219.515874 L 179.836204 219.426544 L 180.253075 220.796264 L 179.449109 221.123806 L 179.002462 222.910397 L 177.99006 222.731738 L 176.977658 223.65481 L 177.543412 224.399223 L 175.518609 225.084082 L 175.786598 226.781344 L 170.069507 230.682068 L 166.70476 231.009609 L 166.466548 232.051787 L 167.419397 232.647318 L 166.764313 233.600166 L 165.245711 232.88553 L 164.799063 233.421507 L 163.786661 232.29 L 163.310237 233.064189 L 163.072025 232.468659 L 158.218453 232.468659 L 158.337559 231.009609 L 155.538566 231.396704 L 155.300354 232.647318 L 150.327676 232.29 L 147.677566 233.897931 L 144.878573 231.128715 L 145.325221 227.823522 L 141.900922 227.883075 L 138.893493 226.453802 L 138.32774 226.960003 L 136.690031 226.126261 L 136.362489 224.637435 L 133.235955 224.9352 L 132.729754 225.828495 L 133.235955 227.198215 L 131.151599 228.151064 L 130.88361 229.967431 L 128.2335 230.711844 L 128.977913 231.932681 L 128.203724 233.659719 L 127.072216 232.7962 L 126.35758 233.421507 L 125.613167 232.557988 L 120.432053 233.719272 L 120.253394 232.945083 L 121.504007 231.337151 L 121.236019 230.443855 L 118.556132 229.937655 L 116.144234 230.652291 L 115.578481 228.597711 L 117.156636 226.096484 L 113.613231 227.763969 L 111.796863 221.302465 L 107.71748 219.873192 L 108.461893 218.622578 L 107.449492 218.086601 L 108.848988 218.235484 L 109.027647 216.955093 L 110.099602 216.865764 L 110.635579 217.997271 L 113.196359 217.163529 L 114.536303 215.257832 L 113.79189 213.917889 L 114.536303 211.893085 L 112.481723 211.773979 L 107.71748 211.952638 L 106.615749 211.535767 L 104.412287 205.878229 L 101.613294 204.508509 L 99.85648 201.828623 L 96.461957 202.781471 L 96.43218 204.448956 L 94.586036 204.806274 L 94.943354 207.486161 L 94.139388 207.932809 L 94.318048 209.868282 L 87.588555 209.510964 L 86.189058 210.940237 L 84.759786 210.493589 L 84.730009 212.726828 L 83.628278 214.007218 L 79.310683 213.441464 L 78.208952 214.424089 L 75.826831 213.203252 L 75.469512 214.066771 L 73.623368 214.007218 L 69.841751 216.419116 L 68.263595 216.270233 L 67.96583 214.572972 L 64.839296 212.667275 L 61.891421 216.419116 L 61.147008 213.530794 L 56.740083 211.863309 L 56.76986 210.017165 L 56.204106 210.076718 L 55.906341 208.796328 L 51.797181 208.051915 L 51.797181 206.563089 L 50.367909 206.503536 L 50.397685 204.270297 L 53.970867 204.538286 L 54.596174 203.823649 L 54.03042 203.04946 L 54.506844 202.245494 L 52.6607 200.429126 L 54.238856 197.362145 L 53.941091 194.622706 L 53.137125 194.354717 L 53.107348 193.401868 L 51.975841 193.788963 L 51.886511 191.287736 L 50.219026 191.138853 L 50.278579 190.096675 L 47.181821 188.161201 L 47.300927 185.481315 L 43.846851 184.915561 L 43.132215 186.702152 L 35.300991 186.761705 L 34.79479 187.476342 L 31.251385 186.493717 L 30.447419 185.659974 L 29.49457 186.255504 L 29.256358 188.637626 L 27.648426 188.935391 L 26.487142 188.846061 L 26.189377 187.625224 L 27.142225 187.803883 L 27.201778 186.612823 L 29.256358 184.945338 L 26.397813 187.119023 L 22.2291 185.123997 L 19.57899 185.808857 L 19.400331 184.40936 L 20.323403 182.652546 L 19.191895 180.836178 L 20.17452 180.47886 L 21.276252 181.342379 L 21.54424 179.794 L 22.526865 178.930481 L 21.663346 174.017356 L 19.57899 172.796519 L 19.191895 171.813894 L 15.886702 170.920598 L 14.219217 165.918143 L 12.879274 164.071999 L 12.819721 159.992617 L 10.050505 158.831332 L 9.75274 156.985188 L 2.636152 157.431836 L 2.189504 154.037313 L 3.172129 151.595639 L 1.474868 149.213517 L 3.469894 148.260669 L 3.797436 147.39715 L 2.070398 144.866146 L 1.832186 140.876093 L 2.606376 139.804138 L 4.482296 140.072127 L 5.345815 139.476596 L 3.67833 138.642854 L 4.720508 136.677604 L 2.844588 134.1466 L 3.469894 133.431963 L 5.971122 133.699952 L 6.626205 133.163975 L 6.507099 131.466713 L 5.286262 130.03744 L 10.646035 127.357554 L 11.301118 125.064762 L 9.871846 125.660293 L 10.526929 124.886103 L 9.186986 124.111914 L 11.330895 122.057334 L 13.266369 121.223591 L 12.31352 118.752141 L 13.564134 116.638008 L 11.003353 111.248458 L 9.276315 111.695106 L 8.651008 111.040023 L 8.323467 108.479242 L 11.182012 107.407288 L 11.271342 106.662875 L 8.97855 105.382485 L 8.472349 102.553715 L 7.459948 101.57109 L 8.412796 97.432154 L 7.549277 96.925954 L 5.941345 98.057461 L 4.601402 95.556234 L 4.631179 94.573609 L 6.41777 93.680313 L 4.541849 93.144336 L 3.231682 91.65551 L 3.946319 90.791991 L 5.881792 91.268415 L 6.566652 90.613332 L 4.988497 89.571154 L 5.04805 88.767188 L 3.142353 88.231211 L 3.321012 86.921044 L 5.04805 84.806911 L 3.737883 83.347862 L 4.690732 82.663002 L 6.149781 84.062498 L 7.60883 84.211381 L 8.025702 82.395013 L 7.132406 79.149373 L 11.450001 78.226301 L 11.777543 75.695297 L 13.236592 72.896305 L 12.670838 72.360327 L 10.914024 72.866528 L 10.705588 72.003009 L 12.015755 71.199043 L 13.742793 71.288373 L 13.564134 70.275971 L 14.665865 68.757369 L 13.415251 65.452175 L 16.512009 64.082456 L 17.286198 60.658156 L 19.57899 58.603576 L 20.234074 56.459667 L 24.134797 56.936092 L 25.742729 54.256205 L 24.670775 51.070118 L 25.593847 50.266152 L 27.142225 51.219 L 27.797309 50.385258 L 26.725354 50.355481 L 26.755131 49.551515 L 28.482169 48.390231 L 29.137252 48.985761 L 30.358089 48.65822 L 30.060324 47.020511 L 31.846915 46.633417 L 30.596301 45.591239 L 31.251385 44.578837 L 32.323339 46.00811 L 33.42507 45.740121 L 33.395294 44.578837 L 32.14468 44.102413 L 32.650881 43.298447 L 32.174457 42.58381 L 33.335741 42.345598 L 32.799764 41.214091 L 33.693059 41.362973 L 32.82954 40.529231 L 33.961048 39.874147 L 32.859317 38.325768 L 33.484624 38.05778 L 33.901495 39.219064 L 34.616131 39.308393 L 33.544177 36.59873 L 34.88412 36.420071 L 34.765014 34.72281 L 35.658309 34.544151 L 35.56898 35.437446 L 37.385347 36.062753 L 43.102438 34.573927 L 45.365454 34.63348 L 48.491988 33.233984 L 49.861708 35.854318 L 53.613549 36.747613 L 53.524219 37.908897 L 54.566397 39.189287 L 56.561424 40.171912 L 59.628405 39.010628 L 61.236337 35.645882 L 60.730136 35.020575 L 61.593655 32.876666 L 65.970803 31.030522 L 65.434826 29.631026 L 67.340523 28.6484 L 70.70527 28.678177 L 71.955883 31.238957 L 73.474486 31.536723 L 75.648171 30.464768 L 81.782134 31.804711 L 86.576153 31.745158 L 89.583581 32.638454 L 90.149335 33.978397 L 94.407377 31.953594 L 96.908605 33.680632 L 100.54134 32.310912 L 103.042567 33.204208 L 107.062397 36.09253 L 106.853961 37.28359 L 105.84156 38.415098 L 104.322957 38.772416 L 104.888711 39.546606 L 103.995416 39.874147 L 107.985469 38.891522 L 116.829094 41.094985 L 117.156636 39.814594 L 119.59831 39.963477 L 120.670265 36.896496 L 124.124341 36.77739 L 126.149144 35.199234 L 128.2335 34.812139 L 130.97294 33.025548 L 131.181375 31.090075 L 132.84886 30.79231 L 133.02752 29.511919 L 136.392266 28.023094 L 136.18383 26.891586 L 133.503944 27.36801 L 134.99277 22.931309 L 133.355061 19.328351 L 134.873664 16.76757 L 137.404668 17.005782 L 138.565952 16.201816 L 137.791762 14.951203 L 138.268187 12.74774 L 136.779361 12.74774 L 135.528747 8.579028 L 135.647853 6.792437 L 136.451819 5.958695 L 139.101929 5.869365 L 141.454274 7.53685 L 143.270641 7.030649 L 145.057232 8.549252 L 146.546058 6.94132 L 149.464157 7.209308 L 151.637843 10.157183 L 153.632869 9.59143 L 159.052195 13.670812 L 160.332586 16.052934 L 164.263086 13.968578 L 164.918169 14.980979 L 167.240737 14.20679 L 168.550904 14.772544 L 170.069507 12.598858 L 173.344923 13.134835 L 173.553359 16.052934 L 175.042185 16.410252 L 179.002462 13.224165 L 181.32503 13.283718 L 181.92056 11.497127 L 184.749329 9.353217 L 185.999943 6.881767 L 186.803909 7.298638 L 186.923015 8.311039 L 186.119049 8.757687 L 186.595473 9.710536 L 189.900667 7.030649 L 191.270387 4.827187 L 193.741837 5.392941 L 193.89072 1.670876 L 195.141334 1.521994 L 195.439099 0.837134 Z M 196.004853 1.521994 " stroke="#ffffff" stroke-width="1.19" stroke-opacity="1" stroke-miterlimit="4"/></g><path fill="#ff5757" d="M 9.761719 15.4375 L 9.59375 15.4375 C 9.585938 15.402344 9.574219 15.371094 9.558594 15.34375 C 9.539062 15.316406 9.515625 15.292969 9.492188 15.273438 C 9.464844 15.253906 9.4375 15.238281 9.40625 15.230469 C 9.375 15.21875 9.339844 15.214844 9.304688 15.214844 C 9.242188 15.214844 9.183594 15.230469 9.132812 15.261719 C 9.082031 15.292969 9.042969 15.34375 9.011719 15.402344 C 8.984375 15.464844 8.96875 15.542969 8.96875 15.632812 C 8.96875 15.722656 8.984375 15.800781 9.011719 15.863281 C 9.042969 15.925781 9.082031 15.972656 9.132812 16.003906 C 9.183594 16.035156 9.242188 16.050781 9.304688 16.050781 C 9.339844 16.050781 9.371094 16.046875 9.402344 16.035156 C 9.4375 16.027344 9.464844 16.011719 9.492188 15.992188 C 9.515625 15.976562 9.539062 15.953125 9.554688 15.925781 C 9.574219 15.898438 9.585938 15.867188 9.59375 15.832031 L 9.761719 15.832031 C 9.753906 15.886719 9.734375 15.9375 9.710938 15.980469 C 9.683594 16.027344 9.652344 16.066406 9.609375 16.101562 C 9.570312 16.132812 9.523438 16.160156 9.472656 16.175781 C 9.421875 16.195312 9.363281 16.203125 9.304688 16.203125 C 9.207031 16.203125 9.121094 16.179688 9.046875 16.136719 C 8.96875 16.089844 8.910156 16.023438 8.867188 15.9375 C 8.824219 15.851562 8.800781 15.75 8.800781 15.632812 C 8.800781 15.515625 8.824219 15.410156 8.867188 15.328125 C 8.910156 15.242188 8.96875 15.175781 9.046875 15.128906 C 9.121094 15.082031 9.207031 15.0625 9.304688 15.0625 C 9.363281 15.0625 9.417969 15.070312 9.46875 15.085938 C 9.519531 15.101562 9.566406 15.128906 9.605469 15.160156 C 9.648438 15.191406 9.679688 15.230469 9.707031 15.277344 C 9.734375 15.324219 9.753906 15.378906 9.761719 15.4375 Z M 10.113281 15.695312 L 10.113281 16.1875 L 9.949219 16.1875 L 9.949219 15.074219 L 10.109375 15.074219 L 10.109375 15.488281 L 10.121094 15.488281 C 10.140625 15.445312 10.171875 15.410156 10.210938 15.382812 C 10.25 15.355469 10.304688 15.34375 10.367188 15.34375 C 10.425781 15.34375 10.476562 15.355469 10.519531 15.378906 C 10.5625 15.402344 10.59375 15.4375 10.617188 15.484375 C 10.640625 15.53125 10.65625 15.589844 10.65625 15.65625 L 10.65625 16.1875 L 10.492188 16.1875 L 10.492188 15.675781 C 10.492188 15.617188 10.476562 15.570312 10.445312 15.535156 C 10.414062 15.5 10.371094 15.484375 10.3125 15.484375 C 10.273438 15.484375 10.242188 15.492188 10.210938 15.507812 C 10.179688 15.523438 10.15625 15.550781 10.140625 15.582031 C 10.121094 15.613281 10.113281 15.648438 10.113281 15.695312 Z M 11.230469 16.207031 C 11.148438 16.207031 11.078125 16.1875 11.019531 16.152344 C 10.960938 16.117188 10.914062 16.066406 10.882812 16.003906 C 10.851562 15.9375 10.832031 15.863281 10.832031 15.777344 C 10.832031 15.691406 10.851562 15.617188 10.882812 15.550781 C 10.914062 15.484375 10.957031 15.433594 11.015625 15.398438 C 11.074219 15.363281 11.140625 15.34375 11.21875 15.34375 C 11.265625 15.34375 11.3125 15.351562 11.355469 15.367188 C 11.402344 15.382812 11.441406 15.40625 11.476562 15.441406 C 11.511719 15.472656 11.539062 15.515625 11.558594 15.570312 C 11.578125 15.621094 11.589844 15.6875 11.589844 15.761719 L 11.589844 15.820312 L 10.925781 15.820312 L 10.925781 15.699219 L 11.429688 15.699219 C 11.429688 15.65625 11.421875 15.617188 11.402344 15.585938 C 11.386719 15.550781 11.363281 15.527344 11.332031 15.507812 C 11.300781 15.488281 11.261719 15.476562 11.222656 15.476562 C 11.175781 15.476562 11.136719 15.488281 11.101562 15.511719 C 11.066406 15.535156 11.042969 15.5625 11.023438 15.597656 C 11.003906 15.632812 10.996094 15.671875 10.996094 15.714844 L 10.996094 15.808594 C 10.996094 15.863281 11.003906 15.914062 11.023438 15.953125 C 11.046875 15.992188 11.074219 16.019531 11.109375 16.042969 C 11.144531 16.0625 11.183594 16.070312 11.234375 16.070312 C 11.261719 16.070312 11.292969 16.066406 11.316406 16.058594 C 11.34375 16.050781 11.363281 16.035156 11.382812 16.019531 C 11.402344 16 11.414062 15.980469 11.425781 15.953125 L 11.578125 15.980469 C 11.566406 16.027344 11.542969 16.066406 11.511719 16.097656 C 11.480469 16.132812 11.441406 16.160156 11.394531 16.179688 C 11.347656 16.195312 11.292969 16.207031 11.230469 16.207031 Z M 11.769531 16.1875 L 11.769531 15.355469 L 11.925781 15.355469 L 11.925781 15.488281 L 11.933594 15.488281 C 11.949219 15.441406 11.976562 15.40625 12.015625 15.382812 C 12.054688 15.355469 12.097656 15.339844 12.148438 15.339844 C 12.15625 15.339844 12.167969 15.34375 12.183594 15.34375 C 12.195312 15.34375 12.207031 15.34375 12.214844 15.34375 L 12.214844 15.5 C 12.210938 15.5 12.199219 15.496094 12.179688 15.496094 C 12.164062 15.492188 12.148438 15.492188 12.132812 15.492188 C 12.09375 15.492188 12.058594 15.5 12.027344 15.515625 C 12 15.53125 11.976562 15.554688 11.957031 15.582031 C 11.941406 15.609375 11.933594 15.644531 11.933594 15.679688 L 11.933594 16.1875 Z M 12.519531 15.695312 L 12.519531 16.1875 L 12.355469 16.1875 L 12.355469 15.355469 L 12.511719 15.355469 L 12.511719 15.488281 L 12.523438 15.488281 C 12.542969 15.445312 12.574219 15.410156 12.613281 15.382812 C 12.65625 15.355469 12.707031 15.34375 12.769531 15.34375 C 12.828125 15.34375 12.875 15.355469 12.917969 15.378906 C 12.960938 15.402344 12.996094 15.4375 13.019531 15.484375 C 13.042969 15.53125 13.054688 15.589844 13.054688 15.65625 L 13.054688 16.1875 L 12.890625 16.1875 L 12.890625 15.675781 C 12.890625 15.617188 12.875 15.570312 12.84375 15.535156 C 12.8125 15.5 12.769531 15.484375 12.714844 15.484375 C 12.675781 15.484375 12.644531 15.492188 12.613281 15.507812 C 12.585938 15.523438 12.5625 15.550781 12.542969 15.582031 C 12.527344 15.613281 12.519531 15.648438 12.519531 15.695312 Z M 13.273438 16.1875 L 13.273438 15.355469 L 13.433594 15.355469 L 13.433594 16.1875 Z M 13.355469 15.226562 C 13.324219 15.226562 13.300781 15.214844 13.28125 15.195312 C 13.261719 15.179688 13.25 15.15625 13.25 15.128906 C 13.25 15.101562 13.261719 15.078125 13.28125 15.058594 C 13.300781 15.042969 13.324219 15.03125 13.355469 15.03125 C 13.382812 15.03125 13.40625 15.042969 13.425781 15.058594 C 13.445312 15.078125 13.457031 15.101562 13.457031 15.128906 C 13.457031 15.15625 13.445312 15.179688 13.425781 15.195312 C 13.40625 15.214844 13.382812 15.226562 13.355469 15.226562 Z M 13.816406 15.695312 L 13.816406 16.1875 L 13.652344 16.1875 L 13.652344 15.074219 L 13.8125 15.074219 L 13.8125 15.488281 L 13.824219 15.488281 C 13.84375 15.445312 13.871094 15.410156 13.914062 15.382812 C 13.953125 15.355469 14.003906 15.34375 14.070312 15.34375 C 14.128906 15.34375 14.179688 15.355469 14.21875 15.378906 C 14.265625 15.402344 14.296875 15.4375 14.320312 15.484375 C 14.34375 15.53125 14.355469 15.589844 14.355469 15.65625 L 14.355469 16.1875 L 14.195312 16.1875 L 14.195312 15.675781 C 14.195312 15.617188 14.179688 15.570312 14.148438 15.535156 C 14.113281 15.5 14.070312 15.484375 14.015625 15.484375 C 13.976562 15.484375 13.941406 15.492188 13.910156 15.507812 C 13.882812 15.523438 13.859375 15.550781 13.839844 15.582031 C 13.824219 15.613281 13.816406 15.648438 13.816406 15.695312 Z M 14.574219 16.1875 L 14.574219 15.355469 L 14.734375 15.355469 L 14.734375 16.1875 Z M 14.65625 15.226562 C 14.628906 15.226562 14.601562 15.214844 14.582031 15.195312 C 14.5625 15.179688 14.550781 15.15625 14.550781 15.128906 C 14.550781 15.101562 14.5625 15.078125 14.582031 15.058594 C 14.601562 15.042969 14.628906 15.03125 14.65625 15.03125 C 14.683594 15.03125 14.707031 15.042969 14.726562 15.058594 C 14.746094 15.078125 14.757812 15.101562 14.757812 15.128906 C 14.757812 15.15625 14.746094 15.179688 14.726562 15.195312 C 14.707031 15.214844 14.683594 15.226562 14.65625 15.226562 Z M 15.667969 15.355469 L 15.367188 16.1875 L 15.191406 16.1875 L 14.886719 15.355469 L 15.0625 15.355469 L 15.273438 15.996094 L 15.28125 15.996094 L 15.492188 15.355469 Z M 15.667969 15.355469 " fill-opacity="1" fill-rule="nonzero"/><g mask="url(#f639ffa407)"><g transform="matrix(1, 0, 0, 1, 9, 23)"><g clip-path="url(#c6e2be2fa9)"><g clip-path="url(#392f2de22f)"><path fill="#ff5757" d="M 3.050781 1.21875 L 2.703125 1.21875 C 2.6875 1.144531 2.664062 1.082031 2.625 1.023438 C 2.589844 0.96875 2.546875 0.917969 2.492188 0.878906 C 2.4375 0.839844 2.378906 0.808594 2.3125 0.789062 C 2.25 0.769531 2.179688 0.761719 2.109375 0.761719 C 1.976562 0.761719 1.859375 0.792969 1.753906 0.859375 C 1.648438 0.925781 1.566406 1.023438 1.507812 1.152344 C 1.449219 1.277344 1.417969 1.4375 1.417969 1.621094 C 1.417969 1.808594 1.449219 1.964844 1.507812 2.09375 C 1.566406 2.21875 1.648438 2.316406 1.753906 2.382812 C 1.859375 2.449219 1.976562 2.480469 2.105469 2.480469 C 2.179688 2.480469 2.246094 2.472656 2.3125 2.453125 C 2.378906 2.433594 2.4375 2.402344 2.488281 2.363281 C 2.542969 2.324219 2.585938 2.277344 2.625 2.222656 C 2.660156 2.164062 2.6875 2.101562 2.703125 2.027344 L 3.050781 2.027344 C 3.03125 2.140625 2.996094 2.246094 2.941406 2.339844 C 2.890625 2.433594 2.820312 2.515625 2.738281 2.582031 C 2.652344 2.652344 2.558594 2.703125 2.453125 2.742188 C 2.347656 2.777344 2.230469 2.796875 2.105469 2.796875 C 1.90625 2.796875 1.730469 2.75 1.574219 2.65625 C 1.417969 2.5625 1.296875 2.425781 1.207031 2.25 C 1.117188 2.074219 1.074219 1.863281 1.074219 1.621094 C 1.074219 1.375 1.121094 1.167969 1.207031 0.992188 C 1.296875 0.816406 1.421875 0.679688 1.574219 0.585938 C 1.730469 0.492188 1.90625 0.445312 2.105469 0.445312 C 2.226562 0.445312 2.339844 0.460938 2.445312 0.496094 C 2.550781 0.53125 2.644531 0.582031 2.730469 0.648438 C 2.8125 0.714844 2.882812 0.796875 2.9375 0.894531 C 2.992188 0.988281 3.03125 1.097656 3.050781 1.21875 Z M 3.367188 2.765625 L 3.367188 0.476562 L 3.714844 0.476562 L 3.714844 1.472656 L 4.855469 1.472656 L 4.855469 0.476562 L 5.203125 0.476562 L 5.203125 2.765625 L 4.855469 2.765625 L 4.855469 1.765625 L 3.714844 1.765625 L 3.714844 2.765625 Z M 5.609375 2.765625 L 5.609375 0.476562 L 7.046875 0.476562 L 7.046875 0.773438 L 5.957031 0.773438 L 5.957031 1.472656 L 6.972656 1.472656 L 6.972656 1.765625 L 5.957031 1.765625 L 5.957031 2.46875 L 7.058594 2.46875 L 7.058594 2.765625 Z M 7.414062 2.765625 L 7.414062 0.476562 L 8.230469 0.476562 C 8.40625 0.476562 8.554688 0.507812 8.671875 0.566406 C 8.789062 0.628906 8.878906 0.714844 8.9375 0.820312 C 8.992188 0.929688 9.023438 1.054688 9.023438 1.195312 C 9.023438 1.332031 8.992188 1.457031 8.933594 1.5625 C 8.875 1.667969 8.789062 1.75 8.671875 1.8125 C 8.554688 1.871094 8.40625 1.898438 8.230469 1.898438 L 7.609375 1.898438 L 7.609375 1.601562 L 8.199219 1.601562 C 8.308594 1.601562 8.402344 1.585938 8.46875 1.554688 C 8.542969 1.523438 8.59375 1.476562 8.625 1.414062 C 8.660156 1.351562 8.675781 1.277344 8.675781 1.195312 C 8.675781 1.105469 8.660156 1.03125 8.625 0.96875 C 8.59375 0.90625 8.539062 0.855469 8.46875 0.824219 C 8.398438 0.789062 8.308594 0.773438 8.191406 0.773438 L 7.757812 0.773438 L 7.757812 2.765625 Z M 8.542969 1.734375 L 9.109375 2.765625 L 8.714844 2.765625 L 8.160156 1.734375 Z M 11.195312 0.476562 L 11.195312 2.765625 L 10.878906 2.765625 L 9.714844 1.085938 L 9.695312 1.085938 L 9.695312 2.765625 L 9.347656 2.765625 L 9.347656 0.476562 L 9.667969 0.476562 L 10.832031 2.15625 L 10.855469 2.15625 L 10.855469 0.476562 Z M 11.953125 0.476562 L 11.953125 2.765625 L 11.605469 2.765625 L 11.605469 0.476562 Z M 12.359375 2.765625 L 12.359375 0.476562 L 12.707031 0.476562 L 12.707031 1.472656 L 13.847656 1.472656 L 13.847656 0.476562 L 14.195312 0.476562 L 14.195312 2.765625 L 13.847656 2.765625 L 13.847656 1.765625 L 12.707031 1.765625 L 12.707031 2.765625 Z M 14.949219 0.476562 L 14.949219 2.765625 L 14.601562 2.765625 L 14.601562 0.476562 Z M 15.558594 0.476562 L 16.195312 2.339844 L 16.21875 2.339844 L 16.859375 0.476562 L 17.230469 0.476562 L 16.40625 2.765625 L 16.007812 2.765625 L 15.183594 0.476562 Z M 15.558594 0.476562 " fill-opacity="1" fill-rule="nonzero"/></g></g></g></g></svg>