<svg xmlns="http://www.w3.org/2000/svg" xmlns:xlink="http://www.w3.org/1999/xlink" width="50" zoomAndPan="magnify" viewBox="0 0 37.5 37.499999" height="50" preserveAspectRatio="xMidYMid meet" version="1.0"><defs><filter x="0%" y="0%" width="100%" height="100%" id="fe6deb5e5b"><feColorMatrix values="0 0 0 0 1 0 0 0 0 1 0 0 0 0 1 0 0 0 1 0" color-interpolation-filters="sRGB"/></filter><clipPath id="a9487d4f3b"><path d="M 1.582031 4.507812 L 35.625 4.507812 L 35.625 32.632812 L 1.582031 32.632812 Z M 1.582031 4.507812 " clip-rule="nonzero"/></clipPath><mask id="7499c9742b"><g filter="url(#fe6deb5e5b)"><rect x="-3.75" width="45" fill="#000000" y="-3.75" height="44.999999" fill-opacity="0.08"/></g></mask><clipPath id="abd90ba28d"><path d="M 0.316406 0.5 L 18.316406 0.5 L 18.316406 3.34375 L 0.316406 3.34375 Z M 0.316406 0.5 " clip-rule="nonzero"/></clipPath><clipPath id="d378c58c84"><rect x="0" width="19" y="0" height="4"/></clipPath></defs><g clip-path="url(#a9487d4f3b)"><path stroke-linecap="round" transform="matrix(0.142641, 0, 0, 0.142641, 1.48947, 4.435408)" fill-opacity="1" fill="#000000" fill-rule="nonzero" stroke-linejoin="round" d="M 181.390734 1.082685 L 181.938436 1.575617 L 181.062112 2.862718 L 184.649563 5.710771 L 185.608043 8.038507 L 194.426053 10.612709 L 194.83683 13.323836 L 191.112453 14.20016 L 192.53648 15.733727 L 191.441075 17.45899 L 195.384533 22.360927 L 196.151316 22.251387 L 196.863329 20.224888 L 198.123045 21.238137 L 197.903964 22.689549 L 199.327991 22.936015 L 200.368625 28.769047 L 203.736996 30.932472 L 203.107138 33.698369 L 203.956077 34.465153 L 203.244063 34.739004 L 202.888057 37.203665 L 204.366854 38.901543 L 202.039118 40.352955 L 201.217564 39.31232 L 199.985234 40.43511 L 204.449009 46.158601 L 205.434874 49.061425 L 209.241406 48.07556 L 210.1725 51.526086 L 212.993168 51.936863 L 214.225499 54.018132 L 214.307654 59.522542 L 220.661003 61.768123 L 222.1398 63.822007 L 223.919833 64.260169 L 223.180435 65.629425 L 224.248455 69.162106 L 223.125664 70.367052 L 227.315589 73.379416 L 226.767886 73.954503 L 226.877427 79.075522 L 224.056759 81.89619 L 221.619482 81.978345 L 221.427787 87.482755 L 219.89422 88.742471 L 222.002874 90.139112 L 221.729023 92.822855 L 222.714887 94.548117 L 224.303225 94.493347 L 225.946332 95.753063 L 226.138028 98.053413 L 220.00376 97.861718 L 215.813836 95.506597 L 211.815608 95.04105 L 209.515257 92.165612 L 207.351832 97.670022 L 206.146887 98.765427 L 206.338583 99.395285 L 207.379217 99.450055 L 206.530279 100.846696 L 209.378332 103.256587 L 212.30854 104.215067 L 213.458715 105.693863 L 215.403059 106.460647 L 216.854471 109.117004 L 218.196342 108.24068 L 220.00376 109.692092 L 224.44015 108.678842 L 226.357109 109.473011 L 227.69898 111.49951 L 231.505513 109.527781 L 234.380951 109.829017 L 233.696323 111.60905 L 228.465764 116.483603 L 227.370359 119.112575 L 228.602689 120.974763 L 236.927767 123.850201 L 236.900382 126.232707 L 231.395972 128.615213 L 232.491377 129.491537 L 233.395086 133.763617 L 232.463992 135.48888 L 235.503741 136.803366 L 235.613281 137.487994 L 233.614167 137.707075 L 233.586782 138.775095 L 225.672481 140.472972 L 225.426015 139.158486 L 223.098279 139.432338 L 222.906583 138.610784 L 221.509942 138.419088 L 220.880084 139.541878 L 221.701638 141.294526 L 216.662775 141.623148 L 216.471079 140.637283 L 214.800586 142.088695 L 214.225499 141.184986 L 211.760837 140.336047 L 212.335925 143.23887 L 210.446351 143.321025 L 208.803244 135.160258 L 207.050596 135.954427 L 206.530279 133.517151 L 207.023211 132.969448 L 205.517029 132.449131 L 204.859786 131.052489 L 203.353604 133.517151 L 200.39601 133.106374 L 199.519686 132.558671 L 199.957848 131.2168 L 199.300605 128.889064 L 198.396896 129.162916 L 198.15043 127.95797 L 194.453438 128.752139 L 193.440189 127.492423 L 193.275878 128.094896 L 191.742311 128.149666 L 191.660156 130.20355 L 189.715812 130.313091 L 188.620407 138.145237 L 186.347441 136.912906 L 185.772354 139.541878 L 182.677834 140.472972 L 182.595679 141.869614 L 184.074476 142.992404 L 183.99232 145.676146 L 183.417233 146.196464 L 180.596565 146.333389 L 180.103633 147.209713 L 179.309464 146.935862 L 179.528545 145.511835 L 176.625722 145.566606 L 174.982614 144.060424 L 173.421662 146.004768 L 169.149583 146.826321 L 167.040928 149.427908 L 167.068313 146.771551 L 161.865139 143.841343 L 160.550653 143.759187 L 159.099242 142.17085 L 158.441999 143.23887 L 155.018858 144.635511 L 151.650488 144.169964 L 150.555083 147.894341 L 145.872226 147.018017 L 142.887248 149.017131 L 143.982653 146.826321 L 143.161099 146.196464 L 141.928768 147.483564 L 142.750322 147.976497 L 142.120464 148.578969 L 143.024173 150.468543 L 141.463221 151.783029 L 142.038309 152.522427 L 140.915519 154.494156 L 141.572762 155.151399 L 139.245026 156.602811 L 139.217641 158.108993 L 133.850156 160.573654 L 131.768887 162.408458 L 132.508285 163.339552 L 132.124893 163.942025 L 130.974718 163.230011 L 130.974718 164.325416 L 129.550692 165.475592 L 129.687617 164.051565 L 128.674368 166.132835 L 126.894334 165.010045 L 126.702639 166.242375 L 124.949991 166.297145 L 123.525964 163.01093 L 120.184979 163.996795 L 119.44558 162.134606 L 116.980919 161.7786 L 116.186751 163.175241 L 113.749474 162.654924 L 112.352833 164.790964 L 111.531279 164.243261 L 110.791881 165.229126 L 110.326334 164.818349 L 109.669091 166.242375 L 108.135524 165.064815 L 107.724747 165.804213 L 106.410261 165.256511 L 105.397011 163.257397 L 104.712383 163.558633 L 103.04189 162.490613 L 101.508323 162.90139 L 100.988006 162.161992 L 98.742426 162.490613 L 97.838717 161.586904 L 97.291014 161.641674 L 97.48271 162.874005 L 93.867874 162.545383 L 93.730948 163.91464 L 92.936779 164.215876 L 89.404098 163.613403 L 87.843146 161.751215 L 87.240673 163.147856 L 83.735377 161.805985 L 83.516296 162.737079 L 82.09227 162.84662 L 79.435913 161.997681 L 75.273374 163.750329 L 75.163833 165.010045 L 74.342279 164.708808 L 73.274259 167.200855 L 70.891754 167.063929 L 73.32903 169.665516 L 72.425321 173.252967 L 69.495112 174.293602 L 67.687694 177.086885 L 70.563132 179.524161 L 69.741578 180.537411 L 70.344051 181.057728 L 70.152355 183.577159 L 64.127628 183.960551 L 62.183284 181.906667 L 58.623217 182.837761 L 57.473042 187.739698 L 52.981882 188.424327 L 51.557855 189.574502 L 47.970404 190.341285 L 48.079944 192.093933 L 46.217756 192.778561 L 45.396202 192.915487 L 41.343203 190.36867 L 40.466879 191.190224 L 40.110873 193.545345 L 37.700982 196.092162 L 36.1948 195.927851 L 33.072896 192.915487 L 27.294634 193.873966 L 27.239864 191.957008 L 29.786681 191.32715 L 30.033147 189.437576 L 29.047282 188.807718 L 31.046396 188.889874 L 29.950991 183.029457 L 26.582621 182.016207 L 25.815837 180.701721 L 26.062304 179.168154 L 28.60912 178.812148 L 29.129438 176.429642 L 27.979262 176.374871 L 27.760181 174.786534 L 25.569371 174.074521 L 25.733682 172.349258 L 23.871494 172.294488 L 20.941285 169.336894 L 19.681569 169.282124 L 20.064961 168.378415 L 19.188637 167.721172 L 19.982806 165.995909 L 21.379447 165.722058 L 19.763725 163.202626 L 20.092346 162.490613 L 12.999599 160.190263 L 12.287586 153.535677 L 10.507552 152.385502 L 9.822924 149.071902 L 9.056141 148.305118 L 10.370627 146.881092 L 8.179817 145.758302 L 7.139182 146.360774 L 4.647136 143.622262 L 5.441304 142.389931 L 4.619751 141.540992 L 7.76904 136.748595 L 7.029642 136.283048 L 6.974871 134.311319 L 3.962508 135.571035 L 1.470461 130.997719 L 2.100319 130.751253 L 2.100319 129.655848 L 3.031413 131.134645 L 4.674521 126.533944 L 7.248723 127.382883 L 6.837946 124.64437 L 10.562323 123.548965 L 10.480167 122.289249 L 9.603843 122.289249 L 9.028756 121.084304 L 9.932465 115.086961 L 8.398898 112.375834 L 9.90508 112.704455 L 10.589708 111.800746 L 12.09589 112.156753 L 11.329106 113.79986 L 10.01462 114.238022 L 12.753133 117.277771 L 16.258429 116.565758 L 16.806131 117.442082 L 19.216022 116.374062 L 21.269907 116.565758 L 20.640049 114.950036 L 22.255771 114.402333 L 24.693047 109.637321 L 26.41831 108.952693 L 26.336155 105.912944 L 25.432446 103.776905 L 25.815837 102.571959 L 26.692161 103.037506 L 29.375904 102.270723 L 30.553464 100.682385 L 31.648869 100.408534 L 34.907699 101.339628 L 35.784023 105.365242 L 37.235435 107.145275 L 38.358225 105.474782 L 37.37236 103.420898 L 38.878542 102.73627 L 40.056103 100.216838 L 40.275184 101.230088 L 43.972175 100.874081 L 43.123237 106.652343 L 55.556083 108.788383 L 55.720394 110.787497 L 56.377637 110.897037 L 58.15767 103.831675 L 59.636467 103.420898 L 59.390001 100.791926 L 61.060494 100.271609 L 61.142649 98.217724 L 63.49777 96.766313 L 66.783985 100.846696 L 68.180626 100.846696 L 70.508362 97.998643 L 71.439456 98.35465 L 73.137334 96.300765 L 75.328144 97.779562 L 77.902346 97.806947 L 81.982729 100.463304 L 83.379371 99.039278 L 85.761876 99.066663 L 87.076362 97.998643 L 91.759219 98.217724 L 92.99155 97.177089 L 94.716812 97.450941 L 95.647907 95.04105 L 96.41469 95.013665 L 96.688541 92.138226 L 95.647907 91.152362 L 100.988006 90.385578 L 101.782175 89.317559 L 101.645249 87.592296 L 103.397897 85.237175 L 104.520687 86.798127 L 104.192066 84.963324 L 105.753018 84.388236 L 107.998598 82.252196 L 108.518916 77.158563 L 109.367854 75.844077 L 110.134638 75.460685 L 111.284813 76.638246 L 111.64082 75.597611 L 112.298063 75.707151 L 111.366969 73.762807 L 112.106367 73.050794 L 110.709726 72.831713 L 111.093117 70.394437 L 116.02244 62.890913 L 115.775974 61.11088 L 116.761838 61.576427 L 117.117845 60.672718 L 115.611663 59.823779 L 116.351061 56.701874 L 117.117845 56.208942 L 116.214136 54.100288 L 116.761838 51.44393 L 114.95442 49.992519 L 117.09046 45.391818 L 116.378446 43.064082 L 118.843108 41.475745 L 119.993283 42.543765 L 122.266248 39.586171 L 128.345746 37.641827 L 128.510057 36.820274 L 126.565713 33.890065 L 125.525078 33.561444 L 125.497693 32.712505 L 126.374017 32.082647 L 123.71766 30.631235 L 122.129323 31.343249 L 123.8272 29.37152 L 122.59487 29.234594 L 123.224728 27.701027 L 129.085145 27.18071 L 131.741502 27.673642 L 132.946447 28.769047 L 133.247684 29.617986 L 131.741502 33.91745 L 131.823657 37.641827 L 133.055988 40.243414 L 134.918176 40.654191 L 135.493264 42.215143 L 136.91729 41.968677 L 137.355452 43.940406 L 138.231776 43.721325 L 138.587783 40.791117 L 141.381066 40.352955 L 142.120464 38.216915 L 143.243254 37.860908 L 143.626646 36.820274 L 145.214983 36.929814 L 145.57099 42.62592 L 152.663737 43.255778 L 155.40225 38.600307 L 156.744121 38.490766 L 156.607195 35.615328 L 158.524154 33.890065 L 159.920795 30.384769 L 165.096584 30.740776 L 166.027678 33.150667 L 167.232624 30.54908 L 165.918138 24.524352 L 170.628379 21.758455 L 171.75117 21.950151 L 172.052406 20.909516 L 167.917252 19.896266 L 166.383685 20.279658 L 166.630151 15.26818 L 171.093927 12.776134 L 170.080677 11.105641 L 169.259123 11.379492 L 168.49234 9.106527 L 170.546224 9.709 L 172.92873 4.943988 L 172.600108 4.177204 L 174.078905 3.711657 L 177.091269 5.656001 L 179.227309 1.849469 L 180.67872 2.041165 Z M 181.390734 1.082685 " stroke="#ffffff" stroke-width="1.19" stroke-opacity="1" stroke-miterlimit="4"/></g><path fill="#ff5757" d="M 20.308594 17.449219 L 20.125 17.449219 C 20.117188 17.40625 20.105469 17.375 20.085938 17.34375 C 20.066406 17.3125 20.042969 17.289062 20.015625 17.265625 C 19.988281 17.246094 19.957031 17.230469 19.921875 17.21875 C 19.886719 17.210938 19.851562 17.203125 19.8125 17.203125 C 19.742188 17.203125 19.679688 17.222656 19.625 17.257812 C 19.570312 17.292969 19.527344 17.34375 19.496094 17.410156 C 19.464844 17.476562 19.445312 17.5625 19.445312 17.660156 C 19.445312 17.757812 19.464844 17.839844 19.496094 17.910156 C 19.527344 17.976562 19.570312 18.027344 19.625 18.0625 C 19.679688 18.097656 19.742188 18.113281 19.8125 18.113281 C 19.847656 18.113281 19.886719 18.109375 19.921875 18.097656 C 19.953125 18.089844 19.984375 18.074219 20.015625 18.050781 C 20.042969 18.03125 20.066406 18.007812 20.085938 17.976562 C 20.105469 17.945312 20.117188 17.914062 20.125 17.875 L 20.308594 17.875 C 20.300781 17.933594 20.28125 17.988281 20.253906 18.039062 C 20.226562 18.089844 20.1875 18.132812 20.144531 18.167969 C 20.101562 18.203125 20.050781 18.230469 19.996094 18.25 C 19.9375 18.269531 19.875 18.28125 19.808594 18.28125 C 19.707031 18.28125 19.613281 18.253906 19.53125 18.207031 C 19.449219 18.15625 19.382812 18.085938 19.335938 17.992188 C 19.289062 17.898438 19.265625 17.789062 19.265625 17.660156 C 19.265625 17.53125 19.289062 17.417969 19.335938 17.328125 C 19.382812 17.234375 19.449219 17.160156 19.53125 17.113281 C 19.613281 17.0625 19.707031 17.039062 19.808594 17.039062 C 19.875 17.039062 19.933594 17.046875 19.988281 17.066406 C 20.046875 17.082031 20.097656 17.109375 20.140625 17.144531 C 20.183594 17.179688 20.222656 17.222656 20.25 17.273438 C 20.28125 17.324219 20.300781 17.382812 20.308594 17.449219 Z M 20.691406 17.726562 L 20.691406 18.265625 L 20.515625 18.265625 L 20.515625 17.054688 L 20.6875 17.054688 L 20.6875 17.503906 L 20.699219 17.503906 C 20.722656 17.457031 20.753906 17.417969 20.796875 17.386719 C 20.839844 17.359375 20.898438 17.34375 20.96875 17.34375 C 21.03125 17.34375 21.085938 17.355469 21.132812 17.382812 C 21.179688 17.410156 21.214844 17.445312 21.242188 17.496094 C 21.265625 17.546875 21.28125 17.609375 21.28125 17.6875 L 21.28125 18.265625 L 21.101562 18.265625 L 21.101562 17.707031 C 21.101562 17.640625 21.085938 17.589844 21.050781 17.554688 C 21.015625 17.515625 20.96875 17.496094 20.910156 17.496094 C 20.867188 17.496094 20.828125 17.507812 20.796875 17.523438 C 20.761719 17.542969 20.738281 17.566406 20.71875 17.601562 C 20.699219 17.636719 20.691406 17.675781 20.691406 17.726562 Z M 21.90625 18.28125 C 21.816406 18.28125 21.738281 18.261719 21.675781 18.226562 C 21.609375 18.1875 21.5625 18.132812 21.527344 18.0625 C 21.492188 17.992188 21.472656 17.910156 21.472656 17.816406 C 21.472656 17.722656 21.492188 17.640625 21.527344 17.570312 C 21.5625 17.5 21.609375 17.445312 21.671875 17.402344 C 21.734375 17.363281 21.808594 17.34375 21.894531 17.34375 C 21.945312 17.34375 21.996094 17.351562 22.042969 17.371094 C 22.089844 17.386719 22.132812 17.414062 22.171875 17.449219 C 22.210938 17.484375 22.242188 17.53125 22.261719 17.589844 C 22.285156 17.648438 22.296875 17.71875 22.296875 17.800781 L 22.296875 17.863281 L 21.574219 17.863281 L 21.574219 17.730469 L 22.121094 17.730469 C 22.121094 17.683594 22.113281 17.644531 22.09375 17.609375 C 22.074219 17.570312 22.050781 17.542969 22.015625 17.523438 C 21.980469 17.5 21.941406 17.492188 21.894531 17.492188 C 21.84375 17.492188 21.800781 17.503906 21.765625 17.527344 C 21.730469 17.550781 21.699219 17.582031 21.679688 17.621094 C 21.660156 17.660156 21.652344 17.703125 21.652344 17.746094 L 21.652344 17.851562 C 21.652344 17.910156 21.660156 17.964844 21.683594 18.003906 C 21.703125 18.046875 21.734375 18.082031 21.773438 18.101562 C 21.8125 18.125 21.855469 18.136719 21.910156 18.136719 C 21.941406 18.136719 21.972656 18.132812 22 18.121094 C 22.027344 18.113281 22.050781 18.097656 22.070312 18.078125 C 22.089844 18.058594 22.105469 18.035156 22.117188 18.007812 L 22.285156 18.035156 C 22.269531 18.085938 22.246094 18.128906 22.210938 18.167969 C 22.179688 18.203125 22.136719 18.230469 22.082031 18.253906 C 22.03125 18.273438 21.972656 18.28125 21.90625 18.28125 Z M 22.492188 18.265625 L 22.492188 17.355469 L 22.664062 17.355469 L 22.664062 17.5 L 22.671875 17.5 C 22.6875 17.453125 22.71875 17.414062 22.757812 17.386719 C 22.800781 17.355469 22.847656 17.34375 22.902344 17.34375 C 22.914062 17.34375 22.925781 17.34375 22.941406 17.34375 C 22.957031 17.34375 22.96875 17.34375 22.976562 17.347656 L 22.976562 17.515625 C 22.96875 17.515625 22.957031 17.511719 22.941406 17.507812 C 22.921875 17.507812 22.902344 17.503906 22.886719 17.503906 C 22.84375 17.503906 22.804688 17.515625 22.773438 17.53125 C 22.742188 17.550781 22.714844 17.574219 22.695312 17.605469 C 22.679688 17.636719 22.667969 17.671875 22.667969 17.710938 L 22.667969 18.265625 Z M 23.292969 17.957031 L 23.292969 17.742188 L 23.324219 17.742188 L 23.683594 17.355469 L 23.894531 17.355469 L 23.484375 17.792969 L 23.457031 17.792969 Z M 23.128906 18.265625 L 23.128906 17.054688 L 23.308594 17.054688 L 23.308594 18.265625 Z M 23.703125 18.265625 L 23.378906 17.832031 L 23.5 17.710938 L 23.921875 18.265625 Z M 24.320312 18.285156 C 24.261719 18.285156 24.210938 18.273438 24.164062 18.253906 C 24.117188 18.230469 24.082031 18.199219 24.054688 18.160156 C 24.027344 18.117188 24.015625 18.066406 24.015625 18.007812 C 24.015625 17.957031 24.023438 17.914062 24.042969 17.882812 C 24.0625 17.847656 24.089844 17.820312 24.125 17.800781 C 24.15625 17.78125 24.195312 17.769531 24.234375 17.757812 C 24.277344 17.75 24.320312 17.742188 24.363281 17.734375 C 24.417969 17.730469 24.460938 17.726562 24.496094 17.722656 C 24.527344 17.714844 24.554688 17.710938 24.570312 17.699219 C 24.582031 17.691406 24.589844 17.675781 24.589844 17.652344 L 24.589844 17.648438 C 24.589844 17.597656 24.578125 17.558594 24.546875 17.53125 C 24.519531 17.5 24.476562 17.488281 24.417969 17.488281 C 24.359375 17.488281 24.3125 17.5 24.277344 17.527344 C 24.246094 17.554688 24.222656 17.582031 24.207031 17.613281 L 24.042969 17.574219 C 24.0625 17.519531 24.089844 17.476562 24.128906 17.441406 C 24.167969 17.410156 24.210938 17.382812 24.261719 17.367188 C 24.308594 17.351562 24.363281 17.34375 24.417969 17.34375 C 24.453125 17.34375 24.492188 17.347656 24.53125 17.359375 C 24.574219 17.367188 24.609375 17.382812 24.648438 17.402344 C 24.683594 17.425781 24.710938 17.457031 24.734375 17.5 C 24.757812 17.542969 24.769531 17.59375 24.769531 17.660156 L 24.769531 18.265625 L 24.597656 18.265625 L 24.597656 18.140625 L 24.589844 18.140625 C 24.578125 18.164062 24.5625 18.183594 24.539062 18.207031 C 24.515625 18.230469 24.484375 18.246094 24.449219 18.261719 C 24.414062 18.277344 24.371094 18.285156 24.320312 18.285156 Z M 24.359375 18.140625 C 24.410156 18.140625 24.449219 18.132812 24.484375 18.113281 C 24.519531 18.09375 24.546875 18.070312 24.566406 18.039062 C 24.582031 18.007812 24.59375 17.972656 24.59375 17.9375 L 24.59375 17.820312 C 24.585938 17.824219 24.574219 17.832031 24.554688 17.835938 C 24.539062 17.84375 24.519531 17.847656 24.496094 17.851562 C 24.472656 17.855469 24.449219 17.859375 24.429688 17.859375 C 24.40625 17.863281 24.386719 17.867188 24.375 17.867188 C 24.339844 17.871094 24.308594 17.878906 24.28125 17.890625 C 24.25 17.898438 24.230469 17.914062 24.210938 17.933594 C 24.195312 17.953125 24.1875 17.976562 24.1875 18.011719 C 24.1875 18.054688 24.203125 18.085938 24.234375 18.109375 C 24.269531 18.132812 24.308594 18.140625 24.359375 18.140625 Z M 25.683594 17.578125 L 25.523438 17.605469 C 25.519531 17.585938 25.507812 17.566406 25.492188 17.546875 C 25.476562 17.527344 25.457031 17.515625 25.433594 17.503906 C 25.410156 17.492188 25.378906 17.484375 25.34375 17.484375 C 25.292969 17.484375 25.25 17.496094 25.21875 17.519531 C 25.183594 17.539062 25.167969 17.570312 25.167969 17.605469 C 25.167969 17.632812 25.179688 17.660156 25.199219 17.675781 C 25.222656 17.695312 25.261719 17.710938 25.308594 17.722656 L 25.453125 17.753906 C 25.539062 17.773438 25.601562 17.804688 25.640625 17.84375 C 25.683594 17.886719 25.703125 17.9375 25.703125 18 C 25.703125 18.054688 25.6875 18.105469 25.65625 18.148438 C 25.625 18.1875 25.582031 18.222656 25.523438 18.246094 C 25.46875 18.269531 25.40625 18.28125 25.332031 18.28125 C 25.230469 18.28125 25.148438 18.261719 25.082031 18.21875 C 25.019531 18.171875 24.980469 18.113281 24.964844 18.03125 L 25.136719 18.003906 C 25.144531 18.050781 25.167969 18.082031 25.199219 18.105469 C 25.234375 18.128906 25.277344 18.140625 25.328125 18.140625 C 25.386719 18.140625 25.433594 18.128906 25.46875 18.105469 C 25.503906 18.078125 25.519531 18.050781 25.519531 18.015625 C 25.519531 17.984375 25.511719 17.960938 25.488281 17.941406 C 25.46875 17.921875 25.4375 17.910156 25.394531 17.898438 L 25.238281 17.867188 C 25.152344 17.847656 25.089844 17.816406 25.050781 17.773438 C 25.011719 17.730469 24.992188 17.679688 24.992188 17.613281 C 24.992188 17.558594 25.003906 17.511719 25.035156 17.472656 C 25.066406 17.433594 25.105469 17.402344 25.160156 17.378906 C 25.210938 17.355469 25.273438 17.34375 25.339844 17.34375 C 25.4375 17.34375 25.515625 17.367188 25.574219 17.410156 C 25.628906 17.449219 25.667969 17.507812 25.683594 17.578125 Z M 26.007812 18.605469 C 25.980469 18.605469 25.957031 18.601562 25.9375 18.597656 C 25.914062 18.59375 25.898438 18.589844 25.886719 18.585938 L 25.929688 18.441406 C 25.960938 18.449219 25.992188 18.453125 26.015625 18.453125 C 26.042969 18.449219 26.0625 18.441406 26.082031 18.421875 C 26.101562 18.40625 26.121094 18.375 26.136719 18.335938 L 26.15625 18.277344 L 25.824219 17.355469 L 26.015625 17.355469 L 26.242188 18.0625 L 26.253906 18.0625 L 26.484375 17.355469 L 26.671875 17.355469 L 26.300781 18.386719 C 26.28125 18.433594 26.257812 18.472656 26.234375 18.503906 C 26.207031 18.539062 26.175781 18.5625 26.136719 18.578125 C 26.101562 18.597656 26.058594 18.605469 26.007812 18.605469 Z M 26.007812 18.605469 " fill-opacity="1" fill-rule="nonzero"/><g mask="url(#7499c9742b)"><g transform="matrix(1, 0, 0, 1, 3, 22)"><g clip-path="url(#d378c58c84)"><g clip-path="url(#abd90ba28d)"><path fill="#ff5757" d="M 2.679688 1.429688 L 2.300781 1.429688 C 2.285156 1.351562 2.257812 1.277344 2.21875 1.214844 C 2.179688 1.15625 2.132812 1.101562 2.074219 1.058594 C 2.015625 1.015625 1.953125 0.984375 1.878906 0.960938 C 1.808594 0.941406 1.734375 0.929688 1.65625 0.929688 C 1.511719 0.929688 1.382812 0.964844 1.269531 1.039062 C 1.15625 1.109375 1.066406 1.214844 1.003906 1.355469 C 0.9375 1.496094 0.90625 1.664062 0.90625 1.867188 C 0.90625 2.070312 0.9375 2.238281 1.003906 2.378906 C 1.066406 2.519531 1.15625 2.625 1.269531 2.695312 C 1.382812 2.765625 1.511719 2.800781 1.652344 2.800781 C 1.734375 2.800781 1.808594 2.792969 1.878906 2.769531 C 1.949219 2.75 2.011719 2.714844 2.070312 2.675781 C 2.128906 2.632812 2.175781 2.582031 2.21875 2.519531 C 2.257812 2.457031 2.285156 2.386719 2.300781 2.308594 L 2.679688 2.308594 C 2.660156 2.433594 2.621094 2.542969 2.5625 2.648438 C 2.503906 2.75 2.429688 2.839844 2.339844 2.914062 C 2.25 2.984375 2.148438 3.042969 2.03125 3.085938 C 1.914062 3.125 1.789062 3.144531 1.652344 3.144531 C 1.4375 3.144531 1.242188 3.09375 1.074219 2.992188 C 0.90625 2.890625 0.773438 2.742188 0.675781 2.550781 C 0.582031 2.359375 0.53125 2.132812 0.53125 1.867188 C 0.53125 1.601562 0.582031 1.371094 0.679688 1.179688 C 0.773438 0.988281 0.90625 0.84375 1.078125 0.742188 C 1.246094 0.636719 1.4375 0.585938 1.652344 0.585938 C 1.785156 0.585938 1.90625 0.605469 2.019531 0.644531 C 2.136719 0.679688 2.238281 0.738281 2.332031 0.808594 C 2.421875 0.882812 2.5 0.96875 2.558594 1.074219 C 2.617188 1.179688 2.660156 1.296875 2.679688 1.429688 Z M 3.027344 3.109375 L 3.027344 0.621094 L 3.402344 0.621094 L 3.402344 1.703125 L 4.644531 1.703125 L 4.644531 0.621094 L 5.019531 0.621094 L 5.019531 3.109375 L 4.644531 3.109375 L 4.644531 2.023438 L 3.402344 2.023438 L 3.402344 3.109375 Z M 5.464844 3.109375 L 5.464844 0.621094 L 7.027344 0.621094 L 7.027344 0.945312 L 5.839844 0.945312 L 5.839844 1.703125 L 6.945312 1.703125 L 6.945312 2.023438 L 5.839844 2.023438 L 5.839844 2.789062 L 7.039062 2.789062 L 7.039062 3.109375 Z M 7.425781 3.109375 L 7.425781 0.621094 L 8.3125 0.621094 C 8.503906 0.621094 8.664062 0.652344 8.792969 0.722656 C 8.921875 0.789062 9.015625 0.878906 9.078125 0.996094 C 9.144531 1.113281 9.175781 1.25 9.175781 1.402344 C 9.175781 1.554688 9.140625 1.6875 9.078125 1.804688 C 9.015625 1.917969 8.917969 2.007812 8.792969 2.074219 C 8.664062 2.136719 8.503906 2.167969 8.3125 2.167969 L 7.640625 2.167969 L 7.640625 1.84375 L 8.277344 1.84375 C 8.398438 1.84375 8.496094 1.828125 8.574219 1.792969 C 8.652344 1.757812 8.707031 1.707031 8.742188 1.640625 C 8.777344 1.574219 8.796875 1.496094 8.796875 1.402344 C 8.796875 1.308594 8.777344 1.226562 8.742188 1.15625 C 8.707031 1.089844 8.648438 1.035156 8.574219 1 C 8.496094 0.960938 8.394531 0.941406 8.273438 0.941406 L 7.800781 0.941406 L 7.800781 3.109375 Z M 8.652344 1.988281 L 9.269531 3.109375 L 8.839844 3.109375 L 8.238281 1.988281 Z M 9.527344 3.109375 L 9.527344 0.621094 L 9.90625 0.621094 L 9.90625 1.808594 L 9.933594 1.808594 L 10.980469 0.621094 L 11.453125 0.621094 L 10.449219 1.742188 L 11.457031 3.109375 L 11.003906 3.109375 L 10.199219 2 L 9.90625 2.335938 L 9.90625 3.109375 Z M 11.910156 3.109375 L 11.511719 3.109375 L 12.40625 0.621094 L 12.839844 0.621094 L 13.738281 3.109375 L 13.339844 3.109375 L 12.632812 1.074219 L 12.613281 1.074219 Z M 11.976562 2.136719 L 13.269531 2.136719 L 13.269531 2.453125 L 11.976562 2.453125 Z M 15.332031 1.273438 C 15.320312 1.160156 15.265625 1.070312 15.171875 1.007812 C 15.078125 0.945312 14.957031 0.910156 14.816406 0.910156 C 14.714844 0.910156 14.625 0.929688 14.550781 0.960938 C 14.476562 0.992188 14.417969 1.035156 14.378906 1.089844 C 14.335938 1.148438 14.316406 1.210938 14.316406 1.28125 C 14.316406 1.339844 14.332031 1.390625 14.359375 1.433594 C 14.386719 1.476562 14.421875 1.511719 14.46875 1.542969 C 14.515625 1.570312 14.5625 1.59375 14.617188 1.613281 C 14.667969 1.632812 14.71875 1.648438 14.769531 1.660156 L 15.011719 1.722656 C 15.089844 1.742188 15.171875 1.769531 15.257812 1.800781 C 15.339844 1.835938 15.417969 1.878906 15.488281 1.933594 C 15.558594 1.988281 15.617188 2.054688 15.660156 2.132812 C 15.707031 2.214844 15.726562 2.3125 15.726562 2.421875 C 15.726562 2.5625 15.691406 2.6875 15.617188 2.796875 C 15.546875 2.90625 15.441406 2.992188 15.304688 3.058594 C 15.167969 3.121094 15 3.152344 14.804688 3.152344 C 14.621094 3.152344 14.457031 3.121094 14.324219 3.0625 C 14.1875 3.003906 14.078125 2.921875 14.003906 2.8125 C 13.925781 2.703125 13.882812 2.574219 13.875 2.421875 L 14.253906 2.421875 C 14.257812 2.511719 14.289062 2.585938 14.339844 2.648438 C 14.390625 2.707031 14.457031 2.75 14.539062 2.78125 C 14.617188 2.808594 14.707031 2.824219 14.804688 2.824219 C 14.910156 2.824219 15.003906 2.804688 15.085938 2.773438 C 15.171875 2.738281 15.238281 2.691406 15.285156 2.632812 C 15.332031 2.570312 15.355469 2.5 15.355469 2.417969 C 15.355469 2.34375 15.335938 2.285156 15.292969 2.238281 C 15.25 2.191406 15.195312 2.152344 15.125 2.121094 C 15.054688 2.089844 14.972656 2.0625 14.882812 2.039062 L 14.589844 1.960938 C 14.390625 1.90625 14.234375 1.824219 14.117188 1.71875 C 14 1.613281 13.941406 1.476562 13.941406 1.300781 C 13.941406 1.160156 13.980469 1.03125 14.058594 0.925781 C 14.136719 0.820312 14.242188 0.734375 14.375 0.675781 C 14.507812 0.617188 14.65625 0.585938 14.824219 0.585938 C 14.992188 0.585938 15.140625 0.617188 15.269531 0.675781 C 15.402344 0.734375 15.503906 0.816406 15.578125 0.921875 C 15.652344 1.023438 15.691406 1.140625 15.695312 1.273438 Z M 15.882812 0.621094 L 16.308594 0.621094 L 16.960938 1.753906 L 16.984375 1.753906 L 17.636719 0.621094 L 18.0625 0.621094 L 17.160156 2.132812 L 17.160156 3.109375 L 16.785156 3.109375 L 16.785156 2.132812 Z M 15.882812 0.621094 " fill-opacity="1" fill-rule="nonzero"/></g></g></g></g></svg>