<svg xmlns="http://www.w3.org/2000/svg" xmlns:xlink="http://www.w3.org/1999/xlink" width="50" zoomAndPan="magnify" viewBox="0 0 37.5 37.499999" height="50" preserveAspectRatio="xMidYMid meet" version="1.0"><defs><filter x="0%" y="0%" width="100%" height="100%" id="fd08d88185"><feColorMatrix values="0 0 0 0 1 0 0 0 0 1 0 0 0 0 1 0 0 0 1 0" color-interpolation-filters="sRGB"/></filter><clipPath id="467a2015ee"><path d="M 2.308594 5.082031 L 34.875 5.082031 L 34.875 31.726562 L 2.308594 31.726562 Z M 2.308594 5.082031 " clip-rule="nonzero"/></clipPath><mask id="69e5f867a1"><g filter="url(#fd08d88185)"><rect x="-3.75" width="45" fill="#000000" y="-3.75" height="44.999999" fill-opacity="0.08"/></g></mask><clipPath id="b4aa6621d3"><path d="M 0.289062 0.605469 L 13.789062 0.605469 L 13.789062 3.210938 L 0.289062 3.210938 Z M 0.289062 0.605469 " clip-rule="nonzero"/></clipPath><clipPath id="6194509e6b"><rect x="0" width="14" y="0" height="4"/></clipPath></defs><g clip-path="url(#467a2015ee)"><path stroke-linecap="round" transform="matrix(0.131963, 0, 0, 0.131963, 2.300188, 5.042108)" fill-opacity="1" fill="#000000" fill-rule="nonzero" stroke-linejoin="round" d="M 71.135786 4.653889 L 73.622273 5.009101 L 74.68791 6.281945 L 78.624847 4.269075 L 79.927293 5.926733 L 82.058567 6.459552 L 83.242609 5.83793 L 83.538619 2.581816 L 86.113909 0.98336 L 87.712365 2.96663 L 88.866806 3.321842 L 89.133215 4.565085 L 93.01095 4.653889 L 93.218158 7.169977 L 95.734246 7.051572 L 96.326266 8.886837 L 97.3031 9.656463 L 97.391904 8.620427 L 99.404774 7.8508 L 100.44081 8.176412 L 100.855225 9.508458 L 102.098468 7.288381 L 103.785727 9.182847 L 104.851364 8.11721 L 107.219447 7.525189 L 117.550208 10.396489 L 119.178265 11.639733 L 120.628716 11.521329 L 123.0264 9.508458 L 126.785731 7.998805 L 127.170545 7.169977 L 126.578524 6.370749 L 124.713659 6.13394 L 124.388047 5.216308 L 128.857804 3.321842 L 130.160249 3.321842 L 131.90671 5.216308 L 134.630006 1.693785 L 140.046995 5.778728 L 139.750985 7.110774 L 142.444679 5.245909 L 145.34558 6.40035 L 144.072736 8.146811 L 145.04957 9.064443 L 146.381616 7.939603 L 146.529622 5.926733 L 150.318554 4.061868 L 152.420227 4.41708 L 153.663471 3.114635 L 155.735543 4.861096 L 156.50517 14.303826 L 165.65189 21.85209 L 165.059869 22.828924 L 167.309548 25.167406 L 166.569522 27.357882 L 167.457553 28.275514 L 170.121646 30.643597 L 174.532201 31.235618 L 175.065019 35.409364 L 175.864247 36.001385 L 176.012252 35.142955 L 177.433102 35.468566 L 178.942755 37.59984 L 178.084325 39.790317 L 175.420232 42.75042 L 176.456268 43.904861 L 175.95305 45.59212 L 177.107491 48.049006 L 179.031558 49.469855 L 180.185998 48.72983 L 183.175703 50.476291 L 184.655755 49.765866 L 185.306977 50.594695 L 186.343014 49.351451 L 186.964635 49.736265 L 186.668625 50.44669 L 188.178278 50.535493 L 188.207879 46.391348 L 190.54636 44.940897 L 191.6712 45.444115 L 191.167982 46.716959 L 195.282526 45.710524 L 195.519334 45.088902 L 197.917018 45.266508 L 198.745847 44.526483 L 205.435681 45.858529 L 204.695655 48.16741 L 204.902862 51.423524 L 207.004536 54.265223 L 199.39707 64.299974 L 201.350738 69.805766 L 202.031562 70.48659 L 203.511614 70.072176 L 205.435681 73.949911 L 207.478152 75.607569 L 208.721396 75.370761 L 210.290251 77.146823 L 211.97751 75.577968 L 213.546365 75.607569 L 214.582401 78.597274 L 218.519338 79.218895 L 219.910587 78.626875 L 225.179571 81.705382 L 225.534784 84.547082 L 224.084333 85.109501 L 224.794758 86.826361 L 224.646753 90.733698 L 225.889996 92.124947 L 227.843664 92.361755 L 228.050872 93.960211 L 227.014835 94.641035 L 227.962069 95.114651 L 227.014835 96.80191 L 228.8501 97.808345 L 233.408659 98.311563 L 234.918312 100.058024 L 240.690514 99.199594 L 240.098493 100.768449 L 241.519343 102.722117 L 244.479446 110.270381 L 239.15126 111.424821 L 238.677643 112.25365 L 240.3057 112.608863 L 240.394503 115.302557 L 244.390643 116.723407 L 244.153835 119.979521 L 233.704669 117.96665 L 232.254219 123.028427 L 235.569535 124.153267 L 234.651902 128.889432 L 236.57597 129.68866 L 229.797333 138.184157 L 230.359752 140.877851 L 229.501322 142.861121 L 226.541219 141.055457 L 227.370048 140.404235 L 226.86683 139.98982 L 220.85782 140.700245 L 218.874551 139.901017 L 216.121655 140.078623 L 214.967214 138.27296 L 212.243919 136.881712 L 211.385489 137.562535 L 208.27738 145.850825 L 210.941474 156.625602 L 210.349453 156.921612 L 210.349453 155.737571 L 206.086904 151.859835 L 204.518049 152.984675 L 203.659619 155.796773 L 202.297971 156.684804 L 199.989091 155.411959 L 200.196298 154.612731 L 201.735552 154.760737 L 202.386774 153.754301 L 199.841085 152.984675 L 199.545075 152.27425 L 196.851381 152.688664 L 197.176992 153.487892 L 196.200158 154.28712 L 194.24649 153.42869 L 192.82564 154.139115 L 192.766438 157.365628 L 191.049578 157.069617 L 188.651894 158.608871 L 187.527055 158.312861 L 186.431817 159.822514 L 185.454982 160.029721 L 184.566951 158.934483 L 182.938894 159.378498 L 181.695651 160.799348 L 180.304402 160.680944 L 180.393205 162.723415 L 179.209164 162.368203 L 178.439537 163.937057 L 178.972356 166.038731 L 177.433102 166.837959 L 174.887413 165.1507 L 173.525765 166.157135 L 171.986512 164.973094 L 171.128082 165.71312 L 166.776729 162.57541 L 167.783165 166.926762 L 164.053434 169.265244 L 163.283807 171.218912 L 161.389341 172.935772 L 163.283807 174.741435 L 160.442108 179.151989 L 159.613279 184.065761 L 160.146098 185.397808 L 162.099766 186.789056 L 162.010963 188.505916 L 162.898994 188.624321 L 162.869393 189.778761 L 161.211735 189.956367 L 161.122932 191.081206 L 162.750989 192.058041 L 159.021258 192.354051 L 159.287668 196.202186 L 161.152533 195.46216 L 162.247771 196.261388 L 160.234901 198.244657 L 160.590113 200.523937 L 159.050859 203.010424 L 159.169263 201.382367 L 158.458839 200.849548 L 155.972352 200.790346 L 154.4923 199.339895 L 152.272222 198.718273 L 150.525761 196.942211 L 149.075311 197.356626 L 147.358451 196.6166 L 146.618425 195.432559 L 147.032839 193.064476 L 146.559223 192.206046 L 142.859093 191.76203 L 140.49101 189.985968 L 139.306969 187.588284 L 136.790881 187.617885 L 132.913145 186.019429 L 130.278653 183.532943 L 124.654457 179.714409 L 120.687918 178.826378 L 117.372602 179.418399 L 115.241328 177.612736 L 113.850079 175.244653 L 111.86681 175.74787 L 111.689203 177.050316 L 109.232318 179.18159 L 110.061147 179.625606 L 108.788302 181.608875 L 106.775432 181.845684 L 107.219447 182.526507 L 105.502587 182.437704 L 104.703359 180.454435 L 100.204002 182.082492 L 100.411209 178.145554 L 99.907992 178.02715 L 97.155095 177.701539 L 96.681479 178.293559 L 96.651878 177.612736 L 95.379033 177.642337 L 94.964619 180.780046 L 91.442096 178.02715 L 89.133215 178.382362 L 88.7188 177.583135 L 89.784438 177.16872 L 87.682764 172.550959 L 89.932443 170.094073 L 88.866806 167.72599 L 89.192417 166.157135 L 87.919572 165.061897 L 88.156381 164.351472 L 86.380319 163.99626 L 85.196277 162.930622 L 86.913137 162.338602 L 87.830769 160.00012 L 85.906702 158.224058 L 85.255479 158.520068 L 85.018671 156.832809 L 83.627422 155.14555 L 83.153806 155.204752 L 83.805029 157.42483 L 83.83463 164.529078 L 80.637718 164.795487 L 79.512878 163.641047 L 77.677614 163.99626 L 77.411205 160.444135 L 76.611977 159.171291 L 77.203998 157.750441 L 74.155091 152.955073 L 68.708501 152.718265 L 67.376454 150.971804 L 65.748397 150.764597 L 65.037972 149.639758 L 65.304382 147.182872 L 64.297947 146.26524 L 61.189838 147.597286 L 58.318537 147.301276 L 55.920854 146.117234 L 53.019952 145.821224 L 49.201419 147.774892 L 47.869372 145.762022 L 45.945305 144.962794 L 41.534751 145.969229 L 39.699487 144.54838 L 38.36744 145.40681 L 36.916989 142.742716 L 34.963321 141.97309 L 33.808881 140.493038 L 30.907979 139.545805 L 28.036679 137.148121 L 28.895109 135.756872 L 27.829472 135.69767 L 27.681466 135.046447 L 28.865508 133.951209 L 31.055984 128.475018 L 33.335264 131.316717 L 37.331404 131.790334 L 41.50515 134.158416 L 47.632564 134.365624 L 47.454958 132.056743 L 45.826901 130.783898 L 44.228445 130.8431 L 43.251611 129.12624 L 43.51802 126.432546 L 41.416347 125.041298 L 42.9556 123.798054 L 43.133207 118.262661 L 45.560491 118.203458 L 48.402191 115.361759 L 48.283787 110.24078 L 48.846206 109.67836 L 44.642859 106.659055 L 45.767699 105.475013 L 44.67246 101.922889 L 45.442087 100.561242 L 43.636424 100.117226 L 42.156372 98.074755 L 35.821751 95.795475 L 35.732948 90.319284 L 34.519305 88.21761 L 31.677606 87.832797 L 30.759974 84.369476 L 26.94144 85.375911 L 25.964606 82.445408 L 21.524451 76.732409 L 22.708492 75.607569 L 23.537321 76.643605 L 25.875803 75.193155 L 24.425353 73.505896 L 24.750964 71.04901 L 25.461389 70.753 L 24.63256 69.983373 L 25.22458 67.230476 L 21.879663 65.04 L 20.843627 59.238197 L 19.422778 59.001389 L 19.659586 57.521337 L 18.386741 56.514902 L 17.646716 58.557373 L 16.90669 58.646176 L 12.940151 53.732404 L 14.06499 52.015544 L 12.61454 50.505892 L 16.34427 49.617861 L 15.929855 46.894565 L 7.138348 44.348876 L 6.161514 42.010395 L 2.579789 39.168695 L 3.46782 37.86625 L 2.9054 37.392633 L 0.981333 35.231758 L 2.076571 31.472426 L 1.662157 30.99881 L 4.681462 28.985939 L 3.882234 27.742696 L 5.421488 25.493017 L 4.91827 24.220173 L 10.128053 23.036131 L 10.868079 23.924162 L 11.578503 23.302541 L 12.703343 24.160971 L 13.47297 22.444111 L 12.732944 21.200867 L 15.397037 20.460841 L 15.633845 18.655178 L 17.735519 17.678344 L 17.2027 16.346297 L 17.735519 15.458266 L 20.843627 15.162256 L 21.169239 16.642308 L 22.826897 17.471137 L 23.359715 16.938318 L 26.379021 18.388769 L 29.812741 18.329567 L 29.368725 21.644883 L 32.180824 24.397779 L 34.844917 22.799323 L 39.78829 23.154535 L 40.025098 21.881691 L 42.807595 21.496877 L 42.718792 22.976929 L 47.573362 22.976929 L 47.81017 23.56895 L 48.283787 22.799323 L 49.290222 23.924162 L 49.734237 23.391344 L 51.24389 24.101768 L 51.924714 23.154535 L 50.94788 22.532914 L 51.214289 21.526478 L 54.559206 21.171266 L 60.272206 17.29353 L 60.005796 15.57667 L 62.018667 14.925448 L 61.485848 14.155821 L 62.462682 13.238189 L 63.498719 13.415795 L 63.942734 11.610132 L 64.741962 11.28452 L 64.327548 9.922873 L 67.228449 10.011676 L 67.968475 6.725961 L 69.359724 6.577956 Z M 71.135786 4.653889 " stroke="#ffffff" stroke-width="1.19" stroke-opacity="1" stroke-miterlimit="4"/></g><path fill="#ff5757" d="M 20.039062 19.0625 L 20.039062 17.941406 L 20.4375 17.941406 C 20.523438 17.941406 20.597656 17.957031 20.652344 17.988281 C 20.710938 18.019531 20.753906 18.066406 20.78125 18.121094 C 20.808594 18.175781 20.824219 18.234375 20.824219 18.304688 C 20.824219 18.375 20.808594 18.433594 20.78125 18.492188 C 20.753906 18.546875 20.710938 18.589844 20.652344 18.621094 C 20.59375 18.652344 20.523438 18.667969 20.4375 18.667969 L 20.160156 18.667969 L 20.160156 18.523438 L 20.421875 18.523438 C 20.476562 18.523438 20.519531 18.515625 20.554688 18.496094 C 20.589844 18.476562 20.613281 18.449219 20.628906 18.417969 C 20.644531 18.382812 20.652344 18.347656 20.652344 18.304688 C 20.652344 18.261719 20.644531 18.226562 20.628906 18.191406 C 20.613281 18.160156 20.589844 18.132812 20.554688 18.113281 C 20.519531 18.097656 20.472656 18.085938 20.417969 18.085938 L 20.207031 18.085938 L 20.207031 19.0625 Z M 21.351562 19.078125 C 21.273438 19.078125 21.203125 19.0625 21.144531 19.023438 C 21.085938 18.988281 21.042969 18.9375 21.007812 18.875 C 20.976562 18.808594 20.960938 18.734375 20.960938 18.644531 C 20.960938 18.558594 20.976562 18.484375 21.007812 18.417969 C 21.042969 18.351562 21.085938 18.300781 21.144531 18.265625 C 21.203125 18.230469 21.273438 18.210938 21.351562 18.210938 C 21.429688 18.210938 21.5 18.230469 21.558594 18.265625 C 21.617188 18.300781 21.664062 18.351562 21.695312 18.417969 C 21.726562 18.484375 21.742188 18.558594 21.742188 18.644531 C 21.742188 18.734375 21.726562 18.808594 21.695312 18.875 C 21.664062 18.9375 21.617188 18.988281 21.558594 19.023438 C 21.5 19.0625 21.429688 19.078125 21.351562 19.078125 Z M 21.351562 18.941406 C 21.402344 18.941406 21.445312 18.929688 21.480469 18.902344 C 21.511719 18.875 21.539062 18.839844 21.554688 18.792969 C 21.570312 18.75 21.578125 18.699219 21.578125 18.644531 C 21.578125 18.589844 21.570312 18.542969 21.554688 18.496094 C 21.539062 18.453125 21.511719 18.417969 21.480469 18.390625 C 21.445312 18.363281 21.402344 18.347656 21.351562 18.347656 C 21.300781 18.347656 21.257812 18.363281 21.226562 18.390625 C 21.191406 18.417969 21.167969 18.453125 21.148438 18.496094 C 21.132812 18.542969 21.125 18.589844 21.125 18.644531 C 21.125 18.699219 21.132812 18.75 21.148438 18.792969 C 21.167969 18.839844 21.191406 18.875 21.226562 18.902344 C 21.257812 18.929688 21.300781 18.941406 21.351562 18.941406 Z M 22.089844 17.941406 L 22.089844 19.0625 L 21.925781 19.0625 L 21.925781 17.941406 Z M 22.703125 18.222656 L 22.703125 18.351562 L 22.242188 18.351562 L 22.242188 18.222656 Z M 22.367188 18.019531 L 22.527344 18.019531 L 22.527344 18.816406 C 22.527344 18.847656 22.535156 18.871094 22.542969 18.886719 C 22.554688 18.902344 22.566406 18.914062 22.578125 18.917969 C 22.59375 18.925781 22.613281 18.925781 22.628906 18.925781 C 22.644531 18.925781 22.65625 18.925781 22.664062 18.925781 C 22.675781 18.921875 22.683594 18.921875 22.6875 18.921875 L 22.714844 19.054688 C 22.707031 19.058594 22.695312 19.0625 22.675781 19.066406 C 22.660156 19.070312 22.636719 19.074219 22.609375 19.074219 C 22.566406 19.074219 22.527344 19.066406 22.492188 19.050781 C 22.453125 19.035156 22.421875 19.007812 22.398438 18.976562 C 22.378906 18.941406 22.367188 18.898438 22.367188 18.847656 Z M 23.125 19.082031 C 23.074219 19.082031 23.023438 19.070312 22.980469 19.050781 C 22.9375 19.03125 22.90625 19 22.878906 18.964844 C 22.855469 18.925781 22.84375 18.878906 22.84375 18.824219 C 22.84375 18.777344 22.851562 18.738281 22.871094 18.707031 C 22.886719 18.675781 22.914062 18.652344 22.945312 18.636719 C 22.976562 18.617188 23.007812 18.601562 23.046875 18.59375 C 23.085938 18.585938 23.125 18.578125 23.164062 18.574219 C 23.214844 18.566406 23.257812 18.5625 23.289062 18.558594 C 23.320312 18.554688 23.339844 18.550781 23.355469 18.539062 C 23.371094 18.53125 23.378906 18.515625 23.378906 18.496094 L 23.378906 18.492188 C 23.378906 18.445312 23.363281 18.410156 23.335938 18.382812 C 23.308594 18.355469 23.269531 18.34375 23.21875 18.34375 C 23.164062 18.34375 23.117188 18.355469 23.085938 18.378906 C 23.054688 18.402344 23.035156 18.429688 23.023438 18.460938 L 22.867188 18.425781 C 22.886719 18.375 22.914062 18.332031 22.949219 18.300781 C 22.984375 18.269531 23.023438 18.246094 23.070312 18.234375 C 23.117188 18.21875 23.164062 18.210938 23.214844 18.210938 C 23.25 18.210938 23.285156 18.214844 23.320312 18.222656 C 23.359375 18.230469 23.394531 18.246094 23.429688 18.265625 C 23.460938 18.285156 23.488281 18.316406 23.507812 18.355469 C 23.53125 18.394531 23.539062 18.441406 23.539062 18.503906 L 23.539062 19.0625 L 23.382812 19.0625 L 23.382812 18.945312 L 23.375 18.945312 C 23.363281 18.96875 23.347656 18.988281 23.328125 19.007812 C 23.304688 19.03125 23.277344 19.046875 23.246094 19.058594 C 23.210938 19.074219 23.171875 19.082031 23.125 19.082031 Z M 23.164062 18.949219 C 23.207031 18.949219 23.246094 18.941406 23.277344 18.921875 C 23.308594 18.90625 23.335938 18.882812 23.351562 18.851562 C 23.367188 18.824219 23.378906 18.792969 23.378906 18.757812 L 23.378906 18.652344 C 23.371094 18.65625 23.359375 18.660156 23.34375 18.667969 C 23.328125 18.671875 23.308594 18.675781 23.289062 18.679688 C 23.265625 18.683594 23.246094 18.6875 23.226562 18.6875 C 23.207031 18.691406 23.1875 18.695312 23.175781 18.695312 C 23.144531 18.699219 23.113281 18.707031 23.089844 18.714844 C 23.0625 18.726562 23.042969 18.738281 23.027344 18.757812 C 23.011719 18.773438 23.003906 18.796875 23.003906 18.828125 C 23.003906 18.867188 23.019531 18.898438 23.046875 18.917969 C 23.078125 18.9375 23.117188 18.949219 23.164062 18.949219 Z M 24.445312 18.222656 L 24.140625 19.0625 L 23.96875 19.0625 L 23.664062 18.222656 L 23.839844 18.222656 L 24.050781 18.867188 L 24.058594 18.867188 L 24.273438 18.222656 Z M 24.820312 19.082031 C 24.769531 19.082031 24.71875 19.070312 24.675781 19.050781 C 24.632812 19.03125 24.597656 19 24.574219 18.964844 C 24.550781 18.925781 24.539062 18.878906 24.539062 18.824219 C 24.539062 18.777344 24.546875 18.738281 24.566406 18.707031 C 24.582031 18.675781 24.605469 18.652344 24.636719 18.636719 C 24.667969 18.617188 24.703125 18.601562 24.742188 18.59375 C 24.78125 18.585938 24.820312 18.578125 24.859375 18.574219 C 24.910156 18.566406 24.949219 18.5625 24.980469 18.558594 C 25.011719 18.554688 25.035156 18.550781 25.050781 18.539062 C 25.0625 18.53125 25.070312 18.515625 25.070312 18.496094 L 25.070312 18.492188 C 25.070312 18.445312 25.058594 18.410156 25.03125 18.382812 C 25.003906 18.355469 24.964844 18.34375 24.910156 18.34375 C 24.855469 18.34375 24.8125 18.355469 24.78125 18.378906 C 24.75 18.402344 24.730469 18.429688 24.714844 18.460938 L 24.5625 18.425781 C 24.582031 18.375 24.609375 18.332031 24.644531 18.300781 C 24.679688 18.269531 24.71875 18.246094 24.765625 18.234375 C 24.808594 18.21875 24.859375 18.210938 24.910156 18.210938 C 24.941406 18.210938 24.980469 18.214844 25.015625 18.222656 C 25.054688 18.230469 25.089844 18.246094 25.121094 18.265625 C 25.15625 18.285156 25.183594 18.316406 25.203125 18.355469 C 25.226562 18.394531 25.234375 18.441406 25.234375 18.503906 L 25.234375 19.0625 L 25.074219 19.0625 L 25.074219 18.945312 L 25.070312 18.945312 C 25.058594 18.96875 25.042969 18.988281 25.023438 19.007812 C 25 19.03125 24.972656 19.046875 24.941406 19.058594 C 24.90625 19.074219 24.867188 19.082031 24.820312 19.082031 Z M 24.855469 18.949219 C 24.902344 18.949219 24.941406 18.941406 24.972656 18.921875 C 25.003906 18.90625 25.03125 18.882812 25.046875 18.851562 C 25.0625 18.824219 25.070312 18.792969 25.070312 18.757812 L 25.070312 18.652344 C 25.066406 18.65625 25.054688 18.660156 25.039062 18.667969 C 25.023438 18.671875 25.003906 18.675781 24.980469 18.679688 C 24.960938 18.683594 24.941406 18.6875 24.917969 18.6875 C 24.898438 18.691406 24.882812 18.695312 24.871094 18.695312 C 24.839844 18.699219 24.808594 18.707031 24.78125 18.714844 C 24.757812 18.726562 24.734375 18.738281 24.71875 18.757812 C 24.703125 18.773438 24.699219 18.796875 24.699219 18.828125 C 24.699219 18.867188 24.710938 18.898438 24.742188 18.917969 C 24.773438 18.9375 24.808594 18.949219 24.855469 18.949219 Z M 24.855469 18.949219 " fill-opacity="1" fill-rule="nonzero"/><g mask="url(#69e5f867a1)"><g transform="matrix(1, 0, 0, 1, 8, 11)"><g clip-path="url(#6194509e6b)"><g clip-path="url(#b4aa6621d3)"><path fill="#ff5757" d="M 0.554688 3.046875 L 0.554688 0.742188 L 1.375 0.742188 C 1.554688 0.742188 1.703125 0.777344 1.820312 0.839844 C 1.9375 0.90625 2.027344 0.996094 2.085938 1.109375 C 2.144531 1.222656 2.171875 1.347656 2.171875 1.488281 C 2.171875 1.632812 2.144531 1.757812 2.085938 1.871094 C 2.027344 1.984375 1.9375 2.074219 1.820312 2.140625 C 1.699219 2.203125 1.554688 2.238281 1.375 2.238281 L 0.808594 2.238281 L 0.808594 1.941406 L 1.34375 1.941406 C 1.457031 1.941406 1.546875 1.921875 1.617188 1.882812 C 1.6875 1.84375 1.742188 1.789062 1.773438 1.722656 C 1.808594 1.652344 1.824219 1.578125 1.824219 1.488281 C 1.824219 1.402344 1.808594 1.324219 1.773438 1.257812 C 1.742188 1.191406 1.6875 1.136719 1.617188 1.097656 C 1.546875 1.0625 1.453125 1.042969 1.339844 1.042969 L 0.902344 1.042969 L 0.902344 3.046875 Z M 4.484375 1.894531 C 4.484375 2.140625 4.441406 2.351562 4.351562 2.53125 C 4.261719 2.707031 4.136719 2.839844 3.980469 2.9375 C 3.824219 3.03125 3.648438 3.078125 3.449219 3.078125 C 3.25 3.078125 3.070312 3.03125 2.914062 2.9375 C 2.757812 2.839844 2.636719 2.707031 2.546875 2.527344 C 2.457031 2.351562 2.410156 2.140625 2.410156 1.894531 C 2.410156 1.648438 2.457031 1.4375 2.546875 1.261719 C 2.636719 1.085938 2.757812 0.949219 2.914062 0.855469 C 3.070312 0.761719 3.25 0.710938 3.449219 0.710938 C 3.648438 0.710938 3.824219 0.761719 3.980469 0.855469 C 4.136719 0.949219 4.261719 1.085938 4.351562 1.261719 C 4.441406 1.4375 4.484375 1.648438 4.484375 1.894531 Z M 4.140625 1.894531 C 4.140625 1.707031 4.113281 1.550781 4.050781 1.421875 C 3.992188 1.292969 3.910156 1.195312 3.804688 1.128906 C 3.699219 1.0625 3.582031 1.03125 3.449219 1.03125 C 3.316406 1.03125 3.199219 1.0625 3.09375 1.128906 C 2.988281 1.195312 2.90625 1.292969 2.847656 1.421875 C 2.785156 1.550781 2.757812 1.707031 2.757812 1.894531 C 2.757812 2.082031 2.785156 2.242188 2.847656 2.371094 C 2.90625 2.5 2.988281 2.597656 3.09375 2.664062 C 3.199219 2.730469 3.316406 2.761719 3.449219 2.761719 C 3.582031 2.761719 3.699219 2.730469 3.804688 2.664062 C 3.910156 2.597656 3.992188 2.5 4.050781 2.371094 C 4.113281 2.242188 4.140625 2.082031 4.140625 1.894531 Z M 4.824219 3.046875 L 4.824219 0.742188 L 5.171875 0.742188 L 5.171875 2.746094 L 6.214844 2.746094 L 6.214844 3.046875 Z M 6.105469 1.042969 L 6.105469 0.742188 L 7.886719 0.742188 L 7.886719 1.042969 L 7.167969 1.042969 L 7.167969 3.046875 L 6.820312 3.046875 L 6.820312 1.042969 Z M 8.109375 3.046875 L 7.738281 3.046875 L 8.566406 0.742188 L 8.96875 0.742188 L 9.796875 3.046875 L 9.429688 3.046875 L 8.777344 1.164062 L 8.761719 1.164062 Z M 8.167969 2.144531 L 9.367188 2.144531 L 9.367188 2.4375 L 8.167969 2.4375 Z M 9.996094 0.742188 L 10.636719 2.621094 L 10.664062 2.621094 L 11.304688 0.742188 L 11.679688 0.742188 L 10.851562 3.046875 L 10.449219 3.046875 L 9.621094 0.742188 Z M 11.875 3.046875 L 11.507812 3.046875 L 12.335938 0.742188 L 12.738281 0.742188 L 13.566406 3.046875 L 13.199219 3.046875 L 12.546875 1.164062 L 12.527344 1.164062 Z M 11.9375 2.144531 L 13.136719 2.144531 L 13.136719 2.4375 L 11.9375 2.4375 Z M 11.9375 2.144531 " fill-opacity="1" fill-rule="nonzero"/></g></g></g></g></svg>