<svg xmlns="http://www.w3.org/2000/svg" xmlns:xlink="http://www.w3.org/1999/xlink" width="50" zoomAndPan="magnify" viewBox="0 0 37.5 37.499999" height="50" preserveAspectRatio="xMidYMid meet" version="1.0"><defs><filter x="0%" y="0%" width="100%" height="100%" id="2d476914ff"><feColorMatrix values="0 0 0 0 1 0 0 0 0 1 0 0 0 0 1 0 0 0 1 0" color-interpolation-filters="sRGB"/></filter><clipPath id="88967b9fe8"><path d="M 1.652344 9.320312 L 35.699219 9.320312 L 35.699219 27.824219 L 1.652344 27.824219 Z M 1.652344 9.320312 " clip-rule="nonzero"/></clipPath><mask id="ad66e24d1d"><g filter="url(#2d476914ff)"><rect x="-3.75" width="45" fill="#000000" y="-3.75" height="44.999999" fill-opacity="0.08"/></g></mask><clipPath id="954899d881"><path d="M 0.816406 0.394531 L 15.972656 0.394531 L 15.972656 3 L 0.816406 3 Z M 0.816406 0.394531 " clip-rule="nonzero"/></clipPath><clipPath id="eb93438f52"><rect x="0" width="16" y="0" height="3"/></clipPath></defs><g clip-path="url(#88967b9fe8)"><path stroke-linecap="round" transform="matrix(0.177926, 0, 0, 0.177926, 1.617482, 9.258939)" fill-opacity="1" fill="#000000" fill-rule="nonzero" stroke-linejoin="round" d="M 52.535218 1.201161 L 58.572677 2.386699 L 60.241211 5.570086 L 61.799974 2.34279 L 62.941602 1.025526 L 63.775869 1.003572 L 65.158996 1.79393 L 68.803426 6.711715 L 68.47411 9.412106 L 70.252416 9.126699 L 72.623491 10.53178 L 74.489615 10.004875 L 77.387595 6.799533 L 80.680755 8.050933 L 81.427204 4.560184 L 82.810331 4.055233 L 83.468963 4.779728 L 83.908051 8.468067 L 82.349289 10.88305 L 85.94981 15.910607 L 88.255022 14.307936 L 88.123295 12.72722 L 86.015673 9.258425 L 86.366944 7.721617 L 87.530527 7.019077 L 89.462514 9.214516 L 89.704012 14.768979 L 91.196911 16.92051 L 93.282579 17.27178 L 98.375999 15.669109 L 100.769028 19.028132 L 102.503425 18.193865 L 104.457367 19.159858 L 107.245575 16.17406 L 110.933914 15.888653 L 113.985575 15.142203 L 118.771633 24.428913 L 122.196519 25.131454 L 124.106552 24.01178 L 122.789288 20.542985 L 123.008832 19.181812 L 124.677366 19.26963 L 126.367855 21.530933 L 129.243881 21.46507 L 130.429418 20.586894 L 130.012285 19.159858 L 127.904663 17.249826 L 127.531438 15.581291 L 124.040689 16.108197 L 123.360102 15.208067 L 123.64551 14.088392 L 124.721275 13.27608 L 126.389809 13.298034 L 129.595151 16.415558 L 131.351503 16.481422 L 132.229679 15.734972 L 132.471177 14.242073 L 132.141861 12.661357 L 130.802643 11.366047 L 131.43932 10.422008 L 132.888311 11.366047 L 133.63476 14.72507 L 135.061796 14.944614 L 136.269288 12.749174 L 134.995933 9.587741 L 136.818148 8.028979 L 138.37691 8.621748 L 137.959776 11.036731 L 139.364858 13.62735 L 142.175021 15.515428 L 143.8216 14.768979 L 145.66577 11.914907 L 148.497887 11.761226 L 150.122512 10.400054 L 150.803098 12.310086 L 156.928375 13.781031 L 159.255541 13.671259 L 160.858212 11.761226 L 162.59261 11.036731 L 168.432479 12.924809 L 169.793652 10.992822 L 167.861665 8.358295 L 168.432479 6.711715 L 170.957235 6.667806 L 173.767398 9.214516 L 175.435932 8.424158 L 176.072609 6.009174 L 177.521599 5.899402 L 183.207788 9.192562 L 185.337365 15.581291 L 185.117821 19.115949 L 186.544857 21.794386 L 189.003749 23.155558 L 186.786355 24.758229 L 184.590915 25.065591 L 182.658928 29.478425 L 178.553456 29.500379 L 177.807007 28.402659 L 177.960687 26.843897 L 177.060557 26.097447 L 175.896974 25.372952 L 175.896974 26.295037 L 175.172479 25.46077 L 174.930981 26.316991 L 173.701534 26.075493 L 171.088961 33.737578 L 169.68388 32.705721 L 167.620167 33.474125 L 166.127268 31.805591 L 164.634369 31.366503 L 162.702382 32.991128 L 160.704531 33.496079 L 157.389418 29.65406 L 156.686877 26.975623 L 155.369613 28.424614 L 151.900818 28.227024 L 153.613261 29.566242 L 154.249939 32.74963 L 154.030395 33.276535 L 152.778994 32.486177 L 150.956779 32.859402 L 150.298147 35.186568 L 145.709678 33.781486 L 145.512089 34.54989 L 143.360558 32.530086 L 143.448376 30.90546 L 141.977431 28.622203 L 140.111307 29.258881 L 134.973978 28.731975 L 133.195672 30.839597 L 131.219776 29.65406 L 130.297692 30.312692 L 133.920167 35.625656 L 135.961926 36.767284 L 137.015737 35.954972 L 138.003685 36.723376 L 138.508636 40.060444 L 137.47678 42.102203 L 136.159516 42.321747 L 134.644662 41.421617 L 133.481079 39.270086 L 132.251633 40.060444 L 128.936519 35.384157 L 128.233978 35.537838 L 129.134109 38.457773 L 127.750982 38.765134 L 127.685119 39.621356 L 125.79704 40.982529 L 125.79704 41.794841 L 123.557692 44.231779 L 124.370005 46.053994 L 124.260233 47.085851 L 123.272285 46.778489 L 123.579646 47.942072 L 121.933067 48.02989 L 121.142708 47.239532 L 120.220624 47.788392 L 120.088897 50.093603 L 118.661861 49.47888 L 118.3545 50.510737 L 116.751829 51.279141 L 112.756129 50.071649 L 111.790135 51.608457 L 110.253327 52.003636 L 110.472871 52.837903 L 109.375152 52.135362 L 106.87235 53.650216 L 105.994174 52.508587 L 104.918409 53.781942 L 104.106096 53.189173 L 103.97437 53.957577 L 103.008376 53.935623 L 102.569289 54.660118 L 103.096194 56.57015 L 100.505575 59.292496 L 98.837041 64.781095 L 94.446162 68.0523 L 93.370396 72.838358 L 92.360494 74.177577 L 86.871895 75.89002 L 83.688507 74.880117 L 75.675152 76.746241 L 73.062579 76.065655 L 72.338084 77.470736 L 71.262319 77.843961 L 69.088833 76.856013 L 66.586032 77.536599 L 65.510267 78.897772 L 62.941602 80.105264 L 56.399192 79.797902 L 53.830527 78.963635 L 49.615283 80.23699 L 29.87828 82.717837 L 26.78271 85.001094 L 24.016456 85.088912 L 23.270007 88.601615 L 19.449942 93.892625 L 19.34017 95.780703 L 18.000952 95.978293 L 16.947141 97.054058 L 15.783558 99.71054 L 12.314763 101.093667 L 11.348769 100.544807 L 10.25105 102.828065 L 7.989747 101.884026 L 7.243297 102.828065 L 1.798607 102.674384 L 3.598867 95.561159 L 6.189486 91.916729 L 7.177434 88.996795 L 6.101669 88.601615 L 6.299258 87.811257 L 3.686685 85.418228 L 3.445187 84.364417 L 4.498998 83.947283 L 4.257499 82.322658 L 1.557108 79.33686 L 2.149877 78.634319 L 1.469291 78.283049 L 1.820561 77.448782 L 0.788705 74.04585 L 1.66688 72.574906 L 1.161929 70.642919 L 6.979844 64.254189 L 5.991897 61.927023 L 6.365121 61.180574 L 7.550659 60.675623 L 9.943688 61.641616 L 10.207141 59.819401 L 12.161082 59.336404 L 12.226945 56.526242 L 14.04916 56.087154 L 13.522255 54.111258 L 14.641929 53.606307 L 16.551962 54.374711 L 17.232548 54.02344 L 17.408183 52.596405 L 15.717694 51.191323 L 15.915284 50.049694 L 15.102971 49.500835 L 17.759453 47.173669 L 20.547662 46.646763 L 26.189942 38.523636 L 31.415088 33.166763 L 36.025512 31.212822 L 38.769811 31.256731 L 41.053068 30.378555 L 44.895088 31.015232 L 46.607531 32.595949 L 51.437498 32.595949 L 52.183948 30.795688 L 50.64714 25.504679 L 50.756912 12.288132 L 49.703101 10.268327 L 49.812873 6.558034 L 49.285967 5.855494 Z M 52.535218 1.201161 " stroke="#ffffff" stroke-width="1.19" stroke-opacity="1" stroke-miterlimit="4"/></g><path fill="#ff5757" d="M 6.816406 19.804688 L 6.585938 19.804688 C 6.578125 19.753906 6.558594 19.710938 6.535156 19.671875 C 6.511719 19.636719 6.484375 19.605469 6.449219 19.578125 C 6.414062 19.550781 6.375 19.53125 6.332031 19.519531 C 6.289062 19.503906 6.242188 19.5 6.195312 19.5 C 6.109375 19.5 6.03125 19.519531 5.960938 19.566406 C 5.890625 19.609375 5.839844 19.671875 5.796875 19.757812 C 5.757812 19.839844 5.738281 19.945312 5.738281 20.066406 C 5.738281 20.191406 5.757812 20.292969 5.796875 20.378906 C 5.839844 20.460938 5.894531 20.527344 5.960938 20.570312 C 6.03125 20.613281 6.109375 20.632812 6.195312 20.632812 C 6.242188 20.632812 6.285156 20.628906 6.328125 20.613281 C 6.371094 20.601562 6.410156 20.582031 6.445312 20.558594 C 6.480469 20.53125 6.511719 20.5 6.535156 20.464844 C 6.558594 20.425781 6.578125 20.382812 6.585938 20.335938 L 6.816406 20.335938 C 6.804688 20.410156 6.78125 20.476562 6.746094 20.539062 C 6.710938 20.601562 6.664062 20.65625 6.609375 20.703125 C 6.554688 20.746094 6.492188 20.78125 6.421875 20.804688 C 6.351562 20.828125 6.273438 20.84375 6.191406 20.84375 C 6.0625 20.84375 5.945312 20.8125 5.84375 20.75 C 5.742188 20.6875 5.660156 20.597656 5.601562 20.480469 C 5.542969 20.367188 5.511719 20.226562 5.511719 20.066406 C 5.511719 19.90625 5.542969 19.765625 5.601562 19.652344 C 5.660156 19.535156 5.742188 19.445312 5.84375 19.386719 C 5.945312 19.324219 6.0625 19.292969 6.191406 19.292969 C 6.273438 19.292969 6.347656 19.304688 6.417969 19.324219 C 6.484375 19.347656 6.546875 19.382812 6.605469 19.425781 C 6.660156 19.46875 6.707031 19.523438 6.742188 19.585938 C 6.777344 19.648438 6.804688 19.722656 6.816406 19.804688 Z M 7.292969 20.148438 L 7.292969 20.820312 L 7.070312 20.820312 L 7.070312 19.3125 L 7.289062 19.3125 L 7.289062 19.875 L 7.300781 19.875 C 7.328125 19.8125 7.371094 19.765625 7.421875 19.726562 C 7.476562 19.691406 7.550781 19.675781 7.636719 19.675781 C 7.714844 19.675781 7.78125 19.691406 7.839844 19.722656 C 7.898438 19.753906 7.945312 19.800781 7.976562 19.867188 C 8.007812 19.929688 8.023438 20.007812 8.023438 20.101562 L 8.023438 20.820312 L 7.804688 20.820312 L 7.804688 20.128906 C 7.804688 20.042969 7.785156 19.980469 7.742188 19.933594 C 7.699219 19.886719 7.636719 19.867188 7.5625 19.867188 C 7.511719 19.867188 7.464844 19.875 7.421875 19.898438 C 7.382812 19.921875 7.347656 19.953125 7.324219 19.996094 C 7.300781 20.039062 7.292969 20.089844 7.292969 20.148438 Z M 8.808594 20.84375 C 8.695312 20.84375 8.601562 20.820312 8.519531 20.773438 C 8.4375 20.726562 8.378906 20.65625 8.332031 20.570312 C 8.289062 20.484375 8.269531 20.378906 8.269531 20.261719 C 8.269531 20.148438 8.289062 20.042969 8.332031 19.957031 C 8.378906 19.867188 8.4375 19.796875 8.515625 19.75 C 8.59375 19.699219 8.6875 19.675781 8.792969 19.675781 C 8.855469 19.675781 8.917969 19.683594 8.976562 19.707031 C 9.039062 19.726562 9.089844 19.761719 9.140625 19.804688 C 9.1875 19.851562 9.222656 19.910156 9.25 19.980469 C 9.277344 20.054688 9.292969 20.140625 9.292969 20.242188 L 9.292969 20.320312 L 8.394531 20.320312 L 8.394531 20.15625 L 9.078125 20.15625 C 9.078125 20.097656 9.066406 20.046875 9.042969 20.003906 C 9.019531 19.957031 8.984375 19.921875 8.941406 19.894531 C 8.898438 19.871094 8.851562 19.855469 8.792969 19.855469 C 8.730469 19.855469 8.675781 19.871094 8.632812 19.902344 C 8.585938 19.933594 8.550781 19.972656 8.523438 20.019531 C 8.5 20.070312 8.488281 20.121094 8.488281 20.175781 L 8.488281 20.304688 C 8.488281 20.382812 8.5 20.445312 8.527344 20.5 C 8.554688 20.550781 8.59375 20.59375 8.640625 20.621094 C 8.6875 20.648438 8.746094 20.664062 8.808594 20.664062 C 8.851562 20.664062 8.890625 20.65625 8.921875 20.644531 C 8.957031 20.632812 8.988281 20.613281 9.011719 20.589844 C 9.039062 20.566406 9.058594 20.535156 9.070312 20.5 L 9.277344 20.539062 C 9.261719 20.601562 9.230469 20.652344 9.1875 20.699219 C 9.144531 20.746094 9.09375 20.78125 9.027344 20.808594 C 8.964844 20.832031 8.890625 20.84375 8.808594 20.84375 Z M 9.539062 20.820312 L 9.539062 19.6875 L 9.75 19.6875 L 9.75 19.871094 L 9.761719 19.871094 C 9.78125 19.808594 9.820312 19.761719 9.871094 19.726562 C 9.925781 19.691406 9.984375 19.671875 10.050781 19.671875 C 10.0625 19.671875 10.078125 19.671875 10.097656 19.675781 C 10.117188 19.675781 10.132812 19.675781 10.144531 19.675781 L 10.144531 19.886719 C 10.132812 19.886719 10.117188 19.882812 10.097656 19.878906 C 10.074219 19.875 10.050781 19.875 10.027344 19.875 C 9.976562 19.875 9.929688 19.886719 9.890625 19.910156 C 9.847656 19.929688 9.816406 19.960938 9.792969 20 C 9.769531 20.039062 9.757812 20.082031 9.757812 20.128906 L 9.757812 20.820312 Z M 10.554688 20.148438 L 10.554688 20.820312 L 10.335938 20.820312 L 10.335938 19.6875 L 10.546875 19.6875 L 10.546875 19.875 L 10.558594 19.875 C 10.585938 19.8125 10.625 19.765625 10.683594 19.730469 C 10.738281 19.691406 10.808594 19.675781 10.894531 19.675781 C 10.972656 19.675781 11.039062 19.691406 11.097656 19.722656 C 11.15625 19.753906 11.199219 19.804688 11.230469 19.867188 C 11.261719 19.929688 11.277344 20.007812 11.277344 20.101562 L 11.277344 20.820312 L 11.058594 20.820312 L 11.058594 20.128906 C 11.058594 20.046875 11.039062 19.980469 10.996094 19.933594 C 10.953125 19.890625 10.894531 19.867188 10.820312 19.867188 C 10.765625 19.867188 10.722656 19.875 10.683594 19.898438 C 10.644531 19.921875 10.613281 19.953125 10.589844 19.996094 C 10.566406 20.039062 10.554688 20.089844 10.554688 20.148438 Z M 11.574219 20.820312 L 11.574219 19.6875 L 11.796875 19.6875 L 11.796875 20.820312 Z M 11.6875 19.515625 C 11.648438 19.515625 11.613281 19.5 11.585938 19.476562 C 11.558594 19.449219 11.546875 19.417969 11.546875 19.382812 C 11.546875 19.347656 11.558594 19.316406 11.585938 19.289062 C 11.613281 19.265625 11.648438 19.25 11.6875 19.25 C 11.722656 19.25 11.757812 19.265625 11.785156 19.289062 C 11.8125 19.316406 11.824219 19.347656 11.824219 19.382812 C 11.824219 19.417969 11.8125 19.449219 11.785156 19.476562 C 11.757812 19.5 11.722656 19.515625 11.6875 19.515625 Z M 13.058594 19.6875 L 12.648438 20.820312 L 12.414062 20.820312 L 12.003906 19.6875 L 12.238281 19.6875 L 12.527344 20.5625 L 12.539062 20.5625 L 12.824219 19.6875 Z M 13.796875 19.6875 L 13.796875 19.867188 L 13.175781 19.867188 L 13.175781 19.6875 Z M 13.34375 19.417969 L 13.5625 19.417969 L 13.5625 20.488281 C 13.5625 20.53125 13.570312 20.5625 13.582031 20.585938 C 13.59375 20.605469 13.613281 20.621094 13.632812 20.628906 C 13.652344 20.636719 13.675781 20.640625 13.699219 20.640625 C 13.71875 20.640625 13.730469 20.640625 13.746094 20.636719 C 13.757812 20.632812 13.769531 20.632812 13.777344 20.628906 L 13.816406 20.8125 C 13.804688 20.816406 13.785156 20.824219 13.761719 20.828125 C 13.738281 20.832031 13.707031 20.835938 13.671875 20.835938 C 13.617188 20.835938 13.5625 20.828125 13.511719 20.804688 C 13.460938 20.785156 13.421875 20.75 13.390625 20.703125 C 13.359375 20.660156 13.34375 20.601562 13.34375 20.535156 Z M 14.871094 19.964844 L 14.671875 20 C 14.660156 19.976562 14.648438 19.953125 14.628906 19.929688 C 14.613281 19.90625 14.589844 19.886719 14.558594 19.871094 C 14.527344 19.855469 14.488281 19.847656 14.445312 19.847656 C 14.382812 19.847656 14.328125 19.863281 14.289062 19.890625 C 14.246094 19.917969 14.226562 19.953125 14.226562 20 C 14.226562 20.035156 14.238281 20.066406 14.265625 20.089844 C 14.292969 20.113281 14.339844 20.132812 14.402344 20.144531 L 14.582031 20.1875 C 14.6875 20.210938 14.765625 20.25 14.816406 20.300781 C 14.867188 20.347656 14.890625 20.414062 14.890625 20.496094 C 14.890625 20.5625 14.871094 20.621094 14.832031 20.675781 C 14.792969 20.726562 14.738281 20.769531 14.671875 20.800781 C 14.601562 20.828125 14.519531 20.84375 14.429688 20.84375 C 14.300781 20.84375 14.199219 20.816406 14.117188 20.761719 C 14.039062 20.707031 13.988281 20.632812 13.972656 20.53125 L 14.183594 20.5 C 14.199219 20.554688 14.226562 20.597656 14.265625 20.625 C 14.308594 20.652344 14.359375 20.667969 14.425781 20.667969 C 14.5 20.667969 14.558594 20.652344 14.601562 20.621094 C 14.644531 20.589844 14.664062 20.554688 14.664062 20.511719 C 14.664062 20.476562 14.652344 20.445312 14.625 20.421875 C 14.601562 20.398438 14.558594 20.378906 14.503906 20.367188 L 14.3125 20.324219 C 14.207031 20.300781 14.128906 20.261719 14.078125 20.210938 C 14.03125 20.15625 14.003906 20.089844 14.003906 20.011719 C 14.003906 19.941406 14.023438 19.882812 14.058594 19.835938 C 14.097656 19.785156 14.148438 19.746094 14.214844 19.71875 C 14.28125 19.6875 14.355469 19.675781 14.441406 19.675781 C 14.5625 19.675781 14.660156 19.699219 14.730469 19.753906 C 14.800781 19.808594 14.847656 19.878906 14.871094 19.964844 Z M 15.132812 20.820312 L 15.132812 19.6875 L 15.355469 19.6875 L 15.355469 20.820312 Z M 15.246094 19.515625 C 15.207031 19.515625 15.175781 19.5 15.148438 19.476562 C 15.121094 19.449219 15.105469 19.417969 15.105469 19.382812 C 15.105469 19.347656 15.121094 19.316406 15.148438 19.289062 C 15.175781 19.265625 15.207031 19.25 15.246094 19.25 C 15.285156 19.25 15.316406 19.265625 15.34375 19.289062 C 15.371094 19.316406 15.386719 19.347656 15.386719 19.382812 C 15.386719 19.417969 15.371094 19.449219 15.34375 19.476562 C 15.316406 19.5 15.285156 19.515625 15.246094 19.515625 Z M 15.246094 19.515625 " fill-opacity="1" fill-rule="nonzero"/><g mask="url(#ad66e24d1d)"><g transform="matrix(1, 0, 0, 1, 7, 15)"><g clip-path="url(#eb93438f52)"><g clip-path="url(#954899d881)"><path fill="#ff5757" d="M 2.535156 1.308594 L 2.238281 1.308594 C 2.226562 1.246094 2.207031 1.191406 2.175781 1.140625 C 2.144531 1.09375 2.105469 1.054688 2.0625 1.019531 C 2.015625 0.988281 1.964844 0.960938 1.910156 0.945312 C 1.855469 0.925781 1.796875 0.917969 1.734375 0.917969 C 1.625 0.917969 1.523438 0.945312 1.433594 1.003906 C 1.347656 1.058594 1.277344 1.140625 1.226562 1.25 C 1.175781 1.359375 1.152344 1.492188 1.152344 1.648438 C 1.152344 1.804688 1.175781 1.941406 1.226562 2.046875 C 1.277344 2.15625 1.347656 2.238281 1.4375 2.292969 C 1.523438 2.351562 1.625 2.378906 1.734375 2.378906 C 1.796875 2.378906 1.855469 2.371094 1.910156 2.351562 C 1.964844 2.335938 2.015625 2.3125 2.058594 2.277344 C 2.105469 2.246094 2.140625 2.207031 2.171875 2.160156 C 2.203125 2.109375 2.226562 2.054688 2.238281 1.992188 L 2.535156 1.996094 C 2.519531 2.089844 2.488281 2.175781 2.441406 2.257812 C 2.398438 2.335938 2.339844 2.40625 2.269531 2.464844 C 2.199219 2.523438 2.117188 2.566406 2.027344 2.597656 C 1.9375 2.628906 1.839844 2.644531 1.734375 2.644531 C 1.566406 2.644531 1.414062 2.605469 1.285156 2.527344 C 1.152344 2.445312 1.046875 2.332031 0.972656 2.183594 C 0.898438 2.03125 0.859375 1.855469 0.859375 1.648438 C 0.859375 1.441406 0.898438 1.261719 0.972656 1.113281 C 1.050781 0.964844 1.152344 0.851562 1.285156 0.773438 C 1.414062 0.691406 1.566406 0.652344 1.734375 0.652344 C 1.835938 0.652344 1.933594 0.667969 2.019531 0.695312 C 2.109375 0.726562 2.191406 0.769531 2.261719 0.824219 C 2.332031 0.882812 2.394531 0.949219 2.441406 1.03125 C 2.488281 1.113281 2.519531 1.203125 2.535156 1.308594 Z M 2.804688 2.617188 L 2.804688 0.679688 L 3.097656 0.679688 L 3.097656 1.519531 L 4.066406 1.519531 L 4.066406 0.679688 L 4.359375 0.679688 L 4.359375 2.617188 L 4.066406 2.617188 L 4.066406 1.773438 L 3.097656 1.773438 L 3.097656 2.617188 Z M 4.707031 2.617188 L 4.707031 0.679688 L 5.921875 0.679688 L 5.921875 0.929688 L 5 0.929688 L 5 1.519531 L 5.859375 1.519531 L 5.859375 1.773438 L 5 1.773438 L 5 2.367188 L 5.933594 2.367188 L 5.933594 2.617188 Z M 6.234375 2.617188 L 6.234375 0.679688 L 6.925781 0.679688 C 7.074219 0.679688 7.199219 0.703125 7.300781 0.753906 C 7.398438 0.808594 7.472656 0.878906 7.523438 0.96875 C 7.574219 1.0625 7.597656 1.167969 7.597656 1.285156 C 7.597656 1.40625 7.574219 1.507812 7.523438 1.601562 C 7.472656 1.691406 7.398438 1.757812 7.300781 1.808594 C 7.199219 1.859375 7.074219 1.882812 6.925781 1.882812 L 6.402344 1.882812 L 6.402344 1.632812 L 6.898438 1.632812 C 6.992188 1.632812 7.070312 1.617188 7.128906 1.589844 C 7.1875 1.5625 7.234375 1.523438 7.261719 1.472656 C 7.289062 1.421875 7.304688 1.359375 7.304688 1.285156 C 7.304688 1.214844 7.289062 1.148438 7.261719 1.097656 C 7.230469 1.042969 7.1875 1 7.128906 0.972656 C 7.070312 0.945312 6.992188 0.929688 6.894531 0.929688 L 6.527344 0.929688 L 6.527344 2.617188 Z M 7.191406 1.742188 L 7.671875 2.617188 L 7.335938 2.617188 L 6.867188 1.742188 Z M 9.441406 0.679688 L 9.441406 2.617188 L 9.171875 2.617188 L 8.183594 1.195312 L 8.167969 1.195312 L 8.167969 2.617188 L 7.875 2.617188 L 7.875 0.679688 L 8.144531 0.679688 L 9.132812 2.101562 L 9.152344 2.101562 L 9.152344 0.679688 Z M 10.082031 0.679688 L 10.082031 2.617188 L 9.789062 2.617188 L 9.789062 0.679688 Z M 10.597656 0.679688 L 11.136719 2.257812 L 11.160156 2.257812 L 11.699219 0.679688 L 12.015625 0.679688 L 11.316406 2.617188 L 10.976562 2.617188 L 10.28125 0.679688 Z M 12.121094 0.929688 L 12.121094 0.679688 L 13.621094 0.679688 L 13.621094 0.929688 L 13.015625 0.929688 L 13.015625 2.617188 L 12.722656 2.617188 L 12.722656 0.929688 Z M 14.933594 1.1875 C 14.921875 1.097656 14.878906 1.027344 14.808594 0.980469 C 14.734375 0.929688 14.640625 0.90625 14.53125 0.90625 C 14.449219 0.90625 14.382812 0.917969 14.324219 0.941406 C 14.265625 0.96875 14.222656 1 14.1875 1.042969 C 14.15625 1.085938 14.140625 1.136719 14.140625 1.191406 C 14.140625 1.238281 14.152344 1.277344 14.171875 1.3125 C 14.195312 1.34375 14.222656 1.371094 14.257812 1.394531 C 14.296875 1.417969 14.335938 1.4375 14.375 1.453125 C 14.417969 1.464844 14.457031 1.476562 14.492188 1.488281 L 14.683594 1.535156 C 14.746094 1.550781 14.808594 1.570312 14.875 1.597656 C 14.9375 1.625 15 1.65625 15.054688 1.699219 C 15.109375 1.742188 15.15625 1.796875 15.1875 1.859375 C 15.222656 1.921875 15.242188 1.996094 15.242188 2.082031 C 15.242188 2.191406 15.214844 2.289062 15.15625 2.375 C 15.101562 2.460938 15.019531 2.527344 14.910156 2.578125 C 14.804688 2.625 14.675781 2.652344 14.523438 2.652344 C 14.378906 2.652344 14.253906 2.628906 14.144531 2.582031 C 14.039062 2.535156 13.957031 2.46875 13.898438 2.386719 C 13.835938 2.300781 13.804688 2.199219 13.796875 2.082031 L 14.089844 2.082031 C 14.097656 2.152344 14.121094 2.210938 14.160156 2.257812 C 14.199219 2.304688 14.25 2.339844 14.3125 2.359375 C 14.375 2.382812 14.445312 2.394531 14.519531 2.394531 C 14.605469 2.394531 14.675781 2.382812 14.742188 2.355469 C 14.808594 2.328125 14.859375 2.292969 14.894531 2.246094 C 14.933594 2.199219 14.953125 2.144531 14.953125 2.078125 C 14.953125 2.023438 14.933594 1.976562 14.902344 1.9375 C 14.871094 1.902344 14.824219 1.871094 14.769531 1.847656 C 14.714844 1.824219 14.652344 1.800781 14.582031 1.785156 L 14.355469 1.722656 C 14.199219 1.679688 14.074219 1.617188 13.984375 1.535156 C 13.894531 1.453125 13.847656 1.34375 13.847656 1.207031 C 13.847656 1.097656 13.878906 1 13.941406 0.914062 C 14 0.832031 14.082031 0.765625 14.1875 0.722656 C 14.289062 0.675781 14.40625 0.652344 14.539062 0.652344 C 14.667969 0.652344 14.785156 0.675781 14.886719 0.71875 C 14.984375 0.765625 15.066406 0.832031 15.125 0.910156 C 15.183594 0.992188 15.210938 1.082031 15.214844 1.1875 Z M 15.804688 0.679688 L 15.804688 2.617188 L 15.511719 2.617188 L 15.511719 0.679688 Z M 15.804688 0.679688 " fill-opacity="1" fill-rule="nonzero"/></g></g></g></g></svg>