<svg xmlns="http://www.w3.org/2000/svg" xmlns:xlink="http://www.w3.org/1999/xlink" width="50" zoomAndPan="magnify" viewBox="0 0 37.5 37.499999" height="50" preserveAspectRatio="xMidYMid meet" version="1.0"><defs><filter x="0%" y="0%" width="100%" height="100%" id="49f9c8e6ce"><feColorMatrix values="0 0 0 0 1 0 0 0 0 1 0 0 0 0 1 0 0 0 1 0" color-interpolation-filters="sRGB"/></filter><clipPath id="b551ab47b1"><path d="M 5.265625 1.367188 L 31.910156 1.367188 L 31.910156 35.414062 L 5.265625 35.414062 Z M 5.265625 1.367188 " clip-rule="nonzero"/></clipPath><mask id="af36e495df"><g filter="url(#49f9c8e6ce)"><rect x="-3.75" width="45" fill="#000000" y="-3.75" height="44.999999" fill-opacity="0.08"/></g></mask><clipPath id="7717987b6d"><path d="M 0.816406 1 L 20 1 L 20 3.816406 L 0.816406 3.816406 Z M 0.816406 1 " clip-rule="nonzero"/></clipPath><clipPath id="089192e756"><rect x="0" width="20" y="0" height="4"/></clipPath></defs><g clip-path="url(#b551ab47b1)"><path stroke-linecap="round" transform="matrix(0.144034, 0, 0, 0.144034, 5.257872, 1.324686)" fill-opacity="1" fill="#000000" fill-rule="nonzero" stroke-linejoin="round" d="M 77.319456 8.024352 L 79.109394 7.780269 L 83.584237 13.421284 L 84.316484 17.462203 L 87.00139 16.051949 L 92.561044 11.224543 L 95.978197 11.495745 L 96.520602 12.390714 L 98.717343 12.689037 L 98.717343 13.855208 L 106.012694 14.07217 L 104.060035 14.994259 L 104.304117 15.509544 L 105.66013 14.967139 L 104.819402 15.834987 L 107.775511 27.957744 L 109.077283 28.52727 L 111.626588 25.788124 L 111.599468 29.313758 L 112.738519 31.6461 L 113.986051 30.317207 L 114.230133 27.713662 L 114.799659 27.44246 L 114.419975 24.838914 L 113.362285 23.455781 L 117.810008 15.0485 L 119.925388 14.614576 L 123.830706 11.821189 L 128.115707 11.685587 L 128.630992 13.611126 L 130.312449 13.475525 L 132.454949 11.821189 L 138.068844 4.607199 L 142.326725 4.417357 L 142.977611 5.095364 L 142.055522 7.292105 L 143.520016 7.915871 L 143.031852 9.163403 L 145.120112 10.844859 L 145.499795 13.611126 L 148.510145 14.343373 L 149.02543 18.547014 L 148.103341 22.452331 L 149.567835 24.838914 L 149.567835 26.384769 L 152.1985 27.198377 L 153.635874 33.110594 L 153.391792 35.876861 L 156.158058 35.171734 L 156.185179 36.229424 L 158.707363 35.849741 L 159.032806 42.141642 L 155.941096 47.891137 L 154.096919 48.16234 L 154.124039 47.457213 L 149.676316 48.894587 L 151.601854 58.57652 L 153.283311 64.570098 L 153.907077 64.73282 L 154.28676 61.288547 L 155.480052 60.990224 L 160.090496 64.136174 L 163.372048 68.936461 L 166.897682 72.163772 L 163.616131 77.235261 L 163.805972 80.760895 L 164.538219 81.520262 L 162.043155 80.543933 L 160.036256 80.679534 L 159.927775 84.774694 L 161.663472 85.371339 L 163.426289 87.161277 L 164.945023 90.958113 L 167.196005 92.775171 L 167.819771 94.076944 L 166.219676 97.602578 L 168.226575 98.958591 L 169.202905 98.524667 L 169.74531 100.233243 L 166.789201 99.663718 L 165.839992 100.151882 L 166.056954 101.779098 L 167.602809 102.728307 L 166.70784 103.379193 L 167.006163 104.572485 L 164.239897 104.925048 L 166.789201 105.548814 L 168.552018 104.464004 L 171.453886 104.925048 L 171.535247 107.257391 L 173.325184 109.671094 L 171.83357 113.169608 L 168.606259 115.501951 L 168.524898 117.020685 L 166.843442 118.051255 L 165.62303 117.454609 L 165.026384 117.861413 L 164.61958 118.349578 L 165.270467 119.298787 L 164.022934 120.60056 L 164.267017 121.251446 L 163.100846 121.034484 L 163.344928 121.65825 L 162.422839 122.037934 L 165.812872 125.075403 L 166.62648 127.190784 L 166.382397 129.875689 L 165.433188 131.394424 L 163.480529 131.231703 L 163.995814 132.452114 L 163.507649 133.835248 L 166.70784 135.462463 L 167.006163 138.662654 L 165.107745 140.072908 L 163.100846 138.825376 L 162.639801 140.805155 L 165.975593 141.211959 L 166.246796 142.35101 L 164.104295 145.035916 L 162.178757 144.927435 L 163.317808 146.690252 L 164.755182 146.337689 L 165.460308 145.225758 L 170.396196 144.276549 L 171.616608 145.279998 L 172.701418 147.124176 L 172.782779 149.565 L 174.247273 149.917563 L 174.789679 150.893893 L 176.145692 150.215886 L 174.572716 153.497438 L 175.304963 154.74497 L 178.586515 155.667059 L 180.13237 155.287375 L 178.939079 158.406205 L 179.779807 160.304624 L 178.125471 160.92839 L 180.729016 165.864277 L 179.725566 166.325322 L 178.884838 168.820386 L 176.742337 171.234089 L 180.13237 174.488521 L 177.772907 177.390389 L 177.637306 178.339598 L 178.966199 178.448079 L 177.01354 179.858333 L 180.376453 183.790771 L 180.213731 186.936721 L 178.966199 187.91305 L 180.484934 190.9234 L 179.942528 191.791248 L 181.976548 194.09647 L 181.623985 194.774477 L 183.19696 197.594984 L 182.546073 199.005238 L 178.667876 201.147738 L 180.349332 202.096947 L 177.230502 204.998816 L 178.206832 205.45986 L 177.230502 206.51755 L 176.444015 206.056506 L 174.9524 207.982044 L 173.731988 207.54812 L 173.325184 208.795652 L 169.77243 209.717741 L 169.230025 211.480558 L 166.897682 209.771982 L 165.758631 210.721191 L 166.111195 211.751761 L 165.080625 213.324736 L 164.185656 212.050084 L 162.721162 213.324736 L 161.799073 213.107774 L 163.56189 217.85382 L 161.880434 221.650656 L 162.53132 223.359233 L 165.894233 223.413474 L 165.62303 228.105279 L 167.358727 228.864646 L 166.62648 230.356261 L 161.338029 229.162969 L 160.985465 230.166419 L 159.629452 229.379931 L 157.731034 233.502211 L 155.968217 232.580122 L 154.910526 234.207338 L 153.988437 232.769964 L 150.435683 232.661483 L 150.13736 236.919364 L 148.591505 236.919364 L 147.832138 235.48199 L 145.798118 237.082086 L 141.160553 236.729522 L 139.072293 237.597371 L 137.960363 236.51256 L 131.695582 236.810883 L 129.797164 236.132876 L 129.742923 234.39718 L 131.207417 232.037717 L 129.119157 230.925786 L 128.441151 228.783285 L 126.651213 227.074709 L 129.987006 223.169391 L 130.637892 220.674327 L 127.898745 218.667428 L 127.898745 216.362205 L 126.244409 215.629958 L 128.142828 213.270495 L 127.573302 211.372077 L 126.624093 211.480558 L 127.030897 209.148216 L 122.827256 206.219227 L 122.989978 204.673372 L 121.335642 203.832644 L 120.277952 204.076727 L 119.301622 206.924354 L 115.206463 208.009165 L 114.96238 208.958374 L 112.792759 208.849893 L 111.328265 213.948502 L 110.596018 214.111224 L 109.429847 212.72809 L 107.368707 213.243375 L 103.382028 212.212805 L 101.890414 212.646729 L 101.727692 215.629958 L 99.666552 216.497807 L 96.574843 211.616159 L 93.483133 212.836571 L 92.425442 211.182235 L 89.08965 211.182235 L 87.923479 214.81635 L 85.889459 215.928281 L 82.743509 214.409546 L 77.807621 213.568818 L 76.478728 212.239926 L 76.370247 213.975622 L 74.932873 215.223154 L 74.336228 214.707869 L 69.508821 214.951952 L 66.525592 216.79613 L 63.922047 216.985971 L 55.677487 216.063882 L 53.779069 217.094452 L 51.609448 217.230054 L 50.443277 218.531826 L 47.893972 219.128472 L 46.863402 218.667428 L 46.863402 219.616637 L 45.534509 219.887839 L 45.100585 221.623536 L 43.690331 221.840498 L 39.595172 217.582617 L 37.479791 217.175813 L 39.296849 213.595939 L 35.011848 212.863692 L 34.306721 214.165464 L 31.676055 209.473659 L 31.974378 208.171886 L 30.970929 205.378499 L 31.974378 203.588562 L 29.886118 203.859765 L 28.01482 201.635903 L 27.255453 202.476631 L 26.306243 202.286789 L 26.279123 199.086598 L 26.95713 198.950997 L 27.092731 197.649225 L 28.231782 197.269541 L 26.468965 192.442134 L 26.387604 190.299633 L 27.174092 190.191152 L 27.472415 189.323304 L 28.421624 189.377545 L 30.889568 190.97764 L 33.086309 187.397765 L 34.984727 188.645297 L 35.906816 187.424886 L 34.984727 182.922922 L 31.269251 181.865232 L 32.245581 179.993934 L 31.947258 178.854883 L 33.16767 178.692161 L 32.001499 177.797193 L 32.462543 175.383489 L 35.933937 173.837634 L 34.794886 172.427381 L 34.713525 169.959437 L 32.760866 170.556083 L 33.19479 172.210419 L 31.865897 172.40026 L 30.726846 167.410132 L 29.696276 167.627094 L 29.940359 162.772567 L 26.062161 164.07434 L 25.031591 166.216841 L 24.326464 166.243961 L 22.292445 164.779467 L 21.587318 162.908169 L 18.929532 162.420004 L 18.929532 160.819909 L 17.465038 160.711428 L 17.437918 161.280953 L 15.132695 159.192693 L 16.271746 159.328294 L 15.973424 158.650288 L 17.193835 158.189243 L 14.671651 155.612818 L 13.396999 154.636489 L 9.844244 154.582248 L 10.006966 150.405728 L 5.098198 147.449619 L 5.667724 144.357909 L 8.081427 140.26275 L 8.596712 136.438793 L 6.31861 136.601515 L 5.749085 134.07933 L 2.14209 131.99107 L 1.11152 128.601037 L 3.633704 128.085752 L 2.576014 125.889011 L 3.552344 123.854991 L 0.731836 121.739611 L 2.19633 120.085275 L 2.331932 118.159736 L 1.599685 117.48173 L 2.223451 116.532521 L 4.610034 115.990115 L 6.833895 110.701664 L 6.020287 107.989638 L 6.508452 106.036979 L 4.501553 105.196251 L 4.555793 102.674067 L 3.904907 101.99606 L 4.501553 98.714508 L 3.823546 97.385615 L 5.125319 95.351596 L 4.718515 93.968462 L 5.28804 92.612449 L 4.718515 92.124285 L 5.423642 90.876753 L 2.684495 88.435929 L 2.928578 86.890074 L 4.148989 86.401909 L 4.121869 85.371339 L 1.301362 79.106559 L 3.2269 78.21159 L 3.037059 75.689406 L 6.861016 75.391083 L 7.213579 74.360513 L 10.603612 74.252032 L 9.817124 72.516335 L 10.223928 70.183993 L 13.288518 68.095732 L 13.207157 62.997123 L 14.237727 62.454718 L 13.912284 61.397028 L 16.922633 56.054336 L 21.044913 52.094778 L 20.855071 50.928606 L 19.173615 50.033638 L 20.231305 48.948827 L 18.631209 43.768857 L 22.482287 42.955249 L 24.353585 40.107622 L 24.326464 37.124393 L 22.400926 36.229424 L 23.350135 27.578061 L 25.357034 27.52382 L 25.031591 29.774802 L 28.01482 31.754581 L 28.882668 33.327556 L 31.10653 33.327556 L 30.10308 30.154486 L 28.747067 30.154486 L 28.638586 24.567712 L 31.811657 24.079547 L 33.710075 21.801445 L 35.120329 22.262489 L 34.686404 20.119989 L 39.974856 24.621952 L 41.602071 24.838914 L 44.449699 18.357172 L 46.944763 18.004608 L 47.975333 17.13676 L 46.293877 13.231442 L 47.297326 9.624447 L 45.914193 8.566757 L 48.192295 6.993782 L 52.585777 8.593877 L 53.318025 9.94989 L 53.073942 13.0416 L 54.782519 12.716157 L 55.677487 11.170302 L 57.141981 11.197423 L 54.565557 15.265462 L 61.481223 14.397613 L 63.786446 12.851758 L 65.983187 13.0416 L 67.990086 9.814289 L 69.834264 9.515966 L 70.946195 7.644668 L 71.244518 5.122484 L 77.346577 1.000204 L 78.051704 1.705331 Z M 77.319456 8.024352 " stroke="#ffffff" stroke-width="1.19" stroke-opacity="1" stroke-miterlimit="4"/></g><g mask="url(#af36e495df)"><g transform="matrix(1, 0, 0, 1, 7, 13)"><g clip-path="url(#089192e756)"><g clip-path="url(#7717987b6d)"><path fill="#ff5757" d="M 0.992188 3.574219 L 0.992188 3.324219 L 2.3125 1.386719 L 0.980469 1.386719 L 0.980469 1.0625 L 2.777344 1.0625 L 2.777344 1.316406 L 1.457031 3.25 L 2.789062 3.25 L 2.789062 3.574219 Z M 3.160156 3.574219 L 3.160156 1.0625 L 3.539062 1.0625 L 3.539062 2.15625 L 4.792969 2.15625 L 4.792969 1.0625 L 5.175781 1.0625 L 5.175781 3.574219 L 4.792969 3.574219 L 4.792969 2.480469 L 3.539062 2.480469 L 3.539062 3.574219 Z M 5.429688 1.0625 L 5.859375 1.0625 L 6.515625 2.203125 L 6.542969 2.203125 L 7.199219 1.0625 L 7.632812 1.0625 L 6.71875 2.589844 L 6.71875 3.574219 L 6.339844 3.574219 L 6.339844 2.589844 Z M 7.921875 1.386719 L 7.921875 1.0625 L 9.867188 1.0625 L 9.867188 1.386719 L 9.082031 1.386719 L 9.082031 3.574219 L 8.703125 3.574219 L 8.703125 1.386719 Z M 12.269531 2.320312 C 12.269531 2.585938 12.21875 2.816406 12.121094 3.011719 C 12.023438 3.203125 11.886719 3.351562 11.714844 3.457031 C 11.546875 3.558594 11.351562 3.609375 11.136719 3.609375 C 10.917969 3.609375 10.722656 3.558594 10.554688 3.457031 C 10.382812 3.351562 10.25 3.203125 10.148438 3.011719 C 10.050781 2.816406 10.003906 2.585938 10.003906 2.320312 C 10.003906 2.050781 10.050781 1.820312 10.148438 1.628906 C 10.25 1.433594 10.382812 1.285156 10.554688 1.183594 C 10.722656 1.078125 10.917969 1.027344 11.136719 1.027344 C 11.351562 1.027344 11.546875 1.078125 11.714844 1.183594 C 11.886719 1.285156 12.023438 1.433594 12.121094 1.628906 C 12.21875 1.820312 12.269531 2.050781 12.269531 2.320312 Z M 11.890625 2.320312 C 11.890625 2.113281 11.859375 1.941406 11.792969 1.800781 C 11.726562 1.660156 11.636719 1.554688 11.523438 1.484375 C 11.410156 1.410156 11.28125 1.375 11.136719 1.375 C 10.992188 1.375 10.863281 1.410156 10.75 1.484375 C 10.632812 1.554688 10.542969 1.660156 10.476562 1.800781 C 10.414062 1.941406 10.378906 2.113281 10.378906 2.320312 C 10.378906 2.523438 10.414062 2.695312 10.476562 2.835938 C 10.542969 2.976562 10.632812 3.082031 10.75 3.15625 C 10.863281 3.226562 10.992188 3.265625 11.136719 3.265625 C 11.28125 3.265625 11.410156 3.226562 11.523438 3.15625 C 11.636719 3.082031 11.726562 2.976562 11.792969 2.835938 C 11.859375 2.695312 11.890625 2.523438 11.890625 2.320312 Z M 12.636719 1.0625 L 13.097656 1.0625 L 13.898438 3.015625 L 13.925781 3.015625 L 14.726562 1.0625 L 15.1875 1.0625 L 15.1875 3.574219 L 14.828125 3.574219 L 14.828125 1.757812 L 14.804688 1.757812 L 14.0625 3.574219 L 13.761719 3.574219 L 13.019531 1.753906 L 13 1.753906 L 13 3.574219 L 12.636719 3.574219 Z M 15.441406 1.0625 L 15.871094 1.0625 L 16.53125 2.203125 L 16.554688 2.203125 L 17.214844 1.0625 L 17.644531 1.0625 L 16.730469 2.589844 L 16.730469 3.574219 L 16.355469 3.574219 L 16.355469 2.589844 Z M 17.898438 3.574219 L 17.898438 1.0625 L 18.792969 1.0625 C 18.988281 1.0625 19.152344 1.09375 19.28125 1.164062 C 19.410156 1.230469 19.503906 1.324219 19.570312 1.441406 C 19.632812 1.558594 19.664062 1.695312 19.664062 1.851562 C 19.664062 2.003906 19.632812 2.140625 19.566406 2.257812 C 19.503906 2.371094 19.40625 2.464844 19.277344 2.527344 C 19.148438 2.59375 18.988281 2.625 18.792969 2.625 L 18.113281 2.625 L 18.113281 2.296875 L 18.757812 2.296875 C 18.882812 2.296875 18.980469 2.28125 19.058594 2.246094 C 19.136719 2.210938 19.191406 2.160156 19.230469 2.09375 C 19.265625 2.023438 19.285156 1.945312 19.285156 1.851562 C 19.285156 1.753906 19.265625 1.671875 19.226562 1.601562 C 19.191406 1.535156 19.136719 1.480469 19.058594 1.445312 C 18.980469 1.40625 18.878906 1.386719 18.753906 1.386719 L 18.277344 1.386719 L 18.277344 3.574219 Z M 19.140625 2.441406 L 19.761719 3.574219 L 19.328125 3.574219 L 18.71875 2.441406 Z M 19.140625 2.441406 " fill-opacity="1" fill-rule="nonzero"/></g></g></g></g><path fill="#ff5757" d="M 15.230469 26.800781 L 15.230469 26.679688 L 15.871094 25.738281 L 15.222656 25.738281 L 15.222656 25.582031 L 16.097656 25.582031 L 16.097656 25.703125 L 15.453125 26.644531 L 16.101562 26.644531 L 16.101562 26.800781 Z M 16.496094 26.257812 L 16.496094 26.800781 L 16.320312 26.800781 L 16.320312 25.582031 L 16.496094 25.582031 L 16.496094 26.035156 L 16.507812 26.035156 C 16.527344 25.984375 16.5625 25.945312 16.605469 25.917969 C 16.648438 25.886719 16.707031 25.875 16.777344 25.875 C 16.839844 25.875 16.894531 25.886719 16.941406 25.914062 C 16.992188 25.9375 17.027344 25.976562 17.054688 26.027344 C 17.078125 26.078125 17.09375 26.144531 17.09375 26.21875 L 17.09375 26.800781 L 16.914062 26.800781 L 16.914062 26.242188 C 16.914062 26.171875 16.894531 26.121094 16.863281 26.085938 C 16.828125 26.046875 16.777344 26.027344 16.71875 26.027344 C 16.675781 26.027344 16.636719 26.039062 16.605469 26.054688 C 16.570312 26.074219 16.546875 26.097656 16.527344 26.132812 C 16.507812 26.167969 16.496094 26.210938 16.496094 26.257812 Z M 17.410156 27.144531 C 17.382812 27.144531 17.359375 27.144531 17.335938 27.140625 C 17.316406 27.136719 17.300781 27.132812 17.289062 27.125 L 17.332031 26.980469 C 17.363281 26.988281 17.394531 26.992188 17.417969 26.992188 C 17.445312 26.992188 17.464844 26.980469 17.484375 26.964844 C 17.507812 26.945312 17.523438 26.914062 17.539062 26.875 L 17.5625 26.8125 L 17.226562 25.886719 L 17.417969 25.886719 L 17.648438 26.597656 L 17.65625 26.597656 L 17.890625 25.886719 L 18.082031 25.886719 L 17.703125 26.925781 C 17.6875 26.972656 17.664062 27.011719 17.636719 27.046875 C 17.609375 27.078125 17.578125 27.105469 17.539062 27.121094 C 17.503906 27.136719 17.460938 27.144531 17.410156 27.144531 Z M 18.675781 25.886719 L 18.675781 26.027344 L 18.175781 26.027344 L 18.175781 25.886719 Z M 18.3125 25.667969 L 18.488281 25.667969 L 18.488281 26.535156 C 18.488281 26.566406 18.496094 26.59375 18.503906 26.613281 C 18.515625 26.628906 18.527344 26.640625 18.542969 26.648438 C 18.5625 26.652344 18.578125 26.65625 18.597656 26.65625 C 18.613281 26.65625 18.625 26.65625 18.636719 26.652344 C 18.648438 26.652344 18.65625 26.648438 18.660156 26.648438 L 18.695312 26.796875 C 18.683594 26.800781 18.667969 26.804688 18.648438 26.808594 C 18.628906 26.8125 18.605469 26.8125 18.578125 26.8125 C 18.53125 26.816406 18.488281 26.808594 18.445312 26.789062 C 18.40625 26.773438 18.375 26.746094 18.347656 26.707031 C 18.324219 26.671875 18.3125 26.625 18.3125 26.570312 Z M 19.25 26.820312 C 19.164062 26.820312 19.089844 26.800781 19.027344 26.761719 C 18.960938 26.722656 18.910156 26.667969 18.875 26.597656 C 18.839844 26.527344 18.824219 26.441406 18.824219 26.347656 C 18.824219 26.253906 18.839844 26.171875 18.875 26.097656 C 18.910156 26.027344 18.960938 25.972656 19.027344 25.933594 C 19.089844 25.894531 19.164062 25.875 19.25 25.875 C 19.335938 25.875 19.410156 25.894531 19.476562 25.933594 C 19.539062 25.972656 19.589844 26.027344 19.625 26.097656 C 19.660156 26.171875 19.679688 26.253906 19.679688 26.347656 C 19.679688 26.441406 19.660156 26.527344 19.625 26.597656 C 19.589844 26.667969 19.539062 26.722656 19.476562 26.761719 C 19.410156 26.800781 19.335938 26.820312 19.25 26.820312 Z M 19.25 26.671875 C 19.308594 26.671875 19.351562 26.65625 19.390625 26.628906 C 19.425781 26.597656 19.453125 26.558594 19.472656 26.507812 C 19.488281 26.460938 19.496094 26.40625 19.496094 26.347656 C 19.496094 26.289062 19.488281 26.234375 19.472656 26.1875 C 19.453125 26.136719 19.425781 26.097656 19.390625 26.066406 C 19.351562 26.039062 19.308594 26.023438 19.25 26.023438 C 19.195312 26.023438 19.148438 26.039062 19.113281 26.066406 C 19.074219 26.097656 19.046875 26.136719 19.03125 26.1875 C 19.011719 26.234375 19.003906 26.289062 19.003906 26.347656 C 19.003906 26.40625 19.011719 26.460938 19.03125 26.507812 C 19.046875 26.558594 19.074219 26.597656 19.113281 26.628906 C 19.148438 26.65625 19.195312 26.671875 19.25 26.671875 Z M 19.875 26.800781 L 19.875 25.886719 L 20.046875 25.886719 L 20.046875 26.035156 L 20.058594 26.035156 C 20.078125 25.984375 20.109375 25.945312 20.152344 25.917969 C 20.195312 25.886719 20.25 25.875 20.308594 25.875 C 20.371094 25.875 20.421875 25.886719 20.460938 25.917969 C 20.503906 25.945312 20.535156 25.984375 20.554688 26.035156 L 20.566406 26.035156 C 20.585938 25.984375 20.621094 25.945312 20.667969 25.917969 C 20.71875 25.890625 20.773438 25.875 20.839844 25.875 C 20.921875 25.875 20.992188 25.898438 21.042969 25.953125 C 21.097656 26.003906 21.121094 26.082031 21.121094 26.1875 L 21.121094 26.800781 L 20.945312 26.800781 L 20.945312 26.203125 C 20.945312 26.140625 20.925781 26.097656 20.894531 26.070312 C 20.859375 26.042969 20.820312 26.027344 20.773438 26.027344 C 20.714844 26.027344 20.667969 26.046875 20.636719 26.082031 C 20.605469 26.117188 20.589844 26.164062 20.589844 26.21875 L 20.589844 26.800781 L 20.410156 26.800781 L 20.410156 26.191406 C 20.410156 26.144531 20.394531 26.101562 20.363281 26.074219 C 20.332031 26.042969 20.292969 26.027344 20.242188 26.027344 C 20.210938 26.027344 20.179688 26.035156 20.148438 26.054688 C 20.121094 26.070312 20.097656 26.097656 20.082031 26.128906 C 20.0625 26.160156 20.054688 26.195312 20.054688 26.238281 L 20.054688 26.800781 Z M 21.441406 27.144531 C 21.414062 27.144531 21.390625 27.144531 21.367188 27.140625 C 21.347656 27.136719 21.332031 27.132812 21.320312 27.125 L 21.363281 26.980469 C 21.394531 26.988281 21.425781 26.992188 21.449219 26.992188 C 21.476562 26.992188 21.5 26.980469 21.519531 26.964844 C 21.539062 26.945312 21.554688 26.914062 21.570312 26.875 L 21.59375 26.8125 L 21.257812 25.886719 L 21.449219 25.886719 L 21.679688 26.597656 L 21.691406 26.597656 L 21.921875 25.886719 L 22.113281 25.886719 L 21.734375 26.925781 C 21.71875 26.972656 21.695312 27.011719 21.667969 27.046875 C 21.640625 27.078125 21.609375 27.105469 21.570312 27.121094 C 21.535156 27.136719 21.492188 27.144531 21.441406 27.144531 Z M 22.28125 26.800781 L 22.28125 25.886719 L 22.453125 25.886719 L 22.453125 26.03125 L 22.464844 26.03125 C 22.480469 25.980469 22.507812 25.941406 22.550781 25.914062 C 22.59375 25.886719 22.640625 25.871094 22.695312 25.871094 C 22.707031 25.871094 22.71875 25.871094 22.734375 25.875 C 22.75 25.875 22.761719 25.875 22.769531 25.875 L 22.769531 26.046875 C 22.765625 26.046875 22.75 26.042969 22.734375 26.039062 C 22.714844 26.039062 22.695312 26.035156 22.679688 26.035156 C 22.636719 26.035156 22.597656 26.046875 22.566406 26.0625 C 22.53125 26.082031 22.507812 26.105469 22.488281 26.136719 C 22.46875 26.167969 22.460938 26.203125 22.460938 26.242188 L 22.460938 26.800781 Z M 22.28125 26.800781 " fill-opacity="1" fill-rule="nonzero"/></svg>