<svg xmlns="http://www.w3.org/2000/svg" xmlns:xlink="http://www.w3.org/1999/xlink" width="50" zoomAndPan="magnify" viewBox="0 0 37.5 37.499999" height="50" preserveAspectRatio="xMidYMid meet" version="1.0"><defs><filter x="0%" y="0%" width="100%" height="100%" id="1184f21140"><feColorMatrix values="0 0 0 0 1 0 0 0 0 1 0 0 0 0 1 0 0 0 1 0" color-interpolation-filters="sRGB"/></filter><clipPath id="70102bfff2"><path d="M 6.078125 2.15625 L 31 2.15625 L 31 34.71875 L 6.078125 34.71875 Z M 6.078125 2.15625 " clip-rule="nonzero"/></clipPath><mask id="2166c5daec"><g filter="url(#1184f21140)"><rect x="-3.75" width="45" fill="#000000" y="-3.75" height="44.999999" fill-opacity="0.08"/></g></mask><clipPath id="0e43ab8628"><path d="M 0.132812 0.632812 L 8.894531 0.632812 L 8.894531 3.238281 L 0.132812 3.238281 Z M 0.132812 0.632812 " clip-rule="nonzero"/></clipPath><clipPath id="c974c335b5"><rect x="0" width="9" y="0" height="4"/></clipPath></defs><g clip-path="url(#70102bfff2)"><path stroke-linecap="round" transform="matrix(0.125839, 0, 0, 0.125839, 6.002583, 2.116569)" fill-opacity="1" fill="#000000" fill-rule="nonzero" stroke-linejoin="round" d="M 65.259939 2.084705 L 66.501603 5.31303 L 65.539314 6.896152 L 67.867433 8.448231 L 70.071386 9.162188 L 70.474927 8.324065 L 71.188883 8.758647 L 72.989296 11.428224 L 72.647838 15.401548 L 73.920543 15.680922 L 74.168876 16.953627 L 76.869494 17.512376 L 77.645534 20.337161 L 80.656569 20.771743 L 81.401567 22.913613 L 81.122193 24.776108 L 85.188641 27.72506 L 84.7851 30.27047 L 83.264062 31.791508 L 83.946977 33.498796 L 81.339484 35.888998 L 82.612189 35.982123 L 83.978019 39.303573 L 83.512395 40.979819 L 83.915936 43.307939 L 86.802804 44.239186 L 86.306138 46.225848 L 87.206345 47.871053 L 90.403628 47.777928 L 91.645292 51.037295 L 93.073205 52.403125 L 92.731748 53.427497 L 95.494449 54.544995 L 95.463408 57.028322 L 94.749451 57.95957 L 95.866949 58.207903 L 96.922363 57.152488 L 98.350276 57.152488 L 100.523187 59.3254 L 102.665057 60.194564 L 103.410055 61.839769 L 104.651719 62.181226 L 106.700464 64.229971 L 106.172757 68.544753 L 108.190461 71.21433 L 108.500876 73.728698 L 107.166088 76.180984 L 103.068598 77.360565 L 99.064233 76.4914 L 97.729444 78.229729 L 93.787162 79.160977 L 92.141958 78.540145 L 91.428001 79.502434 L 88.448008 80.433682 L 86.088847 80.123266 L 82.860522 82.637635 L 83.388229 83.32055 L 84.443643 83.041176 L 84.909267 84.531172 L 86.244055 84.655339 L 86.275097 85.524503 L 88.820507 85.245129 L 89.969046 90.615324 L 92.141958 90.304908 L 92.452374 93.098652 L 93.849245 92.012196 L 95.246117 94.899064 L 95.432366 97.972182 L 98.070902 98.189473 L 99.033191 99.679469 L 98.846941 100.548634 L 97.543195 100.579675 L 97.760486 104.056334 L 96.177365 104.77029 L 94.594243 106.787994 L 95.12195 108.712572 L 94.501119 109.705903 L 92.917997 110.016319 L 93.414663 111.133816 L 92.638623 111.444232 L 93.197372 113.524019 L 94.842576 113.368811 L 96.270489 114.951932 L 97.667361 114.734641 L 97.45007 116.100471 L 98.598609 115.914222 L 100.802562 117.093802 L 101.112978 118.42859 L 99.281524 120.974001 L 97.108612 120.787751 L 97.574236 122.308789 L 97.139654 123.612536 L 96.580905 123.519412 L 96.239448 124.8542 L 94.314869 125.599198 L 95.12195 127.368569 L 93.694037 127.927318 L 93.476746 128.889607 L 99.188399 131.993766 L 100.740478 131.807517 L 104.558594 128.020442 L 108.190461 129.820855 L 108.997542 129.386272 L 111.853368 131.248768 L 113.653781 131.497101 L 114.336696 130.472728 L 115.702526 130.50377 L 118.527311 132.45939 L 120.141473 130.193354 L 124.394171 130.969394 L 124.983962 136.712088 L 128.398537 139.412706 L 129.329784 138.450417 L 132.496027 139.195415 L 133.427275 138.046876 L 134.886229 139.505831 L 136.469351 139.754164 L 136.717683 138.295209 L 138.642262 136.463755 L 139.666634 137.208753 L 141.249756 136.712088 L 142.149962 135.563549 L 144.074541 135.78084 L 144.44704 134.352927 L 147.054533 132.428348 L 149.13432 132.645639 L 151.152023 134.042511 L 151.462439 135.749799 L 153.014519 134.446052 L 153.728476 132.707723 L 157.391383 132.831889 L 159.28492 133.63897 L 157.91909 137.115629 L 158.322631 139.661039 L 157.546591 140.499162 L 158.539922 141.678743 L 158.788255 143.882696 L 160.930125 145.000193 L 160.123043 146.645397 L 161.147416 147.980186 L 160.930125 149.004558 L 159.65742 148.787267 L 159.160754 149.656432 L 160.278251 149.594349 L 162.047622 153.102048 L 163.785951 153.816005 L 166.455528 151.643094 L 167.945525 152.512258 L 168.131774 151.612052 L 170.335727 150.773929 L 170.39781 150.184139 L 173.408845 151.922468 L 175.395507 151.643094 L 176.171546 152.94684 L 177.537376 153.474548 L 177.785709 156.113083 L 176.078422 156.858081 L 175.147174 158.192869 L 171.453224 157.323705 L 173.781344 161.700569 L 172.074056 165.42556 L 172.477597 166.418891 L 174.929883 166.729307 L 174.991966 167.505347 L 176.544045 167.722638 L 177.22696 168.715969 L 177.444252 170.112841 L 175.86113 170.88888 L 177.040711 172.596168 L 175.985297 173.713665 L 177.537376 174.644913 L 178.561749 176.569492 L 178.282375 181.691354 L 180.951951 183.771141 L 182.783405 183.709058 L 183.559445 184.391973 L 182.379865 187.961756 L 182.690281 188.83092 L 181.138201 190.041543 L 181.355492 190.910707 L 182.162574 191.096957 L 181.541742 192.773203 L 182.193615 194.325282 L 183.994027 195.784237 L 183.46632 198.236523 L 181.665908 197.056942 L 177.071752 198.640063 L 176.82342 200.036935 L 179.027373 204.196508 L 176.730295 206.804002 L 179.399872 208.852747 L 179.896537 212.298364 L 182.752364 216.985644 L 188.867557 220.80376 L 189.395264 219.717304 L 190.512762 221.269384 L 190.450679 228.377908 L 192.530465 229.58853 L 191.878592 230.55082 L 193.523796 232.133941 L 196.13129 232.196024 L 195.727749 232.941022 L 197.403995 233.375605 L 197.031496 235.144975 L 195.976082 235.455391 L 195.665666 236.697055 L 194.392961 236.697055 L 193.39963 235.952057 L 193.679004 235.393308 L 191.133594 234.803518 L 189.674639 235.921015 L 185.670273 236.200389 L 186.942979 237.845594 L 186.19798 239.056216 L 184.770067 238.124968 L 184.087152 238.776842 L 181.5107 236.386639 L 180.206953 236.262473 L 179.027373 234.368935 L 177.692584 235.858932 L 175.799047 235.921015 L 175.923214 238.55955 L 172.260306 235.921015 L 169.901145 239.211424 L 172.229264 240.794545 L 170.335727 242.098292 L 167.728233 241.974125 L 167.107402 245.264534 L 165.741572 245.233493 L 165.400114 246.133699 L 162.730537 244.860993 L 162.326996 245.885366 L 159.378045 244.39537 L 156.677427 247.282238 L 153.666392 248.585984 L 153.759517 250.200147 L 151.741814 252.993891 L 150.810566 252.776599 L 150.717441 251.472853 L 149.227445 251.03827 L 148.979112 251.752227 L 148.513488 251.100353 L 145.843911 250.852021 L 146.619951 253.707847 L 144.415998 254.452845 L 137.742056 253.118057 L 136.934974 253.863055 L 134.544772 253.707847 L 134.265398 254.328679 L 130.167907 255.32201 L 130.664573 254.049305 L 129.547076 253.552639 L 127.187915 254.980552 L 127.187915 259.140126 L 125.666877 259.047001 L 125.946251 258.333044 L 125.325419 257.960545 L 124.301047 259.202209 L 123.649173 258.364086 L 122.190218 259.078042 L 119.210226 257.339713 L 118.030645 258.084712 L 116.106066 256.656798 L 114.957527 254.204513 L 115.454193 252.497225 L 114.398779 251.348686 L 117.068356 248.399735 L 117.93752 246.195782 L 116.416482 244.053912 L 115.019611 243.743496 L 114.864403 244.581619 L 114.057321 244.022871 L 113.529614 239.832256 L 109.121708 239.242465 L 106.452131 236.883304 L 105.551925 235.983098 L 106.296923 233.779145 L 104.061929 231.451026 L 104.651719 230.457695 L 95.525491 222.914588 L 94.71841 213.446903 L 92.669665 211.708574 L 91.396959 213.01232 L 89.317173 212.670863 L 85.530099 214.533358 L 85.405932 216.52002 L 84.040102 217.668559 L 83.046771 216.737311 L 84.319476 214.998982 L 81.46365 213.850443 L 78.763032 215.712939 L 79.042406 214.37815 L 73.641169 210.311702 L 70.909509 213.819402 L 69.17118 211.925865 L 67.867433 211.925865 L 63.397444 213.819402 L 63.70786 214.719608 L 65.601397 214.967941 L 66.191187 215.775022 L 65.787646 216.613145 L 62.031614 218.103141 L 59.610369 220.120845 L 58.182456 220.245011 L 56.537252 219.003348 L 46.231443 216.11648 L 43.841241 216.737311 L 42.785827 217.792726 L 41.109581 215.899188 L 39.867917 218.103141 L 39.464376 216.799395 L 38.377921 216.457937 L 36.391259 217.233977 L 36.329176 218.258349 L 35.335845 217.48231 L 34.746055 215.650856 L 32.231686 215.775022 L 32.014394 213.260653 L 28.134196 213.167528 L 27.854821 211.925865 L 26.706282 211.584407 L 25.123161 209.597745 L 22.515667 211.180866 L 22.236293 214.440234 L 21.056713 215.061065 L 18.914843 214.533358 L 17.642138 212.857112 L 13.668814 214.905857 L 12.6134 213.602111 L 10.130072 213.260653 L 8.826325 210.963575 L 12.302984 206.648794 L 12.520275 205.314006 L 14.041313 204.910465 L 12.706524 204.072342 L 13.97923 200.13006 L 13.637772 199.105687 L 15.903808 197.926107 L 16.1211 193.673409 L 15.15881 191.779872 L 20.560047 190.507166 L 22.360459 189.327586 L 21.863794 188.706754 L 20.591089 188.861962 L 20.094423 187.713423 L 18.790676 187.713423 L 16.245266 182.77781 L 17.30068 181.877604 L 16.400474 178.804486 L 18.449219 176.352201 L 17.393805 175.886577 L 18.169845 174.179289 L 17.517971 171.944295 L 18.387136 171.106172 L 20.125465 171.106172 L 19.380467 167.722638 L 19.659841 163.532023 L 16.866098 163.65619 L 15.996933 164.339105 L 15.251935 163.935564 L 13.699855 158.317036 L 10.875071 159.993282 L 10.844029 161.048696 L 8.32966 159.993282 L 9.478199 156.237249 L 11.278611 154.902461 L 9.633407 153.505589 L 10.347363 151.301636 L 8.081327 150.867054 L 7.988202 149.81164 L 2.400716 148.787267 L 2.121342 149.346016 L 1.283219 148.601018 L 4.666752 142.79624 L 2.524882 140.716453 L 4.139045 138.233126 L 3.549255 137.674377 L 4.573627 136.525838 L 7.212163 136.432714 L 8.174452 135.78084 L 7.584662 133.173347 L 10.192156 130.255437 L 9.50924 128.889607 L 10.564655 126.157947 L 8.205494 125.63024 L 9.50924 125.319824 L 8.577993 124.574826 L 10.067989 124.109202 L 10.937154 122.215665 L 9.912781 119.639213 L 7.926119 119.670254 L 8.081327 117.06276 L 6.653414 113.989643 L 8.702159 112.499646 L 9.354033 113.058395 L 7.988202 114.579433 L 9.69549 115.510681 L 9.664448 116.783386 L 11.464861 117.186927 L 13.234231 116.907552 L 13.079024 115.417556 L 12.023609 115.324431 L 11.526944 114.3311 L 13.234231 114.486308 L 13.637772 115.572764 L 14.631103 115.634847 L 14.941519 113.710269 L 13.668814 113.027354 L 14.817353 111.506316 L 13.451523 110.23361 L 13.97923 106.850077 L 14.910477 105.639455 L 14.600062 103.839042 L 15.127769 102.442171 L 15.965892 102.845711 L 19.039009 101.169466 L 18.511302 97.568641 L 17.393805 96.947809 L 16.462557 94.681773 L 16.71089 93.781567 L 20.03234 93.905733 L 21.149837 92.695111 L 18.914843 92.29157 L 16.338391 89.342619 L 16.152141 85.679711 L 14.444854 85.183046 L 15.531309 82.91701 L 14.941519 76.180984 L 12.675483 73.635574 L 11.775277 70.531414 L 10.968195 70.283082 L 11.557986 69.382876 L 12.520275 69.507042 L 14.041313 66.185592 L 15.686517 65.440593 L 15.127769 63.795389 L 14.320687 63.453932 L 13.948188 60.039357 L 17.828387 57.587071 L 17.89047 55.321035 L 21.056713 55.072702 L 20.932546 54.141454 L 22.857125 54.017288 L 23.664206 52.868749 L 25.899201 53.427497 L 26.333783 51.999584 L 27.668572 51.565002 L 28.692944 52.434167 L 30.462315 52.403125 L 32.107519 46.84668 L 29.251693 43.370022 L 27.04774 42.438774 L 27.916904 40.545237 L 30.710648 40.638362 L 33.10085 38.341284 L 34.125223 38.372325 L 35.801469 41.103986 L 38.781461 39.769197 L 41.047498 39.707114 L 41.078539 33.964419 L 40.457707 34.55421 L 38.067505 33.747128 L 36.701675 34.119627 L 37.105216 33.064213 L 36.484384 31.574217 L 34.746055 30.953385 L 34.932304 29.773805 L 29.717317 27.383602 L 28.755027 27.973392 L 29.810441 28.501099 L 28.351487 28.283808 L 28.723986 26.266105 L 29.500026 26.048814 L 27.916904 23.720694 L 27.699613 22.168615 L 29.127526 20.70966 L 27.916904 19.250705 L 30.36919 18.288416 L 31.672937 15.929255 L 31.083147 14.190926 L 32.014394 14.066759 L 32.759393 12.887179 L 32.666268 11.366141 L 33.566474 10.341768 L 32.914601 9.565728 L 34.032098 9.162188 L 33.193975 7.237609 L 34.901263 6.616777 L 35.894593 3.978242 L 37.260423 4.381783 L 36.732716 3.015953 L 38.036463 1.40179 L 38.688337 2.457204 L 42.102912 2.612412 L 42.568536 4.257616 L 41.916662 5.219906 L 40.581874 5.437197 L 39.650626 7.703233 L 45.176029 9.100105 L 45.672695 7.920524 L 44.306865 6.554694 L 46.914358 7.920524 L 48.652688 5.344072 L 52.40872 4.661157 L 53.929758 3.574701 L 54.178091 2.550329 L 56.444127 1.960538 L 57.592666 2.922828 L 61.845364 1.246582 Z M 65.259939 2.084705 " stroke="#ffffff" stroke-width="1.19" stroke-opacity="1" stroke-miterlimit="4"/></g><g mask="url(#2166c5daec)"><g transform="matrix(1, 0, 0, 1, 11, 24)"><g clip-path="url(#c974c335b5)"><g clip-path="url(#0e43ab8628)"><path fill="#ff5757" d="M 1.660156 1.394531 C 1.648438 1.292969 1.601562 1.214844 1.519531 1.15625 C 1.4375 1.101562 1.332031 1.074219 1.207031 1.074219 C 1.117188 1.074219 1.039062 1.085938 0.972656 1.117188 C 0.90625 1.144531 0.855469 1.183594 0.820312 1.230469 C 0.785156 1.28125 0.765625 1.335938 0.765625 1.398438 C 0.765625 1.449219 0.777344 1.496094 0.800781 1.53125 C 0.828125 1.570312 0.859375 1.601562 0.898438 1.628906 C 0.941406 1.652344 0.984375 1.675781 1.03125 1.691406 C 1.078125 1.707031 1.121094 1.722656 1.164062 1.734375 L 1.378906 1.789062 C 1.449219 1.804688 1.519531 1.828125 1.59375 1.859375 C 1.667969 1.886719 1.738281 1.925781 1.800781 1.972656 C 1.863281 2.023438 1.914062 2.082031 1.953125 2.152344 C 1.992188 2.222656 2.011719 2.308594 2.011719 2.40625 C 2.011719 2.53125 1.980469 2.640625 1.914062 2.738281 C 1.851562 2.835938 1.757812 2.910156 1.636719 2.964844 C 1.515625 3.023438 1.371094 3.050781 1.199219 3.050781 C 1.035156 3.050781 0.890625 3.023438 0.769531 2.972656 C 0.652344 2.917969 0.558594 2.84375 0.488281 2.75 C 0.421875 2.652344 0.382812 2.539062 0.375 2.40625 L 0.710938 2.40625 C 0.714844 2.484375 0.742188 2.550781 0.785156 2.605469 C 0.832031 2.65625 0.890625 2.695312 0.960938 2.722656 C 1.03125 2.746094 1.109375 2.757812 1.195312 2.757812 C 1.289062 2.757812 1.371094 2.746094 1.445312 2.714844 C 1.519531 2.683594 1.578125 2.644531 1.621094 2.589844 C 1.660156 2.535156 1.683594 2.472656 1.683594 2.402344 C 1.683594 2.335938 1.664062 2.285156 1.628906 2.242188 C 1.589844 2.203125 1.539062 2.167969 1.476562 2.140625 C 1.414062 2.113281 1.34375 2.089844 1.265625 2.066406 L 1.007812 1.996094 C 0.832031 1.949219 0.691406 1.878906 0.589844 1.785156 C 0.488281 1.691406 0.4375 1.570312 0.4375 1.417969 C 0.4375 1.289062 0.46875 1.179688 0.539062 1.085938 C 0.605469 0.992188 0.699219 0.917969 0.816406 0.867188 C 0.933594 0.8125 1.066406 0.785156 1.214844 0.785156 C 1.363281 0.785156 1.492188 0.8125 1.609375 0.863281 C 1.722656 0.917969 1.8125 0.988281 1.878906 1.082031 C 1.945312 1.171875 1.976562 1.277344 1.980469 1.394531 Z M 3.730469 0.816406 L 4.0625 0.816406 L 4.0625 2.261719 C 4.0625 2.414062 4.023438 2.550781 3.953125 2.671875 C 3.882812 2.789062 3.78125 2.878906 3.648438 2.949219 C 3.519531 3.015625 3.363281 3.050781 3.1875 3.050781 C 3.011719 3.050781 2.859375 3.015625 2.730469 2.949219 C 2.597656 2.878906 2.496094 2.789062 2.425781 2.671875 C 2.351562 2.550781 2.316406 2.414062 2.316406 2.261719 L 2.316406 0.816406 L 2.648438 0.816406 L 2.648438 2.234375 C 2.648438 2.332031 2.667969 2.421875 2.714844 2.5 C 2.757812 2.578125 2.820312 2.636719 2.902344 2.683594 C 2.980469 2.726562 3.078125 2.746094 3.1875 2.746094 C 3.300781 2.746094 3.394531 2.726562 3.476562 2.683594 C 3.558594 2.636719 3.621094 2.578125 3.664062 2.5 C 3.707031 2.421875 3.730469 2.332031 3.730469 2.234375 Z M 4.453125 0.816406 L 4.855469 0.816406 L 5.554688 2.523438 L 5.578125 2.523438 L 6.277344 0.816406 L 6.679688 0.816406 L 6.679688 3.011719 L 6.367188 3.011719 L 6.367188 1.421875 L 6.34375 1.421875 L 5.699219 3.011719 L 5.4375 3.011719 L 4.789062 1.421875 L 4.769531 1.421875 L 4.769531 3.011719 L 4.453125 3.011719 Z M 6.902344 0.816406 L 7.28125 0.816406 L 7.851562 1.816406 L 7.875 1.816406 L 8.449219 0.816406 L 8.828125 0.816406 L 8.03125 2.152344 L 8.03125 3.011719 L 7.699219 3.011719 L 7.699219 2.152344 Z M 6.902344 0.816406 " fill-opacity="1" fill-rule="nonzero"/></g></g></g></g><path fill="#ff5757" d="M 20.101562 22.953125 C 20.09375 22.90625 20.074219 22.867188 20.03125 22.839844 C 19.992188 22.8125 19.941406 22.796875 19.878906 22.796875 C 19.835938 22.796875 19.796875 22.804688 19.765625 22.820312 C 19.734375 22.832031 19.710938 22.851562 19.691406 22.875 C 19.675781 22.898438 19.664062 22.925781 19.664062 22.957031 C 19.664062 22.980469 19.671875 23.003906 19.683594 23.023438 C 19.695312 23.039062 19.710938 23.054688 19.730469 23.066406 C 19.75 23.082031 19.773438 23.089844 19.792969 23.097656 C 19.816406 23.105469 19.839844 23.113281 19.859375 23.117188 L 19.964844 23.144531 C 20 23.152344 20.03125 23.164062 20.070312 23.179688 C 20.105469 23.195312 20.136719 23.210938 20.167969 23.234375 C 20.199219 23.257812 20.222656 23.289062 20.242188 23.324219 C 20.261719 23.355469 20.269531 23.398438 20.269531 23.445312 C 20.269531 23.507812 20.253906 23.558594 20.222656 23.605469 C 20.195312 23.652344 20.148438 23.691406 20.089844 23.71875 C 20.03125 23.746094 19.960938 23.757812 19.875 23.757812 C 19.796875 23.757812 19.726562 23.746094 19.667969 23.722656 C 19.609375 23.695312 19.566406 23.660156 19.53125 23.613281 C 19.5 23.566406 19.480469 23.511719 19.476562 23.445312 L 19.636719 23.445312 C 19.640625 23.484375 19.652344 23.515625 19.675781 23.542969 C 19.699219 23.566406 19.726562 23.585938 19.761719 23.597656 C 19.796875 23.613281 19.832031 23.617188 19.875 23.617188 C 19.921875 23.617188 19.960938 23.609375 19.996094 23.597656 C 20.03125 23.582031 20.058594 23.5625 20.082031 23.535156 C 20.101562 23.507812 20.113281 23.480469 20.113281 23.445312 C 20.113281 23.414062 20.101562 23.386719 20.085938 23.367188 C 20.066406 23.347656 20.042969 23.332031 20.011719 23.316406 C 19.980469 23.304688 19.949219 23.292969 19.910156 23.28125 L 19.785156 23.246094 C 19.699219 23.222656 19.628906 23.191406 19.578125 23.144531 C 19.53125 23.101562 19.503906 23.039062 19.503906 22.964844 C 19.503906 22.902344 19.523438 22.851562 19.554688 22.804688 C 19.589844 22.757812 19.632812 22.722656 19.691406 22.699219 C 19.746094 22.671875 19.8125 22.660156 19.882812 22.660156 C 19.957031 22.660156 20.019531 22.671875 20.074219 22.695312 C 20.128906 22.722656 20.175781 22.757812 20.207031 22.800781 C 20.238281 22.847656 20.253906 22.898438 20.257812 22.953125 Z M 20.957031 23.410156 L 20.957031 22.941406 L 21.113281 22.941406 L 21.113281 23.742188 L 20.960938 23.742188 L 20.960938 23.601562 L 20.953125 23.601562 C 20.933594 23.644531 20.90625 23.679688 20.863281 23.710938 C 20.824219 23.738281 20.773438 23.75 20.714844 23.75 C 20.664062 23.75 20.617188 23.742188 20.578125 23.71875 C 20.539062 23.695312 20.507812 23.660156 20.484375 23.617188 C 20.460938 23.570312 20.453125 23.515625 20.453125 23.449219 L 20.453125 22.941406 L 20.605469 22.941406 L 20.605469 23.429688 C 20.605469 23.484375 20.621094 23.527344 20.652344 23.5625 C 20.683594 23.59375 20.722656 23.609375 20.769531 23.609375 C 20.800781 23.609375 20.828125 23.601562 20.855469 23.589844 C 20.886719 23.574219 20.910156 23.550781 20.929688 23.523438 C 20.949219 23.492188 20.957031 23.453125 20.957031 23.410156 Z M 21.324219 23.742188 L 21.324219 22.941406 L 21.472656 22.941406 L 21.472656 23.070312 L 21.484375 23.070312 C 21.5 23.027344 21.527344 22.992188 21.566406 22.96875 C 21.605469 22.941406 21.648438 22.929688 21.703125 22.929688 C 21.753906 22.929688 21.800781 22.941406 21.835938 22.96875 C 21.871094 22.992188 21.898438 23.027344 21.917969 23.070312 L 21.925781 23.070312 C 21.945312 23.027344 21.976562 22.992188 22.015625 22.96875 C 22.058594 22.941406 22.109375 22.929688 22.164062 22.929688 C 22.238281 22.929688 22.296875 22.953125 22.34375 23 C 22.390625 23.042969 22.414062 23.113281 22.414062 23.203125 L 22.414062 23.742188 L 22.257812 23.742188 L 22.257812 23.21875 C 22.257812 23.164062 22.242188 23.125 22.210938 23.101562 C 22.183594 23.078125 22.148438 23.066406 22.105469 23.066406 C 22.054688 23.066406 22.015625 23.082031 21.988281 23.113281 C 21.960938 23.140625 21.945312 23.183594 21.945312 23.230469 L 21.945312 23.742188 L 21.789062 23.742188 L 21.789062 23.210938 C 21.789062 23.164062 21.777344 23.128906 21.75 23.105469 C 21.722656 23.078125 21.6875 23.066406 21.644531 23.066406 C 21.613281 23.066406 21.585938 23.074219 21.5625 23.089844 C 21.539062 23.101562 21.519531 23.125 21.503906 23.152344 C 21.488281 23.179688 21.480469 23.210938 21.480469 23.246094 L 21.480469 23.742188 Z M 22.691406 24.042969 C 22.667969 24.042969 22.648438 24.039062 22.628906 24.035156 C 22.609375 24.03125 22.59375 24.027344 22.585938 24.023438 L 22.621094 23.898438 C 22.652344 23.902344 22.675781 23.90625 22.699219 23.90625 C 22.722656 23.90625 22.742188 23.898438 22.757812 23.882812 C 22.773438 23.867188 22.789062 23.839844 22.804688 23.804688 L 22.824219 23.75 L 22.53125 22.941406 L 22.695312 22.941406 L 22.898438 23.5625 L 22.90625 23.5625 L 23.109375 22.941406 L 23.277344 22.941406 L 22.949219 23.847656 C 22.933594 23.890625 22.914062 23.925781 22.890625 23.953125 C 22.867188 23.984375 22.839844 24.003906 22.804688 24.019531 C 22.773438 24.035156 22.734375 24.042969 22.691406 24.042969 Z M 22.691406 24.042969 " fill-opacity="1" fill-rule="nonzero"/></svg>