<svg xmlns="http://www.w3.org/2000/svg" xmlns:xlink="http://www.w3.org/1999/xlink" width="50" zoomAndPan="magnify" viewBox="0 0 37.5 37.499999" height="50" preserveAspectRatio="xMidYMid meet" version="1.0"><defs><filter x="0%" y="0%" width="100%" height="100%" id="54e6ec0cc7"><feColorMatrix values="0 0 0 0 1 0 0 0 0 1 0 0 0 0 1 0 0 0 1 0" color-interpolation-filters="sRGB"/></filter><clipPath id="6f582c92b8"><path d="M 5.183594 3.019531 L 31.828125 3.019531 L 31.828125 34 L 5.183594 34 Z M 5.183594 3.019531 " clip-rule="nonzero"/></clipPath><mask id="4c8e64e53d"><g filter="url(#54e6ec0cc7)"><rect x="-3.75" width="45" fill="#000000" y="-3.75" height="44.999999" fill-opacity="0.08"/></g></mask><clipPath id="910597da49"><path d="M 0.34375 0.316406 L 9.578125 0.316406 L 9.578125 3 L 0.34375 3 Z M 0.34375 0.316406 " clip-rule="nonzero"/></clipPath><clipPath id="9d803e2e5c"><rect x="0" width="10" y="0" height="4"/></clipPath></defs><g clip-path="url(#6f582c92b8)"><path stroke-linecap="round" transform="matrix(0.139326, 0, 0, 0.139326, 5.206911, 2.979189)" fill-opacity="1" fill="#000000" fill-rule="nonzero" stroke-linejoin="round" d="M 53.999534 3.990395 L 61.513367 5.083826 L 65.214211 3.121258 L 66.868376 3.009111 L 69.475788 3.822175 L 69.784192 5.027753 L 72.896264 5.532413 L 76.260667 9.429513 L 77.382135 9.233256 L 77.522319 10.775275 L 79.008263 10.466871 L 79.821327 11.139752 L 82.064263 9.990247 L 86.998721 10.354724 L 88.120188 11.307972 L 92.465876 11.027605 L 94.456481 9.62577 L 94.652738 14.307898 L 96.419049 14.055568 L 97.933031 16.382613 L 99.755416 16.859237 L 99.979709 18.429292 L 105.110424 18.625548 L 105.979561 16.8312 L 108.390717 16.018136 L 108.643047 15.008815 L 110.241139 15.653659 L 115.708294 15.485439 L 116.997981 16.91531 L 119.997907 18.008741 L 120.614715 18.961989 L 120.194164 21.036704 L 122.68943 22.242282 L 123.138017 23.363749 L 126.951007 22.326392 L 129.250016 24.28896 L 131.885465 24.429144 L 134.100364 25.859015 L 137.408693 22.017988 L 152.408324 21.429218 L 152.912984 34.045729 L 155.856837 33.709289 L 157.567075 35.167197 L 155.520397 38.896077 L 155.436287 41.082939 L 162.389386 40.774535 L 163.819258 39.428774 L 166.034156 40.578278 L 168.501385 40.886682 L 168.585495 39.933435 L 170.379844 39.008224 L 171.192908 40.494168 L 172.538669 39.568958 L 172.959219 40.213801 L 172.258302 41.83993 L 174.05265 42.877287 L 175.706815 40.550242 L 174.641421 40.606315 L 174.389091 38.054976 L 175.061971 37.241912 L 176.463806 38.840004 L 177.389017 37.241912 L 182.463658 40.858645 L 184.258006 39.596994 L 186.753272 40.073618 L 187.538299 40.914719 L 189.725161 40.970792 L 190.145712 42.624957 L 189.500868 45.540773 L 186.585052 48.344442 L 186.416832 50.587378 L 185.491621 51.007928 L 185.940208 53.138717 L 184.510337 52.662093 L 182.631878 54.961102 L 179.463732 55.437725 L 179.575879 61.045064 L 180.92164 61.045064 L 181.930961 64.185173 L 179.716062 64.21321 L 178.846925 62.615119 L 175.846999 60.65255 L 176.183439 58.381578 L 174.164797 58.465688 L 173.21155 67.100989 L 175.146081 67.998164 L 175.174118 70.99809 L 173.29566 73.829796 L 169.454633 74.64286 L 171.052724 79.829648 L 169.98733 80.895042 L 171.697568 81.820253 L 171.865788 82.969757 L 167.744395 86.950968 L 164.744468 92.277939 L 165.052872 93.343333 L 164.015514 93.876031 L 164.099625 98.978709 L 161.043625 101.053424 L 160.623075 103.408506 L 161.408102 105.146781 L 158.043699 105.230891 L 157.679222 106.268249 L 153.866232 106.548616 L 154.034452 109.071918 L 152.127957 109.997129 L 154.931626 116.221274 L 154.9877 117.258632 L 153.754085 117.763292 L 153.501755 119.305311 L 156.249351 121.744503 L 155.548433 123.006154 L 156.109167 123.482778 L 155.548433 124.828539 L 155.940947 126.230374 L 154.651259 128.277052 L 155.32414 129.56674 L 154.735369 132.87507 L 155.380213 133.54795 L 155.32414 136.071253 L 157.314745 136.912353 L 156.838121 138.846885 L 157.679222 141.594481 L 155.40825 146.865379 L 153.053168 147.398076 L 152.408324 148.351324 L 153.165315 149.052241 L 153.025131 150.958736 L 151.539186 152.612901 L 154.370892 154.715653 L 153.417645 156.762332 L 154.455002 158.949194 L 151.9317 159.481891 L 147.361719 159.706184 L 147.361719 156.678221 L 146.296325 155.977304 L 143.184252 157.911836 L 142.987995 160.575322 L 139.259115 159.762258 L 138.614271 162.005193 L 137.128327 162.622 L 136.623666 163.827578 L 133.091043 162.902367 L 130.848107 161.360349 L 127.595851 165.453706 L 126.137943 163.911688 L 125.437026 164.135982 L 124.932365 166.09855 L 122.493173 166.154623 L 121.904403 167.584495 L 121.259559 167.612531 L 120.979192 169.74332 L 122.94176 169.15455 L 122.68943 170.023687 L 119.437174 170.752641 L 119.745577 168.733999 L 119.016623 168.958293 L 118.427853 171.145155 L 119.12877 172.659136 L 117.698899 172.434843 L 117.306385 175.827282 L 116.016697 175.462805 L 115.14756 178.883282 L 113.633578 178.602915 L 112.736404 181.658914 L 109.428074 181.294437 L 108.36268 184.434547 L 105.951525 185.499941 L 106.316002 186.901776 L 105.306681 186.929812 L 105.362754 187.96717 L 104.04503 187.686803 L 103.764663 189.144711 L 102.671232 190.013849 L 103.119819 190.967096 L 101.577801 191.051206 L 101.661911 192.593224 L 102.474975 193.013775 L 94.708811 192.817518 L 93.587343 194.247389 L 92.185509 194.359536 L 89.55006 196.714618 L 88.176262 198.368783 L 88.064115 200.359388 L 86.886574 202.181773 L 82.84929 202.994837 L 82.064263 202.237846 L 79.148447 200.247241 L 80.017584 198.172526 L 79.54096 196.546398 L 81.811933 196.686581 L 82.148373 192.649298 L 80.157768 192.873591 L 77.942869 196.798728 L 70.709402 193.742729 L 67.036596 196.686581 L 66.559972 195.67726 L 64.289 194.892233 L 63.307716 193.658619 L 61.261037 193.686655 L 57.42001 197.892159 L 56.018176 201.116379 L 53.4388 202.1257 L 51.644452 201.705149 L 49.429553 202.434103 L 46.766067 201.536929 L 46.345517 203.022874 L 43.766141 202.54625 L 39.616711 205.462066 L 35.915867 202.9668 L 34.345812 205.77047 L 30.504786 205.097589 L 30.560859 204.144342 L 28.682401 203.920048 L 26.663759 205.630286 L 26.803942 208.181625 L 27.280566 209.24702 L 29.299208 209.639533 L 29.579575 210.985294 L 27.000199 211.826395 L 27.252529 213.172156 L 25.934805 214.349698 L 25.430144 216.452449 L 20.663907 217.265514 L 19.570476 221.891568 L 16.935026 219.816853 L 8.692239 207.957332 L 9.084753 203.807901 L 10.066037 202.349993 L 6.785744 199.994911 L 6.617524 198.116453 L 7.570771 197.527682 L 7.234331 196.350141 L 8.243652 194.864196 L 9.281009 194.864196 L 9.393156 191.219426 L 6.589487 189.901702 L 3.589561 190.798876 L 2.66435 190.378326 L 1.879323 188.948454 L 2.49613 187.71484 L 3.785818 187.770913 L 3.729744 186.845702 L 6.533414 185.527978 L 5.299799 183.81774 L 4.879249 181.154254 L 6.617524 180.060823 L 7.430588 182.163575 L 8.776349 181.911245 L 9.645486 179.976713 L 8.608129 178.210401 L 6.869854 178.182364 L 6.701634 175.631025 L 5.916606 174.313301 L 4.458698 174.705815 L 5.327836 171.874109 L 0.813928 169.266696 L 5.411946 169.99565 L 6.084827 165.958367 L 5.552129 164.724752 L 3.421341 163.042551 L 3.561524 160.827652 L 8.271689 160.743542 L 8.692239 161.640716 L 11.748238 162.03323 L 12.477192 162.79022 L 15.897669 162.425743 L 16.90699 159.958514 L 17.888274 159.201524 L 17.32754 157.238955 L 15.813559 157.911836 L 16.402329 155.612827 L 15.084605 151.827874 L 16.710733 151.85591 L 17.944347 153.369892 L 19.738696 153.538112 L 20.047099 154.239029 L 23.383466 153.902589 L 21.028384 151.547507 L 20.80409 150.257819 L 20.019063 150.426039 L 20.748017 149.304571 L 21.701264 149.472792 L 22.738622 147.79059 L 22.065741 145.435508 L 23.551686 147.510223 L 27.981483 148.379361 L 27.729153 147.482186 L 31.373923 145.799985 L 36.672858 143.865453 L 37.598069 144.39815 L 37.345738 142.239325 L 39.869041 142.351472 L 44.130618 141.089821 L 44.186691 143.416866 L 46.457664 145.884095 L 45.420306 147.117709 L 47.663241 147.37004 L 50.102434 146.556976 L 51.476231 147.510223 L 53.550947 152.248424 L 54.420084 152.584864 L 55.092965 151.7718 L 53.747204 149.977452 L 56.99946 145.071031 L 57.532157 142.856132 L 57.055533 139.015105 L 58.148964 136.323583 L 58.177001 132.847033 L 59.747056 129.090116 L 67.76555 130.351767 L 69.027201 127.884538 L 68.971127 126.791107 L 67.148742 125.136943 L 65.690834 124.940686 L 66.475862 117.090412 L 63.672193 114.81944 L 66.083348 113.866192 L 71.99909 113.277422 L 72.279457 109.969092 L 73.793439 109.408358 L 72.559824 103.96924 L 67.513219 100.604837 L 64.54133 100.969314 L 61.877844 100.212323 L 62.410541 98.025461 L 61.457294 96.399333 L 63.167532 95.586269 L 65.606724 95.922709 L 65.634761 94.016214 L 66.644082 94.128361 L 66.924449 95.053572 L 69.980448 93.70781 L 70.008485 92.502233 L 71.270136 92.474196 L 70.709402 89.22194 L 66.251568 84.315519 L 62.326431 83.418344 L 62.242321 81.483813 L 61.345147 80.306272 L 61.793734 78.848364 L 59.971349 77.362419 L 58.681661 77.278309 L 58.120928 74.839117 L 55.625662 73.661575 L 53.915424 71.811154 L 54.083644 68.586934 L 53.550947 68.138347 L 55.036891 67.493503 L 54.167754 65.895412 L 52.289296 67.325283 L 51.111754 66.876696 L 50.438874 67.35332 L 48.784709 66.456146 L 49.065076 64.353394 L 46.709994 64.38143 L 45.868893 65.727192 L 46.597847 66.736512 L 45.420306 66.343999 L 44.663315 67.129026 L 44.803499 65.306641 L 44.130618 65.362715 L 43.653994 63.848733 L 40.513885 61.493651 L 40.541921 55.073248 L 38.94383 55.157359 L 39.224197 53.783561 L 37.626105 53.755524 L 37.962546 52.297616 L 34.261702 52.718166 L 34.009372 51.512589 L 37.177518 50.307011 L 37.149482 49.269653 L 35.21495 48.372479 L 35.999977 46.494021 L 37.261628 45.877213 L 37.766289 43.297838 L 36.252307 40.802572 L 34.850473 40.970792 L 34.233666 38.69982 L 32.691648 39.653068 L 32.691648 37.858719 L 35.355133 37.634426 L 35.102803 38.419453 L 35.88783 38.61571 L 36.728931 36.316701 L 37.962546 36.709215 L 40.569958 32.223344 L 41.298912 28.915014 L 42.392343 27.821583 L 42.224123 26.503859 L 43.597921 23.644116 L 42.868967 21.765658 L 41.971793 22.550685 L 41.270875 22.214245 L 41.999829 20.447933 L 39.897078 18.148925 L 40.401738 16.382613 L 41.383022 15.709732 L 40.401738 13.074283 L 42.111976 10.130431 L 44.242765 8.840743 L 45.139939 7.382835 L 42.644673 6.485661 L 39.812967 6.625844 L 37.345738 4.971679 L 36.925188 3.878248 L 45.364233 4.831496 L 49.037039 3.878248 L 50.522984 4.186652 L 49.569736 1.214762 L 50.466911 0.934396 L 53.60702 1.775496 L 53.326653 3.401624 Z M 53.999534 3.990395 " stroke="#ffffff" stroke-width="1.19" stroke-opacity="1" stroke-miterlimit="4"/></g><path fill="#ff5757" d="M 10.539062 26.769531 L 10.539062 25.589844 L 10.960938 25.589844 C 11.050781 25.589844 11.128906 25.605469 11.1875 25.636719 C 11.25 25.667969 11.292969 25.710938 11.324219 25.765625 C 11.355469 25.824219 11.371094 25.886719 11.371094 25.960938 C 11.371094 26.03125 11.355469 26.09375 11.324219 26.148438 C 11.292969 26.203125 11.25 26.246094 11.1875 26.277344 C 11.128906 26.308594 11.050781 26.324219 10.960938 26.324219 L 10.640625 26.324219 L 10.640625 26.167969 L 10.945312 26.167969 C 11 26.167969 11.046875 26.160156 11.085938 26.144531 C 11.121094 26.128906 11.148438 26.105469 11.164062 26.074219 C 11.179688 26.042969 11.191406 26.003906 11.191406 25.960938 C 11.191406 25.914062 11.179688 25.875 11.164062 25.84375 C 11.148438 25.808594 11.121094 25.785156 11.082031 25.769531 C 11.046875 25.75 11 25.742188 10.941406 25.742188 L 10.71875 25.742188 L 10.71875 26.769531 Z M 11.121094 26.238281 L 11.414062 26.769531 L 11.210938 26.769531 L 10.925781 26.238281 Z M 11.574219 26.769531 L 11.574219 25.882812 L 11.746094 25.882812 L 11.746094 26.769531 Z M 11.660156 25.746094 C 11.628906 25.746094 11.605469 25.738281 11.582031 25.71875 C 11.5625 25.695312 11.550781 25.671875 11.550781 25.644531 C 11.550781 25.617188 11.5625 25.59375 11.582031 25.570312 C 11.605469 25.550781 11.628906 25.542969 11.660156 25.542969 C 11.691406 25.542969 11.714844 25.550781 11.738281 25.570312 C 11.757812 25.59375 11.769531 25.617188 11.769531 25.644531 C 11.769531 25.671875 11.757812 25.695312 11.738281 25.71875 C 11.714844 25.738281 11.691406 25.746094 11.660156 25.746094 Z M 12.734375 25.882812 L 12.414062 26.769531 L 12.230469 26.769531 L 11.90625 25.882812 L 12.09375 25.882812 L 12.316406 26.566406 L 12.328125 26.566406 L 12.550781 25.882812 Z M 13.070312 26.246094 L 13.070312 26.769531 L 12.898438 26.769531 L 12.898438 25.882812 L 13.0625 25.882812 L 13.0625 26.027344 L 13.074219 26.027344 C 13.09375 25.980469 13.128906 25.945312 13.171875 25.914062 C 13.214844 25.886719 13.269531 25.871094 13.335938 25.871094 C 13.398438 25.871094 13.449219 25.886719 13.496094 25.910156 C 13.539062 25.9375 13.574219 25.972656 13.601562 26.023438 C 13.625 26.070312 13.636719 26.132812 13.636719 26.207031 L 13.636719 26.769531 L 13.464844 26.769531 L 13.464844 26.226562 C 13.464844 26.164062 13.449219 26.113281 13.414062 26.078125 C 13.382812 26.039062 13.335938 26.023438 13.277344 26.023438 C 13.238281 26.023438 13.203125 26.03125 13.171875 26.046875 C 13.140625 26.066406 13.113281 26.089844 13.097656 26.125 C 13.078125 26.15625 13.070312 26.199219 13.070312 26.246094 Z M 14.25 26.789062 C 14.164062 26.789062 14.089844 26.769531 14.027344 26.734375 C 13.964844 26.695312 13.914062 26.640625 13.878906 26.574219 C 13.847656 26.503906 13.828125 26.425781 13.828125 26.332031 C 13.828125 26.242188 13.847656 26.164062 13.878906 26.09375 C 13.914062 26.023438 13.960938 25.96875 14.023438 25.929688 C 14.085938 25.890625 14.15625 25.871094 14.238281 25.871094 C 14.289062 25.871094 14.339844 25.878906 14.386719 25.898438 C 14.433594 25.914062 14.472656 25.941406 14.511719 25.976562 C 14.546875 26.011719 14.578125 26.058594 14.597656 26.113281 C 14.621094 26.167969 14.632812 26.238281 14.632812 26.316406 L 14.632812 26.378906 L 13.925781 26.378906 L 13.925781 26.25 L 14.460938 26.25 C 14.460938 26.203125 14.453125 26.164062 14.433594 26.128906 C 14.417969 26.09375 14.390625 26.066406 14.355469 26.046875 C 14.324219 26.023438 14.285156 26.015625 14.242188 26.015625 C 14.191406 26.015625 14.148438 26.027344 14.113281 26.050781 C 14.078125 26.074219 14.050781 26.105469 14.03125 26.144531 C 14.011719 26.179688 14 26.222656 14 26.265625 L 14 26.367188 C 14 26.425781 14.011719 26.476562 14.03125 26.519531 C 14.054688 26.558594 14.082031 26.589844 14.121094 26.613281 C 14.160156 26.636719 14.203125 26.644531 14.253906 26.644531 C 14.285156 26.644531 14.316406 26.640625 14.34375 26.632812 C 14.371094 26.621094 14.394531 26.609375 14.414062 26.589844 C 14.433594 26.570312 14.445312 26.546875 14.457031 26.519531 L 14.621094 26.550781 C 14.609375 26.597656 14.585938 26.640625 14.550781 26.675781 C 14.515625 26.710938 14.476562 26.738281 14.425781 26.757812 C 14.375 26.777344 14.316406 26.789062 14.25 26.789062 Z M 14.25 26.789062 " fill-opacity="1" fill-rule="nonzero"/><g mask="url(#4c8e64e53d)"><g transform="matrix(1, 0, 0, 1, 16, 12)"><g clip-path="url(#9d803e2e5c)"><g clip-path="url(#910597da49)"><path fill="#ff5757" d="M 0.386719 2.929688 L 0.386719 0.496094 L 1.253906 0.496094 C 1.445312 0.496094 1.601562 0.527344 1.722656 0.59375 C 1.847656 0.660156 1.941406 0.75 2.003906 0.863281 C 2.066406 0.976562 2.097656 1.109375 2.097656 1.257812 C 2.097656 1.40625 2.066406 1.539062 2.003906 1.652344 C 1.941406 1.765625 1.847656 1.851562 1.722656 1.914062 C 1.597656 1.976562 1.441406 2.007812 1.253906 2.007812 L 0.597656 2.007812 L 0.597656 1.691406 L 1.222656 1.691406 C 1.339844 1.691406 1.4375 1.675781 1.511719 1.640625 C 1.585938 1.605469 1.640625 1.558594 1.675781 1.492188 C 1.710938 1.425781 1.726562 1.347656 1.726562 1.257812 C 1.726562 1.167969 1.710938 1.085938 1.675781 1.019531 C 1.640625 0.953125 1.585938 0.902344 1.507812 0.867188 C 1.433594 0.828125 1.335938 0.8125 1.214844 0.8125 L 0.753906 0.8125 L 0.753906 2.929688 Z M 1.589844 1.832031 L 2.191406 2.929688 L 1.773438 2.929688 L 1.183594 1.832031 Z M 2.808594 0.496094 L 2.808594 2.929688 L 2.445312 2.929688 L 2.445312 0.496094 Z M 3.457031 0.496094 L 4.132812 2.476562 L 4.160156 2.476562 L 4.839844 0.496094 L 5.234375 0.496094 L 4.359375 2.929688 L 3.933594 2.929688 L 3.058594 0.496094 Z M 7.449219 0.496094 L 7.449219 2.929688 L 7.109375 2.929688 L 5.875 1.144531 L 5.851562 1.144531 L 5.851562 2.929688 L 5.484375 2.929688 L 5.484375 0.496094 L 5.824219 0.496094 L 7.0625 2.28125 L 7.085938 2.28125 L 7.085938 0.496094 Z M 7.882812 2.929688 L 7.882812 0.496094 L 9.40625 0.496094 L 9.40625 0.8125 L 8.25 0.8125 L 8.25 1.554688 L 9.328125 1.554688 L 9.328125 1.867188 L 8.25 1.867188 L 8.25 2.613281 L 9.421875 2.613281 L 9.421875 2.929688 Z M 7.882812 2.929688 " fill-opacity="1" fill-rule="nonzero"/></g></g></g></g></svg>