<svg xmlns="http://www.w3.org/2000/svg" xmlns:xlink="http://www.w3.org/1999/xlink" width="50" zoomAndPan="magnify" viewBox="0 0 37.5 37.499999" height="50" preserveAspectRatio="xMidYMid meet" version="1.0"><defs><filter x="0%" y="0%" width="100%" height="100%" id="6b6b581ee2"><feColorMatrix values="0 0 0 0 1 0 0 0 0 1 0 0 0 0 1 0 0 0 1 0" color-interpolation-filters="sRGB"/></filter><clipPath id="d3b1a15e07"><path d="M 1.003906 9 L 35.789062 9 L 35.789062 28 L 1.003906 28 Z M 1.003906 9 " clip-rule="nonzero"/></clipPath><clipPath id="94c76d1f34"><path d="M 1.003906 8.929688 L 35.789062 8.929688 L 35.789062 28.171875 L 1.003906 28.171875 Z M 1.003906 8.929688 " clip-rule="nonzero"/></clipPath><mask id="20b998691c"><g filter="url(#6b6b581ee2)"><rect x="-3.75" width="45" fill="#000000" y="-3.75" height="44.999999" fill-opacity="0.08"/></g></mask><clipPath id="86d93aa801"><path d="M 0.5 1 L 18 1 L 18 3.550781 L 0.5 3.550781 Z M 0.5 1 " clip-rule="nonzero"/></clipPath><clipPath id="97a84cfac6"><rect x="0" width="19" y="0" height="4"/></clipPath></defs><g clip-path="url(#d3b1a15e07)"><path fill="#000000" d="M 27.199219 9.023438 L 27.480469 9.160156 L 27.816406 9.199219 L 28.183594 9.039062 L 28.300781 9.148438 L 28.269531 9.4375 L 28.355469 9.566406 L 28.542969 9.589844 L 28.699219 9.796875 L 29.339844 9.824219 L 29.699219 10.386719 L 29.625 10.554688 L 29.722656 10.703125 L 29.753906 11.117188 L 29.96875 11.078125 L 30.101562 11.214844 L 30.476562 11.183594 L 30.472656 10.347656 L 30.394531 10.089844 L 30.453125 10.078125 L 30.617188 10.28125 L 30.640625 10.476562 L 30.71875 10.441406 L 30.945312 10.652344 L 30.835938 10.925781 L 30.636719 10.996094 L 30.773438 11.121094 L 30.984375 11.164062 L 30.953125 11.246094 L 31.105469 11.375 L 31.066406 11.558594 L 31.191406 11.835938 L 30.925781 12.125 L 31.175781 12.667969 L 31.046875 12.714844 L 31.09375 12.808594 L 31.367188 12.765625 L 31.78125 13.089844 L 31.828125 12.722656 L 31.976562 12.71875 L 31.984375 12.800781 L 32.039062 12.726562 L 32.363281 12.765625 L 32.421875 12.78125 L 32.394531 13.242188 L 32.925781 13.050781 L 33.015625 13.285156 L 33.21875 13.292969 L 33.167969 13.214844 L 33.402344 13.1875 L 33.554688 12.957031 L 33.453125 12.902344 L 33.746094 12.652344 L 33.765625 12.5 L 34 12.4375 L 34.160156 12.71875 L 34.410156 12.929688 L 34.800781 12.859375 L 35.265625 12.964844 L 35.925781 13.414062 L 35.769531 14.179688 L 35.679688 14.226562 L 35.554688 14.703125 L 35.558594 15.082031 L 35.277344 15.046875 L 35.222656 14.6875 L 35.085938 14.71875 L 35.097656 14.792969 L 34.910156 14.824219 L 34.824219 14.75 L 34.59375 14.859375 L 34.507812 14.84375 L 34.449219 14.589844 L 34.226562 14.601562 L 34.148438 14.511719 L 33.929688 14.816406 L 33.613281 14.863281 L 33.480469 14.734375 L 33.3125 14.765625 L 33.335938 15.308594 L 33.394531 15.390625 L 33.523438 15.335938 L 33.613281 15.636719 L 33.882812 15.730469 L 34.15625 15.707031 L 34.554688 16.09375 L 34.691406 16.078125 L 34.722656 16.230469 L 35.183594 16.152344 L 35.144531 16.488281 L 34.769531 16.5625 L 34.820312 16.933594 L 34.648438 17.050781 L 33.953125 17.445312 L 33.875 17.28125 L 33.550781 17.289062 L 33.644531 17.683594 L 33.363281 17.769531 L 33.316406 17.582031 L 32.695312 17.664062 L 32.699219 17.800781 L 32.46875 17.808594 L 32.476562 17.917969 L 32.386719 17.957031 L 32.597656 19.878906 L 32.351562 19.949219 L 32.371094 20.214844 L 32.277344 20.378906 L 32.402344 20.453125 L 32.40625 20.699219 L 32.75 20.683594 L 32.730469 21.335938 L 32.878906 21.355469 L 33 21.832031 L 32.628906 21.9375 L 32.597656 22.257812 L 32.453125 22.316406 L 32.449219 22.394531 L 32.019531 22.472656 L 32.039062 22.6875 L 31.066406 22.839844 L 31.058594 22.929688 L 30.871094 22.953125 L 31.074219 23.332031 L 30.964844 23.328125 L 30.855469 23.550781 L 30.734375 23.523438 L 30.699219 22.902344 L 30.476562 22.921875 L 30.457031 22.65625 L 30.207031 22.671875 L 30.324219 23.246094 L 29.941406 23.339844 L 29.96875 23.511719 L 30.382812 23.40625 L 30.398438 23.496094 L 30.292969 23.507812 L 30.3125 23.660156 L 29.605469 23.855469 L 29.699219 24.289062 L 29.625 24.011719 L 29.351562 24.046875 L 29.300781 23.992188 L 29.332031 24.308594 L 28.757812 24.375 L 28.714844 24.628906 L 28.601562 24.726562 L 28.582031 25.027344 L 28.441406 24.972656 L 28.335938 24.210938 L 28.007812 24.386719 L 27.921875 24.3125 L 27.695312 24.363281 L 27.707031 24.4375 L 27.3125 24.4375 L 27.445312 24.59375 L 27.496094 25.019531 L 26.75 25.148438 L 26.648438 24.921875 L 25.8125 25.0625 L 25.851562 25.503906 L 26.175781 25.441406 L 26.253906 25.683594 L 25.484375 25.824219 L 25.511719 26.003906 L 25.683594 25.992188 L 25.75 26.398438 L 25.578125 26.429688 L 25.617188 26.628906 L 25.703125 26.6875 L 25.503906 27.078125 L 23.722656 27.4375 L 23.589844 27.445312 L 23.53125 27.289062 L 23.0625 27.4375 L 22.523438 27.007812 L 22 27.140625 L 22 27.390625 L 21.855469 27.429688 L 21.914062 27.816406 L 21.351562 27.929688 L 21.300781 27.800781 L 21.167969 27.972656 L 21.089844 27.855469 L 20.96875 27.871094 L 20.917969 27.511719 L 20.746094 27.535156 L 20.632812 27.25 L 20.503906 27.261719 L 20.453125 27.113281 L 19.675781 27.21875 L 19.691406 27.371094 L 18.621094 27.515625 L 18.546875 27.109375 L 18.894531 27.035156 L 18.777344 26.796875 L 18.792969 26.539062 L 19.019531 26.527344 L 18.960938 25.851562 L 18.757812 25.894531 L 18.671875 25.285156 L 18.167969 25.382812 L 18.113281 25.335938 L 17.898438 25.519531 L 17.722656 24.503906 L 17.738281 24.382812 L 18.15625 24.28125 L 18.042969 23.535156 L 17.433594 23.644531 L 17.347656 23.324219 L 16.976562 23.371094 L 16.902344 23.128906 L 16.492188 23.207031 L 16.480469 23.5 L 16.347656 23.566406 L 16.269531 23.453125 L 16.140625 23.476562 L 16.203125 23.964844 L 15.867188 23.980469 L 15.851562 24.097656 L 15.726562 24.175781 L 15.699219 23.996094 L 15.554688 24.007812 L 15.617188 23.777344 L 15.785156 23.710938 L 15.675781 23.203125 L 15.105469 23.308594 L 15.109375 23.414062 L 14.902344 23.460938 L 14.800781 23.167969 L 14.660156 23.324219 L 14.316406 23.398438 L 14.269531 23.121094 L 13.5625 23.351562 L 13.429688 22.675781 L 13.257812 22.703125 L 13.09375 22.5625 L 13.195312 22.386719 L 12.960938 22.074219 L 12.773438 22.039062 L 12.75 21.925781 L 12.046875 22.035156 L 12.015625 21.914062 L 11.410156 22.035156 L 11.496094 22.476562 L 11.023438 22.511719 L 10.964844 22.738281 L 10.746094 22.828125 L 10.632812 22.742188 L 10.382812 22.8125 L 10.308594 22.53125 L 10.148438 22.542969 L 10.046875 22.4375 L 10.039062 22.695312 L 9.859375 22.722656 L 9.785156 22.429688 L 9.246094 22.476562 L 9.207031 22.359375 L 8.613281 22.503906 L 8.675781 22.675781 L 8.414062 22.746094 L 8.375 22.878906 L 7.824219 22.886719 L 7.578125 22.609375 L 7.382812 22.855469 L 7.3125 22.703125 L 6.273438 22.613281 L 5.71875 23.007812 L 5.398438 22.957031 L 5.199219 23.035156 L 4.652344 22.855469 L 4.203125 22.851562 L 4.054688 22.992188 L 3.621094 22.882812 L 3.421875 22.519531 L 3.203125 22.511719 L 3.242188 22.210938 L 3.074219 21.929688 L 2.941406 22.101562 L 2.582031 21.90625 L 2.230469 22.503906 L 1.871094 22.148438 L 1.441406 22.320312 L 1.332031 22.203125 L 1.257812 22.027344 L 1.34375 21.785156 L 1.25 21.609375 L 1.265625 21.410156 L 1.070312 21.191406 L 1.078125 21.082031 L 1.179688 21.109375 L 1.28125 21.003906 L 1.359375 20.695312 L 1.523438 20.660156 L 1.589844 20.445312 L 1.386719 20.175781 L 2.066406 19.59375 L 2.015625 19.480469 L 2.738281 19.175781 L 2.894531 18.886719 L 3.574219 18.773438 L 3.941406 19.128906 L 4.117188 19.144531 L 4.398438 18.847656 L 4.441406 18.570312 L 4.542969 18.472656 L 5.019531 18.773438 L 5.113281 18.757812 L 5.332031 18.675781 L 5.324219 18.472656 L 5.742188 18.382812 L 5.910156 18.246094 L 6.4375 18.164062 L 6.570312 17.589844 L 6.992188 17.480469 L 7.214844 17.71875 L 7.925781 17.679688 L 7.949219 17.382812 L 7.875 17.320312 L 7.972656 17.199219 L 7.632812 16.914062 L 7.84375 16.585938 L 8.191406 16.464844 L 8.296875 16.046875 L 8.007812 15.738281 L 8.289062 15.753906 L 8.417969 15.464844 L 8.511719 15.5 L 8.527344 15.351562 L 9.011719 15.144531 L 9.328125 15.246094 L 9.492188 15.230469 L 9.519531 15.125 L 9.929688 15.28125 L 10 15.117188 L 10.183594 15.335938 L 10.597656 15.40625 L 10.691406 15.371094 L 10.707031 15.210938 L 11.132812 15.246094 L 11.109375 15.101562 L 11.171875 15.097656 L 11.277344 15.203125 L 11.542969 15.164062 L 11.605469 15.25 L 11.78125 15.203125 L 11.980469 15.328125 L 12.0625 15.292969 L 12.179688 15.527344 L 12.332031 15.589844 L 12.382812 15.503906 L 12.558594 15.644531 L 12.636719 15.476562 L 12.691406 15.523438 L 12.777344 15.410156 L 12.875 15.472656 L 13.039062 15.222656 L 13.324219 15.28125 L 13.417969 15.117188 L 13.707031 15.160156 L 13.796875 15.378906 L 14.1875 15.265625 L 14.355469 15.648438 L 14.558594 15.644531 L 14.582031 15.5 L 14.789062 15.628906 L 14.910156 15.386719 L 14.894531 15.554688 L 15.0625 15.417969 L 15.0625 15.289062 L 15.195312 15.375 L 15.242188 15.300781 L 15.15625 15.191406 L 15.398438 14.976562 L 16.027344 14.6875 L 16.03125 14.511719 L 16.304688 14.339844 L 16.230469 14.261719 L 16.359375 14.03125 L 16.292969 13.949219 L 16.476562 13.789062 L 16.371094 13.570312 L 16.441406 13.5 L 16.347656 13.441406 L 16.488281 13.292969 L 16.589844 13.367188 L 16.460938 13.621094 L 16.8125 13.386719 L 17.359375 13.488281 L 17.488281 13.050781 L 17.882812 13.105469 L 18.285156 12.941406 L 18.363281 12.820312 L 18.535156 13.003906 L 18.6875 13.011719 L 19.300781 13.359375 L 19.292969 13.667969 L 19.542969 13.367188 L 20.042969 13.265625 L 20.226562 13.039062 L 20.417969 13.214844 L 20.761719 13.210938 L 20.734375 13.378906 L 20.828125 13.410156 L 20.886719 13.304688 L 21.214844 13.292969 L 21.28125 13.230469 L 21.292969 12.914062 L 21.117188 12.78125 L 21.128906 12.617188 L 21.492188 12.511719 L 21.5625 12.199219 L 21.828125 12.347656 L 21.953125 11.425781 L 22.183594 11.414062 L 22.191406 11.171875 L 22.375 11.167969 L 22.390625 11.09375 L 22.511719 11.242188 L 22.945312 11.148438 L 22.972656 11.289062 L 23.078125 11.257812 L 23.15625 11.53125 L 23.105469 11.691406 L 23.207031 11.753906 L 23.558594 11.800781 L 23.730469 11.511719 L 23.808594 11.679688 L 23.988281 11.738281 L 23.925781 11.800781 L 23.988281 12.089844 L 24.195312 11.992188 L 24.390625 12.953125 L 24.609375 12.941406 L 24.539062 12.601562 L 24.832031 12.703125 L 24.898438 12.808594 L 25.09375 12.636719 L 25.117188 12.753906 L 25.710938 12.714844 L 25.613281 12.507812 L 25.6875 12.375 L 25.847656 12.402344 L 25.875 12.496094 L 26.144531 12.464844 L 26.175781 12.617188 L 27.105469 12.417969 L 27.105469 12.292969 L 27.339844 12.269531 L 27.328125 12.1875 L 26.972656 12.035156 L 27.082031 11.828125 L 26.972656 11.332031 L 26.847656 11.226562 L 27.492188 10.949219 L 27.496094 10.667969 L 26.515625 10.332031 L 26.371094 10.113281 L 26.503906 9.804688 L 27.117188 9.230469 Z M 27.199219 9.023438 " fill-opacity="1" fill-rule="nonzero"/></g><g clip-path="url(#94c76d1f34)"><path stroke-linecap="round" transform="matrix(0.117352, 0, 0, 0.117352, 0.94504, 8.893986)" fill="none" stroke-linejoin="round" d="M 223.721771 1.103107 L 226.118409 2.268139 L 228.981059 2.601005 L 232.110003 1.236253 L 233.108602 2.168279 L 232.842309 4.63149 L 233.574614 5.729949 L 235.172373 5.929669 L 236.503838 7.69386 L 241.962846 7.926866 L 245.025216 12.720141 L 244.39277 14.151467 L 245.224936 15.416359 L 245.491229 18.944742 L 247.321993 18.611875 L 248.453739 19.776907 L 251.649255 19.510614 L 251.615969 12.387275 L 250.950236 10.190357 L 251.449536 10.090498 L 252.847574 11.821402 L 253.047294 13.485734 L 253.713027 13.186154 L 255.643651 14.983632 L 254.711626 17.313697 L 253.014007 17.912856 L 254.179039 18.978028 L 255.976518 19.344181 L 255.710225 20.0432 L 257.008403 21.141659 L 256.675537 22.706131 L 257.740709 25.069482 L 255.477218 27.532693 L 257.607563 32.159534 L 256.509104 32.558974 L 256.908543 33.357853 L 259.238607 32.9917 L 262.76699 35.754491 L 263.16643 32.625547 L 264.431322 32.592261 L 264.497895 33.29128 L 264.963908 32.658834 L 267.726699 32.9917 L 268.225998 33.124847 L 267.992992 37.052669 L 272.519974 35.421624 L 273.285566 37.418822 L 275.016471 37.485395 L 274.583745 36.819663 L 276.580943 36.586656 L 277.879121 34.622745 L 277.013669 34.156732 L 279.510166 32.026388 L 279.676599 30.728209 L 281.673797 30.195623 L 283.038549 32.592261 L 285.168894 34.389739 L 288.497557 33.790579 L 292.458666 34.689318 L 298.084107 38.517281 L 296.752641 45.041461 L 295.987049 45.4409 L 294.921877 49.501869 L 294.955163 52.730673 L 292.558526 52.431093 L 292.092513 49.368723 L 290.927481 49.635016 L 291.027341 50.267462 L 289.429582 50.533755 L 288.697277 49.901309 L 286.733365 50.833335 L 286.001059 50.700188 L 285.50176 48.536557 L 283.604422 48.636417 L 282.938689 47.870825 L 281.074638 50.467182 L 278.378421 50.866621 L 277.246675 49.768163 L 275.81535 50.034456 L 276.01507 54.661297 L 276.514369 55.360317 L 277.612828 54.894304 L 278.378421 57.457374 L 280.675198 58.256254 L 283.005263 58.056534 L 286.400499 61.35191 L 287.565531 61.218764 L 287.831824 62.516942 L 291.759647 61.85121 L 291.42678 64.71386 L 288.231264 65.346306 L 288.66399 68.508536 L 287.199378 69.507135 L 281.274358 72.869085 L 280.608625 71.471046 L 277.845835 71.53762 L 278.644714 74.899569 L 276.248076 75.631875 L 275.848637 74.034117 L 270.556062 74.733136 L 270.589349 75.898168 L 268.625438 75.964742 L 268.692011 76.896767 L 267.926418 77.229634 L 269.723896 93.606657 L 267.626839 94.205816 L 267.793272 96.469307 L 266.994393 97.867345 L 268.059565 98.499791 L 268.092852 100.596849 L 271.022075 100.463703 L 270.855642 106.02257 L 272.120534 106.189003 L 273.15242 110.249972 L 269.99019 111.148711 L 269.723896 113.878215 L 268.492291 114.377515 L 268.459004 115.043247 L 264.797475 115.70898 L 264.963908 117.539745 L 256.675537 118.837923 L 256.608964 119.603516 L 255.011205 119.803236 L 256.74211 123.032039 L 255.810084 122.998752 L 254.878059 124.89609 L 253.846173 124.663084 L 253.546593 119.370509 L 251.649255 119.536943 L 251.482822 117.273452 L 249.352478 117.406598 L 250.351077 122.299733 L 247.088987 123.098612 L 247.321993 124.563224 L 250.850376 123.664485 L 250.983523 124.430078 L 250.084784 124.529937 L 250.251217 125.828116 L 244.226337 127.492448 L 245.025216 131.187264 L 244.39277 128.823913 L 242.062706 129.123493 L 241.629979 128.65748 L 241.896272 131.353697 L 237.003137 131.91957 L 236.636985 134.083201 L 235.671672 134.915367 L 235.505239 137.478437 L 234.30692 137.012424 L 233.408181 130.521531 L 230.612104 132.01943 L 229.879798 131.386984 L 227.949174 131.81971 L 228.049034 132.452156 L 224.687084 132.452156 L 225.818829 133.783621 L 226.251555 137.411864 L 219.893809 138.510323 L 219.028356 136.579698 L 211.905017 137.778017 L 212.237883 141.539406 L 215.000674 141.00682 L 215.666407 143.070591 L 209.10894 144.26891 L 209.341947 145.800095 L 210.806558 145.700235 L 211.372431 149.162045 L 209.907819 149.428338 L 210.240686 151.125956 L 210.972991 151.625256 L 209.275373 154.953919 L 194.096669 158.016289 L 192.964924 158.082862 L 192.465624 156.751397 L 188.471228 158.016289 L 183.877673 154.354759 L 179.417265 155.486505 L 179.417265 157.616849 L 178.185659 157.949716 L 178.684959 161.245092 L 173.891684 162.210405 L 173.458958 161.111946 L 172.327212 162.576557 L 171.661479 161.577959 L 170.629594 161.711105 L 170.196868 158.648735 L 168.732256 158.848455 L 167.766943 156.418531 L 166.668485 156.518391 L 166.235758 155.253499 L 159.611719 156.152238 L 159.744865 157.450416 L 150.624328 158.682022 L 149.991882 155.220212 L 152.954392 154.587766 L 151.955793 152.557281 L 152.08894 150.360364 L 154.019565 150.260504 L 153.520265 144.501916 L 151.78936 144.868069 L 151.057054 139.675355 L 146.763079 140.507521 L 146.297066 140.108081 L 144.466301 141.672553 L 142.968403 133.018029 L 143.101549 131.986143 L 146.663219 131.12069 L 145.697907 124.762944 L 140.505192 125.69497 L 139.772886 122.965466 L 136.610656 123.364905 L 135.97821 121.301134 L 132.483114 121.966867 L 132.383254 124.463364 L 131.251508 125.029237 L 130.585776 124.063925 L 129.487317 124.263644 L 130.019903 128.424473 L 127.157253 128.55762 L 127.024106 129.556219 L 125.958934 130.221951 L 125.725928 128.690766 L 124.494322 128.790626 L 125.026908 126.826715 L 126.458234 126.260842 L 125.526208 121.93358 L 120.66636 122.832319 L 120.699646 123.731058 L 118.935455 124.130498 L 118.070002 121.634 L 116.871684 122.965466 L 113.94246 123.597912 L 113.54302 121.234561 L 107.51814 123.198472 L 106.386395 117.439885 L 104.921783 117.672891 L 103.523744 116.474573 L 104.389197 114.976674 L 102.391999 112.313744 L 100.79424 112.014164 L 100.594521 111.048852 L 94.602927 111.980877 L 94.336634 110.948992 L 89.177206 111.980877 L 89.909512 115.742267 L 85.881829 116.041846 L 85.38253 117.972471 L 83.518479 118.738063 L 82.553166 118.005758 L 80.422822 118.604917 L 79.790376 116.208279 L 78.425624 116.308139 L 77.560171 115.4094 L 77.493598 117.606318 L 75.962413 117.839324 L 75.329967 115.342827 L 70.736412 115.742267 L 70.403546 114.743668 L 65.343978 115.975273 L 65.876564 117.439885 L 63.646359 118.039044 L 63.313493 119.17079 L 58.620078 119.237363 L 56.52302 116.874012 L 54.858689 118.97107 L 54.259529 117.672891 L 45.405285 116.907299 L 40.678584 120.269249 L 37.94908 119.836522 L 36.251462 120.502255 L 31.591333 118.97107 L 27.76337 118.937783 L 26.498478 120.136102 L 22.803662 119.204076 L 21.106044 116.10842 L 19.241993 116.041846 L 19.574859 113.478776 L 18.143534 111.082138 L 17.011788 112.54675 L 13.949418 110.882418 L 10.953621 115.975273 L 7.891251 112.94619 L 4.229722 114.410801 L 3.297696 113.412202 L 2.66525 111.914304 L 3.397556 109.850533 L 2.598677 108.352634 L 2.731823 106.655016 L 1.067492 104.790965 L 1.134065 103.858939 L 1.999517 104.091946 L 2.86497 103.193206 L 3.530703 100.563563 L 4.928741 100.263983 L 5.494614 98.433218 L 3.763709 96.136441 L 9.555583 91.176732 L 9.122857 90.21142 L 15.280884 87.615063 L 16.612349 85.151852 L 22.404223 84.18654 L 25.533166 87.215623 L 27.031065 87.34877 L 29.427702 84.818986 L 29.793855 82.455635 L 30.659307 81.623469 L 34.720276 84.18654 L 35.519156 84.053393 L 37.383207 83.354374 L 37.316634 81.623469 L 40.878303 80.857877 L 42.309628 79.692844 L 46.803324 78.993825 L 47.935069 74.10069 L 51.530025 73.168665 L 53.427363 75.199149 L 59.48553 74.866283 L 59.68525 72.336499 L 59.052804 71.803913 L 59.88497 70.772027 L 56.989033 68.342103 L 58.786511 65.546026 L 61.749021 64.51414 L 62.64776 60.952471 L 60.18455 58.322827 L 62.581187 58.455973 L 63.679646 55.992763 L 64.478525 56.292342 L 64.611672 55.02745 L 68.739214 53.263259 L 71.435431 54.128711 L 72.83347 53.995565 L 73.066476 53.096826 L 76.561573 54.428291 L 77.160732 53.030252 L 78.725204 54.894304 L 82.253587 55.493463 L 83.052466 55.193884 L 83.185612 53.829132 L 86.813855 54.128711 L 86.614135 52.897106 L 87.146721 52.863819 L 88.04546 53.762558 L 90.308951 53.429692 L 90.841538 54.161998 L 92.339436 53.762558 L 94.037054 54.827731 L 94.736073 54.528151 L 95.734672 56.525349 L 97.032851 57.057935 L 97.465577 56.325629 L 98.963476 57.523948 L 99.629208 56.092623 L 100.095221 56.492062 L 100.827527 55.52675 L 101.659693 56.059336 L 103.057731 53.928992 L 105.487656 54.428291 L 106.286535 53.030252 L 108.749745 53.396405 L 109.515338 55.260457 L 112.844001 54.295144 L 114.275326 57.557234 L 116.006231 57.523948 L 116.205951 56.292342 L 117.970142 57.390801 L 119.002028 55.32703 L 118.868881 56.758355 L 120.300207 55.593323 L 120.300207 54.494864 L 121.431952 55.22717 L 121.831392 54.594724 L 121.099086 53.662698 L 123.162857 51.831934 L 128.522005 49.368723 L 128.555291 47.870825 L 130.885356 46.406213 L 130.25291 45.74048 L 131.351368 43.776569 L 130.785496 43.07755 L 132.349967 41.712798 L 131.451228 39.848746 L 132.050388 39.249587 L 131.251508 38.750287 L 132.449827 37.485395 L 133.31528 38.117841 L 132.216821 40.281472 L 135.212618 38.284275 L 139.872746 39.149727 L 140.971205 35.421624 L 144.333155 35.887637 L 147.761678 34.489599 L 148.42741 33.457713 L 149.892022 35.022185 L 151.190201 35.088758 L 156.416202 38.051268 L 156.349629 40.680912 L 158.479973 38.117841 L 162.740662 37.252389 L 164.305134 35.321764 L 165.936179 36.819663 L 168.865402 36.786376 L 168.632396 38.217701 L 169.431275 38.483994 L 169.930575 37.585255 L 172.726652 37.485395 L 173.292524 36.952809 L 173.392384 34.256592 L 171.894486 33.124847 L 171.994346 31.726808 L 175.090002 30.828069 L 175.689162 28.165139 L 177.952653 29.430031 L 179.017825 21.574385 L 180.981736 21.474526 L 181.04831 19.410754 L 182.612781 19.377468 L 182.745928 18.745022 L 183.777813 20.009914 L 187.472629 19.211035 L 187.705636 20.409353 L 188.604375 20.14306 L 189.270108 22.473125 L 188.837381 23.837876 L 189.702834 24.370463 L 192.698631 24.769902 L 194.163242 22.306691 L 194.828975 23.738017 L 196.36016 24.237316 L 195.827574 24.769902 L 196.36016 27.233113 L 198.124352 26.400947 L 199.788683 34.589458 L 201.652735 34.489599 L 201.053575 31.593662 L 203.550073 32.459114 L 204.115945 33.357853 L 205.780277 31.893241 L 205.979997 32.89184 L 211.039565 32.558974 L 210.207399 30.794782 L 210.839845 29.663037 L 212.204597 29.896043 L 212.437603 30.694923 L 214.734381 30.42863 L 215.000674 31.726808 L 222.922892 30.02919 L 222.922892 28.964018 L 224.92009 28.764298 L 224.82023 28.065279 L 221.791147 26.7671 L 222.723172 25.002909 L 221.791147 20.775506 L 220.725975 19.876767 L 226.218269 17.513416 L 226.251555 15.116779 L 217.896611 12.254129 L 216.665006 10.390077 L 217.796751 7.760433 L 223.022752 2.867298 Z M 223.721771 1.103107 " stroke="#ffffff" stroke-width="1.19" stroke-opacity="1" stroke-miterlimit="4"/></g><path fill="#ff5757" d="M 18.574219 17.601562 L 18.574219 16.605469 L 18.722656 16.605469 L 18.722656 17.082031 L 18.734375 17.082031 L 19.152344 16.605469 L 19.34375 16.605469 L 18.941406 17.054688 L 19.34375 17.601562 L 19.164062 17.601562 L 18.839844 17.160156 L 18.722656 17.292969 L 18.722656 17.601562 Z M 19.46875 17.601562 L 19.46875 16.855469 L 19.609375 16.855469 L 19.609375 16.976562 L 19.617188 16.976562 C 19.632812 16.933594 19.65625 16.902344 19.691406 16.878906 C 19.726562 16.855469 19.765625 16.84375 19.808594 16.84375 C 19.816406 16.84375 19.828125 16.84375 19.839844 16.847656 C 19.851562 16.847656 19.863281 16.847656 19.871094 16.847656 L 19.871094 16.988281 C 19.863281 16.984375 19.855469 16.984375 19.839844 16.980469 C 19.824219 16.980469 19.808594 16.980469 19.792969 16.980469 C 19.761719 16.980469 19.730469 16.984375 19.703125 17 C 19.675781 17.015625 19.65625 17.035156 19.640625 17.058594 C 19.625 17.085938 19.617188 17.113281 19.617188 17.148438 L 19.617188 17.601562 Z M 20.285156 17.617188 C 20.214844 17.617188 20.152344 17.601562 20.101562 17.570312 C 20.046875 17.539062 20.007812 17.492188 19.980469 17.433594 C 19.949219 17.378906 19.933594 17.308594 19.933594 17.234375 C 19.933594 17.15625 19.949219 17.089844 19.980469 17.03125 C 20.007812 16.972656 20.046875 16.925781 20.101562 16.894531 C 20.152344 16.863281 20.214844 16.847656 20.285156 16.847656 C 20.355469 16.847656 20.414062 16.863281 20.46875 16.894531 C 20.519531 16.925781 20.558594 16.972656 20.589844 17.03125 C 20.617188 17.089844 20.632812 17.15625 20.632812 17.234375 C 20.632812 17.308594 20.617188 17.378906 20.589844 17.433594 C 20.558594 17.492188 20.519531 17.539062 20.46875 17.570312 C 20.414062 17.601562 20.355469 17.617188 20.285156 17.617188 Z M 20.285156 17.496094 C 20.328125 17.496094 20.367188 17.484375 20.398438 17.460938 C 20.425781 17.4375 20.449219 17.402344 20.464844 17.363281 C 20.476562 17.324219 20.484375 17.28125 20.484375 17.234375 C 20.484375 17.183594 20.476562 17.140625 20.464844 17.101562 C 20.449219 17.0625 20.425781 17.027344 20.398438 17.003906 C 20.367188 16.980469 20.328125 16.96875 20.285156 16.96875 C 20.238281 16.96875 20.199219 16.980469 20.171875 17.003906 C 20.140625 17.027344 20.117188 17.0625 20.105469 17.101562 C 20.089844 17.140625 20.082031 17.183594 20.082031 17.234375 C 20.082031 17.28125 20.089844 17.324219 20.105469 17.363281 C 20.117188 17.402344 20.140625 17.4375 20.171875 17.460938 C 20.199219 17.484375 20.238281 17.496094 20.285156 17.496094 Z M 20.792969 17.882812 L 20.792969 16.855469 L 20.9375 16.855469 L 20.9375 16.976562 L 20.949219 16.976562 C 20.957031 16.960938 20.96875 16.945312 20.984375 16.921875 C 21 16.902344 21.023438 16.886719 21.050781 16.871094 C 21.078125 16.855469 21.117188 16.847656 21.164062 16.847656 C 21.222656 16.847656 21.277344 16.863281 21.324219 16.890625 C 21.371094 16.921875 21.410156 16.964844 21.433594 17.023438 C 21.460938 17.082031 21.476562 17.152344 21.476562 17.230469 C 21.476562 17.3125 21.460938 17.382812 21.4375 17.4375 C 21.410156 17.496094 21.371094 17.539062 21.324219 17.570312 C 21.277344 17.601562 21.222656 17.617188 21.164062 17.617188 C 21.117188 17.617188 21.082031 17.609375 21.050781 17.59375 C 21.023438 17.578125 21 17.5625 20.984375 17.542969 C 20.96875 17.519531 20.957031 17.503906 20.949219 17.488281 L 20.9375 17.488281 L 20.9375 17.882812 Z M 20.9375 17.230469 C 20.9375 17.28125 20.945312 17.328125 20.960938 17.367188 C 20.972656 17.40625 20.996094 17.4375 21.023438 17.460938 C 21.054688 17.484375 21.089844 17.492188 21.132812 17.492188 C 21.175781 17.492188 21.210938 17.480469 21.238281 17.460938 C 21.269531 17.4375 21.292969 17.402344 21.304688 17.363281 C 21.320312 17.324219 21.328125 17.28125 21.328125 17.230469 C 21.328125 17.179688 21.320312 17.136719 21.308594 17.097656 C 21.292969 17.058594 21.269531 17.027344 21.242188 17.003906 C 21.210938 16.980469 21.175781 16.96875 21.132812 16.96875 C 21.089844 16.96875 21.054688 16.980469 21.023438 17.003906 C 20.996094 17.023438 20.972656 17.054688 20.957031 17.09375 C 20.945312 17.132812 20.9375 17.179688 20.9375 17.230469 Z M 21.707031 17.882812 C 21.683594 17.882812 21.664062 17.882812 21.644531 17.878906 C 21.628906 17.875 21.613281 17.871094 21.605469 17.867188 L 21.640625 17.746094 C 21.667969 17.753906 21.691406 17.757812 21.710938 17.757812 C 21.734375 17.757812 21.75 17.75 21.765625 17.734375 C 21.785156 17.71875 21.796875 17.695312 21.808594 17.664062 L 21.828125 17.613281 L 21.554688 16.855469 L 21.710938 16.855469 L 21.898438 17.4375 L 21.90625 17.4375 L 22.097656 16.855469 L 22.253906 16.855469 L 21.945312 17.703125 C 21.929688 17.742188 21.914062 17.773438 21.890625 17.800781 C 21.867188 17.828125 21.84375 17.847656 21.8125 17.863281 C 21.78125 17.875 21.746094 17.882812 21.707031 17.882812 Z M 23.027344 16.855469 L 22.757812 17.601562 L 22.601562 17.601562 L 22.332031 16.855469 L 22.484375 16.855469 L 22.675781 17.429688 L 22.683594 17.429688 L 22.871094 16.855469 Z M 23.308594 17.160156 L 23.308594 17.601562 L 23.164062 17.601562 L 23.164062 16.855469 L 23.304688 16.855469 L 23.304688 16.976562 L 23.3125 16.976562 C 23.332031 16.9375 23.355469 16.90625 23.394531 16.882812 C 23.429688 16.859375 23.476562 16.847656 23.535156 16.847656 C 23.585938 16.847656 23.628906 16.855469 23.667969 16.878906 C 23.707031 16.898438 23.734375 16.929688 23.757812 16.972656 C 23.777344 17.015625 23.789062 17.066406 23.789062 17.128906 L 23.789062 17.601562 L 23.640625 17.601562 L 23.640625 17.144531 C 23.640625 17.089844 23.628906 17.050781 23.601562 17.019531 C 23.570312 16.988281 23.53125 16.972656 23.484375 16.972656 C 23.449219 16.972656 23.421875 16.980469 23.394531 16.996094 C 23.367188 17.007812 23.347656 17.03125 23.332031 17.058594 C 23.316406 17.085938 23.308594 17.121094 23.308594 17.160156 Z M 24.046875 17.882812 C 24.027344 17.882812 24.007812 17.882812 23.988281 17.878906 C 23.96875 17.875 23.957031 17.871094 23.949219 17.867188 L 23.984375 17.746094 C 24.011719 17.753906 24.035156 17.757812 24.054688 17.757812 C 24.074219 17.757812 24.09375 17.75 24.109375 17.734375 C 24.125 17.71875 24.140625 17.695312 24.152344 17.664062 L 24.171875 17.613281 L 23.898438 16.855469 L 24.050781 16.855469 L 24.242188 17.4375 L 24.25 17.4375 L 24.4375 16.855469 L 24.59375 16.855469 L 24.285156 17.703125 C 24.273438 17.742188 24.253906 17.773438 24.234375 17.800781 C 24.210938 17.828125 24.183594 17.847656 24.152344 17.863281 C 24.125 17.875 24.089844 17.882812 24.046875 17.882812 Z M 25.078125 16.855469 L 25.078125 16.972656 L 24.671875 16.972656 L 24.671875 16.855469 Z M 24.78125 16.675781 L 24.925781 16.675781 L 24.925781 17.382812 C 24.925781 17.410156 24.929688 17.433594 24.9375 17.449219 C 24.949219 17.460938 24.957031 17.472656 24.972656 17.476562 C 24.984375 17.480469 25 17.484375 25.015625 17.484375 C 25.027344 17.484375 25.039062 17.484375 25.046875 17.480469 C 25.054688 17.480469 25.0625 17.476562 25.066406 17.476562 L 25.09375 17.597656 C 25.085938 17.601562 25.074219 17.605469 25.058594 17.605469 C 25.042969 17.609375 25.023438 17.613281 25 17.613281 C 24.960938 17.613281 24.925781 17.605469 24.890625 17.59375 C 24.859375 17.578125 24.832031 17.554688 24.8125 17.527344 C 24.792969 17.496094 24.78125 17.460938 24.78125 17.414062 Z M 25.789062 17.039062 L 25.65625 17.0625 C 25.652344 17.046875 25.640625 17.027344 25.628906 17.015625 C 25.617188 17 25.601562 16.984375 25.582031 16.976562 C 25.5625 16.964844 25.539062 16.960938 25.507812 16.960938 C 25.464844 16.960938 25.433594 16.972656 25.402344 16.988281 C 25.375 17.007812 25.363281 17.03125 25.363281 17.058594 C 25.363281 17.085938 25.371094 17.105469 25.390625 17.121094 C 25.410156 17.136719 25.4375 17.148438 25.480469 17.15625 L 25.597656 17.183594 C 25.667969 17.199219 25.71875 17.226562 25.753906 17.257812 C 25.785156 17.292969 25.804688 17.335938 25.804688 17.386719 C 25.804688 17.433594 25.789062 17.472656 25.765625 17.507812 C 25.738281 17.542969 25.703125 17.570312 25.65625 17.589844 C 25.609375 17.609375 25.558594 17.617188 25.496094 17.617188 C 25.414062 17.617188 25.34375 17.601562 25.292969 17.566406 C 25.238281 17.527344 25.207031 17.476562 25.195312 17.410156 L 25.335938 17.390625 C 25.34375 17.425781 25.363281 17.453125 25.390625 17.472656 C 25.417969 17.492188 25.453125 17.5 25.496094 17.5 C 25.542969 17.5 25.582031 17.492188 25.609375 17.472656 C 25.640625 17.453125 25.652344 17.425781 25.652344 17.398438 C 25.652344 17.375 25.644531 17.355469 25.628906 17.339844 C 25.609375 17.324219 25.582031 17.3125 25.546875 17.304688 L 25.421875 17.277344 C 25.351562 17.257812 25.300781 17.234375 25.265625 17.199219 C 25.234375 17.164062 25.21875 17.121094 25.21875 17.066406 C 25.21875 17.023438 25.230469 16.984375 25.253906 16.953125 C 25.277344 16.917969 25.3125 16.894531 25.355469 16.875 C 25.398438 16.855469 25.449219 16.847656 25.503906 16.847656 C 25.585938 16.847656 25.648438 16.863281 25.695312 16.898438 C 25.742188 16.933594 25.773438 16.980469 25.789062 17.039062 Z M 26.097656 17.351562 L 26.09375 17.171875 L 26.121094 17.171875 L 26.417969 16.855469 L 26.59375 16.855469 L 26.253906 17.214844 L 26.230469 17.214844 Z M 25.960938 17.601562 L 25.960938 16.605469 L 26.109375 16.605469 L 26.109375 17.601562 Z M 26.433594 17.601562 L 26.167969 17.25 L 26.265625 17.148438 L 26.613281 17.601562 Z M 26.820312 17.882812 C 26.800781 17.882812 26.777344 17.882812 26.761719 17.878906 C 26.742188 17.875 26.730469 17.871094 26.722656 17.867188 L 26.757812 17.746094 C 26.78125 17.753906 26.804688 17.757812 26.828125 17.757812 C 26.847656 17.757812 26.867188 17.75 26.882812 17.734375 C 26.898438 17.71875 26.914062 17.695312 26.925781 17.664062 L 26.941406 17.613281 L 26.667969 16.855469 L 26.824219 16.855469 L 27.015625 17.4375 L 27.023438 17.4375 L 27.210938 16.855469 L 27.367188 16.855469 L 27.058594 17.703125 C 27.046875 17.742188 27.027344 17.773438 27.003906 17.800781 C 26.984375 17.828125 26.957031 17.847656 26.925781 17.863281 C 26.894531 17.875 26.859375 17.882812 26.820312 17.882812 Z M 27.503906 17.601562 L 27.503906 16.855469 L 27.648438 16.855469 L 27.648438 17.601562 Z M 27.578125 16.742188 C 27.550781 16.742188 27.53125 16.734375 27.511719 16.714844 C 27.496094 16.699219 27.484375 16.679688 27.484375 16.65625 C 27.484375 16.628906 27.496094 16.609375 27.511719 16.59375 C 27.53125 16.574219 27.550781 16.566406 27.578125 16.566406 C 27.601562 16.566406 27.625 16.574219 27.640625 16.59375 C 27.660156 16.609375 27.667969 16.628906 27.667969 16.65625 C 27.667969 16.679688 27.660156 16.699219 27.640625 16.714844 C 27.625 16.734375 27.601562 16.742188 27.578125 16.742188 Z M 27.578125 16.742188 " fill-opacity="1" fill-rule="nonzero"/><g mask="url(#20b998691c)"><g transform="matrix(1, 0, 0, 1, 13, 18)"><g clip-path="url(#97a84cfac6)"><g clip-path="url(#86d93aa801)"><path fill="#ff5757" d="M 0.523438 3.242188 L 0.523438 1.191406 L 0.835938 1.191406 L 0.835938 2.171875 L 0.859375 2.171875 L 1.71875 1.191406 L 2.105469 1.191406 L 1.28125 2.113281 L 2.109375 3.242188 L 1.738281 3.242188 L 1.078125 2.324219 L 0.835938 2.605469 L 0.835938 3.242188 Z M 2.621094 1.191406 L 2.621094 3.242188 L 2.3125 3.242188 L 2.3125 1.191406 Z M 2.984375 3.242188 L 2.984375 1.191406 L 3.714844 1.191406 C 3.875 1.191406 4.007812 1.21875 4.109375 1.273438 C 4.214844 1.328125 4.292969 1.40625 4.347656 1.5 C 4.398438 1.597656 4.425781 1.707031 4.425781 1.835938 C 4.425781 1.960938 4.398438 2.070312 4.347656 2.164062 C 4.292969 2.261719 4.214844 2.335938 4.109375 2.386719 C 4.003906 2.441406 3.875 2.464844 3.714844 2.464844 L 3.160156 2.464844 L 3.160156 2.199219 L 3.6875 2.199219 C 3.785156 2.199219 3.867188 2.183594 3.929688 2.15625 C 3.992188 2.128906 4.039062 2.085938 4.070312 2.03125 C 4.097656 1.976562 4.113281 1.910156 4.113281 1.835938 C 4.113281 1.757812 4.097656 1.691406 4.070312 1.632812 C 4.039062 1.578125 3.992188 1.535156 3.929688 1.503906 C 3.867188 1.472656 3.785156 1.457031 3.683594 1.457031 L 3.292969 1.457031 L 3.292969 3.242188 Z M 3.996094 2.316406 L 4.503906 3.242188 L 4.152344 3.242188 L 3.65625 2.316406 Z M 6.496094 2.21875 C 6.496094 2.433594 6.457031 2.625 6.375 2.78125 C 6.296875 2.9375 6.1875 3.058594 6.046875 3.144531 C 5.90625 3.226562 5.75 3.269531 5.574219 3.269531 C 5.394531 3.269531 5.238281 3.226562 5.097656 3.144531 C 4.960938 3.058594 4.851562 2.9375 4.769531 2.78125 C 4.691406 2.621094 4.648438 2.433594 4.648438 2.21875 C 4.648438 2 4.691406 1.808594 4.769531 1.652344 C 4.851562 1.496094 4.960938 1.375 5.097656 1.292969 C 5.238281 1.207031 5.394531 1.164062 5.574219 1.164062 C 5.75 1.164062 5.90625 1.207031 6.046875 1.292969 C 6.1875 1.375 6.296875 1.496094 6.375 1.652344 C 6.457031 1.808594 6.496094 2 6.496094 2.21875 Z M 6.191406 2.21875 C 6.191406 2.050781 6.164062 1.910156 6.109375 1.796875 C 6.054688 1.679688 5.980469 1.59375 5.886719 1.535156 C 5.796875 1.476562 5.691406 1.445312 5.574219 1.445312 C 5.457031 1.445312 5.351562 1.476562 5.257812 1.535156 C 5.164062 1.59375 5.089844 1.679688 5.039062 1.796875 C 4.984375 1.910156 4.957031 2.050781 4.957031 2.21875 C 4.957031 2.382812 4.984375 2.523438 5.039062 2.640625 C 5.089844 2.753906 5.164062 2.839844 5.257812 2.898438 C 5.351562 2.957031 5.457031 2.988281 5.574219 2.988281 C 5.691406 2.988281 5.796875 2.957031 5.886719 2.898438 C 5.980469 2.839844 6.054688 2.753906 6.109375 2.640625 C 6.164062 2.523438 6.191406 2.382812 6.191406 2.21875 Z M 6.875 1.191406 L 7.445312 2.859375 L 7.464844 2.859375 L 8.035156 1.191406 L 8.371094 1.191406 L 7.632812 3.242188 L 7.277344 3.242188 L 6.539062 1.191406 Z M 10.257812 2.21875 C 10.257812 2.433594 10.21875 2.625 10.140625 2.78125 C 10.058594 2.9375 9.949219 3.058594 9.8125 3.144531 C 9.671875 3.226562 9.515625 3.269531 9.335938 3.269531 C 9.160156 3.269531 9 3.226562 8.863281 3.144531 C 8.722656 3.058594 8.613281 2.9375 8.535156 2.78125 C 8.453125 2.621094 8.414062 2.433594 8.414062 2.21875 C 8.414062 2 8.453125 1.808594 8.535156 1.652344 C 8.613281 1.496094 8.722656 1.375 8.863281 1.292969 C 9 1.207031 9.160156 1.164062 9.335938 1.164062 C 9.515625 1.164062 9.671875 1.207031 9.8125 1.292969 C 9.949219 1.375 10.058594 1.496094 10.140625 1.652344 C 10.21875 1.808594 10.257812 2 10.257812 2.21875 Z M 9.953125 2.21875 C 9.953125 2.050781 9.925781 1.910156 9.871094 1.796875 C 9.820312 1.679688 9.746094 1.59375 9.652344 1.535156 C 9.558594 1.476562 9.453125 1.445312 9.335938 1.445312 C 9.21875 1.445312 9.113281 1.476562 9.023438 1.535156 C 8.929688 1.59375 8.855469 1.679688 8.800781 1.796875 C 8.75 1.910156 8.722656 2.050781 8.722656 2.21875 C 8.722656 2.382812 8.75 2.523438 8.800781 2.640625 C 8.855469 2.753906 8.929688 2.839844 9.023438 2.898438 C 9.113281 2.957031 9.21875 2.988281 9.335938 2.988281 C 9.453125 2.988281 9.558594 2.957031 9.652344 2.898438 C 9.746094 2.839844 9.820312 2.753906 9.871094 2.640625 C 9.925781 2.523438 9.953125 2.382812 9.953125 2.21875 Z M 10.5625 3.242188 L 10.5625 1.191406 L 10.871094 1.191406 L 10.871094 2.082031 L 11.890625 2.082031 L 11.890625 1.191406 L 12.199219 1.191406 L 12.199219 3.242188 L 11.890625 3.242188 L 11.890625 2.347656 L 10.871094 2.347656 L 10.871094 3.242188 Z M 12.566406 3.242188 L 12.566406 1.191406 L 13.296875 1.191406 C 13.457031 1.191406 13.585938 1.21875 13.691406 1.273438 C 13.796875 1.328125 13.875 1.40625 13.925781 1.5 C 13.980469 1.597656 14.003906 1.707031 14.003906 1.835938 C 14.003906 1.960938 13.980469 2.070312 13.925781 2.164062 C 13.875 2.261719 13.796875 2.335938 13.691406 2.386719 C 13.585938 2.441406 13.453125 2.464844 13.296875 2.464844 L 12.742188 2.464844 L 12.742188 2.199219 L 13.265625 2.199219 C 13.367188 2.199219 13.449219 2.183594 13.511719 2.15625 C 13.574219 2.128906 13.621094 2.085938 13.652344 2.03125 C 13.679688 1.976562 13.695312 1.910156 13.695312 1.835938 C 13.695312 1.757812 13.679688 1.691406 13.648438 1.632812 C 13.621094 1.578125 13.574219 1.535156 13.511719 1.503906 C 13.449219 1.472656 13.367188 1.457031 13.261719 1.457031 L 12.875 1.457031 L 12.875 3.242188 Z M 13.578125 2.316406 L 14.082031 3.242188 L 13.730469 3.242188 L 13.234375 2.316406 Z M 14.46875 3.242188 L 14.140625 3.242188 L 14.878906 1.191406 L 15.238281 1.191406 L 15.972656 3.242188 L 15.644531 3.242188 L 15.066406 1.566406 L 15.050781 1.566406 Z M 14.523438 2.4375 L 15.589844 2.4375 L 15.589844 2.699219 L 14.523438 2.699219 Z M 16.847656 3.242188 L 16.183594 3.242188 L 16.183594 1.191406 L 16.867188 1.191406 C 17.070312 1.191406 17.242188 1.234375 17.386719 1.316406 C 17.53125 1.398438 17.640625 1.515625 17.71875 1.667969 C 17.792969 1.820312 17.832031 2 17.832031 2.214844 C 17.832031 2.425781 17.792969 2.609375 17.714844 2.765625 C 17.640625 2.917969 17.527344 3.035156 17.378906 3.117188 C 17.234375 3.199219 17.054688 3.242188 16.847656 3.242188 Z M 16.492188 2.972656 L 16.832031 2.972656 C 16.988281 2.972656 17.117188 2.941406 17.21875 2.882812 C 17.324219 2.824219 17.402344 2.738281 17.453125 2.625 C 17.503906 2.511719 17.527344 2.375 17.527344 2.214844 C 17.527344 2.054688 17.503906 1.917969 17.453125 1.804688 C 17.402344 1.691406 17.324219 1.609375 17.226562 1.550781 C 17.125 1.492188 17 1.460938 16.851562 1.460938 L 16.492188 1.460938 Z M 16.492188 2.972656 " fill-opacity="1" fill-rule="nonzero"/></g></g></g></g></svg>