<svg xmlns="http://www.w3.org/2000/svg" xmlns:xlink="http://www.w3.org/1999/xlink" width="50" zoomAndPan="magnify" viewBox="0 0 37.5 37.499999" height="50" preserveAspectRatio="xMidYMid meet" version="1.0"><defs><filter x="0%" y="0%" width="100%" height="100%" id="a2e8990223"><feColorMatrix values="0 0 0 0 1 0 0 0 0 1 0 0 0 0 1 0 0 0 1 0" color-interpolation-filters="sRGB"/></filter><clipPath id="83580e8397"><path d="M 0.746094 2.1875 L 36.273438 2.1875 L 36.273438 34.753906 L 0.746094 34.753906 Z M 0.746094 2.1875 " clip-rule="nonzero"/></clipPath><mask id="ffc70fa9f6"><g filter="url(#a2e8990223)"><rect x="-3.75" width="45" fill="#000000" y="-3.75" height="44.999999" fill-opacity="0.08"/></g></mask><clipPath id="1c249b8b99"><path d="M 1 0.816406 L 16.183594 0.816406 L 16.183594 3.65625 L 1 3.65625 Z M 1 0.816406 " clip-rule="nonzero"/></clipPath><clipPath id="9879e15a70"><rect x="0" width="17" y="0" height="4"/></clipPath></defs><g clip-path="url(#83580e8397)"><path stroke-linecap="round" transform="matrix(0.152309, 0, 0, 0.152309, 0.639717, 2.12008)" fill-opacity="1" fill="#000000" fill-rule="nonzero" stroke-linejoin="round" d="M 189.280145 1.417238 L 189.972612 1.725 L 189.587908 4.264044 L 188.228622 4.87957 L 188.279916 9.85507 L 189.690496 12.830112 L 191.101076 13.394344 L 192.357774 15.240921 L 194.819877 16.061622 L 196.153517 18.31855 L 198.077035 17.318321 L 200.641726 17.959493 L 199.897965 20.113834 L 199.897965 26.012623 L 199.02597 28.320844 L 200.923842 31.295886 L 201.026429 33.16811 L 205.74546 38.297492 L 209.130852 43.862871 L 212.105894 43.298639 L 216.055517 46.171093 L 218.77409 46.837912 L 221.159252 48.453668 L 224.211234 55.044923 L 226.391222 56.609384 L 227.006747 56.275975 L 229.776613 60.123011 L 228.340387 60.969359 L 228.212152 62.559467 L 228.981559 63.713578 L 233.213299 69.561073 L 231.930954 70.792125 L 228.186505 70.817772 L 227.391451 73.459403 L 230.546021 75.690684 L 230.546021 76.537032 L 229.212381 76.742208 L 226.545103 80.076306 L 224.980642 78.486197 L 223.287946 82.410174 L 224.929348 84.897924 L 226.057812 84.179811 L 227.699214 84.359339 L 227.955683 85.231334 L 226.775925 85.84686 L 227.64792 86.488033 L 228.648149 90.001659 L 229.930495 90.565891 L 225.544874 91.771296 L 226.519456 93.925636 L 225.031935 94.38728 L 224.82676 95.618332 L 222.723714 95.772214 L 222.33901 97.618791 L 223.134064 100.234776 L 219.569144 99.927013 L 218.517621 102.337822 L 221.518309 102.77382 L 221.210546 103.748402 L 218.517621 105.774508 L 215.95293 105.594979 L 215.132229 108.544374 L 216.055517 109.390722 L 215.61952 113.878931 L 217.953389 113.853284 L 217.902095 116.930913 L 219.312675 118.495374 L 217.927742 126.779326 L 218.338092 128.728491 L 222.903242 129.72872 L 223.621355 131.729179 L 219.466556 133.319287 L 220.338551 134.447751 L 217.055747 135.986566 L 217.414804 136.986795 L 216.081164 138.448669 L 215.593873 141.01336 L 214.20894 140.885125 L 214.157646 140.320893 L 212.0546 140.782538 L 199.128558 137.44844 L 195.101993 138.012672 L 194.153058 139.089842 L 190.947194 142.218765 L 198.61562 145.091218 L 200.513491 147.271206 L 194.024823 150.733538 L 190.511197 151.349064 L 189.895671 151.938943 L 190.8959 152.913525 L 191.254957 155.221747 L 189.177557 156.170683 L 189.357086 156.709268 L 188.331209 156.324564 L 187.305333 157.042678 L 187.202746 156.427152 L 184.894524 156.119389 L 184.073823 157.222206 L 182.637596 157.504322 L 182.971006 160.197247 L 181.868189 160.09466 L 181.663013 163.556992 L 180.714078 163.65958 L 179.585614 162.377235 L 179.277851 163.351817 L 177.303039 164.249459 L 178.098093 164.685456 L 177.610802 165.429217 L 176.969629 165.044513 L 176.148928 166.019096 L 177.918565 167.55791 L 177.174804 169.199312 L 178.764913 169.584016 L 178.431503 171.507534 L 174.199763 171.353653 L 174.020235 173.071995 L 171.224722 172.995055 L 170.224492 175.072454 L 168.762618 176.098331 L 168.660031 183.099937 L 165.146404 181.073831 L 165.454167 180.047955 L 161.991835 179.124666 L 161.094193 181.176419 L 160.196551 180.99689 L 159.7862 183.125584 L 156.657278 182.689586 L 156.298221 184.356635 L 155.554461 184.305341 L 154.656819 185.664627 L 156.605984 187.254736 L 156.682925 188.101084 L 158.067858 188.254965 L 157.22151 190.024602 L 152.630713 185.202983 L 144.603231 184.407929 L 143.423473 187.408617 L 142.192421 187.536852 L 141.756424 186.818738 L 138.678795 186.63921 L 137.06304 185.792862 L 136.986099 184.48487 L 134.857405 184.023225 L 132.728712 187.30603 L 132.959534 187.947202 L 134.216233 187.947202 L 134.523996 190.742715 L 136.088457 194.794927 L 135.472931 196.000332 L 134.575289 196.17986 L 135.139521 200.488541 L 136.344926 203.284054 L 131.651542 203.514876 L 131.677189 204.258636 L 130.215315 204.515105 L 130.369197 205.258866 L 125.675812 206.028273 L 124.726877 204.489458 L 123.752294 204.438164 L 117.879152 199.385723 L 115.16058 202.540293 L 114.134703 202.386412 L 113.826941 202.873703 L 114.981051 203.284054 L 114.237291 204.361224 L 115.365755 204.592046 L 113.519178 205.233219 L 110.569783 209.413665 L 111.467425 210.02919 L 108.671912 213.363289 L 108.620618 212.619528 L 106.543219 211.080714 L 104.568407 213.619758 L 102.721829 212.286118 L 106.107221 207.413206 L 101.413837 203.899579 L 103.568177 199.74478 L 93.540236 192.640587 L 94.873875 190.024602 L 93.232473 188.152378 L 95.874105 187.921555 L 96.540924 186.254506 L 95.74587 185.638981 L 94.617406 185.946743 L 92.052715 183.458993 L 87.872269 183.458993 L 88.61603 180.560893 L 84.692053 178.586081 L 86.102633 176.457387 L 84.204761 174.867279 L 86.307808 171.764003 L 81.486189 167.044972 L 82.281243 166.019096 L 78.870204 162.761938 L 77.100568 165.916508 L 74.920581 165.377923 L 74.51023 166.608975 L 72.868828 167.14756 L 72.253302 168.122142 L 70.663194 168.22473 L 69.226967 170.532952 L 68.508853 170.071307 L 67.944621 167.763085 L 66.174985 167.275794 L 64.687464 167.737439 L 64.354054 166.634621 L 63.405119 166.660268 L 62.353595 168.250377 L 60.455724 166.070389 L 56.685629 166.326859 L 56.5061 164.480281 L 54.172232 164.454634 L 51.889657 165.73698 L 48.350383 165.172748 L 47.940033 164.275106 L 47.709211 165.300982 L 46.272984 165.81392 L 46.503806 164.711103 L 45.760046 164.813691 L 44.272525 163.197936 L 40.24596 160.992302 L 40.24596 159.607369 L 39.425259 160.09466 L 36.142455 157.504322 L 36.296336 156.657974 L 33.11612 155.11916 L 33.834233 154.298459 L 33.629058 153.195641 L 31.218249 152.503175 L 29.935903 150.374482 L 28.448383 150.143659 L 27.909797 151.374711 L 25.165578 150.733538 L 25.088638 149.528134 L 27.961091 148.963902 L 25.3964 147.142971 L 25.498988 146.476151 L 26.576158 146.117095 L 25.3964 145.2451 L 23.293354 145.065571 L 21.780186 146.296623 L 20.369606 144.603927 L 18.240913 145.57851 L 17.651034 146.98909 L 17.240684 145.039925 L 15.394106 143.654992 L 14.650346 145.629803 L 12.880709 146.373564 L 10.239078 135.601862 L 13.342353 127.292264 L 14.188701 126.651091 L 16.932921 128.010377 L 18.061385 129.831308 L 20.831251 129.65178 L 22.806063 130.421187 L 28.807439 129.72872 L 29.320377 130.139071 L 28.499676 130.780244 L 31.449071 132.601174 L 32.321066 130.626362 L 31.756834 127.933437 L 38.527618 119.44431 L 36.604099 118.623609 L 37.527388 113.904578 L 34.218937 112.776114 L 35.655164 107.698026 L 46.119102 109.724132 L 46.349925 106.466974 L 42.349007 105.030747 L 42.272066 102.363469 L 40.630664 102.004412 L 41.092308 101.183711 L 46.426865 100.0296 L 43.477471 92.463762 L 42.041244 90.540244 L 42.631123 88.950136 L 36.860568 89.796484 L 35.347401 88.078141 L 30.807898 87.565203 L 28.986968 86.539327 L 29.910256 84.846631 L 28.961321 84.384986 L 30.012844 83.718167 L 29.807669 82.102411 L 27.858504 81.871589 L 26.601805 80.486656 L 26.73004 76.562679 L 26.037573 74.844336 L 27.499447 74.305751 L 27.14039 71.458944 L 21.857127 68.381315 L 20.497841 68.971194 L 16.52257 68.330022 L 15.496694 65.35498 L 13.932232 65.329333 L 12.239536 66.893795 L 10.675075 65.124158 L 9.444023 65.35498 L 7.392271 63.687931 L 5.468753 59.815248 L 3.981232 60.225599 L 3.314412 59.558779 L 1.365247 54.044694 L 8.956732 44.016752 L 6.879333 41.144299 L 6.64851 37.912788 L 7.366624 35.604566 L 9.572258 34.835159 L 8.802851 31.988352 L 11.470129 32.244821 L 11.931774 32.885994 L 12.188243 32.167881 L 13.675763 32.603878 L 13.752704 33.937517 L 14.675993 34.142693 L 16.727745 31.34718 L 16.599511 29.731424 L 19.651493 28.423432 L 22.318771 25.550978 L 25.293813 27.038499 L 25.678516 26.012623 L 28.371442 27.294968 L 28.679205 26.371679 L 30.064138 26.422973 L 30.679664 23.114522 L 33.270001 23.242757 L 35.193519 21.934764 L 32.859651 20.370303 L 35.219166 17.061852 L 38.861027 19.703483 L 38.75844 17.061852 L 40.656311 17.010558 L 41.98995 15.49739 L 43.144061 17.420908 L 44.452053 17.549143 L 47.042391 19.908659 L 47.734858 19.267486 L 49.145438 20.216421 L 49.889198 18.98537 L 48.632499 17.318321 L 52.60777 17.061852 L 54.095291 15.933388 L 56.634335 16.548914 L 56.352219 17.087499 L 57.352448 17.831259 L 58.634794 17.831259 L 58.942557 16.600207 L 59.99408 16.292444 L 60.378783 14.522808 L 58.686088 14.08681 L 59.070791 13.317403 L 64.584876 12.932699 L 69.150026 8.162374 L 69.406495 6.828735 L 68.688382 6.136269 L 71.35566 4.315338 L 71.740364 5.238627 L 72.791887 4.725689 L 73.971645 5.418155 L 75.382225 3.366403 L 78.07515 4.289691 L 88.026151 2.289232 L 94.796935 4.520513 L 95.899752 7.777671 L 96.976922 7.29038 L 100.285373 12.342821 L 103.388649 14.804924 L 102.721829 16.446326 L 104.568407 19.985599 L 109.620848 20.47289 L 110.467196 19.959952 L 110.056845 19.190545 L 112.390714 18.087728 L 114.288585 15.907741 L 115.032345 17.933847 L 118.007387 17.933847 L 119.084557 19.39572 L 121.008075 19.754777 L 121.085016 20.72936 L 122.649477 21.216651 L 125.316756 20.780653 L 125.7784 21.857824 L 124.547348 21.986058 L 124.855111 23.345344 L 123.62406 24.70463 L 127.112039 27.52579 L 129.881905 28.115669 L 131.856717 26.089563 L 132.728712 22.781112 L 133.523766 23.063228 L 134.626583 21.703942 L 136.883511 21.216651 L 138.47362 18.908429 L 142.987475 17.549143 L 145.064875 15.49739 L 150.066022 13.7534 L 156.605984 13.599519 L 158.29868 14.291986 L 162.427832 13.599519 L 162.350891 12.727524 L 164.633466 12.445408 L 165.684989 13.112228 L 175.789871 8.085434 L 177.277392 5.110392 L 178.8675 3.904988 L 184.561114 4.392279 Z M 189.280145 1.417238 " stroke="#ffffff" stroke-width="1.19" stroke-opacity="1" stroke-miterlimit="4"/></g><path fill="#ff5757" d="M 7.855469 11.410156 L 7.855469 10.117188 L 8.050781 10.117188 L 8.050781 10.734375 L 8.066406 10.734375 L 8.605469 10.117188 L 8.851562 10.117188 L 8.332031 10.699219 L 8.855469 11.410156 L 8.621094 11.410156 L 8.203125 10.832031 L 8.050781 11.007812 L 8.050781 11.410156 Z M 9.207031 10.832031 L 9.207031 11.410156 L 9.019531 11.410156 L 9.019531 10.117188 L 9.203125 10.117188 L 9.203125 10.597656 L 9.21875 10.597656 C 9.238281 10.546875 9.273438 10.503906 9.320312 10.472656 C 9.367188 10.441406 9.429688 10.425781 9.503906 10.425781 C 9.570312 10.425781 9.628906 10.441406 9.679688 10.46875 C 9.726562 10.496094 9.765625 10.535156 9.792969 10.589844 C 9.820312 10.644531 9.835938 10.710938 9.835938 10.792969 L 9.835938 11.410156 L 9.648438 11.410156 L 9.648438 10.816406 C 9.648438 10.742188 9.628906 10.6875 9.59375 10.648438 C 9.554688 10.609375 9.503906 10.589844 9.441406 10.589844 C 9.394531 10.589844 9.355469 10.601562 9.320312 10.617188 C 9.285156 10.636719 9.257812 10.664062 9.238281 10.703125 C 9.21875 10.738281 9.207031 10.78125 9.207031 10.832031 Z M 10.371094 11.429688 C 10.308594 11.429688 10.253906 11.417969 10.203125 11.394531 C 10.152344 11.371094 10.113281 11.339844 10.085938 11.296875 C 10.054688 11.253906 10.042969 11.199219 10.042969 11.136719 C 10.042969 11.082031 10.050781 11.035156 10.074219 11 C 10.09375 10.964844 10.125 10.9375 10.160156 10.914062 C 10.195312 10.894531 10.234375 10.878906 10.277344 10.871094 C 10.324219 10.859375 10.367188 10.851562 10.414062 10.84375 C 10.472656 10.839844 10.519531 10.832031 10.554688 10.828125 C 10.589844 10.824219 10.617188 10.816406 10.632812 10.808594 C 10.652344 10.796875 10.660156 10.78125 10.660156 10.757812 L 10.660156 10.753906 C 10.660156 10.699219 10.644531 10.65625 10.613281 10.625 C 10.582031 10.59375 10.535156 10.578125 10.472656 10.578125 C 10.410156 10.578125 10.359375 10.59375 10.324219 10.621094 C 10.289062 10.648438 10.261719 10.679688 10.25 10.714844 L 10.070312 10.675781 C 10.09375 10.617188 10.125 10.566406 10.164062 10.53125 C 10.203125 10.496094 10.25 10.46875 10.304688 10.453125 C 10.359375 10.433594 10.414062 10.425781 10.472656 10.425781 C 10.511719 10.425781 10.550781 10.429688 10.59375 10.441406 C 10.640625 10.449219 10.679688 10.464844 10.71875 10.488281 C 10.753906 10.515625 10.785156 10.546875 10.8125 10.59375 C 10.835938 10.636719 10.847656 10.695312 10.847656 10.765625 L 10.847656 11.410156 L 10.664062 11.410156 L 10.664062 11.277344 L 10.65625 11.277344 C 10.644531 11.300781 10.625 11.324219 10.601562 11.347656 C 10.578125 11.371094 10.546875 11.390625 10.507812 11.40625 C 10.46875 11.421875 10.421875 11.429688 10.371094 11.429688 Z M 10.410156 11.277344 C 10.460938 11.277344 10.507812 11.269531 10.542969 11.246094 C 10.582031 11.226562 10.609375 11.199219 10.628906 11.167969 C 10.648438 11.132812 10.660156 11.097656 10.660156 11.058594 L 10.660156 10.933594 C 10.652344 10.941406 10.640625 10.949219 10.621094 10.953125 C 10.601562 10.957031 10.578125 10.964844 10.554688 10.96875 C 10.53125 10.972656 10.507812 10.976562 10.484375 10.976562 C 10.460938 10.980469 10.441406 10.984375 10.425781 10.984375 C 10.390625 10.992188 10.355469 11 10.324219 11.007812 C 10.296875 11.019531 10.273438 11.035156 10.253906 11.058594 C 10.234375 11.078125 10.226562 11.105469 10.226562 11.136719 C 10.226562 11.183594 10.246094 11.21875 10.277344 11.242188 C 10.3125 11.265625 10.355469 11.277344 10.410156 11.277344 Z M 11.097656 11.410156 L 11.097656 10.441406 L 11.28125 10.441406 L 11.28125 10.59375 L 11.292969 10.59375 C 11.308594 10.542969 11.339844 10.5 11.386719 10.46875 C 11.429688 10.441406 11.480469 10.425781 11.539062 10.425781 C 11.550781 10.425781 11.5625 10.425781 11.578125 10.425781 C 11.597656 10.425781 11.609375 10.429688 11.617188 10.429688 L 11.617188 10.609375 C 11.609375 10.609375 11.597656 10.605469 11.578125 10.601562 C 11.558594 10.601562 11.539062 10.597656 11.519531 10.597656 C 11.476562 10.597656 11.433594 10.609375 11.398438 10.625 C 11.367188 10.644531 11.339844 10.671875 11.316406 10.703125 C 11.296875 10.738281 11.289062 10.773438 11.289062 10.816406 L 11.289062 11.410156 Z M 11.953125 11.078125 L 11.953125 10.851562 L 11.984375 10.851562 L 12.371094 10.441406 L 12.597656 10.441406 L 12.15625 10.90625 L 12.128906 10.90625 Z M 11.78125 11.410156 L 11.78125 10.117188 L 11.96875 10.117188 L 11.96875 11.410156 Z M 12.394531 11.410156 L 12.046875 10.949219 L 12.175781 10.816406 L 12.625 11.410156 Z M 12.769531 11.410156 L 12.769531 10.441406 L 12.957031 10.441406 L 12.957031 11.410156 Z M 12.867188 10.289062 C 12.832031 10.289062 12.804688 10.277344 12.78125 10.257812 C 12.757812 10.234375 12.746094 10.207031 12.746094 10.175781 C 12.746094 10.148438 12.757812 10.121094 12.78125 10.097656 C 12.804688 10.074219 12.832031 10.066406 12.867188 10.066406 C 12.898438 10.066406 12.925781 10.074219 12.949219 10.097656 C 12.972656 10.121094 12.984375 10.148438 12.984375 10.175781 C 12.984375 10.207031 12.972656 10.234375 12.949219 10.257812 C 12.925781 10.277344 12.898438 10.289062 12.867188 10.289062 Z M 14.042969 10.441406 L 13.691406 11.410156 L 13.488281 11.410156 L 13.136719 10.441406 L 13.339844 10.441406 L 13.585938 11.183594 L 13.59375 11.183594 L 13.839844 10.441406 Z M 14.042969 10.441406 " fill-opacity="1" fill-rule="nonzero"/><g mask="url(#ffc70fa9f6)"><g transform="matrix(1, 0, 0, 1, 12, 16)"><g clip-path="url(#9879e15a70)"><g clip-path="url(#1c249b8b99)"><path fill="#ff5757" d="M 1.03125 3.632812 L 1.03125 0.976562 L 1.429688 0.976562 L 1.429688 2.246094 L 1.464844 2.246094 L 2.578125 0.976562 L 3.082031 0.976562 L 2.011719 2.171875 L 3.085938 3.632812 L 2.605469 3.632812 L 1.746094 2.445312 L 1.429688 2.804688 L 1.429688 3.632812 Z M 3.347656 3.632812 L 3.347656 0.976562 L 3.75 0.976562 L 3.75 2.128906 L 5.074219 2.128906 L 5.074219 0.976562 L 5.476562 0.976562 L 5.476562 3.632812 L 5.074219 3.632812 L 5.074219 2.472656 L 3.75 2.472656 L 3.75 3.632812 Z M 6.175781 3.632812 L 5.75 3.632812 L 6.707031 0.976562 L 7.171875 0.976562 L 8.128906 3.632812 L 7.699219 3.632812 L 6.949219 1.457031 L 6.929688 1.457031 Z M 6.246094 2.59375 L 7.628906 2.59375 L 7.628906 2.929688 L 6.246094 2.929688 Z M 8.402344 3.632812 L 8.402344 0.976562 L 9.347656 0.976562 C 9.554688 0.976562 9.726562 1.011719 9.863281 1.082031 C 10 1.152344 10.101562 1.25 10.167969 1.375 C 10.234375 1.5 10.269531 1.644531 10.269531 1.808594 C 10.269531 1.972656 10.234375 2.113281 10.167969 2.238281 C 10.097656 2.359375 9.996094 2.457031 9.859375 2.523438 C 9.722656 2.59375 9.554688 2.628906 9.347656 2.628906 L 8.628906 2.628906 L 8.628906 2.28125 L 9.3125 2.28125 C 9.441406 2.28125 9.546875 2.261719 9.628906 2.226562 C 9.710938 2.1875 9.769531 2.136719 9.808594 2.0625 C 9.847656 1.992188 9.867188 1.90625 9.867188 1.808594 C 9.867188 1.707031 9.847656 1.621094 9.808594 1.546875 C 9.769531 1.472656 9.707031 1.417969 9.625 1.378906 C 9.546875 1.339844 9.4375 1.320312 9.304688 1.320312 L 8.800781 1.320312 L 8.800781 3.632812 Z M 9.714844 2.433594 L 10.371094 3.632812 L 9.914062 3.632812 L 9.269531 2.433594 Z M 10.648438 3.632812 L 10.648438 0.976562 L 11.046875 0.976562 L 11.046875 2.246094 L 11.082031 2.246094 L 12.195312 0.976562 L 12.699219 0.976562 L 11.628906 2.171875 L 12.703125 3.632812 L 12.222656 3.632812 L 11.363281 2.445312 L 11.046875 2.804688 L 11.046875 3.632812 Z M 13.367188 0.976562 L 13.367188 3.632812 L 12.964844 3.632812 L 12.964844 0.976562 Z M 14.074219 0.976562 L 14.8125 3.140625 L 14.84375 3.140625 L 15.582031 0.976562 L 16.015625 0.976562 L 15.058594 3.632812 L 14.597656 3.632812 L 13.640625 0.976562 Z M 14.074219 0.976562 " fill-opacity="1" fill-rule="nonzero"/></g></g></g></g></svg>