<svg xmlns="http://www.w3.org/2000/svg" xmlns:xlink="http://www.w3.org/1999/xlink" width="50" zoomAndPan="magnify" viewBox="0 0 37.5 37.499999" height="50" preserveAspectRatio="xMidYMid meet" version="1.0"><defs><filter x="0%" y="0%" width="100%" height="100%" id="e367852893"><feColorMatrix values="0 0 0 0 1 0 0 0 0 1 0 0 0 0 1 0 0 0 1 0" color-interpolation-filters="sRGB"/></filter><clipPath id="1d46866ee1"><path d="M 9.105469 1.097656 L 27.605469 1.097656 L 27.605469 35.882812 L 9.105469 35.882812 Z M 9.105469 1.097656 " clip-rule="nonzero"/></clipPath><clipPath id="60e4c5a8dc"><path d="M 10 21 L 27.605469 21 L 27.605469 24 L 10 24 Z M 10 21 " clip-rule="nonzero"/></clipPath><mask id="33a97dd95f"><g filter="url(#e367852893)"><rect x="-3.75" width="45" fill="#000000" y="-3.75" height="44.999999" fill-opacity="0.08"/></g></mask><clipPath id="0818bca4e3"><path d="M 0.65625 0.789062 L 17.238281 0.789062 L 17.238281 2.683594 L 0.65625 2.683594 Z M 0.65625 0.789062 " clip-rule="nonzero"/></clipPath><clipPath id="8ec7bb55ae"><rect x="0" width="18" y="0" height="3"/></clipPath></defs><g clip-path="url(#1d46866ee1)"><path stroke-linecap="round" transform="matrix(0.146751, 0, 0, 0.146751, 8.975686, 1.081818)" fill-opacity="1" fill="#000000" fill-rule="nonzero" stroke-linejoin="round" d="M 7.85835 47.00926 L 8.656897 47.781189 L 12.676251 46.956023 L 13.874072 45.145983 L 13.980545 43.149615 L 15.338075 41.499285 L 17.973281 39.15688 L 19.384047 39.023788 L 20.502013 37.613022 L 28.274538 37.79935 L 27.475991 37.373458 L 27.369518 35.856218 L 28.913376 35.749745 L 28.460866 34.791489 L 29.552214 33.913087 L 29.845015 32.449084 L 31.149308 32.741884 L 31.096072 31.703773 L 32.134183 31.703773 L 31.734909 30.266388 L 34.157169 29.228277 L 35.221899 26.087325 L 38.549178 26.433362 L 39.42758 23.372265 L 40.94482 23.665065 L 41.796603 20.257931 L 43.100897 20.603968 L 43.50017 17.223452 L 44.910937 17.436398 L 44.245481 15.945776 L 44.804464 13.736463 L 45.523157 13.523517 L 45.230356 15.546503 L 48.477781 14.801192 L 48.717345 13.92279 L 46.774214 14.53501 L 47.067014 12.405551 L 47.705852 12.378933 L 48.291453 10.941548 L 50.713713 10.861693 L 51.246078 8.891943 L 51.938152 8.678998 L 53.402155 10.249474 L 56.64958 6.123647 L 58.885512 7.667504 L 62.399119 8.599143 L 62.931484 7.401322 L 64.395487 6.789103 L 65.060943 4.553171 L 68.787496 5.378336 L 68.973824 2.689894 L 72.088158 0.746763 L 73.152887 1.465455 L 73.179505 4.473316 L 77.731224 4.26037 L 78.769335 7.640886 L 82.362797 9.717109 L 82.948399 12.245841 L 85.210949 12.086132 L 84.705202 15.919158 L 82.309561 19.991749 L 81.697342 23.106082 L 86.621716 26.060707 L 86.462006 30.23977 L 90.02885 30.293007 L 91.279907 31.277881 L 93.80864 33.85985 L 92.584201 34.31236 L 92.90362 34.977816 L 91.759035 34.844725 L 94.048204 36.920948 L 94.10144 36.361965 L 95.538825 36.468438 L 95.565443 38.065532 L 98.200649 38.54466 L 98.919341 40.407937 L 100.968946 41.898558 L 101.66102 41.87194 L 102.672513 39.715863 L 106.585394 38.438187 L 106.319211 43.282707 L 107.330704 43.069761 L 108.475289 48.073989 L 109.806201 47.887662 L 109.380309 46.210713 L 111.350058 45.598493 L 111.429913 48.100608 L 112.574497 49.484756 L 109.087508 51.028614 L 108.634998 53.450873 L 109.806201 54.355893 L 108.555143 54.515603 L 108.847944 55.660187 L 107.889687 57.523464 L 111.616241 58.561575 L 112.521261 63.086675 L 111.589622 64.284496 L 109.699728 63.033439 L 107.517032 66.653519 L 105.041536 65.029807 L 104.083279 64.97657 L 103.790479 65.828354 L 103.01855 65.934827 L 103.071786 68.090904 L 104.855208 72.908805 L 103.710624 73.308079 L 103.577533 74.612372 L 102.885459 74.745463 L 102.938695 77.939652 L 103.896952 78.152598 L 104.642262 77.300814 L 106.505539 79.510128 L 108.581762 79.243946 L 107.596887 81.053986 L 108.581762 83.822283 L 108.315579 85.126576 L 110.924167 89.811386 L 111.642859 88.533711 L 115.901777 89.252403 L 114.091737 92.819247 L 116.221196 93.245139 L 120.293786 97.504057 L 121.731171 97.264493 L 122.157063 95.560925 L 123.487975 95.268125 L 123.647684 97.237874 L 121.464989 99.473806 L 121.811026 100.352208 L 118.43051 100.804718 L 118.670074 104.344944 L 121.811026 106.66073 L 121.89088 108.816808 L 121.731171 110.041247 L 120.879387 109.508882 L 120.293786 111.452013 L 119.069347 112.010996 L 118.031236 114.033982 L 120.639823 116.509478 L 120.426877 119.251157 L 119.149202 120.422359 L 117.791672 118.718792 L 116.593851 119.410866 L 116.567233 123.084183 L 119.894513 124.015821 L 119.442003 125.133787 L 118.483746 125.053933 L 117.898145 126.651027 L 117.046361 127.902084 L 117.472253 129.206378 L 118.643455 128.700631 L 120.559969 129.579033 L 121.43837 129.232996 L 122.982228 130.963181 L 124.632559 130.324344 L 123.434738 134.237225 L 121.89088 134.876062 L 122.023972 135.781082 L 123.141938 135.96741 L 123.168556 136.87243 L 122.023972 137.085376 L 122.130445 138.309815 L 124.126812 139.081744 L 125.351251 141.504004 L 124.845505 143.36728 L 125.644052 144.831283 L 125.564197 146.801033 L 124.632559 148.265036 L 126.389363 150.31464 L 125.138305 151.405988 L 125.883616 153.908102 L 127.214528 153.748393 L 127.667038 154.360612 L 128.119548 156.862727 L 127.054819 157.927456 L 125.005214 158.513057 L 123.487975 157.448328 L 122.5031 157.581419 L 122.183681 156.649781 L 120.586587 157.954074 L 119.548476 155.90447 L 119.654948 158.566294 L 117.871527 159.790733 L 118.084472 160.58928 L 116.753561 161.920192 L 115.023375 161.174881 L 113.772318 162.026665 L 109.673109 158.965567 L 109.06089 159.68426 L 106.399066 160.163388 L 106.691867 162.55903 L 105.201245 163.996414 L 102.007057 161.920192 L 102.220003 163.91656 L 100.14378 163.01154 L 99.105669 163.889941 L 99.717888 165.7266 L 98.174031 167.589877 L 99.558179 169.50639 L 95.16617 169.719336 L 91.040343 176.320658 L 92.371255 177.172442 L 91.971981 178.343645 L 93.622312 180.446485 L 93.542457 182.229907 L 91.971981 183.747147 L 91.812272 187.500318 L 93.569076 190.215379 L 93.622312 194.767097 L 93.622312 195.991536 L 93.19642 197.695103 L 94.341004 199.478525 L 92.823765 201.741075 L 93.010093 202.513004 L 91.572708 202.672714 L 91.652562 203.764062 L 93.116566 205.494247 L 92.264782 206.931632 L 93.435984 210.205675 L 91.625944 212.627935 L 90.401505 217.445836 L 88.96412 217.578927 L 88.325283 220.001187 L 86.674952 220.773115 L 83.853419 218.217765 L 81.324686 218.271001 L 80.765703 219.894714 L 82.682216 222.556537 L 81.324686 224.47305 L 75.468674 222.583156 L 73.765107 223.301848 L 72.168012 225.218361 L 69.825608 225.324834 L 63.703413 223.860831 L 63.037957 221.970936 L 61.387626 223.301848 L 58.566093 223.461557 L 56.702816 226.309709 L 55.079104 227.05502 L 52.257571 225.165125 L 50.846804 222.583156 L 51.272696 220.187514 L 49.728838 219.575295 L 47.89218 221.145771 L 49.169855 224.313341 L 47.972034 226.496037 L 46.53465 226.283091 L 45.789339 222.929193 L 44.351954 221.970936 L 43.713116 222.902574 L 45.044028 224.233486 L 45.363447 225.803962 L 45.123883 227.294584 L 44.272099 228.039894 L 42.515296 227.986658 L 39.294489 224.872324 L 37.61754 224.845706 L 36.55281 225.644253 L 36.26001 226.762219 L 36.925466 227.667239 L 40.439073 227.134874 L 40.811728 228.811823 L 42.914569 230.701718 L 43.340461 232.139103 L 42.14264 233.017505 L 39.267871 233.070741 L 37.564303 230.834809 L 35.913973 230.728336 L 35.674409 232.112485 L 37.00532 235.572856 L 35.088807 236.690822 L 31.681673 235.972129 L 26.89039 226.708982 L 23.829293 227.454293 L 23.27031 226.4428 L 21.380415 227.05502 L 19.49052 224.659378 L 18.718591 226.89531 L 17.866808 226.921928 L 18.239463 225.244979 L 16.189859 224.127013 L 17.760335 222.157264 L 16.642369 222.316973 L 15.311457 219.575295 L 13.048907 218.297619 L 15.204984 217.52569 L 14.885565 216.833616 L 12.809342 216.567434 L 14.193491 214.81063 L 11.505049 215.609177 L 11.824468 213.160299 L 9.748245 213.293391 L 9.66839 211.616442 L 8.364097 211.829388 L 8.01806 211.19055 L 9.295735 210.045966 L 8.603661 208.794908 L 9.535299 205.813666 L 8.071296 204.110099 L 9.428826 204.482754 L 9.641772 203.977007 L 8.550424 203.151842 L 9.002934 201.52813 L 7.512313 201.128856 L 6.95333 199.265579 L 7.485695 198.759833 L 8.92308 200.037508 L 8.257624 197.535394 L 9.854718 198.067759 L 10.57341 197.13612 L 8.896461 196.84332 L 7.672023 193.462804 L 6.580675 192.877202 L 7.379222 190.321851 L 6.767002 188.458575 L 8.01806 187.02119 L 7.219512 186.755008 L 6.101547 187.633409 L 5.276381 186.089552 L 6.128165 186.089552 L 5.915219 184.279512 L 6.926712 182.229907 L 4.770635 180.180303 L 7.272749 178.982482 L 5.249763 178.476736 L 4.823871 177.598334 L 5.808746 176.853023 L 7.033185 177.278915 L 7.459077 176.533604 L 6.261256 174.750182 L 6.95333 173.525744 L 5.302999 171.369666 L 7.459077 169.426535 L 5.782128 169.000643 L 6.607293 166.498529 L 6.101547 163.277722 L 6.633911 162.692121 L 5.622418 159.817351 L 7.139658 159.577787 L 5.622418 158.459821 L 5.968455 157.368473 L 5.249763 155.744761 L 5.995074 154.121048 L 5.649036 153.216028 L 6.527438 153.003082 L 6.607293 150.580823 L 9.535299 150.634059 L 9.455444 149.489475 L 10.493556 148.5046 L 9.428826 146.934124 L 10.360465 147.120452 L 9.961191 146.002486 L 10.706502 145.656449 L 9.8281 144.698192 L 9.881336 143.154334 L 8.284242 141.610477 L 8.284242 139.241453 L 9.455444 139.427781 L 8.710134 138.017014 L 9.482063 136.925667 L 7.884968 135.940792 L 8.789989 133.465296 L 5.995074 130.191253 L 5.808746 124.601423 L 2.26852 121.247525 L 4.664162 116.961988 L 6.154783 116.056968 L 6.633911 117.174934 L 7.725259 116.802279 L 6.926712 113.661327 L 7.40584 112.782925 L 6.394347 110.413902 L 8.284242 108.763571 L 8.736752 107.379423 L 10.520174 107.485896 L 10.57341 105.808947 L 11.691376 105.329819 L 11.451812 103.972288 L 9.269117 101.496792 L 5.728891 99.207624 L 7.352604 96.625655 L 9.561917 95.321361 L 9.162644 92.100554 L 8.124533 91.435098 L 7.459077 88.24091 L 4.770635 84.16832 L 6.447584 81.825915 L 3.546196 80.335293 L 3.413104 79.616601 L 1.549828 78.684963 L 1.549828 77.806561 L 3.78576 75.996521 L 2.401611 72.030403 L 2.641176 69.874326 L 4.051942 68.75636 L 4.131797 67.771485 L 6.420965 67.957813 L 7.139658 65.295989 L 4.744016 64.390969 L 6.234638 63.139912 L 7.592168 63.086675 L 7.645404 62.021946 L 8.284242 62.021946 L 7.964823 60.45147 L 6.527438 59.466595 L 6.447584 56.165934 L 11.664758 55.819896 L 11.664758 54.595458 L 8.869843 52.43938 L 9.482063 51.188323 L 8.01806 51.24156 L 7.033185 50.043739 L 7.698641 49.431519 L 7.246131 47.648097 Z M 7.85835 47.00926 " stroke="#ffffff" stroke-width="1.19" stroke-opacity="1" stroke-miterlimit="4"/></g><path fill="#ff5757" d="M 13.242188 18.039062 L 13.242188 16.792969 L 13.429688 16.792969 L 13.429688 17.386719 L 13.445312 17.386719 L 13.964844 16.792969 L 14.203125 16.792969 L 13.699219 17.351562 L 14.203125 18.039062 L 13.980469 18.039062 L 13.578125 17.480469 L 13.429688 17.652344 L 13.429688 18.039062 Z M 14.546875 17.484375 L 14.546875 18.039062 L 14.363281 18.039062 L 14.363281 16.792969 L 14.542969 16.792969 L 14.542969 17.253906 L 14.554688 17.253906 C 14.578125 17.207031 14.609375 17.164062 14.65625 17.136719 C 14.699219 17.105469 14.757812 17.089844 14.832031 17.089844 C 14.894531 17.089844 14.953125 17.105469 15 17.132812 C 15.046875 17.15625 15.085938 17.195312 15.109375 17.25 C 15.136719 17.300781 15.152344 17.367188 15.152344 17.445312 L 15.152344 18.039062 L 14.96875 18.039062 L 14.96875 17.464844 C 14.96875 17.398438 14.953125 17.34375 14.917969 17.304688 C 14.882812 17.269531 14.832031 17.25 14.769531 17.25 C 14.726562 17.25 14.6875 17.257812 14.652344 17.277344 C 14.621094 17.292969 14.59375 17.320312 14.574219 17.355469 C 14.554688 17.390625 14.546875 17.433594 14.546875 17.484375 Z M 15.394531 18.039062 L 15.394531 17.105469 L 15.566406 17.105469 L 15.566406 17.253906 L 15.578125 17.253906 C 15.597656 17.203125 15.632812 17.164062 15.675781 17.136719 C 15.71875 17.105469 15.773438 17.089844 15.832031 17.089844 C 15.894531 17.089844 15.949219 17.105469 15.992188 17.136719 C 16.03125 17.164062 16.066406 17.203125 16.085938 17.253906 L 16.09375 17.253906 C 16.117188 17.207031 16.152344 17.167969 16.199219 17.136719 C 16.25 17.105469 16.308594 17.089844 16.375 17.089844 C 16.460938 17.089844 16.527344 17.117188 16.582031 17.171875 C 16.636719 17.222656 16.664062 17.304688 16.664062 17.410156 L 16.664062 18.039062 L 16.480469 18.039062 L 16.480469 17.429688 C 16.480469 17.367188 16.464844 17.320312 16.429688 17.292969 C 16.394531 17.261719 16.355469 17.25 16.304688 17.25 C 16.246094 17.25 16.199219 17.265625 16.167969 17.304688 C 16.136719 17.339844 16.117188 17.386719 16.117188 17.441406 L 16.117188 18.039062 L 15.9375 18.039062 L 15.9375 17.417969 C 15.9375 17.367188 15.921875 17.324219 15.890625 17.292969 C 15.859375 17.265625 15.816406 17.25 15.765625 17.25 C 15.734375 17.25 15.699219 17.257812 15.671875 17.277344 C 15.644531 17.292969 15.621094 17.320312 15.601562 17.351562 C 15.585938 17.382812 15.574219 17.417969 15.574219 17.460938 L 15.574219 18.039062 Z M 17.308594 18.054688 C 17.21875 18.054688 17.136719 18.035156 17.070312 17.996094 C 17.003906 17.957031 16.953125 17.902344 16.917969 17.832031 C 16.882812 17.757812 16.863281 17.671875 16.863281 17.578125 C 16.863281 17.480469 16.882812 17.398438 16.917969 17.324219 C 16.953125 17.25 17.003906 17.195312 17.070312 17.152344 C 17.132812 17.113281 17.210938 17.089844 17.296875 17.089844 C 17.347656 17.089844 17.398438 17.101562 17.449219 17.117188 C 17.5 17.136719 17.542969 17.164062 17.582031 17.199219 C 17.621094 17.238281 17.652344 17.285156 17.675781 17.34375 C 17.699219 17.40625 17.710938 17.476562 17.710938 17.5625 L 17.710938 17.625 L 16.96875 17.625 L 16.96875 17.488281 L 17.53125 17.488281 C 17.53125 17.441406 17.523438 17.398438 17.503906 17.363281 C 17.484375 17.324219 17.457031 17.296875 17.421875 17.273438 C 17.386719 17.253906 17.34375 17.242188 17.296875 17.242188 C 17.246094 17.242188 17.203125 17.253906 17.164062 17.28125 C 17.125 17.304688 17.097656 17.335938 17.078125 17.375 C 17.054688 17.417969 17.046875 17.460938 17.046875 17.507812 L 17.046875 17.613281 C 17.046875 17.675781 17.058594 17.726562 17.078125 17.773438 C 17.101562 17.816406 17.132812 17.847656 17.171875 17.871094 C 17.210938 17.894531 17.257812 17.90625 17.3125 17.90625 C 17.34375 17.90625 17.375 17.902344 17.40625 17.890625 C 17.433594 17.882812 17.457031 17.867188 17.480469 17.847656 C 17.5 17.828125 17.515625 17.800781 17.527344 17.773438 L 17.699219 17.804688 C 17.683594 17.855469 17.660156 17.898438 17.625 17.9375 C 17.589844 17.976562 17.542969 18.003906 17.492188 18.027344 C 17.4375 18.046875 17.378906 18.054688 17.308594 18.054688 Z M 18.09375 16.792969 L 18.09375 18.039062 L 17.910156 18.039062 L 17.910156 16.792969 Z M 18.519531 17.484375 L 18.519531 18.039062 L 18.335938 18.039062 L 18.335938 17.105469 L 18.511719 17.105469 L 18.511719 17.253906 L 18.523438 17.253906 C 18.546875 17.207031 18.578125 17.167969 18.625 17.136719 C 18.671875 17.105469 18.730469 17.089844 18.800781 17.089844 C 18.863281 17.089844 18.917969 17.105469 18.964844 17.132812 C 19.015625 17.160156 19.050781 17.199219 19.078125 17.25 C 19.105469 17.300781 19.117188 17.367188 19.117188 17.445312 L 19.117188 18.039062 L 18.933594 18.039062 L 18.933594 17.464844 C 18.933594 17.398438 18.917969 17.34375 18.882812 17.308594 C 18.847656 17.269531 18.796875 17.25 18.738281 17.25 C 18.695312 17.25 18.65625 17.257812 18.625 17.277344 C 18.59375 17.292969 18.566406 17.320312 18.546875 17.355469 C 18.527344 17.390625 18.519531 17.433594 18.519531 17.484375 Z M 19.441406 18.386719 C 19.414062 18.386719 19.390625 18.386719 19.367188 18.382812 C 19.347656 18.378906 19.328125 18.371094 19.320312 18.367188 L 19.363281 18.21875 C 19.394531 18.226562 19.425781 18.230469 19.449219 18.230469 C 19.476562 18.230469 19.5 18.21875 19.519531 18.203125 C 19.539062 18.183594 19.558594 18.152344 19.574219 18.113281 L 19.59375 18.050781 L 19.253906 17.105469 L 19.449219 17.105469 L 19.683594 17.828125 L 19.695312 17.828125 L 19.929688 17.105469 L 20.125 17.105469 L 19.742188 18.164062 C 19.722656 18.210938 19.699219 18.253906 19.671875 18.285156 C 19.644531 18.320312 19.613281 18.34375 19.574219 18.363281 C 19.535156 18.378906 19.492188 18.386719 19.441406 18.386719 Z M 20.734375 17.105469 L 20.734375 17.25 L 20.222656 17.25 L 20.222656 17.105469 Z M 20.359375 16.878906 L 20.542969 16.878906 L 20.542969 17.761719 C 20.542969 17.796875 20.546875 17.824219 20.558594 17.84375 C 20.566406 17.859375 20.582031 17.871094 20.597656 17.878906 C 20.613281 17.886719 20.632812 17.886719 20.652344 17.886719 C 20.667969 17.886719 20.679688 17.886719 20.691406 17.886719 C 20.703125 17.882812 20.710938 17.882812 20.71875 17.878906 L 20.75 18.03125 C 20.738281 18.035156 20.726562 18.039062 20.707031 18.042969 C 20.6875 18.046875 20.660156 18.050781 20.632812 18.050781 C 20.585938 18.050781 20.539062 18.042969 20.5 18.023438 C 20.457031 18.007812 20.421875 17.980469 20.398438 17.941406 C 20.371094 17.90625 20.359375 17.859375 20.359375 17.800781 Z M 21.617188 17.332031 L 21.453125 17.359375 C 21.449219 17.339844 21.4375 17.320312 21.421875 17.300781 C 21.40625 17.28125 21.386719 17.265625 21.363281 17.253906 C 21.335938 17.242188 21.304688 17.234375 21.265625 17.234375 C 21.214844 17.234375 21.171875 17.246094 21.136719 17.269531 C 21.105469 17.292969 21.085938 17.324219 21.085938 17.359375 C 21.085938 17.390625 21.097656 17.414062 21.121094 17.433594 C 21.144531 17.453125 21.183594 17.46875 21.234375 17.480469 L 21.382812 17.515625 C 21.46875 17.535156 21.53125 17.566406 21.574219 17.605469 C 21.617188 17.648438 21.636719 17.703125 21.636719 17.769531 C 21.636719 17.824219 21.621094 17.875 21.589844 17.917969 C 21.554688 17.960938 21.511719 17.996094 21.453125 18.019531 C 21.398438 18.042969 21.332031 18.054688 21.253906 18.054688 C 21.152344 18.054688 21.066406 18.035156 21 17.988281 C 20.933594 17.945312 20.894531 17.878906 20.878906 17.796875 L 21.054688 17.769531 C 21.066406 17.816406 21.085938 17.851562 21.121094 17.875 C 21.15625 17.898438 21.199219 17.910156 21.253906 17.910156 C 21.3125 17.910156 21.363281 17.898438 21.398438 17.871094 C 21.433594 17.847656 21.449219 17.816406 21.449219 17.78125 C 21.449219 17.753906 21.441406 17.726562 21.417969 17.707031 C 21.394531 17.6875 21.363281 17.671875 21.320312 17.664062 L 21.160156 17.628906 C 21.074219 17.609375 21.007812 17.578125 20.96875 17.53125 C 20.925781 17.488281 20.90625 17.433594 20.90625 17.367188 C 20.90625 17.3125 20.921875 17.265625 20.953125 17.222656 C 20.980469 17.183594 21.023438 17.148438 21.078125 17.128906 C 21.132812 17.101562 21.195312 17.089844 21.265625 17.089844 C 21.367188 17.089844 21.445312 17.113281 21.503906 17.15625 C 21.5625 17.199219 21.601562 17.257812 21.617188 17.332031 Z M 22.003906 17.722656 L 22.003906 17.5 L 22.035156 17.5 L 22.40625 17.105469 L 22.625 17.105469 L 22.199219 17.554688 L 22.171875 17.554688 Z M 21.835938 18.039062 L 21.835938 16.792969 L 22.019531 16.792969 L 22.019531 18.039062 Z M 22.425781 18.039062 L 22.09375 17.59375 L 22.21875 17.46875 L 22.648438 18.039062 Z M 22.910156 18.386719 C 22.882812 18.386719 22.859375 18.386719 22.835938 18.382812 C 22.8125 18.378906 22.796875 18.371094 22.785156 18.367188 L 22.828125 18.21875 C 22.863281 18.226562 22.890625 18.230469 22.917969 18.230469 C 22.945312 18.230469 22.96875 18.21875 22.988281 18.203125 C 23.007812 18.183594 23.023438 18.152344 23.039062 18.113281 L 23.0625 18.050781 L 22.722656 17.105469 L 22.914062 17.105469 L 23.152344 17.828125 L 23.164062 17.828125 L 23.398438 17.105469 L 23.59375 17.105469 L 23.210938 18.164062 C 23.191406 18.210938 23.167969 18.253906 23.140625 18.285156 C 23.113281 18.320312 23.082031 18.34375 23.042969 18.363281 C 23.003906 18.378906 22.960938 18.386719 22.910156 18.386719 Z M 23.765625 18.039062 L 23.765625 17.105469 L 23.945312 17.105469 L 23.945312 18.039062 Z M 23.855469 16.960938 C 23.824219 16.960938 23.796875 16.949219 23.773438 16.929688 C 23.753906 16.90625 23.742188 16.882812 23.742188 16.851562 C 23.742188 16.820312 23.753906 16.796875 23.773438 16.773438 C 23.796875 16.753906 23.824219 16.742188 23.855469 16.742188 C 23.886719 16.742188 23.914062 16.753906 23.9375 16.773438 C 23.960938 16.796875 23.972656 16.820312 23.972656 16.851562 C 23.972656 16.882812 23.960938 16.90625 23.9375 16.929688 C 23.914062 16.949219 23.886719 16.960938 23.855469 16.960938 Z M 23.855469 16.960938 " fill-opacity="1" fill-rule="nonzero"/><g clip-path="url(#60e4c5a8dc)"><g mask="url(#33a97dd95f)"><g transform="matrix(1, 0, 0, 1, 10, 21)"><g clip-path="url(#8ec7bb55ae)"><g clip-path="url(#0818bca4e3)"><path fill="#ff5757" d="M 0.785156 2.613281 L 0.785156 1.011719 L 1.027344 1.011719 L 1.027344 1.777344 L 1.046875 1.777344 L 1.71875 1.011719 L 2.023438 1.011719 L 1.375 1.734375 L 2.023438 2.613281 L 1.734375 2.613281 L 1.214844 1.898438 L 1.027344 2.117188 L 1.027344 2.613281 Z M 2.179688 2.613281 L 2.179688 1.011719 L 2.421875 1.011719 L 2.421875 1.710938 L 3.222656 1.710938 L 3.222656 1.011719 L 3.464844 1.011719 L 3.464844 2.613281 L 3.222656 2.613281 L 3.222656 1.917969 L 2.421875 1.917969 L 2.421875 2.613281 Z M 3.75 1.011719 L 4.042969 1.011719 L 4.550781 2.257812 L 4.570312 2.257812 L 5.082031 1.011719 L 5.375 1.011719 L 5.375 2.613281 L 5.144531 2.613281 L 5.144531 1.457031 L 5.128906 1.457031 L 4.65625 2.613281 L 4.464844 2.613281 L 3.992188 1.453125 L 3.980469 1.453125 L 3.980469 2.613281 L 3.75 2.613281 Z M 5.660156 2.613281 L 5.660156 1.011719 L 6.664062 1.011719 L 6.664062 1.222656 L 5.898438 1.222656 L 5.898438 1.710938 L 6.609375 1.710938 L 6.609375 1.917969 L 5.898438 1.917969 L 5.898438 2.40625 L 6.671875 2.40625 L 6.671875 2.613281 Z M 6.917969 2.613281 L 6.917969 1.011719 L 7.160156 1.011719 L 7.160156 2.40625 L 7.886719 2.40625 L 7.886719 2.613281 Z M 9.386719 1.011719 L 9.386719 2.613281 L 9.164062 2.613281 L 8.351562 1.441406 L 8.335938 1.441406 L 8.335938 2.613281 L 8.09375 2.613281 L 8.09375 1.011719 L 8.320312 1.011719 L 9.132812 2.1875 L 9.148438 2.1875 L 9.148438 1.011719 Z M 9.550781 1.011719 L 9.824219 1.011719 L 10.242188 1.742188 L 10.261719 1.742188 L 10.679688 1.011719 L 10.953125 1.011719 L 10.371094 1.984375 L 10.371094 2.613281 L 10.132812 2.613281 L 10.132812 1.984375 Z M 11.136719 1.222656 L 11.136719 1.011719 L 12.375 1.011719 L 12.375 1.222656 L 11.875 1.222656 L 11.875 2.613281 L 11.636719 2.613281 L 11.636719 1.222656 Z M 13.457031 1.433594 C 13.449219 1.359375 13.414062 1.300781 13.355469 1.261719 C 13.292969 1.21875 13.21875 1.199219 13.125 1.199219 C 13.058594 1.199219 13.003906 1.210938 12.953125 1.230469 C 12.90625 1.25 12.871094 1.28125 12.84375 1.316406 C 12.816406 1.351562 12.804688 1.390625 12.804688 1.4375 C 12.804688 1.476562 12.8125 1.507812 12.832031 1.535156 C 12.847656 1.5625 12.871094 1.585938 12.902344 1.605469 C 12.929688 1.625 12.964844 1.636719 12.996094 1.652344 C 13.03125 1.664062 13.0625 1.671875 13.09375 1.679688 L 13.25 1.722656 C 13.300781 1.734375 13.355469 1.75 13.410156 1.773438 C 13.460938 1.792969 13.511719 1.820312 13.558594 1.855469 C 13.605469 1.890625 13.640625 1.933594 13.667969 1.988281 C 13.699219 2.039062 13.710938 2.101562 13.710938 2.171875 C 13.710938 2.261719 13.6875 2.34375 13.640625 2.414062 C 13.59375 2.484375 13.527344 2.539062 13.4375 2.578125 C 13.351562 2.621094 13.246094 2.640625 13.121094 2.640625 C 13 2.640625 12.894531 2.621094 12.808594 2.582031 C 12.71875 2.546875 12.652344 2.492188 12.601562 2.421875 C 12.554688 2.351562 12.527344 2.269531 12.519531 2.171875 L 12.761719 2.171875 C 12.765625 2.230469 12.785156 2.277344 12.820312 2.316406 C 12.851562 2.355469 12.894531 2.382812 12.945312 2.402344 C 13 2.417969 13.054688 2.429688 13.117188 2.429688 C 13.1875 2.429688 13.246094 2.417969 13.300781 2.398438 C 13.351562 2.375 13.394531 2.34375 13.425781 2.304688 C 13.457031 2.265625 13.472656 2.222656 13.472656 2.167969 C 13.472656 2.121094 13.457031 2.082031 13.433594 2.054688 C 13.40625 2.023438 13.367188 1.996094 13.324219 1.976562 C 13.277344 1.957031 13.226562 1.941406 13.167969 1.925781 L 12.980469 1.875 C 12.851562 1.839844 12.75 1.789062 12.675781 1.71875 C 12.601562 1.652344 12.5625 1.5625 12.5625 1.449219 C 12.5625 1.359375 12.589844 1.277344 12.636719 1.210938 C 12.6875 1.140625 12.757812 1.085938 12.839844 1.050781 C 12.925781 1.011719 13.023438 0.992188 13.132812 0.992188 C 13.238281 0.992188 13.335938 1.011719 13.417969 1.046875 C 13.5 1.085938 13.566406 1.140625 13.613281 1.207031 C 13.664062 1.273438 13.6875 1.347656 13.691406 1.433594 Z M 13.933594 2.613281 L 13.933594 1.011719 L 14.175781 1.011719 L 14.175781 1.777344 L 14.195312 1.777344 L 14.867188 1.011719 L 15.171875 1.011719 L 14.523438 1.734375 L 15.171875 2.613281 L 14.882812 2.613281 L 14.363281 1.898438 L 14.175781 2.117188 L 14.175781 2.613281 Z M 15.207031 1.011719 L 15.480469 1.011719 L 15.898438 1.742188 L 15.917969 1.742188 L 16.335938 1.011719 L 16.609375 1.011719 L 16.027344 1.984375 L 16.027344 2.613281 L 15.789062 2.613281 L 15.789062 1.984375 Z M 17.011719 1.011719 L 17.011719 2.613281 L 16.769531 2.613281 L 16.769531 1.011719 Z M 17.011719 1.011719 " fill-opacity="1" fill-rule="nonzero"/></g></g></g></g></g></svg>