<svg xmlns="http://www.w3.org/2000/svg" xmlns:xlink="http://www.w3.org/1999/xlink" width="50" zoomAndPan="magnify" viewBox="0 0 37.5 37.499999" height="50" preserveAspectRatio="xMidYMid meet" version="1.0"><defs><filter x="0%" y="0%" width="100%" height="100%" id="34a06c6df4"><feColorMatrix values="0 0 0 0 1 0 0 0 0 1 0 0 0 0 1 0 0 0 1 0" color-interpolation-filters="sRGB"/></filter><clipPath id="3048b959a9"><path d="M 5.734375 1.703125 L 31.640625 1.703125 L 31.640625 35.011719 L 5.734375 35.011719 Z M 5.734375 1.703125 " clip-rule="nonzero"/></clipPath><mask id="bfba1bab2f"><g filter="url(#34a06c6df4)"><rect x="-3.75" width="45" fill="#000000" y="-3.75" height="44.999999" fill-opacity="0.08"/></g></mask><clipPath id="b32ae3a8fe"><path d="M 1 0.105469 L 15.421875 0.105469 L 15.421875 5.789062 L 1 5.789062 Z M 1 0.105469 " clip-rule="nonzero"/></clipPath><clipPath id="e8957d7a17"><rect x="0" width="16" y="0" height="6"/></clipPath></defs><g clip-path="url(#3048b959a9)"><path stroke-linecap="round" transform="matrix(0.167549, 0, 0, 0.167549, 5.601755, 1.713014)" fill-opacity="1" fill="#000000" fill-rule="nonzero" stroke-linejoin="round" d="M 1.817342 91.728239 L 1.39769 90.189514 L 3.962231 85.666596 L 2.213681 81.283562 L 3.565893 78.812277 L 3.682463 76.690703 L 6.083806 75.57163 L 5.804038 74.75564 L 3.495951 73.939649 L 2.749903 71.934644 L 4.59171 67.295156 L 3.099613 65.010384 L 6.946425 60.813862 L 7.296135 59.368393 L 8.042183 58.762229 L 9.091314 59.438335 L 10.490154 58.389205 L 12.005565 51.721398 L 13.451033 50.928721 L 14.313652 51.511572 L 16.854879 48.620634 L 17.950637 49.436625 L 18.556802 49.110229 L 19.76913 50.532383 L 22.636753 49.693079 L 27.136357 51.115234 L 27.742522 49.972847 L 32.008985 46.942026 L 34.760039 48.061098 L 35.459459 49.436625 L 38.420338 46.032779 L 44.108957 46.895398 L 44.878319 48.084412 L 45.950763 48.270924 L 46.486986 46.452432 L 48.235536 47.058596 L 48.958271 45.939523 L 50.683507 46.405804 L 54.133981 43.678064 L 59.729343 41.859572 L 61.431266 41.579803 L 63.832609 43.678064 L 65.11488 43.118528 L 65.068252 41.090209 L 66.024126 39.318344 L 65.534532 38.572296 L 66.373836 36.940315 L 61.711034 37.243398 L 59.053237 36.637233 L 58.353817 35.448219 L 59.286377 34.562286 L 60.148995 31.531465 L 58.213933 30.668847 L 55.789276 31.111813 L 55.579449 29.083494 L 55.672706 27.521455 L 58.540329 28.24419 L 59.845913 27.008547 L 61.10487 28.057678 L 62.736851 25.376566 L 62.223942 23.348248 L 65.254764 20.643822 L 61.897546 19.081784 L 60.615276 15.025146 L 61.45458 13.766189 L 63.482899 13.393165 L 63.925865 10.432286 L 62.969991 8.030943 L 63.716039 6.888557 L 66.117382 6.702044 L 65.394648 3.391455 L 67.586165 2.015928 L 67.632793 1.339822 L 68.518725 1.642904 L 68.215643 0.896856 L 70.104078 1.316508 L 71.57286 2.715349 L 70.547044 3.391455 L 71.316406 4.673726 L 72.995015 4.836924 L 75.186532 3.508025 L 76.888455 5.676228 L 79.895962 7.401465 L 81.131604 6.585474 L 84.278996 7.984315 L 85.910977 7.727861 L 88.848542 14.279098 L 89.9443 19.827832 L 91.086687 20.387368 L 92.555469 19.664634 L 93.441402 20.294112 L 94.164136 22.812025 L 95.796117 23.931098 L 93.48803 27.358257 L 93.674542 30.738789 L 94.560474 31.671349 L 94.793614 33.513156 L 100.878571 36.543977 L 95.702861 42.628934 L 95.749489 44.447427 L 98.89688 48.084412 L 103.046774 48.527378 L 104.655441 49.366683 L 103.979334 53.166866 L 105.121721 53.469949 L 105.214977 54.519079 L 99.876069 53.236808 L 99.036764 56.314258 L 103.513054 60.907118 L 103.466426 62.935437 L 107.15004 61.023688 L 112.302436 64.264335 L 114.074301 62.539098 L 113.677962 66.012886 L 116.312446 68.157775 L 114.284127 70.27935 L 115.822851 76.38762 L 117.128436 76.830587 L 117.921112 76.27105 L 117.711286 73.473369 L 119.832861 71.538306 L 119.389895 70.092838 L 120.812049 70.605746 L 122.583914 69.579929 L 122.21089 74.918838 L 120.742107 78.672393 L 122.024378 78.672393 L 123.399905 76.480876 L 125.87119 77.063727 L 126.897006 79.022104 L 128.575615 78.788963 L 129.158465 79.418442 L 128.342475 80.910538 L 124.565605 80.933852 L 123.14345 81.913041 L 122.817054 83.638278 L 124.006069 85.550026 L 125.964446 85.736538 L 126.873692 83.288567 L 128.365789 81.726529 L 129.344977 81.866413 L 130.394108 83.288567 L 131.210098 83.078741 L 130.557306 77.506693 L 132.2126 77.460065 L 136.595634 79.161988 L 137.248427 78.369311 L 136.45575 76.434248 L 136.991972 75.991282 L 138.274243 76.527504 L 139.439943 77.833089 L 138.017789 79.535012 L 138.414127 80.444258 L 142.027799 83.195311 L 144.848794 83.545021 L 148.742233 87.531717 L 151.679799 89.373524 L 151.400031 90.39934 L 149.488282 91.844809 L 149.744736 92.800683 L 152.542417 93.896442 L 152.449161 94.968886 L 150.257644 96.857321 L 150.887122 97.649998 L 147.646475 102.289486 L 148.159383 103.01222 L 148.066127 106.719147 L 149.091944 108.724152 L 148.998688 121.943196 L 150.537412 127.235476 L 149.791364 129.053969 L 144.965364 129.053969 L 143.263441 127.468616 L 139.393315 126.815824 L 137.108542 127.701756 L 134.380803 127.678442 L 129.764629 129.613505 L 124.542291 134.975728 L 118.900301 143.089003 L 116.102619 143.625225 L 113.444822 145.956626 L 114.260813 146.492849 L 114.074301 147.635235 L 115.776223 149.034076 L 115.589711 150.45623 L 114.890291 150.829254 L 112.978542 150.059892 L 111.85947 150.5728 L 112.395692 152.531177 L 110.577199 152.974143 L 110.507257 155.771824 L 108.572194 156.261419 L 108.292426 158.079911 L 105.891083 157.124037 L 104.725383 157.613631 L 104.352358 158.382994 L 105.354861 160.714395 L 99.526358 167.079119 L 100.039267 169.014182 L 99.13002 170.506279 L 100.179151 173.88681 L 99.806126 174.726115 L 100.505547 175.075825 L 99.899383 175.798559 L 102.603808 178.782752 L 102.836948 180.391419 L 101.811131 180.811071 L 102.044271 181.860202 L 104.655441 184.261545 L 104.445614 185.054221 L 105.541373 185.450559 L 104.538871 188.36481 L 101.951015 192.02511 L 100.155837 199.112569 L 97.404783 199.438965 L 96.891875 196.361516 L 93.95431 193.447265 L 94.000938 192.095052 L 92.928494 190.766154 L 93.394774 189.250743 L 90.224068 188.737835 L 89.851044 187.478878 L 88.988426 187.19911 L 87.985923 188.178298 L 86.796909 186.756144 L 84.628706 187.012598 L 84.395566 185.683699 L 82.204049 184.494685 L 81.784397 183.235728 L 82.320619 181.160781 L 80.75858 178.642868 L 79.686136 178.153274 L 79.033344 175.425535 L 77.704445 175.262337 L 77.028339 175.845187 L 75.839324 173.746926 L 74.557054 173.467158 L 75.419672 167.871796 L 78.986716 164.771032 L 77.028339 160.644453 L 74.207343 158.872588 L 73.741063 157.310549 L 72.132397 156.681071 L 70.150706 153.020771 L 71.386348 151.202279 L 70.75687 150.059892 L 71.736058 149.17396 L 71.502918 148.497853 L 73.251469 146.609419 L 71.852628 144.977438 L 68.915063 143.741795 L 69.427971 140.874172 L 68.868435 139.778414 L 65.790986 137.423699 L 63.855923 134.486133 L 60.288879 132.621013 L 59.263063 131.362056 L 59.612773 129.590191 L 58.377131 128.517747 L 54.623575 127.72507 L 54.740145 129.217167 L 52.455372 132.551071 L 51.56944 131.61851 L 46.97658 130.662636 L 47.023208 129.893273 L 44.855005 128.424491 L 45.041517 127.002336 L 44.155585 126.116404 L 44.458667 123.505235 L 43.339594 122.292906 L 43.153082 120.264587 L 44.295469 118.585979 L 43.223024 117.350336 L 43.106454 114.739167 L 43.78256 113.59678 L 42.85 112.640906 L 40.658483 113.550152 L 39.679295 114.995621 L 38.909932 114.482713 L 36.695101 116.114693 L 33.967362 115.625099 L 32.451952 119.052259 L 32.685092 120.054761 L 31.915729 120.660925 L 28.441942 119.774993 L 27.462753 117.9565 L 28.698396 111.498519 L 27.322869 109.633399 L 23.31286 110.449389 L 19.466048 106.509321 L 19.023082 101.590065 L 13.101323 101.286983 L 8.275323 96.530925 L 8.158753 94.782374 L 7.249507 93.966384 L 5.52427 93.919756 L 4.894792 92.520915 Z M 1.817342 91.728239 " stroke="#ffffff" stroke-width="1.19" stroke-opacity="1" stroke-miterlimit="4"/></g><path fill="#ff5757" d="M 9.757812 13.097656 L 9.757812 14.519531 L 9.542969 14.519531 L 9.542969 13.097656 Z M 10.964844 13.453125 L 10.578125 14.519531 L 10.355469 14.519531 L 9.96875 13.453125 L 10.191406 13.453125 L 10.460938 14.273438 L 10.472656 14.273438 L 10.742188 13.453125 Z M 11.441406 14.542969 C 11.371094 14.542969 11.3125 14.53125 11.257812 14.503906 C 11.203125 14.480469 11.160156 14.441406 11.128906 14.394531 C 11.09375 14.347656 11.078125 14.289062 11.078125 14.21875 C 11.078125 14.15625 11.089844 14.109375 11.113281 14.070312 C 11.136719 14.03125 11.167969 14 11.207031 13.976562 C 11.246094 13.953125 11.292969 13.9375 11.339844 13.925781 C 11.390625 13.914062 11.4375 13.90625 11.488281 13.898438 C 11.550781 13.890625 11.605469 13.886719 11.644531 13.882812 C 11.683594 13.875 11.714844 13.867188 11.730469 13.855469 C 11.75 13.847656 11.757812 13.828125 11.757812 13.800781 L 11.757812 13.796875 C 11.757812 13.738281 11.742188 13.691406 11.707031 13.65625 C 11.671875 13.625 11.621094 13.605469 11.554688 13.605469 C 11.484375 13.605469 11.429688 13.621094 11.390625 13.652344 C 11.351562 13.683594 11.324219 13.71875 11.308594 13.753906 L 11.113281 13.710938 C 11.136719 13.644531 11.167969 13.59375 11.214844 13.554688 C 11.257812 13.515625 11.308594 13.484375 11.367188 13.464844 C 11.425781 13.449219 11.488281 13.4375 11.550781 13.4375 C 11.59375 13.4375 11.640625 13.445312 11.6875 13.453125 C 11.734375 13.464844 11.78125 13.480469 11.824219 13.507812 C 11.863281 13.535156 11.898438 13.574219 11.925781 13.621094 C 11.953125 13.671875 11.964844 13.734375 11.964844 13.8125 L 11.964844 14.519531 L 11.761719 14.519531 L 11.761719 14.375 L 11.753906 14.375 C 11.742188 14.398438 11.722656 14.425781 11.695312 14.453125 C 11.667969 14.476562 11.632812 14.5 11.589844 14.515625 C 11.550781 14.535156 11.5 14.542969 11.441406 14.542969 Z M 11.484375 14.375 C 11.542969 14.375 11.589844 14.363281 11.632812 14.34375 C 11.671875 14.320312 11.703125 14.289062 11.726562 14.253906 C 11.746094 14.214844 11.757812 14.175781 11.757812 14.132812 L 11.757812 13.996094 C 11.75 14.003906 11.738281 14.011719 11.714844 14.019531 C 11.695312 14.023438 11.671875 14.027344 11.644531 14.035156 C 11.617188 14.039062 11.589844 14.042969 11.566406 14.046875 C 11.539062 14.050781 11.519531 14.050781 11.5 14.054688 C 11.460938 14.058594 11.425781 14.066406 11.390625 14.078125 C 11.359375 14.089844 11.332031 14.109375 11.3125 14.132812 C 11.292969 14.152344 11.285156 14.183594 11.285156 14.21875 C 11.285156 14.273438 11.300781 14.3125 11.339844 14.335938 C 11.378906 14.363281 11.425781 14.375 11.484375 14.375 Z M 12.449219 13.886719 L 12.449219 14.519531 L 12.242188 14.519531 L 12.242188 13.453125 L 12.441406 13.453125 L 12.441406 13.625 L 12.457031 13.625 C 12.480469 13.570312 12.519531 13.523438 12.570312 13.492188 C 12.625 13.457031 12.691406 13.4375 12.769531 13.4375 C 12.84375 13.4375 12.90625 13.453125 12.960938 13.484375 C 13.015625 13.515625 13.058594 13.558594 13.085938 13.621094 C 13.117188 13.679688 13.132812 13.753906 13.132812 13.839844 L 13.132812 14.519531 L 12.925781 14.519531 L 12.925781 13.867188 C 12.925781 13.789062 12.90625 13.726562 12.863281 13.683594 C 12.824219 13.640625 12.769531 13.617188 12.699219 13.617188 C 12.652344 13.617188 12.609375 13.628906 12.570312 13.648438 C 12.535156 13.671875 12.503906 13.703125 12.480469 13.742188 C 12.460938 13.78125 12.449219 13.828125 12.449219 13.886719 Z M 13.859375 14.539062 C 13.761719 14.539062 13.671875 14.519531 13.597656 14.472656 C 13.523438 14.425781 13.464844 14.363281 13.425781 14.28125 C 13.382812 14.195312 13.363281 14.101562 13.363281 13.992188 C 13.363281 13.878906 13.382812 13.785156 13.425781 13.699219 C 13.464844 13.617188 13.523438 13.554688 13.597656 13.507812 C 13.671875 13.460938 13.761719 13.4375 13.859375 13.4375 C 13.960938 13.4375 14.046875 13.460938 14.121094 13.507812 C 14.195312 13.554688 14.253906 13.617188 14.296875 13.699219 C 14.335938 13.785156 14.355469 13.878906 14.355469 13.992188 C 14.355469 14.101562 14.335938 14.195312 14.296875 14.28125 C 14.253906 14.363281 14.195312 14.425781 14.121094 14.472656 C 14.046875 14.519531 13.960938 14.539062 13.859375 14.539062 Z M 13.859375 14.367188 C 13.925781 14.367188 13.980469 14.347656 14.023438 14.316406 C 14.0625 14.28125 14.097656 14.234375 14.117188 14.179688 C 14.136719 14.121094 14.148438 14.058594 14.148438 13.988281 C 14.148438 13.921875 14.136719 13.859375 14.117188 13.800781 C 14.097656 13.746094 14.0625 13.699219 14.023438 13.664062 C 13.980469 13.628906 13.925781 13.613281 13.859375 13.613281 C 13.796875 13.613281 13.742188 13.628906 13.699219 13.664062 C 13.65625 13.699219 13.625 13.746094 13.601562 13.800781 C 13.582031 13.859375 13.574219 13.921875 13.574219 13.988281 C 13.574219 14.058594 13.582031 14.121094 13.601562 14.179688 C 13.625 14.234375 13.65625 14.28125 13.699219 14.316406 C 13.742188 14.347656 13.796875 14.367188 13.859375 14.367188 Z M 15.21875 13.828125 L 15.21875 14.007812 L 14.585938 14.007812 L 14.585938 13.828125 Z M 15.511719 14.519531 L 15.511719 13.097656 L 16.390625 13.097656 L 16.390625 13.28125 L 15.722656 13.28125 L 15.722656 13.714844 L 16.328125 13.714844 L 16.328125 13.898438 L 15.722656 13.898438 L 15.722656 14.519531 Z M 16.625 14.519531 L 16.625 13.453125 L 16.824219 13.453125 L 16.824219 13.621094 L 16.835938 13.621094 C 16.855469 13.566406 16.890625 13.519531 16.941406 13.488281 C 16.988281 13.453125 17.046875 13.4375 17.109375 13.4375 C 17.121094 13.4375 17.136719 13.4375 17.152344 13.4375 C 17.171875 13.4375 17.1875 13.441406 17.195312 13.441406 L 17.195312 13.640625 C 17.1875 13.636719 17.171875 13.636719 17.152344 13.632812 C 17.128906 13.628906 17.109375 13.628906 17.085938 13.628906 C 17.039062 13.628906 16.996094 13.636719 16.957031 13.660156 C 16.917969 13.679688 16.886719 13.707031 16.867188 13.746094 C 16.84375 13.78125 16.832031 13.820312 16.832031 13.867188 L 16.832031 14.519531 Z M 17.675781 14.542969 C 17.609375 14.542969 17.546875 14.53125 17.492188 14.503906 C 17.4375 14.480469 17.394531 14.441406 17.363281 14.394531 C 17.332031 14.347656 17.316406 14.289062 17.316406 14.21875 C 17.316406 14.15625 17.328125 14.109375 17.351562 14.070312 C 17.375 14.03125 17.40625 14 17.445312 13.976562 C 17.484375 13.953125 17.527344 13.9375 17.578125 13.925781 C 17.625 13.914062 17.675781 13.90625 17.726562 13.898438 C 17.789062 13.890625 17.839844 13.886719 17.878906 13.882812 C 17.921875 13.875 17.949219 13.867188 17.96875 13.855469 C 17.984375 13.847656 17.996094 13.828125 17.996094 13.800781 L 17.996094 13.796875 C 17.996094 13.738281 17.976562 13.691406 17.941406 13.65625 C 17.910156 13.625 17.859375 13.605469 17.792969 13.605469 C 17.722656 13.605469 17.667969 13.621094 17.625 13.652344 C 17.585938 13.683594 17.558594 13.71875 17.542969 13.753906 L 17.347656 13.710938 C 17.371094 13.644531 17.40625 13.59375 17.449219 13.554688 C 17.496094 13.515625 17.546875 13.484375 17.605469 13.464844 C 17.664062 13.449219 17.722656 13.4375 17.789062 13.4375 C 17.832031 13.4375 17.875 13.445312 17.925781 13.453125 C 17.972656 13.464844 18.015625 13.480469 18.058594 13.507812 C 18.101562 13.535156 18.136719 13.574219 18.164062 13.621094 C 18.1875 13.671875 18.203125 13.734375 18.203125 13.8125 L 18.203125 14.519531 L 18 14.519531 L 18 14.375 L 17.992188 14.375 C 17.976562 14.398438 17.957031 14.425781 17.929688 14.453125 C 17.902344 14.476562 17.871094 14.5 17.828125 14.515625 C 17.785156 14.535156 17.734375 14.542969 17.675781 14.542969 Z M 17.722656 14.375 C 17.777344 14.375 17.828125 14.363281 17.867188 14.34375 C 17.910156 14.320312 17.941406 14.289062 17.960938 14.253906 C 17.984375 14.214844 17.996094 14.175781 17.996094 14.132812 L 17.996094 13.996094 C 17.988281 14.003906 17.972656 14.011719 17.953125 14.019531 C 17.929688 14.023438 17.90625 14.027344 17.878906 14.035156 C 17.855469 14.039062 17.828125 14.042969 17.800781 14.046875 C 17.777344 14.050781 17.753906 14.050781 17.738281 14.054688 C 17.699219 14.058594 17.660156 14.066406 17.628906 14.078125 C 17.59375 14.089844 17.570312 14.109375 17.546875 14.132812 C 17.527344 14.152344 17.519531 14.183594 17.519531 14.21875 C 17.519531 14.273438 17.539062 14.3125 17.578125 14.335938 C 17.613281 14.363281 17.664062 14.375 17.722656 14.375 Z M 18.6875 13.886719 L 18.6875 14.519531 L 18.480469 14.519531 L 18.480469 13.453125 L 18.679688 13.453125 L 18.679688 13.625 L 18.691406 13.625 C 18.714844 13.570312 18.753906 13.523438 18.804688 13.492188 C 18.859375 13.457031 18.925781 13.4375 19.003906 13.4375 C 19.078125 13.4375 19.140625 13.453125 19.195312 13.484375 C 19.25 13.515625 19.292969 13.558594 19.324219 13.621094 C 19.355469 13.679688 19.367188 13.753906 19.367188 13.839844 L 19.367188 14.519531 L 19.160156 14.519531 L 19.160156 13.867188 C 19.160156 13.789062 19.140625 13.726562 19.101562 13.683594 C 19.058594 13.640625 19.003906 13.617188 18.933594 13.617188 C 18.886719 13.617188 18.84375 13.628906 18.804688 13.648438 C 18.769531 13.671875 18.738281 13.703125 18.71875 13.742188 C 18.695312 13.78125 18.6875 13.828125 18.6875 13.886719 Z M 19.839844 14.15625 L 19.835938 13.902344 L 19.871094 13.902344 L 20.296875 13.453125 L 20.546875 13.453125 L 20.0625 13.964844 L 20.027344 13.964844 Z M 19.648438 14.519531 L 19.648438 13.097656 L 19.855469 13.097656 L 19.855469 14.519531 Z M 20.320312 14.519531 L 19.9375 14.011719 L 20.082031 13.867188 L 20.574219 14.519531 Z M 20.734375 14.519531 L 20.734375 13.453125 L 20.941406 13.453125 L 20.941406 14.519531 Z M 20.839844 13.289062 C 20.804688 13.289062 20.773438 13.277344 20.746094 13.253906 C 20.722656 13.226562 20.707031 13.199219 20.707031 13.164062 C 20.707031 13.128906 20.722656 13.101562 20.746094 13.078125 C 20.773438 13.054688 20.804688 13.039062 20.839844 13.039062 C 20.875 13.039062 20.90625 13.054688 20.933594 13.078125 C 20.957031 13.101562 20.972656 13.128906 20.972656 13.164062 C 20.972656 13.199219 20.957031 13.226562 20.933594 13.253906 C 20.90625 13.277344 20.875 13.289062 20.839844 13.289062 Z M 22.132812 13.453125 L 21.746094 14.519531 L 21.523438 14.519531 L 21.136719 13.453125 L 21.359375 13.453125 L 21.628906 14.273438 L 21.640625 14.273438 L 21.910156 13.453125 Z M 23.128906 13.714844 L 22.941406 13.746094 C 22.933594 13.722656 22.917969 13.699219 22.902344 13.679688 C 22.886719 13.65625 22.863281 13.636719 22.835938 13.625 C 22.804688 13.609375 22.769531 13.601562 22.726562 13.601562 C 22.667969 13.601562 22.617188 13.617188 22.578125 13.644531 C 22.539062 13.667969 22.519531 13.703125 22.519531 13.742188 C 22.519531 13.78125 22.535156 13.808594 22.558594 13.828125 C 22.585938 13.851562 22.628906 13.871094 22.6875 13.882812 L 22.855469 13.921875 C 22.957031 13.945312 23.027344 13.980469 23.078125 14.027344 C 23.125 14.074219 23.148438 14.136719 23.148438 14.210938 C 23.148438 14.273438 23.128906 14.332031 23.09375 14.382812 C 23.054688 14.429688 23.003906 14.46875 22.941406 14.5 C 22.875 14.527344 22.800781 14.539062 22.710938 14.539062 C 22.59375 14.539062 22.496094 14.515625 22.421875 14.464844 C 22.34375 14.414062 22.300781 14.339844 22.28125 14.246094 L 22.480469 14.214844 C 22.496094 14.265625 22.519531 14.308594 22.558594 14.332031 C 22.597656 14.359375 22.648438 14.375 22.710938 14.375 C 22.78125 14.375 22.832031 14.359375 22.875 14.332031 C 22.914062 14.300781 22.9375 14.265625 22.9375 14.226562 C 22.9375 14.191406 22.921875 14.164062 22.898438 14.140625 C 22.875 14.121094 22.835938 14.101562 22.785156 14.089844 L 22.605469 14.050781 C 22.503906 14.027344 22.429688 13.992188 22.382812 13.941406 C 22.335938 13.894531 22.3125 13.832031 22.3125 13.753906 C 22.3125 13.691406 22.332031 13.636719 22.367188 13.589844 C 22.402344 13.542969 22.449219 13.503906 22.511719 13.480469 C 22.574219 13.453125 22.644531 13.4375 22.726562 13.4375 C 22.839844 13.4375 22.929688 13.464844 22.996094 13.515625 C 23.0625 13.5625 23.105469 13.628906 23.128906 13.714844 Z M 23.566406 14.15625 L 23.566406 13.902344 L 23.601562 13.902344 L 24.027344 13.453125 L 24.277344 13.453125 L 23.792969 13.964844 L 23.757812 13.964844 Z M 23.375 14.519531 L 23.375 13.097656 L 23.585938 13.097656 L 23.585938 14.519531 Z M 24.050781 14.519531 L 23.667969 14.011719 L 23.8125 13.867188 L 24.304688 14.519531 Z M 24.050781 14.519531 " fill-opacity="1" fill-rule="nonzero"/><g mask="url(#bfba1bab2f)"><g transform="matrix(1, 0, 0, 1, 13, 16)"><g clip-path="url(#e8957d7a17)"><g clip-path="url(#b32ae3a8fe)"><path fill="#ff5757" d="M 1.417969 0.421875 L 1.417969 2.371094 L 1.125 2.371094 L 1.125 0.421875 Z M 1.9375 0.421875 L 2.480469 2.011719 L 2.503906 2.011719 L 3.042969 0.421875 L 3.363281 0.421875 L 2.660156 2.371094 L 2.320312 2.371094 L 1.621094 0.421875 Z M 3.53125 2.371094 L 3.21875 2.371094 L 3.917969 0.421875 L 4.257812 0.421875 L 4.960938 2.371094 L 4.648438 2.371094 L 4.097656 0.777344 L 4.082031 0.777344 Z M 3.582031 1.609375 L 4.59375 1.609375 L 4.59375 1.855469 L 3.582031 1.855469 Z M 6.734375 0.421875 L 6.734375 2.371094 L 6.464844 2.371094 L 5.472656 0.941406 L 5.457031 0.941406 L 5.457031 2.371094 L 5.160156 2.371094 L 5.160156 0.421875 L 5.433594 0.421875 L 6.425781 1.855469 L 6.445312 1.855469 L 6.445312 0.421875 Z M 8.777344 1.398438 C 8.777344 1.605469 8.738281 1.785156 8.664062 1.933594 C 8.585938 2.082031 8.484375 2.199219 8.351562 2.28125 C 8.21875 2.359375 8.066406 2.398438 7.898438 2.398438 C 7.730469 2.398438 7.582031 2.359375 7.449219 2.28125 C 7.316406 2.199219 7.210938 2.082031 7.136719 1.933594 C 7.058594 1.785156 7.019531 1.605469 7.019531 1.398438 C 7.019531 1.191406 7.058594 1.011719 7.136719 0.863281 C 7.210938 0.710938 7.316406 0.597656 7.449219 0.515625 C 7.582031 0.4375 7.730469 0.394531 7.898438 0.394531 C 8.066406 0.394531 8.21875 0.4375 8.351562 0.515625 C 8.484375 0.597656 8.585938 0.710938 8.664062 0.863281 C 8.738281 1.011719 8.777344 1.191406 8.777344 1.398438 Z M 8.484375 1.398438 C 8.484375 1.238281 8.460938 1.105469 8.410156 0.996094 C 8.359375 0.886719 8.289062 0.804688 8.199219 0.75 C 8.109375 0.691406 8.011719 0.664062 7.898438 0.664062 C 7.789062 0.664062 7.6875 0.691406 7.597656 0.75 C 7.511719 0.804688 7.441406 0.886719 7.390625 0.996094 C 7.339844 1.105469 7.3125 1.238281 7.3125 1.398438 C 7.3125 1.554688 7.339844 1.691406 7.390625 1.800781 C 7.441406 1.90625 7.511719 1.992188 7.597656 2.046875 C 7.6875 2.101562 7.789062 2.128906 7.898438 2.128906 C 8.011719 2.128906 8.109375 2.101562 8.199219 2.046875 C 8.289062 1.992188 8.359375 1.90625 8.410156 1.800781 C 8.460938 1.691406 8.484375 1.554688 8.484375 1.398438 Z M 9.902344 1.273438 L 9.902344 1.523438 L 9.039062 1.523438 L 9.039062 1.273438 Z M 1.125 5.554688 L 1.125 3.605469 L 2.335938 3.605469 L 2.335938 3.859375 L 1.417969 3.859375 L 1.417969 4.453125 L 2.246094 4.453125 L 2.246094 4.707031 L 1.417969 4.707031 L 1.417969 5.554688 Z M 2.617188 5.554688 L 2.617188 3.605469 L 3.308594 3.605469 C 3.460938 3.605469 3.585938 3.632812 3.6875 3.683594 C 3.785156 3.738281 3.863281 3.808594 3.910156 3.902344 C 3.960938 3.992188 3.984375 4.097656 3.984375 4.21875 C 3.984375 4.335938 3.960938 4.441406 3.910156 4.53125 C 3.859375 4.621094 3.785156 4.691406 3.683594 4.742188 C 3.585938 4.792969 3.460938 4.816406 3.308594 4.816406 L 2.78125 4.816406 L 2.78125 4.566406 L 3.28125 4.566406 C 3.378906 4.566406 3.457031 4.550781 3.515625 4.523438 C 3.574219 4.496094 3.621094 4.457031 3.648438 4.40625 C 3.675781 4.351562 3.6875 4.289062 3.6875 4.21875 C 3.6875 4.144531 3.675781 4.082031 3.644531 4.027344 C 3.617188 3.972656 3.574219 3.929688 3.515625 3.902344 C 3.453125 3.875 3.375 3.859375 3.277344 3.859375 L 2.910156 3.859375 L 2.910156 5.554688 Z M 3.578125 4.675781 L 4.058594 5.554688 L 3.722656 5.554688 L 3.253906 4.675781 Z M 4.425781 5.554688 L 4.113281 5.554688 L 4.816406 3.605469 L 5.15625 3.605469 L 5.859375 5.554688 L 5.546875 5.554688 L 4.996094 3.960938 L 4.980469 3.960938 Z M 4.480469 4.792969 L 5.492188 4.792969 L 5.492188 5.039062 L 4.480469 5.039062 Z M 7.632812 3.605469 L 7.632812 5.554688 L 7.363281 5.554688 L 6.371094 4.125 L 6.355469 4.125 L 6.355469 5.554688 L 6.058594 5.554688 L 6.058594 3.605469 L 6.332031 3.605469 L 7.324219 5.039062 L 7.339844 5.039062 L 7.339844 3.605469 Z M 7.980469 5.554688 L 7.980469 3.605469 L 8.277344 3.605469 L 8.277344 4.539062 L 8.300781 4.539062 L 9.117188 3.605469 L 9.488281 3.605469 L 8.703125 4.484375 L 9.492188 5.554688 L 9.136719 5.554688 L 8.507812 4.683594 L 8.277344 4.949219 L 8.277344 5.554688 Z M 9.976562 3.605469 L 9.976562 5.554688 L 9.679688 5.554688 L 9.679688 3.605469 Z M 10.492188 3.605469 L 11.035156 5.195312 L 11.058594 5.195312 L 11.601562 3.605469 L 11.917969 3.605469 L 11.21875 5.554688 L 10.878906 5.554688 L 10.175781 3.605469 Z M 13.183594 4.117188 C 13.171875 4.027344 13.132812 3.957031 13.058594 3.910156 C 12.984375 3.859375 12.890625 3.835938 12.78125 3.835938 C 12.699219 3.835938 12.632812 3.847656 12.574219 3.871094 C 12.515625 3.898438 12.46875 3.929688 12.4375 3.976562 C 12.40625 4.019531 12.390625 4.066406 12.390625 4.121094 C 12.390625 4.167969 12.398438 4.207031 12.421875 4.242188 C 12.441406 4.277344 12.472656 4.304688 12.507812 4.328125 C 12.542969 4.347656 12.582031 4.367188 12.625 4.382812 C 12.664062 4.398438 12.703125 4.410156 12.742188 4.417969 L 12.933594 4.46875 C 12.996094 4.484375 13.058594 4.503906 13.125 4.53125 C 13.191406 4.558594 13.25 4.589844 13.304688 4.632812 C 13.363281 4.675781 13.40625 4.730469 13.441406 4.792969 C 13.476562 4.855469 13.492188 4.929688 13.492188 5.015625 C 13.492188 5.128906 13.464844 5.226562 13.410156 5.3125 C 13.351562 5.398438 13.269531 5.464844 13.160156 5.515625 C 13.054688 5.5625 12.925781 5.589844 12.773438 5.589844 C 12.625 5.589844 12.5 5.566406 12.394531 5.519531 C 12.285156 5.472656 12.203125 5.40625 12.144531 5.320312 C 12.082031 5.234375 12.050781 5.132812 12.042969 5.015625 L 12.339844 5.015625 C 12.34375 5.085938 12.367188 5.144531 12.40625 5.191406 C 12.449219 5.238281 12.5 5.273438 12.5625 5.296875 C 12.625 5.320312 12.695312 5.332031 12.769531 5.332031 C 12.855469 5.332031 12.925781 5.316406 12.992188 5.292969 C 13.058594 5.265625 13.109375 5.226562 13.148438 5.179688 C 13.183594 5.132812 13.203125 5.078125 13.203125 5.015625 C 13.203125 4.957031 13.1875 4.910156 13.152344 4.871094 C 13.121094 4.835938 13.078125 4.804688 13.019531 4.78125 C 12.964844 4.757812 12.902344 4.734375 12.832031 4.71875 L 12.601562 4.65625 C 12.445312 4.613281 12.324219 4.550781 12.230469 4.46875 C 12.140625 4.382812 12.09375 4.273438 12.09375 4.140625 C 12.09375 4.027344 12.125 3.929688 12.1875 3.84375 C 12.246094 3.761719 12.332031 3.695312 12.433594 3.648438 C 12.539062 3.601562 12.65625 3.578125 12.785156 3.578125 C 12.917969 3.578125 13.035156 3.601562 13.136719 3.648438 C 13.238281 3.695312 13.316406 3.757812 13.375 3.839844 C 13.433594 3.921875 13.464844 4.015625 13.46875 4.117188 Z M 13.765625 5.554688 L 13.765625 3.605469 L 14.058594 3.605469 L 14.058594 4.539062 L 14.082031 4.539062 L 14.902344 3.605469 L 15.269531 3.605469 L 14.484375 4.484375 L 15.273438 5.554688 L 14.917969 5.554688 L 14.289062 4.683594 L 14.058594 4.949219 L 14.058594 5.554688 Z M 13.765625 5.554688 " fill-opacity="1" fill-rule="nonzero"/></g></g></g></g></svg>