<svg xmlns="http://www.w3.org/2000/svg" xmlns:xlink="http://www.w3.org/1999/xlink" width="50" zoomAndPan="magnify" viewBox="0 0 37.5 37.499999" height="50" preserveAspectRatio="xMidYMid meet" version="1.0"><defs><filter x="0%" y="0%" width="100%" height="100%" id="84c4e7bf81"><feColorMatrix values="0 0 0 0 1 0 0 0 0 1 0 0 0 0 1 0 0 0 1 0" color-interpolation-filters="sRGB"/></filter><clipPath id="a3f40da18c"><path d="M 2.203125 1.4375 L 34.769531 1.4375 L 34.769531 35.484375 L 2.203125 35.484375 Z M 2.203125 1.4375 " clip-rule="nonzero"/></clipPath><mask id="3bcd3774a1"><g filter="url(#84c4e7bf81)"><rect x="-3.75" width="45" fill="#000000" y="-3.75" height="44.999999" fill-opacity="0.08"/></g></mask><clipPath id="c72861cd29"><path d="M 0.449219 0.316406 L 22 0.316406 L 22 3.867188 L 0.449219 3.867188 Z M 0.449219 0.316406 " clip-rule="nonzero"/></clipPath><clipPath id="054b7717d4"><rect x="0" width="22" y="0" height="4"/></clipPath></defs><g clip-path="url(#a3f40da18c)"><path stroke-linecap="round" transform="matrix(0.170533, 0, 0, 0.170533, 2.06822, 1.284811)" fill-opacity="1" fill="#000000" fill-rule="nonzero" stroke-linejoin="round" d="M 34.508832 17.364838 L 34.485926 16.402782 L 35.5167 16.860904 L 38.059275 16.288252 L 39.250392 14.959699 L 41.403564 14.822263 L 43.304769 13.791489 L 51.550959 14.730638 L 54.162252 14.54739 L 57.117137 12.669091 L 61.973227 12.44003 L 62.568785 12.96687 L 63.988962 11.707035 L 64.103493 9.989079 L 65.432045 11.294726 L 70.356853 12.142251 L 73.517893 13.654052 L 75.556534 12.55456 L 76.724745 8.935399 L 80.069033 8.935399 L 81.122713 10.561731 L 84.215034 9.347709 L 87.284449 14.226704 L 89.368903 13.379179 L 89.506339 10.378482 L 91.018141 9.943267 L 95.003799 10.996947 L 97.042441 10.470107 L 98.210651 11.844472 L 98.966552 11.684129 L 100.409635 6.598979 L 102.608619 6.690603 L 102.83768 5.751454 L 106.914963 4.674868 L 107.899925 1.811607 L 108.953604 1.582546 L 110.602842 2.407165 L 110.465406 3.964779 L 114.657219 6.873852 L 114.24491 9.233178 L 115.206965 9.118648 L 115.779617 10.996947 L 113.878412 13.356273 L 115.550557 14.089268 L 115.52765 16.402782 L 118.276381 18.395612 L 117.612104 20.892375 L 114.267816 24.809315 L 116.077396 26.504365 L 116.741673 28.680443 L 118.849033 29.779935 L 117.360137 32.139262 L 117.428855 33.880124 L 119.33006 34.567307 L 125.583421 34.269528 L 126.705819 35.323208 L 128.767367 34.452776 L 133.440208 34.819274 L 135.478849 33.215848 L 136.211844 34.636025 L 137.769458 34.636025 L 138.067237 30.3984 L 141.61768 30.51293 L 142.533923 31.933107 L 143.587603 30.329681 L 145.351371 31.223019 L 147.275482 27.12283 L 148.626941 27.901636 L 148.970533 26.893769 L 154.261838 28.107791 L 156.300479 29.550874 L 154.582523 31.223019 L 154.009871 34.177903 L 156.163043 38.23228 L 156.964756 42.286657 L 158.957585 44.14205 L 160.079983 43.890083 L 159.942547 45.012481 L 157.331253 46.203597 L 157.58322 47.509244 L 160.675541 49.983101 L 158.155872 54.266539 L 154.330556 56.121932 L 153.986965 58.41254 L 155.292612 59.489126 L 155.613297 62.650165 L 156.758601 64.207779 L 159.140834 64.116155 L 162.530934 66.063172 L 161.958282 67.758222 L 162.256061 69.338742 L 163.057774 69.453272 L 162.004094 70.667295 L 164.088548 72.522688 L 165.737786 72.224908 L 167.432836 73.461837 L 168.142925 71.446102 L 169.150792 70.919262 L 169.769257 73.942865 L 170.754218 74.492611 L 170.089942 75.385948 L 168.57814 75.065263 L 170.112848 77.768181 L 169.219511 83.769575 L 169.792163 84.960691 L 170.662594 84.960691 L 170.731312 86.220526 L 166.997621 87.320018 L 167.432836 90.045842 L 164.844449 89.198316 L 163.195211 93.802439 L 162.278967 92.33645 L 162.278967 93.413036 L 161.660503 93.665003 L 164.13436 98.24622 L 167.157963 96.986385 L 167.226681 98.979214 L 167.93677 99.41443 L 164.798637 104.224707 L 165.623256 105.072232 L 164.821543 106.309161 L 167.318306 109.034985 L 168.371986 108.439427 L 170.548064 109.561825 L 169.242417 110.982002 L 169.998318 111.760809 L 170.6855 115.059285 L 172.472175 116.204589 L 173.182263 122.870259 L 180.260243 125.160868 L 179.939558 125.893863 L 181.56589 128.413532 L 180.168619 128.665499 L 179.366906 130.406361 L 180.237337 131.047731 L 179.87084 131.941069 L 181.107768 132.009787 L 184.039747 134.987578 L 185.89514 135.03339 L 185.757703 136.751346 L 187.933781 137.461435 L 188.162842 139.041955 L 189.308146 139.110673 L 188.781306 141.492906 L 186.238731 141.836497 L 186.00967 143.39411 L 186.765571 144.699757 L 190.109859 145.707625 L 191.209351 151.571582 L 189.216522 151.502864 L 190.224389 152.121328 L 189.972423 153.999627 L 187.429847 154.640998 L 187.475659 156.565109 L 186.1242 159.01606 L 179.98537 161.627353 L 180.420586 162.589409 L 174.625346 167.560029 L 176.366209 169.850637 L 175.770651 171.660218 L 174.37338 171.980903 L 173.732009 174.615103 L 172.884484 175.485534 L 171.991147 175.279379 L 171.945335 176.195622 L 173.594573 178.051015 L 173.457136 179.768971 L 174.258849 181.257867 L 173.525854 183.34232 L 174.144319 184.80831 L 173.548761 185.541305 L 169.975411 185.495492 L 167.135057 187.121824 L 165.233852 186.434642 L 166.676935 189.549869 L 166.195908 194.10818 L 165.233852 194.405959 L 166.081377 194.932799 L 165.806504 195.642887 L 163.905299 195.27639 L 164.01983 193.993649 L 161.316912 193.100312 L 160.927508 194.657926 L 159.942547 195.16186 L 160.377762 196.21554 L 159.27827 196.169727 L 159.003397 196.742379 L 154.078589 196.284258 L 152.429351 195.642887 L 151.719263 194.016555 L 146.382145 194.978611 L 145.603338 196.169727 L 145.878211 197.040159 L 144.801625 197.544092 L 144.503846 197.085971 L 143.450167 197.681529 L 143.221106 196.97144 L 140.541094 197.979308 L 138.319204 197.681529 L 137.196806 197.085971 L 136.64706 195.253484 L 133.806705 196.169727 L 132.684307 194.520489 L 135.089446 194.268522 L 135.410131 193.489716 L 136.76159 193.283561 L 136.097314 191.428168 L 135.06654 192.138257 L 133.37149 191.977914 L 132.638495 192.871251 L 131.080881 192.046632 L 128.263433 192.229881 L 129.317113 191.244919 L 128.538306 190.557737 L 127.644969 190.83261 L 123.086658 186.50336 L 122.284945 186.801139 L 122.536912 187.648664 L 121.460326 188.702344 L 121.781011 191.199107 L 120.475365 192.917063 L 120.933486 194.062368 L 119.8569 194.772456 L 118.963563 191.290732 L 117.772447 191.038765 L 117.016546 191.748853 L 114.24491 190.534831 L 112.962169 197.131783 L 108.816168 198.483242 L 108.655825 199.788889 L 107.189836 198.529054 L 107.877019 196.421694 L 106.708808 193.833307 L 104.830509 193.924931 L 104.280763 193.031594 L 101.784 193.810401 L 100.592884 192.619284 L 95.920043 193.741682 L 95.255766 191.588511 L 93.01097 191.771759 L 92.850628 191.061671 L 90.26224 190.30577 L 88.796251 188.61072 L 87.948726 189.206278 L 87.055388 188.450377 L 84.23794 190.809704 L 82.588702 191.061671 L 83.642382 192.458942 L 82.382547 193.512622 L 82.01605 195.436733 L 81.741177 199.0788 L 82.290923 200.201198 L 79.771254 199.376579 L 76.678933 194.153992 L 78.030391 191.88629 L 77.15996 188.862687 L 73.838578 188.633626 L 71.6625 192.688003 L 69.55514 193.123218 L 68.455648 192.344411 L 68.593085 189.985085 L 71.502158 188.08388 L 72.807804 185.632929 L 72.853617 182.838387 L 71.731218 180.845557 L 69.532234 182.334453 L 68.134963 181.486928 L 61.263138 185.380962 L 59.865867 184.327282 L 59.842961 180.410342 L 58.193723 179.402474 L 56.75064 179.31085 L 56.109269 181.074618 L 54.299689 182.448983 L 52.94823 182.265735 L 52.169423 180.547778 L 53.131478 175.668782 L 52.054893 173.538517 L 50.336936 172.622273 L 42.892459 171.866373 L 38.838082 168.54499 L 37.143032 163.826337 L 33.523871 162.245817 L 30.935483 159.290933 L 27.888974 158.145628 L 23.445194 159.955209 L 20.650652 159.726148 L 17.031491 157.664601 L 17.993546 155.190744 L 17.420894 154.411937 L 12.908395 156.794169 L 10.434538 155.442711 L 9.014361 152.739793 L 9.243422 149.212256 L 7.113156 142.844364 L 1.409541 139.522982 L 2.623564 134.712705 L 4.456051 132.28466 L 3.28784 129.00909 L 4.135365 127.566007 L 2.64647 125.84805 L 2.577752 124.771464 L 3.997929 124.588216 L 3.837586 123.832315 L 5.349388 121.564613 L 4.204084 119.777938 L 4.639299 118.082888 L 4.639299 116.845959 L 4.570581 112.287649 L 2.806813 109.584731 L 2.990061 105.828133 L 4.547675 104.316332 L 4.616393 102.529657 L 2.967155 100.422297 L 3.379465 99.254087 L 2.050912 98.406562 L 6.174007 91.786704 L 10.571975 91.603455 L 9.174704 89.679344 L 10.709411 87.801045 L 10.113853 85.968559 L 11.144627 85.098127 L 13.206175 86.014371 L 13.022926 83.998635 L 16.206872 86.083089 L 17.695767 84.640006 L 17.420894 82.234867 L 20.078 81.776745 L 20.673558 81.043751 L 24.773747 84.09026 L 26.033581 83.242735 L 27.774444 84.021542 L 29.102997 82.670083 L 28.896842 81.86837 L 30.637704 80.654347 L 30.54608 77.974335 L 31.576854 80.035883 L 33.18028 78.753142 L 33.500965 79.669386 L 34.485926 79.531949 L 35.997728 80.608535 L 38.059275 80.012977 L 39.112955 78.936391 L 38.67774 76.439628 L 38.219618 75.84407 L 36.891065 75.981506 L 36.135164 73.484743 L 37.394999 72.408157 L 35.631231 70.34661 L 36.57038 68.903526 L 36.662004 66.910697 L 35.860291 65.444708 L 36.341319 63.589315 L 35.150203 61.16127 L 33.134467 60.405369 L 33.019937 59.168441 L 34.165241 58.962286 L 34.142335 58.046043 L 33.019937 57.862794 L 32.8825 56.969457 L 34.440114 56.328086 L 35.654137 52.411146 L 34.004899 53.052516 L 32.447285 51.311654 L 31.553948 51.678151 L 29.652743 50.784814 L 28.484532 51.288748 L 28.049317 49.937289 L 28.919748 48.723267 L 29.4924 47.142747 L 30.454456 47.211465 L 30.912577 46.111973 L 27.568289 45.172824 L 27.591195 41.484944 L 28.805218 40.797762 L 30.156677 42.492812 L 31.439417 41.347508 L 31.645572 38.575871 L 29.034278 36.124921 L 30.087958 34.086279 L 31.301981 33.513627 L 31.897539 31.589516 L 32.745064 32.116356 L 32.8825 30.902333 L 32.836688 28.749162 L 29.675649 26.435647 L 29.446588 22.885204 L 32.813782 22.427082 L 32.470191 21.556651 L 34.646269 19.311855 Z M 34.508832 17.364838 " stroke="#ffffff" stroke-width="1.19" stroke-opacity="1" stroke-miterlimit="4"/></g><path fill="#ff5757" d="M 16.53125 12.90625 L 16.933594 14.082031 L 16.949219 14.082031 L 17.355469 12.90625 L 17.589844 12.90625 L 17.070312 14.351562 L 16.816406 14.351562 L 16.296875 12.90625 Z M 17.78125 14.351562 L 17.78125 13.265625 L 17.992188 13.265625 L 17.992188 14.351562 Z M 17.886719 13.097656 C 17.851562 13.097656 17.820312 13.085938 17.792969 13.0625 C 17.769531 13.039062 17.753906 13.007812 17.753906 12.972656 C 17.753906 12.9375 17.769531 12.910156 17.792969 12.882812 C 17.820312 12.859375 17.851562 12.847656 17.886719 12.847656 C 17.925781 12.847656 17.957031 12.859375 17.984375 12.882812 C 18.007812 12.910156 18.023438 12.9375 18.023438 12.972656 C 18.023438 13.007812 18.007812 13.039062 17.984375 13.0625 C 17.957031 13.085938 17.925781 13.097656 17.886719 13.097656 Z M 18.488281 13.707031 L 18.488281 14.351562 L 18.277344 14.351562 L 18.277344 13.265625 L 18.480469 13.265625 L 18.480469 13.441406 L 18.492188 13.441406 C 18.519531 13.386719 18.558594 13.339844 18.609375 13.304688 C 18.664062 13.269531 18.730469 13.253906 18.8125 13.253906 C 18.886719 13.253906 18.953125 13.269531 19.007812 13.300781 C 19.0625 13.328125 19.105469 13.375 19.136719 13.4375 C 19.167969 13.496094 19.183594 13.570312 19.183594 13.660156 L 19.183594 14.351562 L 18.972656 14.351562 L 18.972656 13.6875 C 18.972656 13.609375 18.953125 13.546875 18.910156 13.503906 C 18.871094 13.457031 18.8125 13.4375 18.742188 13.4375 C 18.691406 13.4375 18.648438 13.445312 18.609375 13.46875 C 18.574219 13.488281 18.542969 13.519531 18.519531 13.5625 C 18.5 13.601562 18.488281 13.648438 18.488281 13.707031 Z M 19.675781 13.707031 L 19.675781 14.351562 L 19.464844 14.351562 L 19.464844 13.265625 L 19.667969 13.265625 L 19.667969 13.441406 L 19.683594 13.441406 C 19.707031 13.386719 19.746094 13.339844 19.800781 13.304688 C 19.851562 13.269531 19.921875 13.253906 20.003906 13.253906 C 20.078125 13.253906 20.140625 13.269531 20.195312 13.300781 C 20.253906 13.328125 20.296875 13.375 20.324219 13.4375 C 20.355469 13.496094 20.371094 13.570312 20.371094 13.660156 L 20.371094 14.351562 L 20.160156 14.351562 L 20.160156 13.6875 C 20.160156 13.609375 20.140625 13.546875 20.097656 13.503906 C 20.058594 13.457031 20.003906 13.4375 19.929688 13.4375 C 19.882812 13.4375 19.835938 13.445312 19.800781 13.46875 C 19.761719 13.488281 19.730469 13.519531 19.710938 13.5625 C 19.6875 13.601562 19.675781 13.648438 19.675781 13.707031 Z M 20.75 14.757812 C 20.71875 14.757812 20.691406 14.757812 20.664062 14.75 C 20.636719 14.746094 20.617188 14.742188 20.605469 14.734375 L 20.65625 14.5625 C 20.695312 14.574219 20.730469 14.578125 20.761719 14.574219 C 20.789062 14.574219 20.816406 14.5625 20.839844 14.542969 C 20.863281 14.519531 20.882812 14.484375 20.902344 14.4375 L 20.929688 14.367188 L 20.53125 13.265625 L 20.757812 13.265625 L 21.03125 14.109375 L 21.042969 14.109375 L 21.316406 13.265625 L 21.542969 13.265625 L 21.097656 14.496094 C 21.078125 14.554688 21.050781 14.601562 21.019531 14.640625 C 20.988281 14.679688 20.949219 14.710938 20.902344 14.730469 C 20.859375 14.75 20.808594 14.757812 20.75 14.757812 Z M 22.25 13.265625 L 22.25 13.4375 L 21.65625 13.4375 L 21.65625 13.265625 Z M 21.816406 13.007812 L 22.027344 13.007812 L 22.027344 14.035156 C 22.027344 14.074219 22.035156 14.105469 22.046875 14.125 C 22.058594 14.144531 22.074219 14.160156 22.09375 14.167969 C 22.113281 14.175781 22.132812 14.179688 22.15625 14.179688 C 22.175781 14.179688 22.1875 14.175781 22.203125 14.175781 C 22.214844 14.171875 22.222656 14.171875 22.230469 14.167969 L 22.269531 14.34375 C 22.257812 14.347656 22.238281 14.351562 22.21875 14.359375 C 22.195312 14.363281 22.167969 14.367188 22.132812 14.367188 C 22.078125 14.367188 22.023438 14.355469 21.976562 14.335938 C 21.929688 14.316406 21.890625 14.285156 21.859375 14.242188 C 21.832031 14.195312 21.816406 14.140625 21.816406 14.078125 Z M 23.277344 13.53125 L 23.085938 13.566406 C 23.078125 13.542969 23.066406 13.519531 23.050781 13.496094 C 23.03125 13.472656 23.007812 13.457031 22.980469 13.441406 C 22.949219 13.425781 22.914062 13.421875 22.871094 13.421875 C 22.8125 13.421875 22.761719 13.433594 22.722656 13.460938 C 22.679688 13.488281 22.660156 13.519531 22.660156 13.5625 C 22.660156 13.597656 22.675781 13.628906 22.703125 13.648438 C 22.726562 13.671875 22.769531 13.691406 22.832031 13.703125 L 23.003906 13.746094 C 23.101562 13.765625 23.179688 13.804688 23.226562 13.851562 C 23.277344 13.898438 23.300781 13.960938 23.300781 14.039062 C 23.300781 14.101562 23.28125 14.160156 23.242188 14.210938 C 23.207031 14.261719 23.15625 14.300781 23.085938 14.332031 C 23.019531 14.359375 22.945312 14.375 22.855469 14.375 C 22.734375 14.375 22.636719 14.347656 22.558594 14.296875 C 22.480469 14.242188 22.433594 14.167969 22.417969 14.074219 L 22.621094 14.042969 C 22.632812 14.09375 22.660156 14.136719 22.699219 14.164062 C 22.738281 14.191406 22.792969 14.203125 22.855469 14.203125 C 22.925781 14.203125 22.980469 14.1875 23.019531 14.160156 C 23.0625 14.132812 23.082031 14.09375 23.082031 14.054688 C 23.082031 14.019531 23.070312 13.992188 23.046875 13.96875 C 23.019531 13.945312 22.980469 13.929688 22.929688 13.914062 L 22.746094 13.875 C 22.644531 13.851562 22.570312 13.816406 22.523438 13.765625 C 22.472656 13.714844 22.449219 13.652344 22.449219 13.574219 C 22.449219 13.511719 22.46875 13.453125 22.503906 13.40625 C 22.539062 13.359375 22.589844 13.320312 22.652344 13.292969 C 22.714844 13.265625 22.789062 13.253906 22.867188 13.253906 C 22.984375 13.253906 23.078125 13.277344 23.144531 13.328125 C 23.214844 13.378906 23.257812 13.445312 23.277344 13.53125 Z M 23.53125 14.351562 L 23.53125 13.265625 L 23.742188 13.265625 L 23.742188 14.351562 Z M 23.640625 13.097656 C 23.601562 13.097656 23.570312 13.085938 23.542969 13.0625 C 23.519531 13.039062 23.503906 13.007812 23.503906 12.972656 C 23.503906 12.9375 23.519531 12.910156 23.542969 12.882812 C 23.570312 12.859375 23.601562 12.847656 23.640625 12.847656 C 23.675781 12.847656 23.707031 12.859375 23.734375 12.882812 C 23.757812 12.910156 23.773438 12.9375 23.773438 12.972656 C 23.773438 13.007812 23.757812 13.039062 23.734375 13.0625 C 23.707031 13.085938 23.675781 13.097656 23.640625 13.097656 Z M 24.34375 14.375 C 24.273438 14.375 24.210938 14.363281 24.15625 14.335938 C 24.101562 14.3125 24.058594 14.273438 24.023438 14.226562 C 23.992188 14.175781 23.976562 14.117188 23.976562 14.046875 C 23.976562 13.984375 23.988281 13.933594 24.011719 13.894531 C 24.035156 13.855469 24.066406 13.824219 24.109375 13.800781 C 24.148438 13.777344 24.191406 13.757812 24.242188 13.746094 C 24.292969 13.734375 24.34375 13.726562 24.394531 13.722656 C 24.457031 13.714844 24.511719 13.707031 24.550781 13.703125 C 24.59375 13.699219 24.621094 13.6875 24.640625 13.679688 C 24.65625 13.667969 24.667969 13.648438 24.667969 13.621094 L 24.667969 13.617188 C 24.667969 13.554688 24.648438 13.507812 24.613281 13.472656 C 24.582031 13.441406 24.53125 13.421875 24.460938 13.421875 C 24.390625 13.421875 24.332031 13.4375 24.292969 13.472656 C 24.253906 13.503906 24.222656 13.535156 24.207031 13.574219 L 24.011719 13.53125 C 24.035156 13.464844 24.066406 13.410156 24.113281 13.371094 C 24.160156 13.328125 24.210938 13.300781 24.269531 13.28125 C 24.332031 13.261719 24.394531 13.253906 24.457031 13.253906 C 24.5 13.253906 24.546875 13.257812 24.597656 13.269531 C 24.644531 13.277344 24.691406 13.296875 24.734375 13.324219 C 24.777344 13.351562 24.8125 13.386719 24.839844 13.4375 C 24.867188 13.488281 24.878906 13.550781 24.878906 13.632812 L 24.878906 14.351562 L 24.671875 14.351562 L 24.671875 14.203125 L 24.664062 14.203125 C 24.652344 14.230469 24.628906 14.257812 24.601562 14.285156 C 24.574219 14.308594 24.539062 14.332031 24.496094 14.351562 C 24.453125 14.367188 24.402344 14.375 24.34375 14.375 Z M 24.390625 14.207031 C 24.449219 14.207031 24.496094 14.195312 24.539062 14.171875 C 24.582031 14.148438 24.613281 14.117188 24.636719 14.082031 C 24.65625 14.042969 24.667969 14.003906 24.667969 13.960938 L 24.667969 13.820312 C 24.660156 13.828125 24.644531 13.835938 24.625 13.839844 C 24.601562 13.847656 24.578125 13.851562 24.550781 13.859375 C 24.523438 13.863281 24.496094 13.867188 24.472656 13.871094 C 24.445312 13.875 24.425781 13.875 24.40625 13.878906 C 24.367188 13.882812 24.328125 13.890625 24.292969 13.90625 C 24.261719 13.917969 24.234375 13.933594 24.214844 13.957031 C 24.195312 13.980469 24.183594 14.011719 24.183594 14.046875 C 24.183594 14.101562 24.203125 14.140625 24.242188 14.167969 C 24.28125 14.191406 24.328125 14.207031 24.390625 14.207031 Z M 24.390625 14.207031 " fill-opacity="1" fill-rule="nonzero"/><g mask="url(#3bcd3774a1)"><g transform="matrix(1, 0, 0, 1, 5, 21)"><g clip-path="url(#054b7717d4)"><g clip-path="url(#c72861cd29)"><path fill="#ff5757" d="M 1.089844 0.605469 L 1.917969 3.03125 L 1.953125 3.03125 L 2.78125 0.605469 L 3.265625 0.605469 L 2.195312 3.582031 L 1.675781 3.582031 L 0.605469 0.605469 Z M 4.023438 0.605469 L 4.023438 3.582031 L 3.574219 3.582031 L 3.574219 0.605469 Z M 6.957031 0.605469 L 6.957031 3.582031 L 6.542969 3.582031 L 5.03125 1.402344 L 5.003906 1.402344 L 5.003906 3.582031 L 4.554688 3.582031 L 4.554688 0.605469 L 4.96875 0.605469 L 6.484375 2.792969 L 6.511719 2.792969 L 6.511719 0.605469 Z M 9.890625 0.605469 L 9.890625 3.582031 L 9.476562 3.582031 L 7.964844 1.402344 L 7.9375 1.402344 L 7.9375 3.582031 L 7.488281 3.582031 L 7.488281 0.605469 L 7.902344 0.605469 L 9.417969 2.792969 L 9.445312 2.792969 L 9.445312 0.605469 Z M 10.195312 0.605469 L 10.703125 0.605469 L 11.480469 1.960938 L 11.511719 1.960938 L 12.289062 0.605469 L 12.800781 0.605469 L 11.722656 2.414062 L 11.722656 3.582031 L 11.273438 3.582031 L 11.273438 2.414062 Z M 13.144531 0.992188 L 13.144531 0.605469 L 15.445312 0.605469 L 15.445312 0.992188 L 14.519531 0.992188 L 14.519531 3.582031 L 14.070312 3.582031 L 14.070312 0.992188 Z M 17.457031 1.390625 C 17.441406 1.25 17.378906 1.144531 17.265625 1.070312 C 17.152344 0.992188 17.011719 0.953125 16.839844 0.953125 C 16.71875 0.953125 16.613281 0.972656 16.523438 1.011719 C 16.433594 1.050781 16.363281 1.101562 16.316406 1.167969 C 16.265625 1.234375 16.242188 1.3125 16.242188 1.394531 C 16.242188 1.464844 16.257812 1.527344 16.292969 1.578125 C 16.328125 1.628906 16.371094 1.671875 16.425781 1.707031 C 16.480469 1.742188 16.539062 1.769531 16.601562 1.792969 C 16.664062 1.816406 16.726562 1.832031 16.785156 1.847656 L 17.074219 1.925781 C 17.167969 1.949219 17.265625 1.980469 17.367188 2.019531 C 17.464844 2.058594 17.558594 2.109375 17.644531 2.175781 C 17.730469 2.242188 17.796875 2.320312 17.851562 2.417969 C 17.902344 2.511719 17.929688 2.628906 17.929688 2.761719 C 17.929688 2.929688 17.886719 3.078125 17.800781 3.210938 C 17.714844 3.339844 17.589844 3.445312 17.421875 3.519531 C 17.257812 3.59375 17.0625 3.632812 16.828125 3.632812 C 16.605469 3.632812 16.414062 3.597656 16.25 3.527344 C 16.085938 3.457031 15.960938 3.355469 15.867188 3.226562 C 15.777344 3.09375 15.726562 2.941406 15.714844 2.761719 L 16.167969 2.761719 C 16.175781 2.867188 16.210938 2.957031 16.269531 3.03125 C 16.332031 3.101562 16.410156 3.152344 16.507812 3.1875 C 16.605469 3.222656 16.710938 3.238281 16.824219 3.238281 C 16.953125 3.238281 17.066406 3.21875 17.164062 3.179688 C 17.265625 3.140625 17.34375 3.082031 17.398438 3.011719 C 17.457031 2.9375 17.484375 2.855469 17.484375 2.757812 C 17.484375 2.667969 17.460938 2.597656 17.410156 2.539062 C 17.359375 2.484375 17.292969 2.4375 17.207031 2.402344 C 17.125 2.363281 17.027344 2.332031 16.921875 2.304688 L 16.570312 2.207031 C 16.332031 2.140625 16.144531 2.046875 16.003906 1.921875 C 15.863281 1.796875 15.796875 1.628906 15.796875 1.421875 C 15.796875 1.25 15.84375 1.101562 15.933594 0.972656 C 16.027344 0.84375 16.152344 0.746094 16.3125 0.675781 C 16.472656 0.601562 16.652344 0.566406 16.851562 0.566406 C 17.050781 0.566406 17.230469 0.601562 17.382812 0.671875 C 17.539062 0.742188 17.660156 0.839844 17.75 0.964844 C 17.839844 1.085938 17.886719 1.230469 17.890625 1.390625 Z M 18.792969 0.605469 L 18.792969 3.582031 L 18.34375 3.582031 L 18.34375 0.605469 Z M 19.578125 3.582031 L 19.097656 3.582031 L 20.171875 0.605469 L 20.691406 0.605469 L 21.761719 3.582031 L 21.285156 3.582031 L 20.441406 1.148438 L 20.417969 1.148438 Z M 19.65625 2.417969 L 21.203125 2.417969 L 21.203125 2.796875 L 19.65625 2.796875 Z M 19.65625 2.417969 " fill-opacity="1" fill-rule="nonzero"/></g></g></g></g></svg>