<svg xmlns="http://www.w3.org/2000/svg" xmlns:xlink="http://www.w3.org/1999/xlink" width="50" zoomAndPan="magnify" viewBox="0 0 37.5 37.499999" height="50" preserveAspectRatio="xMidYMid meet" version="1.0"><defs><filter x="0%" y="0%" width="100%" height="100%" id="0839a25dc7"><feColorMatrix values="0 0 0 0 1 0 0 0 0 1 0 0 0 0 1 0 0 0 1 0" color-interpolation-filters="sRGB"/></filter><clipPath id="d2ae2ff422"><path d="M 6.800781 1.636719 L 30.484375 1.636719 L 30.484375 35.679688 L 6.800781 35.679688 Z M 6.800781 1.636719 " clip-rule="nonzero"/></clipPath><mask id="4c8fe930fa"><g filter="url(#0839a25dc7)"><rect x="-3.75" width="45" fill="#000000" y="-3.75" height="44.999999" fill-opacity="0.08"/></g></mask><clipPath id="c909855985"><path d="M 1 0.078125 L 16 0.078125 L 16 2.921875 L 1 2.921875 Z M 1 0.078125 " clip-rule="nonzero"/></clipPath><clipPath id="618182ec59"><rect x="0" width="17" y="0" height="3"/></clipPath></defs><g clip-path="url(#d2ae2ff422)"><path stroke-linecap="round" transform="matrix(0.136256, 0, 0, 0.136256, 6.719227, 1.626739)" fill-opacity="1" fill="#000000" fill-rule="nonzero" stroke-linejoin="round" d="M 36.548877 2.338056 L 38.211652 7.699072 L 38.010973 9.734538 L 42.597938 12.314706 L 43.773348 10.422583 L 46.382185 10.938616 L 46.210173 12.257369 L 47.127566 12.343375 L 47.84428 14.321503 L 50.596459 15.181559 L 54.667391 13.002751 L 57.018211 13.490116 L 59.197019 15.410908 L 61.547839 13.432779 L 61.461833 10.537257 L 62.12121 10.537257 L 63.841322 12.687397 L 62.035204 14.722863 L 62.465232 17.847733 L 64.644041 18.707789 L 66.278147 21.832659 L 67.998259 22.090676 L 69.34568 23.925462 L 71.6965 23.896794 L 73.789303 25.5309 L 77.37287 24.986198 L 78.691622 26.218945 L 77.802898 27.337018 L 78.376269 29.286478 L 77.888904 29.716506 L 79.637684 33.042056 L 80.927768 33.128062 L 86.202778 30.03186 L 89.270312 30.691236 L 92.251839 28.512428 L 94.057957 25.502232 L 97.412175 22.721384 L 100.623051 28.111068 L 100.938405 31.837978 L 102.4005 34.848174 L 104.923331 37.342336 L 111.545763 39.23446 L 116.419413 36.940977 L 119.458278 37.428342 L 123.213856 39.463808 L 128.03017 39.951173 L 127.284788 42.703352 L 131.556399 53.081362 L 138.064157 55.05949 L 142.163757 59.388439 L 148.327492 59.073085 L 150.70698 58.184361 L 153.029131 55.088159 L 159.680231 54.28544 L 160.941647 54.944816 L 165.987309 53.081362 L 166.073314 55.26017 L 168.194786 58.184361 L 159.221535 63.516708 L 158.53349 69.709111 L 161.887708 75.729503 L 166.302663 78.854374 L 169.828892 82.667289 L 168.796825 88.51567 L 171.721016 91.525866 L 171.462999 93.876686 L 170.373594 94.450056 L 165.929972 94.450056 L 161.629692 100.183763 L 158.361479 101.043819 L 151.939727 111.39316 L 151.739047 114.460693 L 147.524773 113.74398 L 142.421774 113.973328 L 139.669594 116.180805 L 134.165236 114.948058 L 132.731809 116.123468 L 133.534528 116.754176 L 132.187107 120.624428 L 133.047163 121.599158 L 134.451921 120.509754 L 136.143365 121.799838 L 138.350842 121.971849 L 138.752201 124.121989 L 141.045684 127.132185 L 139.984948 128.737623 L 141.332369 130.199718 L 141.90574 129.741022 L 143.167156 130.687083 L 143.8552 133.037903 L 145.145284 131.403797 L 145.718655 132.435864 L 150.5063 131.862493 L 152.914457 134.327987 L 155.666637 134.872689 L 156.498024 131.260454 L 158.676833 129.540342 L 160.339608 130.486404 L 161.744366 134.643341 L 154.577232 143.07189 L 141.877072 137.825548 L 141.332369 138.398919 L 141.676392 139.602997 L 140.873673 139.660334 L 140.386308 141.036424 L 140.615656 143.157896 L 139.440246 144.648659 L 139.55492 146.024749 L 137.376112 146.110755 L 137.40478 148.461574 L 136.487387 148.834265 L 136.401382 150.296361 L 135.025292 150.8984 L 135.541326 151.67245 L 134.939286 152.503838 L 136.000022 152.790523 L 136.22937 154.825989 L 134.824612 156.402758 L 135.483989 156.746781 L 135.426651 157.922191 L 134.136567 158.581567 L 134.308579 159.69964 L 131.900422 162.853179 L 133.878551 165.347341 L 137.949482 164.888644 L 138.465516 165.720032 L 141.332369 164.630628 L 142.450442 165.519352 L 143.625852 165.404678 L 143.453841 166.121391 L 145.403301 167.153459 L 146.60738 173.57521 L 145.173953 174.463935 L 145.23129 177.588805 L 148.814857 180.22631 L 148.327492 181.487726 L 149.73225 183.035827 L 149.445565 184.870613 L 150.276952 185.50132 L 149.445565 186.304039 L 150.649643 187.995483 L 151.939727 186.762736 L 151.481031 188.568854 L 152.283749 190.60432 L 148.270155 192.467774 L 145.43197 192.525111 L 144.858599 195.076611 L 147.78279 195.162616 L 148.384829 196.366695 L 149.101542 196.08001 L 150.076272 197.341425 L 149.646244 198.574172 L 150.305621 199.262217 L 152.799783 195.793324 L 153.975193 196.194684 L 153.516496 195.850661 L 154.290547 194.675251 L 155.236608 194.359898 L 157.702102 201.125672 L 156.813378 202.32975 L 156.842046 204.27921 L 152.054401 203.849182 L 151.653042 208.952181 L 149.703581 209.18153 L 149.044205 213.137787 L 147.008739 215.803961 L 146.664717 219.73155 L 144.428571 221.021634 L 147.811458 223.0571 L 147.868795 223.974493 L 140.128291 224.117836 L 141.447044 227.099363 L 142.966476 228.188768 L 142.421774 229.679531 L 143.195824 230.310239 L 143.195824 233.349104 L 142.278431 233.607121 L 141.332369 236.674654 L 141.332369 241.83499 L 139.124892 242.322355 L 139.153561 244.615838 L 137.261438 246.823315 L 129.090905 245.561899 L 124.962636 245.762579 L 123.52921 246.966658 L 122.583148 246.249944 L 121.522412 246.794646 L 118.569553 243.125074 L 116.132728 243.841787 L 115.358678 245.676574 L 114.097262 246.393287 L 112.061796 242.03567 L 101.683787 242.465698 L 101.167753 243.899124 L 95.118693 244.300484 L 94.889344 245.189208 L 90.531727 244.128473 L 90.531727 242.150344 L 89.757677 242.121675 L 89.126969 239.742187 L 91.076429 234.753862 L 89.70034 233.549784 L 88.553598 233.836469 L 87.320851 232.861739 L 87.292183 227.75874 L 72.814573 226.78401 L 71.180467 223.372454 L 72.327208 221.480331 L 72.241202 219.760219 L 70.750439 218.928831 L 71.553157 215.83263 L 62.350558 212.736428 L 62.551238 211.389007 L 58.480306 211.303001 L 56.330166 210.15626 L 55.642121 208.837507 L 56.559514 207.977451 L 56.702857 206.601362 L 55.06875 204.021193 L 55.097419 201.125672 L 52.488582 198.631509 L 46.066831 199.376891 L 43.056635 197.800122 L 43.199977 195.47797 L 44.11737 194.388566 L 43.830685 192.066415 L 48.04496 189.42891 L 46.152836 187.680129 L 44.776747 188.081489 L 43.687342 180.570333 L 40.046439 182.261776 L 39.415731 180.971692 L 37.380265 181.40172 L 35.144119 179.595602 L 35.602816 178.506198 L 33.739361 177.244783 L 34.513411 177.216114 L 34.198058 175.467334 L 35.459473 173.517873 L 32.449277 169.934306 L 31.445878 156.632107 L 33.223327 156.058736 L 33.36667 155.084006 L 35.344799 154.625309 L 35.344799 152.589843 L 34.628086 151.529108 L 36.118849 150.955737 L 35.602816 149.436305 L 33.251996 149.178288 L 31.589221 147.400839 L 33.051316 144.964013 L 32.678625 142.039823 L 33.452676 140.979087 L 35.287462 140.835744 L 35.201456 139.402318 L 32.334603 139.631666 L 31.159193 137.653537 L 28.751036 137.911554 L 28.837042 127.848898 L 27.489621 128.364932 L 23.017329 127.705556 L 22.21461 128.59428 L 20.752515 128.508275 L 18.831723 127.562213 L 15.792859 127.61955 L 15.477505 126.64482 L 13.126685 126.558814 L 14.818129 123.433944 L 16.538241 124.380006 L 16.538241 122.172529 L 19.835122 121.083124 L 16.452235 114.174008 L 17.054274 113.485963 L 18.430364 104.570049 L 15.96487 104.111352 L 15.420168 106.748857 L 11.521247 106.548178 L 6.246237 104.254695 L 5.156833 103.222628 L 5.816209 102.563251 L 5.099495 101.645858 L 8.13836 99.725066 L 6.160231 97.374247 L 4.870147 97.632263 L 3.522726 94.76541 L 3.150035 93.79068 L 6.446917 92.242579 L 5.586861 91.124506 L 9.743798 89.519068 L 9.027085 87.540939 L 4.468788 86.537541 L 4.067428 84.58808 L 5.443518 76.274206 L 4.03876 74.726105 L 4.067428 71.658572 L 1.745277 71.658572 L 2.175305 67.18628 L 1.257912 66.354893 L 2.060631 63.373365 L 4.640799 63.574045 L 7.335641 61.538579 L 7.622326 60.563849 L 4.61213 60.133821 L 5.672866 57.725664 L 9.256433 58.041018 L 8.453714 55.432181 L 8.826405 53.568727 L 10.947876 53.396715 L 11.148556 52.192637 L 12.63932 51.705272 L 11.66459 49.5838 L 16.050876 48.379722 L 14.760791 47.806351 L 13.786061 44.280122 L 12.897337 43.649414 L 14.072747 43.018706 L 13.81473 42.15865 L 12.151955 41.986639 L 11.033882 42.703352 L 9.399776 40.20919 L 11.119888 36.310269 L 12.667988 37.85837 L 15.334162 34.53282 L 16.652915 34.33214 L 16.681583 33.500753 L 13.528045 31.264607 L 14.302095 28.598433 L 18.057673 28.598433 L 19.347757 27.365686 L 15.104814 21.517305 L 16.796257 18.965806 L 21.612571 16.987677 L 21.841919 19.223823 L 25.024127 17.016346 L 24.508093 15.783599 L 26.71557 14.722863 L 26.772907 13.891475 L 28.349677 12.859408 L 26.170868 8.100432 L 25.568829 1.564006 L 32.19126 2.424062 L 35.230125 0.70395 L 36.405535 1.076641 Z M 36.548877 2.338056 " stroke="#ffffff" stroke-width="1.19" stroke-opacity="1" stroke-miterlimit="4"/></g><path fill="#ff5757" d="M 16.597656 24.761719 L 16.597656 23.605469 L 16.769531 23.605469 L 16.769531 24.609375 L 17.292969 24.609375 L 17.292969 24.761719 Z M 18.027344 24.402344 L 18.027344 23.894531 L 18.199219 23.894531 L 18.199219 24.761719 L 18.03125 24.761719 L 18.03125 24.609375 L 18.023438 24.609375 C 18.003906 24.65625 17.972656 24.695312 17.925781 24.726562 C 17.882812 24.757812 17.828125 24.773438 17.765625 24.773438 C 17.707031 24.773438 17.660156 24.761719 17.617188 24.734375 C 17.574219 24.710938 17.539062 24.675781 17.515625 24.625 C 17.492188 24.578125 17.480469 24.515625 17.480469 24.445312 L 17.480469 23.894531 L 17.648438 23.894531 L 17.648438 24.425781 C 17.648438 24.484375 17.664062 24.53125 17.699219 24.566406 C 17.730469 24.601562 17.773438 24.617188 17.824219 24.617188 C 17.855469 24.617188 17.886719 24.609375 17.917969 24.59375 C 17.949219 24.578125 17.976562 24.554688 17.996094 24.523438 C 18.019531 24.492188 18.027344 24.449219 18.027344 24.402344 Z M 18.59375 24.246094 L 18.59375 24.761719 L 18.425781 24.761719 L 18.425781 23.605469 L 18.589844 23.605469 L 18.589844 24.035156 L 18.601562 24.035156 C 18.621094 23.988281 18.652344 23.949219 18.695312 23.921875 C 18.738281 23.894531 18.792969 23.882812 18.859375 23.882812 C 18.917969 23.882812 18.96875 23.894531 19.015625 23.917969 C 19.058594 23.945312 19.09375 23.980469 19.117188 24.027344 C 19.144531 24.078125 19.15625 24.136719 19.15625 24.210938 L 19.15625 24.761719 L 18.988281 24.761719 L 18.988281 24.230469 C 18.988281 24.164062 18.972656 24.117188 18.9375 24.082031 C 18.90625 24.046875 18.859375 24.027344 18.800781 24.027344 C 18.761719 24.027344 18.726562 24.039062 18.695312 24.054688 C 18.664062 24.070312 18.636719 24.097656 18.621094 24.128906 C 18.601562 24.160156 18.59375 24.199219 18.59375 24.246094 Z M 19.632812 24.78125 C 19.578125 24.78125 19.527344 24.769531 19.484375 24.75 C 19.441406 24.730469 19.40625 24.699219 19.378906 24.660156 C 19.351562 24.621094 19.339844 24.574219 19.339844 24.515625 C 19.339844 24.46875 19.351562 24.425781 19.367188 24.394531 C 19.386719 24.363281 19.414062 24.339844 19.445312 24.320312 C 19.476562 24.300781 19.511719 24.289062 19.550781 24.277344 C 19.589844 24.269531 19.632812 24.261719 19.671875 24.257812 C 19.726562 24.25 19.765625 24.246094 19.800781 24.242188 C 19.832031 24.238281 19.855469 24.230469 19.871094 24.222656 C 19.882812 24.214844 19.890625 24.199219 19.890625 24.179688 L 19.890625 24.175781 C 19.890625 24.125 19.878906 24.085938 19.851562 24.058594 C 19.824219 24.03125 19.78125 24.019531 19.726562 24.019531 C 19.671875 24.019531 19.625 24.03125 19.59375 24.058594 C 19.558594 24.082031 19.539062 24.109375 19.527344 24.140625 L 19.367188 24.105469 C 19.386719 24.050781 19.414062 24.007812 19.449219 23.976562 C 19.484375 23.945312 19.527344 23.917969 19.574219 23.90625 C 19.621094 23.890625 19.671875 23.882812 19.726562 23.882812 C 19.757812 23.882812 19.796875 23.886719 19.835938 23.894531 C 19.875 23.902344 19.910156 23.917969 19.945312 23.9375 C 19.980469 23.960938 20.007812 23.992188 20.027344 24.03125 C 20.050781 24.070312 20.0625 24.121094 20.0625 24.183594 L 20.0625 24.761719 L 19.898438 24.761719 L 19.898438 24.640625 L 19.890625 24.640625 C 19.878906 24.664062 19.863281 24.6875 19.839844 24.707031 C 19.820312 24.726562 19.789062 24.746094 19.757812 24.757812 C 19.722656 24.773438 19.679688 24.78125 19.632812 24.78125 Z M 19.671875 24.644531 C 19.71875 24.644531 19.757812 24.636719 19.789062 24.617188 C 19.824219 24.597656 19.847656 24.574219 19.867188 24.542969 C 19.882812 24.515625 19.890625 24.480469 19.890625 24.449219 L 19.890625 24.335938 C 19.886719 24.34375 19.875 24.347656 19.859375 24.351562 C 19.839844 24.359375 19.820312 24.363281 19.800781 24.367188 C 19.777344 24.371094 19.757812 24.371094 19.734375 24.375 C 19.714844 24.378906 19.699219 24.378906 19.683594 24.382812 C 19.652344 24.386719 19.621094 24.394531 19.59375 24.402344 C 19.566406 24.414062 19.546875 24.425781 19.53125 24.445312 C 19.515625 24.464844 19.507812 24.488281 19.507812 24.519531 C 19.507812 24.558594 19.519531 24.589844 19.550781 24.613281 C 19.582031 24.632812 19.621094 24.644531 19.671875 24.644531 Z M 20.453125 24.246094 L 20.453125 24.761719 L 20.285156 24.761719 L 20.285156 23.894531 L 20.449219 23.894531 L 20.449219 24.035156 L 20.457031 24.035156 C 20.480469 23.988281 20.511719 23.953125 20.550781 23.925781 C 20.59375 23.894531 20.648438 23.882812 20.714844 23.882812 C 20.773438 23.882812 20.824219 23.894531 20.871094 23.917969 C 20.914062 23.945312 20.949219 23.980469 20.972656 24.027344 C 20.996094 24.078125 21.011719 24.136719 21.011719 24.210938 L 21.011719 24.761719 L 20.839844 24.761719 L 20.839844 24.230469 C 20.839844 24.167969 20.824219 24.117188 20.792969 24.082031 C 20.757812 24.046875 20.714844 24.027344 20.65625 24.027344 C 20.617188 24.027344 20.582031 24.039062 20.550781 24.054688 C 20.523438 24.070312 20.5 24.097656 20.480469 24.128906 C 20.464844 24.160156 20.453125 24.199219 20.453125 24.246094 Z M 21.886719 24.105469 L 21.734375 24.132812 C 21.726562 24.113281 21.714844 24.09375 21.703125 24.078125 C 21.6875 24.058594 21.671875 24.042969 21.648438 24.03125 C 21.625 24.023438 21.59375 24.015625 21.558594 24.015625 C 21.511719 24.015625 21.472656 24.027344 21.441406 24.046875 C 21.40625 24.070312 21.390625 24.097656 21.390625 24.128906 C 21.390625 24.160156 21.402344 24.183594 21.425781 24.199219 C 21.445312 24.21875 21.480469 24.234375 21.527344 24.242188 L 21.664062 24.273438 C 21.746094 24.292969 21.804688 24.320312 21.84375 24.359375 C 21.882812 24.398438 21.902344 24.449219 21.902344 24.511719 C 21.902344 24.5625 21.886719 24.609375 21.859375 24.648438 C 21.828125 24.6875 21.785156 24.722656 21.734375 24.742188 C 21.679688 24.765625 21.617188 24.777344 21.546875 24.777344 C 21.453125 24.777344 21.371094 24.757812 21.3125 24.714844 C 21.25 24.675781 21.210938 24.613281 21.199219 24.539062 L 21.359375 24.511719 C 21.371094 24.554688 21.390625 24.589844 21.421875 24.609375 C 21.457031 24.632812 21.496094 24.640625 21.546875 24.640625 C 21.601562 24.640625 21.648438 24.628906 21.679688 24.609375 C 21.714844 24.585938 21.730469 24.554688 21.730469 24.523438 C 21.730469 24.496094 21.71875 24.472656 21.699219 24.453125 C 21.679688 24.4375 21.648438 24.421875 21.605469 24.414062 L 21.460938 24.378906 C 21.378906 24.363281 21.320312 24.332031 21.28125 24.292969 C 21.242188 24.253906 21.222656 24.199219 21.222656 24.140625 C 21.222656 24.089844 21.238281 24.042969 21.265625 24.003906 C 21.292969 23.964844 21.335938 23.9375 21.382812 23.914062 C 21.433594 23.894531 21.492188 23.882812 21.558594 23.882812 C 21.652344 23.882812 21.726562 23.902344 21.777344 23.945312 C 21.832031 23.984375 21.867188 24.039062 21.886719 24.105469 Z M 22.242188 24.464844 L 22.242188 24.261719 L 22.273438 24.261719 L 22.617188 23.894531 L 22.820312 23.894531 L 22.425781 24.3125 L 22.398438 24.3125 Z M 22.089844 24.761719 L 22.089844 23.605469 L 22.257812 23.605469 L 22.257812 24.761719 Z M 22.636719 24.761719 L 22.324219 24.347656 L 22.441406 24.230469 L 22.84375 24.761719 Z M 22.636719 24.761719 " fill-opacity="1" fill-rule="nonzero"/><g mask="url(#4c8fe930fa)"><g transform="matrix(1, 0, 0, 1, 9, 12)"><g clip-path="url(#618182ec59)"><g clip-path="url(#c909855985)"><path fill="#ff5757" d="M 1.191406 2.542969 L 1.191406 0.164062 L 1.546875 0.164062 L 1.546875 2.234375 L 2.625 2.234375 L 2.625 2.542969 Z M 4.46875 0.164062 L 4.828125 0.164062 L 4.828125 1.726562 C 4.828125 1.894531 4.789062 2.042969 4.710938 2.171875 C 4.632812 2.296875 4.523438 2.398438 4.378906 2.472656 C 4.238281 2.542969 4.070312 2.582031 3.882812 2.582031 C 3.691406 2.582031 3.527344 2.542969 3.382812 2.472656 C 3.242188 2.398438 3.132812 2.296875 3.054688 2.171875 C 2.976562 2.042969 2.9375 1.894531 2.9375 1.726562 L 2.9375 0.164062 L 3.296875 0.164062 L 3.296875 1.699219 C 3.296875 1.804688 3.320312 1.902344 3.367188 1.984375 C 3.414062 2.070312 3.484375 2.136719 3.570312 2.183594 C 3.65625 2.230469 3.761719 2.253906 3.882812 2.253906 C 4.003906 2.253906 4.105469 2.230469 4.195312 2.183594 C 4.28125 2.136719 4.351562 2.070312 4.394531 1.984375 C 4.445312 1.902344 4.46875 1.804688 4.46875 1.699219 Z M 5.25 2.542969 L 5.25 0.164062 L 5.609375 0.164062 L 5.609375 1.195312 L 6.796875 1.195312 L 6.796875 0.164062 L 7.15625 0.164062 L 7.15625 2.542969 L 6.796875 2.542969 L 6.796875 1.503906 L 5.609375 1.503906 L 5.609375 2.542969 Z M 7.78125 2.542969 L 7.398438 2.542969 L 8.253906 0.164062 L 8.671875 0.164062 L 9.527344 2.542969 L 9.144531 2.542969 L 8.472656 0.59375 L 8.453125 0.59375 Z M 7.84375 1.609375 L 9.078125 1.609375 L 9.078125 1.914062 L 7.84375 1.914062 Z M 11.691406 0.164062 L 11.691406 2.542969 L 11.359375 2.542969 L 10.152344 0.796875 L 10.128906 0.796875 L 10.128906 2.542969 L 9.769531 2.542969 L 9.769531 0.164062 L 10.101562 0.164062 L 11.3125 1.910156 L 11.335938 1.910156 L 11.335938 0.164062 Z M 13.414062 0.789062 C 13.402344 0.679688 13.351562 0.59375 13.261719 0.53125 C 13.171875 0.472656 13.058594 0.441406 12.921875 0.441406 C 12.824219 0.441406 12.738281 0.457031 12.667969 0.488281 C 12.597656 0.515625 12.542969 0.558594 12.5 0.613281 C 12.464844 0.664062 12.445312 0.726562 12.445312 0.792969 C 12.445312 0.847656 12.457031 0.898438 12.484375 0.9375 C 12.511719 0.980469 12.546875 1.015625 12.589844 1.042969 C 12.632812 1.070312 12.679688 1.09375 12.730469 1.109375 C 12.78125 1.128906 12.828125 1.144531 12.875 1.15625 L 13.109375 1.214844 C 13.183594 1.234375 13.261719 1.257812 13.339844 1.289062 C 13.421875 1.324219 13.496094 1.363281 13.5625 1.417969 C 13.632812 1.46875 13.6875 1.53125 13.726562 1.609375 C 13.769531 1.6875 13.792969 1.777344 13.792969 1.882812 C 13.792969 2.019531 13.757812 2.136719 13.6875 2.242188 C 13.617188 2.347656 13.519531 2.429688 13.386719 2.492188 C 13.253906 2.550781 13.097656 2.582031 12.910156 2.582031 C 12.734375 2.582031 12.578125 2.554688 12.449219 2.496094 C 12.320312 2.441406 12.21875 2.359375 12.144531 2.257812 C 12.070312 2.152344 12.03125 2.027344 12.023438 1.882812 L 12.382812 1.882812 C 12.390625 1.96875 12.417969 2.042969 12.464844 2.097656 C 12.515625 2.15625 12.578125 2.199219 12.65625 2.226562 C 12.730469 2.253906 12.816406 2.265625 12.910156 2.265625 C 13.011719 2.265625 13.101562 2.25 13.179688 2.21875 C 13.257812 2.1875 13.324219 2.140625 13.367188 2.085938 C 13.414062 2.027344 13.4375 1.957031 13.4375 1.878906 C 13.4375 1.808594 13.417969 1.753906 13.375 1.707031 C 13.335938 1.664062 13.28125 1.625 13.214844 1.597656 C 13.148438 1.566406 13.070312 1.539062 12.984375 1.519531 L 12.703125 1.441406 C 12.515625 1.390625 12.363281 1.3125 12.253906 1.214844 C 12.140625 1.113281 12.085938 0.980469 12.085938 0.8125 C 12.085938 0.675781 12.125 0.558594 12.199219 0.453125 C 12.273438 0.351562 12.371094 0.273438 12.5 0.214844 C 12.625 0.160156 12.769531 0.128906 12.929688 0.128906 C 13.089844 0.128906 13.230469 0.160156 13.355469 0.214844 C 13.480469 0.273438 13.578125 0.351562 13.648438 0.449219 C 13.71875 0.546875 13.757812 0.660156 13.757812 0.789062 Z M 14.121094 2.542969 L 14.121094 0.164062 L 14.480469 0.164062 L 14.480469 1.300781 L 14.511719 1.300781 L 15.507812 0.164062 L 15.960938 0.164062 L 15 1.234375 L 15.964844 2.542969 L 15.53125 2.542969 L 14.761719 1.480469 L 14.480469 1.800781 L 14.480469 2.542969 Z M 14.121094 2.542969 " fill-opacity="1" fill-rule="nonzero"/></g></g></g></g></svg>