<svg xmlns="http://www.w3.org/2000/svg" xmlns:xlink="http://www.w3.org/1999/xlink" width="50" zoomAndPan="magnify" viewBox="0 0 37.5 37.499999" height="50" preserveAspectRatio="xMidYMid meet" version="1.0"><defs><filter x="0%" y="0%" width="100%" height="100%" id="54d598d259"><feColorMatrix values="0 0 0 0 1 0 0 0 0 1 0 0 0 0 1 0 0 0 1 0" color-interpolation-filters="sRGB"/></filter><clipPath id="d3d8d76c00"><path d="M 3 2.21875 L 33.277344 2.21875 L 33.277344 34.78125 L 3 34.78125 Z M 3 2.21875 " clip-rule="nonzero"/></clipPath><clipPath id="9a2d4c9e0d"><path d="M 2.933594 2.21875 L 33.277344 2.21875 L 33.277344 34.78125 L 2.933594 34.78125 Z M 2.933594 2.21875 " clip-rule="nonzero"/></clipPath><mask id="16078517e3"><g filter="url(#54d598d259)"><rect x="-3.75" width="45" fill="#000000" y="-3.75" height="44.999999" fill-opacity="0.08"/></g></mask><clipPath id="75f673c8a7"><path d="M 0.421875 0.261719 L 13.449219 0.261719 L 13.449219 3.816406 L 0.421875 3.816406 Z M 0.421875 0.261719 " clip-rule="nonzero"/></clipPath><clipPath id="95ef5cba99"><rect x="0" width="14" y="0" height="4"/></clipPath></defs><g clip-path="url(#d3d8d76c00)"><path fill="#000000" d="M 22.597656 2.542969 L 23.015625 2.394531 L 23.933594 3.019531 L 24.730469 3.179688 L 24.832031 3.328125 L 25.609375 3.328125 L 25.742188 3.121094 L 26.042969 3.289062 L 26.253906 2.9375 L 26.992188 3.222656 L 27.0625 3.410156 L 27.476562 3.6875 L 27.953125 3.664062 L 28.375 3.816406 L 28.222656 4.058594 L 27.863281 4.277344 L 27.574219 4.773438 L 27.742188 5.21875 L 27.578125 5.332031 L 27.492188 5.625 L 27.84375 6.015625 L 27.71875 6.3125 L 27.84375 6.367188 L 27.992188 6.238281 L 28.113281 6.554688 L 27.882812 7.035156 L 27.914062 7.257812 L 27.726562 7.4375 L 27.601562 7.996094 L 27.164062 8.75 L 26.957031 8.6875 L 26.820312 9.070312 L 26.6875 9.039062 L 26.726562 8.90625 L 26.277344 8.945312 L 26.277344 9.246094 L 26.535156 9.089844 L 26.644531 9.46875 L 26.875 9.441406 L 27.132812 9.863281 L 27.046875 10.292969 L 26.835938 10.402344 L 26.699219 10.714844 L 27.027344 10.863281 L 27.03125 11.039062 L 26.5 11.242188 L 26.542969 11.445312 L 27.164062 11.378906 L 27.105469 11.621094 L 27.378906 11.628906 L 27.332031 11.855469 L 27.597656 11.839844 L 27.597656 12.925781 L 28.125 13.320312 L 28.207031 13.574219 L 28.316406 13.5625 L 28.292969 13.871094 L 28.421875 13.742188 L 28.621094 13.804688 L 28.496094 13.636719 L 28.640625 13.410156 L 29.03125 13.40625 L 28.988281 13.761719 L 29.265625 13.910156 L 29.378906 13.832031 L 29.578125 13.90625 L 29.890625 13.664062 L 30.039062 13.933594 L 29.789062 14.042969 L 29.882812 14.121094 L 29.847656 14.660156 L 30.136719 14.972656 L 30.558594 15.167969 L 30.652344 15.582031 L 30.867188 15.597656 L 31.179688 15.84375 L 31.101562 16.089844 L 31.253906 16.292969 L 31.269531 16.617188 L 31.929688 16.765625 L 32.675781 17.59375 L 32.773438 18.136719 L 32.558594 18.140625 L 32.554688 18.347656 L 32.042969 18.574219 L 31.992188 18.417969 L 31.824219 18.398438 L 31.820312 18.71875 L 31.40625 18.664062 L 31.121094 18.800781 L 31.28125 19.074219 L 31.191406 19.441406 L 31.640625 19.570312 L 32.140625 19.507812 L 32.992188 20.074219 L 33.199219 20.992188 L 32.941406 21.082031 L 32.898438 21.644531 L 31.898438 21.738281 L 31.492188 21.898438 L 31.96875 22.28125 L 31.832031 23.605469 L 32.082031 23.636719 L 32.382812 23.917969 L 32.394531 24.101562 L 32.183594 24.515625 L 30.832031 24.304688 L 30.570312 24.933594 L 30.5625 25.523438 L 30.378906 25.976562 L 30.457031 26.621094 L 30.371094 26.996094 L 29.820312 27.820312 L 30.050781 28.121094 L 29.9375 28.257812 L 29.792969 28.203125 L 29.441406 27.40625 L 29.210938 27.246094 L 28.800781 27.378906 L 28.421875 27.335938 L 28.59375 27.128906 L 28.210938 26.714844 L 28.207031 26.320312 L 27.484375 26.535156 L 27.0625 26.515625 L 27.105469 26.882812 L 26.949219 26.792969 L 26.054688 27.117188 L 25.441406 27.398438 L 25.484375 27.550781 L 24.738281 27.40625 L 24.492188 27.054688 L 24.605469 27.453125 L 24.429688 27.734375 L 24.269531 27.707031 L 24.144531 27.898438 L 24.277344 27.867188 L 24.316406 28.082031 L 24.710938 28.480469 L 24.152344 28.535156 L 24.097656 28.417969 L 23.796875 28.390625 L 23.589844 28.136719 L 23.3125 28.132812 L 23.539062 28.765625 L 23.433594 29.15625 L 23.691406 29.042969 L 23.789062 29.375 L 23.621094 29.5 L 23.453125 29.914062 L 22.875 29.976562 L 22.753906 29.847656 L 22.238281 29.785156 L 22.164062 29.628906 L 21.375 29.644531 L 21.347656 30.019531 L 21.710938 30.300781 L 21.796875 30.511719 L 21.683594 31.1875 L 20.910156 31.066406 L 21.671875 31.503906 L 21.523438 31.984375 L 21.769531 31.914062 L 21.90625 32.140625 L 21.933594 32.566406 L 22.226562 32.570312 L 22.402344 32.867188 L 22.25 33.195312 L 22.027344 33.238281 L 21.890625 32.882812 L 21.597656 33.066406 L 21.667969 33.515625 L 21.875 33.804688 L 21.402344 34.027344 L 21.414062 34.179688 L 21.195312 34.171875 L 21.09375 34.378906 L 21.222656 34.617188 L 20.5625 34.347656 L 20.601562 33.871094 L 20.488281 33.601562 L 20.09375 33.585938 L 19.164062 32.722656 L 19.023438 32.925781 L 19.09375 33.539062 L 18.492188 33.535156 L 18.5 33.285156 L 18.269531 33.261719 L 18.160156 33.410156 L 17.328125 33.503906 L 17.152344 33.640625 L 16.386719 33.542969 L 16.484375 32.933594 L 15.667969 32.441406 L 15.667969 32.3125 L 14.96875 32.25 L 15.003906 31.414062 L 14.890625 31.335938 L 15.019531 31.242188 L 14.902344 30.757812 L 14.992188 30.648438 L 14.867188 30.582031 L 14.828125 30.757812 L 14.582031 30.816406 L 14.464844 30.710938 L 14.484375 30.214844 L 14.152344 29.597656 L 13.945312 29.527344 L 13.425781 29.816406 L 13.199219 29.808594 L 12.699219 29.457031 L 12.621094 29.175781 L 12.742188 28.945312 L 12.386719 28.5625 L 12.21875 28.761719 L 11.757812 28.757812 L 11.589844 29.1875 L 10.746094 29.035156 L 10.277344 28.707031 L 10.152344 28.378906 L 9.929688 28.316406 L 9.480469 27.488281 L 8.855469 27.527344 L 8.792969 27.277344 L 8.5625 27.207031 L 8.664062 26.421875 L 8.328125 26.492188 L 8.011719 26.351562 L 7.980469 25.898438 L 8.074219 25.820312 L 7.941406 25.777344 L 8.078125 25.550781 L 7.945312 25.429688 L 7.542969 25.507812 L 7.410156 25.371094 L 7.277344 25.019531 L 7.335938 24.632812 L 7.621094 24.226562 L 7.839844 24.109375 L 8.332031 24.136719 L 8.328125 24.234375 L 9.078125 24.144531 L 9.480469 23.824219 L 9.558594 23.589844 L 9.207031 23.550781 L 8.847656 23.199219 L 8.4375 23.148438 L 7.4375 22.015625 L 7.269531 21.273438 L 6.746094 20.875 L 7.003906 20.800781 L 6.855469 20.765625 L 6.769531 20.546875 L 6.953125 20.347656 L 6.75 20.277344 L 6.703125 19.667969 L 6.40625 19.511719 L 6.292969 19.609375 L 6.222656 19.28125 L 6.074219 19.171875 L 6.113281 18.933594 L 5.957031 18.757812 L 6.015625 18.585938 L 6.1875 18.578125 L 6.222656 18.191406 L 5.890625 17.929688 L 5.65625 17.964844 L 5.464844 17.535156 L 5.195312 17.453125 L 4.84375 17.003906 L 4.648438 16.984375 L 4.683594 16.738281 L 4.492188 16.535156 L 4.484375 16.054688 L 4.136719 15.644531 L 4.132812 15.480469 L 4.082031 15.566406 L 3.726562 15.476562 L 3.65625 15.578125 L 3.515625 15.480469 L 3.59375 15.320312 L 3.449219 15.136719 L 3.40625 14.691406 L 3.628906 14.539062 L 3.558594 14.464844 L 3.738281 14.03125 L 3.976562 14.007812 L 3.898438 13.800781 L 4.011719 13.625 L 3.875 13.523438 L 4.1875 13.355469 L 4.179688 13.171875 L 4.0625 13.109375 L 4.191406 13.03125 L 4.050781 13.027344 L 3.890625 12.796875 L 3.980469 12.578125 L 3.554688 12.507812 L 3.523438 12.265625 L 3.851562 12.023438 L 3.796875 11.800781 L 3.675781 11.660156 L 3.425781 11.742188 L 3.195312 11.527344 L 3.167969 11.238281 L 3.222656 11.386719 L 3.738281 11.484375 L 3.878906 11.355469 L 3.398438 10.464844 L 3.675781 10.15625 L 3.722656 9.878906 L 3.34375 9.667969 L 3.039062 9.0625 L 3.726562 8.730469 L 3.890625 8.488281 L 4.273438 8.5625 L 5.136719 8.234375 L 5.261719 8.375 L 5.277344 8.769531 L 5.695312 8.640625 L 6.71875 8.914062 L 6.316406 9.378906 L 6.351562 9.703125 L 6.847656 9.5625 L 7.742188 9.90625 L 8.046875 9.507812 L 8.695312 9.132812 L 9.246094 8.25 L 11.042969 7.261719 L 11.613281 6.636719 L 11.335938 5.617188 L 11.910156 4.710938 L 11.855469 4.488281 L 12.441406 4.054688 L 13.53125 4.066406 L 14.664062 3.902344 L 15.375 3.664062 L 15.890625 3.859375 L 16.429688 3.785156 L 16.742188 4.035156 L 16.929688 4.035156 L 17.734375 3.460938 L 17.875 3.492188 L 17.964844 3.773438 L 18.867188 3.5 L 19.023438 3.777344 L 19.425781 3.777344 L 19.824219 3.390625 L 20.09375 3.351562 L 21.007812 2.714844 L 21.535156 2.710938 L 22.199219 2.367188 Z M 22.597656 2.542969 " fill-opacity="1" fill-rule="nonzero"/></g><g clip-path="url(#9a2d4c9e0d)"><path stroke-linecap="round" transform="matrix(0.16834, 0, 0, 0.16834, 2.898024, 2.204427)" fill="none" stroke-linejoin="round" d="M 117.022935 2.011061 L 119.505821 1.129288 L 124.958887 4.842014 L 129.692612 5.7934 L 130.29593 6.675173 L 134.913633 6.675173 L 135.702587 5.445332 L 137.489336 6.443127 L 138.742381 4.354719 L 143.128038 6.04865 L 143.54572 7.162468 L 146.005401 8.80999 L 148.836354 8.670763 L 151.342444 9.57574 L 150.437467 11.014421 L 148.30265 12.313875 L 146.585514 15.260851 L 147.583309 17.906168 L 146.608719 18.5791 L 146.098219 20.31944 L 148.186627 22.639894 L 147.444082 24.403438 L 148.186627 24.728302 L 149.0684 23.962552 L 149.78774 25.84212 L 148.418673 28.696278 L 148.604309 30.018936 L 147.490491 31.086345 L 146.747946 34.404593 L 144.149038 38.883069 L 142.919198 38.511796 L 142.107039 40.785841 L 141.318085 40.600205 L 141.55013 39.81125 L 138.881608 40.043296 L 138.881608 41.830045 L 140.413108 40.901864 L 141.062835 43.152704 L 142.431902 42.990272 L 143.963402 45.496362 L 143.452902 48.048861 L 142.199857 48.698588 L 141.387698 50.554951 L 143.336879 51.436723 L 143.360084 52.480927 L 140.204267 53.687563 L 140.459517 54.894199 L 144.149038 54.499722 L 143.80097 55.938403 L 145.425288 55.984812 L 145.146833 57.330675 L 146.724742 57.237857 L 146.724742 63.688718 L 149.857354 66.032376 L 150.344649 67.540671 L 150.994376 67.471058 L 150.855149 69.304216 L 151.620899 68.538466 L 152.80433 68.909739 L 152.061785 67.911944 L 152.920353 66.566081 L 155.240806 66.542876 L 154.985557 68.654489 L 156.633079 69.536261 L 157.30601 69.072171 L 158.489442 69.513057 L 160.345804 68.074376 L 161.227577 69.675489 L 159.742486 70.325216 L 160.299395 70.789306 L 160.090555 73.991532 L 161.80769 75.847895 L 164.31378 77.008122 L 164.870689 79.467803 L 166.146938 79.560621 L 168.003301 81.022507 L 167.539211 82.484393 L 168.444188 83.691029 L 168.537006 85.617005 L 172.458572 86.498777 L 176.890639 91.418139 L 177.470752 94.64357 L 176.194503 94.666774 L 176.171298 95.896615 L 173.131504 97.242478 L 172.829845 96.314296 L 171.83205 96.198274 L 171.808845 98.101046 L 169.349164 97.776182 L 167.655233 98.588341 L 168.606619 100.212658 L 168.072915 102.393885 L 170.741437 103.159634 L 173.711617 102.788362 L 178.770206 106.15302 L 180.000047 111.606086 L 178.468547 112.13979 L 178.213297 115.481243 L 172.272936 116.038152 L 169.859664 116.989538 L 172.690618 119.263583 L 171.878459 127.12992 L 173.363549 127.315557 L 175.150299 128.986283 L 175.219912 130.076897 L 173.966867 132.536577 L 165.938098 131.283532 L 164.383394 135.019463 L 164.336985 138.523348 L 163.246371 141.215074 L 163.710462 145.043822 L 163.199962 147.271458 L 159.928123 152.167615 L 161.29719 153.954364 L 160.624259 154.766523 L 159.765691 154.44166 L 157.677283 149.707934 L 156.308215 148.756548 L 153.871739 149.545502 L 151.620899 149.290253 L 152.641898 148.060412 L 150.367854 145.600731 L 150.344649 143.257073 L 146.05181 144.533323 L 143.54572 144.4173 L 143.80097 146.598526 L 142.872789 146.064822 L 137.55895 147.990799 L 133.915838 149.661525 L 134.171087 150.566502 L 129.739021 149.707934 L 128.277135 147.619526 L 128.950067 149.986389 L 127.905863 151.657115 L 126.954477 151.494683 L 126.211932 152.631706 L 127.000886 152.446069 L 127.232931 153.722319 L 129.576589 156.089182 L 126.258341 156.414045 L 125.933477 155.717909 L 124.146728 155.555477 L 122.916887 154.047182 L 121.269365 154.023978 L 122.615228 157.783113 L 121.988706 160.103566 L 123.520205 159.430635 L 124.100319 161.40302 L 123.102524 162.145566 L 122.104729 164.605246 L 118.670457 164.976519 L 117.951117 164.210769 L 114.888118 163.839497 L 114.447232 162.911315 L 109.759915 163.004133 L 109.597484 165.231769 L 111.755505 166.902496 L 112.266005 168.155541 L 111.593074 172.169925 L 106.998576 171.450585 L 111.52346 174.049493 L 110.641688 176.903651 L 112.103574 176.485969 L 112.915732 177.831832 L 113.078164 180.361127 L 114.818504 180.384331 L 115.862708 182.147876 L 114.957731 184.097057 L 113.635073 184.352307 L 112.822914 182.240694 L 111.082574 183.331307 L 111.500256 185.999829 L 112.730096 187.716965 L 109.922347 189.039623 L 109.991961 189.9446 L 108.692507 189.898191 L 108.089189 191.128031 L 108.854938 192.543508 L 104.933372 190.942395 L 105.165417 188.111442 L 104.492486 186.510329 L 102.148827 186.417511 L 96.626148 181.289308 L 95.790785 182.495944 L 96.208466 186.139056 L 92.634968 186.115852 L 92.681377 184.630761 L 91.312309 184.491534 L 90.662582 185.373306 L 85.720016 185.930215 L 84.675812 186.742374 L 80.127723 186.162261 L 80.707836 182.542353 L 75.858088 179.618581 L 75.858088 178.852832 L 71.704476 178.481559 L 71.913317 173.515788 L 71.240385 173.051698 L 72.006135 172.494789 L 71.309999 169.617426 L 71.843703 168.967699 L 71.101158 168.573222 L 70.869113 169.617426 L 69.407227 169.965494 L 68.711091 169.338972 L 68.827113 166.391996 L 66.854728 162.725679 L 65.624887 162.307997 L 62.538684 164.025133 L 61.192821 163.978724 L 58.22264 161.890316 L 57.75855 160.219589 L 58.47789 158.850521 L 56.366277 156.576477 L 55.368482 157.759908 L 52.630347 157.736704 L 51.632552 160.289203 L 46.620372 159.384226 L 43.835828 157.435045 L 43.093283 155.485864 L 41.770624 155.114591 L 39.102102 150.195229 L 35.389377 150.427275 L 35.018104 148.942184 L 33.649036 148.524503 L 34.252354 143.860391 L 32.256764 144.278073 L 30.377197 143.442709 L 30.19156 140.750983 L 30.748469 140.286892 L 29.959515 140.031643 L 30.771674 138.685779 L 29.98272 137.966439 L 27.592652 138.43053 L 26.803698 137.618371 L 26.014744 135.529963 L 26.362812 133.232713 L 28.056743 130.819442 L 29.356197 130.123306 L 32.279969 130.285737 L 32.256764 130.865851 L 36.712035 130.332146 L 39.102102 128.429374 L 39.566193 127.037102 L 37.477785 126.805057 L 35.342968 124.716649 L 32.906491 124.41499 L 26.96613 117.685674 L 25.968335 113.276812 L 22.858927 110.90995 L 24.390426 110.469063 L 23.508654 110.260223 L 22.998154 108.960769 L 24.088767 107.777337 L 22.882132 107.359656 L 22.603677 103.739748 L 20.840132 102.811566 L 20.167201 103.39168 L 19.749519 101.442499 L 18.867747 100.792772 L 19.099792 99.377295 L 18.171611 98.333091 L 18.519679 97.312091 L 19.540678 97.265682 L 19.749519 94.968433 L 17.777134 93.413729 L 16.384861 93.62257 L 15.247839 91.070071 L 13.646726 90.582776 L 11.558318 87.914254 L 10.398091 87.798231 L 10.606932 86.336346 L 9.46991 85.12971 L 9.423501 82.275552 L 7.358297 79.839076 L 7.335092 78.864485 L 7.033433 79.374985 L 4.921821 78.84128 L 4.504139 79.444598 L 3.668776 78.864485 L 4.132866 77.913099 L 3.274298 76.822486 L 3.019049 74.177169 L 4.341707 73.272192 L 3.924025 72.831306 L 4.991434 70.255602 L 6.406911 70.116375 L 5.94282 68.886534 L 6.615752 67.84233 L 5.803593 67.239012 L 7.659956 66.241217 L 7.613547 65.150604 L 6.917411 64.779331 L 7.68316 64.315241 L 6.847797 64.292036 L 5.896411 62.922969 L 6.430115 61.623515 L 3.900821 61.205833 L 3.715185 59.767152 L 5.664366 58.32847 L 5.339502 57.005812 L 4.620162 56.170449 L 3.135071 56.657744 L 1.766004 55.381494 L 1.603572 53.664359 L 1.928435 54.546131 L 4.991434 55.126244 L 5.826797 54.360495 L 2.972639 49.06986 L 4.620162 47.236702 L 4.898616 45.58918 L 2.647776 44.336135 L 0.837822 40.739432 L 4.921821 38.767046 L 5.896411 37.328365 L 8.170456 37.769251 L 13.298658 35.82007 L 14.041203 36.655434 L 14.134021 38.999092 L 16.616907 38.233342 L 22.696495 39.85766 L 20.306428 42.618999 L 20.515269 44.544976 L 23.462245 43.709613 L 28.776084 45.751612 L 30.586038 43.384749 L 34.437991 41.157114 L 37.70983 35.912888 L 48.383917 30.042141 L 51.771779 26.329415 L 50.124257 20.273031 L 53.535324 14.889578 L 53.21046 13.56692 L 56.691141 10.991216 L 63.165207 11.06083 L 69.894522 10.086239 L 74.117748 8.670763 L 77.180746 9.83099 L 80.382972 9.390103 L 82.239335 10.875194 L 83.353153 10.875194 L 88.133288 7.464127 L 88.968651 7.649763 L 89.502355 9.32049 L 94.862603 7.696172 L 95.790785 9.343694 L 98.180852 9.343694 L 100.547714 7.046445 L 102.148827 6.8144 L 107.578689 3.03206 L 110.711301 3.008856 L 114.656072 0.966857 Z M 117.022935 2.011061 " stroke="#ffffff" stroke-width="1.19" stroke-opacity="1" stroke-miterlimit="4"/></g><path fill="#ff5757" d="M 18.464844 25.089844 L 18.464844 23.660156 L 18.679688 23.660156 L 18.679688 24.902344 L 19.328125 24.902344 L 19.328125 25.089844 Z M 20.234375 24.644531 L 20.234375 24.019531 L 20.445312 24.019531 L 20.445312 25.089844 L 20.238281 25.089844 L 20.238281 24.902344 L 20.226562 24.902344 C 20.203125 24.960938 20.164062 25.007812 20.109375 25.046875 C 20.054688 25.085938 19.988281 25.101562 19.90625 25.101562 C 19.839844 25.101562 19.777344 25.089844 19.722656 25.058594 C 19.671875 25.027344 19.628906 24.980469 19.601562 24.921875 C 19.570312 24.863281 19.554688 24.789062 19.554688 24.699219 L 19.554688 24.019531 L 19.765625 24.019531 L 19.765625 24.675781 C 19.765625 24.746094 19.785156 24.804688 19.824219 24.847656 C 19.863281 24.890625 19.917969 24.914062 19.980469 24.914062 C 20.019531 24.914062 20.058594 24.902344 20.097656 24.882812 C 20.136719 24.863281 20.171875 24.835938 20.195312 24.796875 C 20.222656 24.757812 20.234375 24.707031 20.234375 24.644531 Z M 21.222656 24.019531 L 21.222656 24.1875 L 20.636719 24.1875 L 20.636719 24.019531 Z M 20.796875 23.761719 L 21.003906 23.761719 L 21.003906 24.773438 C 21.003906 24.816406 21.011719 24.847656 21.023438 24.867188 C 21.035156 24.886719 21.050781 24.898438 21.070312 24.90625 C 21.089844 24.914062 21.109375 24.917969 21.132812 24.917969 C 21.148438 24.917969 21.164062 24.917969 21.175781 24.914062 C 21.1875 24.910156 21.199219 24.910156 21.207031 24.910156 L 21.242188 25.082031 C 21.230469 25.085938 21.214844 25.089844 21.191406 25.09375 C 21.167969 25.101562 21.140625 25.101562 21.109375 25.101562 C 21.054688 25.105469 21 25.09375 20.953125 25.074219 C 20.90625 25.054688 20.867188 25.023438 20.839844 24.980469 C 20.808594 24.9375 20.796875 24.882812 20.796875 24.816406 Z M 22.238281 24.28125 L 22.050781 24.3125 C 22.042969 24.289062 22.03125 24.265625 22.011719 24.246094 C 21.996094 24.222656 21.972656 24.203125 21.945312 24.191406 C 21.914062 24.175781 21.878906 24.167969 21.835938 24.167969 C 21.777344 24.167969 21.726562 24.183594 21.6875 24.210938 C 21.648438 24.234375 21.628906 24.269531 21.628906 24.308594 C 21.628906 24.347656 21.644531 24.375 21.667969 24.398438 C 21.695312 24.417969 21.738281 24.4375 21.796875 24.449219 L 21.96875 24.488281 C 22.066406 24.511719 22.140625 24.546875 22.1875 24.59375 C 22.238281 24.640625 22.261719 24.703125 22.261719 24.78125 C 22.261719 24.84375 22.242188 24.902344 22.203125 24.953125 C 22.167969 25 22.117188 25.039062 22.050781 25.070312 C 21.984375 25.097656 21.910156 25.109375 21.824219 25.109375 C 21.703125 25.109375 21.605469 25.085938 21.527344 25.035156 C 21.453125 24.984375 21.40625 24.910156 21.390625 24.816406 L 21.589844 24.785156 C 21.605469 24.835938 21.628906 24.875 21.667969 24.902344 C 21.707031 24.929688 21.757812 24.941406 21.820312 24.941406 C 21.890625 24.941406 21.945312 24.929688 21.984375 24.898438 C 22.027344 24.871094 22.046875 24.835938 22.046875 24.796875 C 22.046875 24.761719 22.035156 24.734375 22.007812 24.710938 C 21.984375 24.6875 21.945312 24.671875 21.894531 24.660156 L 21.714844 24.621094 C 21.613281 24.597656 21.539062 24.558594 21.492188 24.511719 C 21.445312 24.460938 21.421875 24.398438 21.421875 24.320312 C 21.421875 24.257812 21.4375 24.203125 21.472656 24.15625 C 21.507812 24.109375 21.558594 24.070312 21.621094 24.042969 C 21.683594 24.019531 21.753906 24.003906 21.835938 24.003906 C 21.949219 24.003906 22.042969 24.03125 22.109375 24.078125 C 22.175781 24.128906 22.21875 24.195312 22.238281 24.28125 Z M 22.683594 24.726562 L 22.679688 24.472656 L 22.714844 24.472656 L 23.144531 24.019531 L 23.394531 24.019531 L 22.90625 24.535156 L 22.875 24.535156 Z M 22.488281 25.089844 L 22.488281 23.660156 L 22.699219 23.660156 L 22.699219 25.089844 Z M 23.167969 25.089844 L 22.78125 24.582031 L 22.925781 24.433594 L 23.421875 25.089844 Z M 23.167969 25.089844 " fill-opacity="1" fill-rule="nonzero"/><g mask="url(#16078517e3)"><g transform="matrix(1, 0, 0, 1, 10, 13)"><g clip-path="url(#95ef5cba99)"><g clip-path="url(#75f673c8a7)"><path fill="#ff5757" d="M 0.972656 0.566406 L 1.792969 2.957031 L 1.824219 2.957031 L 2.644531 0.566406 L 3.121094 0.566406 L 2.066406 3.503906 L 1.550781 3.503906 L 0.496094 0.566406 Z M 5.832031 2.035156 C 5.832031 2.347656 5.773438 2.617188 5.660156 2.84375 C 5.542969 3.070312 5.386719 3.242188 5.1875 3.363281 C 4.988281 3.484375 4.761719 3.542969 4.507812 3.542969 C 4.253906 3.542969 4.027344 3.484375 3.828125 3.363281 C 3.628906 3.242188 3.472656 3.070312 3.355469 2.84375 C 3.242188 2.617188 3.183594 2.347656 3.183594 2.035156 C 3.183594 1.722656 3.242188 1.453125 3.355469 1.226562 C 3.472656 1 3.628906 0.828125 3.828125 0.707031 C 4.027344 0.585938 4.253906 0.527344 4.507812 0.527344 C 4.761719 0.527344 4.988281 0.585938 5.1875 0.707031 C 5.386719 0.828125 5.542969 1 5.660156 1.226562 C 5.773438 1.453125 5.832031 1.722656 5.832031 2.035156 Z M 5.394531 2.035156 C 5.394531 1.796875 5.355469 1.59375 5.277344 1.429688 C 5.199219 1.265625 5.09375 1.140625 4.960938 1.058594 C 4.828125 0.972656 4.675781 0.929688 4.507812 0.929688 C 4.339844 0.929688 4.1875 0.972656 4.054688 1.058594 C 3.921875 1.140625 3.816406 1.265625 3.738281 1.429688 C 3.664062 1.59375 3.625 1.796875 3.625 2.035156 C 3.625 2.273438 3.664062 2.476562 3.738281 2.640625 C 3.816406 2.804688 3.921875 2.929688 4.054688 3.011719 C 4.1875 3.097656 4.339844 3.140625 4.507812 3.140625 C 4.675781 3.140625 4.828125 3.097656 4.960938 3.011719 C 5.09375 2.929688 5.199219 2.804688 5.277344 2.640625 C 5.355469 2.476562 5.394531 2.273438 5.394531 2.035156 Z M 6.261719 3.503906 L 6.261719 0.566406 L 6.707031 0.566406 L 6.707031 3.121094 L 8.039062 3.121094 L 8.039062 3.503906 Z M 7.980469 0.566406 L 8.484375 0.566406 L 9.25 1.902344 L 9.28125 1.902344 L 10.050781 0.566406 L 10.554688 0.566406 L 9.488281 2.351562 L 9.488281 3.503906 L 9.042969 3.503906 L 9.042969 2.351562 Z M 13.222656 0.566406 L 13.222656 3.503906 L 12.8125 3.503906 L 11.320312 1.347656 L 11.292969 1.347656 L 11.292969 3.503906 L 10.851562 3.503906 L 10.851562 0.566406 L 11.261719 0.566406 L 12.753906 2.722656 L 12.78125 2.722656 L 12.78125 0.566406 Z M 13.222656 0.566406 " fill-opacity="1" fill-rule="nonzero"/></g></g></g></g></svg>