<svg xmlns="http://www.w3.org/2000/svg" xmlns:xlink="http://www.w3.org/1999/xlink" width="50" zoomAndPan="magnify" viewBox="0 0 37.5 37.499999" height="50" preserveAspectRatio="xMidYMid meet" version="1.0"><defs><filter x="0%" y="0%" width="100%" height="100%" id="1e0649fc6f"><feColorMatrix values="0 0 0 0 1 0 0 0 0 1 0 0 0 0 1 0 0 0 1 0" color-interpolation-filters="sRGB"/></filter><clipPath id="55740b774f"><path d="M 0.863281 5.664062 L 36 5.664062 L 36 31.570312 L 0.863281 31.570312 Z M 0.863281 5.664062 " clip-rule="nonzero"/></clipPath><clipPath id="e8b2005e78"><path d="M 0.863281 5.664062 L 36.390625 5.664062 L 36.390625 31.570312 L 0.863281 31.570312 Z M 0.863281 5.664062 " clip-rule="nonzero"/></clipPath><mask id="b876787241"><g filter="url(#1e0649fc6f)"><rect x="-3.75" width="45" fill="#000000" y="-3.75" height="44.999999" fill-opacity="0.08"/></g></mask><clipPath id="522b5404ea"><path d="M 0.34375 0.261719 L 25.921875 0.261719 L 25.921875 3.34375 L 0.34375 3.34375 Z M 0.34375 0.261719 " clip-rule="nonzero"/></clipPath><clipPath id="a26ed10968"><rect x="0" width="26" y="0" height="4"/></clipPath></defs><g clip-path="url(#55740b774f)"><path fill="#000000" d="M 8.296875 6.832031 L 8.691406 7.019531 L 8.945312 6.777344 L 9.675781 6.945312 L 9.882812 6.726562 L 10.515625 7.324219 L 10.769531 7.308594 L 10.96875 7.816406 L 11.574219 7.691406 L 11.617188 7.460938 L 11.359375 7.199219 L 11.449219 7.035156 L 12.25 7.484375 L 11.746094 7.832031 L 11.972656 8.519531 L 11.691406 8.523438 L 11.355469 8.78125 L 11.34375 9.132812 L 11.632812 9.832031 L 12.167969 10.285156 L 12.644531 10.476562 L 12.757812 11.136719 L 12.964844 11.398438 L 13.144531 11.464844 L 13.386719 11.144531 L 13.699219 11.027344 L 13.949219 11.117188 L 14.503906 10.777344 L 14.984375 11.046875 L 15.003906 11.382812 L 15.246094 11.433594 L 15.960938 12.964844 L 16.84375 12.933594 L 17.136719 12.664062 L 17.703125 13.121094 L 18.21875 12.785156 L 18.429688 13.347656 L 19.074219 13.652344 L 19.746094 13.855469 L 20.265625 13.5625 L 20.847656 13.679688 L 21.453125 13.839844 L 21.574219 14.113281 L 21.914062 14.121094 L 22.09375 14.28125 L 22.113281 14.625 L 23.0625 15.554688 L 24.226562 15.617188 L 24.308594 16.582031 L 25.066406 17.355469 L 25.851562 17.199219 L 26.121094 17.566406 L 25.882812 18.828125 L 26.070312 19.1875 L 26.753906 19.359375 L 26.902344 19.238281 L 26.863281 19.042969 L 27.15625 18.371094 L 27.695312 18.472656 L 28.125 18.152344 L 28.28125 18.25 L 28.472656 17.964844 L 28.902344 17.785156 L 29.085938 17.976562 L 28.953125 18.199219 L 28.972656 18.710938 L 29.1875 18.953125 L 28.960938 19.28125 L 29 19.679688 L 29.214844 19.917969 L 29.15625 20.433594 L 29.332031 20.609375 L 29.292969 20.886719 L 29.71875 21.171875 L 29.710938 21.324219 L 30.613281 21.511719 L 30.785156 21.691406 L 31.234375 21.039062 L 31.210938 20.75 L 31.949219 20.902344 L 32.191406 21.113281 L 32.121094 21.460938 L 32.324219 21.710938 L 33.023438 22.074219 L 33.40625 22.652344 L 34.007812 23.113281 L 34.117188 23.328125 L 34.015625 23.890625 L 34.59375 24.132812 L 34.867188 24.453125 L 34.523438 24.824219 L 34.570312 24.957031 L 34.378906 25.132812 L 34.503906 25.355469 L 34.257812 25.710938 L 34.648438 26.433594 L 34.964844 26.554688 L 35.054688 26.859375 L 35.609375 27.210938 L 35.996094 28.019531 L 35.292969 28.628906 L 35.125 29.726562 L 34.960938 29.921875 L 34.570312 29.886719 L 34.359375 30.082031 L 33.296875 29.683594 L 32.707031 30.027344 L 32.546875 30.59375 L 32.09375 30.839844 L 31.742188 30.601562 L 31.125 31.019531 L 30.792969 30.996094 L 30.390625 31.214844 L 29.878906 30.777344 L 28.75 30.84375 L 28.507812 30.375 L 28.046875 30.058594 L 27.632812 30.128906 L 27.296875 29.753906 L 26.945312 29.921875 L 26.859375 29.769531 L 26.511719 29.84375 L 26.359375 30.160156 L 25.523438 30.273438 L 25.289062 30.476562 L 25.027344 30.3125 L 24.6875 29.519531 L 24.0625 29.175781 L 23.644531 29.132812 L 22.488281 29.394531 L 21.761719 28.894531 L 21.070312 28.992188 L 20.554688 28.652344 L 20.453125 29.152344 L 20.078125 29.742188 L 19.457031 29.5625 L 19.214844 29.28125 L 18.941406 29.3125 L 18.730469 29.027344 L 18.402344 28.988281 L 18.035156 28.636719 L 17.78125 28.640625 L 17.832031 28.269531 L 17.222656 28.101562 L 17.050781 27.914062 L 17.203125 27.535156 L 16.894531 27.25 L 16.859375 26.96875 L 16.675781 26.945312 L 16.566406 27.117188 L 15.808594 27.011719 L 15.636719 26.585938 L 15.457031 26.535156 L 15.21875 26.707031 L 15.066406 27.0625 L 14.714844 27.222656 L 14.84375 27.425781 L 14.589844 27.667969 L 14.675781 27.929688 L 14.496094 28.15625 L 14.632812 28.316406 L 14.386719 28.652344 L 14.488281 28.730469 L 14.40625 28.9375 L 13.582031 28.980469 L 13.328125 29.273438 L 12.722656 28.828125 L 12.570312 28.902344 L 12.109375 28.667969 L 11.988281 28.933594 L 12.25 29.105469 L 12.390625 29.765625 L 11.660156 30 L 11.550781 29.714844 L 10.863281 29.445312 L 10.804688 29.285156 L 11.21875 28.828125 L 11.4375 27.945312 L 11.253906 28 L 11.160156 27.546875 L 10.828125 27.355469 L 10.632812 26.988281 L 10.65625 26.601562 L 10.523438 26.574219 L 10.386719 26.816406 L 10.320312 26.484375 L 10.179688 26.585938 L 9.917969 26.496094 L 9.96875 26.679688 L 9.851562 26.765625 L 9.6875 26.539062 L 9.398438 26.53125 L 8.464844 27.125 L 7.339844 26.777344 L 7.445312 26.574219 L 7.292969 26.082031 L 7.429688 26.03125 L 7.226562 25.695312 L 7.105469 25.722656 L 6.953125 25.3125 L 7.050781 24.910156 L 6.503906 24.648438 L 6.265625 24.285156 L 6.273438 24.050781 L 6.019531 23.996094 L 6.078125 23.816406 L 5.875 23.699219 L 5.457031 23.953125 L 5.109375 23.738281 L 4.660156 23.785156 L 4.378906 24.085938 L 3.792969 23.164062 L 3.75 22.582031 L 3.421875 22.207031 L 3.5 21.640625 L 2.78125 21.480469 L 2.414062 20.953125 L 2.75 20.433594 L 2.355469 20.40625 L 1.941406 20.082031 L 1.074219 20.574219 L 0.976562 19.871094 L 1.289062 17.097656 L 1.609375 16.328125 L 2.066406 15.929688 L 2.285156 15.925781 L 2.578125 15.394531 L 3.308594 14.769531 L 3.820312 14.609375 L 4.132812 13.5625 L 4.121094 13.390625 L 3.871094 13.191406 L 3.910156 12.953125 L 4.488281 12.140625 L 4.328125 11.398438 L 4.421875 10.851562 L 4.621094 10.511719 L 4.957031 10.316406 L 5.105469 9.566406 L 5.015625 9.386719 L 5.714844 8.375 L 5.777344 8.039062 L 6.101562 7.882812 L 6.375 7.945312 L 6.722656 7.730469 L 6.605469 7.425781 L 6.796875 7.25 L 6.824219 6.210938 L 7.101562 5.890625 L 7.316406 5.800781 L 7.855469 6.152344 Z M 8.296875 6.832031 " fill-opacity="1" fill-rule="nonzero"/></g><g clip-path="url(#e8b2005e78)"><path stroke-linecap="round" transform="matrix(0.196282, 0, 0, 0.196282, 0.766806, 5.595153)" fill="none" stroke-linejoin="round" d="M 38.363505 6.301535 L 40.373527 7.256793 L 41.667105 6.022918 L 45.38863 6.87867 L 46.443394 5.764202 L 49.667389 8.809087 L 50.960968 8.729482 L 51.975929 11.316638 L 55.060616 10.6798 L 55.279529 9.505629 L 53.966049 8.172248 L 54.423777 7.336398 L 58.503524 9.625036 L 55.936269 11.396243 L 57.090538 14.898855 L 55.657652 14.918756 L 53.946148 16.232236 L 53.886445 18.023344 L 55.359134 21.58566 L 58.085599 23.894199 L 60.513545 24.869358 L 61.09068 28.232662 L 62.145444 29.566042 L 63.0609 29.904363 L 64.294774 28.272464 L 65.88687 27.675428 L 67.160548 28.133156 L 69.986518 26.401751 L 72.434367 27.774934 L 72.533873 29.486437 L 73.767747 29.745153 L 77.409668 37.546425 L 81.90734 37.387215 L 83.39993 36.014032 L 86.285605 38.342473 L 88.912563 36.63097 L 89.987228 39.496743 L 93.270927 41.049037 L 96.693934 42.0839 L 99.340794 40.591309 L 102.306074 41.188345 L 105.39076 42.004295 L 106.007698 43.397379 L 107.739102 43.437181 L 108.654558 44.253131 L 108.754064 46.004437 L 113.590056 50.740923 L 119.520615 51.059343 L 119.93854 55.97494 L 123.799374 59.915378 L 127.799516 59.11933 L 129.172699 60.990043 L 127.958726 67.418132 L 128.913983 69.249043 L 132.396694 70.124696 L 133.15294 69.507759 L 132.953928 68.512698 L 134.446518 65.089691 L 137.192884 65.607123 L 139.382017 63.975224 L 140.178065 64.472754 L 141.153224 63.019966 L 143.342356 62.104511 L 144.277713 63.07967 L 143.601072 64.214038 L 143.700578 66.821096 L 144.795144 68.054971 L 143.640874 69.726672 L 143.839886 71.756595 L 144.934452 72.970568 L 144.635934 75.597527 L 145.531489 76.493081 L 145.332477 77.906067 L 147.501708 79.358855 L 147.461905 80.135001 L 152.059083 81.090259 L 152.934736 82.005715 L 155.223375 78.682214 L 155.103968 77.209525 L 158.865295 77.985671 L 160.09917 79.060336 L 159.740948 80.831544 L 160.775811 82.105221 L 164.338126 83.956033 L 166.288444 86.901411 L 169.35323 89.249753 L 169.910463 90.344319 L 169.393032 93.210092 L 172.33841 94.443967 L 173.731495 96.075866 L 171.980189 97.96648 L 172.219003 98.643121 L 171.243844 99.538675 L 171.880683 100.673044 L 170.626907 102.484053 L 172.617027 106.165776 L 174.229025 106.782714 L 174.686752 108.335007 L 177.512723 110.126116 L 179.482943 114.245665 L 175.900726 117.350253 L 175.044974 122.942491 L 174.209123 123.937551 L 172.219003 123.75844 L 171.144338 124.753501 L 165.731211 122.723578 L 162.726129 124.474884 L 161.910179 127.360558 L 159.60164 128.614334 L 157.810531 127.400361 L 154.666141 129.52979 L 152.974539 129.410382 L 150.924715 130.52485 L 148.317657 128.295915 L 142.566209 128.634235 L 141.332335 126.246091 L 138.983993 124.634093 L 136.874465 124.992315 L 135.162961 123.0818 L 133.371853 123.937551 L 132.934027 123.161404 L 131.162819 123.539527 L 130.386672 125.151525 L 126.127815 125.72866 L 124.933743 126.763522 L 123.600362 125.927672 L 121.868957 121.887727 L 118.684765 120.136421 L 116.555336 119.917508 L 110.664579 121.250889 L 106.962955 118.703535 L 103.440442 119.201065 L 100.813483 117.46966 L 100.296052 120.017014 L 98.385537 123.022096 L 95.221245 122.106641 L 93.98737 120.673754 L 92.594286 120.832964 L 91.519621 119.380176 L 89.84792 119.181164 L 87.977207 117.390055 L 86.683629 117.409956 L 86.942344 115.519342 L 83.837756 114.66359 L 82.962103 113.708333 L 83.73825 111.777916 L 82.166055 110.325128 L 81.986944 108.892241 L 81.051588 108.772834 L 80.494354 109.648487 L 76.633521 109.111154 L 75.757868 106.941923 L 74.842412 106.683208 L 73.628439 107.55886 L 72.852292 109.36987 L 71.061184 110.185819 L 71.717923 111.220682 L 70.424345 112.454557 L 70.862171 113.787937 L 69.946716 114.942207 L 70.643258 115.758157 L 69.389482 117.46966 L 69.906914 117.867684 L 69.488988 118.922448 L 65.289834 119.141361 L 63.996256 120.633951 L 60.91157 118.365214 L 60.135423 118.743337 L 57.78708 117.549265 L 57.170143 118.902547 L 58.503524 119.7782 L 59.219967 123.141503 L 55.498442 124.335575 L 54.941208 122.882788 L 51.438596 121.509604 L 51.140078 120.693655 L 53.249606 118.365214 L 54.364073 113.867542 L 53.428717 114.146159 L 52.951088 111.837619 L 51.259486 110.86246 L 50.264425 108.991747 L 50.383833 107.021528 L 49.707192 106.88222 L 49.01065 108.116094 L 48.672329 106.424492 L 47.955886 106.941923 L 46.622505 106.484195 L 46.881221 107.419552 L 46.284185 107.857379 L 45.448334 106.703109 L 43.975645 106.663306 L 39.219257 109.688289 L 33.48771 107.917082 L 34.025043 106.88222 L 33.248896 104.374668 L 33.945438 104.115952 L 32.910576 102.404449 L 32.293638 102.543757 L 31.517491 100.454131 L 32.015021 98.404307 L 29.228853 97.070926 L 28.014879 95.220114 L 28.054682 94.026042 L 26.761104 93.747425 L 27.059622 92.83197 L 26.024759 92.234933 L 23.89533 93.528512 L 22.124123 92.433946 L 19.835485 92.67276 L 18.402598 94.205153 L 15.417417 89.508469 L 15.198504 86.543189 L 13.526803 84.632674 L 13.924827 81.746999 L 10.263006 80.93105 L 8.392292 78.244387 L 10.103796 75.597527 L 8.093774 75.458219 L 5.984247 73.806419 L 1.566179 76.31397 L 1.068649 72.731754 L 2.660746 58.601899 L 4.292644 54.681362 L 6.621085 52.651439 L 7.735553 52.631538 L 9.228143 49.924974 L 12.949668 46.740781 L 15.556726 45.924832 L 17.148822 40.591309 L 17.089118 39.715656 L 15.815441 38.700695 L 16.014453 37.486721 L 18.959832 33.347271 L 18.143882 29.566042 L 18.621511 26.779874 L 19.636473 25.048469 L 21.347976 24.053409 L 22.104222 20.232378 L 21.646494 19.316922 L 25.20881 14.16251 L 25.527229 12.451007 L 27.179029 11.654959 L 28.572113 11.973378 L 30.34332 10.878812 L 29.746284 9.326518 L 30.721443 8.430964 L 30.860752 3.137243 L 32.273737 1.505345 L 33.368303 1.047617 L 36.114669 2.838725 Z M 38.363505 6.301535 " stroke="#ffffff" stroke-width="1.19" stroke-opacity="1" stroke-miterlimit="4"/></g><path fill="#ff5757" d="M 6.355469 14.511719 L 6.605469 14.511719 L 6.605469 15.605469 C 6.605469 15.722656 6.578125 15.824219 6.523438 15.914062 C 6.46875 16.003906 6.390625 16.074219 6.292969 16.125 C 6.195312 16.175781 6.078125 16.203125 5.945312 16.203125 C 5.8125 16.203125 5.695312 16.175781 5.597656 16.125 C 5.496094 16.074219 5.421875 16.003906 5.367188 15.914062 C 5.308594 15.824219 5.28125 15.722656 5.28125 15.605469 L 5.28125 14.511719 L 5.535156 14.511719 L 5.535156 15.585938 C 5.535156 15.660156 5.550781 15.726562 5.582031 15.785156 C 5.617188 15.84375 5.664062 15.890625 5.726562 15.925781 C 5.789062 15.957031 5.859375 15.972656 5.945312 15.972656 C 6.027344 15.972656 6.101562 15.957031 6.164062 15.925781 C 6.226562 15.890625 6.273438 15.84375 6.304688 15.785156 C 6.335938 15.726562 6.355469 15.660156 6.355469 15.585938 Z M 6.925781 16.175781 L 6.925781 16.007812 L 7.601562 15.148438 L 7.601562 15.136719 L 6.949219 15.136719 L 6.949219 14.925781 L 7.90625 14.925781 L 7.90625 15.105469 L 7.253906 15.953125 L 7.253906 15.964844 L 7.929688 15.964844 L 7.929688 16.175781 Z M 8.457031 15.433594 L 8.457031 16.175781 L 8.214844 16.175781 L 8.214844 14.511719 L 8.457031 14.511719 L 8.457031 15.128906 L 8.46875 15.128906 C 8.5 15.0625 8.542969 15.007812 8.605469 14.96875 C 8.664062 14.929688 8.742188 14.910156 8.839844 14.910156 C 8.925781 14.910156 9 14.925781 9.066406 14.964844 C 9.128906 15 9.179688 15.050781 9.214844 15.121094 C 9.25 15.191406 9.269531 15.277344 9.269531 15.382812 L 9.269531 16.175781 L 9.023438 16.175781 L 9.023438 15.410156 C 9.023438 15.320312 9 15.246094 8.953125 15.195312 C 8.90625 15.144531 8.839844 15.121094 8.757812 15.121094 C 8.699219 15.121094 8.648438 15.132812 8.601562 15.15625 C 8.558594 15.183594 8.523438 15.21875 8.496094 15.265625 C 8.472656 15.3125 8.457031 15.367188 8.457031 15.433594 Z M 9.835938 15.433594 L 9.835938 16.175781 L 9.59375 16.175781 L 9.59375 14.511719 L 9.832031 14.511719 L 9.832031 15.128906 L 9.847656 15.128906 C 9.878906 15.0625 9.921875 15.007812 9.980469 14.96875 C 10.042969 14.929688 10.121094 14.910156 10.21875 14.910156 C 10.304688 14.910156 10.378906 14.925781 10.441406 14.964844 C 10.507812 15 10.558594 15.050781 10.59375 15.121094 C 10.628906 15.191406 10.644531 15.277344 10.644531 15.382812 L 10.644531 16.175781 L 10.402344 16.175781 L 10.402344 15.410156 C 10.402344 15.320312 10.378906 15.246094 10.332031 15.195312 C 10.285156 15.144531 10.21875 15.121094 10.136719 15.121094 C 10.078125 15.121094 10.027344 15.132812 9.980469 15.15625 C 9.9375 15.183594 9.898438 15.21875 9.875 15.265625 C 9.847656 15.3125 9.835938 15.367188 9.835938 15.433594 Z M 11.496094 16.199219 C 11.378906 16.199219 11.277344 16.171875 11.191406 16.121094 C 11.101562 16.066406 11.035156 15.992188 10.988281 15.894531 C 10.9375 15.796875 10.914062 15.6875 10.914062 15.554688 C 10.914062 15.425781 10.9375 15.3125 10.988281 15.214844 C 11.035156 15.121094 11.101562 15.042969 11.191406 14.992188 C 11.277344 14.9375 11.378906 14.910156 11.496094 14.910156 C 11.613281 14.910156 11.714844 14.9375 11.804688 14.992188 C 11.890625 15.042969 11.957031 15.121094 12.007812 15.214844 C 12.054688 15.3125 12.078125 15.425781 12.078125 15.554688 C 12.078125 15.6875 12.054688 15.796875 12.007812 15.894531 C 11.957031 15.992188 11.890625 16.066406 11.804688 16.121094 C 11.714844 16.171875 11.613281 16.199219 11.496094 16.199219 Z M 11.496094 15.996094 C 11.574219 15.996094 11.636719 15.976562 11.6875 15.9375 C 11.734375 15.894531 11.773438 15.84375 11.796875 15.777344 C 11.820312 15.710938 11.832031 15.636719 11.832031 15.554688 C 11.832031 15.476562 11.820312 15.402344 11.796875 15.335938 C 11.773438 15.269531 11.734375 15.214844 11.6875 15.175781 C 11.636719 15.132812 11.574219 15.113281 11.496094 15.113281 C 11.421875 15.113281 11.355469 15.132812 11.308594 15.175781 C 11.257812 15.214844 11.21875 15.269531 11.195312 15.335938 C 11.171875 15.402344 11.160156 15.476562 11.160156 15.554688 C 11.160156 15.636719 11.171875 15.710938 11.195312 15.777344 C 11.21875 15.84375 11.257812 15.894531 11.308594 15.9375 C 11.355469 15.976562 11.421875 15.996094 11.496094 15.996094 Z M 12.351562 16.175781 L 12.351562 14.925781 L 12.585938 14.925781 L 12.585938 15.125 L 12.597656 15.125 C 12.621094 15.058594 12.660156 15.003906 12.71875 14.964844 C 12.777344 14.925781 12.84375 14.90625 12.914062 14.90625 C 12.929688 14.90625 12.949219 14.910156 12.96875 14.910156 C 12.988281 14.910156 13.007812 14.910156 13.019531 14.914062 L 13.019531 15.144531 C 13.007812 15.144531 12.992188 15.140625 12.964844 15.136719 C 12.941406 15.132812 12.917969 15.132812 12.890625 15.132812 C 12.835938 15.132812 12.78125 15.144531 12.738281 15.167969 C 12.695312 15.191406 12.65625 15.226562 12.632812 15.269531 C 12.605469 15.308594 12.59375 15.359375 12.59375 15.414062 L 12.59375 16.175781 Z M 13.710938 16.199219 C 13.59375 16.199219 13.492188 16.171875 13.402344 16.121094 C 13.316406 16.066406 13.25 15.992188 13.199219 15.894531 C 13.152344 15.796875 13.128906 15.6875 13.128906 15.554688 C 13.128906 15.425781 13.152344 15.3125 13.199219 15.214844 C 13.25 15.121094 13.316406 15.042969 13.402344 14.992188 C 13.492188 14.9375 13.59375 14.910156 13.710938 14.910156 C 13.828125 14.910156 13.929688 14.9375 14.015625 14.992188 C 14.105469 15.042969 14.171875 15.121094 14.21875 15.214844 C 14.269531 15.3125 14.292969 15.425781 14.292969 15.554688 C 14.292969 15.6875 14.269531 15.796875 14.21875 15.894531 C 14.171875 15.992188 14.105469 16.066406 14.015625 16.121094 C 13.929688 16.171875 13.828125 16.199219 13.710938 16.199219 Z M 13.710938 15.996094 C 13.785156 15.996094 13.851562 15.976562 13.898438 15.9375 C 13.949219 15.894531 13.988281 15.84375 14.011719 15.777344 C 14.035156 15.710938 14.046875 15.636719 14.046875 15.554688 C 14.046875 15.476562 14.035156 15.402344 14.011719 15.335938 C 13.988281 15.269531 13.949219 15.214844 13.898438 15.175781 C 13.851562 15.132812 13.785156 15.113281 13.710938 15.113281 C 13.632812 15.113281 13.570312 15.132812 13.519531 15.175781 C 13.472656 15.214844 13.433594 15.269531 13.410156 15.335938 C 13.386719 15.402344 13.375 15.476562 13.375 15.554688 C 13.375 15.636719 13.386719 15.710938 13.410156 15.777344 C 13.433594 15.84375 13.472656 15.894531 13.519531 15.9375 C 13.570312 15.976562 13.632812 15.996094 13.710938 15.996094 Z M 15.03125 16.199219 C 14.929688 16.199219 14.839844 16.175781 14.761719 16.121094 C 14.683594 16.070312 14.621094 15.996094 14.574219 15.902344 C 14.53125 15.804688 14.507812 15.6875 14.507812 15.554688 C 14.507812 15.417969 14.53125 15.304688 14.578125 15.207031 C 14.621094 15.109375 14.683594 15.039062 14.765625 14.988281 C 14.84375 14.9375 14.933594 14.910156 15.03125 14.910156 C 15.109375 14.910156 15.171875 14.921875 15.21875 14.949219 C 15.269531 14.976562 15.304688 15.003906 15.332031 15.039062 C 15.355469 15.074219 15.378906 15.101562 15.390625 15.128906 L 15.40625 15.128906 L 15.40625 14.511719 L 15.648438 14.511719 L 15.648438 16.175781 L 15.414062 16.175781 L 15.414062 15.980469 L 15.390625 15.980469 C 15.378906 16.007812 15.355469 16.039062 15.328125 16.070312 C 15.300781 16.105469 15.265625 16.136719 15.214844 16.160156 C 15.167969 16.1875 15.105469 16.199219 15.03125 16.199219 Z M 15.085938 15.992188 C 15.15625 15.992188 15.214844 15.972656 15.261719 15.9375 C 15.3125 15.898438 15.347656 15.847656 15.371094 15.78125 C 15.398438 15.714844 15.410156 15.640625 15.410156 15.550781 C 15.410156 15.464844 15.398438 15.386719 15.375 15.324219 C 15.347656 15.257812 15.3125 15.207031 15.265625 15.171875 C 15.214844 15.136719 15.15625 15.117188 15.085938 15.117188 C 15.011719 15.117188 14.949219 15.136719 14.902344 15.171875 C 14.851562 15.210938 14.816406 15.261719 14.792969 15.328125 C 14.765625 15.394531 14.753906 15.46875 14.753906 15.550781 C 14.753906 15.632812 14.765625 15.710938 14.792969 15.777344 C 14.816406 15.84375 14.855469 15.894531 14.902344 15.933594 C 14.953125 15.972656 15.011719 15.992188 15.085938 15.992188 Z M 15.085938 15.992188 " fill-opacity="1" fill-rule="nonzero"/><g mask="url(#b876787241)"><g transform="matrix(1, 0, 0, 1, 7, 22)"><g clip-path="url(#a26ed10968)"><g clip-path="url(#522b5404ea)"><path fill="#ff5757" d="M 0.5 3.203125 L 0.5 2.917969 L 2 0.71875 L 0.488281 0.71875 L 0.488281 0.347656 L 2.527344 0.347656 L 2.527344 0.636719 L 1.027344 2.832031 L 2.539062 2.832031 L 2.539062 3.203125 Z M 3.203125 3.203125 L 2.746094 3.203125 L 3.773438 0.347656 L 4.269531 0.347656 L 5.296875 3.203125 L 4.839844 3.203125 L 4.035156 0.867188 L 4.011719 0.867188 Z M 3.28125 2.085938 L 4.761719 2.085938 L 4.761719 2.449219 L 3.28125 2.449219 Z M 5.59375 3.203125 L 5.59375 0.347656 L 6.023438 0.347656 L 6.023438 1.710938 L 6.058594 1.710938 L 7.257812 0.347656 L 7.796875 0.347656 L 6.648438 1.632812 L 7.804688 3.203125 L 7.285156 3.203125 L 6.363281 1.929688 L 6.023438 2.316406 L 6.023438 3.203125 Z M 8.324219 3.203125 L 7.867188 3.203125 L 8.894531 0.347656 L 9.390625 0.347656 L 10.417969 3.203125 L 9.960938 3.203125 L 9.15625 0.867188 L 9.132812 0.867188 Z M 8.398438 2.085938 L 9.882812 2.085938 L 9.882812 2.449219 L 8.398438 2.449219 Z M 10.714844 3.203125 L 10.714844 0.347656 L 11.730469 0.347656 C 11.953125 0.347656 12.136719 0.386719 12.28125 0.464844 C 12.429688 0.539062 12.539062 0.644531 12.609375 0.78125 C 12.683594 0.914062 12.71875 1.070312 12.71875 1.246094 C 12.71875 1.417969 12.683594 1.574219 12.609375 1.707031 C 12.535156 1.835938 12.425781 1.941406 12.28125 2.015625 C 12.132812 2.085938 11.949219 2.125 11.730469 2.125 L 10.957031 2.125 L 10.957031 1.753906 L 11.691406 1.753906 C 11.828125 1.753906 11.941406 1.734375 12.03125 1.691406 C 12.117188 1.652344 12.183594 1.59375 12.222656 1.519531 C 12.265625 1.441406 12.285156 1.351562 12.285156 1.246094 C 12.285156 1.136719 12.265625 1.042969 12.222656 0.964844 C 12.183594 0.886719 12.117188 0.824219 12.03125 0.78125 C 11.941406 0.738281 11.828125 0.71875 11.683594 0.71875 L 11.144531 0.71875 L 11.144531 3.203125 Z M 12.121094 1.917969 L 12.828125 3.203125 L 12.335938 3.203125 L 11.644531 1.917969 Z M 13.125 3.203125 L 13.125 0.347656 L 14.144531 0.347656 C 14.367188 0.347656 14.550781 0.390625 14.695312 0.46875 C 14.839844 0.550781 14.949219 0.660156 15.023438 0.800781 C 15.09375 0.941406 15.132812 1.097656 15.132812 1.273438 C 15.132812 1.449219 15.09375 1.605469 15.023438 1.746094 C 14.949219 1.886719 14.839844 1.996094 14.691406 2.078125 C 14.546875 2.160156 14.363281 2.199219 14.140625 2.199219 L 13.441406 2.199219 L 13.441406 1.835938 L 14.101562 1.835938 C 14.242188 1.835938 14.355469 1.8125 14.445312 1.761719 C 14.53125 1.714844 14.597656 1.648438 14.636719 1.5625 C 14.675781 1.476562 14.699219 1.382812 14.699219 1.273438 C 14.699219 1.164062 14.675781 1.070312 14.636719 0.988281 C 14.597656 0.902344 14.53125 0.835938 14.441406 0.789062 C 14.355469 0.742188 14.242188 0.71875 14.097656 0.71875 L 13.554688 0.71875 L 13.554688 3.203125 Z M 15.457031 3.203125 L 15 3.203125 L 16.027344 0.347656 L 16.523438 0.347656 L 17.550781 3.203125 L 17.09375 3.203125 L 16.289062 0.867188 L 16.265625 0.867188 Z M 15.535156 2.085938 L 17.015625 2.085938 L 17.015625 2.449219 L 15.535156 2.449219 Z M 17.367188 0.71875 L 17.367188 0.347656 L 19.578125 0.347656 L 19.578125 0.71875 L 18.6875 0.71875 L 18.6875 3.203125 L 18.257812 3.203125 L 18.257812 0.71875 Z M 19.808594 0.71875 L 19.808594 0.347656 L 22.019531 0.347656 L 22.019531 0.71875 L 21.128906 0.71875 L 21.128906 3.203125 L 20.699219 3.203125 L 20.699219 0.71875 Z M 22.820312 0.347656 L 22.820312 3.203125 L 22.386719 3.203125 L 22.386719 0.347656 Z M 23.570312 3.203125 L 23.113281 3.203125 L 24.140625 0.347656 L 24.636719 0.347656 L 25.664062 3.203125 L 25.207031 3.203125 L 24.402344 0.867188 L 24.378906 0.867188 Z M 23.644531 2.085938 L 25.128906 2.085938 L 25.128906 2.449219 L 23.644531 2.449219 Z M 23.644531 2.085938 " fill-opacity="1" fill-rule="nonzero"/></g></g></g></g></svg>