<svg xmlns="http://www.w3.org/2000/svg" xmlns:xlink="http://www.w3.org/1999/xlink" width="50" zoomAndPan="magnify" viewBox="0 0 37.5 37.499999" height="50" preserveAspectRatio="xMidYMid meet" version="1.0"><defs><filter x="0%" y="0%" width="100%" height="100%" id="00fbbf1963"><feColorMatrix values="0 0 0 0 1 0 0 0 0 1 0 0 0 0 1 0 0 0 1 0" color-interpolation-filters="sRGB"/></filter><clipPath id="64c51b4fc4"><path d="M 7.578125 1.453125 L 29.78125 1.453125 L 29.78125 35.5 L 7.578125 35.5 Z M 7.578125 1.453125 " clip-rule="nonzero"/></clipPath><mask id="94e29f540d"><g filter="url(#00fbbf1963)"><rect x="-3.75" width="45" fill="#000000" y="-3.75" height="44.999999" fill-opacity="0.08"/></g></mask><clipPath id="897665aaa3"><path d="M 0.710938 0.238281 L 17 0.238281 L 17 3.316406 L 0.710938 3.316406 Z M 0.710938 0.238281 " clip-rule="nonzero"/></clipPath><clipPath id="ed22ac9a2c"><rect x="0" width="18" y="0" height="4"/></clipPath></defs><g clip-path="url(#64c51b4fc4)"><path stroke-linecap="round" transform="matrix(0.174764, 0, 0, 0.174764, 7.489728, 1.46878)" fill-opacity="1" fill="#000000" fill-rule="nonzero" stroke-linejoin="round" d="M 46.438404 30.040413 L 47.511282 25.413626 L 52.29453 24.608967 L 52.808617 22.507914 L 54.127363 21.323278 L 53.881495 19.959829 L 56.451932 19.110467 L 56.161361 17.791721 L 54.149715 17.389392 L 53.657979 16.316514 L 53.523869 13.768428 L 55.535516 12.069705 L 57.435404 12.293221 L 57.368349 13.231989 L 61.212829 13.902538 L 62.777443 11.108585 L 66.487813 13.611967 L 70.622864 10.683904 L 73.215653 11.17564 L 73.640334 9.700432 L 76.300177 10.572146 L 78.53534 9.834542 L 80.301118 10.259223 L 82.893907 9.2534 L 84.279708 6.034765 L 88.146539 1.83266 L 90.180537 1.810308 L 91.141657 3.039647 L 93.421523 3.821954 L 93.890907 4.827778 L 97.556574 1.899714 L 104.820853 4.939536 L 107.011312 1.005649 L 109.022959 0.804485 L 108.687684 4.827778 L 106.43017 4.693668 L 106.877203 6.302985 L 106.027841 8.404038 L 108.911201 10.370981 L 108.307707 10.996827 L 108.777091 12.784957 L 108.106542 13.388451 L 109.090014 14.595438 L 110.542869 14.550735 L 109.939376 15.802426 L 112.733329 17.948182 L 112.733329 19.177522 L 107.5254 19.535148 L 107.592455 22.820837 L 109.022959 23.82666 L 109.358233 25.391274 L 108.710036 25.391274 L 108.665333 26.441801 L 107.301884 26.508856 L 105.804325 27.760547 L 108.2183 28.676963 L 107.480697 31.314455 L 105.200831 31.135642 L 105.133776 32.119114 L 103.703272 33.214344 L 103.479755 35.382451 L 104.843205 39.361041 L 102.630394 41.171523 L 102.630394 42.043236 L 104.485579 42.959653 L 104.619688 43.674905 L 107.5254 45.194816 L 105.826676 47.541736 L 108.531223 51.609733 L 109.201772 54.806015 L 110.229947 55.454212 L 110.632276 58.672847 L 108.419465 59.969241 L 106.810148 62.584381 L 110.341705 64.864247 L 112.509813 67.345278 L 112.755681 68.686375 L 111.660451 69.15576 L 111.593396 70.854483 L 109.805266 70.742725 L 109.335882 72.128526 L 107.458345 73.782546 L 108.464168 76.129467 L 107.994784 77.023532 L 108.799443 80.15276 L 107.704213 80.532738 L 107.234829 79.415156 L 105.73727 80.331573 L 103.345646 84.600734 L 106.854851 87.975829 L 107.056016 93.541384 L 109.849969 96.827074 L 108.933552 99.308104 L 110.542869 100.269224 L 109.782914 101.386805 L 110.520518 102.772606 L 109.358233 102.616145 L 109.335882 104.963066 L 110.945199 106.505328 L 110.878144 108.04759 L 111.772209 109.031062 L 111.012254 109.366336 L 111.436935 110.483918 L 110.475815 110.305105 L 111.571044 111.869718 L 110.520518 112.85319 L 110.587573 113.993123 L 107.65951 113.94842 L 107.592455 116.384747 L 106.720741 116.56356 L 107.056016 117.479977 L 106.318412 119.111646 L 107.033664 120.743314 L 106.69839 121.816192 L 108.2183 122.933774 L 106.69839 123.179642 L 107.704213 126.063002 L 107.167774 126.621792 L 107.65951 129.840426 L 106.832499 132.36616 L 108.508871 132.790841 L 106.385467 134.713081 L 108.017136 136.881189 L 107.324235 138.110528 L 108.531223 139.898659 L 108.106542 140.658614 L 106.854851 140.233933 L 105.893731 140.971537 L 106.318412 141.84325 L 108.35241 142.334986 L 105.826676 143.541974 L 107.994784 145.575972 L 106.988961 147.632321 L 107.212477 149.442803 L 106.340764 149.442803 L 107.167774 150.985065 L 108.285355 150.113352 L 109.090014 150.403923 L 107.838323 151.812076 L 108.464168 153.667261 L 107.637158 156.237698 L 108.732388 156.81884 L 109.961727 160.193936 L 111.660451 160.506858 L 110.900495 161.423275 L 109.31353 160.909188 L 110.00643 163.390218 L 108.553575 162.116176 L 108.039487 162.607911 L 108.575926 164.5078 L 110.073485 164.887777 L 109.626453 166.519446 L 110.699331 167.346456 L 110.498166 167.838192 L 109.134717 167.458214 L 110.609924 169.17929 L 109.671156 172.174408 L 110.364056 173.403747 L 109.090014 174.54368 L 109.425288 175.191877 L 110.744034 174.990713 L 110.833441 176.667085 L 112.912142 176.510623 L 112.554516 178.969302 L 115.259063 178.164644 L 113.873262 179.930422 L 115.951963 180.198642 L 116.264886 180.891542 L 114.11913 181.651497 L 116.376644 182.92554 L 117.717742 185.67479 L 118.835323 185.518329 L 117.270709 187.485272 L 119.304707 188.602853 L 118.947081 190.279225 L 119.774091 190.256874 L 120.57875 187.99936 L 122.456287 190.413335 L 124.333823 189.809841 L 124.892614 190.815664 L 121.204595 191.106236 L 118.432994 194.05665 L 116.466051 193.117882 L 114.744975 193.944892 L 112.353351 190.592148 L 107.234829 192.179114 L 105.178479 191.843839 L 103.658568 189.675732 L 103.435052 184.132528 L 101.512812 181.942069 L 100.350528 182.634969 L 99.97055 184.177231 L 102.093955 187.641733 L 102.228064 189.206347 L 99.925847 190.838016 L 96.327235 185.8089 L 97.891849 183.394924 L 97.444816 179.706906 L 96.774267 178.969302 L 95.388466 179.48339 L 94.650863 182.970243 L 91.365174 181.718552 L 88.459462 184.914835 L 86.604277 185.451274 L 84.212653 184.043122 L 82.446875 184.333693 L 82.759797 181.629146 L 79.116482 176.711788 L 77.730681 175.907129 L 76.926023 175.929481 L 75.763738 177.248227 L 74.199124 180.489213 L 72.522752 177.315282 L 66.487813 176.130646 L 65.884319 175.325987 L 68.052427 173.44845 L 68.141833 172.375572 L 65.34788 171.280343 L 65.102012 170.319223 L 67.0019 168.866367 L 67.292472 167.838192 L 64.364408 166.005359 L 60.452874 162.026769 L 57.636569 161.669143 L 54.015605 158.897541 L 53.635628 158.003476 L 55.066132 156.304753 L 53.881495 155.008358 L 52.607453 154.449568 L 52.071014 154.8966 L 52.853321 156.841192 L 52.227475 157.64585 L 47.824205 155.924775 L 46.170184 155.99183 L 46.818381 161.557385 L 46.013723 161.75855 L 44.963196 160.350397 L 43.979725 160.193936 L 42.504517 161.75855 L 41.565749 164.194877 L 39.621157 164.016064 L 38.436521 162.116176 L 38.749444 160.3951 L 40.179948 159.411629 L 43.957373 159.366926 L 44.762032 157.891718 L 44.180889 157.265873 L 42.526869 157.489389 L 41.476343 155.544797 L 39.017664 154.941303 L 37.631863 157.154114 L 36.35782 157.154114 L 37.810676 153.399041 L 38.190653 148.034651 L 36.424875 149.085177 L 34.994371 148.57109 L 35.441403 150.001594 L 33.317999 151.946185 L 33.541515 154.740139 L 32.736856 155.298929 L 31.440462 154.851897 L 29.8982 148.749903 L 31.932198 146.626498 L 29.272354 144.480742 L 29.674684 141.01624 L 27.931257 142.714964 L 22.745679 139.473978 L 19.080012 141.418569 L 19.124716 139.384571 L 14.65439 134.780136 L 15.4814 131.717963 L 20.823439 132.992006 L 20.734033 131.941479 L 19.5941 131.650908 L 20.264649 127.82878 L 18.677683 126.979418 L 14.520281 126.554737 L 11.368701 122.911422 L 11.323998 121.10094 L 16.487224 115.021298 L 10.407581 112.003828 L 10.184065 110.148643 L 9.29 109.209875 L 9.088835 105.834779 L 11.413404 102.392629 L 9.781736 101.275047 L 9.044132 98.771665 L 8.172419 98.14582 L 6.697211 98.861072 L 5.557278 98.279929 L 4.462048 92.759078 L 1.533985 86.187699 L 1.891611 80.532738 L 1.086953 77.984652 L 6.54075 77.716433 L 6.920727 76.30828 L 9.111187 75.48127 L 9.960549 76.732961 L 9.804087 74.810721 L 11.525163 74.810721 L 12.307469 73.648437 L 14.65439 74.833073 L 14.252061 73.737843 L 15.012016 73.044943 L 17.001311 73.69314 L 16.688388 72.843778 L 17.940079 73.000239 L 18.990606 70.80978 L 20.55522 70.318044 L 21.38223 64.059589 L 22.924492 59.81278 L 24.645568 60.416273 L 26.254885 62.651436 L 29.786442 59.030473 L 26.836027 55.990651 L 27.931257 54.18017 L 27.350114 49.754547 L 31.149891 50.961535 L 32.111011 49.061647 L 33.720328 49.173405 L 34.323822 48.502856 L 37.967137 50.134525 L 39.151773 49.933361 L 39.151773 48.793428 L 40.045838 48.54756 L 42.079836 49.687493 L 42.839792 46.759429 L 48.092424 45.373629 L 49.433522 41.976181 L 48.31594 40.299809 L 49.098247 38.019943 L 51.847497 37.103527 L 50.260532 36.075352 L 50.796971 33.996651 L 50.10407 32.230872 Z M 46.438404 30.040413 " stroke="#ffffff" stroke-width="1.19" stroke-opacity="1" stroke-miterlimit="4"/></g><path fill="#ff5757" d="M 15.480469 11.105469 L 15.480469 10.910156 L 16.628906 10.910156 L 16.628906 11.105469 L 16.164062 11.105469 L 16.164062 12.394531 L 15.941406 12.394531 L 15.941406 11.105469 Z M 17.179688 12.417969 C 17.070312 12.417969 16.976562 12.394531 16.898438 12.347656 C 16.820312 12.300781 16.757812 12.234375 16.714844 12.148438 C 16.671875 12.0625 16.652344 11.960938 16.652344 11.84375 C 16.652344 11.730469 16.671875 11.632812 16.714844 11.542969 C 16.757812 11.457031 16.820312 11.390625 16.894531 11.339844 C 16.972656 11.292969 17.0625 11.269531 17.167969 11.269531 C 17.230469 11.269531 17.289062 11.277344 17.347656 11.300781 C 17.40625 11.320312 17.460938 11.351562 17.507812 11.398438 C 17.554688 11.441406 17.589844 11.5 17.617188 11.570312 C 17.644531 11.640625 17.660156 11.726562 17.660156 11.828125 L 17.660156 11.902344 L 16.773438 11.902344 L 16.773438 11.742188 L 17.445312 11.742188 C 17.445312 11.683594 17.433594 11.632812 17.410156 11.589844 C 17.386719 11.546875 17.355469 11.511719 17.3125 11.484375 C 17.273438 11.460938 17.222656 11.445312 17.167969 11.445312 C 17.105469 11.445312 17.054688 11.460938 17.007812 11.492188 C 16.964844 11.519531 16.929688 11.558594 16.902344 11.605469 C 16.878906 11.65625 16.867188 11.707031 16.867188 11.761719 L 16.867188 11.886719 C 16.867188 11.960938 16.878906 12.027344 16.90625 12.078125 C 16.933594 12.128906 16.96875 12.167969 17.019531 12.199219 C 17.066406 12.222656 17.121094 12.238281 17.183594 12.238281 C 17.222656 12.238281 17.261719 12.230469 17.296875 12.21875 C 17.328125 12.207031 17.359375 12.191406 17.382812 12.167969 C 17.40625 12.144531 17.425781 12.113281 17.441406 12.078125 L 17.644531 12.117188 C 17.628906 12.175781 17.597656 12.230469 17.554688 12.273438 C 17.515625 12.320312 17.460938 12.355469 17.398438 12.378906 C 17.335938 12.40625 17.261719 12.417969 17.179688 12.417969 Z M 17.898438 12.394531 L 17.898438 11.28125 L 18.109375 11.28125 L 18.109375 11.457031 L 18.121094 11.457031 C 18.140625 11.398438 18.175781 11.351562 18.226562 11.316406 C 18.277344 11.28125 18.335938 11.265625 18.402344 11.265625 C 18.414062 11.265625 18.429688 11.265625 18.449219 11.265625 C 18.46875 11.269531 18.484375 11.269531 18.492188 11.269531 L 18.492188 11.476562 C 18.484375 11.476562 18.46875 11.472656 18.449219 11.46875 C 18.425781 11.464844 18.402344 11.464844 18.378906 11.464844 C 18.328125 11.464844 18.285156 11.476562 18.242188 11.496094 C 18.203125 11.519531 18.171875 11.546875 18.148438 11.585938 C 18.125 11.625 18.113281 11.667969 18.113281 11.714844 L 18.113281 12.394531 Z M 18.898438 11.734375 L 18.898438 12.394531 L 18.679688 12.394531 L 18.679688 11.28125 L 18.890625 11.28125 L 18.890625 11.464844 L 18.902344 11.464844 C 18.929688 11.40625 18.96875 11.355469 19.023438 11.320312 C 19.078125 11.285156 19.148438 11.269531 19.230469 11.269531 C 19.304688 11.269531 19.371094 11.285156 19.429688 11.316406 C 19.488281 11.347656 19.53125 11.394531 19.5625 11.457031 C 19.59375 11.519531 19.609375 11.59375 19.609375 11.6875 L 19.609375 12.394531 L 19.394531 12.394531 L 19.394531 11.714844 C 19.394531 11.632812 19.371094 11.570312 19.328125 11.523438 C 19.289062 11.476562 19.230469 11.457031 19.15625 11.457031 C 19.105469 11.457031 19.0625 11.464844 19.023438 11.488281 C 18.984375 11.507812 18.953125 11.542969 18.929688 11.582031 C 18.910156 11.625 18.898438 11.675781 18.898438 11.734375 Z M 20.367188 12.417969 C 20.261719 12.417969 20.171875 12.394531 20.09375 12.34375 C 20.015625 12.296875 19.957031 12.230469 19.914062 12.144531 C 19.871094 12.058594 19.847656 11.957031 19.847656 11.84375 C 19.847656 11.726562 19.871094 11.628906 19.914062 11.539062 C 19.957031 11.453125 20.015625 11.386719 20.09375 11.339844 C 20.171875 11.292969 20.261719 11.269531 20.367188 11.269531 C 20.472656 11.269531 20.5625 11.292969 20.640625 11.339844 C 20.71875 11.386719 20.777344 11.453125 20.820312 11.539062 C 20.863281 11.628906 20.886719 11.726562 20.886719 11.84375 C 20.886719 11.957031 20.863281 12.058594 20.820312 12.144531 C 20.777344 12.230469 20.71875 12.296875 20.640625 12.34375 C 20.5625 12.394531 20.472656 12.417969 20.367188 12.417969 Z M 20.367188 12.234375 C 20.4375 12.234375 20.492188 12.21875 20.535156 12.179688 C 20.582031 12.144531 20.613281 12.097656 20.636719 12.039062 C 20.65625 11.980469 20.667969 11.914062 20.667969 11.84375 C 20.667969 11.773438 20.65625 11.707031 20.636719 11.648438 C 20.613281 11.585938 20.582031 11.539062 20.535156 11.503906 C 20.492188 11.46875 20.4375 11.449219 20.367188 11.449219 C 20.300781 11.449219 20.242188 11.46875 20.199219 11.503906 C 20.15625 11.539062 20.121094 11.585938 20.101562 11.648438 C 20.078125 11.707031 20.066406 11.773438 20.066406 11.84375 C 20.066406 11.914062 20.078125 11.980469 20.101562 12.039062 C 20.121094 12.097656 20.15625 12.144531 20.199219 12.179688 C 20.242188 12.21875 20.300781 12.234375 20.367188 12.234375 Z M 21.128906 12.8125 L 21.128906 11.28125 L 21.339844 11.28125 L 21.339844 11.460938 L 21.359375 11.460938 C 21.371094 11.4375 21.386719 11.414062 21.410156 11.382812 C 21.433594 11.351562 21.46875 11.324219 21.511719 11.300781 C 21.550781 11.28125 21.609375 11.269531 21.675781 11.269531 C 21.765625 11.269531 21.847656 11.289062 21.917969 11.335938 C 21.988281 11.382812 22.042969 11.445312 22.082031 11.53125 C 22.125 11.617188 22.144531 11.71875 22.144531 11.839844 C 22.144531 11.960938 22.125 12.0625 22.082031 12.148438 C 22.042969 12.234375 21.988281 12.300781 21.917969 12.347656 C 21.847656 12.394531 21.769531 12.417969 21.679688 12.417969 C 21.613281 12.417969 21.554688 12.40625 21.511719 12.382812 C 21.46875 12.359375 21.4375 12.332031 21.414062 12.300781 C 21.390625 12.273438 21.371094 12.246094 21.359375 12.222656 L 21.34375 12.222656 L 21.34375 12.8125 Z M 21.339844 11.839844 C 21.339844 11.917969 21.351562 11.984375 21.375 12.042969 C 21.398438 12.101562 21.429688 12.148438 21.472656 12.183594 C 21.515625 12.214844 21.566406 12.230469 21.628906 12.230469 C 21.695312 12.230469 21.75 12.214844 21.792969 12.179688 C 21.835938 12.144531 21.867188 12.097656 21.890625 12.039062 C 21.914062 11.980469 21.925781 11.914062 21.925781 11.839844 C 21.925781 11.765625 21.914062 11.699219 21.890625 11.640625 C 21.871094 11.582031 21.835938 11.535156 21.792969 11.503906 C 21.75 11.46875 21.695312 11.453125 21.628906 11.453125 C 21.566406 11.453125 21.515625 11.46875 21.472656 11.5 C 21.429688 11.53125 21.394531 11.578125 21.375 11.636719 C 21.351562 11.695312 21.339844 11.761719 21.339844 11.839844 Z M 22.386719 12.394531 L 22.386719 11.28125 L 22.601562 11.28125 L 22.601562 12.394531 Z M 22.496094 11.109375 C 22.457031 11.109375 22.425781 11.097656 22.398438 11.074219 C 22.371094 11.046875 22.359375 11.015625 22.359375 10.980469 C 22.359375 10.945312 22.371094 10.914062 22.398438 10.890625 C 22.425781 10.863281 22.457031 10.851562 22.496094 10.851562 C 22.535156 10.851562 22.566406 10.863281 22.59375 10.890625 C 22.617188 10.914062 22.632812 10.945312 22.632812 10.980469 C 22.632812 11.015625 22.617188 11.046875 22.59375 11.074219 C 22.566406 11.097656 22.535156 11.109375 22.496094 11.109375 Z M 23.109375 10.910156 L 23.109375 12.394531 L 22.894531 12.394531 L 22.894531 10.910156 Z M 23.109375 10.910156 " fill-opacity="1" fill-rule="nonzero"/><g mask="url(#94e29f540d)"><g transform="matrix(1, 0, 0, 1, 9, 18)"><g clip-path="url(#ed22ac9a2c)"><g clip-path="url(#897665aaa3)"><path fill="#ff5757" d="M 0.949219 0.8125 L 0.949219 0.484375 L 2.917969 0.484375 L 2.917969 0.8125 L 2.125 0.8125 L 2.125 3.023438 L 1.742188 3.023438 L 1.742188 0.8125 Z M 3.25 3.023438 L 3.25 0.484375 L 4.84375 0.484375 L 4.84375 0.8125 L 3.632812 0.8125 L 3.632812 1.589844 L 4.757812 1.589844 L 4.757812 1.917969 L 3.632812 1.917969 L 3.632812 2.695312 L 4.855469 2.695312 L 4.855469 3.023438 Z M 5.25 3.023438 L 5.25 0.484375 L 6.15625 0.484375 C 6.351562 0.484375 6.515625 0.515625 6.644531 0.585938 C 6.777344 0.652344 6.875 0.746094 6.9375 0.867188 C 7.003906 0.984375 7.035156 1.125 7.035156 1.28125 C 7.035156 1.4375 7.003906 1.574219 6.9375 1.691406 C 6.875 1.808594 6.777344 1.898438 6.644531 1.964844 C 6.515625 2.03125 6.351562 2.0625 6.15625 2.0625 L 5.46875 2.0625 L 5.46875 1.734375 L 6.121094 1.734375 C 6.242188 1.734375 6.34375 1.714844 6.421875 1.679688 C 6.5 1.644531 6.558594 1.59375 6.59375 1.523438 C 6.632812 1.457031 6.648438 1.375 6.648438 1.28125 C 6.648438 1.183594 6.632812 1.101562 6.59375 1.03125 C 6.558594 0.960938 6.5 0.90625 6.421875 0.871094 C 6.34375 0.832031 6.242188 0.8125 6.113281 0.8125 L 5.632812 0.8125 L 5.632812 3.023438 Z M 6.503906 1.878906 L 7.132812 3.023438 L 6.695312 3.023438 L 6.078125 1.878906 Z M 9.449219 0.484375 L 9.449219 3.023438 L 9.097656 3.023438 L 7.804688 1.160156 L 7.78125 1.160156 L 7.78125 3.023438 L 7.398438 3.023438 L 7.398438 0.484375 L 7.753906 0.484375 L 9.046875 2.351562 L 9.070312 2.351562 L 9.070312 0.484375 Z M 12.113281 1.753906 C 12.113281 2.027344 12.0625 2.257812 11.964844 2.453125 C 11.863281 2.648438 11.726562 2.796875 11.554688 2.902344 C 11.382812 3.007812 11.1875 3.058594 10.96875 3.058594 C 10.746094 3.058594 10.550781 3.007812 10.378906 2.902344 C 10.207031 2.796875 10.070312 2.648438 9.972656 2.453125 C 9.871094 2.257812 9.820312 2.023438 9.820312 1.753906 C 9.820312 1.484375 9.871094 1.25 9.972656 1.054688 C 10.070312 0.859375 10.207031 0.710938 10.378906 0.605469 C 10.550781 0.5 10.746094 0.449219 10.96875 0.449219 C 11.1875 0.449219 11.382812 0.5 11.554688 0.605469 C 11.726562 0.710938 11.863281 0.859375 11.964844 1.054688 C 12.0625 1.25 12.113281 1.484375 12.113281 1.753906 Z M 11.730469 1.753906 C 11.730469 1.546875 11.699219 1.375 11.632812 1.230469 C 11.566406 1.089844 11.472656 0.980469 11.359375 0.910156 C 11.242188 0.835938 11.113281 0.796875 10.96875 0.796875 C 10.820312 0.796875 10.691406 0.835938 10.574219 0.910156 C 10.460938 0.980469 10.371094 1.089844 10.300781 1.230469 C 10.234375 1.375 10.203125 1.546875 10.203125 1.753906 C 10.203125 1.960938 10.234375 2.136719 10.300781 2.277344 C 10.371094 2.417969 10.460938 2.527344 10.574219 2.601562 C 10.691406 2.671875 10.820312 2.710938 10.96875 2.710938 C 11.113281 2.710938 11.242188 2.671875 11.359375 2.601562 C 11.472656 2.527344 11.566406 2.417969 11.632812 2.277344 C 11.699219 2.136719 11.730469 1.960938 11.730469 1.753906 Z M 12.484375 3.023438 L 12.484375 0.484375 L 13.390625 0.484375 C 13.589844 0.484375 13.753906 0.519531 13.882812 0.589844 C 14.011719 0.664062 14.109375 0.761719 14.175781 0.886719 C 14.238281 1.011719 14.269531 1.152344 14.269531 1.304688 C 14.269531 1.460938 14.238281 1.601562 14.171875 1.726562 C 14.109375 1.851562 14.011719 1.949219 13.878906 2.023438 C 13.75 2.09375 13.585938 2.132812 13.390625 2.132812 L 12.765625 2.132812 L 12.765625 1.804688 L 13.355469 1.804688 C 13.480469 1.804688 13.582031 1.785156 13.660156 1.742188 C 13.738281 1.699219 13.792969 1.636719 13.832031 1.5625 C 13.867188 1.488281 13.886719 1.402344 13.886719 1.304688 C 13.886719 1.210938 13.867188 1.125 13.832031 1.050781 C 13.792969 0.976562 13.738281 0.917969 13.660156 0.875 C 13.582031 0.832031 13.476562 0.8125 13.351562 0.8125 L 12.867188 0.8125 L 12.867188 3.023438 Z M 15 0.484375 L 15 3.023438 L 14.617188 3.023438 L 14.617188 0.484375 Z M 15.453125 3.023438 L 15.453125 0.484375 L 15.835938 0.484375 L 15.835938 2.695312 L 16.988281 2.695312 L 16.988281 3.023438 Z M 15.453125 3.023438 " fill-opacity="1" fill-rule="nonzero"/></g></g></g></g></svg>