<svg xmlns="http://www.w3.org/2000/svg" xmlns:xlink="http://www.w3.org/1999/xlink" width="50" zoomAndPan="magnify" viewBox="0 0 37.5 37.499999" height="50" preserveAspectRatio="xMidYMid meet" version="1.0"><defs><filter x="0%" y="0%" width="100%" height="100%" id="2e8717b811"><feColorMatrix values="0 0 0 0 1 0 0 0 0 1 0 0 0 0 1 0 0 0 1 0" color-interpolation-filters="sRGB"/></filter><clipPath id="858bbcb1a3"><path d="M 5.480469 0 L 31.386719 0 L 31.386719 37 L 5.480469 37 Z M 5.480469 0 " clip-rule="nonzero"/></clipPath><clipPath id="df0d24f89e"><path d="M 5.480469 0 L 31.386719 0 L 31.386719 37.007812 L 5.480469 37.007812 Z M 5.480469 0 " clip-rule="nonzero"/></clipPath><mask id="235444b357"><g filter="url(#2e8717b811)"><rect x="-3.75" width="45" fill="#000000" y="-3.75" height="44.999999" fill-opacity="0.08"/></g></mask><clipPath id="16c898cc29"><path d="M 1 0.132812 L 10.238281 0.132812 L 10.238281 2.738281 L 1 2.738281 Z M 1 0.132812 " clip-rule="nonzero"/></clipPath><clipPath id="b58f65910f"><rect x="0" width="11" y="0" height="3"/></clipPath></defs><g clip-path="url(#858bbcb1a3)"><path fill="#000000" d="M 18.703125 0.371094 L 18.816406 0.492188 L 19.242188 0.320312 L 19.601562 0.671875 L 19.949219 0.078125 L 20.308594 0.273438 L 20.441406 0.105469 L 20.605469 0.382812 L 20.574219 0.679688 L 20.789062 0.6875 L 20.984375 1.050781 L 21.417969 1.160156 L 21.566406 1.019531 L 22.011719 1.023438 L 22.550781 1.203125 L 22.75 1.121094 L 23.070312 1.171875 L 23.15625 1.550781 L 23.507812 1.597656 L 23.507812 1.71875 L 23.292969 1.773438 L 23.179688 1.679688 L 23.152344 1.757812 L 23.246094 1.808594 L 22.949219 1.800781 L 22.910156 1.945312 L 22.636719 1.902344 L 22.488281 2.125 L 22.292969 2.164062 L 22.515625 2.304688 L 22.699219 2.699219 L 22.445312 2.832031 L 22.632812 3.253906 L 22.597656 3.425781 L 22.90625 3.605469 L 23.109375 3.886719 L 23.042969 3.960938 L 23.300781 5.328125 L 24.070312 5.222656 L 24.121094 5.472656 L 24.1875 5.480469 L 24.191406 5.625 L 24.015625 5.648438 L 24.089844 5.964844 L 23.800781 6.0625 L 24.066406 7.53125 L 24.4375 7.460938 L 24.5 7.75 L 25.652344 7.535156 L 25.707031 7.660156 L 26.085938 7.550781 L 26.050781 7.960938 L 26.183594 7.960938 L 26.558594 7.859375 L 26.464844 7.496094 L 27.136719 7.363281 L 27.171875 7.527344 L 27.011719 7.699219 L 27.054688 8.171875 L 26.769531 8.234375 L 26.792969 8.347656 L 26.820312 8.46875 L 27.003906 8.617188 L 27.449219 8.605469 L 27.492188 8.738281 L 27.824219 8.683594 L 27.914062 9.113281 L 27.660156 9.171875 L 27.765625 9.875 L 27.625 9.90625 L 27.636719 10.175781 L 27.941406 10.128906 L 28.011719 10.410156 L 27.84375 10.449219 L 27.910156 10.851562 L 27.945312 10.957031 L 28.0625 10.945312 L 28.132812 11.113281 L 27.824219 11.269531 L 27.875 11.460938 L 28.007812 11.4375 L 28.132812 11.957031 L 28.878906 11.808594 L 28.800781 12.070312 L 28.96875 12.050781 L 29.070312 12.421875 L 30.347656 12.09375 L 30.382812 12.617188 L 30.132812 12.675781 L 30.222656 13.128906 L 29.949219 13.175781 L 29.90625 13.019531 L 29.824219 13.035156 L 29.832031 13.445312 L 30.554688 13.441406 L 30.59375 13.246094 L 30.941406 13.175781 L 30.992188 13.28125 L 31.15625 13.253906 L 31.433594 14.339844 L 31.367188 14.371094 L 31.445312 14.765625 L 31.355469 14.796875 L 31.34375 15.0625 L 31.121094 15.019531 L 30.828125 15.085938 L 30.949219 15.460938 L 30.09375 15.605469 L 30.027344 15.488281 L 29.648438 15.554688 L 29.640625 15.675781 L 29.050781 15.832031 L 29.238281 16.578125 L 29.398438 16.589844 L 29.652344 16.78125 L 29.824219 17.253906 L 29.984375 17.242188 L 30.210938 17.398438 L 30.175781 17.800781 L 30.382812 18.179688 L 30.144531 18.527344 L 30.445312 18.925781 L 30.382812 19.382812 L 30.5625 19.5 L 30.394531 19.597656 L 30.5 19.65625 L 30.402344 19.902344 L 29.046875 20.238281 L 27.550781 20.8125 L 27.191406 20.738281 L 26.828125 20.898438 L 26.636719 21.332031 L 26.707031 21.527344 L 26.832031 21.609375 L 26.875 21.546875 L 27.003906 22.132812 L 26.816406 22.949219 L 26.550781 23.136719 L 26.238281 23.570312 L 25.683594 24.726562 L 25.175781 25.597656 L 24.796875 26.027344 L 24.550781 26.53125 L 23.679688 27.441406 L 22.351562 29.125 L 18.101562 32.546875 L 17.457031 33.292969 L 17.363281 33.652344 L 17.238281 33.617188 L 17.21875 33.699219 L 17.5625 34.035156 L 17.679688 33.9375 L 17.613281 33.835938 L 17.691406 33.722656 L 17.824219 33.84375 L 17.820312 34 L 17.894531 33.871094 L 18.230469 33.820312 L 18.445312 33.9375 L 18.507812 33.851562 L 18.558594 33.90625 L 18.449219 34.09375 L 18.535156 34.347656 L 18.40625 34.652344 L 18.535156 35.523438 L 18.320312 36.246094 L 18.367188 36.695312 L 18.15625 36.71875 L 18.128906 36.886719 L 17.878906 36.941406 L 17.804688 36.867188 L 17.664062 36.429688 L 17.8125 36.199219 L 17.738281 35.734375 L 17.625 35.417969 L 17.152344 34.828125 L 16.738281 34.546875 L 16.144531 34.382812 L 15.722656 34.140625 L 15.09375 34.214844 L 14.882812 34.074219 L 14.566406 34.328125 L 14.152344 34.261719 L 13.988281 34.417969 L 13.714844 34.5 L 13.644531 34.65625 L 13.417969 34.792969 L 12.851562 34.972656 L 12.050781 35.449219 L 11.859375 35.476562 L 11.71875 35.699219 L 11.753906 35.949219 L 11.652344 36.085938 L 11.429688 36.003906 L 11.085938 35.644531 L 10.84375 35.636719 L 10.636719 35.421875 L 10.449219 35.429688 L 10.308594 35.570312 L 10.507812 35.714844 L 10.46875 35.851562 L 10.0625 36.054688 L 10.160156 36.265625 L 10.394531 36.414062 L 10.402344 36.53125 L 9.785156 36.738281 L 9.128906 36.515625 L 8.484375 36.453125 L 6.667969 35.578125 L 6.144531 34.6875 L 6.121094 34.105469 L 5.558594 33.875 L 5.832031 33.398438 L 6.347656 32.921875 L 7.023438 33.179688 L 7.351562 33.113281 L 7.304688 33.277344 L 7.394531 33.628906 L 8.078125 33.460938 L 7.886719 32.621094 L 8.359375 32.511719 L 8.121094 31.492188 L 7.816406 31.488281 L 8.09375 30.886719 L 8.320312 30.660156 L 8.738281 30.714844 L 8.777344 30.570312 L 8.6875 30.226562 L 9.011719 30.300781 L 9.722656 30.113281 L 9.648438 29.6875 L 10.355469 29.484375 L 10.125 28.382812 L 10.179688 28.234375 L 10.128906 27.992188 L 10.316406 27.953125 L 10.269531 27.832031 L 11.984375 27.445312 L 12.203125 26.910156 L 11.738281 26.324219 L 12.691406 25.136719 L 11.753906 24.359375 L 12.117188 23.492188 L 11.578125 21.964844 L 12.375 21.90625 L 12.355469 21.707031 L 12.074219 21.710938 L 12.058594 21.59375 L 12.414062 21.554688 L 12.480469 21.386719 L 12.699219 21.304688 L 13.507812 21.269531 L 13.519531 20.921875 L 14.121094 20.746094 L 14.15625 21.453125 L 14.234375 21.457031 L 14.289062 21.632812 L 13.992188 21.894531 L 14.203125 22.460938 L 13.878906 22.851562 L 14.160156 22.945312 L 14.382812 22.734375 L 14.371094 22.601562 L 14.640625 22.457031 L 14.714844 22.558594 L 14.863281 22.492188 L 14.714844 22.140625 L 14.832031 22.054688 L 14.757812 21.871094 L 14.984375 21.761719 L 14.945312 21.496094 L 15.074219 21.40625 L 15.484375 22.355469 L 15.410156 22.09375 L 15.945312 21.511719 L 16.375 21.945312 L 16.1875 22.183594 L 16.382812 22.371094 L 16.867188 22.457031 L 17 23.128906 L 17.179688 23.097656 L 17.222656 23.207031 L 17.804688 23.125 L 17.703125 22.238281 L 17.820312 22.171875 L 17.914062 22.347656 L 18.308594 22.257812 L 18.378906 22.136719 L 18.246094 21.863281 L 18.363281 21.796875 L 18.660156 22 L 18.78125 22.492188 L 19.054688 22.703125 L 18.9375 22.84375 L 19.582031 23.234375 L 19.566406 22.988281 L 20.003906 22.640625 L 20.410156 22.867188 L 20.519531 22.777344 L 20.71875 22.851562 L 21.039062 22.667969 L 21.308594 22.886719 L 21.882812 22.503906 L 21.84375 22.304688 L 21.65625 22.527344 L 21.582031 22.351562 L 21.492188 22.28125 L 21.417969 22.324219 L 21.339844 22.175781 L 21.351562 22.34375 L 21.226562 22.234375 L 21.1875 22.371094 L 21.015625 22.324219 L 21.078125 22.140625 L 20.734375 22.148438 L 20.75 22.011719 L 20.492188 21.929688 L 20.730469 21.816406 L 20.523438 21.792969 L 20.453125 21.699219 L 20.546875 21.496094 L 20.425781 21.515625 L 20.433594 21.332031 L 20.390625 21.453125 L 20.296875 21.414062 L 20.214844 21.546875 L 20.136719 21.546875 L 20.199219 21.316406 L 20.015625 21.507812 L 20.046875 21.40625 L 19.917969 21.40625 L 19.917969 21.285156 L 19.75 21.265625 L 19.800781 21.167969 L 19.664062 21.097656 L 19.710938 21.035156 L 19.601562 20.871094 L 19.492188 20.875 L 20.113281 20.722656 L 20 20.601562 L 19.996094 20.441406 L 20.203125 20.21875 L 20.105469 19.660156 L 20.324219 19.132812 L 20.316406 18.371094 L 20 17.71875 L 20.214844 17.574219 L 20.347656 17.585938 L 20.265625 17.390625 L 20.089844 17.289062 L 19.742188 17.539062 L 19.566406 17.175781 L 19.632812 17.125 L 19.5625 16.742188 L 19.269531 16.792969 L 19.21875 16.898438 L 18.46875 17.050781 L 18.203125 16.195312 L 18.121094 16.28125 L 17.597656 16.308594 L 17.519531 15.90625 L 16.96875 16.0625 L 16.839844 15.859375 L 17.164062 15.796875 L 17.210938 14.882812 L 17.421875 14.792969 L 17.296875 14.132812 L 16.746094 14.179688 L 16.761719 14.40625 L 16.617188 14.441406 L 16.492188 13.960938 L 16.335938 13.996094 L 16.320312 13.839844 L 17.035156 13.664062 L 16.792969 12.269531 L 17.183594 12.167969 L 16.96875 10.777344 L 16.398438 10.871094 L 16.246094 10.972656 L 16.246094 11.15625 L 16.328125 11.195312 L 16.214844 11.269531 L 16.214844 11.5625 L 15.769531 11.769531 L 15.714844 11.574219 L 15.503906 11.632812 L 15.382812 11.085938 L 15.5 10.996094 L 15.429688 10.65625 L 14.992188 10.777344 L 14.828125 9.828125 L 14.453125 9.992188 L 14.238281 10.230469 L 14.195312 9.671875 L 13.765625 10.117188 L 13.679688 9.804688 L 13.8125 9.648438 L 13.777344 9.582031 L 13.554688 9.757812 L 13.5 9.695312 L 13.742188 9.488281 L 13.753906 9.011719 L 13.710938 8.953125 L 13.441406 9.074219 L 13.128906 8.503906 L 13.707031 8.285156 L 13.722656 8.140625 L 13.988281 7.800781 L 13.929688 7.605469 L 14.113281 7.429688 L 13.898438 7.441406 L 14.015625 7.210938 L 14.011719 6.933594 L 14.101562 6.910156 L 13.894531 6.449219 L 13.972656 6.226562 L 14.25 6.050781 L 14.464844 5.425781 L 14.25 5.335938 L 14.023438 5.511719 L 13.851562 5.265625 L 13.851562 5.132812 L 14.046875 4.789062 L 14.453125 4.484375 L 14.496094 4.339844 L 13.988281 4.390625 L 13.992188 4.269531 L 13.949219 4.414062 L 13.867188 4.414062 L 13.640625 3.070312 L 13.242188 3.058594 L 13.273438 3.203125 L 12.949219 3.207031 L 12.882812 3.273438 L 12.980469 3.324219 L 13 3.472656 L 12.835938 3.359375 L 12.894531 3.625 L 12.71875 3.695312 L 12.402344 3.65625 L 11.882812 3.230469 L 11.523438 3.480469 L 11.160156 2.980469 L 11.160156 2.8125 L 10.820312 2.542969 L 10.921875 2.21875 L 10.894531 2.078125 L 10.773438 2.050781 L 10.898438 1.957031 L 11.070312 2.101562 L 11.089844 1.949219 L 11.570312 1.789062 L 11.722656 1.019531 L 12.050781 1.160156 L 12.136719 1.078125 L 12.277344 1.109375 L 12.378906 1.515625 L 12.507812 1.433594 L 12.449219 1.300781 L 12.601562 1.09375 L 12.566406 0.808594 L 12.691406 0.683594 L 12.65625 0.585938 L 12.75 0.550781 L 13.285156 1.050781 L 13.390625 1.019531 L 13.480469 1.097656 L 13.359375 1.214844 L 13.6875 1.195312 L 13.867188 1.289062 L 13.953125 1.1875 L 14.152344 1.207031 L 14.273438 1.121094 L 14.351562 1.339844 L 14.195312 1.363281 L 14.15625 1.453125 L 13.875 1.484375 L 14.003906 1.675781 L 14.335938 1.570312 L 14.398438 1.78125 L 14.53125 1.855469 L 14.792969 1.886719 L 15.105469 1.769531 L 15.132812 1.855469 L 15.253906 1.785156 L 15.289062 1.839844 L 15.414062 1.777344 L 15.382812 1.675781 L 15.472656 1.539062 L 16.097656 1.425781 L 16.179688 1.613281 L 16.375 1.691406 L 16.949219 1.746094 L 16.984375 1.675781 L 17.109375 1.683594 L 17.058594 1.558594 L 17.175781 1.503906 L 17.21875 1.316406 L 17.535156 1.421875 L 17.519531 1.570312 L 17.742188 1.617188 L 17.777344 1.53125 L 17.679688 1.472656 L 17.789062 1.4375 L 17.847656 0.90625 L 17.679688 0.546875 L 17.902344 0.625 L 18.230469 0.433594 L 18.648438 0.4375 Z M 18.703125 0.371094 " fill-opacity="1" fill-rule="nonzero"/></g><g clip-path="url(#df0d24f89e)"><path stroke-linecap="round" transform="matrix(0.116814, 0, 0, 0.116814, 5.478562, -0.0467255)" fill="none" stroke-linejoin="round" d="M 113.210733 3.5768 L 114.180493 4.61344 L 117.825453 3.14208 L 120.901933 6.15168 L 123.878093 1.0688 L 126.954574 2.7408 L 128.091534 1.30288 L 129.496014 3.67712 L 129.228494 6.21856 L 131.067694 6.28544 L 132.739694 9.395361 L 136.451534 10.331681 L 137.722254 9.127841 L 141.534414 9.161281 L 146.149135 10.699521 L 147.854575 9.997281 L 150.596655 10.432001 L 151.332335 13.675681 L 154.341935 14.076961 L 154.341935 15.113601 L 152.502735 15.581761 L 151.532975 14.779201 L 151.298895 15.448001 L 152.101455 15.882721 L 149.560015 15.815841 L 149.225615 17.053121 L 146.884815 16.685281 L 145.614095 18.591361 L 143.942094 18.925761 L 145.848175 20.129601 L 147.419855 23.507041 L 145.246255 24.644001 L 146.851375 28.255522 L 146.550415 29.726882 L 149.192175 31.265122 L 150.931055 33.672802 L 150.362575 34.308162 L 152.569615 46.012163 L 159.157295 45.109283 L 159.592015 47.249443 L 160.160495 47.316323 L 160.193935 48.553603 L 158.689135 48.754243 L 159.324495 51.462883 L 156.849935 52.298883 L 159.123855 64.872324 L 162.300655 64.270404 L 162.835696 66.744964 L 172.700496 64.905764 L 173.168656 65.975844 L 176.412336 65.039524 L 176.111376 68.550724 L 177.248336 68.550724 L 180.458577 67.681284 L 179.656016 64.571364 L 185.407697 63.434404 L 185.708657 64.838884 L 184.337617 66.310244 L 184.705457 70.356484 L 182.264337 70.891524 L 182.464977 71.861284 L 182.699057 72.897924 L 184.270737 74.168644 L 188.082897 74.068324 L 188.450737 75.205284 L 191.293137 74.737124 L 192.062257 78.415524 L 189.888657 78.917124 L 190.791537 84.936325 L 189.587697 85.203845 L 189.688017 87.511205 L 192.296337 87.109925 L 192.898257 89.517605 L 191.460337 89.852005 L 192.028817 93.296325 L 192.329777 94.199205 L 193.332977 94.098885 L 193.934897 95.536805 L 191.293137 96.874405 L 191.727857 98.512966 L 192.864817 98.312325 L 193.934897 102.759846 L 200.321938 101.489126 L 199.653138 103.729606 L 201.091058 103.562406 L 201.960498 106.739206 L 212.895378 103.930246 L 213.196338 108.411206 L 211.056178 108.912806 L 211.825298 112.791846 L 209.484498 113.193126 L 209.116658 111.855526 L 208.414418 111.989286 L 208.481298 115.500486 L 214.667698 115.467046 L 215.002098 113.795046 L 217.978259 113.193126 L 218.412979 114.096006 L 219.817459 113.861926 L 222.191699 123.158247 L 221.623219 123.425767 L 222.292019 126.803207 L 221.522899 127.070727 L 221.422579 129.344647 L 219.516499 128.976807 L 217.008499 129.545287 L 218.045139 132.755527 L 210.721778 133.992807 L 210.153298 132.989607 L 206.909618 133.558087 L 206.842738 134.594728 L 201.793298 135.932328 L 203.398418 142.319368 L 204.769458 142.419688 L 206.943058 144.058248 L 208.414418 148.104488 L 209.785458 148.004168 L 211.724978 149.341768 L 211.424018 152.786089 L 213.196338 156.029769 L 211.156498 159.005929 L 213.731378 162.416809 L 213.196338 166.329289 L 214.734578 167.332489 L 213.296658 168.168489 L 214.199538 168.670089 L 213.363538 170.77681 L 201.759858 173.65265 L 188.952337 178.56833 L 185.875857 177.93297 L 182.765937 179.30401 L 181.127377 183.01585 L 181.729297 184.68785 L 182.799377 185.39009 L 183.167217 184.85505 L 184.270737 189.871051 L 182.665617 196.860011 L 180.391697 198.465131 L 177.716496 202.176971 L 172.968016 212.075212 L 168.620816 219.532332 L 165.377136 223.210732 L 163.270416 227.524493 L 155.813295 235.316013 L 144.443694 249.728654 L 108.060972 279.022096 L 102.543372 285.409136 L 101.740812 288.485616 L 100.670732 288.184656 L 100.503532 288.886896 L 103.446252 291.762736 L 104.449452 290.926736 L 103.880972 290.057296 L 104.549772 289.087536 L 105.686732 290.124176 L 105.653292 291.461776 L 106.288652 290.358256 L 109.164493 289.923536 L 111.003693 290.926736 L 111.538733 290.191056 L 111.973453 290.659216 L 111.037133 292.264336 L 111.772813 294.437936 L 110.669293 297.046257 L 111.772813 304.503377 L 109.933613 310.689777 L 110.334893 314.535378 L 108.529132 314.736018 L 108.295052 316.173938 L 106.154892 316.642098 L 105.519532 316.006738 L 104.315692 312.261457 L 105.586412 310.288497 L 104.951052 306.309137 L 103.981292 303.600497 L 99.935052 298.551057 L 96.390412 296.143377 L 91.307532 294.738896 L 87.696011 292.665616 L 82.312171 293.300976 L 80.506411 292.097136 L 77.797771 294.270736 L 74.253131 293.702256 L 72.84865 295.039856 L 70.50785 295.742097 L 69.90593 297.079697 L 67.96641 298.250097 L 63.11761 299.788337 L 56.26241 303.868017 L 54.623849 304.102097 L 53.420009 306.008177 L 53.720969 308.148337 L 52.851529 309.318737 L 50.945449 308.616497 L 48.002729 305.540017 L 45.929449 305.473137 L 44.157129 303.633937 L 42.552009 303.700817 L 41.348169 304.904657 L 43.053609 306.141937 L 42.719209 307.312337 L 39.241449 309.051217 L 40.077449 310.856977 L 42.083849 312.127697 L 42.150729 313.130897 L 36.867208 314.903218 L 31.249288 312.997137 L 25.731688 312.462097 L 10.182087 304.971537 L 5.701127 297.347217 L 5.500487 292.364656 L 0.685126 290.391696 L 3.025927 286.312016 L 7.440007 282.232336 L 13.225127 284.439376 L 16.034087 283.870896 L 15.632807 285.275376 L 16.401927 288.284976 L 22.253928 286.847056 L 20.615368 279.657456 L 24.661608 278.721136 L 22.621768 269.993295 L 20.013448 269.959855 L 22.387688 264.810095 L 24.327208 262.870575 L 27.905288 263.338735 L 28.239688 262.101455 L 27.470568 259.158734 L 30.246088 259.794095 L 36.332168 258.188974 L 35.696808 254.544014 L 41.749449 252.805134 L 39.776489 243.375054 L 40.244649 242.104334 L 39.809929 240.031053 L 41.415049 239.696653 L 41.013769 238.660013 L 55.69393 235.349453 L 57.56657 230.768173 L 53.587209 225.752173 L 61.74657 215.586412 L 53.720969 208.931852 L 56.83089 201.508171 L 52.216169 188.433131 L 59.03793 187.931531 L 58.87073 186.22609 L 56.46305 186.25953 L 56.32929 185.25633 L 59.37233 184.92193 L 59.94081 183.48401 L 61.81345 182.78177 L 68.73553 182.48081 L 68.83585 179.50465 L 73.985611 177.99985 L 74.286571 184.05249 L 74.955371 184.08593 L 75.423531 185.59073 L 72.882091 187.83121 L 74.687851 192.680011 L 71.91233 196.024011 L 74.320011 196.826571 L 76.226091 195.020811 L 76.125771 193.883851 L 78.433131 192.646571 L 79.068491 193.516011 L 80.339211 192.947531 L 79.068491 189.937931 L 80.071691 189.202251 L 79.436331 187.63057 L 81.375851 186.69425 L 81.041451 184.42033 L 82.144971 183.65121 L 85.656171 191.777131 L 85.020811 189.536651 L 89.602091 184.55409 L 93.280492 188.265931 L 91.675372 190.305771 L 93.347372 191.910891 L 97.493932 192.646571 L 98.630892 198.398251 L 100.169132 198.130731 L 100.536972 199.067051 L 105.519532 198.364811 L 104.650092 190.773931 L 105.653292 190.205451 L 106.455852 191.710251 L 109.833293 190.941131 L 110.435213 189.904491 L 109.298253 187.56369 L 110.301453 186.99521 L 112.842893 188.734091 L 113.879533 192.947531 L 116.220333 194.753291 L 115.217133 195.957131 L 120.734733 199.301131 L 120.600973 197.194411 L 124.346253 194.218251 L 127.824014 196.157771 L 128.760334 195.388651 L 130.465774 196.024011 L 133.207854 194.452331 L 135.515214 196.324971 L 140.430894 193.047851 L 140.096494 191.342411 L 138.491374 193.248491 L 137.856014 191.743691 L 137.086894 191.141771 L 136.451534 191.509611 L 135.782734 190.238891 L 135.883054 191.676811 L 134.812974 190.740491 L 134.478574 191.910891 L 133.007214 191.509611 L 133.542254 189.937931 L 130.599534 190.004811 L 130.733294 188.834411 L 128.526254 188.132171 L 130.566094 187.16241 L 128.793774 186.96177 L 128.191854 186.15921 L 128.994414 184.42033 L 127.957774 184.58753 L 128.024654 183.01585 L 127.656814 184.05249 L 126.854254 183.71809 L 126.152013 184.85505 L 125.483213 184.85505 L 126.018253 182.88209 L 124.446573 184.52065 L 124.714093 183.65121 L 123.610573 183.65121 L 123.610573 182.61457 L 122.172653 182.44737 L 122.607373 181.61137 L 121.436973 181.00945 L 121.838253 180.47441 L 120.901933 179.06993 L 119.965613 179.10337 L 125.282573 177.79921 L 124.312813 176.76257 L 124.279373 175.39153 L 126.051693 173.48545 L 125.215693 168.703529 L 127.088334 164.189129 L 127.021454 157.668329 L 124.312813 152.083848 L 126.152013 150.846568 L 127.288974 150.946888 L 126.586733 149.274888 L 125.081933 148.405448 L 122.105773 150.545608 L 120.600973 147.435688 L 121.169453 147.000968 L 120.567533 143.723848 L 118.059533 144.158568 L 117.624813 145.061448 L 111.204333 146.365608 L 108.930413 139.042248 L 108.228172 139.777928 L 103.747212 140.012008 L 103.078412 136.567688 L 98.363372 137.905288 L 97.259852 136.166408 L 100.035372 135.631368 L 100.436652 127.806407 L 102.242412 127.037287 L 101.172332 121.385927 L 96.457292 121.787207 L 96.591052 123.726727 L 95.353772 124.027687 L 94.283692 119.914567 L 92.946092 120.215527 L 92.812332 118.877927 L 98.931852 117.373127 L 96.858572 105.435046 L 100.202572 104.565606 L 98.363372 92.660965 L 93.481132 93.463525 L 92.176972 94.332965 L 92.176972 95.904645 L 92.879212 96.239045 L 91.909452 96.874405 L 91.909452 99.382406 L 88.097291 101.154726 L 87.629131 99.482726 L 85.823371 99.984326 L 84.786731 95.302725 L 85.789931 94.533605 L 85.188011 91.624325 L 81.442731 92.660965 L 80.038251 84.535045 L 76.828011 85.939525 L 74.988811 87.979365 L 74.620971 83.197445 L 70.94257 87.009605 L 70.20689 84.334405 L 71.34385 82.996805 L 71.04289 82.428325 L 69.13681 83.933125 L 68.66865 83.398085 L 70.74193 81.625765 L 70.84225 77.546084 L 70.47441 77.044484 L 68.16705 78.081124 L 65.49185 73.198884 L 70.44097 71.326244 L 70.57473 70.088964 L 72.84865 67.179684 L 72.34705 65.507684 L 73.918731 64.002884 L 72.07953 64.103204 L 73.082731 62.130243 L 73.049291 59.756003 L 73.818411 59.555363 L 72.04609 55.609443 L 72.71489 53.703363 L 75.089131 52.198563 L 76.928331 46.848163 L 75.089131 46.079043 L 73.149611 47.583843 L 71.67825 45.477123 L 71.67825 44.340162 L 73.350251 41.397442 L 76.828011 38.789122 L 77.195851 37.551842 L 72.84865 37.986562 L 72.882091 36.949922 L 72.51425 38.187202 L 71.81201 38.187202 L 69.87249 26.683841 L 66.46161 26.583521 L 66.72913 27.820802 L 63.95361 27.854242 L 63.38513 28.422722 L 64.22113 28.857442 L 64.38833 30.128162 L 62.98385 29.158402 L 63.48545 31.432322 L 61.98065 32.034242 L 59.27201 31.699842 L 54.824489 28.054882 L 51.748009 30.195042 L 48.638089 25.914721 L 48.638089 24.476801 L 45.728809 22.169441 L 46.598249 19.393921 L 46.364169 18.190081 L 45.327529 17.956001 L 46.397609 17.153441 L 47.868969 18.390721 L 48.036169 17.086561 L 52.149289 15.715521 L 53.453449 9.127841 L 56.26241 10.331681 L 56.99809 9.629441 L 58.20193 9.896961 L 59.07137 13.374721 L 60.17489 12.672481 L 59.67329 11.535521 L 60.97745 9.763201 L 60.67649 7.32208 L 61.74657 6.252 L 61.44561 5.416 L 62.24817 5.11504 L 66.82945 9.395361 L 67.73233 9.127841 L 68.50145 9.796641 L 67.46481 10.799841 L 70.27377 10.632641 L 71.81201 11.435201 L 72.54769 10.565761 L 74.253131 10.732961 L 75.289771 9.997281 L 75.958571 11.869921 L 74.620971 12.070561 L 74.286571 12.839681 L 71.87889 13.107201 L 72.982411 14.745761 L 75.824811 13.842881 L 76.359851 15.648641 L 77.496811 16.284001 L 79.737291 16.551521 L 82.412491 15.548321 L 82.646571 16.284001 L 83.683211 15.682081 L 83.984171 16.150241 L 85.054251 15.615201 L 84.786731 14.745761 L 85.555851 13.575361 L 90.906252 12.605601 L 91.608492 14.210721 L 93.280492 14.879521 L 98.196172 15.347681 L 98.497132 14.745761 L 99.567212 14.812641 L 99.132492 13.742561 L 100.135692 13.274401 L 100.503532 11.669281 L 103.212172 12.572161 L 103.078412 13.842881 L 104.984492 14.244161 L 105.285452 13.508481 L 104.449452 13.006881 L 105.385772 12.705921 L 105.887372 8.15808 L 104.449452 5.0816 L 106.355532 5.7504 L 109.164493 4.11184 L 112.742573 4.14528 Z M 113.210733 3.5768 " stroke="#ffffff" stroke-width="1.19" stroke-opacity="1" stroke-miterlimit="4"/></g><path fill="#ff5757" d="M 22.359375 20.53125 C 22.359375 20.636719 22.339844 20.726562 22.300781 20.804688 C 22.265625 20.878906 22.210938 20.9375 22.144531 20.976562 C 22.078125 21.019531 22 21.039062 21.914062 21.039062 C 21.828125 21.039062 21.753906 21.019531 21.683594 20.976562 C 21.617188 20.9375 21.566406 20.878906 21.527344 20.800781 C 21.488281 20.726562 21.46875 20.636719 21.46875 20.53125 C 21.46875 20.425781 21.488281 20.332031 21.527344 20.257812 C 21.566406 20.179688 21.617188 20.125 21.683594 20.082031 C 21.753906 20.042969 21.828125 20.019531 21.914062 20.019531 C 22 20.019531 22.078125 20.042969 22.144531 20.082031 C 22.210938 20.125 22.265625 20.179688 22.300781 20.257812 C 22.339844 20.332031 22.359375 20.425781 22.359375 20.53125 Z M 22.210938 20.53125 C 22.210938 20.449219 22.199219 20.382812 22.171875 20.328125 C 22.148438 20.269531 22.113281 20.230469 22.066406 20.199219 C 22.023438 20.171875 21.972656 20.15625 21.914062 20.15625 C 21.855469 20.15625 21.804688 20.171875 21.761719 20.199219 C 21.714844 20.230469 21.679688 20.269531 21.65625 20.328125 C 21.628906 20.382812 21.617188 20.449219 21.617188 20.53125 C 21.617188 20.609375 21.628906 20.679688 21.65625 20.734375 C 21.679688 20.789062 21.714844 20.832031 21.761719 20.859375 C 21.804688 20.886719 21.855469 20.902344 21.914062 20.902344 C 21.972656 20.902344 22.023438 20.886719 22.066406 20.859375 C 22.113281 20.832031 22.148438 20.789062 22.171875 20.734375 C 22.199219 20.679688 22.210938 20.609375 22.210938 20.53125 Z M 22.8125 21.039062 C 22.753906 21.039062 22.699219 21.023438 22.652344 20.996094 C 22.605469 20.964844 22.570312 20.917969 22.542969 20.863281 C 22.515625 20.804688 22.503906 20.734375 22.503906 20.65625 C 22.503906 20.574219 22.515625 20.507812 22.542969 20.449219 C 22.570312 20.390625 22.605469 20.347656 22.65625 20.316406 C 22.703125 20.289062 22.753906 20.273438 22.816406 20.273438 C 22.859375 20.273438 22.898438 20.28125 22.925781 20.296875 C 22.953125 20.3125 22.976562 20.328125 22.992188 20.347656 C 23.007812 20.371094 23.019531 20.386719 23.027344 20.402344 L 23.039062 20.402344 L 23.039062 20.035156 L 23.183594 20.035156 L 23.183594 21.027344 L 23.039062 21.027344 L 23.039062 20.910156 L 23.027344 20.910156 C 23.019531 20.925781 23.007812 20.945312 22.992188 20.964844 C 22.976562 20.984375 22.953125 21.003906 22.925781 21.015625 C 22.894531 21.03125 22.859375 21.039062 22.8125 21.039062 Z M 22.847656 20.917969 C 22.886719 20.917969 22.921875 20.90625 22.953125 20.882812 C 22.980469 20.863281 23.003906 20.832031 23.015625 20.792969 C 23.03125 20.753906 23.039062 20.707031 23.039062 20.652344 C 23.039062 20.601562 23.03125 20.558594 23.015625 20.519531 C 23.003906 20.480469 22.980469 20.449219 22.953125 20.429688 C 22.921875 20.40625 22.886719 20.394531 22.847656 20.394531 C 22.800781 20.394531 22.765625 20.40625 22.738281 20.429688 C 22.707031 20.453125 22.6875 20.484375 22.671875 20.523438 C 22.65625 20.5625 22.648438 20.605469 22.648438 20.652344 C 22.648438 20.703125 22.65625 20.75 22.671875 20.789062 C 22.6875 20.828125 22.707031 20.859375 22.738281 20.882812 C 22.765625 20.90625 22.804688 20.917969 22.847656 20.917969 Z M 23.707031 21.039062 C 23.636719 21.039062 23.574219 21.023438 23.519531 20.992188 C 23.46875 20.960938 23.425781 20.917969 23.398438 20.859375 C 23.371094 20.804688 23.355469 20.734375 23.355469 20.660156 C 23.355469 20.582031 23.371094 20.515625 23.398438 20.457031 C 23.425781 20.398438 23.464844 20.355469 23.519531 20.320312 C 23.570312 20.289062 23.628906 20.273438 23.699219 20.273438 C 23.742188 20.273438 23.78125 20.28125 23.820312 20.292969 C 23.859375 20.308594 23.894531 20.328125 23.925781 20.359375 C 23.957031 20.386719 23.984375 20.425781 24 20.472656 C 24.019531 20.523438 24.027344 20.578125 24.027344 20.644531 L 24.027344 20.699219 L 23.4375 20.699219 L 23.4375 20.589844 L 23.886719 20.589844 C 23.886719 20.550781 23.878906 20.515625 23.863281 20.488281 C 23.847656 20.457031 23.824219 20.433594 23.796875 20.417969 C 23.769531 20.402344 23.738281 20.390625 23.699219 20.390625 C 23.660156 20.390625 23.625 20.402344 23.59375 20.421875 C 23.5625 20.441406 23.539062 20.46875 23.523438 20.5 C 23.507812 20.53125 23.5 20.566406 23.5 20.601562 L 23.5 20.6875 C 23.5 20.738281 23.507812 20.78125 23.527344 20.8125 C 23.542969 20.847656 23.566406 20.875 23.597656 20.894531 C 23.632812 20.914062 23.667969 20.921875 23.710938 20.921875 C 23.738281 20.921875 23.761719 20.917969 23.785156 20.910156 C 23.808594 20.902344 23.828125 20.890625 23.84375 20.875 C 23.859375 20.859375 23.871094 20.839844 23.882812 20.816406 L 24.019531 20.839844 C 24.007812 20.878906 23.988281 20.914062 23.960938 20.945312 C 23.929688 20.976562 23.894531 21 23.855469 21.015625 C 23.8125 21.03125 23.761719 21.039062 23.707031 21.039062 Z M 24.746094 20.464844 L 24.613281 20.488281 C 24.609375 20.46875 24.601562 20.453125 24.589844 20.4375 C 24.578125 20.425781 24.5625 20.410156 24.539062 20.402344 C 24.519531 20.390625 24.496094 20.386719 24.464844 20.386719 C 24.425781 20.386719 24.390625 20.398438 24.363281 20.414062 C 24.335938 20.433594 24.320312 20.457031 24.320312 20.484375 C 24.320312 20.511719 24.332031 20.53125 24.347656 20.546875 C 24.367188 20.558594 24.398438 20.574219 24.4375 20.582031 L 24.558594 20.609375 C 24.625 20.625 24.675781 20.648438 24.710938 20.683594 C 24.742188 20.714844 24.761719 20.757812 24.761719 20.8125 C 24.761719 20.855469 24.746094 20.894531 24.722656 20.929688 C 24.695312 20.964844 24.660156 20.992188 24.613281 21.011719 C 24.570312 21.03125 24.515625 21.039062 24.457031 21.039062 C 24.371094 21.039062 24.304688 21.023438 24.253906 20.988281 C 24.199219 20.953125 24.167969 20.902344 24.15625 20.835938 L 24.296875 20.8125 C 24.304688 20.851562 24.320312 20.878906 24.347656 20.898438 C 24.375 20.914062 24.410156 20.925781 24.453125 20.925781 C 24.503906 20.925781 24.539062 20.914062 24.570312 20.894531 C 24.597656 20.875 24.613281 20.851562 24.613281 20.820312 C 24.613281 20.796875 24.601562 20.777344 24.585938 20.761719 C 24.566406 20.746094 24.542969 20.734375 24.507812 20.726562 L 24.378906 20.699219 C 24.3125 20.683594 24.261719 20.660156 24.226562 20.625 C 24.195312 20.589844 24.175781 20.546875 24.175781 20.492188 C 24.175781 20.449219 24.191406 20.410156 24.214844 20.378906 C 24.238281 20.34375 24.273438 20.320312 24.316406 20.300781 C 24.359375 20.28125 24.410156 20.273438 24.464844 20.273438 C 24.542969 20.273438 24.609375 20.289062 24.652344 20.324219 C 24.699219 20.359375 24.730469 20.40625 24.746094 20.464844 Z M 25.136719 21.042969 C 25.089844 21.042969 25.046875 21.035156 25.007812 21.015625 C 24.96875 21 24.9375 20.972656 24.917969 20.9375 C 24.894531 20.90625 24.882812 20.863281 24.882812 20.816406 C 24.882812 20.773438 24.890625 20.738281 24.910156 20.710938 C 24.925781 20.683594 24.945312 20.664062 24.972656 20.648438 C 25 20.632812 25.03125 20.621094 25.066406 20.613281 C 25.097656 20.605469 25.132812 20.597656 25.167969 20.59375 C 25.214844 20.589844 25.25 20.585938 25.277344 20.582031 C 25.304688 20.578125 25.324219 20.570312 25.339844 20.5625 C 25.351562 20.554688 25.355469 20.542969 25.355469 20.527344 L 25.355469 20.523438 C 25.355469 20.480469 25.34375 20.449219 25.320312 20.425781 C 25.296875 20.402344 25.261719 20.390625 25.214844 20.390625 C 25.167969 20.390625 25.128906 20.402344 25.101562 20.421875 C 25.074219 20.445312 25.054688 20.46875 25.042969 20.492188 L 24.90625 20.460938 C 24.921875 20.417969 24.945312 20.378906 24.976562 20.351562 C 25.007812 20.324219 25.042969 20.304688 25.085938 20.292969 C 25.125 20.277344 25.167969 20.273438 25.214844 20.273438 C 25.242188 20.273438 25.273438 20.277344 25.308594 20.285156 C 25.339844 20.289062 25.371094 20.304688 25.402344 20.320312 C 25.429688 20.339844 25.457031 20.367188 25.472656 20.398438 C 25.492188 20.433594 25.503906 20.476562 25.503906 20.53125 L 25.503906 21.027344 L 25.359375 21.027344 L 25.359375 20.925781 L 25.355469 20.925781 C 25.34375 20.941406 25.332031 20.960938 25.3125 20.980469 C 25.292969 20.996094 25.269531 21.011719 25.242188 21.023438 C 25.210938 21.035156 25.175781 21.042969 25.136719 21.042969 Z M 25.167969 20.925781 C 25.207031 20.925781 25.242188 20.917969 25.269531 20.902344 C 25.296875 20.886719 25.320312 20.867188 25.335938 20.839844 C 25.351562 20.816406 25.359375 20.785156 25.359375 20.757812 L 25.359375 20.660156 C 25.351562 20.667969 25.34375 20.671875 25.328125 20.675781 C 25.3125 20.679688 25.296875 20.683594 25.277344 20.6875 C 25.257812 20.691406 25.242188 20.691406 25.222656 20.695312 C 25.207031 20.699219 25.191406 20.699219 25.179688 20.703125 C 25.148438 20.707031 25.125 20.710938 25.101562 20.71875 C 25.078125 20.726562 25.058594 20.738281 25.046875 20.753906 C 25.03125 20.769531 25.027344 20.792969 25.027344 20.816406 C 25.027344 20.851562 25.039062 20.878906 25.066406 20.898438 C 25.09375 20.917969 25.125 20.925781 25.167969 20.925781 Z M 25.167969 20.925781 " fill-opacity="1" fill-rule="nonzero"/><g mask="url(#235444b357)"><g transform="matrix(1, 0, 0, 1, 17, 11)"><g clip-path="url(#b58f65910f)"><g clip-path="url(#16c898cc29)"><path fill="#ff5757" d="M 2.882812 1.414062 C 2.882812 1.632812 2.839844 1.816406 2.761719 1.976562 C 2.683594 2.132812 2.574219 2.25 2.433594 2.335938 C 2.296875 2.417969 2.140625 2.460938 1.964844 2.460938 C 1.789062 2.460938 1.628906 2.417969 1.492188 2.335938 C 1.351562 2.25 1.242188 2.128906 1.164062 1.972656 C 1.085938 1.816406 1.042969 1.628906 1.042969 1.414062 C 1.042969 1.195312 1.085938 1.007812 1.164062 0.851562 C 1.242188 0.695312 1.351562 0.574219 1.492188 0.492188 C 1.628906 0.40625 1.789062 0.367188 1.964844 0.367188 C 2.140625 0.367188 2.296875 0.40625 2.433594 0.492188 C 2.574219 0.574219 2.683594 0.695312 2.761719 0.851562 C 2.839844 1.007812 2.882812 1.195312 2.882812 1.414062 Z M 2.578125 1.414062 C 2.578125 1.246094 2.550781 1.109375 2.496094 0.996094 C 2.441406 0.878906 2.371094 0.792969 2.277344 0.734375 C 2.183594 0.675781 2.082031 0.648438 1.964844 0.648438 C 1.847656 0.648438 1.742188 0.675781 1.648438 0.734375 C 1.558594 0.792969 1.484375 0.878906 1.429688 0.996094 C 1.378906 1.109375 1.351562 1.246094 1.351562 1.414062 C 1.351562 1.578125 1.378906 1.71875 1.429688 1.832031 C 1.484375 1.945312 1.558594 2.035156 1.648438 2.09375 C 1.742188 2.152344 1.847656 2.179688 1.964844 2.179688 C 2.082031 2.179688 2.183594 2.152344 2.277344 2.09375 C 2.371094 2.035156 2.441406 1.945312 2.496094 1.832031 C 2.550781 1.71875 2.578125 1.578125 2.578125 1.414062 Z M 3.839844 2.433594 L 3.179688 2.433594 L 3.179688 0.394531 L 3.863281 0.394531 C 4.0625 0.394531 4.234375 0.433594 4.375 0.515625 C 4.519531 0.597656 4.628906 0.714844 4.707031 0.867188 C 4.785156 1.015625 4.820312 1.199219 4.820312 1.410156 C 4.820312 1.621094 4.78125 1.804688 4.707031 1.957031 C 4.628906 2.109375 4.515625 2.226562 4.371094 2.308594 C 4.226562 2.390625 4.046875 2.433594 3.839844 2.433594 Z M 3.488281 2.164062 L 3.824219 2.164062 C 3.980469 2.164062 4.109375 2.136719 4.210938 2.078125 C 4.3125 2.015625 4.390625 1.933594 4.441406 1.820312 C 4.492188 1.707031 4.519531 1.570312 4.519531 1.410156 C 4.519531 1.25 4.492188 1.113281 4.441406 1.003906 C 4.390625 0.890625 4.316406 0.808594 4.214844 0.75 C 4.117188 0.691406 3.992188 0.664062 3.84375 0.664062 L 3.488281 0.664062 Z M 5.121094 2.433594 L 5.121094 0.394531 L 6.398438 0.394531 L 6.398438 0.660156 L 5.429688 0.660156 L 5.429688 1.28125 L 6.332031 1.28125 L 6.332031 1.542969 L 5.429688 1.542969 L 5.429688 2.167969 L 6.410156 2.167969 L 6.410156 2.433594 Z M 7.835938 0.929688 C 7.828125 0.835938 7.78125 0.761719 7.707031 0.710938 C 7.628906 0.65625 7.53125 0.632812 7.414062 0.632812 C 7.332031 0.632812 7.257812 0.644531 7.199219 0.671875 C 7.136719 0.699219 7.089844 0.734375 7.054688 0.777344 C 7.023438 0.824219 7.007812 0.875 7.007812 0.933594 C 7.007812 0.980469 7.015625 1.023438 7.039062 1.058594 C 7.0625 1.09375 7.09375 1.125 7.128906 1.148438 C 7.167969 1.171875 7.207031 1.191406 7.25 1.207031 C 7.296875 1.222656 7.335938 1.234375 7.375 1.246094 L 7.574219 1.296875 C 7.640625 1.3125 7.707031 1.332031 7.777344 1.359375 C 7.84375 1.386719 7.90625 1.421875 7.964844 1.46875 C 8.023438 1.511719 8.070312 1.566406 8.105469 1.632812 C 8.144531 1.699219 8.160156 1.777344 8.160156 1.871094 C 8.160156 1.984375 8.132812 2.085938 8.074219 2.175781 C 8.011719 2.265625 7.925781 2.335938 7.816406 2.390625 C 7.703125 2.441406 7.566406 2.464844 7.40625 2.464844 C 7.253906 2.464844 7.121094 2.441406 7.011719 2.394531 C 6.898438 2.34375 6.8125 2.277344 6.75 2.1875 C 6.6875 2.097656 6.652344 1.992188 6.644531 1.871094 L 6.953125 1.871094 C 6.960938 1.941406 6.984375 2.003906 7.023438 2.054688 C 7.066406 2.101562 7.121094 2.136719 7.1875 2.160156 C 7.253906 2.183594 7.328125 2.195312 7.40625 2.195312 C 7.492188 2.195312 7.570312 2.183594 7.636719 2.15625 C 7.707031 2.128906 7.757812 2.089844 7.796875 2.039062 C 7.835938 1.992188 7.855469 1.933594 7.855469 1.867188 C 7.855469 1.804688 7.839844 1.757812 7.804688 1.71875 C 7.773438 1.679688 7.726562 1.648438 7.667969 1.621094 C 7.609375 1.597656 7.542969 1.574219 7.472656 1.554688 L 7.230469 1.488281 C 7.066406 1.445312 6.9375 1.378906 6.839844 1.292969 C 6.746094 1.207031 6.699219 1.09375 6.699219 0.953125 C 6.699219 0.832031 6.730469 0.730469 6.796875 0.644531 C 6.859375 0.554688 6.945312 0.488281 7.054688 0.441406 C 7.164062 0.390625 7.285156 0.367188 7.421875 0.367188 C 7.558594 0.367188 7.683594 0.390625 7.789062 0.4375 C 7.894531 0.488281 7.976562 0.554688 8.039062 0.640625 C 8.097656 0.722656 8.132812 0.820312 8.132812 0.929688 Z M 8.601562 2.433594 L 8.273438 2.433594 L 9.007812 0.394531 L 9.363281 0.394531 L 10.097656 2.433594 L 9.769531 2.433594 L 9.195312 0.765625 L 9.179688 0.765625 Z M 8.65625 1.632812 L 9.714844 1.632812 L 9.714844 1.894531 L 8.65625 1.894531 Z M 8.65625 1.632812 " fill-opacity="1" fill-rule="nonzero"/></g></g></g></g></svg>