<svg xmlns="http://www.w3.org/2000/svg" xmlns:xlink="http://www.w3.org/1999/xlink" width="50" zoomAndPan="magnify" viewBox="0 0 37.5 37.499999" height="50" preserveAspectRatio="xMidYMid meet" version="1.0"><defs><filter x="0%" y="0%" width="100%" height="100%" id="723086fbcd"><feColorMatrix values="0 0 0 0 1 0 0 0 0 1 0 0 0 0 1 0 0 0 1 0" color-interpolation-filters="sRGB"/></filter><clipPath id="c6a0906ca5"><path d="M 1.128906 7.078125 L 35.914062 7.078125 L 35.914062 30 L 1.128906 30 Z M 1.128906 7.078125 " clip-rule="nonzero"/></clipPath><mask id="d5c8f23ed7"><g filter="url(#723086fbcd)"><rect x="-3.75" width="45" fill="#000000" y="-3.75" height="44.999999" fill-opacity="0.08"/></g></mask><clipPath id="32f0feb088"><path d="M 0.105469 1 L 25.449219 1 L 25.449219 3.367188 L 0.105469 3.367188 Z M 0.105469 1 " clip-rule="nonzero"/></clipPath><clipPath id="6171ef6303"><rect x="0" width="26" y="0" height="4"/></clipPath></defs><g clip-path="url(#c6a0906ca5)"><path stroke-linecap="round" transform="matrix(0.121341, 0, 0, 0.121341, 1.103439, 7.05638)" fill-opacity="1" fill="#000000" fill-rule="nonzero" stroke-linejoin="round" d="M 67.685024 32.75785 L 70.324796 35.23666 L 74.187876 36.846277 L 76.698879 36.781892 L 77.922188 39.196318 L 80.272228 40.966896 L 83.974347 41.417589 L 84.42504 42.286782 L 84.038732 44.636823 L 84.746964 45.82794 L 86.48535 46.568363 L 87.934005 46.149863 L 89.672392 47.920442 L 91.893663 48.532096 L 93.374511 50.012944 L 95.885513 50.045136 L 96.561552 50.592406 L 96.464975 52.234215 L 97.978015 49.723213 L 97.623899 47.469749 L 99.652017 45.473824 L 98.557477 44.669015 L 96.690321 45.409439 L 96.432783 41.578551 L 100.167094 41.256628 L 98.525285 40.290857 L 98.621862 39.164125 L 100.263671 39.003164 L 100.328056 37.84424 L 99.42667 37.71547 L 99.491055 36.009276 L 97.559515 34.625006 L 97.012245 33.272927 L 97.849246 28.3475 L 100.682171 23.969341 L 98.782823 22.134378 L 100.682171 20.428184 L 101.454788 18.496644 L 105.189099 16.146603 L 104.191136 11.768445 L 108.537102 14.923294 L 109.374103 14.18287 L 110.919335 15.373987 L 112.271414 14.376024 L 114.814608 16.050026 L 116.359841 15.245217 L 115.844763 13.152715 L 116.617379 11.575291 L 117.808496 11.961599 L 117.711919 9.901289 L 119.096189 9.997866 L 120.319498 8.613596 L 121.9935 8.162903 L 122.862693 9.22525 L 123.828463 9.032096 L 124.923003 7.519056 L 126.049735 7.808787 L 128.431968 6.295747 L 130.170354 6.585478 L 130.234739 3.334052 L 131.651202 2.625821 L 133.614934 3.495014 L 134.580705 2.690205 L 134.258781 1.885397 L 136.930745 1.499089 L 137.252669 2.175128 L 139.795864 2.979936 L 139.152017 3.977899 L 137.606784 3.849129 L 137.381438 4.621746 L 139.699287 5.877247 L 141.083557 5.008054 L 141.95275 2.20732 L 143.497983 1.080588 L 147.747371 4.943669 L 147.747371 6.134786 L 148.326833 5.845054 L 150.097412 5.104631 L 150.837836 3.108706 L 152.704992 4.525169 L 153.0913 6.456709 L 153.702954 5.040246 L 155.827648 4.074476 L 157.244111 5.748477 L 158.724959 4.525169 L 160.849653 4.718323 L 162.04077 5.587516 L 160.94623 5.941631 L 160.849653 6.617671 L 163.42504 8.420442 L 160.52773 8.999904 L 160.624307 10.19102 L 163.360656 10.834867 L 163.907926 9.611558 L 165.388773 9.836905 L 166.644274 11.961599 L 169.0587 12.66983 L 169.284046 13.76437 L 168.575815 14.569178 L 171.730664 16.114411 L 171.601895 16.951411 L 174.885513 19.558991 L 175.690322 19.076106 L 175.690322 20.460376 L 179.714364 22.649455 L 181.195212 24.259072 L 181.935635 24.162495 L 181.710289 25.289227 L 183.158944 24.77415 L 183.384291 23.743995 L 183.802791 24.645381 L 187.343948 25.19265 L 189.629605 23.904957 L 191.979645 23.937149 L 192.140607 25.804305 L 195.907111 25.546766 L 197.806459 27.735845 L 198.836614 26.126228 L 199.802384 26.094036 L 200.156499 27.188575 L 201.637347 26.737883 L 203.407926 27.220768 L 203.955195 29.538616 L 204.663427 29.989309 L 206.112082 27.67146 L 207.689507 27.574883 L 208.333354 26.609113 L 209.975163 26.061843 L 210.361471 24.838535 L 212.55055 25.385804 L 214.321129 22.230955 L 217.733517 25.482381 L 216.928708 26.512536 L 221.757559 31.212618 L 219.665057 34.335275 L 221.564405 35.912699 L 220.147942 38.037394 L 224.043215 40.033319 L 223.302791 42.898437 L 227.519988 42.898437 L 230.063182 45.409439 L 231.189914 45.087516 L 231.994723 45.69917 L 231.318684 47.373172 L 228.678912 47.630711 L 230.320721 49.465674 L 229.000835 52.105446 L 239.044845 59.18776 L 236.855766 63.372764 L 241.555848 66.881729 L 238.175652 71.742773 L 240.010615 73.094851 L 242.00654 70.551656 L 244.06685 72.064696 L 244.131235 72.80512 L 246.899776 69.489309 L 246.030583 68.877654 L 248.960086 64.69265 L 250.827241 64.048804 L 249.668317 63.85565 L 250.440933 62.76111 L 249.282009 62.34261 L 249.57174 61.859725 L 250.601895 62.020686 L 253.338244 58.865837 L 259.197249 63.887842 L 260.195212 63.952227 L 261.12879 65.497459 L 265.828871 64.724843 L 265.66791 63.984419 L 267.148757 63.72688 L 267.084372 62.986456 L 271.784454 62.76111 L 272.299531 65.948152 L 274.649572 65.497459 L 276.613305 65.980344 L 276.967421 68.974231 L 280.347616 68.974231 L 281.216809 70.937964 L 283.341504 71.581811 L 283.695619 74.028429 L 279.768154 74.73666 L 280.057885 77.76274 L 278.351691 78.213433 L 278.705807 82.591591 L 279.510615 82.655976 L 279.832539 85.456709 L 278.770192 85.166978 L 277.772229 85.810825 L 278.480461 86.29371 L 277.611267 86.680018 L 278.029768 90.317752 L 277.063998 91.122561 L 276.774267 92.957524 L 277.418113 96.659643 L 281.120232 96.241143 L 281.313386 97.367875 L 284.049735 97.013759 L 285.916891 109.472194 L 284.049735 109.440002 L 283.631235 110.148233 L 282.762042 109.729733 L 282.246964 111.274965 L 281.281194 110.598926 L 282.923003 121.673091 L 281.50654 124.538209 L 280.251039 124.506017 L 279.896923 126.630711 L 276.870844 125.825902 L 276.323574 124.538209 L 274.198879 125.149863 L 273.265302 123.958747 L 272.299531 124.602594 L 271.848839 122.671053 L 270.174837 121.061436 L 269.724144 121.737475 L 267.180949 120.578551 L 266.215179 120.803898 L 265.53914 119.580589 L 264.508985 120.353205 L 265.281601 120.353205 L 263.317869 121.415552 L 261.869214 120.481974 L 261.997983 121.093629 L 260.259597 121.608706 L 260.645905 124.602594 L 259.744519 125.890287 L 260.967828 128.014981 L 259.48698 128.948559 L 261.160982 130.268445 L 260.130827 130.558176 L 260.710289 134.614411 L 263.800754 134.228103 L 264.637755 138.638453 L 261.12879 138.574069 L 261.12879 139.572031 L 257.652017 140.24807 L 258.167095 143.145381 L 260.16302 143.016612 L 260.645905 146.332422 L 256.299939 147.426962 L 256.138977 148.296155 L 251.728627 148.843425 L 245.901813 148.263963 L 245.676467 147.362577 L 242.199694 147.072846 L 242.264079 149.165348 L 238.594152 149.680426 L 237.757152 148.038616 L 232.799531 148.038616 L 232.026915 147.362577 L 232.606377 145.141306 L 229.741259 146.364615 L 224.075407 146.396807 L 223.817869 144.465267 L 227.00491 144.465267 L 227.938488 140.441224 L 226.554217 138.252145 L 227.326834 137.576106 L 226.522025 136.417182 L 224.783639 137.543914 L 223.97883 133.809603 L 222.433598 134.356872 L 222.337021 133.809603 L 223.817869 133.004794 L 223.270599 130.075291 L 221.693174 129.656791 L 221.210289 128.336905 L 223.463753 127.467712 L 222.562367 123.765593 L 217.057477 125.021094 L 217.862286 123.7334 L 217.347209 123.282708 L 216.799939 123.701208 L 216.703362 122.34913 L 217.669132 121.737475 L 217.604747 120.932667 L 216.349246 120.031281 L 205.53262 122.799823 L 204.920966 119.451819 L 200.349653 119.805935 L 197.613305 115.170238 L 184.543215 121.866245 L 184.285676 119.934704 L 171.247779 116.876432 L 167.996353 114.558584 L 164.809311 115.620931 L 162.877771 114.687353 L 159.368806 116.103816 L 154.346801 115.975047 L 151.320721 117.101779 L 149.678912 119.580589 L 146.395293 120.417589 L 146.008985 119.709358 L 141.019172 120.353205 L 141.051365 116.071624 L 138.572555 116.425739 L 138.411593 115.781893 L 136.834168 115.846277 L 138.250631 124.184093 L 135.707436 124.731363 L 136.190322 128.497867 L 136.99513 128.562251 L 137.638977 131.878062 L 140.278749 131.7171 L 141.019172 137.061029 L 138.475978 137.640491 L 138.025285 136.449374 L 136.254706 137.125413 L 136.44786 138.477492 L 132.874511 138.960377 L 133.96905 144.36869 L 137.059515 142.920034 L 137.799939 145.817345 L 139.763671 145.720768 L 140.053402 148.006424 L 138.411593 149.197541 L 139.345171 155.507239 L 143.916483 154.702431 L 144.367176 157.503164 L 143.755521 157.72851 L 143.916483 160.561436 L 142.113712 160.75459 L 142.660982 164.32794 L 140.310941 165.003979 L 141.019172 168.834867 L 142.113712 168.770483 L 142.982905 172.31164 L 142.435635 173.309603 L 141.984943 172.697948 L 142.08152 173.82468 L 141.276711 174.146603 L 143.04729 174.983604 L 142.210289 176.013759 L 143.884291 175.724028 L 144.43156 177.784338 L 143.852098 179.554916 L 141.083557 180.874802 L 137.735554 181.035764 L 127.723736 178.717916 L 122.798308 176.786375 L 118.291381 176.43226 L 107.281601 180.102186 L 98.106784 181.067956 L 91.410778 184.029652 L 85.358618 185.542691 L 75.185839 187.570809 L 73.222106 185.929 L 70.324796 181.486457 L 49.721699 184.802268 L 49.110044 181.776188 L 45.89081 182.838535 L 45.923003 177.204876 L 47.017542 176.85076 L 47.275081 175.466489 L 46.148349 175.208951 L 45.021617 172.569179 L 37.778341 174.017834 L 38.45438 178.556954 L 27.090484 180.713841 L 27.219254 182.033727 L 28.764486 183.933075 L 26.060329 185.091999 L 25.93156 182.967304 L 23.87125 181.80838 L 24.064404 178.814493 L 23.549327 178.395992 L 21.006132 179.973417 L 19.042399 179.812455 L 19.267746 178.267223 L 20.587632 176.947337 L 20.330093 175.112374 L 15.758781 176.174721 L 10.221699 174.854835 L 10.318276 172.826718 L 0.821535 173.309603 L 3.36473 170.702023 L 1.658536 159.692243 L 8.740851 157.889472 L 8.45112 155.475047 L 7.710696 155.346277 L 7.260003 153.31816 L 8.45112 152.77089 L 7.775081 148.006424 L 9.449082 147.523539 L 8.612082 142.72688 L 9.706621 142.276188 L 9.320313 138.670646 L 4.909963 139.507647 L 3.976385 139.056954 L 3.107192 137.22199 L 4.105154 136.80349 L 3.171576 132.618486 L 3.912 131.266408 L 5.103117 131.7171 L 5.264078 129.141713 L 6.229848 128.336905 L 6.583964 126.180018 L 11.4772 125.600556 L 11.219661 122.8964 L 11.670354 123.379285 L 13.988202 123.057361 L 14.632049 125.439594 L 13.827241 121.737475 L 19.847208 120.063474 L 19.686246 118.77578 L 20.587632 118.647011 L 20.458862 117.906587 L 16.917705 118.807972 L 16.692359 117.327125 L 19.943785 116.522316 L 18.978015 111.629081 L 21.070517 111.500311 L 21.263671 113.785968 L 23.163019 113.625006 L 23.45275 118.872357 L 24.482905 119.129896 L 25.416483 117.230548 L 26.35006 117.26274 L 24.611674 114.043506 L 26.221291 113.850352 L 26.285676 113.077736 L 34.559107 111.75785 L 34.398145 109.955079 L 38.03588 109.27904 L 38.100264 108.603001 L 39.355765 108.120116 L 39.581112 105.383767 L 42.768153 104.482382 L 41.705806 100.426147 L 40.450305 100.232993 L 40.611267 94.69591 L 37.681764 94.856872 L 37.681764 92.76437 L 36.619417 92.120523 L 37.392033 90.70406 L 37.231071 88.450597 L 39.323573 87.871135 L 37.520802 71.453042 L 38.293418 71.131118 L 38.229034 70.19754 L 40.192766 70.133156 L 40.160574 68.974231 L 45.47231 68.298192 L 45.858618 69.875617 L 48.240851 69.135193 L 47.436043 65.754998 L 50.236776 65.690613 L 50.848431 67.107076 L 56.804013 63.759073 L 58.252669 62.76111 L 57.834168 59.574068 L 61.02121 58.962414 L 61.343133 56.097296 L 57.415668 56.741143 L 57.158129 55.453449 L 55.999205 55.614411 L 52.586817 52.2986 L 50.268968 52.523946 L 47.983312 51.686945 L 47.210696 49.143751 L 46.116157 49.594443 L 45.633272 48.886212 L 45.407925 44.282707 L 46.824388 43.992976 L 47.983312 45.087516 L 50.687469 44.701208 L 52.554624 42.093628 L 53.198471 42.866244 L 55.130012 42.80186 L 55.612897 44.926554 L 56.321128 45.087516 L 58.284861 44.153938 L 59.025285 44.765592 L 60.634902 44.508054 L 60.538325 43.864207 L 61.697249 43.606668 L 62.180134 46.697133 L 64.530175 46.954672 L 64.530175 43.735438 L 65.592522 39.679203 L 66.365138 39.292895 Z M 67.685024 32.75785 " stroke="#ffffff" stroke-width="1.19" stroke-opacity="1" stroke-miterlimit="4"/></g><path fill="#ff5757" d="M 11 16.695312 L 10.667969 16.695312 L 10.667969 15.667969 L 11.011719 15.667969 C 11.113281 15.667969 11.199219 15.6875 11.269531 15.730469 C 11.34375 15.769531 11.398438 15.828125 11.4375 15.90625 C 11.476562 15.980469 11.496094 16.074219 11.496094 16.179688 C 11.496094 16.289062 11.476562 16.378906 11.4375 16.457031 C 11.398438 16.535156 11.339844 16.59375 11.269531 16.636719 C 11.195312 16.675781 11.105469 16.695312 11 16.695312 Z M 10.824219 16.5625 L 10.992188 16.5625 C 11.070312 16.5625 11.136719 16.546875 11.1875 16.515625 C 11.238281 16.488281 11.277344 16.445312 11.304688 16.386719 C 11.328125 16.332031 11.34375 16.261719 11.34375 16.179688 C 11.34375 16.101562 11.328125 16.03125 11.304688 15.976562 C 11.277344 15.917969 11.242188 15.875 11.191406 15.847656 C 11.140625 15.816406 11.078125 15.804688 11 15.804688 L 10.824219 15.804688 Z M 11.828125 16.238281 L 11.828125 16.695312 L 11.675781 16.695312 L 11.675781 15.925781 L 11.820312 15.925781 L 11.820312 16.050781 L 11.832031 16.050781 C 11.847656 16.007812 11.875 15.976562 11.914062 15.953125 C 11.953125 15.925781 12 15.914062 12.058594 15.914062 C 12.109375 15.914062 12.15625 15.925781 12.195312 15.949219 C 12.234375 15.96875 12.265625 16.003906 12.289062 16.046875 C 12.308594 16.089844 12.320312 16.140625 12.320312 16.207031 L 12.320312 16.695312 L 12.171875 16.695312 L 12.171875 16.222656 C 12.171875 16.167969 12.15625 16.125 12.128906 16.09375 C 12.097656 16.0625 12.058594 16.046875 12.007812 16.046875 C 11.972656 16.046875 11.941406 16.050781 11.914062 16.066406 C 11.886719 16.082031 11.867188 16.105469 11.851562 16.132812 C 11.835938 16.164062 11.828125 16.199219 11.828125 16.238281 Z M 12.523438 16.695312 L 12.523438 15.925781 L 12.671875 15.925781 L 12.671875 16.695312 Z M 12.597656 15.804688 C 12.574219 15.804688 12.550781 15.796875 12.53125 15.78125 C 12.511719 15.761719 12.503906 15.742188 12.503906 15.714844 C 12.503906 15.691406 12.511719 15.671875 12.53125 15.652344 C 12.550781 15.636719 12.574219 15.625 12.597656 15.625 C 12.625 15.625 12.648438 15.636719 12.664062 15.652344 C 12.683594 15.671875 12.695312 15.691406 12.695312 15.714844 C 12.695312 15.742188 12.683594 15.761719 12.664062 15.78125 C 12.648438 15.796875 12.625 15.804688 12.597656 15.804688 Z M 12.875 16.988281 L 12.875 15.925781 L 13.023438 15.925781 L 13.023438 16.050781 L 13.035156 16.050781 C 13.042969 16.035156 13.054688 16.015625 13.070312 15.996094 C 13.089844 15.972656 13.113281 15.953125 13.140625 15.9375 C 13.167969 15.921875 13.207031 15.914062 13.257812 15.914062 C 13.320312 15.914062 13.375 15.929688 13.421875 15.960938 C 13.472656 15.992188 13.511719 16.039062 13.539062 16.097656 C 13.566406 16.15625 13.582031 16.230469 13.582031 16.3125 C 13.582031 16.394531 13.566406 16.46875 13.539062 16.527344 C 13.511719 16.585938 13.472656 16.632812 13.425781 16.664062 C 13.375 16.695312 13.320312 16.710938 13.257812 16.710938 C 13.210938 16.710938 13.171875 16.703125 13.144531 16.6875 C 13.113281 16.671875 13.089844 16.65625 13.074219 16.632812 C 13.054688 16.613281 13.042969 16.59375 13.035156 16.578125 L 13.027344 16.578125 L 13.027344 16.988281 Z M 13.023438 16.3125 C 13.023438 16.367188 13.03125 16.414062 13.046875 16.453125 C 13.0625 16.496094 13.085938 16.527344 13.113281 16.550781 C 13.144531 16.574219 13.179688 16.582031 13.222656 16.582031 C 13.269531 16.582031 13.304688 16.570312 13.335938 16.546875 C 13.367188 16.523438 13.390625 16.492188 13.40625 16.449219 C 13.421875 16.410156 13.429688 16.363281 13.429688 16.3125 C 13.429688 16.261719 13.421875 16.214844 13.40625 16.171875 C 13.390625 16.132812 13.367188 16.101562 13.335938 16.078125 C 13.308594 16.054688 13.269531 16.042969 13.222656 16.042969 C 13.179688 16.042969 13.144531 16.054688 13.113281 16.078125 C 13.082031 16.097656 13.0625 16.128906 13.046875 16.171875 C 13.03125 16.210938 13.023438 16.257812 13.023438 16.3125 Z M 13.75 16.695312 L 13.75 15.925781 L 13.894531 15.925781 L 13.894531 16.046875 L 13.902344 16.046875 C 13.917969 16.007812 13.941406 15.972656 13.976562 15.949219 C 14.011719 15.925781 14.054688 15.914062 14.097656 15.914062 C 14.109375 15.914062 14.117188 15.914062 14.132812 15.914062 C 14.144531 15.914062 14.15625 15.914062 14.160156 15.917969 L 14.160156 16.0625 C 14.15625 16.058594 14.144531 16.058594 14.128906 16.054688 C 14.113281 16.054688 14.097656 16.050781 14.082031 16.050781 C 14.046875 16.050781 14.015625 16.058594 13.988281 16.074219 C 13.960938 16.089844 13.9375 16.109375 13.921875 16.136719 C 13.90625 16.164062 13.898438 16.191406 13.898438 16.226562 L 13.898438 16.695312 Z M 14.589844 16.710938 C 14.515625 16.710938 14.453125 16.695312 14.398438 16.664062 C 14.347656 16.628906 14.304688 16.582031 14.273438 16.523438 C 14.246094 16.464844 14.230469 16.394531 14.230469 16.316406 C 14.230469 16.234375 14.246094 16.164062 14.273438 16.105469 C 14.304688 16.042969 14.347656 15.996094 14.398438 15.964844 C 14.453125 15.929688 14.515625 15.914062 14.589844 15.914062 C 14.660156 15.914062 14.726562 15.929688 14.777344 15.964844 C 14.832031 15.996094 14.875 16.042969 14.90625 16.105469 C 14.933594 16.164062 14.949219 16.234375 14.949219 16.316406 C 14.949219 16.394531 14.933594 16.464844 14.90625 16.523438 C 14.875 16.582031 14.832031 16.628906 14.777344 16.664062 C 14.726562 16.695312 14.660156 16.710938 14.589844 16.710938 Z M 14.589844 16.585938 C 14.636719 16.585938 14.675781 16.574219 14.707031 16.550781 C 14.738281 16.523438 14.761719 16.492188 14.773438 16.449219 C 14.789062 16.410156 14.796875 16.363281 14.796875 16.3125 C 14.796875 16.265625 14.789062 16.21875 14.773438 16.179688 C 14.761719 16.136719 14.738281 16.101562 14.707031 16.078125 C 14.675781 16.054688 14.636719 16.039062 14.589844 16.039062 C 14.542969 16.039062 14.503906 16.054688 14.472656 16.078125 C 14.441406 16.101562 14.417969 16.136719 14.402344 16.179688 C 14.390625 16.21875 14.382812 16.265625 14.382812 16.3125 C 14.382812 16.363281 14.390625 16.410156 14.402344 16.449219 C 14.417969 16.492188 14.441406 16.523438 14.472656 16.550781 C 14.503906 16.574219 14.542969 16.585938 14.589844 16.585938 Z M 14.589844 16.585938 " fill-opacity="1" fill-rule="nonzero"/><g mask="url(#d5c8f23ed7)"><g transform="matrix(1, 0, 0, 1, 7, 17)"><g clip-path="url(#6171ef6303)"><g clip-path="url(#32f0feb088)"><path fill="#ff5757" d="M 0.953125 3.214844 L 0.269531 3.214844 L 0.269531 1.097656 L 0.976562 1.097656 C 1.183594 1.097656 1.359375 1.140625 1.511719 1.226562 C 1.660156 1.308594 1.773438 1.429688 1.851562 1.589844 C 1.933594 1.746094 1.972656 1.933594 1.972656 2.152344 C 1.972656 2.375 1.933594 2.5625 1.851562 2.722656 C 1.769531 2.882812 1.65625 3.003906 1.503906 3.089844 C 1.351562 3.171875 1.167969 3.214844 0.953125 3.214844 Z M 0.585938 2.9375 L 0.9375 2.9375 C 1.097656 2.9375 1.230469 2.90625 1.339844 2.847656 C 1.445312 2.785156 1.523438 2.695312 1.578125 2.578125 C 1.632812 2.464844 1.65625 2.320312 1.65625 2.152344 C 1.65625 1.988281 1.632812 1.847656 1.578125 1.730469 C 1.527344 1.613281 1.449219 1.527344 1.34375 1.46875 C 1.238281 1.40625 1.109375 1.378906 0.957031 1.378906 L 0.585938 1.378906 Z M 3.992188 1.097656 L 3.992188 3.214844 L 3.699219 3.214844 L 2.621094 1.664062 L 2.601562 1.664062 L 2.601562 3.214844 L 2.28125 3.214844 L 2.28125 1.097656 L 2.578125 1.097656 L 3.65625 2.652344 L 3.675781 2.652344 L 3.675781 1.097656 Z M 4.691406 1.097656 L 4.691406 3.214844 L 4.371094 3.214844 L 4.371094 1.097656 Z M 5.066406 3.214844 L 5.066406 1.097656 L 5.824219 1.097656 C 5.988281 1.097656 6.125 1.128906 6.230469 1.1875 C 6.339844 1.246094 6.421875 1.328125 6.476562 1.433594 C 6.527344 1.539062 6.554688 1.652344 6.554688 1.785156 C 6.554688 1.914062 6.527344 2.03125 6.472656 2.136719 C 6.421875 2.238281 6.339844 2.320312 6.230469 2.382812 C 6.121094 2.441406 5.984375 2.472656 5.820312 2.472656 L 5.300781 2.472656 L 5.300781 2.199219 L 5.792969 2.199219 C 5.898438 2.199219 5.980469 2.183594 6.046875 2.148438 C 6.109375 2.109375 6.160156 2.058594 6.1875 1.996094 C 6.21875 1.933594 6.234375 1.863281 6.234375 1.785156 C 6.234375 1.703125 6.21875 1.632812 6.1875 1.570312 C 6.160156 1.507812 6.109375 1.460938 6.046875 1.425781 C 5.980469 1.390625 5.894531 1.371094 5.789062 1.371094 L 5.386719 1.371094 L 5.386719 3.214844 Z M 6.84375 3.214844 L 6.84375 1.097656 L 7.597656 1.097656 C 7.761719 1.097656 7.898438 1.125 8.007812 1.183594 C 8.117188 1.238281 8.195312 1.316406 8.25 1.417969 C 8.304688 1.515625 8.332031 1.632812 8.332031 1.761719 C 8.332031 1.890625 8.304688 2.003906 8.25 2.105469 C 8.195312 2.203125 8.113281 2.277344 8.003906 2.332031 C 7.898438 2.386719 7.761719 2.414062 7.597656 2.414062 L 7.023438 2.414062 L 7.023438 2.140625 L 7.566406 2.140625 C 7.671875 2.140625 7.753906 2.125 7.820312 2.09375 C 7.886719 2.066406 7.933594 2.023438 7.964844 1.964844 C 7.996094 1.910156 8.011719 1.839844 8.011719 1.761719 C 8.011719 1.683594 7.996094 1.613281 7.964844 1.554688 C 7.933594 1.496094 7.886719 1.449219 7.820312 1.417969 C 7.753906 1.386719 7.667969 1.371094 7.5625 1.371094 L 7.164062 1.371094 L 7.164062 3.214844 Z M 7.890625 2.261719 L 8.410156 3.214844 L 8.046875 3.214844 L 7.535156 2.261719 Z M 10.472656 2.15625 C 10.472656 2.382812 10.429688 2.578125 10.347656 2.742188 C 10.265625 2.902344 10.152344 3.027344 10.007812 3.113281 C 9.863281 3.203125 9.703125 3.246094 9.519531 3.246094 C 9.335938 3.246094 9.171875 3.203125 9.027344 3.113281 C 8.882812 3.027344 8.773438 2.902344 8.6875 2.738281 C 8.605469 2.578125 8.566406 2.382812 8.566406 2.15625 C 8.566406 1.929688 8.605469 1.738281 8.6875 1.574219 C 8.773438 1.410156 8.882812 1.289062 9.027344 1.199219 C 9.171875 1.113281 9.335938 1.070312 9.519531 1.070312 C 9.703125 1.070312 9.863281 1.113281 10.007812 1.199219 C 10.152344 1.289062 10.265625 1.410156 10.347656 1.574219 C 10.429688 1.738281 10.472656 1.929688 10.472656 2.15625 Z M 10.15625 2.15625 C 10.15625 1.984375 10.128906 1.839844 10.074219 1.722656 C 10.015625 1.601562 9.941406 1.511719 9.84375 1.453125 C 9.75 1.390625 9.640625 1.359375 9.519531 1.359375 C 9.398438 1.359375 9.289062 1.390625 9.191406 1.453125 C 9.097656 1.511719 9.019531 1.601562 8.964844 1.722656 C 8.910156 1.839844 8.882812 1.984375 8.882812 2.15625 C 8.882812 2.328125 8.910156 2.476562 8.964844 2.59375 C 9.019531 2.710938 9.097656 2.800781 9.191406 2.863281 C 9.289062 2.921875 9.398438 2.953125 9.519531 2.953125 C 9.640625 2.953125 9.75 2.921875 9.84375 2.863281 C 9.941406 2.800781 10.015625 2.710938 10.074219 2.59375 C 10.128906 2.476562 10.15625 2.328125 10.15625 2.15625 Z M 10.785156 3.214844 L 10.785156 1.097656 L 11.539062 1.097656 C 11.703125 1.097656 11.839844 1.128906 11.949219 1.1875 C 12.054688 1.246094 12.136719 1.328125 12.191406 1.433594 C 12.246094 1.539062 12.273438 1.652344 12.273438 1.785156 C 12.273438 1.914062 12.246094 2.03125 12.191406 2.136719 C 12.136719 2.238281 12.054688 2.320312 11.945312 2.382812 C 11.839844 2.441406 11.703125 2.472656 11.539062 2.472656 L 11.019531 2.472656 L 11.019531 2.199219 L 11.507812 2.199219 C 11.613281 2.199219 11.699219 2.183594 11.761719 2.148438 C 11.828125 2.109375 11.875 2.058594 11.90625 1.996094 C 11.933594 1.933594 11.949219 1.863281 11.949219 1.785156 C 11.949219 1.703125 11.933594 1.632812 11.90625 1.570312 C 11.875 1.507812 11.828125 1.460938 11.761719 1.425781 C 11.695312 1.390625 11.609375 1.371094 11.503906 1.371094 L 11.101562 1.371094 L 11.101562 3.214844 Z M 12.558594 3.214844 L 12.558594 1.097656 L 13.886719 1.097656 L 13.886719 1.375 L 12.878906 1.375 L 12.878906 2.019531 L 13.816406 2.019531 L 13.816406 2.292969 L 12.878906 2.292969 L 12.878906 2.941406 L 13.898438 2.941406 L 13.898438 3.214844 Z M 14.121094 1.375 L 14.121094 1.097656 L 15.761719 1.097656 L 15.761719 1.375 L 15.101562 1.375 L 15.101562 3.214844 L 14.78125 3.214844 L 14.78125 1.375 Z M 16.035156 3.214844 L 16.035156 1.097656 L 16.789062 1.097656 C 16.957031 1.097656 17.089844 1.125 17.199219 1.183594 C 17.308594 1.238281 17.390625 1.316406 17.445312 1.417969 C 17.496094 1.515625 17.523438 1.632812 17.523438 1.761719 C 17.523438 1.890625 17.496094 2.003906 17.441406 2.105469 C 17.390625 2.203125 17.308594 2.277344 17.199219 2.332031 C 17.089844 2.386719 16.953125 2.414062 16.789062 2.414062 L 16.21875 2.414062 L 16.21875 2.140625 L 16.761719 2.140625 C 16.863281 2.140625 16.949219 2.125 17.011719 2.09375 C 17.078125 2.066406 17.125 2.023438 17.15625 1.964844 C 17.1875 1.910156 17.203125 1.839844 17.203125 1.761719 C 17.203125 1.683594 17.1875 1.613281 17.15625 1.554688 C 17.125 1.496094 17.078125 1.449219 17.011719 1.417969 C 16.949219 1.386719 16.863281 1.371094 16.757812 1.371094 L 16.355469 1.371094 L 16.355469 3.214844 Z M 17.082031 2.261719 L 17.605469 3.214844 L 17.242188 3.214844 L 16.726562 2.261719 Z M 19.664062 2.15625 C 19.664062 2.382812 19.625 2.578125 19.542969 2.742188 C 19.457031 2.902344 19.34375 3.027344 19.199219 3.113281 C 19.058594 3.203125 18.894531 3.246094 18.710938 3.246094 C 18.527344 3.246094 18.363281 3.203125 18.21875 3.113281 C 18.078125 3.027344 17.964844 2.902344 17.882812 2.738281 C 17.796875 2.578125 17.757812 2.382812 17.757812 2.15625 C 17.757812 1.929688 17.796875 1.738281 17.882812 1.574219 C 17.964844 1.410156 18.078125 1.289062 18.21875 1.199219 C 18.363281 1.113281 18.527344 1.070312 18.710938 1.070312 C 18.894531 1.070312 19.058594 1.113281 19.199219 1.199219 C 19.34375 1.289062 19.457031 1.410156 19.542969 1.574219 C 19.625 1.738281 19.664062 1.929688 19.664062 2.15625 Z M 19.347656 2.15625 C 19.347656 1.984375 19.320312 1.839844 19.265625 1.722656 C 19.210938 1.601562 19.132812 1.511719 19.039062 1.453125 C 18.941406 1.390625 18.832031 1.359375 18.710938 1.359375 C 18.589844 1.359375 18.480469 1.390625 18.386719 1.453125 C 18.289062 1.511719 18.214844 1.601562 18.15625 1.722656 C 18.101562 1.839844 18.074219 1.984375 18.074219 2.15625 C 18.074219 2.328125 18.101562 2.476562 18.15625 2.59375 C 18.214844 2.710938 18.289062 2.800781 18.386719 2.863281 C 18.480469 2.921875 18.589844 2.953125 18.710938 2.953125 C 18.832031 2.953125 18.941406 2.921875 19.039062 2.863281 C 19.132812 2.800781 19.210938 2.710938 19.265625 2.59375 C 19.320312 2.476562 19.347656 2.328125 19.347656 2.15625 Z M 20.054688 1.097656 L 20.644531 2.824219 L 20.667969 2.824219 L 21.257812 1.097656 L 21.605469 1.097656 L 20.84375 3.214844 L 20.472656 3.214844 L 19.710938 1.097656 Z M 22.976562 1.65625 C 22.96875 1.554688 22.921875 1.480469 22.839844 1.425781 C 22.761719 1.371094 22.660156 1.34375 22.539062 1.34375 C 22.453125 1.34375 22.378906 1.359375 22.3125 1.386719 C 22.25 1.414062 22.203125 1.449219 22.167969 1.5 C 22.132812 1.546875 22.113281 1.597656 22.113281 1.660156 C 22.113281 1.707031 22.125 1.753906 22.148438 1.789062 C 22.175781 1.824219 22.207031 1.855469 22.242188 1.878906 C 22.28125 1.90625 22.324219 1.925781 22.371094 1.941406 C 22.414062 1.957031 22.457031 1.972656 22.5 1.980469 L 22.707031 2.035156 C 22.773438 2.050781 22.84375 2.074219 22.914062 2.101562 C 22.984375 2.128906 23.050781 2.167969 23.113281 2.214844 C 23.171875 2.261719 23.222656 2.316406 23.257812 2.386719 C 23.296875 2.453125 23.316406 2.535156 23.316406 2.628906 C 23.316406 2.75 23.285156 2.855469 23.222656 2.949219 C 23.160156 3.042969 23.070312 3.117188 22.953125 3.171875 C 22.835938 3.222656 22.695312 3.25 22.53125 3.25 C 22.371094 3.25 22.234375 3.226562 22.121094 3.175781 C 22.003906 3.125 21.914062 3.054688 21.847656 2.960938 C 21.78125 2.867188 21.746094 2.757812 21.738281 2.628906 L 22.058594 2.628906 C 22.066406 2.707031 22.089844 2.769531 22.132812 2.820312 C 22.179688 2.871094 22.234375 2.910156 22.304688 2.933594 C 22.371094 2.957031 22.445312 2.972656 22.527344 2.972656 C 22.621094 2.972656 22.699219 2.957031 22.769531 2.929688 C 22.839844 2.898438 22.898438 2.859375 22.9375 2.808594 C 22.976562 2.757812 23 2.695312 23 2.628906 C 23 2.566406 22.980469 2.511719 22.945312 2.472656 C 22.910156 2.433594 22.863281 2.402344 22.800781 2.375 C 22.742188 2.347656 22.671875 2.324219 22.597656 2.304688 L 22.347656 2.238281 C 22.179688 2.191406 22.042969 2.121094 21.945312 2.03125 C 21.84375 1.941406 21.796875 1.824219 21.796875 1.675781 C 21.796875 1.554688 21.828125 1.449219 21.894531 1.359375 C 21.960938 1.265625 22.050781 1.195312 22.164062 1.144531 C 22.277344 1.09375 22.40625 1.070312 22.546875 1.070312 C 22.691406 1.070312 22.816406 1.09375 22.925781 1.144531 C 23.035156 1.195312 23.125 1.265625 23.1875 1.351562 C 23.25 1.441406 23.285156 1.539062 23.285156 1.65625 Z M 23.609375 3.214844 L 23.609375 1.097656 L 23.929688 1.097656 L 23.929688 2.109375 L 23.957031 2.109375 L 24.84375 1.097656 L 25.246094 1.097656 L 24.390625 2.050781 L 25.25 3.214844 L 24.863281 3.214844 L 24.179688 2.269531 L 23.929688 2.558594 L 23.929688 3.214844 Z M 23.609375 3.214844 " fill-opacity="1" fill-rule="nonzero"/></g></g></g></g></svg>