<svg xmlns="http://www.w3.org/2000/svg" xmlns:xlink="http://www.w3.org/1999/xlink" width="50" zoomAndPan="magnify" viewBox="0 0 37.5 37.499999" height="50" preserveAspectRatio="xMidYMid meet" version="1.0"><defs><filter x="0%" y="0%" width="100%" height="100%" id="f0df55b3a6"><feColorMatrix values="0 0 0 0 1 0 0 0 0 1 0 0 0 0 1 0 0 0 1 0" color-interpolation-filters="sRGB"/></filter><clipPath id="415a0d493d"><path d="M 6.027344 1.203125 L 31 1.203125 L 31 35.992188 L 6.027344 35.992188 Z M 6.027344 1.203125 " clip-rule="nonzero"/></clipPath><mask id="7191ce4f77"><g filter="url(#f0df55b3a6)"><rect x="-3.75" width="45" fill="#000000" y="-3.75" height="44.999999" fill-opacity="0.08"/></g></mask><clipPath id="dc3829d019"><path d="M 1 1 L 16 1 L 16 3.738281 L 1 3.738281 Z M 1 1 " clip-rule="nonzero"/></clipPath><clipPath id="0d858c4b9c"><rect x="0" width="17" y="0" height="4"/></clipPath></defs><g clip-path="url(#415a0d493d)"><path stroke-linecap="round" transform="matrix(0.135496, 0, 0, 0.135496, 5.904904, 1.142742)" fill-opacity="1" fill="#000000" fill-rule="nonzero" stroke-linejoin="round" d="M 96.645887 1.454671 L 97.972037 4.308776 L 99.269357 4.049312 L 101.258582 6.413318 L 98.231501 8.344884 L 98.952235 9.238594 L 98.28916 9.901669 L 99.384675 10.910696 L 104.660445 13.217043 L 108.581235 13.418848 L 109.100163 10.795378 L 111.579487 11.227818 L 110.224508 20.164915 L 109.590262 20.827989 L 112.992125 27.747032 L 109.67675 28.842547 L 109.705579 31.033577 L 107.975819 30.082208 L 106.303717 33.224607 L 108.638894 33.311095 L 108.927187 34.291292 L 111.983098 34.204804 L 113.885834 35.185002 L 115.38496 35.242661 L 116.163352 34.37778 L 120.66073 35.012026 L 121.986879 34.521927 L 121.900391 44.554538 L 124.322056 44.295074 L 125.47523 46.284299 L 128.329335 46.024835 L 128.415823 47.466302 L 126.570745 47.639278 L 125.821182 48.705964 L 126.167134 51.617727 L 124.725667 54.097051 L 126.397769 55.826811 L 128.732946 56.086275 L 129.251874 57.61423 L 127.752748 58.161988 L 128.502311 59.286332 L 128.502311 61.304386 L 126.513086 61.765656 L 126.368939 62.717024 L 124.58152 63.32244 L 125.590547 76.612767 L 128.617628 80.187606 L 127.377966 82.119172 L 127.695089 83.877762 L 126.916697 83.906591 L 128.761775 85.203911 L 128.329335 86.270597 L 130.578023 88.086846 L 132.624907 87.625576 L 133.201494 88.951726 L 136.86282 87.221965 L 137.987164 94.746424 L 139.342144 94.342813 L 141.24488 96.101403 L 137.035796 98.753702 L 137.32409 101.06005 L 136.401551 102.155565 L 136.257404 104.461912 L 139.284485 106.076355 L 145.713428 105.297963 L 148.308069 107.806116 L 148.27924 110.717879 L 149.893683 113.283691 L 149.749536 114.667499 L 148.855827 115.561209 L 149.547731 116.887359 L 151.681102 118.040532 L 155.774869 118.12702 L 155.573063 119.45317 L 164.769624 122.566739 L 163.962402 125.651479 L 165.461528 126.48753 L 165.548016 128.188461 L 164.394842 130.091198 L 166.038115 133.49306 L 180.510445 134.473258 L 180.539274 139.604881 L 181.778936 140.556249 L 182.932109 140.267955 L 184.287089 141.449959 L 182.355523 146.437435 L 182.989768 148.8591 L 174.629259 149.003246 L 168.978708 148.282513 L 168.632756 149.26271 L 165.865139 149.637492 L 165.086746 152.318621 L 165.346211 154.711456 L 162.578594 154.826773 L 162.002007 157.59439 L 163.011034 159.468298 L 162.578594 162.956648 L 161.165956 164.19631 L 161.396591 168.636028 L 158.744291 169.126127 L 158.657803 167.136903 L 153.727985 167.165732 L 153.872132 170.33696 L 151.133345 170.33696 L 151.162174 171.893744 L 150.297294 172.989259 L 139.025021 173.075747 L 138.765557 175.756876 L 131.241098 175.958681 L 131.212269 180.110107 L 128.214017 180.138936 L 127.868065 183.511969 L 126.34011 183.627287 L 126.397769 187.40393 L 127.032014 188.038176 L 126.628404 190.603987 L 127.723919 191.122916 L 127.608601 199.771718 L 126.513086 199.829377 L 126.570745 201.530308 L 124.033763 202.106895 L 121.813903 206.661931 L 121.95805 208.651156 L 130.174413 208.881791 L 129.482508 211.53409 L 129.770802 213.263851 L 129.136556 214.042243 L 126.743721 214.128731 L 126.570745 215.714345 L 122.678784 216.636884 L 123.543664 218.481962 L 122.995906 226.208225 L 121.410293 229.494771 L 117.777795 233.90566 L 115.644424 234.280441 L 113.078613 229.984869 L 110.426313 229.148818 L 108.119966 231.512825 L 105.438837 230.676774 L 103.622588 230.965067 L 98.28916 229.264136 L 90.937678 231.887606 L 84.739369 232.550681 L 79.232964 230.993896 L 72.86168 232.406534 L 71.391383 233.646196 L 71.823823 235.462444 L 69.488647 236.413813 L 58.475838 252.32761 L 55.679392 254.835763 L 55.131634 254.835763 L 57.49564 252.442927 L 57.092029 250.251897 L 54.785682 247.859062 L 51.153185 246.15813 L 47.693664 248.176184 L 45.963903 249.992433 L 43.167457 250.684337 L 38.871885 253.163661 L 35.873633 248.406819 L 40.976427 244.255394 L 41.408867 244.745493 L 44.378289 243.015732 L 40.774622 240.219286 L 43.225116 236.759765 L 41.495355 234.77054 L 40.082717 235.923714 L 33.221334 232.665998 L 35.12407 231.512825 L 34.316849 227.476717 L 32.990699 227.793839 L 30.482546 224.132513 L 29.905959 224.363148 L 29.617666 223.498267 L 28.723956 224.074854 L 28.493322 222.835192 L 27.714929 223.728902 L 27.051855 222.633387 L 26.273462 222.92168 L 23.794139 220.009917 L 26.273462 219.86577 L 25.985169 219.289183 L 31.578061 219.808111 L 28.954591 207.497982 L 30.223082 207.296177 L 30.569034 208.247545 L 36.248415 207.872764 L 36.997978 209.285401 L 40.053888 207.930422 L 39.909741 207.123201 L 42.907993 205.220464 L 41.956625 201.501479 L 44.032337 200.982551 L 45.848586 205.047488 L 48.673861 203.606021 L 48.097275 201.760943 L 50.836062 195.043706 L 51.441478 194.986048 L 51.614454 191.641844 L 47.86664 191.468868 L 48.097275 190.431011 L 47.059418 189.969742 L 45.358487 193.11214 L 40.255693 188.585934 L 39.707936 189.076032 L 35.873633 182.61826 L 34.403337 184.203873 L 32.846552 181.72455 L 31.808696 182.474113 L 30.367229 180.369571 L 26.619414 183.338993 L 21.97789 175.295607 L 17.365195 177.515466 L 16.039046 176.91005 L 15.83724 175.439753 L 17.365195 175.122631 L 17.278707 174.084774 L 14.511091 174.517214 L 14.049821 171.576621 L 16.500315 171.20184 L 16.644462 170.481106 L 18.0571 170.855888 L 19.296761 168.751346 L 13.703869 169.356762 L 12.867818 164.16748 L 11.829962 164.109822 L 10.734447 157.16195 L 4.795602 157.998001 L 4.737943 154.682627 L 5.602824 154.509651 L 6.179411 152.059157 L 5.891117 151.0213 L 4.507309 151.338423 L 4.01721 148.051878 L 2.027985 148.167195 L 1.537886 145.255432 L 4.997407 144.592357 L 4.997407 143.612159 L 8.514587 143.640989 L 7.649707 139.258928 L 4.564967 139.604881 L 3.988381 135.568773 L 5.026237 135.280479 L 3.382964 133.9255 L 4.853261 133.03179 L 3.642428 130.898419 L 4.536138 129.601099 L 4.132527 126.631676 L 5.862288 126.112748 L 5.74697 125.507332 L 7.159608 126.429871 L 9.148833 125.392015 L 8.39927 125.392015 L 9.437126 124.613622 L 10.071372 125.853284 L 11.051569 125.622649 L 13.617381 126.804653 L 14.049821 126.112748 L 15.721923 127.698362 L 16.183192 129.658757 L 17.134561 129.024512 L 18.085929 130.206515 L 20.161642 129.601099 L 20.709399 130.86959 L 23.73648 131.676811 L 24.082432 129.572269 L 25.350923 129.601099 L 26.763561 126.746994 L 25.120289 115.618868 L 26.071657 116.281942 L 26.590585 114.753987 L 27.455465 115.186427 L 27.859076 114.494523 L 29.732983 114.523353 L 27.859076 102.069077 L 25.177947 102.415029 L 24.947313 101.261855 L 21.257157 101.694295 L 20.594082 97.97531 L 20.911205 96.159061 L 21.891402 95.35184 L 21.458962 91.690513 L 22.323842 91.315732 L 21.603109 90.825633 L 22.640965 90.220217 L 23.678821 90.50851 L 23.361699 87.712064 L 22.525648 87.625576 L 22.179696 83.272345 L 23.880627 82.811076 L 23.592333 79.783995 L 27.541953 79.092091 L 27.196001 76.641597 L 25.033801 75.978522 L 24.19775 74.046956 L 20.795887 73.989297 L 20.478764 71.019875 L 18.48954 70.529776 L 16.125534 70.991045 L 15.664264 67.790988 L 14.453432 64.965713 L 13.905674 60.670141 L 14.799384 60.497165 L 15.4048 59.286332 L 13.848016 55.221395 L 13.530893 52.453778 L 12.262402 52.482608 L 12.031767 51.790703 L 14.165138 48.532988 L 16.26968 48.994257 L 16.356168 50.291578 L 17.970612 51.127628 L 21.026522 51.300604 L 21.487791 52.021338 L 22.727453 51.877191 L 23.909456 48.907769 L 31.924013 49.686161 L 36.507879 54.500662 L 37.34393 52.742072 L 35.960121 52.597925 L 35.873633 51.761874 L 33.942067 50.17626 L 34.835777 48.792452 L 35.556511 48.85011 L 35.931292 47.206838 L 39.07369 47.639278 L 39.477301 45.505907 L 40.39984 45.678883 L 41.26472 43.631999 L 44.753071 44.525709 L 44.435948 45.563565 L 47.953128 47.610449 L 48.039616 40.604918 L 49.538742 39.567062 L 50.518939 37.520179 L 53.315386 37.577837 L 53.488362 35.848077 L 57.697446 35.992224 L 58.043398 34.060658 L 56.457784 33.685876 L 57.207347 32.071433 L 55.419928 30.485819 L 56.255978 29.505622 L 56.890224 29.909232 L 57.351493 29.188499 L 56.573101 28.727229 L 58.533497 27.83352 L 58.82179 26.882151 L 59.974964 28.179472 L 60.897503 28.064154 L 61.128137 24.575804 L 62.194823 24.691121 L 61.848871 22.009993 L 63.290338 21.750528 L 64.126389 20.655013 L 66.432736 20.914477 L 66.548054 21.548723 L 67.58591 20.827989 L 68.623766 21.202771 L 68.393132 20.655013 L 70.526503 19.703645 L 70.122892 17.397298 L 69.142695 16.4171 L 69.748111 15.840513 L 73.265291 15.235097 L 79.751893 11.775576 L 77.877985 9.613375 L 70.180551 6.730441 L 73.380608 3.588043 L 74.331976 2.521357 L 78.368084 1.94477 L 91.28363 5.288974 L 93.388172 4.827704 L 93.44583 5.375462 L 94.800809 5.490779 L 95.290908 2.953797 Z M 96.645887 1.454671 " stroke="#ffffff" stroke-width="1.19" stroke-opacity="1" stroke-miterlimit="4"/></g><path fill="#ff5757" d="M 15.4375 15.703125 L 15.0625 15.703125 L 15.0625 14.554688 L 15.449219 14.554688 C 15.558594 14.554688 15.65625 14.578125 15.738281 14.621094 C 15.820312 14.667969 15.878906 14.734375 15.925781 14.820312 C 15.96875 14.90625 15.988281 15.007812 15.988281 15.125 C 15.988281 15.246094 15.96875 15.347656 15.921875 15.433594 C 15.878906 15.519531 15.816406 15.585938 15.734375 15.632812 C 15.652344 15.679688 15.554688 15.703125 15.4375 15.703125 Z M 15.238281 15.550781 L 15.425781 15.550781 C 15.515625 15.550781 15.585938 15.535156 15.644531 15.503906 C 15.703125 15.46875 15.746094 15.421875 15.773438 15.359375 C 15.804688 15.292969 15.816406 15.21875 15.816406 15.125 C 15.816406 15.035156 15.804688 14.960938 15.773438 14.898438 C 15.746094 14.835938 15.703125 14.785156 15.648438 14.753906 C 15.589844 14.722656 15.519531 14.703125 15.4375 14.703125 L 15.238281 14.703125 Z M 16.554688 15.71875 C 16.472656 15.71875 16.402344 15.703125 16.34375 15.664062 C 16.28125 15.628906 16.234375 15.574219 16.203125 15.507812 C 16.167969 15.441406 16.152344 15.363281 16.152344 15.277344 C 16.152344 15.1875 16.167969 15.109375 16.203125 15.042969 C 16.234375 14.972656 16.28125 14.921875 16.34375 14.886719 C 16.402344 14.847656 16.472656 14.828125 16.554688 14.828125 C 16.636719 14.828125 16.707031 14.847656 16.765625 14.886719 C 16.828125 14.921875 16.871094 14.972656 16.90625 15.042969 C 16.941406 15.109375 16.957031 15.1875 16.957031 15.277344 C 16.957031 15.363281 16.941406 15.441406 16.90625 15.507812 C 16.871094 15.574219 16.828125 15.628906 16.765625 15.664062 C 16.707031 15.703125 16.636719 15.71875 16.554688 15.71875 Z M 16.554688 15.578125 C 16.605469 15.578125 16.652344 15.566406 16.683594 15.539062 C 16.71875 15.511719 16.746094 15.472656 16.761719 15.425781 C 16.777344 15.382812 16.785156 15.332031 16.785156 15.273438 C 16.785156 15.21875 16.777344 15.167969 16.761719 15.125 C 16.746094 15.078125 16.71875 15.039062 16.683594 15.011719 C 16.652344 14.984375 16.605469 14.96875 16.554688 14.96875 C 16.503906 14.96875 16.457031 14.984375 16.421875 15.011719 C 16.390625 15.039062 16.363281 15.078125 16.347656 15.125 C 16.332031 15.167969 16.320312 15.21875 16.320312 15.273438 C 16.320312 15.332031 16.332031 15.382812 16.347656 15.425781 C 16.363281 15.472656 16.390625 15.511719 16.421875 15.539062 C 16.457031 15.566406 16.503906 15.578125 16.554688 15.578125 Z M 17.3125 15.191406 L 17.3125 15.703125 L 17.144531 15.703125 L 17.144531 14.839844 L 17.304688 14.839844 L 17.304688 14.980469 L 17.316406 14.980469 C 17.335938 14.933594 17.367188 14.898438 17.410156 14.871094 C 17.453125 14.84375 17.503906 14.828125 17.570312 14.828125 C 17.628906 14.828125 17.679688 14.84375 17.722656 14.867188 C 17.769531 14.890625 17.800781 14.925781 17.828125 14.976562 C 17.851562 15.023438 17.863281 15.082031 17.863281 15.15625 L 17.863281 15.703125 L 17.695312 15.703125 L 17.695312 15.175781 C 17.695312 15.113281 17.679688 15.0625 17.648438 15.027344 C 17.613281 14.992188 17.570312 14.976562 17.511719 14.976562 C 17.472656 14.976562 17.4375 14.984375 17.410156 15 C 17.378906 15.015625 17.355469 15.042969 17.335938 15.074219 C 17.320312 15.105469 17.3125 15.144531 17.3125 15.191406 Z M 18.460938 15.71875 C 18.375 15.71875 18.300781 15.703125 18.242188 15.664062 C 18.179688 15.628906 18.132812 15.578125 18.097656 15.511719 C 18.066406 15.445312 18.050781 15.367188 18.050781 15.277344 C 18.050781 15.1875 18.066406 15.113281 18.097656 15.042969 C 18.132812 14.976562 18.179688 14.925781 18.238281 14.886719 C 18.296875 14.847656 18.367188 14.828125 18.449219 14.828125 C 18.496094 14.828125 18.542969 14.835938 18.589844 14.855469 C 18.636719 14.871094 18.675781 14.894531 18.710938 14.929688 C 18.75 14.964844 18.777344 15.007812 18.796875 15.0625 C 18.820312 15.117188 18.828125 15.183594 18.828125 15.261719 L 18.828125 15.324219 L 18.144531 15.324219 L 18.144531 15.195312 L 18.664062 15.195312 C 18.664062 15.152344 18.65625 15.113281 18.636719 15.078125 C 18.621094 15.042969 18.59375 15.019531 18.5625 14.996094 C 18.53125 14.976562 18.492188 14.96875 18.449219 14.96875 C 18.402344 14.96875 18.359375 14.980469 18.324219 15.003906 C 18.289062 15.027344 18.265625 15.054688 18.246094 15.09375 C 18.226562 15.128906 18.21875 15.167969 18.21875 15.210938 L 18.21875 15.3125 C 18.21875 15.367188 18.226562 15.417969 18.246094 15.457031 C 18.269531 15.5 18.296875 15.527344 18.332031 15.550781 C 18.371094 15.570312 18.414062 15.582031 18.460938 15.582031 C 18.492188 15.582031 18.523438 15.578125 18.546875 15.566406 C 18.574219 15.558594 18.597656 15.546875 18.617188 15.527344 C 18.636719 15.507812 18.648438 15.484375 18.660156 15.457031 L 18.820312 15.488281 C 18.804688 15.535156 18.785156 15.574219 18.75 15.609375 C 18.71875 15.644531 18.675781 15.671875 18.628906 15.691406 C 18.578125 15.710938 18.523438 15.71875 18.460938 15.71875 Z M 19.417969 14.839844 L 19.417969 14.976562 L 18.949219 14.976562 L 18.949219 14.839844 Z M 19.074219 14.632812 L 19.242188 14.632812 L 19.242188 15.449219 C 19.242188 15.480469 19.246094 15.507812 19.257812 15.523438 C 19.265625 15.539062 19.277344 15.550781 19.292969 15.554688 C 19.308594 15.5625 19.328125 15.566406 19.34375 15.566406 C 19.359375 15.566406 19.371094 15.5625 19.378906 15.5625 C 19.390625 15.558594 19.398438 15.558594 19.402344 15.558594 L 19.433594 15.695312 C 19.425781 15.699219 19.410156 15.703125 19.394531 15.707031 C 19.375 15.710938 19.351562 15.714844 19.324219 15.714844 C 19.28125 15.714844 19.238281 15.707031 19.203125 15.691406 C 19.164062 15.675781 19.132812 15.648438 19.109375 15.613281 C 19.085938 15.578125 19.074219 15.535156 19.074219 15.484375 Z M 20.238281 15.050781 L 20.085938 15.078125 C 20.078125 15.058594 20.066406 15.039062 20.054688 15.023438 C 20.039062 15.003906 20.023438 14.992188 20 14.980469 C 19.976562 14.96875 19.945312 14.960938 19.910156 14.960938 C 19.863281 14.960938 19.824219 14.972656 19.792969 14.996094 C 19.761719 15.015625 19.746094 15.042969 19.746094 15.074219 C 19.746094 15.105469 19.757812 15.128906 19.777344 15.144531 C 19.796875 15.164062 19.832031 15.175781 19.878906 15.1875 L 20.015625 15.21875 C 20.097656 15.238281 20.15625 15.265625 20.195312 15.304688 C 20.234375 15.34375 20.253906 15.394531 20.253906 15.453125 C 20.253906 15.503906 20.238281 15.550781 20.207031 15.59375 C 20.179688 15.632812 20.136719 15.664062 20.085938 15.6875 C 20.03125 15.707031 19.96875 15.71875 19.902344 15.71875 C 19.804688 15.71875 19.726562 15.699219 19.664062 15.660156 C 19.601562 15.617188 19.566406 15.558594 19.550781 15.480469 L 19.714844 15.457031 C 19.722656 15.5 19.746094 15.53125 19.777344 15.554688 C 19.808594 15.574219 19.847656 15.585938 19.898438 15.585938 C 19.953125 15.585938 20 15.574219 20.03125 15.550781 C 20.066406 15.527344 20.082031 15.5 20.082031 15.464844 C 20.082031 15.4375 20.070312 15.417969 20.050781 15.398438 C 20.03125 15.378906 20 15.367188 19.960938 15.355469 L 19.8125 15.324219 C 19.734375 15.304688 19.671875 15.277344 19.632812 15.238281 C 19.597656 15.195312 19.578125 15.144531 19.578125 15.085938 C 19.578125 15.035156 19.589844 14.988281 19.621094 14.953125 C 19.648438 14.914062 19.6875 14.882812 19.738281 14.863281 C 19.789062 14.839844 19.84375 14.828125 19.910156 14.828125 C 20.003906 14.828125 20.078125 14.851562 20.128906 14.890625 C 20.183594 14.929688 20.21875 14.984375 20.238281 15.050781 Z M 20.59375 15.410156 L 20.589844 15.207031 L 20.621094 15.207031 L 20.964844 14.839844 L 21.164062 14.839844 L 20.773438 15.257812 L 20.746094 15.257812 Z M 20.4375 15.703125 L 20.4375 14.554688 L 20.605469 14.554688 L 20.605469 15.703125 Z M 20.980469 15.703125 L 20.671875 15.292969 L 20.789062 15.175781 L 21.1875 15.703125 Z M 20.980469 15.703125 " fill-opacity="1" fill-rule="nonzero"/><g mask="url(#7191ce4f77)"><g transform="matrix(1, 0, 0, 1, 9, 19)"><g clip-path="url(#0d858c4b9c)"><g clip-path="url(#dc3829d019)"><path fill="#ff5757" d="M 1.949219 3.613281 L 1.183594 3.613281 L 1.183594 1.25 L 1.972656 1.25 C 2.207031 1.25 2.40625 1.296875 2.570312 1.390625 C 2.738281 1.484375 2.863281 1.621094 2.953125 1.796875 C 3.042969 1.972656 3.085938 2.183594 3.085938 2.425781 C 3.085938 2.671875 3.042969 2.886719 2.953125 3.0625 C 2.863281 3.238281 2.734375 3.375 2.5625 3.472656 C 2.394531 3.566406 2.191406 3.613281 1.949219 3.613281 Z M 1.539062 3.300781 L 1.929688 3.300781 C 2.109375 3.300781 2.261719 3.269531 2.378906 3.199219 C 2.5 3.132812 2.589844 3.03125 2.648438 2.902344 C 2.707031 2.773438 2.734375 2.613281 2.734375 2.425781 C 2.734375 2.242188 2.707031 2.085938 2.648438 1.953125 C 2.589844 1.824219 2.5 1.726562 2.386719 1.660156 C 2.269531 1.59375 2.125 1.558594 1.953125 1.558594 L 1.539062 1.558594 Z M 5.488281 2.429688 C 5.488281 2.683594 5.441406 2.902344 5.347656 3.082031 C 5.257812 3.261719 5.128906 3.402344 4.96875 3.5 C 4.808594 3.597656 4.628906 3.644531 4.421875 3.644531 C 4.21875 3.644531 4.035156 3.597656 3.875 3.5 C 3.714844 3.402344 3.589844 3.261719 3.496094 3.082031 C 3.402344 2.898438 3.355469 2.683594 3.355469 2.429688 C 3.355469 2.179688 3.402344 1.960938 3.496094 1.78125 C 3.589844 1.597656 3.714844 1.460938 3.875 1.363281 C 4.035156 1.265625 4.21875 1.214844 4.421875 1.214844 C 4.628906 1.214844 4.808594 1.265625 4.96875 1.363281 C 5.128906 1.460938 5.257812 1.597656 5.347656 1.78125 C 5.441406 1.960938 5.488281 2.179688 5.488281 2.429688 Z M 5.132812 2.429688 C 5.132812 2.238281 5.101562 2.078125 5.039062 1.945312 C 4.980469 1.8125 4.894531 1.710938 4.785156 1.644531 C 4.679688 1.574219 4.558594 1.542969 4.421875 1.542969 C 4.285156 1.542969 4.164062 1.574219 4.058594 1.644531 C 3.949219 1.710938 3.867188 1.8125 3.804688 1.945312 C 3.742188 2.078125 3.710938 2.238281 3.710938 2.429688 C 3.710938 2.625 3.742188 2.785156 3.804688 2.917969 C 3.867188 3.050781 3.949219 3.148438 4.058594 3.21875 C 4.164062 3.285156 4.285156 3.320312 4.421875 3.320312 C 4.558594 3.320312 4.679688 3.285156 4.785156 3.21875 C 4.894531 3.148438 4.980469 3.050781 5.039062 2.917969 C 5.101562 2.785156 5.132812 2.625 5.132812 2.429688 Z M 7.742188 1.25 L 7.742188 3.613281 L 7.414062 3.613281 L 6.214844 1.878906 L 6.191406 1.878906 L 6.191406 3.613281 L 5.835938 3.613281 L 5.835938 1.25 L 6.164062 1.25 L 7.367188 2.984375 L 7.390625 2.984375 L 7.390625 1.25 Z M 8.167969 3.613281 L 8.167969 1.25 L 9.648438 1.25 L 9.648438 1.554688 L 8.523438 1.554688 L 8.523438 2.277344 L 9.574219 2.277344 L 9.574219 2.582031 L 8.523438 2.582031 L 8.523438 3.304688 L 9.664062 3.304688 L 9.664062 3.613281 Z M 9.914062 1.554688 L 9.914062 1.25 L 11.742188 1.25 L 11.742188 1.554688 L 11.003906 1.554688 L 11.003906 3.613281 L 10.648438 3.613281 L 10.648438 1.554688 Z M 13.339844 1.871094 C 13.328125 1.761719 13.277344 1.675781 13.1875 1.617188 C 13.097656 1.554688 12.984375 1.523438 12.851562 1.523438 C 12.753906 1.523438 12.667969 1.539062 12.597656 1.570312 C 12.527344 1.601562 12.472656 1.640625 12.433594 1.695312 C 12.394531 1.746094 12.375 1.808594 12.375 1.875 C 12.375 1.929688 12.386719 1.980469 12.414062 2.019531 C 12.441406 2.058594 12.476562 2.09375 12.519531 2.121094 C 12.5625 2.148438 12.609375 2.171875 12.660156 2.191406 C 12.710938 2.207031 12.757812 2.222656 12.804688 2.234375 L 13.035156 2.292969 C 13.109375 2.3125 13.1875 2.339844 13.269531 2.371094 C 13.347656 2.402344 13.421875 2.441406 13.488281 2.496094 C 13.554688 2.546875 13.609375 2.609375 13.652344 2.6875 C 13.695312 2.761719 13.714844 2.851562 13.714844 2.960938 C 13.714844 3.09375 13.679688 3.210938 13.613281 3.316406 C 13.542969 3.421875 13.445312 3.503906 13.3125 3.5625 C 13.183594 3.621094 13.023438 3.652344 12.839844 3.652344 C 12.664062 3.652344 12.511719 3.625 12.378906 3.566406 C 12.25 3.511719 12.148438 3.433594 12.078125 3.328125 C 12.003906 3.226562 11.964844 3.101562 11.957031 2.960938 L 12.3125 2.960938 C 12.320312 3.046875 12.347656 3.117188 12.398438 3.171875 C 12.445312 3.230469 12.507812 3.269531 12.585938 3.300781 C 12.664062 3.324219 12.746094 3.339844 12.839844 3.339844 C 12.9375 3.339844 13.027344 3.324219 13.105469 3.292969 C 13.1875 3.261719 13.25 3.214844 13.292969 3.160156 C 13.339844 3.101562 13.363281 3.03125 13.363281 2.957031 C 13.363281 2.886719 13.34375 2.828125 13.300781 2.785156 C 13.261719 2.738281 13.210938 2.703125 13.140625 2.671875 C 13.074219 2.644531 13 2.617188 12.914062 2.597656 L 12.636719 2.519531 C 12.445312 2.46875 12.296875 2.390625 12.183594 2.292969 C 12.074219 2.191406 12.019531 2.058594 12.019531 1.894531 C 12.019531 1.757812 12.054688 1.640625 12.128906 1.539062 C 12.203125 1.4375 12.304688 1.359375 12.429688 1.300781 C 12.558594 1.246094 12.699219 1.214844 12.859375 1.214844 C 13.019531 1.214844 13.160156 1.242188 13.28125 1.300781 C 13.40625 1.355469 13.5 1.433594 13.574219 1.53125 C 13.644531 1.628906 13.679688 1.742188 13.683594 1.871094 Z M 14.042969 3.613281 L 14.042969 1.25 L 14.402344 1.25 L 14.402344 2.378906 L 14.429688 2.378906 L 15.421875 1.25 L 15.871094 1.25 L 14.917969 2.3125 L 15.875 3.613281 L 15.445312 3.613281 L 14.679688 2.558594 L 14.402344 2.878906 L 14.402344 3.613281 Z M 14.042969 3.613281 " fill-opacity="1" fill-rule="nonzero"/></g></g></g></g></svg>