<svg xmlns="http://www.w3.org/2000/svg" xmlns:xlink="http://www.w3.org/1999/xlink" width="50" zoomAndPan="magnify" viewBox="0 0 37.5 37.499999" height="50" preserveAspectRatio="xMidYMid meet" version="1.0"><defs><filter x="0%" y="0%" width="100%" height="100%" id="e68e55c4c6"><feColorMatrix values="0 0 0 0 1 0 0 0 0 1 0 0 0 0 1 0 0 0 1 0" color-interpolation-filters="sRGB"/></filter><clipPath id="71054af4ba"><path d="M 2.402344 2.824219 L 34.96875 2.824219 L 34.96875 33.910156 L 2.402344 33.910156 Z M 2.402344 2.824219 " clip-rule="nonzero"/></clipPath><mask id="acb75379ae"><g filter="url(#e68e55c4c6)"><rect x="-3.75" width="45" fill="#000000" y="-3.75" height="44.999999" fill-opacity="0.08"/></g></mask><clipPath id="9405185a3f"><path d="M 0.394531 0.394531 L 25 0.394531 L 25 3.238281 L 0.394531 3.238281 Z M 0.394531 0.394531 " clip-rule="nonzero"/></clipPath><clipPath id="e2513f226b"><rect x="0" width="26" y="0" height="4"/></clipPath></defs><g clip-path="url(#71054af4ba)"><path stroke-linecap="round" transform="matrix(0.143748, 0, 0, 0.143748, 2.428188, 2.766565)" fill-opacity="1" fill="#000000" fill-rule="nonzero" stroke-linejoin="round" d="M 0.635435 72.032344 L 6.695289 70.537761 L 13.407323 67.57577 L 22.537865 66.597498 L 33.570602 62.928977 L 38.108698 63.255068 L 43.00006 65.184438 L 53.000176 67.494247 L 56.342607 67.385551 L 59.114378 66.026839 L 59.712211 64.260514 L 59.168727 62.222447 L 57.511099 62.494189 L 58.326325 61.461568 L 56.56 60.619167 L 57.348053 60.265902 L 57.26653 59.178933 L 57.701318 59.776766 L 58.271977 58.77132 L 57.402402 55.211496 L 56.261084 55.265844 L 55.581728 51.461452 L 57.918712 50.782096 L 57.402402 47.222272 L 59.141552 47.032052 L 59.032855 44.233107 L 59.630688 43.988539 L 59.195901 41.162419 L 54.63063 41.977646 L 53.652358 35.673224 L 55.282812 34.477558 L 55.011069 32.194923 L 53.027351 32.276446 L 52.320821 29.395977 L 49.195784 30.836211 L 48.108815 25.42854 L 51.668639 24.939403 L 51.505594 23.580692 L 53.271919 22.92851 L 53.733881 24.097002 L 56.288258 23.526344 L 55.52738 18.145846 L 52.891479 18.336066 L 52.266472 15.02081 L 51.451245 14.966461 L 50.962109 11.189243 L 53.489313 10.645759 L 52.076253 2.330444 L 53.652358 2.276096 L 53.815403 2.873929 L 56.288258 2.547838 L 56.261084 6.814192 L 61.233968 6.189185 L 61.614407 6.895715 L 64.902489 6.053314 L 66.532943 3.553285 L 69.576457 2.439141 L 74.603689 2.575012 L 78.109165 1.161952 L 80.038535 2.085876 L 83.245094 1.026081 L 86.451653 3.335891 L 99.468109 6.406579 L 99.767026 8.308775 L 112.810656 1.623914 L 115.555253 6.243533 L 120.120524 5.890268 L 120.718357 9.287047 L 131.533701 6.488101 L 132.783715 7.357677 L 132.865238 8.200078 L 131.886966 8.797911 L 131.995663 10.156622 L 132.566321 9.694661 L 133.082632 10.183797 L 132.240231 11.460985 L 137.756599 10.183797 L 138.680523 13.879492 L 136.425062 14.749067 L 136.914198 16.107779 L 138.490303 16.488218 L 139.060962 19.450209 L 137.593554 20.238262 L 137.675077 20.781746 L 139.224008 20.238262 L 140.01206 23.988305 L 141.751211 22.846988 L 142.539264 24.01548 L 141.778385 24.694835 L 143.164271 26.868774 L 142.267521 30.917734 L 139.033788 30.917734 L 139.30553 32.847104 L 144.984944 32.81993 L 147.811064 31.59709 L 147.26758 33.798202 L 148.028458 34.477558 L 152.974168 34.504732 L 153.816569 36.135186 L 157.48509 35.591702 L 157.430742 33.52646 L 160.909043 33.798202 L 161.126437 34.722126 L 166.941722 35.292785 L 171.371122 34.7493 L 171.534167 33.852551 L 175.882044 32.765582 L 177.240755 32.439491 L 177.539672 33.472112 L 176.969013 35.917792 L 176.099438 36.108012 L 176.153786 39.423268 L 182.077768 38.580867 L 183.191912 45.53747 L 184.224532 45.591818 L 185.066933 50.754922 L 190.637651 50.184263 L 189.41481 52.276679 L 188.00175 51.89624 L 187.838705 52.602769 L 185.420198 52.983209 L 185.88216 55.9452 L 188.653932 55.483238 L 188.70828 56.515859 L 187.213698 56.841949 L 187.403917 58.336532 L 188.70828 58.934365 L 193.327899 56.706078 L 198.001867 64.776824 L 201.724736 61.787659 L 203.192145 63.880075 L 204.224765 63.146371 L 205.773697 65.619226 L 207.213931 64.04312 L 211.072671 70.510587 L 211.616156 69.994277 L 216.724911 74.532373 L 218.409713 71.407337 L 219.442334 71.869298 L 219.22494 72.901919 L 222.974984 73.064965 L 222.784764 76.407395 L 222.186931 76.461743 L 219.442334 83.173778 L 220.040167 85.0488 L 217.186873 86.489034 L 215.3662 82.385725 L 213.300958 82.92921 L 214.252056 86.624905 L 211.262891 88.527101 L 211.425936 89.342328 L 208.355248 90.70104 L 207.59437 89.28798 L 201.94213 89.668419 L 201.588865 88.690147 L 200.311676 88.907541 L 202.947577 101.217467 L 197.322511 100.701156 L 197.621428 101.271815 L 195.148573 101.434861 L 197.621428 104.342503 L 198.40948 104.070761 L 199.061662 105.130556 L 199.849714 104.26098 L 200.094283 105.510995 L 200.963858 104.913162 L 201.262774 105.782737 L 201.833433 105.538169 L 204.333462 109.233864 L 205.665 108.880599 L 206.480227 112.92956 L 204.57803 114.098052 L 211.425936 117.331785 L 212.866171 116.190467 L 214.605321 118.174186 L 212.132466 121.625313 L 215.746639 124.424259 L 212.784648 126.16341 L 212.322686 125.674274 L 207.213931 129.804756 L 210.23027 134.587421 L 208.083506 136.000481 L 204.876947 136.543965 L 198.925791 141.652721 L 195.909451 147.196264 L 192.811589 155.430055 L 188.8985 160.701856 L 187.431091 160.620333 L 189.550681 159.180099 L 189.931121 157.739865 L 192.811589 155.07679 L 193.409422 153.555033 L 191.942014 150.348474 L 189.224591 147.631051 L 185.229979 145.348416 L 177.838588 145.620158 L 174.903771 147.223438 L 163.626466 151.02783 L 160.854695 152.902852 L 155.800288 159.044228 L 148.137155 172.250904 L 146.153436 174.452016 L 144.686028 174.098751 L 142.213173 175.647682 L 141.588166 175.593334 L 141.724037 174.642236 L 142.865354 175.049849 L 144.061021 174.234622 L 144.876247 172.196555 L 146.234959 172.087858 L 149.224124 169.778049 L 152.294812 164.560596 L 152.349161 161.381212 L 150.474139 158.663789 L 147.158883 156.68007 L 144.686028 156.815941 L 141.588166 158.065956 L 135.473964 156.978986 L 128.680406 157.821387 L 124.84884 159.397493 L 114.386762 165.511695 L 104.794258 175.89225 L 94.495225 180.865134 L 87.837539 189.642411 L 74.92978 211.191575 L 70.826471 214.425308 L 61.397013 217.876435 L 61.397013 215.349232 L 64.494876 212.985074 L 64.33183 211.626363 L 66.505769 210.485045 L 72.049311 209.452424 L 77.484157 206.843698 L 78.190687 203.392571 L 83.054875 196.626188 L 83.625533 193.664197 L 85.065768 193.36528 L 87.756016 189.044578 L 87.212532 188.664138 L 86.071214 189.234797 L 85.120116 191.653304 L 83.815753 189.560888 L 81.179853 189.31632 L 80.364626 184.723875 L 81.668989 182.794505 L 81.61464 181.055354 L 80.90811 179.968385 L 77.321112 178.636848 L 75.908052 176.055296 L 74.984128 175.729205 L 75.717833 173.718312 L 73.679765 174.913978 L 75.255871 179.506423 L 76.995021 181.02818 L 77.103718 185.430405 L 75.609136 188.066305 L 71.261259 190.838077 L 69.440585 195.050082 L 67.402518 195.240302 L 66.098155 176.299864 L 63.706823 176.625955 L 58.217629 173.229176 L 54.413236 173.799835 L 53.761055 170.62045 L 54.712153 170.348707 L 54.331714 167.522588 L 44.73921 169.071519 L 44.168552 165.783437 L 42.29353 165.837785 L 41.641348 162.087742 L 44.684862 161.218166 L 44.005506 155.26701 L 39.548933 155.837669 L 39.331539 154.451783 L 35.93476 154.832222 L 35.364101 150.973482 L 37.728259 150.647391 L 37.592388 149.261505 L 43.244628 148.473452 L 43.217454 147.549529 L 44.2229 147.468006 L 44.250074 145.239719 L 45.309869 145.185371 L 44.73921 140.701623 L 49.059913 140.049441 L 48.190338 134.397201 L 44.521817 134.696118 L 43.298976 126.109061 L 39.793501 126.652546 L 39.521758 124.451433 L 35.119533 124.994918 L 34.847791 122.929676 L 33.489079 122.875328 L 32.836898 119.668769 L 31.206444 119.886163 L 30.200998 111.054538 L 27.83684 111.271932 L 25.771598 96.434802 L 28.54337 95.918492 L 28.298801 94.206515 L 27.728143 92.548887 L 25.690075 92.847804 L 24.956371 89.342328 L 27.266181 88.635798 L 27.592271 86.896648 L 20.336752 88.309708 L 20.635669 90.70104 L 19.195434 90.999956 L 19.385654 92.1141 L 17.456284 92.521713 L 16.260618 91.516267 L 14.195376 91.788009 L 12.564922 93.472811 L 11.613824 92.684759 L 10.200764 84.179225 L 9.249666 84.206399 L 7.945303 76.488918 L 6.695289 75.15738 Z M 0.635435 72.032344 " stroke="#ffffff" stroke-width="1.19" stroke-opacity="1" stroke-miterlimit="4"/></g><path fill="#ff5757" d="M 13.910156 10.519531 L 13.910156 10.398438 L 14.550781 9.460938 L 13.90625 9.460938 L 13.90625 9.300781 L 14.777344 9.300781 L 14.777344 9.421875 L 14.136719 10.363281 L 14.78125 10.363281 L 14.78125 10.519531 Z M 15.265625 10.539062 C 15.207031 10.539062 15.15625 10.53125 15.109375 10.507812 C 15.0625 10.488281 15.023438 10.457031 14.996094 10.414062 C 14.96875 10.371094 14.957031 10.320312 14.957031 10.261719 C 14.957031 10.210938 14.964844 10.167969 14.984375 10.132812 C 15.007812 10.101562 15.03125 10.074219 15.066406 10.054688 C 15.101562 10.035156 15.136719 10.019531 15.179688 10.011719 C 15.222656 10 15.265625 9.992188 15.308594 9.988281 C 15.363281 9.980469 15.40625 9.976562 15.441406 9.972656 C 15.476562 9.96875 15.5 9.960938 15.515625 9.953125 C 15.53125 9.941406 15.539062 9.925781 15.539062 9.90625 L 15.539062 9.902344 C 15.539062 9.851562 15.523438 9.808594 15.496094 9.78125 C 15.464844 9.753906 15.421875 9.738281 15.363281 9.738281 C 15.304688 9.738281 15.257812 9.75 15.222656 9.777344 C 15.1875 9.804688 15.164062 9.832031 15.152344 9.867188 L 14.984375 9.828125 C 15.003906 9.773438 15.035156 9.726562 15.070312 9.691406 C 15.109375 9.660156 15.152344 9.632812 15.203125 9.617188 C 15.253906 9.601562 15.308594 9.59375 15.363281 9.59375 C 15.398438 9.59375 15.4375 9.597656 15.476562 9.605469 C 15.519531 9.617188 15.558594 9.628906 15.59375 9.652344 C 15.628906 9.675781 15.660156 9.707031 15.683594 9.75 C 15.707031 9.792969 15.71875 9.847656 15.71875 9.914062 L 15.71875 10.519531 L 15.542969 10.519531 L 15.542969 10.394531 L 15.535156 10.394531 C 15.523438 10.417969 15.507812 10.441406 15.484375 10.464844 C 15.460938 10.484375 15.429688 10.503906 15.394531 10.519531 C 15.359375 10.535156 15.316406 10.539062 15.265625 10.539062 Z M 15.304688 10.398438 C 15.355469 10.398438 15.394531 10.386719 15.429688 10.367188 C 15.464844 10.347656 15.492188 10.324219 15.511719 10.292969 C 15.53125 10.261719 15.539062 10.226562 15.539062 10.191406 L 15.539062 10.074219 C 15.53125 10.078125 15.519531 10.085938 15.503906 10.089844 C 15.484375 10.097656 15.464844 10.101562 15.441406 10.105469 C 15.417969 10.109375 15.394531 10.109375 15.375 10.113281 C 15.351562 10.117188 15.332031 10.121094 15.320312 10.121094 C 15.285156 10.125 15.253906 10.132812 15.222656 10.144531 C 15.195312 10.152344 15.171875 10.167969 15.15625 10.1875 C 15.140625 10.207031 15.132812 10.234375 15.132812 10.265625 C 15.132812 10.308594 15.148438 10.34375 15.179688 10.363281 C 15.210938 10.386719 15.253906 10.398438 15.304688 10.398438 Z M 15.953125 10.863281 L 15.953125 9.605469 L 16.128906 9.605469 L 16.128906 9.753906 L 16.144531 9.753906 C 16.152344 9.734375 16.167969 9.714844 16.1875 9.6875 C 16.207031 9.664062 16.234375 9.640625 16.269531 9.621094 C 16.304688 9.601562 16.347656 9.59375 16.40625 9.59375 C 16.480469 9.59375 16.546875 9.613281 16.601562 9.648438 C 16.660156 9.6875 16.707031 9.742188 16.738281 9.8125 C 16.773438 9.882812 16.789062 9.964844 16.789062 10.066406 C 16.789062 10.164062 16.773438 10.25 16.738281 10.320312 C 16.707031 10.390625 16.660156 10.445312 16.605469 10.480469 C 16.546875 10.519531 16.480469 10.539062 16.40625 10.539062 C 16.351562 10.539062 16.304688 10.527344 16.269531 10.511719 C 16.234375 10.492188 16.207031 10.46875 16.1875 10.445312 C 16.167969 10.417969 16.152344 10.398438 16.144531 10.378906 L 16.132812 10.378906 L 16.132812 10.863281 Z M 16.128906 10.0625 C 16.128906 10.128906 16.136719 10.183594 16.15625 10.230469 C 16.175781 10.28125 16.203125 10.320312 16.238281 10.347656 C 16.273438 10.375 16.316406 10.386719 16.367188 10.386719 C 16.421875 10.386719 16.464844 10.371094 16.5 10.34375 C 16.535156 10.316406 16.5625 10.277344 16.582031 10.226562 C 16.601562 10.179688 16.609375 10.125 16.609375 10.0625 C 16.609375 10.003906 16.601562 9.949219 16.582031 9.902344 C 16.566406 9.851562 16.539062 9.816406 16.5 9.785156 C 16.464844 9.757812 16.421875 9.746094 16.367188 9.746094 C 16.316406 9.746094 16.273438 9.757812 16.238281 9.785156 C 16.199219 9.8125 16.175781 9.847656 16.15625 9.894531 C 16.136719 9.945312 16.128906 10 16.128906 10.0625 Z M 17.375 10.539062 C 17.289062 10.539062 17.214844 10.519531 17.148438 10.480469 C 17.085938 10.441406 17.035156 10.386719 17 10.316406 C 16.964844 10.246094 16.949219 10.160156 16.949219 10.066406 C 16.949219 9.972656 16.964844 9.890625 17 9.820312 C 17.035156 9.746094 17.085938 9.691406 17.148438 9.652344 C 17.214844 9.613281 17.289062 9.59375 17.375 9.59375 C 17.460938 9.59375 17.535156 9.613281 17.597656 9.652344 C 17.664062 9.691406 17.710938 9.746094 17.746094 9.820312 C 17.785156 9.890625 17.800781 9.972656 17.800781 10.066406 C 17.800781 10.160156 17.785156 10.246094 17.746094 10.316406 C 17.710938 10.386719 17.664062 10.441406 17.597656 10.480469 C 17.535156 10.519531 17.460938 10.539062 17.375 10.539062 Z M 17.375 10.390625 C 17.429688 10.390625 17.476562 10.375 17.511719 10.34375 C 17.550781 10.316406 17.578125 10.277344 17.59375 10.226562 C 17.613281 10.179688 17.621094 10.125 17.621094 10.066406 C 17.621094 10.007812 17.613281 9.953125 17.59375 9.90625 C 17.578125 9.855469 17.550781 9.816406 17.511719 9.789062 C 17.476562 9.757812 17.429688 9.742188 17.375 9.742188 C 17.320312 9.742188 17.273438 9.757812 17.234375 9.789062 C 17.199219 9.816406 17.171875 9.855469 17.152344 9.90625 C 17.136719 9.953125 17.128906 10.007812 17.128906 10.066406 C 17.128906 10.125 17.136719 10.179688 17.152344 10.226562 C 17.171875 10.277344 17.199219 10.316406 17.234375 10.34375 C 17.273438 10.375 17.320312 10.390625 17.375 10.390625 Z M 18 10.519531 L 18 9.605469 L 18.171875 9.605469 L 18.171875 9.75 L 18.179688 9.75 C 18.199219 9.703125 18.226562 9.664062 18.269531 9.636719 C 18.3125 9.605469 18.359375 9.59375 18.414062 9.59375 C 18.425781 9.59375 18.4375 9.59375 18.453125 9.59375 C 18.46875 9.59375 18.480469 9.59375 18.488281 9.597656 L 18.488281 9.765625 C 18.480469 9.765625 18.46875 9.761719 18.449219 9.761719 C 18.433594 9.757812 18.414062 9.757812 18.394531 9.757812 C 18.355469 9.757812 18.316406 9.765625 18.285156 9.78125 C 18.25 9.800781 18.226562 9.824219 18.207031 9.855469 C 18.1875 9.886719 18.175781 9.921875 18.175781 9.960938 L 18.175781 10.519531 Z M 18.644531 10.519531 L 18.644531 9.605469 L 18.820312 9.605469 L 18.820312 10.519531 Z M 18.734375 9.464844 C 18.703125 9.464844 18.675781 9.453125 18.652344 9.433594 C 18.632812 9.414062 18.621094 9.386719 18.621094 9.359375 C 18.621094 9.328125 18.632812 9.304688 18.652344 9.285156 C 18.675781 9.261719 18.703125 9.253906 18.734375 9.253906 C 18.765625 9.253906 18.789062 9.261719 18.8125 9.285156 C 18.835938 9.304688 18.84375 9.328125 18.84375 9.359375 C 18.84375 9.386719 18.835938 9.414062 18.8125 9.433594 C 18.789062 9.453125 18.765625 9.464844 18.734375 9.464844 Z M 19.042969 10.519531 L 19.042969 10.398438 L 19.539062 9.769531 L 19.539062 9.761719 L 19.058594 9.761719 L 19.058594 9.605469 L 19.757812 9.605469 L 19.757812 9.734375 L 19.28125 10.355469 L 19.28125 10.367188 L 19.777344 10.367188 L 19.777344 10.519531 Z M 20.164062 9.976562 L 20.164062 10.519531 L 19.984375 10.519531 L 19.984375 9.300781 L 20.160156 9.300781 L 20.160156 9.753906 L 20.171875 9.753906 C 20.195312 9.707031 20.226562 9.667969 20.269531 9.636719 C 20.316406 9.609375 20.371094 9.59375 20.445312 9.59375 C 20.507812 9.59375 20.5625 9.605469 20.609375 9.632812 C 20.65625 9.660156 20.691406 9.695312 20.71875 9.75 C 20.746094 9.800781 20.757812 9.863281 20.757812 9.9375 L 20.757812 10.519531 L 20.578125 10.519531 L 20.578125 9.960938 C 20.578125 9.894531 20.5625 9.839844 20.527344 9.804688 C 20.492188 9.765625 20.445312 9.75 20.382812 9.75 C 20.339844 9.75 20.304688 9.757812 20.269531 9.773438 C 20.238281 9.792969 20.210938 9.820312 20.191406 9.855469 C 20.171875 9.886719 20.164062 9.929688 20.164062 9.976562 Z M 20.976562 10.519531 L 20.976562 10.398438 L 21.472656 9.769531 L 21.472656 9.761719 L 20.992188 9.761719 L 20.992188 9.605469 L 21.695312 9.605469 L 21.695312 9.734375 L 21.21875 10.355469 L 21.21875 10.367188 L 21.710938 10.367188 L 21.710938 10.519531 Z M 22.097656 9.976562 L 22.097656 10.519531 L 21.921875 10.519531 L 21.921875 9.300781 L 22.097656 9.300781 L 22.097656 9.753906 L 22.105469 9.753906 C 22.128906 9.707031 22.160156 9.667969 22.207031 9.636719 C 22.25 9.609375 22.308594 9.59375 22.378906 9.59375 C 22.441406 9.59375 22.496094 9.605469 22.542969 9.632812 C 22.589844 9.660156 22.625 9.695312 22.652344 9.75 C 22.679688 9.800781 22.691406 9.863281 22.691406 9.9375 L 22.691406 10.519531 L 22.511719 10.519531 L 22.511719 9.960938 C 22.511719 9.894531 22.496094 9.839844 22.460938 9.804688 C 22.425781 9.765625 22.378906 9.75 22.316406 9.75 C 22.273438 9.75 22.238281 9.757812 22.203125 9.773438 C 22.171875 9.792969 22.144531 9.820312 22.125 9.855469 C 22.109375 9.886719 22.097656 9.929688 22.097656 9.976562 Z M 22.929688 10.519531 L 22.929688 9.605469 L 23.105469 9.605469 L 23.105469 10.519531 Z M 23.019531 9.464844 C 22.988281 9.464844 22.960938 9.453125 22.9375 9.433594 C 22.917969 9.414062 22.90625 9.386719 22.90625 9.359375 C 22.90625 9.328125 22.917969 9.304688 22.9375 9.285156 C 22.960938 9.261719 22.988281 9.253906 23.019531 9.253906 C 23.050781 9.253906 23.078125 9.261719 23.097656 9.285156 C 23.121094 9.304688 23.132812 9.328125 23.132812 9.359375 C 23.132812 9.386719 23.121094 9.414062 23.097656 9.433594 C 23.078125 9.453125 23.050781 9.464844 23.019531 9.464844 Z M 23.613281 10.539062 C 23.554688 10.539062 23.503906 10.53125 23.457031 10.507812 C 23.410156 10.488281 23.371094 10.457031 23.34375 10.414062 C 23.316406 10.371094 23.304688 10.320312 23.304688 10.261719 C 23.304688 10.210938 23.3125 10.167969 23.332031 10.132812 C 23.351562 10.101562 23.378906 10.074219 23.414062 10.054688 C 23.449219 10.035156 23.484375 10.019531 23.527344 10.011719 C 23.570312 10 23.609375 9.992188 23.65625 9.988281 C 23.710938 9.980469 23.753906 9.976562 23.789062 9.972656 C 23.820312 9.96875 23.847656 9.960938 23.863281 9.953125 C 23.878906 9.941406 23.886719 9.925781 23.886719 9.90625 L 23.886719 9.902344 C 23.886719 9.851562 23.871094 9.808594 23.839844 9.78125 C 23.8125 9.753906 23.769531 9.738281 23.710938 9.738281 C 23.652344 9.738281 23.605469 9.75 23.570312 9.777344 C 23.535156 9.804688 23.511719 9.832031 23.5 9.867188 L 23.332031 9.828125 C 23.351562 9.773438 23.378906 9.726562 23.417969 9.691406 C 23.457031 9.660156 23.5 9.632812 23.550781 9.617188 C 23.601562 9.601562 23.652344 9.59375 23.710938 9.59375 C 23.746094 9.59375 23.785156 9.597656 23.824219 9.605469 C 23.867188 9.617188 23.90625 9.628906 23.941406 9.652344 C 23.976562 9.675781 24.007812 9.707031 24.03125 9.75 C 24.050781 9.792969 24.0625 9.847656 24.0625 9.914062 L 24.0625 10.519531 L 23.890625 10.519531 L 23.890625 10.394531 L 23.882812 10.394531 C 23.871094 10.417969 23.855469 10.441406 23.832031 10.464844 C 23.808594 10.484375 23.777344 10.503906 23.742188 10.519531 C 23.707031 10.535156 23.664062 10.539062 23.613281 10.539062 Z M 23.652344 10.398438 C 23.699219 10.398438 23.742188 10.386719 23.777344 10.367188 C 23.8125 10.347656 23.839844 10.324219 23.859375 10.292969 C 23.875 10.261719 23.886719 10.226562 23.886719 10.191406 L 23.886719 10.074219 C 23.878906 10.078125 23.867188 10.085938 23.847656 10.089844 C 23.832031 10.097656 23.8125 10.101562 23.789062 10.105469 C 23.765625 10.109375 23.742188 10.109375 23.71875 10.113281 C 23.699219 10.117188 23.679688 10.121094 23.664062 10.121094 C 23.632812 10.125 23.601562 10.132812 23.570312 10.144531 C 23.542969 10.152344 23.519531 10.167969 23.503906 10.1875 C 23.488281 10.207031 23.476562 10.234375 23.476562 10.265625 C 23.476562 10.308594 23.496094 10.34375 23.527344 10.363281 C 23.558594 10.386719 23.601562 10.398438 23.652344 10.398438 Z M 23.652344 10.398438 " fill-opacity="1" fill-rule="nonzero"/><g mask="url(#acb75379ae)"><g transform="matrix(1, 0, 0, 1, 6, 15)"><g clip-path="url(#e2513f226b)"><g clip-path="url(#9405185a3f)"><path fill="#ff5757" d="M 0.6875 2.996094 L 0.6875 2.742188 L 2.007812 0.8125 L 0.675781 0.8125 L 0.675781 0.488281 L 2.472656 0.488281 L 2.472656 0.738281 L 1.152344 2.667969 L 2.480469 2.667969 L 2.480469 2.996094 Z M 3.066406 2.996094 L 2.664062 2.996094 L 3.566406 0.488281 L 4.003906 0.488281 L 4.90625 2.996094 L 4.503906 2.996094 L 3.796875 0.941406 L 3.777344 0.941406 Z M 3.132812 2.011719 L 4.4375 2.011719 L 4.4375 2.332031 L 3.132812 2.332031 Z M 5.164062 2.996094 L 5.164062 0.488281 L 6.058594 0.488281 C 6.253906 0.488281 6.417969 0.523438 6.542969 0.59375 C 6.671875 0.664062 6.769531 0.761719 6.832031 0.882812 C 6.894531 1.007812 6.929688 1.144531 6.929688 1.296875 C 6.929688 1.453125 6.894531 1.59375 6.832031 1.714844 C 6.769531 1.835938 6.671875 1.933594 6.542969 2.007812 C 6.414062 2.078125 6.253906 2.113281 6.058594 2.113281 L 5.441406 2.113281 L 5.441406 1.792969 L 6.023438 1.792969 C 6.148438 1.792969 6.246094 1.769531 6.324219 1.730469 C 6.402344 1.683594 6.457031 1.625 6.492188 1.550781 C 6.527344 1.476562 6.546875 1.394531 6.546875 1.296875 C 6.546875 1.203125 6.527344 1.121094 6.492188 1.046875 C 6.457031 0.972656 6.402344 0.914062 6.324219 0.875 C 6.246094 0.832031 6.144531 0.8125 6.019531 0.8125 L 5.542969 0.8125 L 5.542969 2.996094 Z M 9.449219 1.742188 C 9.449219 2.007812 9.398438 2.238281 9.300781 2.433594 C 9.203125 2.625 9.070312 2.773438 8.898438 2.875 C 8.726562 2.976562 8.535156 3.03125 8.320312 3.03125 C 8.101562 3.03125 7.90625 2.976562 7.738281 2.875 C 7.566406 2.773438 7.433594 2.625 7.335938 2.429688 C 7.238281 2.238281 7.1875 2.007812 7.1875 1.742188 C 7.1875 1.472656 7.238281 1.242188 7.335938 1.050781 C 7.433594 0.859375 7.566406 0.710938 7.738281 0.609375 C 7.90625 0.503906 8.101562 0.453125 8.320312 0.453125 C 8.535156 0.453125 8.726562 0.503906 8.898438 0.609375 C 9.070312 0.710938 9.203125 0.859375 9.300781 1.050781 C 9.398438 1.242188 9.449219 1.472656 9.449219 1.742188 Z M 9.074219 1.742188 C 9.074219 1.535156 9.039062 1.363281 8.972656 1.226562 C 8.910156 1.085938 8.820312 0.976562 8.703125 0.90625 C 8.589844 0.832031 8.460938 0.796875 8.320312 0.796875 C 8.171875 0.796875 8.042969 0.832031 7.929688 0.90625 C 7.816406 0.976562 7.726562 1.085938 7.660156 1.226562 C 7.597656 1.363281 7.5625 1.535156 7.5625 1.742188 C 7.5625 1.945312 7.597656 2.117188 7.660156 2.257812 C 7.726562 2.398438 7.816406 2.503906 7.929688 2.578125 C 8.042969 2.648438 8.171875 2.683594 8.320312 2.683594 C 8.460938 2.683594 8.589844 2.648438 8.703125 2.578125 C 8.820312 2.503906 8.910156 2.398438 8.972656 2.257812 C 9.039062 2.117188 9.074219 1.945312 9.074219 1.742188 Z M 9.816406 2.996094 L 9.816406 0.488281 L 10.710938 0.488281 C 10.90625 0.488281 11.066406 0.519531 11.195312 0.585938 C 11.324219 0.652344 11.421875 0.746094 11.484375 0.863281 C 11.546875 0.984375 11.578125 1.117188 11.578125 1.273438 C 11.578125 1.425781 11.546875 1.5625 11.484375 1.679688 C 11.417969 1.792969 11.324219 1.882812 11.195312 1.949219 C 11.066406 2.015625 10.902344 2.046875 10.710938 2.046875 L 10.03125 2.046875 L 10.03125 1.71875 L 10.675781 1.71875 C 10.796875 1.71875 10.898438 1.703125 10.972656 1.667969 C 11.050781 1.632812 11.109375 1.582031 11.144531 1.515625 C 11.179688 1.449219 11.199219 1.367188 11.199219 1.273438 C 11.199219 1.179688 11.179688 1.097656 11.144531 1.027344 C 11.105469 0.957031 11.050781 0.902344 10.972656 0.867188 C 10.894531 0.828125 10.796875 0.8125 10.671875 0.8125 L 10.195312 0.8125 L 10.195312 2.996094 Z M 11.054688 1.863281 L 11.675781 2.996094 L 11.242188 2.996094 L 10.636719 1.863281 Z M 12.316406 0.488281 L 12.316406 2.996094 L 11.9375 2.996094 L 11.9375 0.488281 Z M 12.699219 2.996094 L 12.699219 2.742188 L 14.015625 0.8125 L 12.6875 0.8125 L 12.6875 0.488281 L 14.480469 0.488281 L 14.480469 0.738281 L 13.160156 2.667969 L 14.492188 2.667969 L 14.492188 2.996094 Z M 14.863281 2.996094 L 14.863281 0.488281 L 15.242188 0.488281 L 15.242188 1.578125 L 16.492188 1.578125 L 16.492188 0.488281 L 16.871094 0.488281 L 16.871094 2.996094 L 16.492188 2.996094 L 16.492188 1.902344 L 15.242188 1.902344 L 15.242188 2.996094 Z M 17.253906 2.996094 L 17.253906 2.742188 L 18.574219 0.8125 L 17.242188 0.8125 L 17.242188 0.488281 L 19.039062 0.488281 L 19.039062 0.738281 L 17.71875 2.667969 L 19.046875 2.667969 L 19.046875 2.996094 Z M 19.417969 2.996094 L 19.417969 0.488281 L 19.796875 0.488281 L 19.796875 1.578125 L 21.050781 1.578125 L 21.050781 0.488281 L 21.429688 0.488281 L 21.429688 2.996094 L 21.050781 2.996094 L 21.050781 1.902344 L 19.796875 1.902344 L 19.796875 2.996094 Z M 22.253906 0.488281 L 22.253906 2.996094 L 21.875 2.996094 L 21.875 0.488281 Z M 22.914062 2.996094 L 22.511719 2.996094 L 23.417969 0.488281 L 23.851562 0.488281 L 24.757812 2.996094 L 24.355469 2.996094 L 23.644531 0.941406 L 23.625 0.941406 Z M 22.980469 2.011719 L 24.285156 2.011719 L 24.285156 2.332031 L 22.980469 2.332031 Z M 22.980469 2.011719 " fill-opacity="1" fill-rule="nonzero"/></g></g></g></g></svg>