<svg xmlns="http://www.w3.org/2000/svg" xmlns:xlink="http://www.w3.org/1999/xlink" width="50" zoomAndPan="magnify" viewBox="0 0 37.5 37.499999" height="50" preserveAspectRatio="xMidYMid meet" version="1.0"><defs><filter x="0%" y="0%" width="100%" height="100%" id="cbe0ec028f"><feColorMatrix values="0 0 0 0 1 0 0 0 0 1 0 0 0 0 1 0 0 0 1 0" color-interpolation-filters="sRGB"/></filter><clipPath id="beb2854601"><path d="M 2.511719 1.304688 L 34.335938 1.304688 L 34.335938 35.351562 L 2.511719 35.351562 Z M 2.511719 1.304688 " clip-rule="nonzero"/></clipPath><mask id="7414dc9fc4"><g filter="url(#cbe0ec028f)"><rect x="-3.75" width="45" fill="#000000" y="-3.75" height="44.999999" fill-opacity="0.08"/></g></mask><clipPath id="bb77a75d85"><path d="M 0.238281 1 L 8 1 L 8 4.261719 L 0.238281 4.261719 Z M 0.238281 1 " clip-rule="nonzero"/></clipPath><clipPath id="ab3944093b"><rect x="0" width="9" y="0" height="5"/></clipPath></defs><g clip-path="url(#beb2854601)"><path stroke-linecap="round" transform="matrix(0.15908, 0, 0, 0.15908, 2.3993, 1.16319)" fill-opacity="1" fill="#000000" fill-rule="nonzero" stroke-linejoin="round" d="M 105.214176 1.699806 L 108.922031 1.478808 L 111.598562 6.389874 L 112.92455 6.758204 L 113.685765 8.72263 L 116.460518 10.662502 L 121.469805 11.571049 L 122.452019 9.017294 L 125.202216 9.04185 L 126.184429 7.863194 L 128.320743 10.14684 L 127.584083 11.521938 L 128.050634 13.191701 L 131.021829 15.254349 L 132.372373 15.303459 L 135.466344 13.584586 L 136.694111 14.002027 L 138.658537 17.685326 L 138.535761 20.631966 L 139.247865 21.24585 L 140.69663 20.902075 L 140.942183 19.870751 L 141.678843 20.263636 L 141.138626 20.902075 L 141.850731 23.775049 L 141.089515 24.339821 L 141.727954 24.806373 L 141.556067 29.76655 L 145.705918 30.13488 L 145.705918 30.896095 L 150.543318 33.818179 L 149.95399 37.427813 L 154.521282 38.041696 L 155.552606 37.23137 L 160.512782 36.666598 L 161.151221 35.782606 L 162.52632 35.905382 L 162.477209 37.403258 L 166.062287 37.427813 L 165.620291 33.769069 L 166.455173 32.565857 L 171.980122 37.722477 L 174.337434 37.796143 L 175.000428 39.39224 L 174.754875 42.216103 L 178.708283 43.836755 L 179.61683 44.278751 L 182.612581 43.370203 L 185.411889 44.671636 L 185.313667 48.33038 L 184.257788 48.33038 L 183.251019 49.828255 L 183.594794 51.006911 L 182.661691 51.596239 L 182.833579 53.462445 L 186.099438 55.819756 L 185.117225 57.293076 L 184.724339 61.442927 L 192.950375 73.278597 L 195.602351 75.3658 L 199.261096 77.551225 L 199.9732 79.343764 L 199.432983 81.406412 L 201.004524 82.437736 L 198.278882 83.346283 L 197.493112 85.629929 L 198.598102 87.299691 L 197.247558 90.712882 L 191.992717 92.087981 L 191.231502 95.010065 L 189.19341 93.88052 L 188.309418 94.126074 L 188.309418 95.255619 L 187.130762 95.452061 L 183.496573 93.83141 L 182.882689 94.494403 L 181.286593 94.396182 L 180.30438 96.286943 L 176.522859 95.083731 L 177.087631 99.528246 L 176.007197 101.320786 L 178.953836 104.341091 L 175.417869 107.97528 L 173.797217 105.740745 L 172.078344 105.126862 L 170.555913 109.39949 L 169.721032 115.636544 L 168.149491 116.152206 L 167.118167 118.33763 L 165.865845 118.190298 L 166.160509 119.02518 L 164.171527 118.362186 L 163.410312 119.07429 L 163.827752 120.17928 L 161.47044 118.976069 L 160.68467 120.13017 L 158.965797 120.154725 L 159.137684 122.045485 L 158.278247 120.817719 L 156.068267 121.628045 L 155.699937 123.052254 L 150.248654 123.297807 L 151.05898 125.876117 L 150.69065 131.523843 L 149.069998 131.769397 L 145.90236 130.369743 L 144.650038 131.204624 L 141.654288 129.461196 L 139.95997 127.300326 L 137.774545 128.65087 L 136.080228 128.478982 L 135.319012 127.202105 L 136.350336 126.514556 L 134.877016 125.114902 L 132.986256 124.697461 L 133.28092 125.434121 L 132.421483 125.139457 L 132.347817 125.802451 L 130.162393 127.17755 L 130.899053 130.517075 L 128.49263 130.688962 L 127.731415 131.843063 L 128.713628 134.22493 L 128.271632 137.196125 L 126.23354 137.564455 L 125.398658 138.841332 L 126.675536 142.868407 L 130.015061 144.439948 L 126.994755 147.16559 L 127.510417 149.179127 L 125.86521 151.855658 L 124.612888 150.799779 L 123.311455 152.052101 L 120.463037 151.315441 L 120.364815 152.886982 L 120.561258 154.900519 L 122.992236 154.458523 L 124.932107 155.31796 L 124.072671 158.362821 L 123.115013 159.246813 L 123.827117 160.425469 L 126.479093 161.039352 L 131.144606 160.720133 L 130.33428 162.36534 L 130.800831 163.126555 L 129.867729 164.894539 L 129.892284 166.908076 L 128.615407 167.472849 L 126.208984 165.385646 L 124.490111 165.655754 L 118.916051 167.497404 L 115.453749 170.198491 L 113.734876 169.731939 L 113.022771 170.861484 L 111.254787 170.272157 L 110.739125 172.064696 L 109.658691 171.892808 L 108.897476 170.689597 L 103.200639 169.830161 L 100.253999 173.218796 L 99.541894 171.843698 L 96.791697 170.738708 L 92.51907 173.783569 L 91.929742 174.913114 L 87.411561 173.488905 L 84.563142 174.323786 L 83.31082 172.899577 L 82.721492 173.218796 L 81.616502 172.433026 L 79.087303 175.305999 L 78.227867 174.741227 L 76.779102 175.526997 L 75.281227 182.181492 L 73.881573 183.237372 L 72.825694 182.574378 L 72.064478 183.163706 L 71.720704 184.61247 L 67.890072 188.811432 L 69.363392 191.095078 L 67.521742 195.736035 L 68.258402 197.725017 L 70.566603 198.559898 L 70.861267 199.370224 L 68.454845 200.475214 L 68.356623 202.611528 L 66.981525 205.091617 L 68.724953 209.462466 L 66.171199 214.005202 L 66.588639 215.527633 L 63.617444 214.913749 L 60.965469 216.411624 L 57.576833 215.380301 L 54.286418 213.833315 L 53.205984 210.960341 L 50.578563 212.654659 L 47.705589 210.346458 L 46.183159 211.721556 L 41.714089 211.893443 L 38.055344 204.060293 L 36.827578 203.814739 L 36.729356 202.095866 L 34.273823 200.720768 L 31.44996 202.464196 L 30.173083 202.0222 L 28.601542 202.611528 L 27.34922 204.23218 L 26.440672 203.888405 L 25.384793 202.562417 L 24.795465 199.198337 L 22.389043 198.216124 L 19.663401 195.907923 L 18.165526 192.3474 L 18.239192 190.55486 L 19.958065 189.228872 L 21.382274 189.228872 L 20.228174 185.71746 L 22.781928 183.949476 L 18.730298 181.66583 L 17.674419 181.592164 L 18.263747 180.241621 L 17.576198 178.620969 L 19.344182 175.35511 L 17.085091 174.741227 L 16.61854 173.415239 L 15.046999 173.685348 L 13.966564 171.696366 L 12.419578 170.763263 L 12.149469 168.67606 L 9.497494 169.191722 L 8.564391 168.577839 L 9.743047 165.974974 L 8.245172 165.974974 L 7.115626 167.9394 L 6.280745 166.785299 L 8.171506 162.930112 L 9.104608 162.389895 L 7.164737 161.800567 L 6.820963 160.720133 L 7.287514 159.492366 L 8.588946 158.853927 L 9.399272 151.315441 L 9.055498 146.355264 L 5.568641 131.867618 L 3.039441 131.008181 L 1.492456 127.865099 L 3.137663 126.833775 L 5.494975 121.971819 L 11.658363 113.966781 L 11.977582 111.683136 L 13.082572 110.062484 L 14.580447 109.645043 L 16.102878 108.048946 L 17.969083 104.905864 L 19.61429 103.579876 L 21.333163 100.068464 L 24.353469 97.56382 L 25.016463 93.855965 L 26.956334 93.315748 L 35.403368 80.89075 L 42.475304 72.492826 L 42.819079 70.405623 L 44.562507 69.693519 L 47.263594 66.329438 L 47.214483 64.414122 L 48.270362 64.487788 L 49.841903 63.284577 L 61.039135 51.620795 L 68.896841 46.218622 L 72.825694 40.349897 L 76.26344 38.950244 L 77.319319 34.309286 L 79.160969 32.664079 L 84.931472 30.748763 L 94.557162 29.668328 L 98.731568 29.913882 L 99.222675 27.311016 L 101.309878 26.107805 L 104.919512 15.254349 L 105.999947 8.157858 L 105.459729 6.635427 L 105.852615 4.62189 L 105.066844 4.597335 L 104.575737 3.639677 Z M 105.214176 1.699806 " stroke="#ffffff" stroke-width="1.19" stroke-opacity="1" stroke-miterlimit="4"/></g><path fill="#ff5757" d="M 18.035156 17.902344 L 18.035156 16.554688 L 18.242188 16.554688 L 18.242188 17.726562 L 18.851562 17.726562 L 18.851562 17.902344 Z M 19.808594 16.890625 L 19.441406 17.902344 L 19.230469 17.902344 L 18.863281 16.890625 L 19.074219 16.890625 L 19.328125 17.671875 L 19.339844 17.671875 L 19.597656 16.890625 Z M 19.992188 17.902344 L 19.992188 16.890625 L 20.191406 16.890625 L 20.191406 17.902344 Z M 20.09375 16.734375 C 20.058594 16.734375 20.027344 16.722656 20.003906 16.699219 C 19.980469 16.675781 19.96875 16.648438 19.96875 16.617188 C 19.96875 16.585938 19.980469 16.558594 20.003906 16.535156 C 20.027344 16.511719 20.058594 16.5 20.09375 16.5 C 20.125 16.5 20.15625 16.511719 20.179688 16.535156 C 20.203125 16.558594 20.21875 16.585938 20.21875 16.617188 C 20.21875 16.648438 20.203125 16.675781 20.179688 16.699219 C 20.15625 16.722656 20.125 16.734375 20.09375 16.734375 Z M 21.320312 16.890625 L 20.953125 17.902344 L 20.742188 17.902344 L 20.375 16.890625 L 20.585938 16.890625 L 20.84375 17.671875 L 20.855469 17.671875 L 21.109375 16.890625 Z M 21.320312 16.890625 " fill-opacity="1" fill-rule="nonzero"/><g mask="url(#7414dc9fc4)"><g transform="matrix(1, 0, 0, 1, 9, 18)"><g clip-path="url(#ab3944093b)"><g clip-path="url(#bb77a75d85)"><path fill="#ff5757" d="M 0.285156 4.039062 L 0.285156 1.261719 L 0.703125 1.261719 L 0.703125 3.679688 L 1.960938 3.679688 L 1.960938 4.039062 Z M 2.296875 1.261719 L 3.070312 3.523438 L 3.101562 3.523438 L 3.871094 1.261719 L 4.324219 1.261719 L 3.328125 4.039062 L 2.84375 4.039062 L 1.84375 1.261719 Z M 5.03125 1.261719 L 5.03125 4.039062 L 4.613281 4.039062 L 4.613281 1.261719 Z M 5.769531 1.261719 L 6.542969 3.523438 L 6.574219 3.523438 L 7.347656 1.261719 L 7.800781 1.261719 L 6.800781 4.039062 L 6.316406 4.039062 L 5.316406 1.261719 Z M 5.769531 1.261719 " fill-opacity="1" fill-rule="nonzero"/></g></g></g></g></svg>