<svg xmlns="http://www.w3.org/2000/svg" xmlns:xlink="http://www.w3.org/1999/xlink" width="50" zoomAndPan="magnify" viewBox="0 0 37.5 37.499999" height="50" preserveAspectRatio="xMidYMid meet" version="1.0"><defs><filter x="0%" y="0%" width="100%" height="100%" id="d2eccea640"><feColorMatrix values="0 0 0 0 1 0 0 0 0 1 0 0 0 0 1 0 0 0 1 0" color-interpolation-filters="sRGB"/></filter><clipPath id="ca3721cc1b"><path d="M 2.648438 4.351562 L 34.472656 4.351562 L 34.472656 32.476562 L 2.648438 32.476562 Z M 2.648438 4.351562 " clip-rule="nonzero"/></clipPath><mask id="53a0e47e21"><g filter="url(#d2eccea640)"><rect x="-3.75" width="45" fill="#000000" y="-3.75" height="44.999999" fill-opacity="0.08"/></g></mask><clipPath id="a572159ec0"><path d="M 1 1 L 18.84375 1 L 18.84375 3.816406 L 1 3.816406 Z M 1 1 " clip-rule="nonzero"/></clipPath><clipPath id="53acbe9eac"><rect x="0" width="19" y="0" height="4"/></clipPath></defs><g clip-path="url(#ca3721cc1b)"><path stroke-linecap="round" transform="matrix(0.147985, 0, 0, 0.147985, 2.560127, 4.303306)" fill-opacity="1" fill="#000000" fill-rule="nonzero" stroke-linejoin="round" d="M 99.318561 180.242629 L 104.676991 180.321818 L 111.962344 179.26597 L 115.499436 181.404062 L 119.247697 182.433514 L 118.429415 184.307645 L 116.740057 184.41323 L 115.605021 186.340153 L 111.935948 185.363493 L 109.613082 185.917814 L 107.923725 187.686359 L 107.60697 189.375717 L 108.689215 190.616338 L 108.187687 190.616338 L 102.644483 184.729984 L 97.259657 180.269026 L 94.171301 175.78167 L 95.992639 178.368499 Z M 7.882104 10.647006 L 12.580628 7.294687 L 21.449754 8.060177 L 22.03047 9.353591 L 23.719827 7.241895 L 25.778731 9.591157 L 30.477256 9.538365 L 30.820407 8.403328 L 33.037688 7.822612 L 32.509764 6.37082 L 37.551439 5.103802 L 37.89459 6.133254 L 42.48753 5.710915 L 43.147435 8.192158 L 44.652019 7.980989 L 44.731207 5.790104 L 45.602282 6.687575 L 46.974885 6.58199 L 47.608394 8.984045 L 49.746486 8.376932 L 50.723146 9.142422 L 52.570881 8.350536 L 53.072408 6.423613 L 57.111028 6.133254 L 56.371934 2.384993 L 61.519194 1.329145 L 61.783156 2.358597 L 67.801491 1.43473 L 67.986265 2.384993 L 69.596433 2.701748 L 71.576149 5.394161 L 70.705074 6.872348 L 72.130469 8.060177 L 73.582261 7.849008 L 74.717297 13.603381 L 80.762029 11.623665 L 81.131575 13.999324 L 84.061554 13.339419 L 85.27578 12.019608 L 86.120458 14.527248 L 87.9154 14.131305 L 87.862608 13.207438 L 92.71951 12.309967 L 93.616981 16.638944 L 92.191586 17.219661 L 91.690058 19.17298 L 92.904283 19.093791 L 93.194642 20.624771 L 94.25049 19.93847 L 94.382471 18.96181 L 97.259657 18.803433 L 96.705337 14.632833 L 97.787581 14.474455 L 98.447487 15.424719 L 99.582523 14.844002 L 99.688108 12.362759 L 103.172407 11.702854 L 103.805916 13.761758 L 106.947065 13.339419 L 107.686159 16.11102 L 112.886211 15.160757 L 113.836475 21.522242 L 110.272987 22.419713 L 110.141006 23.396373 L 111.64559 32.080725 L 113.466928 30.496952 L 113.94206 30.919292 L 118.244641 30.074613 L 118.957339 35.301062 L 120.699488 34.931515 L 121.17462 40.659492 L 119.247697 40.765077 L 119.142112 42.982358 L 120.118772 45.014866 L 117.215189 45.674771 L 117.822302 49.132674 L 126.955389 47.918448 L 126.823408 46.572242 L 133.42246 45.701167 L 133.871195 46.941789 L 134.979836 46.8626 L 135.930099 49.264655 L 137.408287 49.106278 L 137.830626 52.168238 L 138.860078 52.036257 L 139.546379 53.065709 L 140.681416 51.587521 L 141.103756 52.696162 L 145.934261 51.719502 L 145.406337 48.39358 L 146.673355 48.076826 L 146.620563 45.938733 L 151.107918 44.830092 L 155.700857 48.499165 L 159.686685 47.205751 L 160.188213 48.525561 L 161.296853 48.472769 L 176.474672 45.410809 L 178.190425 42.058491 L 177.451331 41.583359 L 177.134577 39.867606 L 178.586368 39.603644 L 178.005652 36.145741 L 176.55386 36.277722 L 176.316294 34.720345 L 182.88895 33.50612 L 182.176252 31.447216 L 179.457443 31.97514 L 179.140688 28.226879 L 186.241268 27.012653 L 187.085946 28.965973 L 193.447432 27.883728 L 193.025093 24.241052 L 191.890056 22.894845 L 195.242374 22.894845 L 195.136789 22.287732 L 197.063712 21.838997 L 197.802806 22.472506 L 200.600804 20.967922 L 201.471879 27.487785 L 200.732785 28.833992 L 201.683048 33.030988 L 200.679993 33.426931 L 201.551067 35.301062 L 202.474935 35.723401 L 206.909497 34.905119 L 207.279044 38.521399 L 206.170403 38.970135 L 207.015082 43.774244 L 205.325725 44.249376 L 206.012026 49.027089 L 204.797801 49.581409 L 205.246536 51.587521 L 205.98563 51.719502 L 206.275988 54.121557 L 199.228201 55.942895 L 200.943955 66.950113 L 198.409919 69.589734 L 207.886157 69.06181 L 207.780572 71.094317 L 207.886157 76.795898 L 211.106494 74.842579 L 211.423248 75.476088 L 211.740003 77.851746 L 210.129834 78.722821 L 211.080098 87.935097 L 206.355177 88.674191 L 206.064819 82.259913 L 204.929782 82.708648 L 205.00897 84.635571 L 203.398802 85.137099 L 203.715556 91.366604 L 204.058707 92.184886 L 210.02425 91.234623 L 210.921721 97.09458 L 208.625251 98.124032 L 208.757232 102.505803 L 209.707495 102.45301 L 211.13289 103.614443 L 214.168454 107.072346 L 210.684155 107.60027 L 210.57857 109.236835 L 211.502437 110.055117 L 210.552174 110.688626 L 209.364344 110.503853 L 208.2821 108.656119 L 205.959234 108.999269 L 205.932838 111.058173 L 203.821141 112.377984 L 203.926726 113.328247 L 202.395746 113.090681 L 201.577464 111.401324 L 201.445483 112.087625 L 198.225145 112.087625 L 197.591636 114.753642 L 194.661658 118.818658 L 196.430203 123.728352 L 206.170403 129.693895 L 202.897274 134.788363 L 197.750014 131.963968 L 196.324619 133.257383 L 197.644429 137.559964 L 199.597748 137.348795 L 199.914503 138.958963 L 195.770298 139.486887 L 196.03426 141.202641 L 189.672775 142.628036 L 189.883944 144.47577 L 190.807812 144.871713 L 195.242374 144.106223 L 195.559129 145.927561 L 197.380467 145.610807 L 197.591636 146.798636 L 187.851436 148.567182 L 187.772248 149.359068 L 184.921458 149.675823 L 184.631099 150.784463 L 183.865609 150.098162 L 179.589424 150.758067 L 179.035104 146.640259 L 171.459392 147.194579 L 170.588318 145.267656 L 168.634998 145.584411 L 168.450225 144.2646 L 167.658339 144.370185 L 168.239055 147.696107 L 167.288792 147.907277 L 167.737527 150.546898 L 163.302965 151.127614 L 162.827833 148.540786 L 155.885631 149.675823 L 156.413555 153.318499 L 154.486632 153.529669 L 145.643903 147.907277 L 147.412449 150.969237 L 144.772828 152.289047 L 145.221564 155.931724 L 141.790057 156.697214 L 141.394114 157.83225 L 137.777834 158.465759 L 137.117928 157.885043 L 133.607233 158.756118 L 134.003176 160.471871 L 134.95344 160.313494 L 135.639741 164.959226 L 130.809235 165.751112 L 131.653914 166.912545 L 128.644746 167.070923 L 128.275199 168.073978 L 122.784789 167.625243 L 121.148224 170.264863 L 114.865927 172.825295 L 113.361343 171.347108 L 110.220194 170.924769 L 105.838424 169.077034 L 101.799805 168.971449 L 99.39775 170.476033 L 97.365242 173.801955 L 95.042376 171.901428 L 92.745906 171.109542 L 88.047381 170.819184 L 87.017929 171.769447 L 84.193535 171.426296 L 83.005706 173.775559 L 78.623936 172.534937 L 74.611713 172.693314 L 70.625885 170.951165 L 71.470564 168.865865 L 70.546697 168.33794 L 71.972092 167.519658 L 70.467508 166.516602 L 70.995432 162.609964 L 68.435 159.204853 L 70.467508 156.222082 L 68.698962 153.001745 L 68.989321 149.517445 L 67.036001 148.171239 L 65.663399 148.30322 L 64.211607 144.238204 L 62.020722 142.60164 L 60.64812 142.496055 L 59.064347 136.134569 L 64.106023 134.788363 L 64.158815 133.732514 L 67.431945 133.178194 L 67.986265 134.18125 L 75.298014 132.967024 L 74.268562 129.746687 L 76.802598 129.165971 L 78.676728 129.535518 L 78.782313 127.265444 L 79.547803 127.001482 L 78.887898 123.622767 L 79.468614 123.332409 L 77.06656 114.067341 L 75.693957 114.304907 L 75.218825 113.381039 L 72.288846 113.988152 L 71.9193 115.651113 L 65.742587 115.703906 L 65.689795 112.166814 L 66.376096 112.061229 L 66.719247 113.381039 L 69.094906 112.985096 L 68.329416 109.104854 L 70.467508 108.603326 L 70.150754 104.115971 L 59.222724 106.913969 L 58.35165 103.746424 L 56.926255 103.931198 L 57.58616 101.661124 L 51.171882 102.954538 L 50.116033 98.493579 L 48.980997 98.704749 L 48.558657 97.041788 L 51.171882 95.721978 L 50.591165 94.296582 L 49.588109 94.375771 L 49.271355 93.4783 L 48.717034 90.046793 L 50.168826 89.703643 L 49.561713 87.301588 L 46.948489 87.723927 L 46.842904 85.374665 L 48.057129 85.137099 L 47.133262 79.092368 L 49.324147 78.617236 L 48.558657 74.921767 L 45.707867 75.396899 L 45.33832 74.261862 L 41.537266 74.367447 L 39.953494 73.100429 L 39.715928 72.070977 L 39.531155 71.094317 L 41.959606 70.566393 L 41.616455 66.501378 L 42.962662 65.02319 L 42.672303 63.624191 L 36.91793 64.759228 L 37.709817 67.87398 L 34.515876 68.745055 L 33.380839 68.745055 L 33.697593 65.23436 L 30.424464 66.158227 L 29.949332 65.102379 L 20.103547 66.923717 L 19.549227 64.46887 L 16.381682 65.049586 L 14.085212 52.484992 L 16.592852 51.640314 L 15.959343 48.947901 L 17.463927 48.736731 L 17.411134 47.522505 L 16.856814 47.443317 L 16.434474 45.305224 L 9.809027 46.202695 L 7.618142 34.509176 L 8.198858 33.849271 L 6.456709 31.447216 L 3.817088 29.916236 L 4.107446 28.438048 L 2.497278 24.821768 L 4.661767 23.713128 L 3.130787 20.308017 L 1.23026 19.120188 L 2.866825 18.803433 L 4.160239 16.87651 L 6.483105 17.246057 L 6.826255 16.005435 L 9.360291 16.084624 L 8.568405 15.635889 L 8.805971 14.975983 L 9.756234 15.794266 L 11.630365 15.319134 L 11.630365 14.289682 L 8.594801 13.867343 Z M 7.882104 10.647006 " stroke="#ffffff" stroke-width="1.19" stroke-opacity="1" stroke-miterlimit="4"/></g><path fill="#ff5757" d="M 16.679688 22.667969 L 16.910156 22.667969 L 17.308594 23.644531 L 17.324219 23.644531 L 17.722656 22.667969 L 17.953125 22.667969 L 17.953125 23.921875 L 17.773438 23.921875 L 17.773438 23.015625 L 17.761719 23.015625 L 17.390625 23.921875 L 17.242188 23.921875 L 16.871094 23.015625 L 16.859375 23.015625 L 16.859375 23.921875 L 16.679688 23.921875 Z M 18.332031 24.277344 C 18.304688 24.277344 18.277344 24.273438 18.253906 24.269531 C 18.234375 24.265625 18.214844 24.261719 18.207031 24.257812 L 18.25 24.105469 C 18.28125 24.117188 18.3125 24.121094 18.339844 24.117188 C 18.363281 24.117188 18.386719 24.105469 18.410156 24.089844 C 18.429688 24.070312 18.445312 24.039062 18.460938 24 L 18.484375 23.9375 L 18.140625 22.980469 L 18.335938 22.980469 L 18.574219 23.714844 L 18.585938 23.714844 L 18.824219 22.980469 L 19.019531 22.980469 L 18.632812 24.050781 C 18.613281 24.097656 18.589844 24.140625 18.5625 24.175781 C 18.535156 24.207031 18.503906 24.234375 18.464844 24.25 C 18.425781 24.269531 18.382812 24.277344 18.332031 24.277344 Z M 19.359375 23.605469 L 19.359375 23.378906 L 19.390625 23.378906 L 19.765625 22.980469 L 19.984375 22.980469 L 19.558594 23.4375 L 19.53125 23.4375 Z M 19.191406 23.921875 L 19.191406 22.667969 L 19.375 22.667969 L 19.375 23.921875 Z M 19.785156 23.921875 L 19.449219 23.476562 L 19.578125 23.347656 L 20.011719 23.921875 Z M 20.511719 23.941406 C 20.421875 23.941406 20.347656 23.921875 20.28125 23.882812 C 20.214844 23.839844 20.164062 23.785156 20.125 23.710938 C 20.089844 23.640625 20.070312 23.554688 20.070312 23.457031 C 20.070312 23.359375 20.089844 23.273438 20.125 23.199219 C 20.164062 23.128906 20.214844 23.070312 20.28125 23.03125 C 20.347656 22.988281 20.421875 22.96875 20.511719 22.96875 C 20.597656 22.96875 20.675781 22.988281 20.742188 23.03125 C 20.808594 23.070312 20.859375 23.128906 20.894531 23.199219 C 20.933594 23.273438 20.949219 23.359375 20.949219 23.457031 C 20.949219 23.554688 20.933594 23.640625 20.894531 23.710938 C 20.859375 23.785156 20.808594 23.839844 20.742188 23.882812 C 20.675781 23.921875 20.597656 23.941406 20.511719 23.941406 Z M 20.511719 23.789062 C 20.570312 23.789062 20.617188 23.773438 20.652344 23.742188 C 20.691406 23.714844 20.71875 23.671875 20.738281 23.621094 C 20.753906 23.574219 20.765625 23.515625 20.765625 23.457031 C 20.765625 23.398438 20.753906 23.339844 20.738281 23.292969 C 20.71875 23.242188 20.691406 23.199219 20.652344 23.167969 C 20.617188 23.136719 20.570312 23.125 20.511719 23.125 C 20.453125 23.125 20.40625 23.136719 20.367188 23.167969 C 20.332031 23.199219 20.304688 23.242188 20.285156 23.292969 C 20.265625 23.339844 20.257812 23.398438 20.257812 23.457031 C 20.257812 23.515625 20.265625 23.574219 20.285156 23.621094 C 20.304688 23.671875 20.332031 23.714844 20.367188 23.742188 C 20.40625 23.773438 20.453125 23.789062 20.511719 23.789062 Z M 21.339844 22.667969 L 21.339844 23.921875 L 21.15625 23.921875 L 21.15625 22.667969 Z M 21.859375 23.945312 C 21.800781 23.945312 21.746094 23.933594 21.695312 23.910156 C 21.648438 23.890625 21.609375 23.855469 21.582031 23.8125 C 21.554688 23.773438 21.539062 23.71875 21.539062 23.65625 C 21.539062 23.605469 21.550781 23.5625 21.570312 23.527344 C 21.589844 23.492188 21.621094 23.464844 21.652344 23.445312 C 21.6875 23.425781 21.726562 23.410156 21.769531 23.398438 C 21.8125 23.390625 21.855469 23.382812 21.902344 23.375 C 21.957031 23.371094 22.003906 23.363281 22.039062 23.359375 C 22.074219 23.355469 22.101562 23.347656 22.117188 23.339844 C 22.132812 23.328125 22.140625 23.3125 22.140625 23.292969 L 22.140625 23.285156 C 22.140625 23.234375 22.125 23.191406 22.09375 23.164062 C 22.0625 23.132812 22.019531 23.117188 21.960938 23.117188 C 21.898438 23.117188 21.851562 23.132812 21.816406 23.160156 C 21.78125 23.1875 21.753906 23.214844 21.742188 23.25 L 21.570312 23.210938 C 21.589844 23.152344 21.621094 23.105469 21.660156 23.070312 C 21.699219 23.035156 21.742188 23.011719 21.796875 22.996094 C 21.847656 22.976562 21.902344 22.96875 21.957031 22.96875 C 21.996094 22.96875 22.035156 22.972656 22.078125 22.984375 C 22.121094 22.992188 22.160156 23.007812 22.195312 23.03125 C 22.234375 23.054688 22.265625 23.085938 22.289062 23.132812 C 22.3125 23.175781 22.324219 23.230469 22.324219 23.296875 L 22.324219 23.921875 L 22.144531 23.921875 L 22.144531 23.796875 L 22.136719 23.796875 C 22.125 23.820312 22.109375 23.84375 22.082031 23.863281 C 22.058594 23.886719 22.03125 23.90625 21.992188 23.921875 C 21.957031 23.9375 21.910156 23.945312 21.859375 23.945312 Z M 21.898438 23.796875 C 21.949219 23.796875 21.992188 23.789062 22.027344 23.765625 C 22.066406 23.746094 22.09375 23.722656 22.113281 23.6875 C 22.128906 23.65625 22.140625 23.621094 22.140625 23.585938 L 22.140625 23.460938 C 22.132812 23.46875 22.121094 23.476562 22.101562 23.480469 C 22.082031 23.488281 22.0625 23.492188 22.039062 23.496094 C 22.015625 23.5 21.992188 23.503906 21.96875 23.503906 C 21.945312 23.507812 21.929688 23.511719 21.914062 23.511719 C 21.878906 23.515625 21.84375 23.523438 21.816406 23.535156 C 21.785156 23.546875 21.761719 23.5625 21.746094 23.582031 C 21.730469 23.601562 21.71875 23.628906 21.71875 23.660156 C 21.71875 23.707031 21.738281 23.738281 21.769531 23.761719 C 21.804688 23.785156 21.847656 23.796875 21.898438 23.796875 Z M 22.566406 23.921875 L 22.566406 22.980469 L 22.75 22.980469 L 22.75 23.921875 Z M 22.660156 22.835938 C 22.628906 22.835938 22.601562 22.828125 22.578125 22.804688 C 22.554688 22.785156 22.542969 22.757812 22.542969 22.726562 C 22.542969 22.699219 22.554688 22.671875 22.578125 22.652344 C 22.601562 22.628906 22.628906 22.617188 22.660156 22.617188 C 22.691406 22.617188 22.71875 22.628906 22.742188 22.652344 C 22.765625 22.671875 22.777344 22.699219 22.777344 22.726562 C 22.777344 22.757812 22.765625 22.785156 22.742188 22.804688 C 22.71875 22.828125 22.691406 22.835938 22.660156 22.835938 Z M 23.804688 22.980469 L 23.460938 23.921875 L 23.265625 23.921875 L 22.921875 22.980469 L 23.121094 22.980469 L 23.359375 23.707031 L 23.367188 23.707031 L 23.605469 22.980469 Z M 23.804688 22.980469 " fill-opacity="1" fill-rule="nonzero"/><g mask="url(#53a0e47e21)"><g transform="matrix(1, 0, 0, 1, 11, 13)"><g clip-path="url(#53acbe9eac)"><g clip-path="url(#a572159ec0)"><path fill="#ff5757" d="M 1.089844 1.089844 L 1.5625 1.089844 L 2.386719 3.097656 L 2.414062 3.097656 L 3.238281 1.089844 L 3.710938 1.089844 L 3.710938 3.671875 L 3.339844 3.671875 L 3.339844 1.804688 L 3.316406 1.804688 L 2.554688 3.667969 L 2.246094 3.667969 L 1.484375 1.800781 L 1.460938 1.800781 L 1.460938 3.671875 L 1.089844 3.671875 Z M 3.972656 1.089844 L 4.414062 1.089844 L 5.089844 2.265625 L 5.117188 2.265625 L 5.792969 1.089844 L 6.234375 1.089844 L 5.296875 2.660156 L 5.296875 3.671875 L 4.910156 3.671875 L 4.910156 2.660156 Z M 6.496094 3.671875 L 6.496094 1.089844 L 6.886719 1.089844 L 6.886719 2.324219 L 6.917969 2.324219 L 8 1.089844 L 8.492188 1.089844 L 7.449219 2.253906 L 8.496094 3.671875 L 8.027344 3.671875 L 7.191406 2.519531 L 6.886719 2.867188 L 6.886719 3.671875 Z M 10.863281 2.382812 C 10.863281 2.65625 10.8125 2.894531 10.710938 3.09375 C 10.609375 3.289062 10.472656 3.441406 10.296875 3.550781 C 10.121094 3.65625 9.921875 3.707031 9.699219 3.707031 C 9.476562 3.707031 9.277344 3.65625 9.101562 3.550781 C 8.925781 3.441406 8.789062 3.289062 8.6875 3.089844 C 8.585938 2.894531 8.535156 2.65625 8.535156 2.382812 C 8.535156 2.105469 8.585938 1.867188 8.6875 1.671875 C 8.789062 1.472656 8.925781 1.320312 9.101562 1.214844 C 9.277344 1.109375 9.476562 1.054688 9.699219 1.054688 C 9.921875 1.054688 10.121094 1.109375 10.296875 1.214844 C 10.472656 1.320312 10.609375 1.472656 10.710938 1.671875 C 10.8125 1.867188 10.863281 2.105469 10.863281 2.382812 Z M 10.476562 2.382812 C 10.476562 2.171875 10.441406 1.992188 10.375 1.851562 C 10.308594 1.707031 10.214844 1.597656 10.097656 1.523438 C 9.980469 1.449219 9.847656 1.410156 9.699219 1.410156 C 9.550781 1.410156 9.417969 1.449219 9.300781 1.523438 C 9.183594 1.597656 9.09375 1.707031 9.023438 1.851562 C 8.957031 1.992188 8.921875 2.171875 8.921875 2.382812 C 8.921875 2.589844 8.957031 2.769531 9.023438 2.914062 C 9.09375 3.058594 9.183594 3.167969 9.300781 3.242188 C 9.417969 3.316406 9.550781 3.351562 9.699219 3.351562 C 9.847656 3.351562 9.980469 3.316406 10.097656 3.242188 C 10.214844 3.167969 10.308594 3.058594 10.375 2.914062 C 10.441406 2.769531 10.476562 2.589844 10.476562 2.382812 Z M 11.242188 3.671875 L 11.242188 1.089844 L 11.632812 1.089844 L 11.632812 3.335938 L 12.804688 3.335938 L 12.804688 3.671875 Z M 13.492188 3.671875 L 13.078125 3.671875 L 14.007812 1.089844 L 14.457031 1.089844 L 15.386719 3.671875 L 14.972656 3.671875 L 14.242188 1.558594 L 14.222656 1.558594 Z M 13.558594 2.660156 L 14.902344 2.660156 L 14.902344 2.988281 L 13.558594 2.988281 Z M 16.042969 1.089844 L 16.042969 3.671875 L 15.652344 3.671875 L 15.652344 1.089844 Z M 16.730469 1.089844 L 17.449219 3.191406 L 17.476562 3.191406 L 18.195312 1.089844 L 18.617188 1.089844 L 17.6875 3.671875 L 17.238281 3.671875 L 16.308594 1.089844 Z M 16.730469 1.089844 " fill-opacity="1" fill-rule="nonzero"/></g></g></g></g></svg>