<svg xmlns="http://www.w3.org/2000/svg" xmlns:xlink="http://www.w3.org/1999/xlink" width="50" zoomAndPan="magnify" viewBox="0 0 37.5 37.499999" height="50" preserveAspectRatio="xMidYMid meet" version="1.0"><defs><clipPath id="50d042b47b"><path d="M 10.796875 12.269531 L 36.703125 12.269531 L 36.703125 37.007812 L 10.796875 37.007812 Z M 10.796875 12.269531 " clip-rule="nonzero"/></clipPath><clipPath id="25c4ef3c38"><path d="M 12 13 L 36.703125 13 L 36.703125 37.007812 L 12 37.007812 Z M 12 13 " clip-rule="nonzero"/></clipPath><clipPath id="4f30b6781e"><path d="M 13 15 L 36.703125 15 L 36.703125 37.007812 L 13 37.007812 Z M 13 15 " clip-rule="nonzero"/></clipPath><clipPath id="f9c02ac7f2"><path d="M 15 16 L 36.703125 16 L 36.703125 37.007812 L 15 37.007812 Z M 15 16 " clip-rule="nonzero"/></clipPath><clipPath id="49d881b71e"><path d="M 16 17 L 36.703125 17 L 36.703125 37.007812 L 16 37.007812 Z M 16 17 " clip-rule="nonzero"/></clipPath><clipPath id="a2a8d3b837"><path d="M 17 19 L 36.703125 19 L 36.703125 37.007812 L 17 37.007812 Z M 17 19 " clip-rule="nonzero"/></clipPath><clipPath id="108695fe57"><path d="M 19 20 L 36.703125 20 L 36.703125 37.007812 L 19 37.007812 Z M 19 20 " clip-rule="nonzero"/></clipPath><clipPath id="da7c027570"><path d="M 20 22 L 36.703125 22 L 36.703125 37.007812 L 20 37.007812 Z M 20 22 " clip-rule="nonzero"/></clipPath><clipPath id="b6ad69f536"><path d="M 22 23 L 36.703125 23 L 36.703125 37.007812 L 22 37.007812 Z M 22 23 " clip-rule="nonzero"/></clipPath><clipPath id="9f4aa07c5a"><path d="M 23 24 L 36.703125 24 L 36.703125 37.007812 L 23 37.007812 Z M 23 24 " clip-rule="nonzero"/></clipPath><clipPath id="a62a441179"><path d="M 24 26 L 36.703125 26 L 36.703125 37.007812 L 24 37.007812 Z M 24 26 " clip-rule="nonzero"/></clipPath><clipPath id="994629f6e5"><path d="M 26 27 L 36.703125 27 L 36.703125 37.007812 L 26 37.007812 Z M 26 27 " clip-rule="nonzero"/></clipPath><clipPath id="393941311f"><path d="M 15 25 L 17 25 L 17 30.246094 L 15 30.246094 Z M 15 25 " clip-rule="nonzero"/></clipPath><clipPath id="f76108f059"><path d="M 4.25 21 L 14 21 L 14 23 L 4.25 23 Z M 4.25 21 " clip-rule="nonzero"/></clipPath><clipPath id="907db90970"><path d="M 13 24 L 19 24 L 19 30.246094 L 13 30.246094 Z M 13 24 " clip-rule="nonzero"/></clipPath><clipPath id="162f2d0aa0"><path d="M 20 24 L 26 24 L 26 30.246094 L 20 30.246094 Z M 20 24 " clip-rule="nonzero"/></clipPath><clipPath id="2b41d356d1"><path d="M 22 25 L 25 25 L 25 30.246094 L 22 30.246094 Z M 22 25 " clip-rule="nonzero"/></clipPath><clipPath id="7e4e9ce46b"><path d="M 24 16 L 33.117188 16 L 33.117188 26 L 24 26 Z M 24 16 " clip-rule="nonzero"/></clipPath><clipPath id="2fff4d61cf"><path d="M 17 24 L 22 24 L 22 30.246094 L 17 30.246094 Z M 17 24 " clip-rule="nonzero"/></clipPath><clipPath id="86c11ef7b9"><path d="M 18 25 L 21 25 L 21 30.246094 L 18 30.246094 Z M 18 25 " clip-rule="nonzero"/></clipPath><clipPath id="052d670a2c"><path d="M 4.25 7 L 9 7 L 9 20 L 4.25 20 Z M 4.25 7 " clip-rule="nonzero"/></clipPath><clipPath id="008eb9334e"><path d="M 13 2.859375 L 28 2.859375 L 28 23 L 13 23 Z M 13 2.859375 " clip-rule="nonzero"/></clipPath></defs><g clip-path="url(#50d042b47b)"><path fill="#d9d9d9" d="M 31.902344 12.332031 C 30.519531 12.382812 29.167969 12.683594 27.988281 13.203125 C 26.683594 13.785156 25.636719 14.605469 24.878906 15.640625 C 24.355469 16.359375 23.980469 17.171875 23.613281 17.960938 C 23.21875 18.816406 22.808594 19.699219 22.21875 20.4375 C 21.160156 21.75 19.65625 22.492188 18.0625 23.277344 C 17.003906 23.800781 15.910156 24.339844 14.964844 25.066406 C 13.519531 26.171875 12.386719 27.765625 11.695312 29.671875 C 11.054688 31.4375 10.796875 33.410156 10.953125 35.378906 C 11.078125 37.011719 11.457031 38.605469 11.972656 40.136719 L 12.355469 40.136719 C 11.828125 38.597656 11.441406 36.992188 11.316406 35.351562 C 10.996094 31.257812 12.476562 27.429688 15.1875 25.355469 C 16.101562 24.652344 17.183594 24.121094 18.226562 23.605469 C 19.785156 22.835938 21.394531 22.042969 22.503906 20.664062 C 23.121094 19.894531 23.539062 18.988281 23.945312 18.113281 C 24.300781 17.339844 24.671875 16.542969 25.175781 15.855469 C 26.542969 13.976562 29.0625 12.796875 31.914062 12.695312 C 33.628906 12.636719 35.3125 12.921875 37.003906 13.347656 L 37.003906 12.972656 C 35.316406 12.550781 33.628906 12.269531 31.902344 12.332031 Z M 31.902344 12.332031 " fill-opacity="1" fill-rule="nonzero"/></g><g clip-path="url(#25c4ef3c38)"><path fill="#d9d9d9" d="M 31.949219 13.726562 C 29.832031 13.804688 27.886719 14.480469 26.472656 15.628906 C 26.050781 15.96875 25.675781 16.355469 25.359375 16.769531 C 24.863281 17.429688 24.496094 18.179688 24.140625 18.90625 C 23.761719 19.6875 23.367188 20.496094 22.808594 21.171875 C 21.820312 22.367188 20.4375 23.058594 18.976562 23.792969 C 17.972656 24.292969 16.9375 24.8125 16.042969 25.507812 C 14.691406 26.570312 13.644531 28.085938 13.011719 29.890625 C 12.429688 31.554688 12.207031 33.421875 12.363281 35.285156 C 12.503906 36.957031 12.914062 38.585938 13.46875 40.136719 L 13.855469 40.136719 C 13.289062 38.574219 12.867188 36.933594 12.726562 35.253906 C 12.398438 31.390625 13.753906 27.765625 16.265625 25.796875 C 16.699219 25.460938 17.171875 25.164062 17.65625 24.890625 C 18.144531 24.617188 18.644531 24.363281 19.136719 24.117188 C 20.570312 23.402344 22.054688 22.660156 23.089844 21.402344 C 23.675781 20.695312 24.078125 19.867188 24.46875 19.066406 C 24.816406 18.355469 25.171875 17.621094 25.652344 16.992188 C 25.949219 16.597656 26.300781 16.234375 26.699219 15.910156 C 28.054688 14.8125 29.921875 14.164062 31.960938 14.089844 C 33.671875 14.027344 35.367188 14.335938 37.003906 14.761719 L 37.003906 14.386719 C 35.367188 13.964844 33.671875 13.664062 31.949219 13.726562 Z M 31.949219 13.726562 " fill-opacity="1" fill-rule="nonzero"/></g><g clip-path="url(#4f30b6781e)"><path fill="#d9d9d9" d="M 31.996094 15.121094 C 30.035156 15.195312 28.21875 15.8125 26.890625 16.859375 C 26.492188 17.171875 26.140625 17.523438 25.84375 17.902344 C 25.367188 18.503906 25.011719 19.1875 24.667969 19.851562 C 24.300781 20.558594 23.921875 21.292969 23.402344 21.90625 C 22.484375 22.980469 21.230469 23.617188 19.898438 24.292969 C 18.949219 24.777344 17.964844 25.277344 17.121094 25.953125 C 15.867188 26.960938 14.898438 28.394531 14.328125 30.109375 C 13.804688 31.671875 13.613281 33.429688 13.773438 35.1875 C 13.929688 36.90625 14.382812 38.570312 14.972656 40.136719 L 15.363281 40.136719 C 14.757812 38.558594 14.292969 36.882812 14.136719 35.15625 C 13.800781 31.511719 15.03125 28.09375 17.347656 26.238281 C 18.160156 25.585938 19.128906 25.09375 20.066406 24.617188 C 21.367188 23.957031 22.714844 23.273438 23.679688 22.140625 C 24.226562 21.496094 24.617188 20.746094 24.992188 20.019531 C 25.328125 19.371094 25.671875 18.703125 26.128906 18.125 C 26.410156 17.769531 26.742188 17.441406 27.113281 17.144531 C 28.386719 16.144531 30.125 15.554688 32.011719 15.484375 C 33.726562 15.421875 35.429688 15.753906 37.003906 16.179688 L 37.003906 15.804688 C 35.429688 15.382812 33.726562 15.058594 31.996094 15.121094 Z M 31.996094 15.121094 " fill-opacity="1" fill-rule="nonzero"/></g><g clip-path="url(#f9c02ac7f2)"><path fill="#d9d9d9" d="M 32.046875 16.515625 C 30.238281 16.585938 28.554688 17.144531 27.308594 18.09375 C 26.9375 18.371094 26.609375 18.6875 26.324219 19.03125 C 25.871094 19.574219 25.527344 20.195312 25.195312 20.796875 C 24.84375 21.433594 24.480469 22.085938 23.992188 22.640625 C 23.148438 23.59375 22.019531 24.179688 20.820312 24.800781 C 19.921875 25.265625 18.992188 25.746094 18.199219 26.398438 C 17.039062 27.355469 16.15625 28.710938 15.644531 30.324219 C 15.179688 31.789062 15.019531 33.441406 15.1875 35.09375 C 15.359375 36.859375 15.855469 38.554688 16.488281 40.136719 L 16.878906 40.136719 C 16.234375 38.542969 15.722656 36.835938 15.546875 35.054688 C 15.199219 31.585938 16.277344 28.453125 18.429688 26.679688 C 19.191406 26.050781 20.105469 25.578125 20.988281 25.121094 C 22.160156 24.515625 23.375 23.886719 24.265625 22.878906 C 24.777344 22.296875 25.152344 21.625 25.511719 20.972656 C 25.835938 20.386719 26.171875 19.78125 26.605469 19.261719 C 26.871094 18.941406 27.179688 18.644531 27.527344 18.382812 C 28.714844 17.480469 30.324219 16.945312 32.058594 16.878906 C 33.746094 16.816406 35.414062 17.152344 37.003906 17.601562 L 37.003906 17.222656 C 35.414062 16.78125 33.742188 16.449219 32.046875 16.515625 Z M 32.046875 16.515625 " fill-opacity="1" fill-rule="nonzero"/></g><g clip-path="url(#49d881b71e)"><path fill="#d9d9d9" d="M 32.09375 17.910156 C 30.441406 17.976562 28.890625 18.476562 27.726562 19.324219 C 27.382812 19.574219 27.074219 19.855469 26.808594 20.160156 C 26.375 20.648438 26.042969 21.207031 25.71875 21.746094 C 25.382812 22.304688 25.035156 22.882812 24.585938 23.375 C 23.816406 24.207031 22.808594 24.738281 21.742188 25.300781 C 20.894531 25.75 20.015625 26.210938 19.277344 26.84375 C 17.230469 28.585938 16.226562 31.632812 16.597656 34.996094 C 16.792969 36.820312 17.339844 38.546875 18.011719 40.136719 L 18.410156 40.136719 C 17.71875 38.535156 17.15625 36.792969 16.960938 34.957031 C 16.601562 31.714844 17.558594 28.785156 19.511719 27.121094 C 20.222656 26.515625 21.082031 26.0625 21.914062 25.621094 C 22.960938 25.070312 24.039062 24.5 24.851562 23.621094 C 25.328125 23.101562 25.6875 22.507812 26.03125 21.929688 C 26.34375 21.40625 26.671875 20.863281 27.082031 20.398438 C 27.328125 20.117188 27.621094 19.851562 27.941406 19.617188 C 29.046875 18.8125 30.527344 18.335938 32.109375 18.273438 C 32.242188 18.269531 32.378906 18.265625 32.511719 18.265625 C 34.085938 18.265625 35.628906 18.621094 37.003906 19.027344 L 37.003906 18.648438 C 35.503906 18.210938 33.816406 17.839844 32.09375 17.910156 Z M 32.09375 17.910156 " fill-opacity="1" fill-rule="nonzero"/></g><g clip-path="url(#a2a8d3b837)"><path fill="#d9d9d9" d="M 32.140625 19.304688 C 30.644531 19.367188 29.226562 19.8125 28.148438 20.554688 C 27.828125 20.773438 27.542969 21.019531 27.289062 21.285156 C 26.878906 21.71875 26.554688 22.214844 26.242188 22.691406 C 25.921875 23.175781 25.59375 23.675781 25.175781 24.105469 C 24.484375 24.820312 23.605469 25.296875 22.671875 25.796875 C 21.871094 26.230469 21.046875 26.675781 20.351562 27.289062 C 19.371094 28.15625 18.671875 29.324219 18.273438 30.761719 C 17.925781 32.027344 17.835938 33.460938 18.007812 34.902344 C 18.230469 36.773438 18.851562 38.5625 19.554688 40.136719 L 19.953125 40.136719 C 19.234375 38.554688 18.59375 36.746094 18.371094 34.859375 C 18.003906 31.839844 18.835938 29.113281 20.59375 27.5625 C 21.253906 26.976562 22.0625 26.539062 22.84375 26.117188 C 23.757812 25.625 24.707031 25.113281 25.4375 24.359375 C 25.878906 23.90625 26.21875 23.390625 26.546875 22.890625 C 26.867188 22.40625 27.167969 21.945312 27.554688 21.535156 C 27.789062 21.289062 28.058594 21.058594 28.355469 20.855469 C 29.375 20.148438 30.726562 19.726562 32.15625 19.667969 C 32.289062 19.664062 32.417969 19.660156 32.550781 19.660156 C 34.179688 19.660156 35.75 20.066406 37.003906 20.460938 L 37.003906 20.078125 C 35.636719 19.65625 33.917969 19.230469 32.140625 19.304688 Z M 32.140625 19.304688 " fill-opacity="1" fill-rule="nonzero"/></g><g clip-path="url(#108695fe57)"><path fill="#d9d9d9" d="M 36.925781 21.496094 C 35.085938 20.890625 33.582031 20.636719 32.191406 20.699219 C 30.847656 20.757812 29.5625 21.144531 28.566406 21.785156 C 28.277344 21.976562 28.011719 22.1875 27.773438 22.414062 C 27.386719 22.792969 27.070312 23.222656 26.761719 23.640625 C 26.460938 24.046875 26.148438 24.472656 25.769531 24.839844 C 25.15625 25.433594 24.40625 25.847656 23.609375 26.289062 C 22.855469 26.707031 22.074219 27.140625 21.429688 27.734375 C 20.542969 28.550781 19.925781 29.644531 19.589844 30.984375 C 19.300781 32.148438 19.242188 33.46875 19.421875 34.804688 C 19.675781 36.757812 20.371094 38.585938 21.105469 40.136719 L 21.511719 40.136719 C 20.757812 38.578125 20.039062 36.726562 19.78125 34.757812 C 19.402344 31.925781 20.09375 29.464844 21.675781 28 C 22.289062 27.4375 23.050781 27.015625 23.785156 26.609375 C 24.566406 26.175781 25.375 25.726562 26.023438 25.101562 C 26.425781 24.710938 26.746094 24.277344 27.054688 23.855469 C 27.367188 23.429688 27.660156 23.03125 28.027344 22.675781 C 28.246094 22.464844 28.496094 22.269531 28.765625 22.09375 C 29.707031 21.484375 30.929688 21.117188 32.207031 21.0625 C 33.550781 21.003906 35.015625 21.25 36.8125 21.839844 C 36.875 21.863281 36.9375 21.882812 37.003906 21.902344 L 37.003906 21.519531 C 36.976562 21.511719 36.949219 21.503906 36.925781 21.496094 Z M 36.925781 21.496094 " fill-opacity="1" fill-rule="nonzero"/></g><g clip-path="url(#da7c027570)"><path fill="#d9d9d9" d="M 36.46875 22.789062 C 34.898438 22.261719 33.511719 22.035156 32.238281 22.09375 C 31.054688 22.148438 29.902344 22.476562 28.988281 23.015625 C 28.726562 23.175781 28.480469 23.351562 28.261719 23.539062 C 27.890625 23.863281 27.578125 24.230469 27.277344 24.589844 C 26.996094 24.921875 26.703125 25.265625 26.363281 25.570312 C 25.835938 26.042969 25.1875 26.410156 24.558594 26.769531 C 23.847656 27.175781 23.105469 27.59375 22.507812 28.179688 C 21.039062 29.609375 20.429688 31.988281 20.832031 34.710938 C 21.078125 36.378906 21.667969 38.121094 22.675781 40.136719 L 23.085938 40.136719 C 22.042969 38.085938 21.4375 36.332031 21.191406 34.660156 C 20.808594 32.050781 21.378906 29.785156 22.761719 28.441406 C 23.328125 27.886719 24.046875 27.480469 24.742188 27.085938 C 25.382812 26.71875 26.050781 26.339844 26.609375 25.84375 C 26.964844 25.519531 27.265625 25.167969 27.554688 24.824219 C 27.859375 24.460938 28.148438 24.117188 28.5 23.816406 C 28.703125 23.640625 28.929688 23.476562 29.175781 23.328125 C 30.039062 22.816406 31.128906 22.507812 32.253906 22.457031 C 32.378906 22.449219 32.503906 22.449219 32.632812 22.449219 C 33.757812 22.449219 34.980469 22.675781 36.351562 23.136719 C 36.574219 23.210938 36.792969 23.285156 37.003906 23.363281 L 37.003906 22.976562 C 36.828125 22.914062 36.648438 22.851562 36.46875 22.789062 Z M 36.46875 22.789062 " fill-opacity="1" fill-rule="nonzero"/></g><g clip-path="url(#b6ad69f536)"><path fill="#d9d9d9" d="M 36.011719 24.085938 C 34.683594 23.625 33.464844 23.429688 32.285156 23.488281 C 31.261719 23.539062 30.242188 23.808594 29.414062 24.246094 C 29.175781 24.371094 28.953125 24.511719 28.75 24.664062 C 28.390625 24.933594 28.082031 25.242188 27.78125 25.542969 C 27.523438 25.796875 27.257812 26.0625 26.960938 26.300781 C 26.527344 26.652344 26.023438 26.945312 25.535156 27.230469 C 24.851562 27.628906 24.144531 28.042969 23.582031 28.628906 C 21.851562 30.429688 22 33.152344 22.242188 34.617188 C 22.527344 36.324219 23.171875 38.082031 24.265625 40.136719 L 24.675781 40.136719 C 24.660156 40.109375 24.644531 40.082031 24.632812 40.054688 C 23.527344 37.996094 22.882812 36.25 22.601562 34.558594 C 22.371094 33.160156 22.222656 30.566406 23.84375 28.878906 C 24.371094 28.332031 25.054688 27.933594 25.71875 27.546875 C 26.21875 27.253906 26.734375 26.953125 27.191406 26.585938 C 27.5 26.335938 27.773438 26.0625 28.039062 25.800781 C 28.34375 25.496094 28.628906 25.207031 28.96875 24.953125 C 29.15625 24.816406 29.363281 24.683594 29.585938 24.566406 C 30.367188 24.152344 31.332031 23.898438 32.304688 23.851562 C 32.429688 23.84375 32.558594 23.839844 32.6875 23.839844 C 33.699219 23.839844 34.753906 24.035156 35.890625 24.429688 C 36.28125 24.5625 36.652344 24.707031 37.003906 24.859375 L 37.003906 24.460938 C 36.6875 24.328125 36.355469 24.203125 36.011719 24.085938 Z M 36.011719 24.085938 " fill-opacity="1" fill-rule="nonzero"/></g><g clip-path="url(#9f4aa07c5a)"><path fill="#d9d9d9" d="M 35.554688 25.378906 C 34.480469 24.992188 33.394531 24.824219 32.332031 24.882812 C 31.476562 24.925781 30.589844 25.136719 29.839844 25.472656 C 29.628906 25.570312 29.429688 25.675781 29.246094 25.785156 C 28.878906 26.007812 28.554688 26.265625 28.238281 26.515625 C 28.019531 26.6875 27.796875 26.867188 27.558594 27.03125 C 27.25 27.25 26.910156 27.453125 26.578125 27.644531 C 25.898438 28.050781 25.195312 28.464844 24.65625 29.078125 C 24.0625 29.746094 23.6875 30.613281 23.542969 31.652344 C 23.421875 32.515625 23.460938 33.484375 23.65625 34.523438 C 23.949219 36.082031 24.558594 37.707031 25.515625 39.492188 C 25.632812 39.707031 25.753906 39.921875 25.875 40.136719 L 26.296875 40.136719 C 26.136719 39.867188 25.984375 39.59375 25.835938 39.320312 C 24.898438 37.566406 24.300781 35.976562 24.015625 34.457031 C 23.722656 32.917969 23.644531 30.773438 24.929688 29.316406 C 25.429688 28.75 26.109375 28.347656 26.765625 27.960938 C 27.101562 27.761719 27.449219 27.554688 27.769531 27.328125 C 28.015625 27.15625 28.242188 26.976562 28.464844 26.800781 C 28.785156 26.546875 29.089844 26.308594 29.433594 26.097656 C 29.605469 25.992188 29.792969 25.894531 29.992188 25.804688 C 30.699219 25.488281 31.539062 25.289062 32.351562 25.246094 C 32.480469 25.238281 32.609375 25.234375 32.734375 25.234375 C 33.625 25.234375 34.53125 25.398438 35.429688 25.722656 C 35.992188 25.925781 36.519531 26.164062 37.003906 26.4375 L 37.003906 26.023438 C 36.550781 25.78125 36.066406 25.566406 35.554688 25.378906 Z M 35.554688 25.378906 " fill-opacity="1" fill-rule="nonzero"/></g><g clip-path="url(#a62a441179)"><path fill="#d9d9d9" d="M 35.101562 26.675781 C 34.253906 26.355469 33.339844 26.21875 32.382812 26.277344 C 31.691406 26.316406 30.960938 26.464844 30.273438 26.703125 C 30.089844 26.765625 29.910156 26.835938 29.746094 26.910156 C 29.28125 27.113281 28.863281 27.355469 28.425781 27.609375 C 28.339844 27.660156 28.25 27.710938 28.164062 27.761719 C 28.0625 27.816406 27.960938 27.875 27.863281 27.929688 C 27.089844 28.363281 26.292969 28.808594 25.726562 29.527344 C 24.835938 30.660156 24.609375 32.355469 25.066406 34.433594 C 25.371094 35.816406 25.925781 37.273438 26.722656 38.753906 C 26.957031 39.1875 27.207031 39.617188 27.464844 40.035156 C 27.488281 40.070312 27.507812 40.105469 27.53125 40.136719 L 27.960938 40.136719 C 27.898438 40.039062 27.835938 39.941406 27.773438 39.84375 C 27.519531 39.433594 27.273438 39.007812 27.042969 38.582031 C 26.261719 37.128906 25.71875 35.707031 25.425781 34.355469 C 25.121094 32.984375 24.976562 31.070312 26.015625 29.753906 C 26.535156 29.09375 27.300781 28.664062 28.039062 28.246094 C 28.140625 28.191406 28.242188 28.132812 28.34375 28.074219 C 28.433594 28.023438 28.519531 27.972656 28.605469 27.925781 C 29.039062 27.671875 29.445312 27.4375 29.890625 27.242188 C 30.046875 27.171875 30.214844 27.105469 30.390625 27.046875 C 31.050781 26.820312 31.746094 26.679688 32.402344 26.640625 C 33.308594 26.585938 34.171875 26.714844 34.96875 27.015625 C 35.726562 27.304688 36.417969 27.726562 37.003906 28.25 L 37.003906 27.769531 C 36.4375 27.3125 35.796875 26.941406 35.101562 26.675781 Z M 35.101562 26.675781 " fill-opacity="1" fill-rule="nonzero"/></g><g clip-path="url(#994629f6e5)"><path fill="#d9d9d9" d="M 36.96875 30.199219 C 36.554688 29.449219 35.8125 28.457031 34.648438 27.972656 C 33.367188 27.445312 31.945312 27.671875 30.710938 27.929688 C 29.253906 28.234375 27.652344 28.714844 26.800781 29.980469 C 26.097656 31.03125 25.992188 32.457031 26.480469 34.34375 C 26.914062 36.007812 27.617188 37.613281 28.570312 39.113281 C 28.792969 39.460938 29.03125 39.804688 29.277344 40.136719 L 29.734375 40.136719 C 29.429688 39.742188 29.144531 39.335938 28.878906 38.917969 C 27.945312 37.449219 27.257812 35.878906 26.832031 34.25 C 26.371094 32.472656 26.460938 31.140625 27.101562 30.183594 C 27.878906 29.027344 29.398438 28.574219 30.785156 28.285156 C 31.964844 28.042969 33.324219 27.820312 34.507812 28.308594 C 35.574219 28.75 36.261719 29.675781 36.652344 30.375 C 36.78125 30.609375 36.898438 30.851562 37.003906 31.097656 L 37.003906 30.261719 C 36.992188 30.242188 36.980469 30.21875 36.96875 30.199219 Z M 36.96875 30.199219 " fill-opacity="1" fill-rule="nonzero"/></g><path fill="#000000" d="M 16.132812 18.945312 C 15.8125 19.554688 15.570312 20.058594 15.5 20.035156 C 15.429688 20.011719 15.566406 19.453125 15.898438 18.828125 C 16.230469 18.199219 16.621094 17.773438 16.679688 17.8125 C 16.742188 17.855469 16.453125 18.339844 16.132812 18.945312 Z M 15.398438 12.042969 C 15.410156 12.050781 15.441406 12.0625 15.507812 12.058594 C 15.78125 12.050781 16.023438 11.984375 16.054688 12.050781 C 16.09375 12.101562 15.910156 12.273438 15.601562 12.3125 C 15.632812 12.382812 15.636719 12.46875 15.605469 12.542969 C 15.582031 12.605469 15.539062 12.65625 15.484375 12.683594 C 15.496094 12.699219 15.511719 12.710938 15.527344 12.722656 C 15.660156 12.859375 15.734375 13.035156 15.792969 13.199219 L 15.835938 13.3125 C 15.886719 13.457031 15.9375 13.59375 16.011719 13.71875 C 16.109375 13.886719 16.238281 14 16.378906 14.042969 C 16.394531 14.046875 16.414062 14.050781 16.429688 14.054688 C 16.46875 14.066406 16.519531 14.078125 16.5625 14.101562 C 16.664062 14.144531 16.730469 14.230469 16.734375 14.324219 C 16.742188 14.421875 16.6875 14.492188 16.648438 14.546875 C 16.628906 14.566406 16.613281 14.589844 16.609375 14.609375 C 16.589844 14.648438 16.609375 14.710938 16.625 14.757812 L 16.640625 14.792969 C 16.667969 14.863281 16.695312 14.9375 16.691406 15.027344 C 16.6875 15.171875 16.570312 15.296875 16.429688 15.300781 C 16.425781 15.300781 16.421875 15.300781 16.417969 15.300781 C 16.300781 15.300781 16.1875 15.25 16.082031 15.152344 C 16.039062 15.109375 16 15.066406 15.964844 15.023438 C 15.9375 14.988281 15.910156 14.957031 15.878906 14.929688 C 15.785156 14.832031 15.667969 14.765625 15.542969 14.691406 L 15.464844 14.648438 C 15.328125 14.566406 15.210938 14.484375 15.105469 14.394531 C 15.152344 14.671875 15.242188 14.941406 15.371094 15.1875 C 15.398438 15.105469 15.40625 15.035156 15.402344 14.984375 C 15.398438 14.917969 15.382812 14.878906 15.398438 14.867188 C 15.40625 14.855469 15.460938 14.875 15.5 14.957031 C 15.542969 15.035156 15.554688 15.167969 15.527344 15.308594 C 15.507812 15.453125 15.464844 15.589844 15.527344 15.714844 C 15.554688 15.78125 15.605469 15.859375 15.652344 15.964844 C 15.695312 16.074219 15.714844 16.191406 15.71875 16.304688 C 15.714844 16.535156 15.683594 16.71875 15.667969 16.902344 C 15.644531 17.078125 15.621094 17.238281 15.597656 17.375 C 15.550781 17.644531 15.503906 17.808594 15.46875 17.804688 C 15.429688 17.800781 15.410156 17.632812 15.410156 17.359375 C 15.410156 17.222656 15.414062 17.0625 15.421875 16.882812 C 15.429688 16.703125 15.453125 16.496094 15.453125 16.3125 C 15.449219 16.214844 15.4375 16.132812 15.410156 16.058594 C 15.378906 15.980469 15.332031 15.898438 15.296875 15.796875 C 15.261719 15.707031 15.257812 15.601562 15.273438 15.519531 C 15.171875 15.636719 15.09375 15.796875 15.054688 15.980469 C 15.003906 16.210938 15.007812 16.453125 15.011719 16.691406 L 15.085938 20.492188 L 15.292969 20.46875 C 15.425781 20.453125 15.550781 20.441406 15.671875 20.410156 C 15.707031 20.402344 15.734375 20.390625 15.765625 20.382812 C 15.847656 20.359375 15.929688 20.335938 16.019531 20.328125 C 16.179688 20.3125 16.328125 20.351562 16.46875 20.386719 L 16.558594 20.40625 C 16.683594 20.4375 16.847656 20.460938 16.976562 20.398438 C 17.011719 20.382812 17.050781 20.386719 17.085938 20.40625 C 17.113281 20.179688 17.132812 19.949219 17.148438 19.71875 C 17.167969 19.480469 17.183594 19.234375 17.214844 18.992188 C 17.191406 18.824219 17.242188 18.664062 17.289062 18.511719 C 17.316406 18.433594 17.335938 18.359375 17.351562 18.285156 C 17.382812 18.109375 17.355469 17.929688 17.324219 17.738281 C 17.320312 17.699219 17.3125 17.65625 17.308594 17.617188 C 17.257812 17.257812 17.253906 16.890625 17.25 16.535156 L 17.238281 15.742188 C 17.238281 15.714844 17.234375 15.683594 17.234375 15.652344 C 17.222656 15.464844 17.179688 15.214844 17.113281 14.929688 C 16.964844 14.355469 16.894531 13.878906 16.960938 13.855469 C 17.03125 13.832031 17.21875 14.289062 17.375 14.871094 C 17.390625 14.945312 17.402344 15.015625 17.414062 15.085938 C 17.503906 15.101562 17.59375 15.097656 17.695312 15.078125 C 17.730469 14.960938 17.726562 14.816406 17.691406 14.65625 C 17.683594 14.617188 17.675781 14.582031 17.664062 14.546875 C 17.640625 14.4375 17.613281 14.328125 17.601562 14.210938 C 17.589844 14.195312 17.574219 14.179688 17.558594 14.164062 C 17.515625 14.121094 17.472656 14.070312 17.441406 14.015625 C 17.289062 13.746094 17.132812 13.472656 16.941406 13.234375 C 16.761719 13.007812 16.5625 12.839844 16.355469 12.734375 C 16.308594 12.714844 16.265625 12.695312 16.226562 12.664062 C 16.144531 12.59375 16.128906 12.472656 16.1875 12.382812 C 16.246094 12.292969 16.363281 12.257812 16.460938 12.300781 C 16.460938 12.289062 16.464844 12.277344 16.464844 12.261719 C 16.464844 12.21875 16.453125 12.164062 16.441406 12.105469 L 16.433594 12.066406 C 16.417969 11.992188 16.40625 11.917969 16.394531 11.84375 C 16.378906 11.75 16.367188 11.667969 16.347656 11.585938 C 16.308594 11.433594 16.257812 11.320312 16.183594 11.246094 C 16.082031 11.140625 15.921875 11.078125 15.777344 11.03125 C 15.667969 10.992188 15.554688 10.960938 15.484375 10.988281 C 15.421875 11.011719 15.371094 11.101562 15.363281 11.195312 C 15.351562 11.320312 15.371094 11.488281 15.414062 11.636719 C 15.441406 11.722656 15.410156 11.8125 15.339844 11.867188 C 15.332031 11.871094 15.332031 11.878906 15.324219 11.882812 C 15.332031 11.90625 15.335938 11.933594 15.34375 11.960938 C 15.355469 11.996094 15.375 12.035156 15.398438 12.042969 " fill-opacity="1" fill-rule="nonzero"/><path fill="#000000" d="M 16.503906 20.632812 L 16.414062 20.609375 C 16.28125 20.578125 16.160156 20.550781 16.042969 20.558594 C 15.996094 20.5625 15.949219 20.574219 15.902344 20.585938 C 15.914062 20.648438 15.929688 20.710938 15.949219 20.78125 C 15.992188 20.933594 16.039062 21.089844 16.039062 21.246094 C 16.039062 21.402344 16.0625 21.554688 16.105469 21.703125 C 16.339844 21.714844 16.578125 21.722656 16.816406 21.734375 C 16.886719 21.738281 16.964844 21.746094 17.042969 21.753906 C 17.203125 21.773438 17.363281 21.789062 17.5 21.765625 L 17.570312 21.753906 C 17.570312 21.699219 17.570312 21.648438 17.5625 21.613281 C 17.554688 21.59375 17.546875 21.582031 17.542969 21.582031 C 17.535156 21.574219 17.484375 21.574219 17.453125 21.574219 L 17.425781 21.574219 C 17.308594 21.574219 17.183594 21.5625 17.070312 21.535156 C 16.984375 21.519531 16.878906 21.488281 16.800781 21.402344 C 16.679688 21.277344 16.6875 21.117188 16.6875 21.03125 C 16.6875 20.953125 16.695312 20.796875 16.785156 20.667969 C 16.683594 20.667969 16.585938 20.652344 16.503906 20.632812 " fill-opacity="1" fill-rule="nonzero"/><path fill="#000000" d="M 14.714844 13.992188 C 14.691406 13.960938 14.671875 13.929688 14.652344 13.898438 L 14.652344 15.179688 C 14.652344 15.285156 14.636719 15.371094 14.617188 15.457031 C 14.613281 15.484375 14.605469 15.515625 14.601562 15.546875 L 14.566406 16.09375 C 14.550781 16.339844 14.566406 16.585938 14.585938 16.84375 C 14.589844 16.957031 14.597656 17.074219 14.601562 17.183594 C 14.621094 17.605469 14.628906 18.027344 14.632812 18.382812 L 14.636719 18.789062 C 14.644531 19.363281 14.652344 19.953125 14.679688 20.539062 L 14.851562 20.519531 L 14.777344 16.695312 C 14.773438 16.445312 14.765625 16.1875 14.824219 15.929688 C 14.878906 15.671875 15 15.453125 15.160156 15.300781 C 14.972656 14.949219 14.863281 14.558594 14.839844 14.160156 C 14.839844 14.15625 14.839844 14.152344 14.839844 14.152344 C 14.792969 14.097656 14.753906 14.046875 14.714844 13.992188 " fill-opacity="1" fill-rule="nonzero"/><path fill="#000000" d="M 8.792969 21.316406 C 8.796875 21.332031 8.796875 21.347656 8.796875 21.363281 C 8.949219 21.359375 9.101562 21.359375 9.253906 21.355469 C 9.425781 21.351562 9.605469 21.347656 9.78125 21.347656 C 9.785156 21.292969 9.769531 21.222656 9.734375 21.144531 C 9.71875 21.109375 9.703125 21.074219 9.683594 21.039062 C 9.648438 20.972656 9.613281 20.902344 9.589844 20.824219 C 9.542969 20.675781 9.546875 20.519531 9.554688 20.378906 C 9.289062 20.347656 9.023438 20.308594 8.761719 20.253906 C 8.761719 20.261719 8.761719 20.265625 8.761719 20.273438 C 8.769531 20.335938 8.773438 20.402344 8.769531 20.46875 C 8.742188 20.714844 8.753906 20.964844 8.796875 21.210938 C 8.800781 21.234375 8.796875 21.257812 8.785156 21.277344 C 8.789062 21.289062 8.789062 21.304688 8.792969 21.316406 " fill-opacity="1" fill-rule="nonzero"/><path fill="#000000" d="M 11.636719 21.070312 C 11.566406 21.257812 11.503906 21.4375 11.5 21.613281 C 11.542969 21.613281 11.582031 21.613281 11.621094 21.613281 C 11.621094 21.425781 11.628906 21.246094 11.636719 21.070312 " fill-opacity="1" fill-rule="nonzero"/><path fill="#000000" d="M 14.242188 14.617188 C 14.257812 14.648438 14.269531 14.664062 14.28125 14.675781 C 14.304688 14.691406 14.328125 14.707031 14.355469 14.71875 C 14.375 14.730469 14.398438 14.742188 14.417969 14.757812 L 14.417969 13.699219 C 14.339844 13.707031 14.257812 13.671875 14.214844 13.605469 C 14.214844 13.609375 14.210938 13.613281 14.210938 13.617188 L 14.140625 14.242188 C 14.132812 14.3125 14.125 14.386719 14.121094 14.460938 C 14.125 14.460938 14.125 14.464844 14.128906 14.464844 C 14.1875 14.515625 14.21875 14.574219 14.242188 14.617188 " fill-opacity="1" fill-rule="nonzero"/><path fill="#000000" d="M 13.667969 16.363281 C 13.738281 16.386719 13.566406 17.082031 13.410156 17.945312 C 13.253906 18.808594 13.175781 19.519531 13.097656 19.519531 C 13.027344 19.515625 12.988281 18.785156 13.152344 17.902344 C 13.308594 17.015625 13.597656 16.339844 13.667969 16.363281 Z M 13.105469 12.101562 C 13.105469 12.09375 13.109375 12.089844 13.109375 12.082031 C 13.09375 12.085938 13.078125 12.085938 13.0625 12.085938 C 13.015625 12.085938 12.972656 12.085938 12.925781 12.085938 C 12.890625 12.085938 12.851562 12.085938 12.816406 12.085938 C 12.820312 12.113281 12.824219 12.136719 12.824219 12.15625 C 12.832031 12.382812 12.824219 12.613281 12.808594 12.839844 C 12.917969 12.804688 13.046875 12.800781 13.160156 12.867188 C 13.339844 12.964844 13.390625 13.171875 13.367188 13.332031 C 13.34375 13.492188 13.257812 13.625 13.167969 13.746094 L 13.132812 13.796875 C 13.066406 13.886719 13.003906 13.96875 12.964844 14.0625 C 12.957031 14.078125 12.953125 14.09375 12.949219 14.109375 C 12.929688 14.160156 12.90625 14.214844 12.871094 14.265625 L 12.863281 16.042969 C 12.863281 16.144531 12.863281 16.269531 12.800781 16.382812 C 12.695312 16.578125 12.460938 16.644531 12.320312 16.679688 C 12.308594 16.683594 12.296875 16.6875 12.289062 16.6875 C 12.261719 16.6875 12.238281 16.679688 12.214844 16.664062 C 12.1875 16.640625 12.167969 16.605469 12.171875 16.566406 L 12.171875 16.289062 C 12.144531 16.5 12.117188 16.742188 12.125 17 C 12.132812 17.398438 12.230469 17.75 12.316406 18 C 12.40625 18.246094 12.484375 18.402344 12.449219 18.421875 C 12.425781 18.441406 12.289062 18.324219 12.148438 18.074219 C 12.003906 17.828125 11.867188 17.445312 11.859375 17.007812 C 11.851562 16.566406 11.949219 16.1875 12.035156 15.925781 C 12.089844 15.757812 12.140625 15.632812 12.179688 15.570312 L 12.1875 14.769531 C 12.140625 14.820312 12.089844 14.859375 12.035156 14.890625 C 12.046875 14.914062 12.050781 14.941406 12.046875 14.972656 C 12.035156 15.050781 12.046875 15.128906 12.058594 15.210938 C 12.078125 15.328125 12.097656 15.46875 12.039062 15.628906 C 11.804688 16.265625 11.679688 16.941406 11.554688 17.601562 L 11.128906 19.847656 C 11.242188 19.855469 11.359375 19.851562 11.496094 19.832031 C 11.605469 19.8125 11.703125 19.828125 11.796875 19.84375 C 11.828125 19.847656 11.855469 19.851562 11.886719 19.855469 C 11.964844 19.867188 12.039062 19.871094 12.117188 19.882812 C 12.328125 19.902344 12.546875 19.921875 12.761719 19.976562 C 12.820312 19.988281 12.878906 20.003906 12.9375 20.019531 C 13.152344 20.078125 13.359375 20.132812 13.546875 20.082031 C 13.65625 19.367188 13.761719 18.613281 13.832031 17.867188 L 13.832031 17.824219 C 13.863281 17.484375 13.894531 17.160156 13.851562 16.835938 C 13.8125 16.519531 13.820312 16.191406 13.828125 15.871094 C 13.832031 15.785156 13.832031 15.699219 13.832031 15.613281 L 13.832031 15.46875 C 13.835938 15.175781 13.839844 14.867188 13.871094 14.570312 C 13.875 14.554688 13.878906 14.542969 13.882812 14.527344 C 13.882812 14.421875 13.894531 14.316406 13.90625 14.214844 L 13.976562 13.59375 C 13.992188 13.46875 14.003906 13.34375 13.988281 13.226562 C 13.835938 12.988281 13.660156 12.765625 13.429688 12.625 L 13.398438 12.605469 C 13.347656 12.578125 13.285156 12.539062 13.230469 12.484375 C 13.128906 12.386719 13.078125 12.234375 13.105469 12.101562 " fill-opacity="1" fill-rule="nonzero"/><path fill="#000000" d="M 30.730469 11.863281 C 30.753906 11.9375 30.769531 12.023438 30.742188 12.125 C 30.710938 12.242188 30.628906 12.316406 30.574219 12.375 L 30.558594 12.390625 C 30.457031 12.488281 30.324219 12.628906 30.269531 12.757812 C 30.265625 12.765625 30.261719 12.773438 30.257812 12.78125 C 30.355469 12.730469 30.4375 12.683594 30.5 12.628906 C 30.679688 12.492188 30.714844 12.347656 30.753906 12.351562 C 30.769531 12.355469 30.789062 12.394531 30.777344 12.472656 C 30.769531 12.550781 30.722656 12.65625 30.632812 12.757812 C 30.546875 12.863281 30.410156 12.960938 30.269531 13.046875 C 30.214844 13.078125 30.160156 13.113281 30.105469 13.148438 C 29.953125 13.496094 29.773438 13.851562 29.519531 14.160156 C 29.570312 14.148438 29.621094 14.136719 29.671875 14.125 C 29.878906 14.074219 30.078125 13.980469 30.261719 13.824219 C 30.632812 13.515625 30.832031 13.097656 30.972656 12.800781 C 31.113281 12.5 31.207031 12.3125 31.242188 12.324219 C 31.273438 12.335938 31.246094 12.542969 31.148438 12.867188 C 31.097656 13.03125 31.027344 13.222656 30.917969 13.429688 C 30.804688 13.632812 30.648438 13.84375 30.433594 14.023438 C 30.222656 14.203125 29.964844 14.320312 29.726562 14.359375 C 29.535156 14.394531 29.371094 14.414062 29.242188 14.457031 C 29.242188 14.457031 29.238281 14.460938 29.238281 14.460938 C 29.121094 14.574219 29.011719 14.679688 28.9375 14.800781 C 28.914062 14.835938 28.898438 14.878906 28.882812 14.914062 C 28.871094 15.015625 28.875 15.121094 28.882812 15.230469 C 28.886719 15.328125 28.890625 15.433594 28.886719 15.535156 C 28.882812 15.550781 28.882812 15.570312 28.882812 15.585938 C 28.96875 15.488281 29.0625 15.394531 29.15625 15.300781 C 29.277344 15.179688 29.414062 15.058594 29.574219 14.972656 C 29.726562 14.890625 29.886719 14.84375 30.035156 14.808594 C 30.332031 14.738281 30.589844 14.710938 30.792969 14.644531 C 31.210938 14.527344 31.371094 14.304688 31.402344 14.324219 C 31.417969 14.332031 31.398438 14.40625 31.3125 14.507812 C 31.230469 14.609375 31.074219 14.730469 30.859375 14.816406 C 30.429688 15.015625 29.769531 14.988281 29.34375 15.484375 C 29.105469 15.722656 28.882812 15.9375 28.742188 16.175781 C 28.667969 16.289062 28.609375 16.40625 28.5625 16.523438 C 28.558594 16.53125 28.554688 16.542969 28.550781 16.550781 C 28.644531 16.488281 28.753906 16.425781 28.871094 16.425781 C 28.980469 16.425781 29.085938 16.484375 29.113281 16.570312 C 29.140625 16.648438 29.113281 16.710938 29.085938 16.738281 C 29.054688 16.769531 29.03125 16.769531 29.027344 16.761719 C 29.019531 16.75 29.070312 16.691406 29.019531 16.613281 C 29 16.582031 28.945312 16.558594 28.878906 16.570312 C 28.816406 16.582031 28.746094 16.628906 28.664062 16.699219 C 28.640625 16.71875 28.605469 16.742188 28.566406 16.757812 C 28.542969 16.765625 28.519531 16.773438 28.488281 16.773438 C 28.46875 16.773438 28.441406 16.765625 28.417969 16.757812 C 28.417969 16.765625 28.425781 16.777344 28.433594 16.789062 C 28.457031 16.8125 28.488281 16.832031 28.527344 16.855469 C 28.554688 16.875 28.585938 16.890625 28.613281 16.910156 C 28.679688 16.960938 28.726562 17.019531 28.777344 17.078125 C 28.800781 17.105469 28.828125 17.136719 28.855469 17.164062 C 28.875 17.183594 28.902344 17.207031 28.929688 17.222656 C 28.980469 17.148438 29.058594 17.035156 29.117188 16.871094 C 29.144531 16.800781 29.160156 16.722656 29.171875 16.632812 C 29.179688 16.546875 29.179688 16.441406 29.207031 16.320312 C 29.253906 16.066406 29.453125 15.839844 29.6875 15.699219 C 29.929688 15.554688 30.175781 15.492188 30.382812 15.429688 C 30.59375 15.371094 30.773438 15.316406 30.914062 15.246094 C 31.199219 15.113281 31.3125 14.941406 31.347656 14.960938 C 31.363281 14.96875 31.355469 15.027344 31.304688 15.109375 C 31.257812 15.195312 31.15625 15.308594 31.011719 15.40625 C 30.863281 15.503906 30.667969 15.585938 30.457031 15.65625 C 30.25 15.734375 30.023438 15.800781 29.828125 15.917969 C 29.632812 16.039062 29.488281 16.199219 29.445312 16.375 C 29.421875 16.464844 29.410156 16.566406 29.386719 16.667969 C 29.367188 16.769531 29.332031 16.867188 29.289062 16.945312 C 29.261719 16.996094 29.234375 17.039062 29.207031 17.082031 C 29.433594 17.0625 29.664062 17.105469 29.863281 17.207031 C 29.882812 17.203125 29.898438 17.199219 29.917969 17.195312 C 30.175781 17.195312 30.425781 17.214844 30.679688 17.257812 C 30.742188 16.800781 30.871094 16.410156 31.058594 16.085938 C 31.011719 16.117188 30.964844 16.140625 30.917969 16.167969 C 30.726562 16.261719 30.554688 16.320312 30.410156 16.371094 C 30.128906 16.46875 29.960938 16.542969 29.9375 16.515625 C 29.914062 16.488281 30.058594 16.347656 30.335938 16.203125 C 30.46875 16.128906 30.632812 16.054688 30.796875 15.957031 C 30.957031 15.859375 31.121094 15.734375 31.269531 15.574219 C 31.300781 15.542969 31.332031 15.507812 31.359375 15.472656 C 31.40625 15.308594 31.460938 15.148438 31.515625 14.988281 C 31.59375 14.761719 31.667969 14.546875 31.71875 14.324219 C 31.875 13.617188 31.949219 12.84375 31.949219 11.921875 C 31.550781 11.828125 31.136719 11.804688 30.730469 11.863281 " fill-opacity="1" fill-rule="nonzero"/><path fill="#000000" d="M 30.644531 17.566406 C 30.441406 17.53125 30.234375 17.511719 30.027344 17.507812 L 29.851562 17.957031 C 29.832031 18.003906 29.804688 18.074219 29.742188 18.128906 C 29.6875 18.171875 29.632812 18.191406 29.582031 18.199219 C 29.589844 18.269531 29.59375 18.3125 29.597656 18.402344 L 29.605469 18.582031 C 29.730469 18.59375 29.855469 18.640625 29.960938 18.710938 C 30.171875 18.851562 30.273438 19.164062 30.300781 19.328125 C 30.3125 19.390625 30.292969 19.453125 30.25 19.503906 C 30.207031 19.550781 30.136719 19.582031 30.078125 19.578125 C 29.855469 19.578125 29.605469 19.597656 29.324219 19.648438 C 29.324219 19.777344 29.320312 19.898438 29.308594 20.023438 L 30.519531 19.988281 C 30.523438 19.988281 30.53125 19.992188 30.539062 19.992188 C 30.5625 19.886719 30.578125 19.78125 30.589844 19.6875 C 30.628906 19.3125 30.628906 18.921875 30.625 18.542969 C 30.621094 18.238281 30.621094 17.929688 30.640625 17.621094 C 30.640625 17.601562 30.644531 17.585938 30.644531 17.566406 " fill-opacity="1" fill-rule="nonzero"/><path fill="#000000" d="M 15.292969 21.667969 C 15.480469 21.675781 15.667969 21.683594 15.859375 21.691406 C 15.820312 21.546875 15.800781 21.398438 15.800781 21.246094 C 15.800781 21.121094 15.761719 20.980469 15.722656 20.84375 C 15.703125 20.777344 15.6875 20.710938 15.671875 20.644531 C 15.554688 20.671875 15.433594 20.6875 15.320312 20.699219 L 15.023438 20.734375 C 15.007812 20.742188 14.992188 20.746094 14.972656 20.746094 C 14.964844 20.746094 14.957031 20.742188 14.949219 20.742188 L 14.691406 20.773438 C 14.707031 21.070312 14.726562 21.34375 14.753906 21.613281 C 14.757812 21.625 14.753906 21.640625 14.75 21.65625 C 15.027344 21.664062 15.226562 21.667969 15.292969 21.667969 " fill-opacity="1" fill-rule="nonzero"/><path fill="#000000" d="M 29.652344 20.902344 C 29.65625 20.898438 29.65625 20.898438 29.660156 20.898438 C 29.894531 20.800781 30.15625 20.675781 30.324219 20.46875 C 30.382812 20.394531 30.425781 20.308594 30.464844 20.222656 L 30.089844 20.234375 C 30.097656 20.269531 30.089844 20.304688 30.078125 20.339844 C 29.992188 20.550781 29.84375 20.738281 29.652344 20.902344 " fill-opacity="1" fill-rule="nonzero"/><path fill="#000000" d="M 31.539062 17.375 C 31.644531 16.867188 31.757812 16.410156 32.027344 16.035156 C 31.851562 16.023438 31.671875 16.011719 31.496094 16.003906 C 31.492188 16.003906 31.492188 16.003906 31.488281 16.003906 C 31.179688 16.394531 31 16.945312 30.957031 17.640625 C 30.933594 17.9375 30.9375 18.242188 30.941406 18.539062 C 30.941406 18.925781 30.945312 19.328125 30.902344 19.722656 C 30.867188 20.007812 30.800781 20.371094 30.570312 20.660156 C 30.359375 20.921875 30.050781 21.074219 29.78125 21.183594 C 29.410156 21.335938 29.03125 21.445312 28.648438 21.539062 C 28.335938 21.753906 27.984375 21.941406 27.574219 22.03125 C 26.226562 22.339844 24.835938 22.398438 23.46875 22.398438 C 23.03125 22.398438 22.59375 22.390625 22.164062 22.386719 C 21.675781 22.378906 21.1875 22.382812 20.71875 22.386719 C 20.425781 22.386719 20.132812 22.390625 19.839844 22.390625 L 13.21875 22.390625 C 13.21875 22.402344 13.214844 22.414062 13.214844 22.425781 C 13.203125 22.578125 13.210938 22.710938 13.242188 22.8125 L 13.28125 22.8125 C 13.707031 22.8125 14.121094 22.8125 14.53125 22.8125 C 15.101562 22.816406 15.667969 22.820312 16.253906 22.816406 C 16.523438 22.816406 16.792969 22.8125 17.0625 22.824219 C 17.09375 22.824219 17.125 22.828125 17.15625 22.828125 C 17.234375 22.832031 17.308594 22.839844 17.375 22.824219 C 17.472656 22.804688 17.5625 22.789062 17.671875 22.789062 L 20.949219 22.789062 C 21.039062 22.789062 21.128906 22.792969 21.214844 22.792969 C 21.394531 22.796875 21.578125 22.796875 21.757812 22.789062 C 21.832031 22.789062 21.90625 22.769531 21.984375 22.75 C 22.058594 22.730469 22.136719 22.710938 22.222656 22.699219 C 22.402344 22.6875 22.585938 22.695312 22.761719 22.710938 C 22.84375 22.714844 22.921875 22.71875 23 22.722656 C 23.261719 22.730469 23.523438 22.738281 23.785156 22.738281 C 24.367188 22.75 24.882812 22.742188 25.351562 22.722656 C 26.375 22.675781 27.269531 22.554688 28.082031 22.351562 C 28.460938 22.253906 28.789062 22.105469 29.132812 21.949219 C 29.34375 21.851562 29.558594 21.75 29.796875 21.664062 C 30.078125 21.558594 30.367188 21.449219 30.601562 21.269531 C 30.949219 21.003906 31.195312 20.566406 31.292969 20.03125 C 31.382812 19.542969 31.351562 19.03125 31.316406 18.535156 C 31.296875 18.246094 31.375 17.988281 31.445312 17.742188 C 31.480469 17.621094 31.515625 17.5 31.539062 17.375 " fill-opacity="1" fill-rule="nonzero"/><path fill="#000000" d="M 9.886719 19.160156 C 9.808594 19.148438 9.882812 18.421875 9.824219 17.535156 C 9.769531 16.648438 9.597656 15.9375 9.671875 15.917969 C 9.738281 15.894531 10.03125 16.59375 10.085938 17.519531 C 10.152344 18.441406 9.953125 19.171875 9.886719 19.160156 Z M 10.175781 20.0625 C 10.316406 18.414062 10.234375 17.066406 10.3125 17.0625 C 10.382812 17.050781 10.582031 18.410156 10.441406 20.085938 C 10.4375 20.121094 10.433594 20.160156 10.433594 20.195312 C 10.5 20.195312 10.570312 20.195312 10.640625 20.191406 C 10.664062 20.179688 10.679688 20.164062 10.691406 20.144531 C 10.714844 20.101562 10.71875 20.023438 10.71875 19.933594 C 10.71875 19.847656 10.722656 19.761719 10.722656 19.675781 C 10.726562 19.34375 10.734375 19.042969 10.746094 18.789062 C 10.769531 18.289062 10.796875 17.980469 10.832031 17.980469 C 10.867188 17.980469 10.898438 18.289062 10.925781 18.789062 C 10.933594 18.894531 10.9375 19.011719 10.941406 19.132812 L 11.242188 17.542969 C 11.28125 17.351562 11.316406 17.15625 11.355469 16.960938 C 11.285156 16.972656 11.210938 16.984375 11.136719 16.984375 C 11.113281 16.984375 11.09375 16.984375 11.070312 16.980469 C 10.894531 16.96875 10.742188 16.898438 10.648438 16.78125 C 10.550781 16.667969 10.507812 16.503906 10.527344 16.3125 C 10.542969 16.15625 10.589844 16.007812 10.636719 15.867188 C 10.667969 15.773438 10.695312 15.6875 10.714844 15.601562 C 10.734375 15.511719 10.789062 15.199219 10.605469 15.039062 C 10.023438 14.871094 9.402344 14.875 8.800781 14.882812 C 8.71875 14.953125 8.65625 15.054688 8.617188 15.175781 C 8.566406 15.332031 8.558594 15.507812 8.550781 15.671875 L 8.425781 18.078125 C 8.40625 18.464844 8.386719 18.863281 8.425781 19.253906 L 8.433594 19.335938 C 8.453125 19.527344 8.472656 19.738281 8.417969 19.9375 C 8.988281 20.085938 9.574219 20.167969 10.167969 20.191406 C 10.167969 20.148438 10.175781 20.105469 10.175781 20.0625 " fill-opacity="1" fill-rule="nonzero"/><path fill="#000000" d="M 11.9375 21.617188 C 12.164062 21.617188 12.417969 21.621094 12.714844 21.625 C 13.144531 21.628906 13.582031 21.636719 13.964844 21.644531 C 13.933594 21.5625 13.847656 21.5 13.773438 21.472656 C 13.679688 21.429688 13.566406 21.417969 13.453125 21.398438 C 13.414062 21.394531 13.378906 21.386719 13.34375 21.378906 C 13.277344 21.371094 13.097656 21.339844 13.023438 21.1875 C 12.976562 21.105469 12.984375 21.019531 12.988281 20.964844 L 13.03125 20.378906 C 13.03125 20.34375 13.042969 20.316406 13.066406 20.289062 C 13 20.277344 12.9375 20.257812 12.875 20.242188 C 12.820312 20.226562 12.761719 20.214844 12.707031 20.199219 C 12.507812 20.15625 12.296875 20.132812 12.09375 20.113281 C 12.0625 20.109375 12.03125 20.105469 12 20.101562 C 12.003906 20.117188 12.007812 20.136719 12.007812 20.15625 C 12 20.339844 11.988281 20.515625 11.976562 20.691406 C 11.953125 21 11.9375 21.300781 11.9375 21.617188 " fill-opacity="1" fill-rule="nonzero"/><path fill="#000000" d="M 28.648438 15.523438 C 28.652344 15.507812 28.648438 15.492188 28.652344 15.480469 C 28.527344 15.730469 28.363281 15.960938 28.203125 16.183594 C 27.984375 16.492188 27.777344 16.78125 27.683594 17.097656 C 27.78125 17.230469 27.894531 17.367188 28.03125 17.4375 C 28.144531 17.496094 28.289062 17.519531 28.4375 17.539062 C 28.558594 17.554688 28.6875 17.570312 28.808594 17.636719 C 28.867188 17.667969 28.917969 17.703125 28.960938 17.738281 L 28.992188 17.761719 C 29.058594 17.8125 29.128906 17.855469 29.203125 17.890625 C 29.289062 17.863281 29.375 17.875 29.445312 17.882812 C 29.476562 17.890625 29.523438 17.898438 29.539062 17.894531 C 29.542969 17.886719 29.550781 17.859375 29.558594 17.84375 L 29.730469 17.398438 C 29.574219 17.328125 29.398438 17.296875 29.226562 17.3125 C 29.207031 17.316406 29.191406 17.316406 29.183594 17.316406 C 29.191406 17.339844 29.191406 17.363281 29.183594 17.386719 C 29.171875 17.425781 29.140625 17.453125 29.105469 17.464844 C 29.074219 17.472656 29.042969 17.480469 29.007812 17.480469 C 28.898438 17.480469 28.78125 17.425781 28.6875 17.328125 C 28.652344 17.292969 28.621094 17.261719 28.59375 17.222656 C 28.554688 17.175781 28.515625 17.128906 28.46875 17.09375 C 28.449219 17.082031 28.425781 17.066406 28.402344 17.050781 C 28.359375 17.023438 28.304688 16.992188 28.257812 16.945312 C 28.203125 16.886719 28.171875 16.800781 28.179688 16.726562 C 28.183594 16.660156 28.214844 16.605469 28.261719 16.566406 C 28.265625 16.5625 28.273438 16.558594 28.28125 16.554688 C 28.277344 16.542969 28.273438 16.53125 28.269531 16.519531 C 28.226562 16.382812 28.320312 16.269531 28.378906 16.195312 C 28.539062 16.007812 28.636719 15.765625 28.648438 15.523438 " fill-opacity="1" fill-rule="nonzero"/><path fill="#000000" d="M 26.414062 10.019531 C 26.300781 10.074219 26.15625 10.121094 25.992188 10.152344 C 25.910156 10.167969 25.816406 10.179688 25.730469 10.183594 C 25.667969 10.1875 25.609375 10.195312 25.554688 10.207031 C 25.554688 10.210938 25.550781 10.210938 25.546875 10.210938 C 25.480469 10.238281 25.429688 10.328125 25.445312 10.398438 C 25.449219 10.40625 25.453125 10.417969 25.457031 10.425781 C 25.535156 10.453125 25.652344 10.460938 25.734375 10.472656 C 25.796875 10.480469 25.851562 10.488281 25.902344 10.492188 C 26.105469 10.398438 26.300781 10.320312 26.46875 10.261719 C 26.867188 10.121094 27.125 10.078125 27.136719 10.113281 C 27.148438 10.148438 26.914062 10.253906 26.539062 10.433594 C 26.355469 10.523438 26.132812 10.632812 25.898438 10.761719 C 25.878906 10.769531 25.863281 10.777344 25.851562 10.789062 C 25.839844 10.835938 25.8125 10.878906 25.773438 10.910156 C 25.734375 10.9375 25.710938 10.992188 25.707031 11.050781 C 25.703125 11.109375 25.722656 11.160156 25.753906 11.195312 C 25.839844 11.195312 25.9375 11.164062 26.027344 11.121094 C 26.152344 11.0625 26.277344 10.984375 26.398438 10.917969 C 26.640625 10.785156 26.859375 10.667969 27.046875 10.574219 C 27.417969 10.382812 27.65625 10.28125 27.675781 10.3125 C 27.695312 10.34375 27.488281 10.5 27.140625 10.730469 C 26.96875 10.847656 26.757812 10.980469 26.523438 11.125 C 26.433594 11.183594 26.339844 11.242188 26.234375 11.300781 C 26.9375 11.304688 27.59375 10.988281 28.035156 10.707031 L 28.09375 10.667969 C 28.222656 10.585938 28.359375 10.496094 28.523438 10.4375 C 28.621094 10.402344 28.714844 10.386719 28.808594 10.382812 C 28.746094 10.304688 28.695312 10.21875 28.664062 10.125 C 28.179688 10.140625 27.640625 10.148438 27.164062 9.917969 C 26.972656 9.824219 26.863281 9.691406 26.867188 9.542969 C 26.867188 9.507812 26.878906 9.476562 26.90625 9.453125 C 26.933594 9.429688 26.96875 9.421875 27 9.429688 C 27.410156 9.492188 27.832031 9.558594 28.25 9.539062 C 28.355469 9.535156 28.464844 9.523438 28.570312 9.511719 C 28.742188 9.496094 28.917969 9.476562 29.097656 9.480469 C 29.164062 9.484375 29.234375 9.488281 29.304688 9.5 C 28.386719 9.167969 27.394531 9.042969 26.425781 9.144531 C 26.65625 9.242188 26.800781 9.359375 26.773438 9.40625 C 26.742188 9.472656 26.4375 9.386719 26.0625 9.304688 C 25.941406 9.277344 25.828125 9.253906 25.730469 9.230469 C 25.652344 9.238281 25.578125 9.242188 25.5 9.242188 C 25.453125 9.457031 25.507812 9.710938 25.640625 9.871094 C 25.65625 9.886719 25.667969 9.910156 25.675781 9.929688 C 25.691406 9.929688 25.707031 9.929688 25.71875 9.929688 C 25.804688 9.925781 25.878906 9.925781 25.953125 9.917969 C 26.105469 9.902344 26.238281 9.875 26.347656 9.84375 C 26.570312 9.789062 26.710938 9.734375 26.730469 9.765625 C 26.75 9.796875 26.640625 9.910156 26.414062 10.019531 " fill-opacity="1" fill-rule="nonzero"/><path fill="#000000" d="M 30.597656 11.078125 C 30.59375 11.078125 30.589844 11.078125 30.585938 11.078125 C 30.382812 11.074219 30.171875 10.976562 30.007812 10.816406 C 29.828125 10.824219 29.65625 10.789062 29.488281 10.738281 C 29.503906 10.753906 29.515625 10.773438 29.527344 10.789062 C 29.550781 10.816406 29.574219 10.847656 29.597656 10.878906 C 29.785156 11.109375 30.085938 11.25 30.382812 11.253906 C 30.503906 11.257812 30.601562 11.355469 30.597656 11.476562 C 30.597656 11.488281 30.597656 11.5 30.59375 11.515625 C 30.625 11.546875 30.644531 11.589844 30.652344 11.640625 C 31.078125 11.574219 31.523438 11.589844 31.945312 11.679688 C 31.945312 11.582031 31.945312 11.488281 31.941406 11.386719 C 31.933594 11.207031 31.925781 11.019531 31.875 10.839844 C 31.832031 10.664062 31.753906 10.515625 31.648438 10.410156 C 31.601562 10.363281 31.546875 10.320312 31.484375 10.277344 C 31.472656 10.265625 31.457031 10.253906 31.445312 10.242188 C 31.410156 10.441406 31.363281 10.660156 31.214844 10.816406 C 31.058594 10.980469 30.828125 11.078125 30.597656 11.078125 " fill-opacity="1" fill-rule="nonzero"/><path fill="#000000" d="M 28.59375 9.742188 C 28.484375 9.753906 28.371094 9.765625 28.261719 9.773438 C 27.921875 9.789062 27.582031 9.75 27.253906 9.703125 C 27.257812 9.703125 27.265625 9.707031 27.269531 9.710938 C 27.722656 9.925781 28.269531 9.90625 28.753906 9.890625 C 28.808594 9.890625 28.863281 9.925781 28.875 9.984375 C 28.910156 10.1875 29.074219 10.367188 29.273438 10.433594 L 29.339844 10.453125 C 29.394531 10.46875 29.449219 10.488281 29.503906 10.503906 C 29.421875 10.402344 29.398438 10.324219 29.421875 10.304688 C 29.476562 10.253906 29.75 10.53125 30.148438 10.542969 C 30.347656 10.550781 30.511719 10.484375 30.625 10.410156 C 30.742188 10.339844 30.808594 10.273438 30.84375 10.289062 C 30.871094 10.304688 30.863281 10.414062 30.75 10.546875 C 30.699219 10.613281 30.617188 10.679688 30.511719 10.730469 C 30.460938 10.75 30.410156 10.769531 30.355469 10.78125 C 30.429688 10.824219 30.511719 10.84375 30.589844 10.847656 C 30.757812 10.851562 30.929688 10.777344 31.042969 10.65625 C 31.152344 10.542969 31.183594 10.351562 31.214844 10.164062 C 31.222656 10.128906 31.230469 10.089844 31.234375 10.054688 C 31.214844 10.027344 31.191406 10 31.175781 9.972656 C 31.019531 9.855469 30.816406 9.8125 30.65625 9.800781 C 30.519531 9.789062 30.382812 9.792969 30.242188 9.792969 C 30.199219 9.796875 30.15625 9.796875 30.117188 9.796875 C 30.085938 9.804688 30.054688 9.804688 30.023438 9.796875 C 29.972656 9.796875 29.921875 9.796875 29.871094 9.792969 C 29.742188 9.785156 29.621094 9.773438 29.496094 9.753906 C 29.359375 9.734375 29.222656 9.71875 29.089844 9.714844 C 28.929688 9.710938 28.765625 9.726562 28.59375 9.742188 " fill-opacity="1" fill-rule="nonzero"/><path fill="#000000" d="M 30.457031 9.558594 C 30.527344 9.558594 30.601562 9.5625 30.679688 9.570312 C 30.789062 9.578125 30.921875 9.601562 31.054688 9.648438 C 31.054688 9.648438 31.054688 9.644531 31.054688 9.644531 C 31.046875 9.53125 31.132812 9.429688 31.246094 9.417969 C 31.316406 9.410156 31.351562 9.402344 31.363281 9.394531 C 31.367188 9.371094 31.355469 9.324219 31.347656 9.289062 C 31.34375 9.253906 31.335938 9.222656 31.332031 9.1875 C 31.320312 9.09375 31.324219 9 31.332031 8.917969 C 31.335938 8.820312 31.34375 8.738281 31.316406 8.679688 C 31.296875 8.644531 31.253906 8.601562 31.1875 8.566406 C 31.050781 8.496094 30.90625 8.476562 30.789062 8.519531 C 30.621094 8.578125 30.523438 8.757812 30.480469 8.90625 C 30.425781 9.105469 30.441406 9.332031 30.457031 9.550781 C 30.457031 9.554688 30.457031 9.558594 30.457031 9.558594 " fill-opacity="1" fill-rule="nonzero"/><path fill="#000000" d="M 17.484375 16.53125 C 17.488281 16.878906 17.492188 17.238281 17.542969 17.585938 C 17.546875 17.625 17.550781 17.664062 17.558594 17.703125 C 17.589844 17.90625 17.621094 18.113281 17.582031 18.324219 C 17.570312 18.410156 17.542969 18.496094 17.515625 18.578125 C 17.5 18.632812 17.484375 18.679688 17.472656 18.730469 C 17.59375 18.664062 17.6875 18.550781 17.726562 18.421875 C 17.753906 18.328125 17.757812 18.222656 17.761719 18.109375 C 17.769531 17.964844 17.777344 17.800781 17.835938 17.640625 C 17.878906 17.527344 17.941406 17.425781 18 17.339844 C 18.046875 17.273438 18.089844 17.207031 18.113281 17.144531 C 18.175781 17 18.175781 16.824219 18.175781 16.652344 C 18.175781 16.371094 18.183594 16.066406 18.191406 15.777344 C 18.195312 15.683594 18.199219 15.59375 18.199219 15.503906 C 18.203125 15.328125 18.203125 15.152344 18.210938 14.980469 C 18.210938 14.957031 18.210938 14.933594 18.210938 14.914062 C 18.210938 14.910156 18.210938 14.910156 18.210938 14.910156 C 18.210938 14.890625 18.210938 14.867188 18.210938 14.847656 C 18.207031 14.84375 18.207031 14.84375 18.203125 14.839844 C 18.179688 14.824219 18.15625 14.816406 18.128906 14.800781 C 18.105469 14.792969 18.085938 14.78125 18.0625 14.769531 C 18.015625 14.742188 17.972656 14.710938 17.933594 14.667969 C 17.96875 14.878906 17.957031 15.0625 17.898438 15.21875 C 17.882812 15.257812 17.851562 15.28125 17.8125 15.292969 C 17.703125 15.316406 17.59375 15.335938 17.46875 15.324219 L 17.484375 16.53125 " fill-opacity="1" fill-rule="nonzero"/><g clip-path="url(#393941311f)"><path fill="#000000" d="M 16.371094 26.335938 C 16.242188 25.972656 16.074219 25.707031 15.867188 25.535156 C 15.625 25.328125 15.308594 25.253906 15.054688 25.335938 C 15.179688 25.328125 15.304688 25.347656 15.417969 25.394531 C 15.671875 25.5 15.847656 25.710938 15.933594 25.9375 C 16.015625 26.164062 16.015625 26.398438 15.972656 26.605469 C 15.925781 26.808594 15.839844 27.007812 15.6875 27.148438 C 15.652344 27.179688 15.613281 27.207031 15.578125 27.230469 C 15.550781 27.257812 15.523438 27.285156 15.488281 27.3125 C 15.441406 27.347656 15.390625 27.371094 15.335938 27.390625 C 15.363281 27.421875 15.378906 27.464844 15.382812 27.511719 C 15.421875 28.414062 15.371094 29.324219 15.226562 30.214844 C 15.695312 30.21875 16.167969 30.222656 16.625 30.230469 C 16.628906 30.140625 16.628906 30.050781 16.636719 29.960938 C 16.648438 29.714844 16.664062 29.460938 16.644531 29.222656 C 16.628906 29.058594 16.640625 28.890625 16.648438 28.730469 C 16.648438 28.65625 16.652344 28.578125 16.65625 28.507812 C 16.660156 28.234375 16.65625 27.988281 16.640625 27.761719 C 16.609375 27.21875 16.519531 26.753906 16.371094 26.335938 " fill-opacity="1" fill-rule="nonzero"/></g><g clip-path="url(#f76108f059)"><path fill="#000000" d="M 12.980469 22.40625 C 12.984375 22.367188 12.984375 22.328125 12.992188 22.289062 C 12.988281 22.285156 12.988281 22.28125 12.988281 22.277344 C 12.988281 22.261719 12.992188 22.246094 12.996094 22.234375 C 13.007812 22.132812 13.023438 22.035156 13.039062 21.9375 C 11.855469 21.921875 10.621094 21.910156 10.449219 21.929688 C 10.4375 21.929688 10.421875 21.933594 10.410156 21.933594 C 10.40625 21.933594 10.402344 21.933594 10.402344 21.933594 C 10.316406 21.933594 10.25 21.867188 10.246094 21.785156 C 10.246094 21.746094 10.238281 21.710938 10.234375 21.675781 C 10.234375 21.675781 10.234375 21.671875 10.234375 21.667969 C 9.910156 21.652344 9.582031 21.65625 9.261719 21.664062 C 8.730469 21.675781 8.1875 21.683594 7.652344 21.589844 C 7.269531 21.59375 6.894531 21.597656 6.527344 21.605469 C 5.945312 21.613281 5.34375 21.621094 4.738281 21.625 L 4.941406 22.648438 C 5.238281 22.71875 5.507812 22.773438 5.769531 22.820312 C 5.78125 22.8125 5.796875 22.8125 5.808594 22.8125 L 12.996094 22.8125 C 12.972656 22.695312 12.96875 22.558594 12.980469 22.40625 " fill-opacity="1" fill-rule="nonzero"/></g><path fill="#000000" d="M 14.039062 24.871094 C 14.285156 24.683594 14.613281 24.578125 15.046875 24.554688 C 15.628906 24.523438 16.222656 24.625 16.757812 24.847656 C 16.980469 24.9375 17.164062 25.085938 17.316406 25.222656 L 17.332031 25.234375 C 17.335938 25.238281 17.335938 25.242188 17.339844 25.242188 C 17.671875 24.808594 18.214844 24.570312 18.722656 24.652344 C 18.898438 24.679688 19.082031 24.699219 19.257812 24.71875 C 19.792969 24.777344 20.34375 24.839844 20.804688 25.136719 C 20.886719 25.003906 20.996094 24.882812 21.140625 24.78125 C 21.390625 24.605469 21.707031 24.503906 22.066406 24.484375 C 22.414062 24.46875 22.746094 24.53125 22.996094 24.589844 C 23.320312 24.664062 23.644531 24.761719 23.960938 24.882812 C 24.863281 24.929688 25.808594 24.878906 26.78125 24.738281 C 27.746094 24.601562 28.730469 24.375 29.785156 24.050781 C 30.027344 23.976562 30.273438 23.894531 30.523438 23.8125 C 30.578125 23.792969 30.636719 23.777344 30.699219 23.757812 C 30.863281 23.707031 31.035156 23.65625 31.160156 23.570312 C 31.234375 23.523438 31.3125 23.476562 31.390625 23.433594 C 31.480469 23.382812 31.5625 23.335938 31.640625 23.28125 C 31.800781 23.167969 31.941406 23.03125 32.066406 22.863281 C 32.152344 22.75 32.226562 22.625 32.285156 22.496094 C 32.476562 22.074219 32.546875 21.570312 32.5 20.992188 C 32.480469 20.789062 32.449219 20.570312 32.398438 20.328125 C 32.386719 20.28125 32.378906 20.234375 32.371094 20.1875 C 32.335938 20.007812 32.300781 19.828125 32.238281 19.667969 C 32.199219 19.558594 32.171875 19.449219 32.148438 19.339844 C 32.128906 19.261719 32.109375 19.183594 32.085938 19.105469 C 32.03125 18.933594 31.964844 18.761719 31.894531 18.597656 L 31.847656 18.476562 C 31.773438 18.296875 31.699219 18.097656 31.648438 17.894531 C 31.589844 18.101562 31.539062 18.304688 31.554688 18.523438 C 31.585938 19.027344 31.621094 19.554688 31.523438 20.074219 C 31.417969 20.664062 31.140625 21.152344 30.746094 21.453125 C 30.484375 21.652344 30.175781 21.769531 29.878906 21.878906 C 29.652344 21.96875 29.4375 22.0625 29.230469 22.160156 C 28.890625 22.3125 28.542969 22.472656 28.140625 22.574219 C 27.3125 22.78125 26.402344 22.90625 25.359375 22.953125 C 24.886719 22.972656 24.367188 22.980469 23.78125 22.972656 C 23.519531 22.96875 23.253906 22.960938 22.992188 22.953125 C 22.914062 22.949219 22.828125 22.945312 22.75 22.941406 C 22.578125 22.929688 22.40625 22.917969 22.242188 22.933594 C 22.179688 22.9375 22.113281 22.953125 22.046875 22.972656 C 21.960938 22.996094 21.867188 23.019531 21.769531 23.023438 C 21.582031 23.027344 21.394531 23.027344 21.210938 23.027344 C 21.125 23.023438 21.039062 23.023438 20.949219 23.023438 L 17.671875 23.023438 C 17.578125 23.023438 17.511719 23.03125 17.421875 23.050781 C 17.375 23.0625 17.324219 23.066406 17.273438 23.066406 C 17.226562 23.066406 17.179688 23.0625 17.140625 23.058594 C 17.109375 23.054688 17.082031 23.054688 17.054688 23.054688 C 16.789062 23.046875 16.519531 23.046875 16.261719 23.046875 C 15.667969 23.050781 15.101562 23.046875 14.53125 23.046875 C 14.117188 23.042969 13.707031 23.042969 13.28125 23.042969 L 6.527344 23.042969 C 6.539062 23.074219 6.542969 23.105469 6.539062 23.140625 C 6.523438 23.273438 6.597656 23.503906 7.035156 23.859375 C 7.285156 24.0625 7.613281 24.179688 7.929688 24.28125 C 9.753906 24.867188 11.691406 25.140625 13.566406 25.410156 C 13.582031 25.414062 13.601562 25.417969 13.617188 25.425781 C 13.621094 25.414062 13.625 25.402344 13.632812 25.390625 C 13.738281 25.171875 13.878906 24.996094 14.039062 24.871094 " fill-opacity="1" fill-rule="nonzero"/><path fill="#000000" d="M 8.941406 12.351562 C 8.972656 12.394531 9.003906 12.441406 9.035156 12.488281 C 9.074219 12.554688 9.113281 12.617188 9.160156 12.664062 C 9.25 12.753906 9.378906 12.800781 9.515625 12.847656 C 9.59375 12.875 9.675781 12.90625 9.753906 12.945312 C 9.8125 12.972656 9.886719 13.019531 9.941406 13.09375 C 10.003906 13.183594 10.015625 13.296875 9.96875 13.382812 C 9.921875 13.472656 9.816406 13.53125 9.695312 13.53125 C 9.691406 13.53125 9.6875 13.53125 9.679688 13.53125 C 9.617188 13.527344 9.558594 13.511719 9.507812 13.5 C 9.492188 13.492188 9.472656 13.488281 9.453125 13.484375 C 9.320312 13.453125 9.179688 13.464844 9.03125 13.472656 C 8.9375 13.480469 8.84375 13.484375 8.75 13.484375 C 8.808594 13.582031 8.859375 13.671875 8.941406 13.757812 C 9.15625 13.980469 9.429688 14.109375 9.625 14.207031 C 9.828125 14.304688 9.953125 14.375 9.941406 14.40625 C 9.929688 14.441406 9.785156 14.433594 9.558594 14.378906 C 9.339844 14.324219 9.015625 14.210938 8.75 13.933594 C 8.683594 13.867188 8.628906 13.789062 8.582031 13.710938 C 8.539062 13.632812 8.511719 13.558594 8.480469 13.5 C 8.472656 13.480469 8.460938 13.460938 8.453125 13.445312 C 8.441406 13.441406 8.425781 13.441406 8.417969 13.4375 C 8.414062 13.4375 8.410156 13.4375 8.40625 13.4375 C 8.433594 13.699219 8.511719 13.925781 8.644531 14.085938 C 8.671875 14.113281 8.695312 14.140625 8.71875 14.167969 C 8.78125 14.234375 8.839844 14.296875 8.886719 14.378906 C 8.929688 14.457031 8.953125 14.550781 8.941406 14.648438 C 9.5 14.640625 10.070312 14.648438 10.625 14.800781 C 10.671875 14.71875 10.730469 14.636719 10.789062 14.554688 C 10.910156 14.394531 11.03125 14.226562 11.035156 14.082031 C 11.039062 13.9375 10.972656 13.777344 10.847656 13.644531 C 10.746094 13.53125 10.605469 13.4375 10.410156 13.34375 C 10.324219 13.304688 10.125 13.210938 10.128906 13.023438 C 10.128906 12.941406 10.167969 12.878906 10.191406 12.835938 L 10.425781 12.4375 C 10.382812 12.425781 10.335938 12.410156 10.289062 12.386719 C 10.117188 12.300781 9.972656 12.070312 10.042969 11.851562 C 10.054688 11.8125 10.074219 11.78125 10.105469 11.753906 C 10.1875 11.683594 10.28125 11.65625 10.351562 11.636719 C 10.367188 11.632812 10.378906 11.628906 10.394531 11.621094 C 10.367188 11.558594 10.339844 11.5 10.3125 11.441406 C 10.246094 11.316406 10.183594 11.1875 10.160156 10.992188 C 10.132812 10.773438 9.960938 10.566406 9.742188 10.503906 C 9.664062 10.480469 9.589844 10.476562 9.527344 10.492188 C 9.464844 10.507812 9.410156 10.542969 9.382812 10.585938 C 9.34375 10.644531 9.328125 10.746094 9.320312 10.832031 L 9.230469 11.515625 C 9.226562 11.546875 9.21875 11.625 9.226562 11.644531 C 9.230469 11.648438 9.242188 11.660156 9.273438 11.667969 C 9.324219 11.683594 9.382812 11.691406 9.441406 11.691406 C 9.5 11.691406 9.558594 11.71875 9.597656 11.761719 C 9.640625 11.808594 9.660156 11.863281 9.65625 11.925781 C 9.660156 11.960938 9.667969 12.039062 9.628906 12.117188 C 9.574219 12.214844 9.472656 12.265625 9.359375 12.269531 C 9.304688 12.277344 9.207031 12.292969 9.117188 12.230469 C 9.011719 12.15625 8.867188 12.132812 8.710938 12.136719 C 8.800781 12.195312 8.878906 12.265625 8.941406 12.351562 " fill-opacity="1" fill-rule="nonzero"/><path fill="#000000" d="M 8.136719 12.191406 C 7.164062 12.300781 6.195312 12.285156 5.210938 12.25 C 5.179688 12.34375 5.164062 12.441406 5.167969 12.539062 C 5.167969 12.554688 5.164062 12.570312 5.160156 12.582031 C 5.3125 12.640625 5.460938 12.707031 5.609375 12.773438 C 6.097656 12.988281 6.5625 13.179688 7.0625 13.1875 C 7.066406 13.183594 7.070312 13.1875 7.078125 13.1875 C 6.957031 13.117188 6.851562 13.046875 6.777344 12.976562 C 6.628906 12.84375 6.566406 12.734375 6.589844 12.710938 C 6.644531 12.65625 7.003906 12.9375 7.53125 13.097656 C 7.632812 13.132812 7.726562 13.15625 7.820312 13.175781 C 7.9375 13.164062 8.058594 13.160156 8.179688 13.167969 C 8.066406 13.101562 7.980469 13.082031 7.980469 13.050781 C 7.976562 13.023438 8.140625 12.964844 8.378906 13.078125 C 8.445312 13.109375 8.519531 13.164062 8.582031 13.234375 C 8.621094 13.242188 8.652344 13.246094 8.691406 13.25 C 8.792969 13.257812 8.902344 13.25 9.011719 13.242188 C 9.171875 13.230469 9.339844 13.222656 9.507812 13.257812 C 9.527344 13.261719 9.550781 13.269531 9.570312 13.273438 C 9.613281 13.285156 9.652344 13.296875 9.6875 13.296875 C 9.726562 13.300781 9.753906 13.285156 9.761719 13.277344 C 9.765625 13.269531 9.761719 13.246094 9.746094 13.226562 C 9.726562 13.199219 9.699219 13.179688 9.648438 13.152344 C 9.582031 13.117188 9.507812 13.09375 9.433594 13.066406 C 9.28125 13.011719 9.121094 12.953125 8.992188 12.828125 C 8.925781 12.761719 8.878906 12.683594 8.832031 12.609375 C 8.804688 12.566406 8.78125 12.527344 8.753906 12.488281 C 8.621094 12.3125 8.398438 12.203125 8.175781 12.203125 C 8.164062 12.203125 8.148438 12.199219 8.136719 12.191406 " fill-opacity="1" fill-rule="nonzero"/><g clip-path="url(#907db90970)"><path fill="#000000" d="M 17.8125 27.828125 C 17.707031 27.785156 17.601562 27.726562 17.503906 27.644531 C 17.347656 27.511719 17.226562 27.320312 17.136719 27.0625 C 16.945312 26.539062 16.960938 25.972656 17.175781 25.519531 C 17.164062 25.511719 17.15625 25.5 17.148438 25.488281 C 17.144531 25.480469 17.136719 25.476562 17.128906 25.46875 L 17.109375 25.453125 C 16.976562 25.335938 16.8125 25.203125 16.636719 25.128906 C 16.144531 24.925781 15.601562 24.835938 15.066406 24.863281 C 14.699219 24.882812 14.425781 24.964844 14.234375 25.113281 C 14.109375 25.210938 14 25.351562 13.914062 25.527344 C 13.84375 25.667969 13.800781 25.8125 13.777344 25.960938 C 13.78125 26.230469 13.832031 26.5 13.933594 26.746094 C 13.953125 26.796875 13.972656 26.835938 13.992188 26.871094 C 14.046875 26.933594 14.105469 26.988281 14.171875 27.039062 C 14.339844 27.105469 14.539062 27.164062 14.769531 27.183594 C 14.851562 27.191406 14.929688 27.195312 15.007812 27.195312 C 15.054688 27.1875 15.101562 27.179688 15.152344 27.171875 C 15.28125 27.144531 15.414062 27.101562 15.507812 27.011719 C 15.558594 26.953125 15.601562 26.890625 15.632812 26.847656 C 15.679688 26.765625 15.710938 26.664062 15.730469 26.558594 C 15.761719 26.386719 15.757812 26.195312 15.6875 26.027344 C 15.621094 25.859375 15.488281 25.707031 15.316406 25.636719 C 15.140625 25.566406 14.945312 25.582031 14.8125 25.683594 C 14.742188 25.730469 14.691406 25.796875 14.660156 25.871094 C 14.628906 25.941406 14.625 26.015625 14.636719 26.097656 C 14.636719 26.105469 14.640625 26.113281 14.640625 26.121094 C 14.648438 26.152344 14.660156 26.183594 14.671875 26.214844 C 14.683594 26.234375 14.683594 26.253906 14.683594 26.273438 C 14.722656 26.363281 14.777344 26.433594 14.84375 26.460938 C 14.957031 26.511719 15.105469 26.46875 15.171875 26.382812 C 15.25 26.300781 15.269531 26.179688 15.25 26.085938 C 15.234375 25.988281 15.179688 25.914062 15.125 25.871094 C 15.003906 25.789062 14.902344 25.824219 14.898438 25.800781 C 14.894531 25.796875 14.914062 25.777344 14.960938 25.761719 C 15.007812 25.75 15.085938 25.742188 15.175781 25.785156 C 15.265625 25.824219 15.355469 25.917969 15.394531 26.046875 C 15.4375 26.175781 15.429688 26.347656 15.320312 26.5 C 15.210938 26.648438 14.988281 26.738281 14.765625 26.664062 C 14.652344 26.621094 14.5625 26.535156 14.507812 26.441406 C 14.449219 26.347656 14.414062 26.246094 14.394531 26.136719 C 14.390625 26.113281 14.386719 26.089844 14.386719 26.066406 C 14.363281 25.914062 14.378906 25.761719 14.4375 25.617188 C 14.527344 25.394531 14.714844 25.210938 14.941406 25.128906 C 15.28125 25 15.707031 25.089844 16.023438 25.355469 C 16.261719 25.558594 16.449219 25.855469 16.59375 26.261719 C 16.75 26.699219 16.84375 27.183594 16.875 27.75 C 16.890625 27.980469 16.894531 28.230469 16.890625 28.507812 C 16.890625 28.585938 16.886719 28.664062 16.882812 28.742188 C 16.875 28.894531 16.867188 29.054688 16.878906 29.203125 C 16.902344 29.457031 16.886719 29.71875 16.871094 29.972656 C 16.867188 30.058594 16.863281 30.144531 16.859375 30.230469 C 17.261719 30.234375 17.671875 30.242188 18.082031 30.242188 C 18.078125 29.371094 17.988281 28.5625 17.8125 27.828125 " fill-opacity="1" fill-rule="nonzero"/></g><g clip-path="url(#162f2d0aa0)"><path fill="#000000" d="M 25.171875 28.8125 C 25.183594 28.136719 25.199219 27.5 25.042969 26.878906 C 24.9375 26.460938 24.753906 26.03125 24.554688 25.59375 C 24.550781 25.582031 24.546875 25.574219 24.542969 25.5625 C 24.5 25.519531 24.457031 25.480469 24.417969 25.449219 C 24.261719 25.339844 24.085938 25.261719 23.917969 25.195312 C 23.59375 25.070312 23.261719 24.96875 22.921875 24.890625 C 22.582031 24.8125 22.320312 24.78125 22.082031 24.796875 C 21.785156 24.808594 21.523438 24.890625 21.324219 25.03125 C 20.878906 25.347656 20.851562 25.914062 20.972656 26.339844 C 21.050781 26.613281 21.199219 26.847656 21.394531 27.007812 C 21.441406 27.019531 21.492188 27.039062 21.558594 27.0625 C 21.707031 27.117188 21.894531 27.167969 22.113281 27.144531 C 22.214844 27.132812 22.308594 27.105469 22.394531 27.070312 C 22.433594 27.042969 22.476562 27.015625 22.519531 26.984375 C 22.632812 26.894531 22.734375 26.773438 22.8125 26.628906 C 22.886719 26.484375 22.933594 26.308594 22.933594 26.125 C 22.9375 25.941406 22.894531 25.75 22.796875 25.578125 C 22.703125 25.40625 22.554688 25.28125 22.359375 25.269531 C 22.160156 25.25 21.960938 25.324219 21.820312 25.453125 C 21.679688 25.578125 21.601562 25.75 21.601562 25.921875 C 21.601562 26.09375 21.667969 26.253906 21.78125 26.355469 C 21.890625 26.460938 22.035156 26.507812 22.15625 26.488281 C 22.28125 26.464844 22.371094 26.386719 22.40625 26.292969 C 22.441406 26.199219 22.421875 26.109375 22.382812 26.050781 C 22.292969 25.929688 22.179688 25.929688 22.183594 25.910156 C 22.183594 25.902344 22.207031 25.890625 22.261719 25.890625 C 22.308594 25.890625 22.390625 25.914062 22.460938 25.988281 C 22.535156 26.054688 22.585938 26.191406 22.546875 26.335938 C 22.515625 26.476562 22.382812 26.625 22.195312 26.664062 C 22.011719 26.714844 21.789062 26.65625 21.632812 26.515625 C 21.46875 26.378906 21.363281 26.160156 21.355469 25.925781 C 21.34375 25.738281 21.410156 25.554688 21.523438 25.402344 C 21.582031 25.269531 21.683594 25.15625 21.820312 25.078125 C 21.960938 24.996094 22.128906 24.949219 22.320312 24.941406 C 22.71875 24.921875 23.117188 25.066406 23.410156 25.332031 C 23.621094 25.523438 23.789062 25.789062 23.925781 26.140625 C 24.238281 26.945312 24.277344 27.804688 24.3125 28.636719 C 24.324219 28.910156 24.320312 29.195312 24.316406 29.46875 C 24.316406 29.671875 24.316406 29.875 24.320312 30.082031 C 24.613281 30.074219 24.90625 30.054688 25.183594 30.003906 C 25.179688 29.980469 25.179688 29.957031 25.175781 29.929688 C 25.15625 29.554688 25.164062 29.175781 25.171875 28.8125 " fill-opacity="1" fill-rule="nonzero"/></g><g clip-path="url(#2b41d356d1)"><path fill="#000000" d="M 24.078125 28.648438 C 24.042969 27.832031 24.003906 26.992188 23.707031 26.226562 C 23.582031 25.90625 23.429688 25.667969 23.25 25.503906 C 23.152344 25.410156 23.035156 25.339844 22.910156 25.285156 C 22.957031 25.339844 22.996094 25.394531 23.027344 25.457031 C 23.144531 25.671875 23.191406 25.910156 23.179688 26.132812 C 23.171875 26.355469 23.105469 26.558594 23.003906 26.734375 C 22.957031 26.816406 22.898438 26.890625 22.839844 26.953125 C 22.839844 26.957031 22.839844 26.960938 22.839844 26.964844 C 22.828125 27.089844 22.808594 27.21875 22.789062 27.34375 C 22.792969 27.371094 22.796875 27.390625 22.792969 27.417969 C 22.726562 27.859375 22.761719 28.304688 22.800781 28.777344 C 22.832031 29.203125 22.871094 29.640625 22.820312 30.078125 L 23.851562 30.085938 C 23.929688 30.085938 24.003906 30.085938 24.082031 30.085938 C 24.078125 29.878906 24.082031 29.671875 24.082031 29.464844 C 24.085938 29.195312 24.089844 28.914062 24.078125 28.648438 " fill-opacity="1" fill-rule="nonzero"/></g><g clip-path="url(#7e4e9ce46b)"><path fill="#000000" d="M 33.003906 21.304688 C 32.996094 21.148438 32.976562 20.992188 32.945312 20.832031 C 32.867188 20.378906 32.71875 19.917969 32.515625 19.464844 C 32.339844 19.078125 32.257812 18.648438 32.179688 18.234375 C 32.160156 18.140625 32.144531 18.046875 32.125 17.957031 C 32.0625 17.65625 32.003906 17.347656 32.023438 17.027344 C 32.050781 16.675781 32.175781 16.347656 32.324219 16.054688 C 32.316406 16.054688 32.308594 16.050781 32.300781 16.050781 C 32.296875 16.0625 32.292969 16.074219 32.285156 16.085938 C 32.023438 16.398438 31.90625 16.792969 31.808594 17.246094 C 31.8125 17.257812 31.816406 17.269531 31.816406 17.28125 C 31.789062 17.667969 31.929688 18.054688 32.066406 18.390625 L 32.113281 18.511719 C 32.183594 18.679688 32.253906 18.855469 32.3125 19.035156 C 32.339844 19.117188 32.359375 19.203125 32.378906 19.289062 C 32.40625 19.394531 32.425781 19.492188 32.460938 19.585938 C 32.53125 19.761719 32.566406 19.957031 32.601562 20.144531 C 32.613281 20.191406 32.621094 20.234375 32.628906 20.28125 C 32.679688 20.53125 32.714844 20.761719 32.734375 20.972656 C 32.785156 21.589844 32.707031 22.132812 32.5 22.589844 C 32.433594 22.734375 32.351562 22.875 32.257812 23.003906 C 32.117188 23.1875 31.957031 23.34375 31.777344 23.46875 C 31.691406 23.53125 31.597656 23.582031 31.511719 23.632812 C 31.4375 23.675781 31.363281 23.71875 31.292969 23.761719 C 31.136719 23.867188 30.949219 23.925781 30.769531 23.976562 C 30.710938 23.996094 30.652344 24.011719 30.597656 24.03125 C 30.351562 24.117188 30.101562 24.195312 29.855469 24.273438 C 28.789062 24.601562 27.792969 24.828125 26.8125 24.96875 C 26.066406 25.078125 25.332031 25.132812 24.617188 25.132812 C 24.578125 25.132812 24.535156 25.128906 24.492188 25.128906 C 24.53125 25.152344 24.566406 25.175781 24.601562 25.203125 C 24.644531 25.230469 24.679688 25.261719 24.714844 25.292969 C 24.734375 25.289062 24.757812 25.289062 24.777344 25.289062 C 24.851562 25.296875 24.929688 25.304688 25.003906 25.308594 C 25.5 25.34375 26.007812 25.324219 26.503906 25.257812 C 26.789062 25.21875 27.074219 25.152344 27.351562 25.085938 C 27.535156 25.046875 27.71875 25.003906 27.90625 24.964844 C 27.96875 24.953125 28.035156 24.949219 28.101562 24.941406 C 28.148438 24.9375 28.1875 24.9375 28.234375 24.929688 C 28.535156 24.882812 28.777344 24.839844 29 24.796875 C 29.582031 24.6875 30.054688 24.570312 30.484375 24.421875 C 31.285156 24.148438 32.1875 23.839844 32.625 23.089844 C 32.917969 22.589844 33.046875 21.972656 33.003906 21.304688 " fill-opacity="1" fill-rule="nonzero"/></g><g clip-path="url(#2fff4d61cf)"><path fill="#000000" d="M 21.535156 28.394531 C 21.503906 28.082031 21.46875 27.765625 21.488281 27.441406 C 21.488281 27.4375 21.492188 27.433594 21.492188 27.429688 C 21.429688 27.402344 21.371094 27.371094 21.3125 27.332031 C 21.007812 27.132812 20.78125 26.8125 20.667969 26.425781 C 20.582031 26.121094 20.5625 25.757812 20.671875 25.425781 C 20.269531 25.144531 19.761719 25.085938 19.222656 25.027344 C 19.042969 25.007812 18.855469 24.988281 18.671875 24.957031 C 18.234375 24.886719 17.742188 25.140625 17.503906 25.5625 C 17.28125 25.953125 17.253906 26.472656 17.429688 26.960938 C 17.503906 27.164062 17.597656 27.3125 17.714844 27.410156 C 17.792969 27.480469 17.902344 27.53125 18.019531 27.566406 C 18.035156 27.566406 18.050781 27.5625 18.0625 27.566406 C 18.234375 27.59375 18.410156 27.59375 18.585938 27.574219 C 18.625 27.5625 18.664062 27.546875 18.703125 27.53125 C 18.972656 27.40625 19.183594 27.089844 19.226562 26.695312 C 19.25 26.5 19.238281 26.289062 19.15625 26.105469 C 19.070312 25.921875 18.914062 25.78125 18.710938 25.746094 C 18.503906 25.707031 18.296875 25.78125 18.15625 25.917969 C 18.011719 26.050781 17.933594 26.242188 17.949219 26.414062 C 17.957031 26.585938 18.070312 26.738281 18.203125 26.796875 C 18.339844 26.859375 18.503906 26.832031 18.597656 26.75 C 18.691406 26.667969 18.722656 26.539062 18.695312 26.441406 C 18.667969 26.34375 18.589844 26.273438 18.519531 26.25 C 18.367188 26.199219 18.273438 26.265625 18.261719 26.246094 C 18.257812 26.238281 18.273438 26.214844 18.316406 26.1875 C 18.363281 26.160156 18.441406 26.132812 18.546875 26.152344 C 18.652344 26.167969 18.777344 26.25 18.835938 26.394531 C 18.898438 26.539062 18.871094 26.738281 18.726562 26.882812 C 18.585938 27.027344 18.34375 27.085938 18.117188 27 C 17.898438 26.910156 17.730469 26.695312 17.703125 26.4375 C 17.683594 26.253906 17.734375 26.0625 17.839844 25.898438 C 17.933594 25.667969 18.15625 25.480469 18.480469 25.359375 C 18.804688 25.242188 19.113281 25.222656 19.367188 25.304688 C 19.613281 25.386719 19.835938 25.570312 20 25.828125 C 20.140625 26.054688 20.226562 26.308594 20.292969 26.550781 C 20.554688 27.488281 20.671875 28.464844 20.785156 29.410156 C 20.816406 29.65625 20.84375 29.886719 20.839844 30.148438 C 21.085938 30.128906 21.332031 30.109375 21.578125 30.078125 C 21.59375 29.542969 21.601562 28.996094 21.542969 28.46875 L 21.535156 28.394531 " fill-opacity="1" fill-rule="nonzero"/></g><path fill="#000000" d="M 10.363281 13.023438 C 10.363281 13.050781 10.414062 13.089844 10.511719 13.136719 C 10.738281 13.242188 10.902344 13.355469 11.027344 13.488281 C 11.085938 13.554688 11.132812 13.625 11.171875 13.699219 C 11.238281 13.484375 11.195312 13.21875 11.152344 12.960938 C 11.140625 12.910156 11.136719 12.855469 11.128906 12.808594 C 11.101562 12.792969 11.082031 12.777344 11.0625 12.753906 C 10.96875 12.625 10.824219 12.53125 10.667969 12.492188 L 10.398438 12.949219 C 10.382812 12.972656 10.363281 13.007812 10.363281 13.023438 " fill-opacity="1" fill-rule="nonzero"/><g clip-path="url(#86c11ef7b9)"><path fill="#000000" d="M 20.066406 26.613281 C 20 26.390625 19.925781 26.152344 19.796875 25.953125 C 19.664062 25.738281 19.484375 25.589844 19.292969 25.523438 C 19.136719 25.472656 18.96875 25.480469 18.824219 25.503906 C 18.941406 25.539062 19.058594 25.59375 19.152344 25.675781 C 19.257812 25.769531 19.339844 25.882812 19.394531 26.003906 C 19.5 26.246094 19.503906 26.503906 19.46875 26.726562 C 19.4375 26.925781 19.371094 27.117188 19.269531 27.277344 C 19.285156 27.328125 19.285156 27.402344 19.257812 27.476562 C 19.257812 27.484375 19.253906 27.496094 19.25 27.503906 C 19.25 27.507812 19.25 27.507812 19.25 27.507812 C 19.308594 27.546875 19.34375 27.605469 19.347656 27.675781 C 19.390625 28.535156 19.414062 29.378906 19.285156 30.195312 C 19.734375 30.199219 20.171875 30.191406 20.605469 30.164062 C 20.609375 29.914062 20.582031 29.691406 20.550781 29.4375 C 20.4375 28.5 20.324219 27.535156 20.066406 26.613281 " fill-opacity="1" fill-rule="nonzero"/></g><path fill="#000000" d="M 13.054688 11.851562 C 13.117188 11.851562 13.179688 11.851562 13.222656 11.828125 C 13.285156 11.796875 13.320312 11.714844 13.347656 11.628906 C 13.261719 11.496094 13.226562 11.351562 13.199219 11.21875 C 13.183594 11.148438 13.167969 11.078125 13.144531 11.019531 C 13.097656 10.894531 13.003906 10.789062 12.890625 10.722656 C 12.785156 10.664062 12.667969 10.652344 12.605469 10.695312 C 12.566406 10.722656 12.535156 10.785156 12.511719 10.875 C 12.5 10.917969 12.492188 10.964844 12.484375 11.011719 C 12.472656 11.082031 12.460938 11.15625 12.4375 11.234375 C 12.414062 11.308594 12.382812 11.378906 12.355469 11.445312 C 12.339844 11.476562 12.328125 11.507812 12.316406 11.539062 C 12.289062 11.605469 12.277344 11.660156 12.273438 11.703125 C 12.277344 11.703125 12.28125 11.707031 12.285156 11.707031 C 12.476562 11.855469 12.757812 11.859375 13.054688 11.851562 " fill-opacity="1" fill-rule="nonzero"/><path fill="#000000" d="M 11.042969 21.609375 C 11.046875 21.609375 11.046875 21.609375 11.046875 21.609375 C 11.089844 21.609375 11.136719 21.609375 11.1875 21.609375 C 11.1875 21.375 11.269531 21.15625 11.347656 20.941406 C 11.4375 20.703125 11.519531 20.480469 11.484375 20.269531 C 11.480469 20.253906 11.484375 20.238281 11.484375 20.222656 C 11.320312 20.191406 11.15625 20.171875 10.992188 20.164062 L 10.988281 20.304688 C 10.988281 20.363281 10.941406 20.414062 10.875 20.417969 C 10.835938 20.417969 10.792969 20.417969 10.753906 20.417969 C 10.699219 20.445312 10.648438 20.464844 10.589844 20.46875 C 10.585938 20.46875 10.582031 20.46875 10.574219 20.46875 C 10.554688 20.714844 10.660156 20.972656 10.792969 21.253906 C 10.847656 21.378906 10.921875 21.535156 11.042969 21.609375 " fill-opacity="1" fill-rule="nonzero"/><path fill="#000000" d="M 11.160156 14.660156 C 11.097656 14.730469 11.035156 14.785156 10.972656 14.835938 C 10.925781 14.875 10.882812 14.90625 10.839844 14.949219 C 10.972656 15.121094 11.007812 15.371094 10.945312 15.652344 C 10.921875 15.75 10.894531 15.84375 10.863281 15.9375 C 10.816406 16.070312 10.777344 16.203125 10.761719 16.335938 C 10.753906 16.425781 10.757812 16.550781 10.828125 16.636719 C 10.882812 16.699219 10.976562 16.742188 11.089844 16.75 C 11.191406 16.757812 11.300781 16.738281 11.410156 16.71875 C 11.410156 16.714844 11.410156 16.710938 11.410156 16.707031 C 11.378906 16.6875 11.355469 16.65625 11.347656 16.617188 C 11.199219 15.996094 11.148438 15.359375 11.207031 14.726562 C 11.191406 14.703125 11.175781 14.683594 11.160156 14.660156 " fill-opacity="1" fill-rule="nonzero"/><path fill="#000000" d="M 9.894531 20.933594 C 9.914062 20.972656 9.9375 21.011719 9.953125 21.054688 C 10 21.160156 10.019531 21.261719 10.015625 21.351562 C 10.140625 21.355469 10.261719 21.359375 10.386719 21.367188 C 10.464844 21.375 10.527344 21.441406 10.53125 21.519531 C 10.53125 21.550781 10.535156 21.585938 10.542969 21.617188 C 10.589844 21.613281 10.648438 21.613281 10.722656 21.613281 C 10.660156 21.523438 10.613281 21.429688 10.578125 21.351562 C 10.460938 21.105469 10.3125 20.78125 10.339844 20.445312 C 10.3125 20.441406 10.28125 20.433594 10.253906 20.425781 C 10.097656 20.417969 9.945312 20.414062 9.789062 20.398438 C 9.78125 20.523438 9.78125 20.644531 9.816406 20.753906 C 9.832031 20.816406 9.863281 20.875 9.894531 20.933594 " fill-opacity="1" fill-rule="nonzero"/><path fill="#000000" d="M 12.21875 13.265625 C 12.253906 13.242188 12.292969 13.21875 12.332031 13.183594 C 12.367188 13.15625 12.398438 13.125 12.429688 13.09375 C 12.472656 13.050781 12.519531 13.015625 12.566406 12.976562 C 12.566406 12.96875 12.5625 12.964844 12.5625 12.957031 C 12.589844 12.691406 12.597656 12.425781 12.585938 12.164062 C 12.585938 12.125 12.582031 12.113281 12.582031 12.109375 C 12.582031 12.113281 12.5625 12.109375 12.558594 12.109375 C 12.511719 12.101562 12.464844 12.09375 12.417969 12.085938 C 12.402344 12.132812 12.375 12.171875 12.335938 12.203125 C 12.265625 12.25 12.191406 12.277344 12.117188 12.296875 C 12.210938 12.414062 12.273438 12.570312 12.289062 12.742188 C 12.300781 12.925781 12.265625 13.101562 12.21875 13.265625 " fill-opacity="1" fill-rule="nonzero"/><path fill="#000000" d="M 11.636719 14.671875 C 11.964844 14.878906 12.089844 14.453125 12.289062 14.28125 C 12.167969 14.285156 12.050781 14.269531 11.972656 14.238281 C 11.839844 14.1875 11.777344 14.117188 11.792969 14.085938 C 11.828125 14.023438 12.117188 14.101562 12.429688 13.992188 C 12.652344 13.921875 12.804688 13.78125 12.898438 13.714844 C 12.914062 13.699219 12.925781 13.679688 12.941406 13.660156 L 12.980469 13.609375 C 13.050781 13.511719 13.117188 13.410156 13.132812 13.300781 C 13.144531 13.214844 13.117188 13.109375 13.042969 13.066406 C 12.964844 13.023438 12.851562 13.058594 12.78125 13.105469 C 12.714844 13.144531 12.65625 13.199219 12.597656 13.261719 C 12.558594 13.292969 12.523438 13.328125 12.488281 13.359375 C 12.335938 13.488281 12.183594 13.546875 12.035156 13.539062 C 12 13.535156 11.96875 13.515625 11.949219 13.488281 C 11.925781 13.457031 11.921875 13.421875 11.933594 13.386719 C 12 13.179688 12.070312 12.96875 12.050781 12.761719 C 12.039062 12.601562 11.964844 12.421875 11.816406 12.339844 C 11.792969 12.34375 11.773438 12.347656 11.753906 12.355469 C 11.628906 12.390625 11.46875 12.550781 11.460938 12.640625 C 11.460938 12.671875 11.449219 12.699219 11.433594 12.726562 C 11.441406 12.785156 11.453125 12.847656 11.460938 12.910156 C 11.515625 13.242188 11.578125 13.617188 11.414062 13.933594 C 11.265625 14.214844 11.371094 14.507812 11.636719 14.671875 " fill-opacity="1" fill-rule="nonzero"/><path fill="#000000" d="M 12.589844 16.273438 C 12.625 16.210938 12.625 16.121094 12.628906 16.039062 L 12.636719 14.40625 C 12.617188 14.40625 12.597656 14.410156 12.578125 14.410156 C 12.546875 14.414062 12.519531 14.417969 12.496094 14.421875 C 12.472656 14.429688 12.449219 14.449219 12.425781 14.46875 C 12.425781 14.472656 12.429688 14.472656 12.429688 14.476562 L 12.410156 16.410156 C 12.488281 16.375 12.558594 16.335938 12.589844 16.273438 " fill-opacity="1" fill-rule="nonzero"/><path fill="#000000" d="M 7.71875 20.390625 C 7.980469 20.53125 8.253906 20.65625 8.519531 20.75 C 8.519531 20.648438 8.523438 20.546875 8.535156 20.445312 C 8.539062 20.398438 8.53125 20.347656 8.527344 20.296875 C 8.523438 20.261719 8.523438 20.230469 8.519531 20.203125 C 8.421875 20.179688 8.324219 20.15625 8.226562 20.128906 C 8.191406 20.117188 8.164062 20.09375 8.152344 20.0625 C 8.136719 20.03125 8.136719 19.996094 8.152344 19.964844 C 8.242188 19.789062 8.21875 19.570312 8.199219 19.359375 L 8.191406 19.273438 C 8.152344 18.867188 8.171875 18.460938 8.191406 18.066406 L 8.3125 15.660156 C 8.324219 15.480469 8.332031 15.292969 8.390625 15.105469 C 8.449219 14.921875 8.554688 14.773438 8.6875 14.675781 C 8.722656 14.632812 8.710938 14.550781 8.679688 14.488281 C 8.644531 14.433594 8.597656 14.378906 8.546875 14.328125 C 8.519531 14.296875 8.488281 14.265625 8.464844 14.234375 C 8.296875 14.03125 8.195312 13.753906 8.167969 13.429688 C 8.050781 13.441406 7.914062 13.4375 7.761719 13.414062 C 7.730469 13.417969 7.699219 13.421875 7.664062 13.425781 C 7.535156 13.441406 7.402344 13.460938 7.269531 13.460938 C 7.269531 13.464844 7.269531 13.46875 7.269531 13.472656 C 7.132812 13.847656 6.859375 14.125 6.597656 14.390625 C 6.390625 14.601562 6.195312 14.800781 6.074219 15.035156 C 5.953125 15.273438 5.894531 15.566406 5.910156 15.90625 C 5.910156 15.933594 5.914062 15.960938 5.917969 15.988281 C 6.074219 16.046875 6.25 16.085938 6.425781 16.125 C 6.429688 16.125 6.433594 16.125 6.441406 16.125 C 6.445312 16.101562 6.449219 16.078125 6.457031 16.050781 C 6.597656 15.480469 6.859375 15.003906 7.089844 14.691406 C 7.320312 14.382812 7.503906 14.230469 7.53125 14.25 C 7.5625 14.273438 7.429688 14.46875 7.25 14.789062 C 7.070312 15.113281 6.847656 15.574219 6.714844 16.117188 C 6.710938 16.140625 6.703125 16.160156 6.699219 16.183594 C 6.910156 16.238281 7.121094 16.308594 7.3125 16.421875 C 7.488281 15.90625 7.609375 15.601562 7.640625 15.613281 C 7.671875 15.621094 7.597656 15.960938 7.453125 16.523438 C 7.457031 16.523438 7.457031 16.523438 7.457031 16.527344 C 7.863281 16.859375 7.996094 17.394531 8.066406 17.824219 C 8.078125 17.90625 8.019531 17.984375 7.9375 18 C 7.925781 18 7.917969 18.003906 7.910156 18.003906 C 7.832031 18.003906 7.765625 17.949219 7.753906 17.871094 C 7.699219 17.539062 7.605469 17.140625 7.363281 16.867188 C 7.273438 17.203125 7.171875 17.585938 7.039062 18.007812 C 6.964844 18.238281 6.882812 18.480469 6.789062 18.730469 C 6.742188 18.855469 6.691406 18.980469 6.636719 19.105469 C 6.605469 19.167969 6.578125 19.234375 6.550781 19.296875 C 6.523438 19.363281 6.488281 19.421875 6.472656 19.472656 C 6.449219 19.539062 6.449219 19.574219 6.464844 19.601562 C 6.46875 19.605469 6.476562 19.617188 6.484375 19.625 C 6.679688 19.730469 6.867188 19.859375 7.050781 19.984375 C 7.136719 20.039062 7.222656 20.097656 7.304688 20.152344 C 7.355469 20.183594 7.410156 20.214844 7.460938 20.246094 C 7.390625 19.722656 7.4375 19.269531 7.507812 18.949219 C 7.597656 18.554688 7.703125 18.347656 7.726562 18.355469 C 7.753906 18.363281 7.691406 18.585938 7.648438 18.96875 C 7.609375 19.324219 7.59375 19.824219 7.71875 20.390625 " fill-opacity="1" fill-rule="nonzero"/><g clip-path="url(#052d670a2c)"><path fill="#000000" d="M 5.988281 16.429688 C 6.015625 16.578125 6.046875 16.730469 6.0625 16.890625 C 6.140625 17.703125 6.046875 18.539062 5.789062 19.316406 C 5.789062 19.324219 5.78125 19.339844 5.777344 19.355469 C 5.800781 19.359375 5.820312 19.367188 5.835938 19.367188 C 5.960938 19.394531 6.082031 19.4375 6.195312 19.484375 C 6.203125 19.453125 6.210938 19.421875 6.21875 19.390625 C 6.25 19.3125 6.28125 19.25 6.308594 19.1875 C 6.335938 19.125 6.363281 19.0625 6.390625 19.003906 C 6.445312 18.878906 6.496094 18.757812 6.546875 18.636719 C 6.640625 18.398438 6.726562 18.160156 6.804688 17.933594 C 6.957031 17.480469 7.089844 17.074219 7.207031 16.726562 C 7.042969 16.609375 6.847656 16.542969 6.636719 16.488281 C 6.566406 16.886719 6.542969 17.253906 6.519531 17.539062 C 6.492188 17.910156 6.460938 18.144531 6.425781 18.144531 C 6.386719 18.144531 6.351562 17.914062 6.332031 17.535156 C 6.320312 17.257812 6.316406 16.886719 6.375 16.480469 C 6.375 16.480469 6.375 16.476562 6.375 16.476562 C 6.378906 16.460938 6.378906 16.445312 6.382812 16.429688 C 6.378906 16.429688 6.375 16.429688 6.371094 16.429688 C 6.363281 16.40625 6.347656 16.386719 6.324219 16.375 C 4.796875 15.59375 4.570312 13.933594 4.644531 12.402344 C 4.683594 12.417969 4.726562 12.429688 4.761719 12.441406 C 4.820312 12.460938 4.878906 12.480469 4.933594 12.5 C 4.9375 12.398438 4.949219 12.300781 4.980469 12.207031 C 4.976562 12.207031 4.96875 12.203125 4.96875 12.199219 C 4.917969 12.160156 4.832031 12.109375 4.742188 12.078125 C 4.679688 11.378906 4.597656 10.636719 4.828125 9.957031 C 5.226562 8.773438 6.113281 8.714844 7.179688 8.503906 C 7.957031 8.355469 8.621094 8.035156 8.617188 7.167969 C 8.613281 7.027344 8.394531 7.027344 8.394531 7.167969 C 8.402344 8.523438 6.761719 8.21875 5.972656 8.476562 C 5.582031 8.601562 5.269531 8.8125 5.015625 9.132812 C 4.355469 9.960938 4.429688 11.066406 4.519531 12.050781 C 4.488281 12.058594 4.464844 12.078125 4.449219 12.105469 C 4.429688 12.121094 4.414062 12.136719 4.402344 12.152344 C 4.386719 12.171875 4.375 12.207031 4.382812 12.234375 C 4.386719 12.257812 4.40625 12.277344 4.425781 12.296875 C 4.339844 13.851562 4.5625 15.554688 5.988281 16.429688 " fill-opacity="1" fill-rule="nonzero"/></g><path fill="#000000" d="M 14.59375 4.265625 C 14.601562 4.257812 14.609375 4.25 14.609375 4.242188 C 14.609375 4.246094 14.609375 4.246094 14.613281 4.246094 C 14.613281 4.253906 14.613281 4.261719 14.613281 4.273438 C 14.609375 4.273438 14.601562 4.273438 14.59375 4.265625 Z M 14.617188 4.484375 C 14.660156 7.53125 14.578125 10.582031 14.652344 13.632812 C 14.652344 13.726562 14.761719 13.757812 14.824219 13.71875 C 14.847656 13.765625 14.878906 13.816406 14.910156 13.859375 C 15.054688 14.074219 15.277344 14.265625 15.585938 14.449219 L 15.660156 14.488281 C 15.796875 14.570312 15.933594 14.648438 16.050781 14.765625 C 16.085938 14.800781 16.117188 14.839844 16.148438 14.875 C 16.179688 14.914062 16.207031 14.953125 16.246094 14.984375 C 16.28125 15.015625 16.347656 15.074219 16.421875 15.070312 C 16.433594 15.070312 16.457031 15.046875 16.457031 15.023438 C 16.457031 14.980469 16.4375 14.929688 16.417969 14.871094 L 16.402344 14.835938 C 16.375 14.753906 16.339844 14.636719 16.386719 14.519531 C 16.40625 14.476562 16.433594 14.4375 16.460938 14.40625 C 16.476562 14.386719 16.5 14.351562 16.5 14.339844 C 16.5 14.335938 16.488281 14.320312 16.460938 14.308594 C 16.4375 14.296875 16.40625 14.289062 16.375 14.28125 C 16.351562 14.273438 16.332031 14.269531 16.308594 14.265625 C 16.113281 14.207031 15.933594 14.054688 15.804688 13.835938 C 15.722656 13.691406 15.667969 13.539062 15.613281 13.386719 L 15.574219 13.28125 C 15.519531 13.136719 15.457031 12.992188 15.355469 12.882812 C 15.308594 12.835938 15.253906 12.800781 15.199219 12.777344 C 15.09375 12.824219 15 12.890625 14.925781 12.976562 C 14.90625 12.996094 14.882812 13.023438 14.863281 13.050781 C 14.8125 10.121094 14.882812 7.191406 14.832031 4.261719 C 14.835938 4.246094 14.835938 4.234375 14.832031 4.21875 C 14.832031 4.210938 14.832031 4.203125 14.832031 4.195312 C 14.859375 4.171875 14.875 4.140625 14.863281 4.097656 C 14.859375 4.09375 14.859375 4.089844 14.859375 4.089844 C 14.859375 4.066406 14.851562 4.042969 14.839844 4.019531 C 14.835938 4.011719 14.835938 4.003906 14.828125 3.996094 C 14.828125 3.867188 14.824219 3.738281 14.824219 3.609375 C 14.820312 3.46875 14.597656 3.46875 14.601562 3.609375 C 14.605469 3.746094 14.605469 3.886719 14.609375 4.023438 C 14.59375 4.023438 14.578125 4.023438 14.5625 4.023438 C 14.5 4.035156 14.441406 4.074219 14.40625 4.128906 C 14.332031 4.234375 14.363281 4.375 14.46875 4.445312 C 14.519531 4.480469 14.570312 4.488281 14.617188 4.484375 " fill-opacity="1" fill-rule="nonzero"/><g clip-path="url(#008eb9334e)"><path fill="#000000" d="M 18.050781 4.019531 C 18.011719 7.339844 18.144531 10.664062 18.25 13.988281 C 18.222656 13.980469 18.195312 13.976562 18.167969 13.980469 C 18.097656 13.992188 18.03125 14.0625 18.027344 14.128906 C 18.027344 14.164062 18.015625 14.195312 17.996094 14.222656 C 17.984375 14.355469 18.054688 14.503906 18.175781 14.566406 C 18.195312 14.578125 18.210938 14.585938 18.230469 14.59375 C 18.242188 14.597656 18.257812 14.605469 18.269531 14.613281 C 18.34375 17.070312 18.394531 19.527344 18.339844 21.980469 C 18.285156 21.980469 18.230469 21.980469 18.175781 21.980469 C 18.148438 22 18.109375 22.015625 18.070312 22.011719 C 17.925781 22.003906 17.804688 22.027344 17.660156 22.050781 L 17.550781 22.070312 C 17.488281 22.082031 17.417969 22.085938 17.351562 22.085938 C 17.238281 22.085938 17.121094 22.074219 17.007812 22.0625 C 16.9375 22.054688 16.867188 22.046875 16.800781 22.042969 C 16.289062 22.019531 15.78125 21.996094 15.28125 21.980469 C 15.0625 21.96875 14.207031 21.953125 13.277344 21.941406 C 13.261719 22.015625 13.25 22.085938 13.242188 22.160156 L 18.371094 22.160156 C 18.410156 22.195312 18.484375 22.195312 18.527344 22.160156 L 19.839844 22.160156 C 20.132812 22.160156 20.425781 22.15625 20.714844 22.15625 C 21.1875 22.152344 21.675781 22.148438 22.167969 22.152344 C 23.9375 22.179688 25.769531 22.203125 27.523438 21.808594 C 27.652344 21.777344 27.773438 21.734375 27.894531 21.6875 C 27.464844 21.761719 27.03125 21.816406 26.605469 21.867188 C 26.464844 21.886719 26.335938 21.890625 26.210938 21.890625 C 26.1875 21.890625 26.164062 21.890625 26.140625 21.890625 C 26.03125 21.902344 25.929688 21.914062 25.824219 21.925781 C 25.542969 21.957031 25.265625 21.972656 25.007812 21.972656 C 24.921875 21.976562 24.839844 21.972656 24.753906 21.96875 C 24.605469 21.960938 24.464844 21.957031 24.335938 21.976562 C 24.140625 22.007812 23.9375 22 23.742188 21.996094 C 23.660156 21.996094 23.582031 21.992188 23.503906 21.992188 C 23.230469 21.996094 22.960938 21.996094 22.6875 22 C 22.140625 22 21.597656 22 21.050781 22 C 20.179688 22 19.316406 21.992188 18.5625 21.984375 C 18.617188 19.445312 18.5625 16.902344 18.484375 14.359375 C 18.484375 14.320312 18.484375 14.28125 18.480469 14.246094 C 18.371094 10.816406 18.230469 7.386719 18.273438 3.960938 C 18.332031 3.910156 18.363281 3.84375 18.367188 3.769531 C 18.398438 3.738281 18.417969 3.691406 18.394531 3.636719 C 18.367188 3.585938 18.328125 3.542969 18.28125 3.515625 C 18.285156 3.34375 18.285156 3.175781 18.289062 3.007812 C 18.292969 2.867188 18.070312 2.867188 18.066406 3.007812 C 18.0625 3.160156 18.0625 3.3125 18.058594 3.464844 C 17.960938 3.480469 17.867188 3.539062 17.828125 3.652344 C 17.769531 3.824219 17.894531 3.988281 18.050781 4.019531 " fill-opacity="1" fill-rule="nonzero"/></g></svg>