<svg xmlns="http://www.w3.org/2000/svg" xmlns:xlink="http://www.w3.org/1999/xlink" width="500" zoomAndPan="magnify" viewBox="0 0 375 374.999991" height="500" preserveAspectRatio="xMidYMid meet" version="1.0"><defs><g/><clipPath id="adcaf744db"><path d="M 1.582031 1.582031 L 373.417969 1.582031 L 373.417969 373.417969 L 1.582031 373.417969 Z M 1.582031 1.582031 " clip-rule="nonzero"/></clipPath><clipPath id="53af72b2bd"><path d="M 187.5 1.582031 C 84.820312 1.582031 1.582031 84.820312 1.582031 187.5 C 1.582031 290.179688 84.820312 373.417969 187.5 373.417969 C 290.179688 373.417969 373.417969 290.179688 373.417969 187.5 C 373.417969 84.820312 290.179688 1.582031 187.5 1.582031 Z M 187.5 1.582031 " clip-rule="nonzero"/></clipPath><clipPath id="782aae9b09"><path d="M 86.136719 255.910156 L 135.238281 255.910156 L 135.238281 312.609375 L 86.136719 312.609375 Z M 86.136719 255.910156 " clip-rule="nonzero"/></clipPath><clipPath id="9f2cb7618a"><path d="M 135.238281 312.609375 L 86.136719 284.261719 L 135.238281 255.910156 Z M 135.238281 312.609375 " clip-rule="nonzero"/></clipPath><clipPath id="a31c8d39c2"><path d="M 273.503906 62.460938 L 322.605469 62.460938 L 322.605469 119.160156 L 273.503906 119.160156 Z M 273.503906 62.460938 " clip-rule="nonzero"/></clipPath><clipPath id="505154252e"><path d="M 273.503906 62.460938 L 322.605469 90.808594 L 273.503906 119.160156 Z M 273.503906 62.460938 " clip-rule="nonzero"/></clipPath></defs><g clip-path="url(#adcaf744db)"><g clip-path="url(#53af72b2bd)"><path fill="#ff5757" d="M 1.582031 1.582031 L 373.417969 1.582031 L 373.417969 373.417969 L 1.582031 373.417969 Z M 1.582031 1.582031 " fill-opacity="1" fill-rule="nonzero"/></g></g><g fill="#ffffff" fill-opacity="1"><g transform="translate(140.197626, 271.272428)"><g><path d="M 67.125 -170.25 C 76.488281 -170.25 85.410156 -168.816406 93.890625 -165.953125 C 102.367188 -163.085938 110.148438 -159.039062 117.234375 -153.8125 C 124.316406 -148.59375 130.472656 -142.457031 135.703125 -135.40625 C 140.929688 -128.363281 144.976562 -120.601562 147.84375 -112.125 C 150.707031 -103.644531 152.140625 -94.757812 152.140625 -85.46875 C 152.140625 -76.03125 150.6875 -67.03125 147.78125 -58.46875 C 144.875 -49.914062 140.804688 -42.078125 135.578125 -34.953125 C 130.359375 -27.828125 124.164062 -21.648438 117 -16.421875 C 109.84375 -11.203125 102.003906 -7.160156 93.484375 -4.296875 C 84.972656 -1.429688 76.03125 0 66.65625 0 L 3.25 0 L 3.25 -170.25 Z M 67.125 -42.96875 C 72.851562 -42.96875 78.234375 -44.070312 83.265625 -46.28125 C 88.296875 -48.488281 92.707031 -51.546875 96.5 -55.453125 C 100.300781 -59.359375 103.265625 -63.867188 105.390625 -68.984375 C 107.515625 -74.097656 108.578125 -79.59375 108.578125 -85.46875 C 108.578125 -91.050781 107.515625 -96.359375 105.390625 -101.390625 C 103.265625 -106.421875 100.300781 -110.890625 96.5 -114.796875 C 92.707031 -118.703125 88.296875 -121.757812 83.265625 -123.96875 C 78.234375 -126.175781 72.851562 -127.28125 67.125 -127.28125 L 46.6875 -127.28125 L 46.6875 -42.96875 Z M 67.125 -42.96875 "/></g></g></g><g fill="#ffffff" fill-opacity="1"><g transform="translate(106.932225, 236.114881)"><g><path d="M -35.8125 -18.65625 C -35.8125 -20.675781 -35.503906 -22.59375 -34.890625 -24.40625 C -34.285156 -26.226562 -33.425781 -27.894531 -32.3125 -29.40625 C -31.207031 -30.914062 -29.894531 -32.222656 -28.375 -33.328125 C -26.863281 -34.441406 -25.195312 -35.300781 -23.375 -35.90625 C -21.5625 -36.519531 -19.648438 -36.828125 -17.640625 -36.828125 C -15.648438 -36.828125 -13.75 -36.519531 -11.9375 -35.90625 C -10.132812 -35.300781 -8.476562 -34.441406 -6.96875 -33.328125 C -5.46875 -32.222656 -4.160156 -30.914062 -3.046875 -29.40625 C -1.941406 -27.894531 -1.082031 -26.226562 -0.46875 -24.40625 C 0.132812 -22.59375 0.4375 -20.675781 0.4375 -18.65625 C 0.4375 -16.664062 0.132812 -14.765625 -0.46875 -12.953125 C -1.082031 -11.148438 -1.941406 -9.492188 -3.046875 -7.984375 C -4.160156 -6.484375 -5.46875 -5.175781 -6.96875 -4.0625 C -8.476562 -2.957031 -10.132812 -2.097656 -11.9375 -1.484375 C -13.75 -0.878906 -15.648438 -0.578125 -17.640625 -0.578125 C -19.648438 -0.578125 -21.5625 -0.878906 -23.375 -1.484375 C -25.195312 -2.097656 -26.863281 -2.957031 -28.375 -4.0625 C -29.894531 -5.175781 -31.207031 -6.484375 -32.3125 -7.984375 C -33.425781 -9.492188 -34.285156 -11.148438 -34.890625 -12.953125 C -35.503906 -14.765625 -35.8125 -16.664062 -35.8125 -18.65625 Z M -8.875 -18.65625 C -8.875 -19.90625 -9.101562 -21.070312 -9.5625 -22.15625 C -10.019531 -23.238281 -10.648438 -24.179688 -11.453125 -24.984375 C -12.265625 -25.796875 -13.195312 -26.429688 -14.25 -26.890625 C -15.300781 -27.347656 -16.429688 -27.578125 -17.640625 -27.578125 C -18.859375 -27.578125 -20 -27.347656 -21.0625 -26.890625 C -22.132812 -26.429688 -23.082031 -25.796875 -23.90625 -24.984375 C -24.726562 -24.179688 -25.367188 -23.238281 -25.828125 -22.15625 C -26.285156 -21.070312 -26.515625 -19.90625 -26.515625 -18.65625 C -26.515625 -17.445312 -26.285156 -16.316406 -25.828125 -15.265625 C -25.367188 -14.210938 -24.726562 -13.28125 -23.90625 -12.46875 C -23.082031 -11.65625 -22.132812 -11.019531 -21.0625 -10.5625 C -20 -10.101562 -18.859375 -9.875 -17.640625 -9.875 C -16.429688 -9.875 -15.300781 -10.101562 -14.25 -10.5625 C -13.195312 -11.019531 -12.265625 -11.65625 -11.453125 -12.46875 C -10.648438 -13.28125 -10.019531 -14.210938 -9.5625 -15.265625 C -9.101562 -16.316406 -8.875 -17.445312 -8.875 -18.65625 Z M -8.875 -18.65625 "/></g></g></g><g fill="#ffffff" fill-opacity="1"><g transform="translate(141.807211, 223.235976)"><g><path d="M 0 -1.6875 L -35.375 -1.6875 L -35.375 -10.96875 L 0 -10.96875 Z M 0 -1.6875 "/></g></g></g><g fill="#ffffff" fill-opacity="1"><g transform="translate(106.932225, 181.11576)"><g><path d="M -35.8125 -18.65625 C -35.8125 -20.675781 -35.503906 -22.59375 -34.890625 -24.40625 C -34.285156 -26.226562 -33.425781 -27.894531 -32.3125 -29.40625 C -31.207031 -30.914062 -29.894531 -32.222656 -28.375 -33.328125 C -26.863281 -34.441406 -25.195312 -35.300781 -23.375 -35.90625 C -21.5625 -36.519531 -19.648438 -36.828125 -17.640625 -36.828125 C -15.648438 -36.828125 -13.75 -36.519531 -11.9375 -35.90625 C -10.132812 -35.300781 -8.476562 -34.441406 -6.96875 -33.328125 C -5.46875 -32.222656 -4.160156 -30.914062 -3.046875 -29.40625 C -1.941406 -27.894531 -1.082031 -26.226562 -0.46875 -24.40625 C 0.132812 -22.59375 0.4375 -20.675781 0.4375 -18.65625 C 0.4375 -16.664062 0.132812 -14.765625 -0.46875 -12.953125 C -1.082031 -11.148438 -1.941406 -9.492188 -3.046875 -7.984375 C -4.160156 -6.484375 -5.46875 -5.175781 -6.96875 -4.0625 C -8.476562 -2.957031 -10.132812 -2.097656 -11.9375 -1.484375 C -13.75 -0.878906 -15.648438 -0.578125 -17.640625 -0.578125 C -19.648438 -0.578125 -21.5625 -0.878906 -23.375 -1.484375 C -25.195312 -2.097656 -26.863281 -2.957031 -28.375 -4.0625 C -29.894531 -5.175781 -31.207031 -6.484375 -32.3125 -7.984375 C -33.425781 -9.492188 -34.285156 -11.148438 -34.890625 -12.953125 C -35.503906 -14.765625 -35.8125 -16.664062 -35.8125 -18.65625 Z M -8.875 -18.65625 C -8.875 -19.90625 -9.101562 -21.070312 -9.5625 -22.15625 C -10.019531 -23.238281 -10.648438 -24.179688 -11.453125 -24.984375 C -12.265625 -25.796875 -13.195312 -26.429688 -14.25 -26.890625 C -15.300781 -27.347656 -16.429688 -27.578125 -17.640625 -27.578125 C -18.859375 -27.578125 -20 -27.347656 -21.0625 -26.890625 C -22.132812 -26.429688 -23.082031 -25.796875 -23.90625 -24.984375 C -24.726562 -24.179688 -25.367188 -23.238281 -25.828125 -22.15625 C -26.285156 -21.070312 -26.515625 -19.90625 -26.515625 -18.65625 C -26.515625 -17.445312 -26.285156 -16.316406 -25.828125 -15.265625 C -25.367188 -14.210938 -24.726562 -13.28125 -23.90625 -12.46875 C -23.082031 -11.65625 -22.132812 -11.019531 -21.0625 -10.5625 C -20 -10.101562 -18.859375 -9.875 -17.640625 -9.875 C -16.429688 -9.875 -15.300781 -10.101562 -14.25 -10.5625 C -13.195312 -11.019531 -12.265625 -11.65625 -11.453125 -12.46875 C -10.648438 -13.28125 -10.019531 -14.210938 -9.5625 -15.265625 C -9.101562 -16.316406 -8.875 -17.445312 -8.875 -18.65625 Z M -8.875 -18.65625 "/></g></g></g><g fill="#ffffff" fill-opacity="1"><g transform="translate(141.807211, 168.236855)"><g><path d="M 0 -1.6875 L -35.375 -1.6875 L -35.375 -10.96875 L 0 -10.96875 Z M 0 -1.6875 "/></g></g></g><g fill="#ffffff" fill-opacity="1"><g transform="translate(77.33815, 209.374498)"><g><path d="M -35.8125 -18.65625 C -35.8125 -20.675781 -35.503906 -22.59375 -34.890625 -24.40625 C -34.285156 -26.226562 -33.425781 -27.894531 -32.3125 -29.40625 C -31.207031 -30.914062 -29.894531 -32.222656 -28.375 -33.328125 C -26.863281 -34.441406 -25.195312 -35.300781 -23.375 -35.90625 C -21.5625 -36.519531 -19.648438 -36.828125 -17.640625 -36.828125 C -15.648438 -36.828125 -13.75 -36.519531 -11.9375 -35.90625 C -10.132812 -35.300781 -8.476562 -34.441406 -6.96875 -33.328125 C -5.46875 -32.222656 -4.160156 -30.914062 -3.046875 -29.40625 C -1.941406 -27.894531 -1.082031 -26.226562 -0.46875 -24.40625 C 0.132812 -22.59375 0.4375 -20.675781 0.4375 -18.65625 C 0.4375 -16.664062 0.132812 -14.765625 -0.46875 -12.953125 C -1.082031 -11.148438 -1.941406 -9.492188 -3.046875 -7.984375 C -4.160156 -6.484375 -5.46875 -5.175781 -6.96875 -4.0625 C -8.476562 -2.957031 -10.132812 -2.097656 -11.9375 -1.484375 C -13.75 -0.878906 -15.648438 -0.578125 -17.640625 -0.578125 C -19.648438 -0.578125 -21.5625 -0.878906 -23.375 -1.484375 C -25.195312 -2.097656 -26.863281 -2.957031 -28.375 -4.0625 C -29.894531 -5.175781 -31.207031 -6.484375 -32.3125 -7.984375 C -33.425781 -9.492188 -34.285156 -11.148438 -34.890625 -12.953125 C -35.503906 -14.765625 -35.8125 -16.664062 -35.8125 -18.65625 Z M -8.875 -18.65625 C -8.875 -19.90625 -9.101562 -21.070312 -9.5625 -22.15625 C -10.019531 -23.238281 -10.648438 -24.179688 -11.453125 -24.984375 C -12.265625 -25.796875 -13.195312 -26.429688 -14.25 -26.890625 C -15.300781 -27.347656 -16.429688 -27.578125 -17.640625 -27.578125 C -18.859375 -27.578125 -20 -27.347656 -21.0625 -26.890625 C -22.132812 -26.429688 -23.082031 -25.796875 -23.90625 -24.984375 C -24.726562 -24.179688 -25.367188 -23.238281 -25.828125 -22.15625 C -26.285156 -21.070312 -26.515625 -19.90625 -26.515625 -18.65625 C -26.515625 -17.445312 -26.285156 -16.316406 -25.828125 -15.265625 C -25.367188 -14.210938 -24.726562 -13.28125 -23.90625 -12.46875 C -23.082031 -11.65625 -22.132812 -11.019531 -21.0625 -10.5625 C -20 -10.101562 -18.859375 -9.875 -17.640625 -9.875 C -16.429688 -9.875 -15.300781 -10.101562 -14.25 -10.5625 C -13.195312 -11.019531 -12.265625 -11.65625 -11.453125 -12.46875 C -10.648438 -13.28125 -10.019531 -14.210938 -9.5625 -15.265625 C -9.101562 -16.316406 -8.875 -17.445312 -8.875 -18.65625 Z M -8.875 -18.65625 "/></g></g></g><g fill="#ffffff" fill-opacity="1"><g transform="translate(111.899301, 196.329362)"><g><path d="M 0 -1.6875 L -35.375 -1.6875 L -35.375 -10.96875 L 0 -10.96875 Z M 0 -1.6875 "/></g></g></g><g fill="#ffffff" fill-opacity="1"><g transform="translate(142.2564, 196.495593)"><g><path d="M 0 -1.6875 L -35.375 -1.6875 L -35.375 -10.96875 L 0 -10.96875 Z M 0 -1.6875 "/></g></g></g><g fill="#ffffff" fill-opacity="1"><g transform="translate(248.413207, 309.618819)"><g><path d="M -114.453125 -17.171875 L -114.453125 -33.515625 L 0 -33.515625 L 0 -17.171875 Z M -114.453125 -17.171875 "/></g></g></g><g clip-path="url(#782aae9b09)"><g clip-path="url(#9f2cb7618a)"><path fill="#ffffff" d="M 86.136719 312.609375 L 86.136719 255.910156 L 135.238281 255.910156 L 135.238281 312.609375 Z M 86.136719 312.609375 " fill-opacity="1" fill-rule="nonzero"/></g></g><g fill="#ffffff" fill-opacity="1"><g transform="translate(110.008781, 64.657715)"><g><path d="M 113.59375 17.046875 L 113.59375 33.265625 L 0 33.265625 L 0 17.046875 Z M 113.59375 17.046875 "/></g></g></g><g clip-path="url(#a31c8d39c2)"><g clip-path="url(#505154252e)"><path fill="#ffffff" d="M 322.605469 62.460938 L 322.605469 119.160156 L 273.503906 119.160156 L 273.503906 62.460938 Z M 322.605469 62.460938 " fill-opacity="1" fill-rule="nonzero"/></g></g><g fill="#ffffff" fill-opacity="1"><g transform="translate(19.174163, 64.657715)"><g><path d="M 113.59375 17.046875 L 113.59375 33.265625 L 0 33.265625 L 0 17.046875 Z M 113.59375 17.046875 "/></g></g></g><g fill="#ffffff" fill-opacity="1"><g transform="translate(323.110368, 309.618819)"><g><path d="M -114.453125 -17.171875 L -114.453125 -33.515625 L 0 -33.515625 L 0 -17.171875 Z M -114.453125 -17.171875 "/></g></g></g><g fill="#ffffff" fill-opacity="1"><g transform="translate(161.953485, 64.657715)"><g><path d="M 113.59375 17.046875 L 113.59375 33.265625 L 0 33.265625 L 0 17.046875 Z M 113.59375 17.046875 "/></g></g></g><g fill="#ffffff" fill-opacity="1"><g transform="translate(356.187286, 309.618819)"><g><path d="M -114.453125 -17.171875 L -114.453125 -33.515625 L 0 -33.515625 L 0 -17.171875 Z M -114.453125 -17.171875 "/></g></g></g></svg>