<svg xmlns="http://www.w3.org/2000/svg" xmlns:xlink="http://www.w3.org/1999/xlink" width="500" zoomAndPan="magnify" viewBox="0 0 375 374.999991" height="500" preserveAspectRatio="xMidYMid meet" version="1.0"><defs><g/><clipPath id="9b0a09b902"><path d="M 31.839844 28.675781 L 347.25 28.675781 L 347.25 344.089844 L 31.839844 344.089844 Z M 31.839844 28.675781 " clip-rule="nonzero"/></clipPath><clipPath id="eb0712d859"><path d="M 189.546875 28.675781 C 102.445312 28.675781 31.839844 99.285156 31.839844 186.382812 C 31.839844 273.480469 102.445312 344.089844 189.546875 344.089844 C 276.644531 344.089844 347.25 273.480469 347.25 186.382812 C 347.25 99.285156 276.644531 28.675781 189.546875 28.675781 Z M 189.546875 28.675781 " clip-rule="nonzero"/></clipPath><clipPath id="5b2598ed59"><path d="M 83.359375 256.914062 L 132.460938 256.914062 L 132.460938 313.613281 L 83.359375 313.613281 Z M 83.359375 256.914062 " clip-rule="nonzero"/></clipPath><clipPath id="f63baf8f02"><path d="M 132.460938 313.613281 L 83.359375 285.265625 L 132.460938 256.914062 Z M 132.460938 313.613281 " clip-rule="nonzero"/></clipPath><clipPath id="7d8acaa75e"><path d="M 259.417969 63.464844 L 308.519531 63.464844 L 308.519531 120.164062 L 259.417969 120.164062 Z M 259.417969 63.464844 " clip-rule="nonzero"/></clipPath><clipPath id="768ed04a9d"><path d="M 259.417969 63.464844 L 308.519531 91.8125 L 259.417969 120.164062 Z M 259.417969 63.464844 " clip-rule="nonzero"/></clipPath></defs><g clip-path="url(#9b0a09b902)"><g clip-path="url(#eb0712d859)"><path fill="#ff5757" d="M 31.839844 28.675781 L 347.25 28.675781 L 347.25 344.089844 L 31.839844 344.089844 Z M 31.839844 28.675781 " fill-opacity="1" fill-rule="nonzero"/></g></g><g fill="#ffffff" fill-opacity="1"><g transform="translate(137.422715, 272.276593)"><g><path d="M 67.125 -170.25 C 76.488281 -170.25 85.410156 -168.816406 93.890625 -165.953125 C 102.367188 -163.085938 110.148438 -159.039062 117.234375 -153.8125 C 124.316406 -148.59375 130.472656 -142.457031 135.703125 -135.40625 C 140.929688 -128.363281 144.976562 -120.601562 147.84375 -112.125 C 150.707031 -103.644531 152.140625 -94.757812 152.140625 -85.46875 C 152.140625 -76.03125 150.6875 -67.03125 147.78125 -58.46875 C 144.875 -49.914062 140.804688 -42.078125 135.578125 -34.953125 C 130.359375 -27.828125 124.164062 -21.648438 117 -16.421875 C 109.84375 -11.203125 102.003906 -7.160156 93.484375 -4.296875 C 84.972656 -1.429688 76.03125 0 66.65625 0 L 3.25 0 L 3.25 -170.25 Z M 67.125 -20.203125 C 74.25 -20.203125 81.039062 -21.304688 87.5 -23.515625 C 93.96875 -25.722656 99.890625 -28.816406 105.265625 -32.796875 C 110.648438 -36.785156 115.316406 -41.507812 119.265625 -46.96875 C 123.210938 -52.425781 126.269531 -58.40625 128.4375 -64.90625 C 130.613281 -71.414062 131.703125 -78.269531 131.703125 -85.46875 C 131.703125 -92.519531 130.597656 -99.273438 128.390625 -105.734375 C 126.179688 -112.203125 123.101562 -118.125 119.15625 -123.5 C 115.207031 -128.882812 110.519531 -133.570312 105.09375 -137.5625 C 99.675781 -141.550781 93.71875 -144.628906 87.21875 -146.796875 C 80.71875 -148.960938 73.863281 -150.046875 66.65625 -150.046875 L 24.15625 -150.046875 L 24.15625 -20.203125 Z M 66.65625 -147.375 C 75.25 -147.375 83.320312 -145.765625 90.875 -142.546875 C 98.425781 -139.335938 105.046875 -134.882812 110.734375 -129.1875 C 116.421875 -123.5 120.890625 -116.921875 124.140625 -109.453125 C 127.398438 -101.984375 129.03125 -93.988281 129.03125 -85.46875 C 129.03125 -76.800781 127.398438 -68.691406 124.140625 -61.140625 C 120.890625 -53.597656 116.421875 -46.960938 110.734375 -41.234375 C 105.046875 -35.503906 98.425781 -31.007812 90.875 -27.75 C 83.320312 -24.5 75.25 -22.875 66.65625 -22.875 L 26.359375 -22.875 L 26.359375 -147.375 Z M 67.125 -42.96875 C 72.851562 -42.96875 78.234375 -44.070312 83.265625 -46.28125 C 88.296875 -48.488281 92.707031 -51.546875 96.5 -55.453125 C 100.300781 -59.359375 103.265625 -63.867188 105.390625 -68.984375 C 107.515625 -74.097656 108.578125 -79.59375 108.578125 -85.46875 C 108.578125 -91.050781 107.515625 -96.359375 105.390625 -101.390625 C 103.265625 -106.421875 100.300781 -110.890625 96.5 -114.796875 C 92.707031 -118.703125 88.296875 -121.757812 83.265625 -123.96875 C 78.234375 -126.175781 72.851562 -127.28125 67.125 -127.28125 L 46.6875 -127.28125 L 46.6875 -42.96875 Z M 67.125 -42.96875 "/></g></g></g><g fill="#ffffff" fill-opacity="1"><g transform="translate(103.850308, 237.11846)"><g><path d="M -35.8125 -18.65625 C -35.8125 -20.675781 -35.503906 -22.59375 -34.890625 -24.40625 C -34.285156 -26.226562 -33.425781 -27.894531 -32.3125 -29.40625 C -31.207031 -30.914062 -29.894531 -32.222656 -28.375 -33.328125 C -26.863281 -34.441406 -25.195312 -35.300781 -23.375 -35.90625 C -21.5625 -36.519531 -19.648438 -36.828125 -17.640625 -36.828125 C -15.648438 -36.828125 -13.75 -36.519531 -11.9375 -35.90625 C -10.132812 -35.300781 -8.476562 -34.441406 -6.96875 -33.328125 C -5.46875 -32.222656 -4.160156 -30.914062 -3.046875 -29.40625 C -1.941406 -27.894531 -1.082031 -26.226562 -0.46875 -24.40625 C 0.132812 -22.59375 0.4375 -20.675781 0.4375 -18.65625 C 0.4375 -16.664062 0.132812 -14.765625 -0.46875 -12.953125 C -1.082031 -11.148438 -1.941406 -9.492188 -3.046875 -7.984375 C -4.160156 -6.484375 -5.46875 -5.175781 -6.96875 -4.0625 C -8.476562 -2.957031 -10.132812 -2.097656 -11.9375 -1.484375 C -13.75 -0.878906 -15.648438 -0.578125 -17.640625 -0.578125 C -19.648438 -0.578125 -21.5625 -0.878906 -23.375 -1.484375 C -25.195312 -2.097656 -26.863281 -2.957031 -28.375 -4.0625 C -29.894531 -5.175781 -31.207031 -6.484375 -32.3125 -7.984375 C -33.425781 -9.492188 -34.285156 -11.148438 -34.890625 -12.953125 C -35.503906 -14.765625 -35.8125 -16.664062 -35.8125 -18.65625 Z M -3.921875 -18.65625 C -3.921875 -20.582031 -4.273438 -22.378906 -4.984375 -24.046875 C -5.691406 -25.722656 -6.675781 -27.191406 -7.9375 -28.453125 C -9.195312 -29.710938 -10.65625 -30.695312 -12.3125 -31.40625 C -13.96875 -32.113281 -15.742188 -32.46875 -17.640625 -32.46875 C -19.554688 -32.46875 -21.347656 -32.113281 -23.015625 -31.40625 C -24.679688 -30.695312 -26.144531 -29.710938 -27.40625 -28.453125 C -28.675781 -27.191406 -29.664062 -25.722656 -30.375 -24.046875 C -31.09375 -22.378906 -31.453125 -20.582031 -31.453125 -18.65625 C -31.453125 -16.757812 -31.09375 -14.988281 -30.375 -13.34375 C -29.664062 -11.695312 -28.675781 -10.242188 -27.40625 -8.984375 C -26.144531 -7.734375 -24.679688 -6.753906 -23.015625 -6.046875 C -21.347656 -5.335938 -19.554688 -4.984375 -17.640625 -4.984375 C -16.128906 -4.984375 -14.6875 -5.210938 -13.3125 -5.671875 C -11.9375 -6.128906 -10.675781 -6.773438 -9.53125 -7.609375 C -8.394531 -8.453125 -7.40625 -9.441406 -6.5625 -10.578125 C -5.71875 -11.722656 -5.066406 -12.976562 -4.609375 -14.34375 C -4.148438 -15.707031 -3.921875 -17.144531 -3.921875 -18.65625 Z M -30.953125 -18.65625 C -30.953125 -20.5 -30.609375 -22.222656 -29.921875 -23.828125 C -29.234375 -25.441406 -28.28125 -26.859375 -27.0625 -28.078125 C -25.84375 -29.296875 -24.425781 -30.242188 -22.8125 -30.921875 C -21.207031 -31.609375 -19.484375 -31.953125 -17.640625 -31.953125 C -15.828125 -31.953125 -14.128906 -31.609375 -12.546875 -30.921875 C -10.960938 -30.242188 -9.566406 -29.296875 -8.359375 -28.078125 C -7.160156 -26.859375 -6.21875 -25.441406 -5.53125 -23.828125 C -4.84375 -22.222656 -4.5 -20.5 -4.5 -18.65625 C -4.5 -16.84375 -4.84375 -15.140625 -5.53125 -13.546875 C -6.21875 -11.953125 -7.160156 -10.550781 -8.359375 -9.34375 C -9.566406 -8.144531 -10.960938 -7.203125 -12.546875 -6.515625 C -14.128906 -5.835938 -15.828125 -5.5 -17.640625 -5.5 C -19.484375 -5.5 -21.207031 -5.835938 -22.8125 -6.515625 C -24.425781 -7.203125 -25.84375 -8.144531 -27.0625 -9.34375 C -28.28125 -10.550781 -29.234375 -11.953125 -29.921875 -13.546875 C -30.609375 -15.140625 -30.953125 -16.84375 -30.953125 -18.65625 Z M -8.875 -18.65625 C -8.875 -19.90625 -9.101562 -21.070312 -9.5625 -22.15625 C -10.019531 -23.238281 -10.648438 -24.179688 -11.453125 -24.984375 C -12.265625 -25.796875 -13.195312 -26.429688 -14.25 -26.890625 C -15.300781 -27.347656 -16.429688 -27.578125 -17.640625 -27.578125 C -18.859375 -27.578125 -20 -27.347656 -21.0625 -26.890625 C -22.132812 -26.429688 -23.082031 -25.796875 -23.90625 -24.984375 C -24.726562 -24.179688 -25.367188 -23.238281 -25.828125 -22.15625 C -26.285156 -21.070312 -26.515625 -19.90625 -26.515625 -18.65625 C -26.515625 -17.445312 -26.285156 -16.316406 -25.828125 -15.265625 C -25.367188 -14.210938 -24.726562 -13.28125 -23.90625 -12.46875 C -23.082031 -11.65625 -22.132812 -11.019531 -21.0625 -10.5625 C -20 -10.101562 -18.859375 -9.875 -17.640625 -9.875 C -16.429688 -9.875 -15.300781 -10.101562 -14.25 -10.5625 C -13.195312 -11.019531 -12.265625 -11.65625 -11.453125 -12.46875 C -10.648438 -13.28125 -10.019531 -14.210938 -9.5625 -15.265625 C -9.101562 -16.316406 -8.875 -17.445312 -8.875 -18.65625 Z M -8.875 -18.65625 "/></g></g></g><g fill="#ffffff" fill-opacity="1"><g transform="translate(138.725305, 223.984124)"><g><path d="M 0 -1.203125 L -35.375 -1.203125 L -35.375 -5.609375 L 0 -5.609375 Z M 0 -6.125 L -35.375 -6.125 L -35.375 -10.484375 L 0 -10.484375 Z M 0 -6.125 "/></g></g></g><g fill="#ffffff" fill-opacity="1"><g transform="translate(103.850308, 182.119354)"><g><path d="M -35.8125 -18.65625 C -35.8125 -20.675781 -35.503906 -22.59375 -34.890625 -24.40625 C -34.285156 -26.226562 -33.425781 -27.894531 -32.3125 -29.40625 C -31.207031 -30.914062 -29.894531 -32.222656 -28.375 -33.328125 C -26.863281 -34.441406 -25.195312 -35.300781 -23.375 -35.90625 C -21.5625 -36.519531 -19.648438 -36.828125 -17.640625 -36.828125 C -15.648438 -36.828125 -13.75 -36.519531 -11.9375 -35.90625 C -10.132812 -35.300781 -8.476562 -34.441406 -6.96875 -33.328125 C -5.46875 -32.222656 -4.160156 -30.914062 -3.046875 -29.40625 C -1.941406 -27.894531 -1.082031 -26.226562 -0.46875 -24.40625 C 0.132812 -22.59375 0.4375 -20.675781 0.4375 -18.65625 C 0.4375 -16.664062 0.132812 -14.765625 -0.46875 -12.953125 C -1.082031 -11.148438 -1.941406 -9.492188 -3.046875 -7.984375 C -4.160156 -6.484375 -5.46875 -5.175781 -6.96875 -4.0625 C -8.476562 -2.957031 -10.132812 -2.097656 -11.9375 -1.484375 C -13.75 -0.878906 -15.648438 -0.578125 -17.640625 -0.578125 C -19.648438 -0.578125 -21.5625 -0.878906 -23.375 -1.484375 C -25.195312 -2.097656 -26.863281 -2.957031 -28.375 -4.0625 C -29.894531 -5.175781 -31.207031 -6.484375 -32.3125 -7.984375 C -33.425781 -9.492188 -34.285156 -11.148438 -34.890625 -12.953125 C -35.503906 -14.765625 -35.8125 -16.664062 -35.8125 -18.65625 Z M -3.921875 -18.65625 C -3.921875 -20.582031 -4.273438 -22.378906 -4.984375 -24.046875 C -5.691406 -25.722656 -6.675781 -27.191406 -7.9375 -28.453125 C -9.195312 -29.710938 -10.65625 -30.695312 -12.3125 -31.40625 C -13.96875 -32.113281 -15.742188 -32.46875 -17.640625 -32.46875 C -19.554688 -32.46875 -21.347656 -32.113281 -23.015625 -31.40625 C -24.679688 -30.695312 -26.144531 -29.710938 -27.40625 -28.453125 C -28.675781 -27.191406 -29.664062 -25.722656 -30.375 -24.046875 C -31.09375 -22.378906 -31.453125 -20.582031 -31.453125 -18.65625 C -31.453125 -16.757812 -31.09375 -14.988281 -30.375 -13.34375 C -29.664062 -11.695312 -28.675781 -10.242188 -27.40625 -8.984375 C -26.144531 -7.734375 -24.679688 -6.753906 -23.015625 -6.046875 C -21.347656 -5.335938 -19.554688 -4.984375 -17.640625 -4.984375 C -16.128906 -4.984375 -14.6875 -5.210938 -13.3125 -5.671875 C -11.9375 -6.128906 -10.675781 -6.773438 -9.53125 -7.609375 C -8.394531 -8.453125 -7.40625 -9.441406 -6.5625 -10.578125 C -5.71875 -11.722656 -5.066406 -12.976562 -4.609375 -14.34375 C -4.148438 -15.707031 -3.921875 -17.144531 -3.921875 -18.65625 Z M -30.953125 -18.65625 C -30.953125 -20.5 -30.609375 -22.222656 -29.921875 -23.828125 C -29.234375 -25.441406 -28.28125 -26.859375 -27.0625 -28.078125 C -25.84375 -29.296875 -24.425781 -30.242188 -22.8125 -30.921875 C -21.207031 -31.609375 -19.484375 -31.953125 -17.640625 -31.953125 C -15.828125 -31.953125 -14.128906 -31.609375 -12.546875 -30.921875 C -10.960938 -30.242188 -9.566406 -29.296875 -8.359375 -28.078125 C -7.160156 -26.859375 -6.21875 -25.441406 -5.53125 -23.828125 C -4.84375 -22.222656 -4.5 -20.5 -4.5 -18.65625 C -4.5 -16.84375 -4.84375 -15.140625 -5.53125 -13.546875 C -6.21875 -11.953125 -7.160156 -10.550781 -8.359375 -9.34375 C -9.566406 -8.144531 -10.960938 -7.203125 -12.546875 -6.515625 C -14.128906 -5.835938 -15.828125 -5.5 -17.640625 -5.5 C -19.484375 -5.5 -21.207031 -5.835938 -22.8125 -6.515625 C -24.425781 -7.203125 -25.84375 -8.144531 -27.0625 -9.34375 C -28.28125 -10.550781 -29.234375 -11.953125 -29.921875 -13.546875 C -30.609375 -15.140625 -30.953125 -16.84375 -30.953125 -18.65625 Z M -8.875 -18.65625 C -8.875 -19.90625 -9.101562 -21.070312 -9.5625 -22.15625 C -10.019531 -23.238281 -10.648438 -24.179688 -11.453125 -24.984375 C -12.265625 -25.796875 -13.195312 -26.429688 -14.25 -26.890625 C -15.300781 -27.347656 -16.429688 -27.578125 -17.640625 -27.578125 C -18.859375 -27.578125 -20 -27.347656 -21.0625 -26.890625 C -22.132812 -26.429688 -23.082031 -25.796875 -23.90625 -24.984375 C -24.726562 -24.179688 -25.367188 -23.238281 -25.828125 -22.15625 C -26.285156 -21.070312 -26.515625 -19.90625 -26.515625 -18.65625 C -26.515625 -17.445312 -26.285156 -16.316406 -25.828125 -15.265625 C -25.367188 -14.210938 -24.726562 -13.28125 -23.90625 -12.46875 C -23.082031 -11.65625 -22.132812 -11.019531 -21.0625 -10.5625 C -20 -10.101562 -18.859375 -9.875 -17.640625 -9.875 C -16.429688 -9.875 -15.300781 -10.101562 -14.25 -10.5625 C -13.195312 -11.019531 -12.265625 -11.65625 -11.453125 -12.46875 C -10.648438 -13.28125 -10.019531 -14.210938 -9.5625 -15.265625 C -9.101562 -16.316406 -8.875 -17.445312 -8.875 -18.65625 Z M -8.875 -18.65625 "/></g></g></g><g fill="#ffffff" fill-opacity="1"><g transform="translate(138.725305, 168.985017)"><g><path d="M 0 -1.203125 L -35.375 -1.203125 L -35.375 -5.609375 L 0 -5.609375 Z M 0 -6.125 L -35.375 -6.125 L -35.375 -10.484375 L 0 -10.484375 Z M 0 -6.125 "/></g></g></g><g fill="#ffffff" fill-opacity="1"><g transform="translate(74.256234, 210.378077)"><g><path d="M -35.8125 -18.65625 C -35.8125 -20.675781 -35.503906 -22.59375 -34.890625 -24.40625 C -34.285156 -26.226562 -33.425781 -27.894531 -32.3125 -29.40625 C -31.207031 -30.914062 -29.894531 -32.222656 -28.375 -33.328125 C -26.863281 -34.441406 -25.195312 -35.300781 -23.375 -35.90625 C -21.5625 -36.519531 -19.648438 -36.828125 -17.640625 -36.828125 C -15.648438 -36.828125 -13.75 -36.519531 -11.9375 -35.90625 C -10.132812 -35.300781 -8.476562 -34.441406 -6.96875 -33.328125 C -5.46875 -32.222656 -4.160156 -30.914062 -3.046875 -29.40625 C -1.941406 -27.894531 -1.082031 -26.226562 -0.46875 -24.40625 C 0.132812 -22.59375 0.4375 -20.675781 0.4375 -18.65625 C 0.4375 -16.664062 0.132812 -14.765625 -0.46875 -12.953125 C -1.082031 -11.148438 -1.941406 -9.492188 -3.046875 -7.984375 C -4.160156 -6.484375 -5.46875 -5.175781 -6.96875 -4.0625 C -8.476562 -2.957031 -10.132812 -2.097656 -11.9375 -1.484375 C -13.75 -0.878906 -15.648438 -0.578125 -17.640625 -0.578125 C -19.648438 -0.578125 -21.5625 -0.878906 -23.375 -1.484375 C -25.195312 -2.097656 -26.863281 -2.957031 -28.375 -4.0625 C -29.894531 -5.175781 -31.207031 -6.484375 -32.3125 -7.984375 C -33.425781 -9.492188 -34.285156 -11.148438 -34.890625 -12.953125 C -35.503906 -14.765625 -35.8125 -16.664062 -35.8125 -18.65625 Z M -3.921875 -18.65625 C -3.921875 -20.582031 -4.273438 -22.378906 -4.984375 -24.046875 C -5.691406 -25.722656 -6.675781 -27.191406 -7.9375 -28.453125 C -9.195312 -29.710938 -10.65625 -30.695312 -12.3125 -31.40625 C -13.96875 -32.113281 -15.742188 -32.46875 -17.640625 -32.46875 C -19.554688 -32.46875 -21.347656 -32.113281 -23.015625 -31.40625 C -24.679688 -30.695312 -26.144531 -29.710938 -27.40625 -28.453125 C -28.675781 -27.191406 -29.664062 -25.722656 -30.375 -24.046875 C -31.09375 -22.378906 -31.453125 -20.582031 -31.453125 -18.65625 C -31.453125 -16.757812 -31.09375 -14.988281 -30.375 -13.34375 C -29.664062 -11.695312 -28.675781 -10.242188 -27.40625 -8.984375 C -26.144531 -7.734375 -24.679688 -6.753906 -23.015625 -6.046875 C -21.347656 -5.335938 -19.554688 -4.984375 -17.640625 -4.984375 C -16.128906 -4.984375 -14.6875 -5.210938 -13.3125 -5.671875 C -11.9375 -6.128906 -10.675781 -6.773438 -9.53125 -7.609375 C -8.394531 -8.453125 -7.40625 -9.441406 -6.5625 -10.578125 C -5.71875 -11.722656 -5.066406 -12.976562 -4.609375 -14.34375 C -4.148438 -15.707031 -3.921875 -17.144531 -3.921875 -18.65625 Z M -30.953125 -18.65625 C -30.953125 -20.5 -30.609375 -22.222656 -29.921875 -23.828125 C -29.234375 -25.441406 -28.28125 -26.859375 -27.0625 -28.078125 C -25.84375 -29.296875 -24.425781 -30.242188 -22.8125 -30.921875 C -21.207031 -31.609375 -19.484375 -31.953125 -17.640625 -31.953125 C -15.828125 -31.953125 -14.128906 -31.609375 -12.546875 -30.921875 C -10.960938 -30.242188 -9.566406 -29.296875 -8.359375 -28.078125 C -7.160156 -26.859375 -6.21875 -25.441406 -5.53125 -23.828125 C -4.84375 -22.222656 -4.5 -20.5 -4.5 -18.65625 C -4.5 -16.84375 -4.84375 -15.140625 -5.53125 -13.546875 C -6.21875 -11.953125 -7.160156 -10.550781 -8.359375 -9.34375 C -9.566406 -8.144531 -10.960938 -7.203125 -12.546875 -6.515625 C -14.128906 -5.835938 -15.828125 -5.5 -17.640625 -5.5 C -19.484375 -5.5 -21.207031 -5.835938 -22.8125 -6.515625 C -24.425781 -7.203125 -25.84375 -8.144531 -27.0625 -9.34375 C -28.28125 -10.550781 -29.234375 -11.953125 -29.921875 -13.546875 C -30.609375 -15.140625 -30.953125 -16.84375 -30.953125 -18.65625 Z M -8.875 -18.65625 C -8.875 -19.90625 -9.101562 -21.070312 -9.5625 -22.15625 C -10.019531 -23.238281 -10.648438 -24.179688 -11.453125 -24.984375 C -12.265625 -25.796875 -13.195312 -26.429688 -14.25 -26.890625 C -15.300781 -27.347656 -16.429688 -27.578125 -17.640625 -27.578125 C -18.859375 -27.578125 -20 -27.347656 -21.0625 -26.890625 C -22.132812 -26.429688 -23.082031 -25.796875 -23.90625 -24.984375 C -24.726562 -24.179688 -25.367188 -23.238281 -25.828125 -22.15625 C -26.285156 -21.070312 -26.515625 -19.90625 -26.515625 -18.65625 C -26.515625 -17.445312 -26.285156 -16.316406 -25.828125 -15.265625 C -25.367188 -14.210938 -24.726562 -13.28125 -23.90625 -12.46875 C -23.082031 -11.65625 -22.132812 -11.019531 -21.0625 -10.5625 C -20 -10.101562 -18.859375 -9.875 -17.640625 -9.875 C -16.429688 -9.875 -15.300781 -10.101562 -14.25 -10.5625 C -13.195312 -11.019531 -12.265625 -11.65625 -11.453125 -12.46875 C -10.648438 -13.28125 -10.019531 -14.210938 -9.5625 -15.265625 C -9.101562 -16.316406 -8.875 -17.445312 -8.875 -18.65625 Z M -8.875 -18.65625 "/></g></g></g><g fill="#ffffff" fill-opacity="1"><g transform="translate(109.128933, 197.246334)"><g><path d="M 0 -1.203125 L -35.375 -1.203125 L -35.375 -5.609375 L 0 -5.609375 Z M 0 -6.125 L -35.375 -6.125 L -35.375 -10.484375 L 0 -10.484375 Z M 0 -6.125 "/></g></g></g><g fill="#ffffff" fill-opacity="1"><g transform="translate(139.174485, 197.243741)"><g><path d="M 0 -1.203125 L -35.375 -1.203125 L -35.375 -5.609375 L 0 -5.609375 Z M 0 -6.125 L -35.375 -6.125 L -35.375 -10.484375 L 0 -10.484375 Z M 0 -6.125 "/></g></g></g><g fill="#ffffff" fill-opacity="1"><g transform="translate(241.759784, 310.017192)"><g><path d="M -114.453125 -18.640625 L -114.453125 -30.734375 L 0 -30.734375 L 0 -18.640625 Z M -114.453125 -18.640625 "/></g></g></g><g clip-path="url(#5b2598ed59)"><g clip-path="url(#f63baf8f02)"><path fill="#ffffff" d="M 83.359375 313.613281 L 83.359375 256.914062 L 132.460938 256.914062 L 132.460938 313.613281 Z M 83.359375 313.613281 " fill-opacity="1" fill-rule="nonzero"/></g></g><g clip-path="url(#7d8acaa75e)"><g clip-path="url(#768ed04a9d)"><path fill="#ffffff" d="M 308.519531 63.464844 L 308.519531 120.164062 L 259.417969 120.164062 L 259.417969 63.464844 Z M 308.519531 63.464844 " fill-opacity="1" fill-rule="nonzero"/></g></g><g fill="#ffffff" fill-opacity="1"><g transform="translate(149.799974, 66.945864)"><g><path d="M 114.453125 18.640625 L 114.453125 30.734375 L 0 30.734375 L 0 18.640625 Z M 114.453125 18.640625 "/></g></g></g><g fill="#ff5757" fill-opacity="1"><g transform="translate(267.540719, 105.727022)"><g><path d="M 3.3125 -16.671875 L 17.78125 -16.671875 L 17.78125 -13.25 L 3.3125 -13.25 Z M 3.3125 -16.671875 "/></g></g></g><g fill="#ff5757" fill-opacity="1"><g transform="translate(100.352561, 305.61164)"><g><path d="M 27.875 -17.671875 L 17.609375 -17.671875 L 17.609375 -7.625 L 14.125 -7.625 L 14.125 -17.671875 L 3.859375 -17.671875 L 3.859375 -20.921875 L 14.125 -20.921875 L 14.125 -31.03125 L 17.609375 -31.03125 L 17.609375 -20.921875 L 27.875 -20.921875 Z M 27.875 -17.671875 "/></g></g></g></svg>