<svg xmlns="http://www.w3.org/2000/svg" xmlns:xlink="http://www.w3.org/1999/xlink" width="500" zoomAndPan="magnify" viewBox="0 0 375 374.999991" height="500" preserveAspectRatio="xMidYMid meet" version="1.0"><defs><clipPath id="5989c16938"><path d="M 0 49.714844 L 375 49.714844 L 375 339.214844 L 0 339.214844 Z M 0 49.714844 " clip-rule="nonzero"/></clipPath></defs><g clip-path="url(#5989c16938)"><path fill="#000000" d="M 92.84375 89.898438 L 53.960938 89.898438 C 50.769531 78.269531 40.136719 69.699219 27.503906 69.699219 C 12.34375 69.699219 0.0625 81.996094 0.0625 97.167969 C 0.0625 112.34375 12.34375 124.636719 27.503906 124.636719 C 40.136719 124.636719 50.769531 116.101562 53.960938 104.472656 L 92.84375 104.472656 L 92.84375 165.3125 L 305.070312 165.3125 C 303.035156 160.183594 300.511719 155.300781 297.527344 150.734375 L 107.40625 150.734375 L 107.40625 89.898438 Z M 122.320312 49.714844 L 230.328125 49.714844 C 309.878906 49.714844 374.9375 114.835938 374.9375 194.464844 C 374.9375 274.058594 309.878906 339.214844 230.328125 339.214844 L 122.320312 339.214844 L 122.320312 291.691406 L 230.328125 291.691406 C 283.773438 291.691406 327.496094 247.925781 327.496094 194.464844 C 327.496094 140.96875 283.773438 97.238281 230.328125 97.238281 L 122.320312 97.238281 Z M 53.960938 187.160156 L 310.230469 187.160156 C 310.476562 189.582031 310.582031 192.003906 310.582031 194.464844 C 310.582031 196.921875 310.476562 199.347656 310.230469 201.734375 L 53.960938 201.734375 C 50.769531 213.363281 40.136719 221.933594 27.503906 221.933594 C 12.34375 221.933594 0.0625 209.636719 0.0625 194.464844 C 0.0625 179.289062 12.34375 166.996094 27.503906 166.996094 C 40.136719 166.996094 50.769531 175.53125 53.960938 187.160156 Z M 92.84375 299.03125 L 53.960938 299.03125 C 50.769531 310.65625 40.136719 319.191406 27.503906 319.191406 C 12.34375 319.191406 0.0625 306.898438 0.0625 291.761719 C 0.0625 276.585938 12.34375 264.292969 27.503906 264.292969 C 40.136719 264.292969 50.769531 272.828125 53.960938 284.453125 L 92.84375 284.453125 L 92.84375 223.617188 L 305.070312 223.617188 C 303.035156 228.746094 300.511719 233.628906 297.527344 238.195312 L 107.40625 238.195312 L 107.40625 299.03125 Z M 92.84375 299.03125 " fill-opacity="1" fill-rule="evenodd"/></g></svg>