<svg xmlns="http://www.w3.org/2000/svg" xmlns:xlink="http://www.w3.org/1999/xlink" width="500" zoomAndPan="magnify" viewBox="0 0 375 374.999991" height="500" preserveAspectRatio="xMidYMid meet" version="1.0"><defs><g/><clipPath id="e3656cf6f9"><path d="M 62.382812 86.132812 L 119.082031 86.132812 L 119.082031 135.230469 L 62.382812 135.230469 Z M 62.382812 86.132812 " clip-rule="nonzero"/></clipPath><clipPath id="36fabf74a9"><path d="M 62.382812 135.230469 L 90.730469 86.132812 L 119.082031 135.230469 Z M 62.382812 135.230469 " clip-rule="nonzero"/></clipPath><clipPath id="8e5c7bc2d0"><path d="M 83.949219 112.640625 L 97.511719 112.640625 L 97.511719 126.203125 L 83.949219 126.203125 Z M 83.949219 112.640625 " clip-rule="nonzero"/></clipPath><clipPath id="f998fa7521"><path d="M 81.402344 110.683594 L 100.152344 110.683594 L 100.152344 129.433594 L 81.402344 129.433594 Z M 81.402344 110.683594 " clip-rule="nonzero"/></clipPath><clipPath id="4f6cd36dda"><path d="M 255.835938 262.191406 L 312.53125 262.191406 L 312.53125 311.289062 L 255.835938 311.289062 Z M 255.835938 262.191406 " clip-rule="nonzero"/></clipPath><clipPath id="22bdb0a697"><path d="M 312.53125 262.191406 L 284.183594 311.289062 L 255.835938 262.191406 Z M 312.53125 262.191406 " clip-rule="nonzero"/></clipPath></defs><g fill="#3f475a" fill-opacity="1"><g transform="translate(103.717997, 137.659283)"><g><path d="M 170.25 67.125 L 170.25 3.25 L 0 3.25 L 0 66.660156 C 0 113.578125 38.207031 152.132812 85.472656 152.132812 C 132.042969 152.132812 170.25 113.808594 170.25 67.125 Z M 20.207031 67.125 L 20.207031 24.15625 L 150.042969 24.15625 L 150.042969 66.660156 C 150.042969 102.546875 120.894531 131.695312 85.472656 131.695312 C 49.589844 131.695312 20.207031 102.777344 20.207031 67.125 Z M 147.371094 66.660156 L 147.371094 26.363281 L 22.878906 26.363281 L 22.878906 66.660156 C 22.878906 101.035156 50.867188 129.023438 85.472656 129.023438 C 119.5 129.023438 147.371094 101.035156 147.371094 66.660156 Z M 42.96875 67.125 L 42.96875 46.683594 L 127.28125 46.683594 L 127.28125 67.125 C 127.28125 90.117188 107.886719 108.585938 85.472656 108.585938 C 62.015625 108.585938 42.96875 90.117188 42.96875 67.125 Z M 42.96875 67.125 "/></g></g></g><g fill="#3f475a" fill-opacity="1"><g transform="translate(138.877392, 106.625032)"><g><path d="M 18.652344 -35.8125 C 8.699219 -35.8125 0.578125 -27.691406 0.578125 -17.640625 C 0.578125 -7.6875 8.699219 0.433594 18.652344 0.433594 C 28.75 0.433594 36.824219 -7.6875 36.824219 -17.640625 C 36.824219 -27.691406 28.75 -35.8125 18.652344 -35.8125 Z M 18.652344 -3.929688 C 11.085938 -3.929688 4.988281 -10.074219 4.988281 -17.640625 C 4.988281 -25.304688 11.085938 -31.449219 18.652344 -31.449219 C 26.367188 -31.449219 32.460938 -25.304688 32.460938 -17.640625 C 32.460938 -10.074219 26.367188 -3.929688 18.652344 -3.929688 Z M 18.652344 -30.945312 C 11.398438 -30.945312 5.496094 -25.039062 5.496094 -17.640625 C 5.496094 -10.386719 11.398438 -4.507812 18.652344 -4.507812 C 26.050781 -4.507812 31.957031 -10.386719 31.957031 -17.640625 C 31.957031 -25.039062 26.050781 -30.945312 18.652344 -30.945312 Z M 18.652344 -8.867188 C 13.859375 -8.867188 9.882812 -12.84375 9.882812 -17.640625 C 9.882812 -22.535156 13.859375 -26.511719 18.652344 -26.511719 C 23.667969 -26.511719 27.570312 -22.535156 27.570312 -17.640625 C 27.570312 -12.84375 23.667969 -8.867188 18.652344 -8.867188 Z M 18.652344 -8.867188 "/></g></g></g><g fill="#3f475a" fill-opacity="1"><g transform="translate(152.011728, 141.50003)"><g><path d="M 1.203125 0 L 5.617188 0 L 5.617188 -35.378906 L 1.203125 -35.378906 Z M 6.121094 0 L 10.484375 0 L 10.484375 -35.378906 L 6.121094 -35.378906 Z M 6.121094 0 "/></g></g></g><g fill="#3f475a" fill-opacity="1"><g transform="translate(193.876501, 106.625032)"><g><path d="M 18.652344 -35.8125 C 8.699219 -35.8125 0.578125 -27.691406 0.578125 -17.640625 C 0.578125 -7.6875 8.699219 0.433594 18.652344 0.433594 C 28.75 0.433594 36.824219 -7.6875 36.824219 -17.640625 C 36.824219 -27.691406 28.75 -35.8125 18.652344 -35.8125 Z M 18.652344 -3.929688 C 11.085938 -3.929688 4.988281 -10.074219 4.988281 -17.640625 C 4.988281 -25.304688 11.085938 -31.449219 18.652344 -31.449219 C 26.367188 -31.449219 32.460938 -25.304688 32.460938 -17.640625 C 32.460938 -10.074219 26.367188 -3.929688 18.652344 -3.929688 Z M 18.652344 -30.945312 C 11.398438 -30.945312 5.496094 -25.039062 5.496094 -17.640625 C 5.496094 -10.386719 11.398438 -4.507812 18.652344 -4.507812 C 26.050781 -4.507812 31.957031 -10.386719 31.957031 -17.640625 C 31.957031 -25.039062 26.050781 -30.945312 18.652344 -30.945312 Z M 18.652344 -8.867188 C 13.859375 -8.867188 9.882812 -12.84375 9.882812 -17.640625 C 9.882812 -22.535156 13.859375 -26.511719 18.652344 -26.511719 C 23.667969 -26.511719 27.570312 -22.535156 27.570312 -17.640625 C 27.570312 -12.84375 23.667969 -8.867188 18.652344 -8.867188 Z M 18.652344 -8.867188 "/></g></g></g><g fill="#3f475a" fill-opacity="1"><g transform="translate(207.010838, 141.50003)"><g><path d="M 1.203125 0 L 5.617188 0 L 5.617188 -35.378906 L 1.203125 -35.378906 Z M 6.121094 0 L 10.484375 0 L 10.484375 -35.378906 L 6.121094 -35.378906 Z M 6.121094 0 "/></g></g></g><g fill="#3f475a" fill-opacity="1"><g transform="translate(165.617763, 77.030959)"><g><path d="M 18.652344 -35.8125 C 8.699219 -35.8125 0.578125 -27.691406 0.578125 -17.640625 C 0.578125 -7.6875 8.699219 0.433594 18.652344 0.433594 C 28.75 0.433594 36.824219 -7.6875 36.824219 -17.640625 C 36.824219 -27.691406 28.75 -35.8125 18.652344 -35.8125 Z M 18.652344 -3.929688 C 11.085938 -3.929688 4.988281 -10.074219 4.988281 -17.640625 C 4.988281 -25.304688 11.085938 -31.449219 18.652344 -31.449219 C 26.367188 -31.449219 32.460938 -25.304688 32.460938 -17.640625 C 32.460938 -10.074219 26.367188 -3.929688 18.652344 -3.929688 Z M 18.652344 -30.945312 C 11.398438 -30.945312 5.496094 -25.039062 5.496094 -17.640625 C 5.496094 -10.386719 11.398438 -4.507812 18.652344 -4.507812 C 26.050781 -4.507812 31.957031 -10.386719 31.957031 -17.640625 C 31.957031 -25.039062 26.050781 -30.945312 18.652344 -30.945312 Z M 18.652344 -8.867188 C 13.859375 -8.867188 9.882812 -12.84375 9.882812 -17.640625 C 9.882812 -22.535156 13.859375 -26.511719 18.652344 -26.511719 C 23.667969 -26.511719 27.570312 -22.535156 27.570312 -17.640625 C 27.570312 -12.84375 23.667969 -8.867188 18.652344 -8.867188 Z M 18.652344 -8.867188 "/></g></g></g><g fill="#3f475a" fill-opacity="1"><g transform="translate(178.752229, 111.908901)"><g><path d="M 1.203125 0 L 5.617188 0 L 5.617188 -35.378906 L 1.203125 -35.378906 Z M 6.121094 0 L 10.484375 0 L 10.484375 -35.378906 L 6.121094 -35.378906 Z M 6.121094 0 "/></g></g></g><g fill="#3f475a" fill-opacity="1"><g transform="translate(178.752099, 141.949209)"><g><path d="M 1.203125 0 L 5.617188 0 L 5.617188 -35.378906 L 1.203125 -35.378906 Z M 6.121094 0 L 10.484375 0 L 10.484375 -35.378906 L 6.121094 -35.378906 Z M 6.121094 0 "/></g></g></g><g fill="#3f475a" fill-opacity="1"><g transform="translate(66.0287, 244.530068)"><g><path d="M 18.640625 -114.453125 L 30.734375 -114.453125 L 30.734375 0 L 18.640625 0 Z M 18.640625 -114.453125 "/></g></g></g><g clip-path="url(#e3656cf6f9)"><g clip-path="url(#36fabf74a9)"><path fill="#3f475a" d="M 62.382812 86.132812 L 119.082031 86.132812 L 119.082031 135.230469 L 62.382812 135.230469 Z M 62.382812 86.132812 " fill-opacity="1" fill-rule="nonzero"/></g></g><g clip-path="url(#8e5c7bc2d0)"><path fill="#3f475a" d="M 83.949219 112.640625 L 97.539062 112.640625 L 97.539062 126.230469 L 83.949219 126.230469 Z M 83.949219 112.640625 " fill-opacity="1" fill-rule="nonzero"/></g><g clip-path="url(#f998fa7521)"><path fill="#000000" d="M 99.125 118.59375 L 92.242188 118.59375 L 92.242188 111.722656 C 92.242188 111.152344 91.789062 110.683594 91.214844 110.683594 L 90.335938 110.683594 C 89.765625 110.683594 89.3125 111.152344 89.3125 111.722656 L 89.3125 118.59375 L 82.425781 118.59375 C 81.855469 118.59375 81.402344 119.046875 81.402344 119.617188 L 81.402344 120.496094 C 81.402344 121.066406 81.855469 121.523438 82.425781 121.523438 L 89.3125 121.523438 L 89.3125 128.421875 C 89.3125 128.992188 89.765625 129.433594 90.335938 129.433594 L 91.214844 129.433594 C 91.789062 129.433594 92.242188 128.976562 92.242188 128.421875 L 92.242188 121.523438 L 99.125 121.523438 C 99.699219 121.523438 100.152344 121.066406 100.152344 120.496094 L 100.152344 119.617188 C 100.152344 119.046875 99.699219 118.59375 99.125 118.59375 Z M 99.125 118.59375 " fill-opacity="1" fill-rule="nonzero"/><path fill="#ff5757" d="M 99.125 118.59375 L 92.242188 118.59375 L 92.242188 111.722656 C 92.242188 111.152344 91.789062 110.683594 91.214844 110.683594 L 90.335938 110.683594 C 89.765625 110.683594 89.3125 111.152344 89.3125 111.722656 L 89.3125 118.59375 L 82.425781 118.59375 C 81.855469 118.59375 81.402344 119.046875 81.402344 119.617188 L 81.402344 120.496094 C 81.402344 121.066406 81.855469 121.523438 82.425781 121.523438 L 89.3125 121.523438 L 89.3125 128.421875 C 89.3125 128.992188 89.765625 129.433594 90.335938 129.433594 L 91.214844 129.433594 C 91.789062 129.433594 92.242188 128.976562 92.242188 128.421875 L 92.242188 121.523438 L 99.125 121.523438 C 99.699219 121.523438 100.152344 121.066406 100.152344 120.496094 L 100.152344 119.617188 C 100.152344 119.046875 99.699219 118.59375 99.125 118.59375 Z M 99.125 118.59375 " fill-opacity="1" fill-rule="nonzero"/></g><g clip-path="url(#4f6cd36dda)"><g clip-path="url(#22bdb0a697)"><path fill="#3f475a" d="M 312.53125 311.289062 L 255.835938 311.289062 L 255.835938 262.191406 L 312.53125 262.191406 Z M 312.53125 311.289062 " fill-opacity="1" fill-rule="nonzero"/></g></g><g fill="#3f475a" fill-opacity="1"><g transform="translate(308.969744, 152.497831)"><g><path d="M -18.640625 114.453125 L -30.734375 114.453125 L -30.734375 0 L -18.640625 0 Z M -18.640625 114.453125 "/></g></g></g><g fill="#ff5757" fill-opacity="1"><g transform="translate(270.27527, 270.345179)"><g><path d="M 16.671875 3.3125 L 16.671875 17.78125 L 13.25 17.78125 L 13.25 3.3125 Z M 16.671875 3.3125 "/></g></g></g></svg>