<svg xmlns="http://www.w3.org/2000/svg" xmlns:xlink="http://www.w3.org/1999/xlink" width="500" zoomAndPan="magnify" viewBox="0 0 375 374.999991" height="500" preserveAspectRatio="xMidYMid meet" version="1.0"><defs><g/><clipPath id="f36fbf4e11"><path d="M 28.027344 216.644531 L 52.777344 216.644531 L 52.777344 245.226562 L 28.027344 245.226562 Z M 28.027344 216.644531 " clip-rule="nonzero"/></clipPath><clipPath id="ff533b36a8"><path d="M 52.777344 245.226562 L 28.027344 230.933594 L 52.777344 216.644531 Z M 52.777344 245.226562 " clip-rule="nonzero"/></clipPath><clipPath id="ca595ee6ff"><path d="M 116.78125 119.132812 L 141.535156 119.132812 L 141.535156 147.714844 L 116.78125 147.714844 Z M 116.78125 119.132812 " clip-rule="nonzero"/></clipPath><clipPath id="1a81f70030"><path d="M 116.78125 119.132812 L 141.535156 133.425781 L 116.78125 147.714844 Z M 116.78125 119.132812 " clip-rule="nonzero"/></clipPath></defs><g fill="#545454" fill-opacity="1"><g transform="translate(131.964645, 220.601057)"><g><path d="M 3.125 0.0625 C 2.59375 0.0625 2.082031 -0.0195312 1.59375 -0.1875 C 1.113281 -0.363281 0.742188 -0.585938 0.484375 -0.859375 L 0.765625 -1.4375 C 1.023438 -1.1875 1.367188 -0.976562 1.796875 -0.8125 C 2.222656 -0.65625 2.664062 -0.578125 3.125 -0.578125 C 3.757812 -0.578125 4.234375 -0.691406 4.546875 -0.921875 C 4.867188 -1.160156 5.03125 -1.46875 5.03125 -1.84375 C 5.03125 -2.125 4.941406 -2.347656 4.765625 -2.515625 C 4.597656 -2.679688 4.382812 -2.8125 4.125 -2.90625 C 3.875 -3 3.53125 -3.097656 3.09375 -3.203125 C 2.550781 -3.335938 2.117188 -3.46875 1.796875 -3.59375 C 1.484375 -3.71875 1.210938 -3.910156 0.984375 -4.171875 C 0.765625 -4.429688 0.65625 -4.78125 0.65625 -5.21875 C 0.65625 -5.582031 0.75 -5.910156 0.9375 -6.203125 C 1.125 -6.492188 1.410156 -6.726562 1.796875 -6.90625 C 2.191406 -7.082031 2.679688 -7.171875 3.265625 -7.171875 C 3.671875 -7.171875 4.066406 -7.113281 4.453125 -7 C 4.847656 -6.882812 5.1875 -6.734375 5.46875 -6.546875 L 5.21875 -5.9375 C 4.914062 -6.132812 4.59375 -6.28125 4.25 -6.375 C 3.914062 -6.476562 3.585938 -6.53125 3.265625 -6.53125 C 2.640625 -6.53125 2.171875 -6.410156 1.859375 -6.171875 C 1.546875 -5.929688 1.390625 -5.617188 1.390625 -5.234375 C 1.390625 -4.953125 1.472656 -4.722656 1.640625 -4.546875 C 1.816406 -4.378906 2.035156 -4.25 2.296875 -4.15625 C 2.554688 -4.0625 2.90625 -3.960938 3.34375 -3.859375 C 3.875 -3.734375 4.296875 -3.609375 4.609375 -3.484375 C 4.929688 -3.359375 5.203125 -3.164062 5.421875 -2.90625 C 5.648438 -2.65625 5.765625 -2.3125 5.765625 -1.875 C 5.765625 -1.519531 5.664062 -1.191406 5.46875 -0.890625 C 5.28125 -0.597656 4.984375 -0.363281 4.578125 -0.1875 C 4.179688 -0.0195312 3.695312 0.0625 3.125 0.0625 Z M 3.125 0.0625 "/></g></g></g><g fill="#545454" fill-opacity="1"><g transform="translate(145.988686, 220.601057)"><g><path d="M 1.15625 -7.109375 L 1.90625 -7.109375 L 1.90625 0 L 1.15625 0 Z M 1.15625 -7.109375 "/></g></g></g><g fill="#545454" fill-opacity="1"><g transform="translate(156.834202, 220.601057)"><g><path d="M 8.546875 -7.109375 L 8.546875 0 L 7.8125 0 L 7.8125 -5.6875 L 5.03125 -0.90625 L 4.671875 -0.90625 L 1.875 -5.65625 L 1.875 0 L 1.15625 0 L 1.15625 -7.109375 L 1.78125 -7.109375 L 4.859375 -1.84375 L 7.921875 -7.109375 Z M 8.546875 -7.109375 "/></g></g></g><g fill="#545454" fill-opacity="1"><g transform="translate(174.310957, 220.601057)"><g><path d="M 3.8125 -7.109375 C 4.71875 -7.109375 5.425781 -6.890625 5.9375 -6.453125 C 6.457031 -6.023438 6.71875 -5.429688 6.71875 -4.671875 C 6.71875 -3.910156 6.457031 -3.316406 5.9375 -2.890625 C 5.425781 -2.460938 4.71875 -2.25 3.8125 -2.25 L 1.90625 -2.25 L 1.90625 0 L 1.15625 0 L 1.15625 -7.109375 Z M 3.796875 -2.90625 C 4.503906 -2.90625 5.039062 -3.054688 5.40625 -3.359375 C 5.78125 -3.671875 5.96875 -4.109375 5.96875 -4.671875 C 5.96875 -5.242188 5.78125 -5.679688 5.40625 -5.984375 C 5.039062 -6.296875 4.503906 -6.453125 3.796875 -6.453125 L 1.90625 -6.453125 L 1.90625 -2.90625 Z M 3.796875 -2.90625 "/></g></g></g><g fill="#545454" fill-opacity="1"><g transform="translate(189.380965, 220.601057)"><g><path d="M 1.15625 -7.109375 L 1.90625 -7.109375 L 1.90625 -0.65625 L 5.890625 -0.65625 L 5.890625 0 L 1.15625 0 Z M 1.15625 -7.109375 "/></g></g></g><g fill="#545454" fill-opacity="1"><g transform="translate(203.140981, 220.601057)"><g><path d="M 1.15625 -7.109375 L 1.90625 -7.109375 L 1.90625 0 L 1.15625 0 Z M 1.15625 -7.109375 "/></g></g></g><g fill="#545454" fill-opacity="1"><g transform="translate(213.986497, 220.601057)"><g><path d="M 1.90625 -6.453125 L 1.90625 -3.671875 L 5.578125 -3.671875 L 5.578125 -3.015625 L 1.90625 -3.015625 L 1.90625 0 L 1.15625 0 L 1.15625 -7.109375 L 6.03125 -7.109375 L 6.03125 -6.453125 Z M 1.90625 -6.453125 "/></g></g></g><g fill="#545454" fill-opacity="1"><g transform="translate(228.19333, 220.601057)"><g><path d="M 3.59375 -2.453125 L 3.59375 0 L 2.859375 0 L 2.859375 -2.453125 L 0.015625 -7.109375 L 0.8125 -7.109375 L 3.25 -3.125 L 5.6875 -7.109375 L 6.4375 -7.109375 Z M 3.59375 -2.453125 "/></g></g></g><g fill="#545454" fill-opacity="1"><g transform="translate(242.420475, 220.601057)"><g/></g></g><g fill="#545454" fill-opacity="1"><g transform="translate(252.859797, 220.601057)"><g><path d="M 3.8125 -7.109375 C 4.71875 -7.109375 5.425781 -6.890625 5.9375 -6.453125 C 6.457031 -6.023438 6.71875 -5.429688 6.71875 -4.671875 C 6.71875 -3.910156 6.457031 -3.316406 5.9375 -2.890625 C 5.425781 -2.460938 4.71875 -2.25 3.8125 -2.25 L 1.90625 -2.25 L 1.90625 0 L 1.15625 0 L 1.15625 -7.109375 Z M 3.796875 -2.90625 C 4.503906 -2.90625 5.039062 -3.054688 5.40625 -3.359375 C 5.78125 -3.671875 5.96875 -4.109375 5.96875 -4.671875 C 5.96875 -5.242188 5.78125 -5.679688 5.40625 -5.984375 C 5.039062 -6.296875 4.503906 -6.453125 3.796875 -6.453125 L 1.90625 -6.453125 L 1.90625 -2.90625 Z M 3.796875 -2.90625 "/></g></g></g><g fill="#545454" fill-opacity="1"><g transform="translate(267.929806, 220.601057)"><g><path d="M 6.015625 0 L 4.390625 -2.28125 C 4.203125 -2.257812 4.007812 -2.25 3.8125 -2.25 L 1.90625 -2.25 L 1.90625 0 L 1.15625 0 L 1.15625 -7.109375 L 3.8125 -7.109375 C 4.71875 -7.109375 5.425781 -6.890625 5.9375 -6.453125 C 6.457031 -6.023438 6.71875 -5.429688 6.71875 -4.671875 C 6.71875 -4.117188 6.578125 -3.648438 6.296875 -3.265625 C 6.015625 -2.878906 5.613281 -2.601562 5.09375 -2.4375 L 6.828125 0 Z M 3.796875 -2.890625 C 4.503906 -2.890625 5.039062 -3.046875 5.40625 -3.359375 C 5.78125 -3.671875 5.96875 -4.109375 5.96875 -4.671875 C 5.96875 -5.242188 5.78125 -5.679688 5.40625 -5.984375 C 5.039062 -6.296875 4.503906 -6.453125 3.796875 -6.453125 L 1.90625 -6.453125 L 1.90625 -2.890625 Z M 3.796875 -2.890625 "/></g></g></g><g fill="#545454" fill-opacity="1"><g transform="translate(283.050587, 220.601057)"><g><path d="M 4.265625 0.0625 C 3.554688 0.0625 2.914062 -0.09375 2.34375 -0.40625 C 1.78125 -0.726562 1.335938 -1.160156 1.015625 -1.703125 C 0.691406 -2.253906 0.53125 -2.867188 0.53125 -3.546875 C 0.53125 -4.234375 0.691406 -4.847656 1.015625 -5.390625 C 1.335938 -5.941406 1.78125 -6.375 2.34375 -6.6875 C 2.914062 -7.007812 3.554688 -7.171875 4.265625 -7.171875 C 4.972656 -7.171875 5.609375 -7.015625 6.171875 -6.703125 C 6.734375 -6.390625 7.175781 -5.957031 7.5 -5.40625 C 7.832031 -4.851562 8 -4.234375 8 -3.546875 C 8 -2.867188 7.832031 -2.253906 7.5 -1.703125 C 7.175781 -1.148438 6.734375 -0.71875 6.171875 -0.40625 C 5.609375 -0.09375 4.972656 0.0625 4.265625 0.0625 Z M 4.265625 -0.609375 C 4.828125 -0.609375 5.332031 -0.734375 5.78125 -0.984375 C 6.238281 -1.242188 6.59375 -1.597656 6.84375 -2.046875 C 7.101562 -2.492188 7.234375 -2.992188 7.234375 -3.546875 C 7.234375 -4.109375 7.101562 -4.613281 6.84375 -5.0625 C 6.59375 -5.507812 6.238281 -5.859375 5.78125 -6.109375 C 5.332031 -6.367188 4.828125 -6.5 4.265625 -6.5 C 3.703125 -6.5 3.191406 -6.367188 2.734375 -6.109375 C 2.273438 -5.859375 1.914062 -5.507812 1.65625 -5.0625 C 1.394531 -4.613281 1.265625 -4.109375 1.265625 -3.546875 C 1.265625 -2.992188 1.394531 -2.492188 1.65625 -2.046875 C 1.914062 -1.597656 2.273438 -1.242188 2.734375 -0.984375 C 3.191406 -0.734375 3.703125 -0.609375 4.265625 -0.609375 Z M 4.265625 -0.609375 "/></g></g></g><g fill="#545454" fill-opacity="1"><g transform="translate(299.349355, 220.601057)"><g><path d="M 3.8125 -7.109375 C 4.71875 -7.109375 5.425781 -6.890625 5.9375 -6.453125 C 6.457031 -6.023438 6.71875 -5.429688 6.71875 -4.671875 C 6.71875 -3.910156 6.457031 -3.316406 5.9375 -2.890625 C 5.425781 -2.460938 4.71875 -2.25 3.8125 -2.25 L 1.90625 -2.25 L 1.90625 0 L 1.15625 0 L 1.15625 -7.109375 Z M 3.796875 -2.90625 C 4.503906 -2.90625 5.039062 -3.054688 5.40625 -3.359375 C 5.78125 -3.671875 5.96875 -4.109375 5.96875 -4.671875 C 5.96875 -5.242188 5.78125 -5.679688 5.40625 -5.984375 C 5.039062 -6.296875 4.503906 -6.453125 3.796875 -6.453125 L 1.90625 -6.453125 L 1.90625 -2.90625 Z M 3.796875 -2.90625 "/></g></g></g><g fill="#545454" fill-opacity="1"><g transform="translate(314.419364, 220.601057)"><g><path d="M 6.1875 -0.65625 L 6.1875 0 L 1.15625 0 L 1.15625 -7.109375 L 6.03125 -7.109375 L 6.03125 -6.453125 L 1.90625 -6.453125 L 1.90625 -3.9375 L 5.578125 -3.9375 L 5.578125 -3.296875 L 1.90625 -3.296875 L 1.90625 -0.65625 Z M 6.1875 -0.65625 "/></g></g></g><g fill="#545454" fill-opacity="1"><g transform="translate(328.991781, 220.601057)"><g><path d="M 6.015625 0 L 4.390625 -2.28125 C 4.203125 -2.257812 4.007812 -2.25 3.8125 -2.25 L 1.90625 -2.25 L 1.90625 0 L 1.15625 0 L 1.15625 -7.109375 L 3.8125 -7.109375 C 4.71875 -7.109375 5.425781 -6.890625 5.9375 -6.453125 C 6.457031 -6.023438 6.71875 -5.429688 6.71875 -4.671875 C 6.71875 -4.117188 6.578125 -3.648438 6.296875 -3.265625 C 6.015625 -2.878906 5.613281 -2.601562 5.09375 -2.4375 L 6.828125 0 Z M 3.796875 -2.890625 C 4.503906 -2.890625 5.039062 -3.046875 5.40625 -3.359375 C 5.78125 -3.671875 5.96875 -4.109375 5.96875 -4.671875 C 5.96875 -5.242188 5.78125 -5.679688 5.40625 -5.984375 C 5.039062 -6.296875 4.503906 -6.453125 3.796875 -6.453125 L 1.90625 -6.453125 L 1.90625 -2.890625 Z M 3.796875 -2.890625 "/></g></g></g><g fill="#545454" fill-opacity="1"><g transform="translate(344.112562, 220.601057)"><g><path d="M 2.53125 -6.453125 L 0.046875 -6.453125 L 0.046875 -7.109375 L 5.78125 -7.109375 L 5.78125 -6.453125 L 3.296875 -6.453125 L 3.296875 0 L 2.53125 0 Z M 2.53125 -6.453125 "/></g></g></g><g fill="#545454" fill-opacity="1"><g transform="translate(357.720246, 220.601057)"><g><path d="M 3.59375 -2.453125 L 3.59375 0 L 2.859375 0 L 2.859375 -2.453125 L 0.015625 -7.109375 L 0.8125 -7.109375 L 3.25 -3.125 L 5.6875 -7.109375 L 6.4375 -7.109375 Z M 3.59375 -2.453125 "/></g></g></g><g fill="#545454" fill-opacity="1"><g transform="translate(146.430171, 234.141001)"><g><path d="M 8.546875 -7.109375 L 8.546875 0 L 7.8125 0 L 7.8125 -5.6875 L 5.03125 -0.90625 L 4.671875 -0.90625 L 1.875 -5.65625 L 1.875 0 L 1.15625 0 L 1.15625 -7.109375 L 1.78125 -7.109375 L 4.859375 -1.84375 L 7.921875 -7.109375 Z M 8.546875 -7.109375 "/></g></g></g><g fill="#545454" fill-opacity="1"><g transform="translate(163.906925, 234.141001)"><g><path d="M 5.609375 -1.90625 L 1.65625 -1.90625 L 0.796875 0 L 0.015625 0 L 3.265625 -7.109375 L 4.015625 -7.109375 L 7.265625 0 L 6.46875 0 Z M 5.34375 -2.515625 L 3.640625 -6.328125 L 1.921875 -2.515625 Z M 5.34375 -2.515625 "/></g></g></g><g fill="#545454" fill-opacity="1"><g transform="translate(178.966784, 234.141001)"><g><path d="M 7.09375 -7.109375 L 7.09375 0 L 6.484375 0 L 1.90625 -5.765625 L 1.90625 0 L 1.15625 0 L 1.15625 -7.109375 L 1.78125 -7.109375 L 6.359375 -1.34375 L 6.359375 -7.109375 Z M 7.09375 -7.109375 "/></g></g></g><g fill="#545454" fill-opacity="1"><g transform="translate(195.001526, 234.141001)"><g><path d="M 5.609375 -1.90625 L 1.65625 -1.90625 L 0.796875 0 L 0.015625 0 L 3.265625 -7.109375 L 4.015625 -7.109375 L 7.265625 0 L 6.46875 0 Z M 5.34375 -2.515625 L 3.640625 -6.328125 L 1.921875 -2.515625 Z M 5.34375 -2.515625 "/></g></g></g><g fill="#545454" fill-opacity="1"><g transform="translate(210.061385, 234.141001)"><g><path d="M 6.171875 -3.546875 L 6.890625 -3.546875 L 6.890625 -0.84375 C 6.554688 -0.550781 6.160156 -0.328125 5.703125 -0.171875 C 5.253906 -0.015625 4.78125 0.0625 4.28125 0.0625 C 3.5625 0.0625 2.914062 -0.09375 2.34375 -0.40625 C 1.78125 -0.71875 1.335938 -1.148438 1.015625 -1.703125 C 0.691406 -2.253906 0.53125 -2.867188 0.53125 -3.546875 C 0.53125 -4.234375 0.691406 -4.851562 1.015625 -5.40625 C 1.335938 -5.957031 1.78125 -6.390625 2.34375 -6.703125 C 2.914062 -7.015625 3.5625 -7.171875 4.28125 -7.171875 C 4.820312 -7.171875 5.316406 -7.082031 5.765625 -6.90625 C 6.222656 -6.738281 6.609375 -6.484375 6.921875 -6.140625 L 6.453125 -5.671875 C 5.890625 -6.222656 5.175781 -6.5 4.3125 -6.5 C 3.738281 -6.5 3.21875 -6.367188 2.75 -6.109375 C 2.289062 -5.859375 1.925781 -5.507812 1.65625 -5.0625 C 1.394531 -4.613281 1.265625 -4.109375 1.265625 -3.546875 C 1.265625 -2.992188 1.394531 -2.492188 1.65625 -2.046875 C 1.925781 -1.597656 2.289062 -1.242188 2.75 -0.984375 C 3.207031 -0.734375 3.726562 -0.609375 4.3125 -0.609375 C 5.039062 -0.609375 5.660156 -0.789062 6.171875 -1.15625 Z M 6.171875 -3.546875 "/></g></g></g><g fill="#545454" fill-opacity="1"><g transform="translate(225.689919, 234.141001)"><g><path d="M 6.1875 -0.65625 L 6.1875 0 L 1.15625 0 L 1.15625 -7.109375 L 6.03125 -7.109375 L 6.03125 -6.453125 L 1.90625 -6.453125 L 1.90625 -3.9375 L 5.578125 -3.9375 L 5.578125 -3.296875 L 1.90625 -3.296875 L 1.90625 -0.65625 Z M 6.1875 -0.65625 "/></g></g></g><g fill="#545454" fill-opacity="1"><g transform="translate(240.262336, 234.141001)"><g><path d="M 8.546875 -7.109375 L 8.546875 0 L 7.8125 0 L 7.8125 -5.6875 L 5.03125 -0.90625 L 4.671875 -0.90625 L 1.875 -5.65625 L 1.875 0 L 1.15625 0 L 1.15625 -7.109375 L 1.78125 -7.109375 L 4.859375 -1.84375 L 7.921875 -7.109375 Z M 8.546875 -7.109375 "/></g></g></g><g fill="#545454" fill-opacity="1"><g transform="translate(257.739091, 234.141001)"><g><path d="M 6.1875 -0.65625 L 6.1875 0 L 1.15625 0 L 1.15625 -7.109375 L 6.03125 -7.109375 L 6.03125 -6.453125 L 1.90625 -6.453125 L 1.90625 -3.9375 L 5.578125 -3.9375 L 5.578125 -3.296875 L 1.90625 -3.296875 L 1.90625 -0.65625 Z M 6.1875 -0.65625 "/></g></g></g><g fill="#545454" fill-opacity="1"><g transform="translate(272.311508, 234.141001)"><g><path d="M 7.09375 -7.109375 L 7.09375 0 L 6.484375 0 L 1.90625 -5.765625 L 1.90625 0 L 1.15625 0 L 1.15625 -7.109375 L 1.78125 -7.109375 L 6.359375 -1.34375 L 6.359375 -7.109375 Z M 7.09375 -7.109375 "/></g></g></g><g fill="#545454" fill-opacity="1"><g transform="translate(288.34625, 234.141001)"><g><path d="M 2.53125 -6.453125 L 0.046875 -6.453125 L 0.046875 -7.109375 L 5.78125 -7.109375 L 5.78125 -6.453125 L 3.296875 -6.453125 L 3.296875 0 L 2.53125 0 Z M 2.53125 -6.453125 "/></g></g></g><g fill="#545454" fill-opacity="1"><g transform="translate(301.953934, 234.141001)"><g/></g></g><g fill="#545454" fill-opacity="1"><g transform="translate(312.393256, 234.141001)"><g><path d="M 10.921875 -7.109375 L 8.515625 0 L 7.734375 0 L 5.640625 -6.0625 L 3.546875 0 L 2.765625 0 L 0.375 -7.109375 L 1.140625 -7.109375 L 3.203125 -1 L 5.328125 -7.109375 L 6.015625 -7.109375 L 8.109375 -0.96875 L 10.203125 -7.109375 Z M 10.921875 -7.109375 "/></g></g></g><g fill="#545454" fill-opacity="1"><g transform="translate(331.454192, 234.141001)"><g><path d="M 1.15625 -7.109375 L 1.90625 -7.109375 L 1.90625 0 L 1.15625 0 Z M 1.15625 -7.109375 "/></g></g></g><g fill="#545454" fill-opacity="1"><g transform="translate(342.299709, 234.141001)"><g><path d="M 2.53125 -6.453125 L 0.046875 -6.453125 L 0.046875 -7.109375 L 5.78125 -7.109375 L 5.78125 -6.453125 L 3.296875 -6.453125 L 3.296875 0 L 2.53125 0 Z M 2.53125 -6.453125 "/></g></g></g><g fill="#545454" fill-opacity="1"><g transform="translate(355.907393, 234.141001)"><g><path d="M 7.09375 -7.109375 L 7.09375 0 L 6.359375 0 L 6.359375 -3.28125 L 1.90625 -3.28125 L 1.90625 0 L 1.15625 0 L 1.15625 -7.109375 L 1.90625 -7.109375 L 1.90625 -3.9375 L 6.359375 -3.9375 L 6.359375 -7.109375 Z M 7.09375 -7.109375 "/></g></g></g><g fill="#ff5757" fill-opacity="1"><g transform="translate(244.436096, 247.680946)"><g><path d="M 1.0625 -7.109375 L 4.0625 -7.109375 C 4.8125 -7.109375 5.476562 -6.957031 6.0625 -6.65625 C 6.644531 -6.363281 7.097656 -5.945312 7.421875 -5.40625 C 7.742188 -4.863281 7.90625 -4.242188 7.90625 -3.546875 C 7.90625 -2.859375 7.742188 -2.242188 7.421875 -1.703125 C 7.097656 -1.160156 6.644531 -0.738281 6.0625 -0.4375 C 5.476562 -0.144531 4.8125 0 4.0625 0 L 1.0625 0 Z M 4 -0.890625 C 4.570312 -0.890625 5.078125 -1 5.515625 -1.21875 C 5.953125 -1.4375 6.289062 -1.75 6.53125 -2.15625 C 6.769531 -2.5625 6.890625 -3.023438 6.890625 -3.546875 C 6.890625 -4.078125 6.769531 -4.546875 6.53125 -4.953125 C 6.289062 -5.359375 5.953125 -5.671875 5.515625 -5.890625 C 5.078125 -6.109375 4.570312 -6.21875 4 -6.21875 L 2.078125 -6.21875 L 2.078125 -0.890625 Z M 4 -0.890625 "/></g></g></g><g fill="#ff5757" fill-opacity="1"><g transform="translate(260.602845, 247.680946)"><g><path d="M 1.0625 -7.109375 L 2.078125 -7.109375 L 2.078125 0 L 1.0625 0 Z M 1.0625 -7.109375 "/></g></g></g><g fill="#ff5757" fill-opacity="1"><g transform="translate(271.529608, 247.680946)"><g><path d="M 3.140625 0.078125 C 2.597656 0.078125 2.078125 -0.00390625 1.578125 -0.171875 C 1.085938 -0.335938 0.703125 -0.550781 0.421875 -0.8125 L 0.796875 -1.609375 C 1.066406 -1.359375 1.410156 -1.15625 1.828125 -1 C 2.253906 -0.851562 2.691406 -0.78125 3.140625 -0.78125 C 3.722656 -0.78125 4.160156 -0.878906 4.453125 -1.078125 C 4.742188 -1.273438 4.890625 -1.539062 4.890625 -1.875 C 4.890625 -2.125 4.8125 -2.320312 4.65625 -2.46875 C 4.5 -2.625 4.300781 -2.738281 4.0625 -2.8125 C 3.832031 -2.894531 3.503906 -2.988281 3.078125 -3.09375 C 2.546875 -3.226562 2.113281 -3.359375 1.78125 -3.484375 C 1.457031 -3.609375 1.175781 -3.804688 0.9375 -4.078125 C 0.707031 -4.347656 0.59375 -4.707031 0.59375 -5.15625 C 0.59375 -5.539062 0.691406 -5.882812 0.890625 -6.1875 C 1.085938 -6.488281 1.390625 -6.726562 1.796875 -6.90625 C 2.203125 -7.09375 2.707031 -7.1875 3.3125 -7.1875 C 3.726562 -7.1875 4.140625 -7.128906 4.546875 -7.015625 C 4.953125 -6.910156 5.300781 -6.757812 5.59375 -6.5625 L 5.265625 -5.75 C 4.960938 -5.9375 4.640625 -6.078125 4.296875 -6.171875 C 3.960938 -6.273438 3.632812 -6.328125 3.3125 -6.328125 C 2.738281 -6.328125 2.304688 -6.222656 2.015625 -6.015625 C 1.722656 -5.804688 1.578125 -5.535156 1.578125 -5.203125 C 1.578125 -4.953125 1.660156 -4.75 1.828125 -4.59375 C 1.992188 -4.445312 2.195312 -4.332031 2.4375 -4.25 C 2.675781 -4.164062 3 -4.078125 3.40625 -3.984375 C 3.945312 -3.847656 4.378906 -3.71875 4.703125 -3.59375 C 5.023438 -3.46875 5.300781 -3.269531 5.53125 -3 C 5.769531 -2.738281 5.890625 -2.382812 5.890625 -1.9375 C 5.890625 -1.5625 5.785156 -1.21875 5.578125 -0.90625 C 5.378906 -0.601562 5.070312 -0.363281 4.65625 -0.1875 C 4.25 -0.0078125 3.742188 0.078125 3.140625 0.078125 Z M 3.140625 0.078125 "/></g></g></g><g fill="#ff5757" fill-opacity="1"><g transform="translate(285.614584, 247.680946)"><g><path d="M 4.25 0.078125 C 3.53125 0.078125 2.882812 -0.078125 2.3125 -0.390625 C 1.75 -0.703125 1.300781 -1.132812 0.96875 -1.6875 C 0.644531 -2.238281 0.484375 -2.859375 0.484375 -3.546875 C 0.484375 -4.242188 0.644531 -4.867188 0.96875 -5.421875 C 1.300781 -5.972656 1.753906 -6.40625 2.328125 -6.71875 C 2.898438 -7.03125 3.539062 -7.1875 4.25 -7.1875 C 4.8125 -7.1875 5.320312 -7.09375 5.78125 -6.90625 C 6.238281 -6.71875 6.628906 -6.441406 6.953125 -6.078125 L 6.296875 -5.4375 C 5.765625 -6 5.097656 -6.28125 4.296875 -6.28125 C 3.765625 -6.28125 3.285156 -6.160156 2.859375 -5.921875 C 2.429688 -5.691406 2.097656 -5.367188 1.859375 -4.953125 C 1.617188 -4.535156 1.5 -4.066406 1.5 -3.546875 C 1.5 -3.035156 1.617188 -2.570312 1.859375 -2.15625 C 2.097656 -1.738281 2.429688 -1.410156 2.859375 -1.171875 C 3.285156 -0.941406 3.765625 -0.828125 4.296875 -0.828125 C 5.085938 -0.828125 5.753906 -1.109375 6.296875 -1.671875 L 6.953125 -1.03125 C 6.628906 -0.664062 6.234375 -0.390625 5.765625 -0.203125 C 5.304688 -0.015625 4.800781 0.078125 4.25 0.078125 Z M 4.25 0.078125 "/></g></g></g><g fill="#ff5757" fill-opacity="1"><g transform="translate(300.735365, 247.680946)"><g><path d="M 4.015625 0.078125 C 3.066406 0.078125 2.328125 -0.191406 1.796875 -0.734375 C 1.265625 -1.273438 1 -2.050781 1 -3.0625 L 1 -7.109375 L 2.015625 -7.109375 L 2.015625 -3.109375 C 2.015625 -1.585938 2.679688 -0.828125 4.015625 -0.828125 C 4.671875 -0.828125 5.171875 -1.015625 5.515625 -1.390625 C 5.859375 -1.765625 6.03125 -2.335938 6.03125 -3.109375 L 6.03125 -7.109375 L 7.015625 -7.109375 L 7.015625 -3.0625 C 7.015625 -2.039062 6.75 -1.257812 6.21875 -0.71875 C 5.695312 -0.1875 4.960938 0.078125 4.015625 0.078125 Z M 4.015625 0.078125 "/></g></g></g><g fill="#ff5757" fill-opacity="1"><g transform="translate(316.546692, 247.680946)"><g><path d="M 3.140625 0.078125 C 2.597656 0.078125 2.078125 -0.00390625 1.578125 -0.171875 C 1.085938 -0.335938 0.703125 -0.550781 0.421875 -0.8125 L 0.796875 -1.609375 C 1.066406 -1.359375 1.410156 -1.15625 1.828125 -1 C 2.253906 -0.851562 2.691406 -0.78125 3.140625 -0.78125 C 3.722656 -0.78125 4.160156 -0.878906 4.453125 -1.078125 C 4.742188 -1.273438 4.890625 -1.539062 4.890625 -1.875 C 4.890625 -2.125 4.8125 -2.320312 4.65625 -2.46875 C 4.5 -2.625 4.300781 -2.738281 4.0625 -2.8125 C 3.832031 -2.894531 3.503906 -2.988281 3.078125 -3.09375 C 2.546875 -3.226562 2.113281 -3.359375 1.78125 -3.484375 C 1.457031 -3.609375 1.175781 -3.804688 0.9375 -4.078125 C 0.707031 -4.347656 0.59375 -4.707031 0.59375 -5.15625 C 0.59375 -5.539062 0.691406 -5.882812 0.890625 -6.1875 C 1.085938 -6.488281 1.390625 -6.726562 1.796875 -6.90625 C 2.203125 -7.09375 2.707031 -7.1875 3.3125 -7.1875 C 3.726562 -7.1875 4.140625 -7.128906 4.546875 -7.015625 C 4.953125 -6.910156 5.300781 -6.757812 5.59375 -6.5625 L 5.265625 -5.75 C 4.960938 -5.9375 4.640625 -6.078125 4.296875 -6.171875 C 3.960938 -6.273438 3.632812 -6.328125 3.3125 -6.328125 C 2.738281 -6.328125 2.304688 -6.222656 2.015625 -6.015625 C 1.722656 -5.804688 1.578125 -5.535156 1.578125 -5.203125 C 1.578125 -4.953125 1.660156 -4.75 1.828125 -4.59375 C 1.992188 -4.445312 2.195312 -4.332031 2.4375 -4.25 C 2.675781 -4.164062 3 -4.078125 3.40625 -3.984375 C 3.945312 -3.847656 4.378906 -3.71875 4.703125 -3.59375 C 5.023438 -3.46875 5.300781 -3.269531 5.53125 -3 C 5.769531 -2.738281 5.890625 -2.382812 5.890625 -1.9375 C 5.890625 -1.5625 5.785156 -1.21875 5.578125 -0.90625 C 5.378906 -0.601562 5.070312 -0.363281 4.65625 -0.1875 C 4.25 -0.0078125 3.742188 0.078125 3.140625 0.078125 Z M 3.140625 0.078125 "/></g></g></g><g fill="#ff5757" fill-opacity="1"><g transform="translate(330.631668, 247.680946)"><g><path d="M 3.140625 0.078125 C 2.597656 0.078125 2.078125 -0.00390625 1.578125 -0.171875 C 1.085938 -0.335938 0.703125 -0.550781 0.421875 -0.8125 L 0.796875 -1.609375 C 1.066406 -1.359375 1.410156 -1.15625 1.828125 -1 C 2.253906 -0.851562 2.691406 -0.78125 3.140625 -0.78125 C 3.722656 -0.78125 4.160156 -0.878906 4.453125 -1.078125 C 4.742188 -1.273438 4.890625 -1.539062 4.890625 -1.875 C 4.890625 -2.125 4.8125 -2.320312 4.65625 -2.46875 C 4.5 -2.625 4.300781 -2.738281 4.0625 -2.8125 C 3.832031 -2.894531 3.503906 -2.988281 3.078125 -3.09375 C 2.546875 -3.226562 2.113281 -3.359375 1.78125 -3.484375 C 1.457031 -3.609375 1.175781 -3.804688 0.9375 -4.078125 C 0.707031 -4.347656 0.59375 -4.707031 0.59375 -5.15625 C 0.59375 -5.539062 0.691406 -5.882812 0.890625 -6.1875 C 1.085938 -6.488281 1.390625 -6.726562 1.796875 -6.90625 C 2.203125 -7.09375 2.707031 -7.1875 3.3125 -7.1875 C 3.726562 -7.1875 4.140625 -7.128906 4.546875 -7.015625 C 4.953125 -6.910156 5.300781 -6.757812 5.59375 -6.5625 L 5.265625 -5.75 C 4.960938 -5.9375 4.640625 -6.078125 4.296875 -6.171875 C 3.960938 -6.273438 3.632812 -6.328125 3.3125 -6.328125 C 2.738281 -6.328125 2.304688 -6.222656 2.015625 -6.015625 C 1.722656 -5.804688 1.578125 -5.535156 1.578125 -5.203125 C 1.578125 -4.953125 1.660156 -4.75 1.828125 -4.59375 C 1.992188 -4.445312 2.195312 -4.332031 2.4375 -4.25 C 2.675781 -4.164062 3 -4.078125 3.40625 -3.984375 C 3.945312 -3.847656 4.378906 -3.71875 4.703125 -3.59375 C 5.023438 -3.46875 5.300781 -3.269531 5.53125 -3 C 5.769531 -2.738281 5.890625 -2.382812 5.890625 -1.9375 C 5.890625 -1.5625 5.785156 -1.21875 5.578125 -0.90625 C 5.378906 -0.601562 5.070312 -0.363281 4.65625 -0.1875 C 4.25 -0.0078125 3.742188 0.078125 3.140625 0.078125 Z M 3.140625 0.078125 "/></g></g></g><g fill="#ff5757" fill-opacity="1"><g transform="translate(344.716645, 247.680946)"><g><path d="M 1.0625 -7.109375 L 2.078125 -7.109375 L 2.078125 0 L 1.0625 0 Z M 1.0625 -7.109375 "/></g></g></g><g fill="#ff5757" fill-opacity="1"><g transform="translate(355.643408, 247.680946)"><g><path d="M 4.28125 0.078125 C 3.5625 0.078125 2.910156 -0.078125 2.328125 -0.390625 C 1.753906 -0.703125 1.300781 -1.132812 0.96875 -1.6875 C 0.644531 -2.25 0.484375 -2.867188 0.484375 -3.546875 C 0.484375 -4.234375 0.644531 -4.851562 0.96875 -5.40625 C 1.300781 -5.96875 1.753906 -6.40625 2.328125 -6.71875 C 2.910156 -7.03125 3.5625 -7.1875 4.28125 -7.1875 C 4.988281 -7.1875 5.628906 -7.03125 6.203125 -6.71875 C 6.773438 -6.40625 7.222656 -5.972656 7.546875 -5.421875 C 7.878906 -4.867188 8.046875 -4.242188 8.046875 -3.546875 C 8.046875 -2.859375 7.878906 -2.238281 7.546875 -1.6875 C 7.222656 -1.132812 6.773438 -0.703125 6.203125 -0.390625 C 5.628906 -0.078125 4.988281 0.078125 4.28125 0.078125 Z M 4.28125 -0.828125 C 4.800781 -0.828125 5.269531 -0.941406 5.6875 -1.171875 C 6.101562 -1.410156 6.429688 -1.738281 6.671875 -2.15625 C 6.910156 -2.570312 7.03125 -3.035156 7.03125 -3.546875 C 7.03125 -4.066406 6.910156 -4.535156 6.671875 -4.953125 C 6.429688 -5.367188 6.101562 -5.691406 5.6875 -5.921875 C 5.269531 -6.160156 4.800781 -6.28125 4.28125 -6.28125 C 3.757812 -6.28125 3.285156 -6.160156 2.859375 -5.921875 C 2.429688 -5.691406 2.097656 -5.367188 1.859375 -4.953125 C 1.617188 -4.535156 1.5 -4.066406 1.5 -3.546875 C 1.5 -3.035156 1.617188 -2.570312 1.859375 -2.15625 C 2.097656 -1.738281 2.429688 -1.410156 2.859375 -1.171875 C 3.285156 -0.941406 3.757812 -0.828125 4.28125 -0.828125 Z M 4.28125 -0.828125 "/></g></g></g><g fill="#3f475a" fill-opacity="1"><g transform="translate(130.054784, 199.296855)"><g><path d="M 5.78125 -35.53125 L 9.546875 -35.53125 L 9.546875 0 L 5.78125 0 Z M 5.78125 -35.53125 "/></g></g></g><g fill="#3f475a" fill-opacity="1"><g transform="translate(145.184092, 199.296855)"><g><path d="M 15.578125 0.296875 C 12.941406 0.296875 10.410156 -0.125 7.984375 -0.96875 C 5.566406 -1.8125 3.703125 -2.925781 2.390625 -4.3125 L 3.859375 -7.203125 C 5.140625 -5.921875 6.847656 -4.878906 8.984375 -4.078125 C 11.117188 -3.285156 13.316406 -2.890625 15.578125 -2.890625 C 18.765625 -2.890625 21.148438 -3.472656 22.734375 -4.640625 C 24.328125 -5.804688 25.125 -7.320312 25.125 -9.1875 C 25.125 -10.613281 24.691406 -11.75 23.828125 -12.59375 C 22.972656 -13.4375 21.914062 -14.085938 20.65625 -14.546875 C 19.40625 -15.003906 17.664062 -15.503906 15.4375 -16.046875 C 12.757812 -16.722656 10.625 -17.375 9.03125 -18 C 7.445312 -18.625 6.085938 -19.578125 4.953125 -20.859375 C 3.816406 -22.148438 3.25 -23.894531 3.25 -26.09375 C 3.25 -27.882812 3.722656 -29.515625 4.671875 -30.984375 C 5.617188 -32.460938 7.070312 -33.640625 9.03125 -34.515625 C 11 -35.398438 13.4375 -35.84375 16.34375 -35.84375 C 18.375 -35.84375 20.363281 -35.5625 22.3125 -35 C 24.257812 -34.445312 25.941406 -33.675781 27.359375 -32.6875 L 26.09375 -29.703125 C 24.601562 -30.679688 23.007812 -31.414062 21.3125 -31.90625 C 19.625 -32.394531 17.96875 -32.640625 16.34375 -32.640625 C 13.226562 -32.640625 10.882812 -32.035156 9.3125 -30.828125 C 7.738281 -29.628906 6.953125 -28.082031 6.953125 -26.1875 C 6.953125 -24.769531 7.382812 -23.628906 8.25 -22.765625 C 9.113281 -21.898438 10.195312 -21.238281 11.5 -20.78125 C 12.800781 -20.332031 14.550781 -19.835938 16.75 -19.296875 C 19.351562 -18.648438 21.457031 -18.015625 23.0625 -17.390625 C 24.675781 -16.765625 26.039062 -15.816406 27.15625 -14.546875 C 28.269531 -13.273438 28.828125 -11.554688 28.828125 -9.390625 C 28.828125 -7.597656 28.34375 -5.960938 27.375 -4.484375 C 26.414062 -3.015625 24.9375 -1.847656 22.9375 -0.984375 C 20.945312 -0.128906 18.492188 0.296875 15.578125 0.296875 Z M 15.578125 0.296875 "/></g></g></g><g fill="#3f475a" fill-opacity="1"><g transform="translate(176.204256, 199.296855)"><g><path d="M 21.21875 0.296875 C 17.695312 0.296875 14.523438 -0.476562 11.703125 -2.03125 C 8.878906 -3.582031 6.660156 -5.738281 5.046875 -8.5 C 3.441406 -11.257812 2.640625 -14.347656 2.640625 -17.765625 C 2.640625 -21.179688 3.441406 -24.269531 5.046875 -27.03125 C 6.660156 -29.789062 8.882812 -31.945312 11.71875 -33.5 C 14.5625 -35.0625 17.742188 -35.84375 21.265625 -35.84375 C 23.910156 -35.84375 26.347656 -35.398438 28.578125 -34.515625 C 30.816406 -33.640625 32.710938 -32.351562 34.265625 -30.65625 L 31.875 -28.28125 C 29.101562 -31.082031 25.601562 -32.484375 21.375 -32.484375 C 18.5625 -32.484375 16.003906 -31.835938 13.703125 -30.546875 C 11.398438 -29.265625 9.597656 -27.507812 8.296875 -25.28125 C 6.992188 -23.050781 6.34375 -20.546875 6.34375 -17.765625 C 6.34375 -14.992188 6.992188 -12.488281 8.296875 -10.25 C 9.597656 -8.019531 11.398438 -6.257812 13.703125 -4.96875 C 16.003906 -3.6875 18.5625 -3.046875 21.375 -3.046875 C 25.632812 -3.046875 29.132812 -4.46875 31.875 -7.3125 L 34.265625 -4.921875 C 32.710938 -3.234375 30.8125 -1.941406 28.5625 -1.046875 C 26.3125 -0.148438 23.863281 0.296875 21.21875 0.296875 Z M 21.21875 0.296875 "/></g></g></g><g fill="#3f475a" fill-opacity="1"><g transform="translate(212.504464, 199.296855)"><g><path d="M 20.109375 0.296875 C 15.503906 0.296875 11.914062 -1.019531 9.34375 -3.65625 C 6.769531 -6.289062 5.484375 -10.128906 5.484375 -15.171875 L 5.484375 -35.53125 L 9.234375 -35.53125 L 9.234375 -15.328125 C 9.234375 -11.203125 10.164062 -8.125 12.03125 -6.09375 C 13.894531 -4.0625 16.585938 -3.046875 20.109375 -3.046875 C 23.660156 -3.046875 26.363281 -4.0625 28.21875 -6.09375 C 30.082031 -8.125 31.015625 -11.203125 31.015625 -15.328125 L 31.015625 -35.53125 L 34.671875 -35.53125 L 34.671875 -15.171875 C 34.671875 -10.128906 33.390625 -6.289062 30.828125 -3.65625 C 28.273438 -1.019531 24.703125 0.296875 20.109375 0.296875 Z M 20.109375 0.296875 "/></g></g></g><g fill="#3f475a" fill-opacity="1"><g transform="translate(252.510845, 199.296855)"><g><path d="M 15.578125 0.296875 C 12.941406 0.296875 10.410156 -0.125 7.984375 -0.96875 C 5.566406 -1.8125 3.703125 -2.925781 2.390625 -4.3125 L 3.859375 -7.203125 C 5.140625 -5.921875 6.847656 -4.878906 8.984375 -4.078125 C 11.117188 -3.285156 13.316406 -2.890625 15.578125 -2.890625 C 18.765625 -2.890625 21.148438 -3.472656 22.734375 -4.640625 C 24.328125 -5.804688 25.125 -7.320312 25.125 -9.1875 C 25.125 -10.613281 24.691406 -11.75 23.828125 -12.59375 C 22.972656 -13.4375 21.914062 -14.085938 20.65625 -14.546875 C 19.40625 -15.003906 17.664062 -15.503906 15.4375 -16.046875 C 12.757812 -16.722656 10.625 -17.375 9.03125 -18 C 7.445312 -18.625 6.085938 -19.578125 4.953125 -20.859375 C 3.816406 -22.148438 3.25 -23.894531 3.25 -26.09375 C 3.25 -27.882812 3.722656 -29.515625 4.671875 -30.984375 C 5.617188 -32.460938 7.070312 -33.640625 9.03125 -34.515625 C 11 -35.398438 13.4375 -35.84375 16.34375 -35.84375 C 18.375 -35.84375 20.363281 -35.5625 22.3125 -35 C 24.257812 -34.445312 25.941406 -33.675781 27.359375 -32.6875 L 26.09375 -29.703125 C 24.601562 -30.679688 23.007812 -31.414062 21.3125 -31.90625 C 19.625 -32.394531 17.96875 -32.640625 16.34375 -32.640625 C 13.226562 -32.640625 10.882812 -32.035156 9.3125 -30.828125 C 7.738281 -29.628906 6.953125 -28.082031 6.953125 -26.1875 C 6.953125 -24.769531 7.382812 -23.628906 8.25 -22.765625 C 9.113281 -21.898438 10.195312 -21.238281 11.5 -20.78125 C 12.800781 -20.332031 14.550781 -19.835938 16.75 -19.296875 C 19.351562 -18.648438 21.457031 -18.015625 23.0625 -17.390625 C 24.675781 -16.765625 26.039062 -15.816406 27.15625 -14.546875 C 28.269531 -13.273438 28.828125 -11.554688 28.828125 -9.390625 C 28.828125 -7.597656 28.34375 -5.960938 27.375 -4.484375 C 26.414062 -3.015625 24.9375 -1.847656 22.9375 -0.984375 C 20.945312 -0.128906 18.492188 0.296875 15.578125 0.296875 Z M 15.578125 0.296875 "/></g></g></g><g fill="#3f475a" fill-opacity="1"><g transform="translate(283.53101, 199.296855)"><g><path d="M 15.578125 0.296875 C 12.941406 0.296875 10.410156 -0.125 7.984375 -0.96875 C 5.566406 -1.8125 3.703125 -2.925781 2.390625 -4.3125 L 3.859375 -7.203125 C 5.140625 -5.921875 6.847656 -4.878906 8.984375 -4.078125 C 11.117188 -3.285156 13.316406 -2.890625 15.578125 -2.890625 C 18.765625 -2.890625 21.148438 -3.472656 22.734375 -4.640625 C 24.328125 -5.804688 25.125 -7.320312 25.125 -9.1875 C 25.125 -10.613281 24.691406 -11.75 23.828125 -12.59375 C 22.972656 -13.4375 21.914062 -14.085938 20.65625 -14.546875 C 19.40625 -15.003906 17.664062 -15.503906 15.4375 -16.046875 C 12.757812 -16.722656 10.625 -17.375 9.03125 -18 C 7.445312 -18.625 6.085938 -19.578125 4.953125 -20.859375 C 3.816406 -22.148438 3.25 -23.894531 3.25 -26.09375 C 3.25 -27.882812 3.722656 -29.515625 4.671875 -30.984375 C 5.617188 -32.460938 7.070312 -33.640625 9.03125 -34.515625 C 11 -35.398438 13.4375 -35.84375 16.34375 -35.84375 C 18.375 -35.84375 20.363281 -35.5625 22.3125 -35 C 24.257812 -34.445312 25.941406 -33.675781 27.359375 -32.6875 L 26.09375 -29.703125 C 24.601562 -30.679688 23.007812 -31.414062 21.3125 -31.90625 C 19.625 -32.394531 17.96875 -32.640625 16.34375 -32.640625 C 13.226562 -32.640625 10.882812 -32.035156 9.3125 -30.828125 C 7.738281 -29.628906 6.953125 -28.082031 6.953125 -26.1875 C 6.953125 -24.769531 7.382812 -23.628906 8.25 -22.765625 C 9.113281 -21.898438 10.195312 -21.238281 11.5 -20.78125 C 12.800781 -20.332031 14.550781 -19.835938 16.75 -19.296875 C 19.351562 -18.648438 21.457031 -18.015625 23.0625 -17.390625 C 24.675781 -16.765625 26.039062 -15.816406 27.15625 -14.546875 C 28.269531 -13.273438 28.828125 -11.554688 28.828125 -9.390625 C 28.828125 -7.597656 28.34375 -5.960938 27.375 -4.484375 C 26.414062 -3.015625 24.9375 -1.847656 22.9375 -0.984375 C 20.945312 -0.128906 18.492188 0.296875 15.578125 0.296875 Z M 15.578125 0.296875 "/></g></g></g><g fill="#3f475a" fill-opacity="1"><g transform="translate(314.551174, 199.296855)"><g><path d="M 5.78125 -35.53125 L 9.546875 -35.53125 L 9.546875 0 L 5.78125 0 Z M 5.78125 -35.53125 "/></g></g></g><g fill="#3f475a" fill-opacity="1"><g transform="translate(329.680482, 199.296855)"><g><path d="M 21.328125 0.296875 C 17.804688 0.296875 14.613281 -0.488281 11.75 -2.0625 C 8.894531 -3.632812 6.660156 -5.789062 5.046875 -8.53125 C 3.441406 -11.269531 2.640625 -14.347656 2.640625 -17.765625 C 2.640625 -21.179688 3.441406 -24.257812 5.046875 -27 C 6.660156 -29.75 8.894531 -31.910156 11.75 -33.484375 C 14.613281 -35.054688 17.804688 -35.84375 21.328125 -35.84375 C 24.835938 -35.84375 28.003906 -35.0625 30.828125 -33.5 C 33.660156 -31.945312 35.890625 -29.789062 37.515625 -27.03125 C 39.140625 -24.269531 39.953125 -21.179688 39.953125 -17.765625 C 39.953125 -14.347656 39.140625 -11.257812 37.515625 -8.5 C 35.890625 -5.738281 33.660156 -3.582031 30.828125 -2.03125 C 28.003906 -0.476562 24.835938 0.296875 21.328125 0.296875 Z M 21.328125 -3.046875 C 24.128906 -3.046875 26.664062 -3.679688 28.9375 -4.953125 C 31.207031 -6.222656 32.984375 -7.984375 34.265625 -10.234375 C 35.554688 -12.484375 36.203125 -14.992188 36.203125 -17.765625 C 36.203125 -20.546875 35.554688 -23.0625 34.265625 -25.3125 C 32.984375 -27.5625 31.207031 -29.316406 28.9375 -30.578125 C 26.664062 -31.847656 24.128906 -32.484375 21.328125 -32.484375 C 18.515625 -32.484375 15.960938 -31.847656 13.671875 -30.578125 C 11.390625 -29.316406 9.597656 -27.5625 8.296875 -25.3125 C 6.992188 -23.0625 6.34375 -20.546875 6.34375 -17.765625 C 6.34375 -14.992188 6.992188 -12.484375 8.296875 -10.234375 C 9.597656 -7.984375 11.390625 -6.222656 13.671875 -4.953125 C 15.960938 -3.679688 18.515625 -3.046875 21.328125 -3.046875 Z M 21.328125 -3.046875 "/></g></g></g><g fill="#3f475a" fill-opacity="1"><g transform="translate(54.007074, 224.390279)"><g><path d="M 33.835938 -85.824219 L 1.640625 -85.824219 L 1.640625 0 L 33.605469 0 C 57.253906 0 76.691406 -19.261719 76.691406 -43.085938 C 76.691406 -66.5625 57.371094 -85.824219 33.835938 -85.824219 Z M 33.835938 -10.1875 L 12.175781 -10.1875 L 12.175781 -75.636719 L 33.605469 -75.636719 C 51.691406 -75.636719 66.386719 -60.941406 66.386719 -43.085938 C 66.386719 -24.996094 51.808594 -10.1875 33.835938 -10.1875 Z M 33.605469 -74.289062 L 13.289062 -74.289062 L 13.289062 -11.53125 L 33.605469 -11.53125 C 50.933594 -11.53125 65.042969 -25.640625 65.042969 -43.085938 C 65.042969 -60.242188 50.933594 -74.289062 33.605469 -74.289062 Z M 33.835938 -21.660156 L 23.535156 -21.660156 L 23.535156 -64.164062 L 33.835938 -64.164062 C 45.429688 -64.164062 54.738281 -54.386719 54.738281 -43.085938 C 54.738281 -31.261719 45.429688 -21.660156 33.835938 -21.660156 Z M 33.835938 -21.660156 "/></g></g></g><g fill="#3f475a" fill-opacity="1"><g transform="translate(38.360265, 206.667994)"><g><path d="M -18.054688 -9.402344 C -18.054688 -4.386719 -13.957031 -0.292969 -8.894531 -0.292969 C -3.875 -0.292969 0.21875 -4.386719 0.21875 -9.402344 C 0.21875 -14.492188 -3.875 -18.5625 -8.894531 -18.5625 C -13.957031 -18.5625 -18.054688 -14.492188 -18.054688 -9.402344 Z M -1.980469 -9.402344 C -1.980469 -5.589844 -5.078125 -2.515625 -8.894531 -2.515625 C -12.757812 -2.515625 -15.855469 -5.589844 -15.855469 -9.402344 C -15.855469 -13.289062 -12.757812 -16.363281 -8.894531 -16.363281 C -5.078125 -16.363281 -1.980469 -13.289062 -1.980469 -9.402344 Z M -15.597656 -9.402344 C -15.597656 -5.746094 -12.621094 -2.769531 -8.894531 -2.769531 C -5.234375 -2.769531 -2.273438 -5.746094 -2.273438 -9.402344 C -2.273438 -13.132812 -5.234375 -16.109375 -8.894531 -16.109375 C -12.621094 -16.109375 -15.597656 -13.132812 -15.597656 -9.402344 Z M -4.472656 -9.402344 C -4.472656 -6.984375 -6.476562 -4.980469 -8.894531 -4.980469 C -11.359375 -4.980469 -13.363281 -6.984375 -13.363281 -9.402344 C -13.363281 -11.929688 -11.359375 -13.898438 -8.894531 -13.898438 C -6.476562 -13.898438 -4.472656 -11.929688 -4.472656 -9.402344 Z M -4.472656 -9.402344 "/></g></g></g><g fill="#3f475a" fill-opacity="1"><g transform="translate(55.940819, 200.046937)"><g><path d="M 0 -0.609375 L 0 -2.832031 L -17.835938 -2.832031 L -17.835938 -0.609375 Z M 0 -3.085938 L 0 -5.285156 L -17.835938 -5.285156 L -17.835938 -3.085938 Z M 0 -3.085938 "/></g></g></g><g fill="#3f475a" fill-opacity="1"><g transform="translate(38.360265, 178.94281)"><g><path d="M -18.054688 -9.402344 C -18.054688 -4.386719 -13.957031 -0.292969 -8.894531 -0.292969 C -3.875 -0.292969 0.21875 -4.386719 0.21875 -9.402344 C 0.21875 -14.492188 -3.875 -18.5625 -8.894531 -18.5625 C -13.957031 -18.5625 -18.054688 -14.492188 -18.054688 -9.402344 Z M -1.980469 -9.402344 C -1.980469 -5.589844 -5.078125 -2.515625 -8.894531 -2.515625 C -12.757812 -2.515625 -15.855469 -5.589844 -15.855469 -9.402344 C -15.855469 -13.289062 -12.757812 -16.363281 -8.894531 -16.363281 C -5.078125 -16.363281 -1.980469 -13.289062 -1.980469 -9.402344 Z M -15.597656 -9.402344 C -15.597656 -5.746094 -12.621094 -2.769531 -8.894531 -2.769531 C -5.234375 -2.769531 -2.273438 -5.746094 -2.273438 -9.402344 C -2.273438 -13.132812 -5.234375 -16.109375 -8.894531 -16.109375 C -12.621094 -16.109375 -15.597656 -13.132812 -15.597656 -9.402344 Z M -4.472656 -9.402344 C -4.472656 -6.984375 -6.476562 -4.980469 -8.894531 -4.980469 C -11.359375 -4.980469 -13.363281 -6.984375 -13.363281 -9.402344 C -13.363281 -11.929688 -11.359375 -13.898438 -8.894531 -13.898438 C -6.476562 -13.898438 -4.472656 -11.929688 -4.472656 -9.402344 Z M -4.472656 -9.402344 "/></g></g></g><g fill="#3f475a" fill-opacity="1"><g transform="translate(55.940819, 172.321781)"><g><path d="M 0 -0.609375 L 0 -2.832031 L -17.835938 -2.832031 L -17.835938 -0.609375 Z M 0 -3.085938 L 0 -5.285156 L -17.835938 -5.285156 L -17.835938 -3.085938 Z M 0 -3.085938 "/></g></g></g><g fill="#ff5757" fill-opacity="1"><g transform="translate(23.441834, 193.188107)"><g><path d="M -18.054688 -9.402344 C -18.054688 -4.386719 -13.957031 -0.292969 -8.894531 -0.292969 C -3.875 -0.292969 0.21875 -4.386719 0.21875 -9.402344 C 0.21875 -14.492188 -3.875 -18.5625 -8.894531 -18.5625 C -13.957031 -18.5625 -18.054688 -14.492188 -18.054688 -9.402344 Z M -1.980469 -9.402344 C -1.980469 -5.589844 -5.078125 -2.515625 -8.894531 -2.515625 C -12.757812 -2.515625 -15.855469 -5.589844 -15.855469 -9.402344 C -15.855469 -13.289062 -12.757812 -16.363281 -8.894531 -16.363281 C -5.078125 -16.363281 -1.980469 -13.289062 -1.980469 -9.402344 Z M -15.597656 -9.402344 C -15.597656 -5.746094 -12.621094 -2.769531 -8.894531 -2.769531 C -5.234375 -2.769531 -2.273438 -5.746094 -2.273438 -9.402344 C -2.273438 -13.132812 -5.234375 -16.109375 -8.894531 -16.109375 C -12.621094 -16.109375 -15.597656 -13.132812 -15.597656 -9.402344 Z M -4.472656 -9.402344 C -4.472656 -6.984375 -6.476562 -4.980469 -8.894531 -4.980469 C -11.359375 -4.980469 -13.363281 -6.984375 -13.363281 -9.402344 C -13.363281 -11.929688 -11.359375 -13.898438 -8.894531 -13.898438 C -6.476562 -13.898438 -4.472656 -11.929688 -4.472656 -9.402344 Z M -4.472656 -9.402344 "/></g></g></g><g fill="#ff5757" fill-opacity="1"><g transform="translate(41.028205, 186.563438)"><g><path d="M 0 -0.609375 L 0 -2.832031 L -17.835938 -2.832031 L -17.835938 -0.609375 Z M 0 -3.085938 L 0 -5.285156 L -17.835938 -5.285156 L -17.835938 -3.085938 Z M 0 -3.085938 "/></g></g></g><g fill="#ff5757" fill-opacity="1"><g transform="translate(56.167251, 186.567064)"><g><path d="M 0 -0.609375 L 0 -2.832031 L -17.835938 -2.832031 L -17.835938 -0.609375 Z M 0 -3.085938 L 0 -5.285156 L -17.835938 -5.285156 L -17.835938 -3.085938 Z M 0 -3.085938 "/></g></g></g><g fill="#ff5757" fill-opacity="1"><g transform="translate(107.881434, 243.390077)"><g><path d="M -57.6875 -9.390625 L -57.6875 -15.5 L 0 -15.5 L 0 -9.390625 Z M -57.6875 -9.390625 "/></g></g></g><g clip-path="url(#f36fbf4e11)"><g clip-path="url(#ff533b36a8)"><path fill="#ff5757" d="M 28.027344 245.226562 L 28.027344 216.644531 L 52.777344 216.644531 L 52.777344 245.226562 Z M 28.027344 245.226562 " fill-opacity="1" fill-rule="nonzero"/></g></g><g clip-path="url(#ca595ee6ff)"><g clip-path="url(#1a81f70030)"><path fill="#ff5757" d="M 141.535156 119.132812 L 141.535156 147.714844 L 116.78125 147.714844 L 116.78125 119.132812 Z M 141.535156 119.132812 " fill-opacity="1" fill-rule="nonzero"/></g></g><g fill="#ff5757" fill-opacity="1"><g transform="translate(61.488249, 120.925819)"><g><path d="M 57.6875 9.390625 L 57.6875 15.5 L 0 15.5 L 0 9.390625 Z M 57.6875 9.390625 "/></g></g></g><g fill="#3f475a" fill-opacity="1"><g transform="translate(120.893562, 140.432313)"><g><path d="M 1.671875 -8.40625 L 8.953125 -8.40625 L 8.953125 -6.671875 L 1.671875 -6.671875 Z M 1.671875 -8.40625 "/></g></g></g><g fill="#3f475a" fill-opacity="1"><g transform="translate(36.589594, 241.151484)"><g><path d="M 14.046875 -8.90625 L 8.875 -8.90625 L 8.875 -3.84375 L 7.125 -3.84375 L 7.125 -8.90625 L 1.953125 -8.90625 L 1.953125 -10.546875 L 7.125 -10.546875 L 7.125 -15.640625 L 8.875 -15.640625 L 8.875 -10.546875 L 14.046875 -10.546875 Z M 14.046875 -8.90625 "/></g></g></g></svg>