<svg xmlns="http://www.w3.org/2000/svg" xmlns:xlink="http://www.w3.org/1999/xlink" zoomAndPan="magnify" preserveAspectRatio="xMidYMid meet" version="1.0" viewBox="37.5 157.71 299.57 59.58"><defs><g/><clipPath id="bda050b346"><path d="M 37.5 159.558594 L 106.5 159.558594 L 106.5 212.808594 L 37.5 212.808594 Z M 37.5 159.558594 " clip-rule="nonzero"/></clipPath><clipPath id="7d1fbba494"><path d="M 107.84375 157.710938 L 124.355469 157.710938 L 124.355469 172.007812 L 107.84375 172.007812 Z M 107.84375 157.710938 " clip-rule="nonzero"/></clipPath><clipPath id="12def02add"><path d="M 107.84375 172.007812 L 116.101562 157.710938 L 124.355469 172.007812 Z M 107.84375 172.007812 " clip-rule="nonzero"/></clipPath><clipPath id="f8c76e9f3b"><path d="M 114.125 165.429688 L 118.074219 165.429688 L 118.074219 169.378906 L 114.125 169.378906 Z M 114.125 165.429688 " clip-rule="nonzero"/></clipPath><clipPath id="87350c2486"><path d="M 113.382812 164.859375 L 118.738281 164.859375 L 118.738281 170.214844 L 113.382812 170.214844 Z M 113.382812 164.859375 " clip-rule="nonzero"/></clipPath><clipPath id="28e04addc9"><path d="M 294.21875 170.292969 L 337.074219 170.292969 L 337.074219 205.109375 L 294.21875 205.109375 Z M 294.21875 170.292969 " clip-rule="nonzero"/></clipPath><clipPath id="a6f45fc148"><path d="M 279.546875 202.992188 L 296.058594 202.992188 L 296.058594 217.289062 L 279.546875 217.289062 Z M 279.546875 202.992188 " clip-rule="nonzero"/></clipPath><clipPath id="6dd3b756d4"><path d="M 296.058594 202.992188 L 287.800781 217.289062 L 279.546875 202.992188 Z M 296.058594 202.992188 " clip-rule="nonzero"/></clipPath><clipPath id="7bf097ba6a"><path d="M 285.832031 205.621094 L 289.785156 205.621094 L 289.785156 209.570312 L 285.832031 209.570312 Z M 285.832031 205.621094 " clip-rule="nonzero"/></clipPath><clipPath id="2640e56886"><path d="M 285.164062 204.777344 L 290.519531 204.777344 L 290.519531 210.132812 L 285.164062 210.132812 Z M 285.164062 204.777344 " clip-rule="nonzero"/></clipPath></defs><g clip-path="url(#bda050b346)"><path fill="#000000" d="M 54.582031 166.953125 L 47.429688 166.953125 C 46.84375 164.8125 44.886719 163.234375 42.5625 163.234375 C 39.773438 163.234375 37.511719 165.496094 37.511719 168.289062 C 37.511719 171.078125 39.773438 173.339844 42.5625 173.339844 C 44.886719 173.339844 46.84375 171.769531 47.429688 169.632812 L 54.582031 169.632812 L 54.582031 180.824219 L 93.632812 180.824219 C 93.257812 179.878906 92.792969 178.980469 92.246094 178.140625 L 57.261719 178.140625 L 57.261719 166.953125 Z M 60.007812 159.558594 L 79.878906 159.558594 C 94.515625 159.558594 106.488281 171.539062 106.488281 186.183594 C 106.488281 200.824219 94.515625 212.808594 79.878906 212.808594 L 60.007812 212.808594 L 60.007812 204.070312 L 79.878906 204.070312 C 89.714844 204.070312 97.757812 196.019531 97.757812 186.183594 C 97.757812 176.34375 89.714844 168.300781 79.878906 168.300781 L 60.007812 168.300781 Z M 47.429688 184.839844 L 94.582031 184.839844 C 94.628906 185.285156 94.648438 185.734375 94.648438 186.183594 C 94.648438 186.636719 94.628906 187.082031 94.582031 187.523438 L 47.429688 187.523438 C 46.84375 189.660156 44.886719 191.238281 42.5625 191.238281 C 39.773438 191.238281 37.511719 188.976562 37.511719 186.183594 C 37.511719 183.394531 39.773438 181.132812 42.5625 181.132812 C 44.886719 181.132812 46.84375 182.703125 47.429688 184.839844 Z M 54.582031 205.417969 L 47.429688 205.417969 C 46.84375 207.558594 44.886719 209.128906 42.5625 209.128906 C 39.773438 209.128906 37.511719 206.867188 37.511719 204.082031 C 37.511719 201.289062 39.773438 199.027344 42.5625 199.027344 C 44.886719 199.027344 46.84375 200.597656 47.429688 202.738281 L 54.582031 202.738281 L 54.582031 191.546875 L 93.632812 191.546875 C 93.257812 192.492188 92.792969 193.390625 92.246094 194.230469 L 57.261719 194.230469 L 57.261719 205.417969 Z M 54.582031 205.417969 " fill-opacity="1" fill-rule="evenodd"/></g><g fill="#000000" fill-opacity="1"><g transform="translate(121.526776, 203.30339)"><g><path d="M 14.609375 0.28125 C 12.140625 0.28125 9.769531 -0.113281 7.5 -0.90625 C 5.226562 -1.695312 3.472656 -2.742188 2.234375 -4.046875 L 3.625 -6.765625 C 4.820312 -5.554688 6.421875 -4.578125 8.421875 -3.828125 C 10.421875 -3.085938 12.484375 -2.71875 14.609375 -2.71875 C 17.597656 -2.71875 19.835938 -3.265625 21.328125 -4.359375 C 22.816406 -5.453125 23.5625 -6.875 23.5625 -8.625 C 23.5625 -9.945312 23.15625 -11.003906 22.34375 -11.796875 C 21.539062 -12.597656 20.550781 -13.210938 19.375 -13.640625 C 18.195312 -14.066406 16.5625 -14.535156 14.46875 -15.046875 C 11.96875 -15.679688 9.96875 -16.289062 8.46875 -16.875 C 6.976562 -17.46875 5.703125 -18.363281 4.640625 -19.5625 C 3.578125 -20.769531 3.046875 -22.40625 3.046875 -24.46875 C 3.046875 -26.15625 3.488281 -27.6875 4.375 -29.0625 C 5.269531 -30.445312 6.632812 -31.550781 8.46875 -32.375 C 10.3125 -33.195312 12.597656 -33.609375 15.328125 -33.609375 C 17.234375 -33.609375 19.097656 -33.347656 20.921875 -32.828125 C 22.742188 -32.304688 24.320312 -31.582031 25.65625 -30.65625 L 24.46875 -27.84375 C 23.070312 -28.769531 21.578125 -29.460938 19.984375 -29.921875 C 18.398438 -30.378906 16.847656 -30.609375 15.328125 -30.609375 C 12.410156 -30.609375 10.210938 -30.046875 8.734375 -28.921875 C 7.253906 -27.796875 6.515625 -26.34375 6.515625 -24.5625 C 6.515625 -23.226562 6.921875 -22.15625 7.734375 -21.34375 C 8.546875 -20.539062 9.5625 -19.925781 10.78125 -19.5 C 12 -19.070312 13.644531 -18.601562 15.71875 -18.09375 C 18.15625 -17.488281 20.128906 -16.890625 21.640625 -16.296875 C 23.148438 -15.710938 24.425781 -14.828125 25.46875 -13.640625 C 26.519531 -12.453125 27.046875 -10.84375 27.046875 -8.8125 C 27.046875 -7.125 26.59375 -5.585938 25.6875 -4.203125 C 24.78125 -2.828125 23.390625 -1.734375 21.515625 -0.921875 C 19.640625 -0.117188 17.335938 0.28125 14.609375 0.28125 Z M 14.609375 0.28125 "/></g></g></g><g fill="#000000" fill-opacity="1"><g transform="translate(150.616426, 203.30339)"><g><path d="M 19.90625 0.28125 C 16.601562 0.28125 13.625 -0.445312 10.96875 -1.90625 C 8.320312 -3.363281 6.242188 -5.382812 4.734375 -7.96875 C 3.222656 -10.5625 2.46875 -13.457031 2.46875 -16.65625 C 2.46875 -19.863281 3.222656 -22.757812 4.734375 -25.34375 C 6.242188 -27.9375 8.332031 -29.960938 11 -31.421875 C 13.664062 -32.878906 16.648438 -33.609375 19.953125 -33.609375 C 22.421875 -33.609375 24.703125 -33.195312 26.796875 -32.375 C 28.898438 -31.550781 30.679688 -30.34375 32.140625 -28.75 L 29.90625 -26.515625 C 27.300781 -29.148438 24.015625 -30.46875 20.046875 -30.46875 C 17.410156 -30.46875 15.007812 -29.863281 12.84375 -28.65625 C 10.6875 -27.457031 9 -25.804688 7.78125 -23.703125 C 6.5625 -21.609375 5.953125 -19.257812 5.953125 -16.65625 C 5.953125 -14.0625 6.5625 -11.710938 7.78125 -9.609375 C 9 -7.515625 10.6875 -5.863281 12.84375 -4.65625 C 15.007812 -3.457031 17.410156 -2.859375 20.046875 -2.859375 C 24.046875 -2.859375 27.332031 -4.191406 29.90625 -6.859375 L 32.140625 -4.625 C 30.679688 -3.03125 28.894531 -1.8125 26.78125 -0.96875 C 24.664062 -0.132812 22.375 0.28125 19.90625 0.28125 Z M 19.90625 0.28125 "/></g></g></g><g fill="#000000" fill-opacity="1"><g transform="translate(184.657519, 203.30339)"><g><path d="M 18.859375 0.28125 C 14.535156 0.28125 11.164062 -0.953125 8.75 -3.421875 C 6.34375 -5.898438 5.140625 -9.503906 5.140625 -14.234375 L 5.140625 -33.328125 L 8.671875 -33.328125 L 8.671875 -14.375 C 8.671875 -10.5 9.539062 -7.609375 11.28125 -5.703125 C 13.03125 -3.804688 15.554688 -2.859375 18.859375 -2.859375 C 22.191406 -2.859375 24.726562 -3.804688 26.46875 -5.703125 C 28.21875 -7.609375 29.09375 -10.5 29.09375 -14.375 L 29.09375 -33.328125 L 32.515625 -33.328125 L 32.515625 -14.234375 C 32.515625 -9.503906 31.316406 -5.898438 28.921875 -3.421875 C 26.523438 -0.953125 23.171875 0.28125 18.859375 0.28125 Z M 18.859375 0.28125 "/></g></g></g><g fill="#000000" fill-opacity="1"><g transform="translate(222.174135, 203.30339)"><g><path d="M 14.609375 0.28125 C 12.140625 0.28125 9.769531 -0.113281 7.5 -0.90625 C 5.226562 -1.695312 3.472656 -2.742188 2.234375 -4.046875 L 3.625 -6.765625 C 4.820312 -5.554688 6.421875 -4.578125 8.421875 -3.828125 C 10.421875 -3.085938 12.484375 -2.71875 14.609375 -2.71875 C 17.597656 -2.71875 19.835938 -3.265625 21.328125 -4.359375 C 22.816406 -5.453125 23.5625 -6.875 23.5625 -8.625 C 23.5625 -9.945312 23.15625 -11.003906 22.34375 -11.796875 C 21.539062 -12.597656 20.550781 -13.210938 19.375 -13.640625 C 18.195312 -14.066406 16.5625 -14.535156 14.46875 -15.046875 C 11.96875 -15.679688 9.96875 -16.289062 8.46875 -16.875 C 6.976562 -17.46875 5.703125 -18.363281 4.640625 -19.5625 C 3.578125 -20.769531 3.046875 -22.40625 3.046875 -24.46875 C 3.046875 -26.15625 3.488281 -27.6875 4.375 -29.0625 C 5.269531 -30.445312 6.632812 -31.550781 8.46875 -32.375 C 10.3125 -33.195312 12.597656 -33.609375 15.328125 -33.609375 C 17.234375 -33.609375 19.097656 -33.347656 20.921875 -32.828125 C 22.742188 -32.304688 24.320312 -31.582031 25.65625 -30.65625 L 24.46875 -27.84375 C 23.070312 -28.769531 21.578125 -29.460938 19.984375 -29.921875 C 18.398438 -30.378906 16.847656 -30.609375 15.328125 -30.609375 C 12.410156 -30.609375 10.210938 -30.046875 8.734375 -28.921875 C 7.253906 -27.796875 6.515625 -26.34375 6.515625 -24.5625 C 6.515625 -23.226562 6.921875 -22.15625 7.734375 -21.34375 C 8.546875 -20.539062 9.5625 -19.925781 10.78125 -19.5 C 12 -19.070312 13.644531 -18.601562 15.71875 -18.09375 C 18.15625 -17.488281 20.128906 -16.890625 21.640625 -16.296875 C 23.148438 -15.710938 24.425781 -14.828125 25.46875 -13.640625 C 26.519531 -12.453125 27.046875 -10.84375 27.046875 -8.8125 C 27.046875 -7.125 26.59375 -5.585938 25.6875 -4.203125 C 24.78125 -2.828125 23.390625 -1.734375 21.515625 -0.921875 C 19.640625 -0.117188 17.335938 0.28125 14.609375 0.28125 Z M 14.609375 0.28125 "/></g></g></g><g fill="#000000" fill-opacity="1"><g transform="translate(251.263785, 203.30339)"><g><path d="M 14.609375 0.28125 C 12.140625 0.28125 9.769531 -0.113281 7.5 -0.90625 C 5.226562 -1.695312 3.472656 -2.742188 2.234375 -4.046875 L 3.625 -6.765625 C 4.820312 -5.554688 6.421875 -4.578125 8.421875 -3.828125 C 10.421875 -3.085938 12.484375 -2.71875 14.609375 -2.71875 C 17.597656 -2.71875 19.835938 -3.265625 21.328125 -4.359375 C 22.816406 -5.453125 23.5625 -6.875 23.5625 -8.625 C 23.5625 -9.945312 23.15625 -11.003906 22.34375 -11.796875 C 21.539062 -12.597656 20.550781 -13.210938 19.375 -13.640625 C 18.195312 -14.066406 16.5625 -14.535156 14.46875 -15.046875 C 11.96875 -15.679688 9.96875 -16.289062 8.46875 -16.875 C 6.976562 -17.46875 5.703125 -18.363281 4.640625 -19.5625 C 3.578125 -20.769531 3.046875 -22.40625 3.046875 -24.46875 C 3.046875 -26.15625 3.488281 -27.6875 4.375 -29.0625 C 5.269531 -30.445312 6.632812 -31.550781 8.46875 -32.375 C 10.3125 -33.195312 12.597656 -33.609375 15.328125 -33.609375 C 17.234375 -33.609375 19.097656 -33.347656 20.921875 -32.828125 C 22.742188 -32.304688 24.320312 -31.582031 25.65625 -30.65625 L 24.46875 -27.84375 C 23.070312 -28.769531 21.578125 -29.460938 19.984375 -29.921875 C 18.398438 -30.378906 16.847656 -30.609375 15.328125 -30.609375 C 12.410156 -30.609375 10.210938 -30.046875 8.734375 -28.921875 C 7.253906 -27.796875 6.515625 -26.34375 6.515625 -24.5625 C 6.515625 -23.226562 6.921875 -22.15625 7.734375 -21.34375 C 8.546875 -20.539062 9.5625 -19.925781 10.78125 -19.5 C 12 -19.070312 13.644531 -18.601562 15.71875 -18.09375 C 18.15625 -17.488281 20.128906 -16.890625 21.640625 -16.296875 C 23.148438 -15.710938 24.425781 -14.828125 25.46875 -13.640625 C 26.519531 -12.453125 27.046875 -10.84375 27.046875 -8.8125 C 27.046875 -7.125 26.59375 -5.585938 25.6875 -4.203125 C 24.78125 -2.828125 23.390625 -1.734375 21.515625 -0.921875 C 19.640625 -0.117188 17.335938 0.28125 14.609375 0.28125 Z M 14.609375 0.28125 "/></g></g></g><g clip-path="url(#7d1fbba494)"><g clip-path="url(#12def02add)"><path fill="#ff5757" d="M 107.84375 157.710938 L 124.355469 157.710938 L 124.355469 172.007812 L 107.84375 172.007812 Z M 107.84375 157.710938 " fill-opacity="1" fill-rule="nonzero"/></g></g><g clip-path="url(#f8c76e9f3b)"><path fill="#ffffff" d="M 114.125 165.429688 L 118.082031 165.429688 L 118.082031 169.386719 L 114.125 169.386719 Z M 114.125 165.429688 " fill-opacity="1" fill-rule="nonzero"/></g><g clip-path="url(#87350c2486)"><path fill="#000000" d="M 118.445312 167.117188 L 116.480469 167.117188 L 116.480469 165.15625 C 116.480469 164.992188 116.351562 164.859375 116.1875 164.859375 L 115.9375 164.859375 C 115.773438 164.859375 115.644531 164.992188 115.644531 165.15625 L 115.644531 167.117188 L 113.675781 167.117188 C 113.511719 167.117188 113.382812 167.25 113.382812 167.410156 L 113.382812 167.664062 C 113.382812 167.828125 113.511719 167.957031 113.675781 167.957031 L 115.644531 167.957031 L 115.644531 169.925781 C 115.644531 170.089844 115.773438 170.214844 115.9375 170.214844 L 116.1875 170.214844 C 116.351562 170.214844 116.480469 170.085938 116.480469 169.925781 L 116.480469 167.957031 L 118.445312 167.957031 C 118.609375 167.957031 118.738281 167.828125 118.738281 167.664062 L 118.738281 167.410156 C 118.738281 167.25 118.609375 167.117188 118.445312 167.117188 Z M 118.445312 167.117188 " fill-opacity="1" fill-rule="nonzero"/><path fill="#ff5757" d="M 118.445312 167.117188 L 116.480469 167.117188 L 116.480469 165.15625 C 116.480469 164.992188 116.351562 164.859375 116.1875 164.859375 L 115.9375 164.859375 C 115.773438 164.859375 115.644531 164.992188 115.644531 165.15625 L 115.644531 167.117188 L 113.675781 167.117188 C 113.511719 167.117188 113.382812 167.25 113.382812 167.410156 L 113.382812 167.664062 C 113.382812 167.828125 113.511719 167.957031 113.675781 167.957031 L 115.644531 167.957031 L 115.644531 169.925781 C 115.644531 170.089844 115.773438 170.214844 115.9375 170.214844 L 116.1875 170.214844 C 116.351562 170.214844 116.480469 170.085938 116.480469 169.925781 L 116.480469 167.957031 L 118.445312 167.957031 C 118.609375 167.957031 118.738281 167.828125 118.738281 167.664062 L 118.738281 167.410156 C 118.738281 167.25 118.609375 167.117188 118.445312 167.117188 Z M 118.445312 167.117188 " fill-opacity="1" fill-rule="nonzero"/></g><g fill="#ff5757" fill-opacity="1"><g transform="translate(108.906455, 203.836493)"><g><path d="M 5.421875 -33.328125 L 8.953125 -33.328125 L 8.953125 0 L 5.421875 0 Z M 5.421875 -33.328125 "/></g></g></g><g clip-path="url(#28e04addc9)"><path fill="#000000" d="M 319.558594 198.230469 C 321 198.230469 322.328125 197.957031 323.570312 197.40625 C 324.785156 196.859375 325.847656 196.125 326.703125 195.164062 C 327.558594 194.203125 328.234375 193.105469 328.730469 191.84375 C 329.226562 190.585938 329.453125 189.234375 329.453125 187.792969 L 329.453125 187.703125 C 329.453125 186.261719 329.207031 184.910156 328.730469 183.628906 C 328.234375 182.34375 327.558594 181.222656 326.65625 180.285156 C 325.757812 179.324219 324.695312 178.570312 323.480469 178.019531 C 322.261719 177.46875 320.910156 177.171875 319.46875 177.171875 C 317.980469 177.171875 316.648438 177.445312 315.433594 177.996094 C 314.214844 178.546875 313.175781 179.277344 312.320312 180.238281 C 311.464844 181.199219 310.789062 182.300781 310.292969 183.558594 C 309.796875 184.816406 309.570312 186.167969 309.570312 187.609375 L 309.570312 187.703125 C 309.570312 189.144531 309.820312 190.496094 310.292969 191.777344 C 310.789062 193.058594 311.464844 194.179688 312.367188 195.117188 C 313.269531 196.082031 314.304688 196.835938 315.523438 197.386719 C 316.738281 197.957031 318.089844 198.230469 319.558594 198.230469 Z M 300.554688 203.128906 L 306.121094 203.128906 C 306.574219 203.128906 306.933594 203.496094 306.933594 203.953125 C 306.933594 204.414062 306.574219 204.777344 306.121094 204.777344 L 300.554688 204.777344 C 300.101562 204.777344 299.742188 204.414062 299.742188 203.953125 C 299.742188 203.496094 300.101562 203.128906 300.554688 203.128906 Z M 298.683594 196.628906 L 301.859375 196.628906 C 302.3125 196.628906 302.671875 196.996094 302.671875 197.453125 C 302.671875 197.910156 302.3125 198.277344 301.859375 198.277344 L 298.683594 198.277344 C 298.230469 198.277344 297.871094 197.910156 297.871094 197.453125 C 297.871094 196.996094 298.230469 196.628906 298.683594 196.628906 Z M 297.78125 183.605469 L 299.71875 183.605469 C 300.171875 183.605469 300.53125 183.972656 300.53125 184.429688 C 300.53125 184.886719 300.171875 185.253906 299.71875 185.253906 L 297.78125 185.253906 C 297.332031 185.253906 296.96875 184.886719 296.96875 184.429688 C 296.992188 183.972656 297.351562 183.605469 297.78125 183.605469 Z M 295.03125 186.855469 L 298.75 186.855469 C 299.203125 186.855469 299.5625 187.222656 299.5625 187.679688 C 299.5625 188.136719 299.203125 188.503906 298.75 188.503906 L 295.03125 188.503906 C 294.578125 188.503906 294.21875 188.136719 294.21875 187.679688 C 294.21875 187.222656 294.578125 186.855469 295.03125 186.855469 Z M 308.667969 201.503906 L 306.867188 201.503906 C 306.414062 201.503906 306.054688 201.140625 306.054688 200.679688 C 306.054688 200.246094 306.390625 199.902344 306.796875 199.878906 L 307.519531 199.878906 C 307.96875 199.878906 308.332031 199.515625 308.332031 199.054688 C 308.332031 198.597656 307.96875 198.230469 307.519531 198.230469 L 304.160156 198.230469 C 303.710938 198.230469 303.347656 197.867188 303.347656 197.40625 C 303.347656 196.949219 303.710938 196.582031 304.160156 196.582031 L 306.324219 196.582031 C 306.777344 196.582031 307.136719 196.21875 307.136719 195.757812 C 307.136719 195.300781 306.777344 194.9375 306.324219 194.9375 L 302.988281 194.9375 C 302.539062 194.9375 302.175781 194.570312 302.175781 194.113281 C 302.175781 193.699219 302.46875 193.378906 302.851562 193.308594 L 309.234375 193.308594 C 309.683594 193.308594 310.042969 192.945312 310.042969 192.484375 C 310.042969 192.027344 309.683594 191.664062 309.234375 191.664062 L 301.140625 191.664062 C 300.6875 191.664062 300.328125 191.296875 300.328125 190.839844 C 300.328125 190.378906 300.6875 190.015625 301.140625 190.015625 L 303.867188 190.015625 C 304.316406 190.015625 304.679688 189.648438 304.679688 189.191406 C 304.679688 188.730469 304.316406 188.367188 303.867188 188.367188 L 300.980469 188.367188 C 300.53125 188.367188 300.171875 188 300.171875 187.542969 C 300.171875 187.085938 300.53125 186.71875 300.980469 186.71875 L 303.933594 186.71875 C 304.386719 186.71875 304.746094 186.351562 304.746094 185.894531 C 304.746094 185.4375 304.386719 185.070312 303.933594 185.070312 L 302.132812 185.070312 L 302.152344 184.976562 C 301.882812 184.839844 301.703125 184.566406 301.703125 184.246094 C 301.703125 183.8125 302.042969 183.46875 302.449219 183.445312 L 307.179688 183.445312 C 307.632812 183.445312 307.992188 183.078125 307.992188 182.621094 C 307.992188 182.164062 307.632812 181.796875 307.179688 181.796875 L 304.65625 181.796875 C 304.207031 181.796875 303.84375 181.429688 303.84375 180.972656 C 303.84375 180.515625 304.207031 180.148438 304.65625 180.148438 L 306.097656 180.148438 C 306.550781 180.148438 306.910156 179.78125 306.910156 179.324219 C 306.910156 178.910156 306.617188 178.589844 306.234375 178.523438 L 302.222656 178.523438 C 301.769531 178.523438 301.410156 178.15625 301.410156 177.699219 C 301.410156 177.242188 301.769531 176.875 302.222656 176.875 L 309.007812 176.875 C 309.074219 176.875 309.140625 176.875 309.210938 176.898438 L 309.433594 176.898438 C 309.886719 176.898438 310.246094 176.53125 310.246094 176.074219 C 310.246094 175.660156 309.953125 175.339844 309.570312 175.273438 L 306.640625 175.273438 C 306.1875 175.273438 305.828125 174.90625 305.828125 174.449219 C 305.828125 173.992188 306.1875 173.625 306.640625 173.625 L 308.757812 173.625 C 308.78125 173.625 308.78125 173.625 308.804688 173.625 L 311.9375 173.625 C 312.386719 173.625 312.75 173.257812 312.75 172.800781 C 312.75 172.386719 312.457031 172.066406 312.074219 172 L 309.03125 172 C 308.578125 172 308.21875 171.632812 308.21875 171.175781 C 308.21875 170.71875 308.578125 170.351562 309.03125 170.351562 C 312.589844 170.648438 316.128906 170.375 319.558594 170.375 C 322.105469 170.375 324.449219 170.832031 326.589844 171.746094 C 328.730469 172.664062 330.582031 173.875 332.136719 175.433594 C 333.691406 176.988281 334.910156 178.796875 335.765625 180.878906 C 336.621094 182.964844 337.074219 185.207031 337.074219 187.609375 L 337.074219 187.703125 C 337.074219 190.105469 336.621094 192.347656 335.742188 194.433594 C 334.863281 196.515625 333.644531 198.347656 332.089844 199.949219 C 330.535156 201.527344 328.6875 202.765625 326.523438 203.679688 C 324.359375 204.59375 322.015625 205.054688 319.46875 205.054688 C 316.019531 205.054688 312.457031 204.777344 308.894531 204.777344 C 308.445312 204.777344 308.082031 204.414062 308.082031 203.953125 C 308.082031 203.496094 308.445312 203.128906 308.894531 203.128906 L 311.351562 203.128906 C 311.800781 203.128906 312.164062 202.765625 312.164062 202.304688 C 312.164062 201.847656 311.800781 201.480469 311.351562 201.480469 L 308.667969 201.480469 Z M 305.851562 170.648438 L 307.046875 170.648438 C 307.496094 170.648438 307.859375 171.015625 307.859375 171.472656 C 307.859375 171.929688 307.496094 172.296875 307.046875 172.296875 L 305.851562 172.296875 C 305.398438 172.296875 305.039062 171.929688 305.039062 171.472656 C 305.0625 171.015625 305.421875 170.648438 305.851562 170.648438 Z M 299.222656 193.378906 L 300.261719 193.378906 C 300.710938 193.378906 301.070312 193.746094 301.070312 194.203125 C 301.070312 194.660156 300.710938 195.027344 300.261719 195.027344 L 299.222656 195.027344 C 298.773438 195.027344 298.414062 194.660156 298.414062 194.203125 C 298.414062 193.746094 298.773438 193.378906 299.222656 193.378906 Z M 299.222656 193.378906 " fill-opacity="1" fill-rule="evenodd"/></g><g clip-path="url(#a6f45fc148)"><g clip-path="url(#6dd3b756d4)"><path fill="#ff5757" d="M 296.058594 217.289062 L 279.546875 217.289062 L 279.546875 202.992188 L 296.058594 202.992188 Z M 296.058594 217.289062 " fill-opacity="1" fill-rule="nonzero"/></g></g><g clip-path="url(#7bf097ba6a)"><path fill="#ffffff" d="M 289.785156 209.570312 L 285.824219 209.570312 L 285.824219 205.609375 L 289.785156 205.609375 Z M 289.785156 209.570312 " fill-opacity="1" fill-rule="nonzero"/></g><g clip-path="url(#2640e56886)"><path fill="#000000" d="M 285.457031 207.875 L 287.421875 207.875 L 287.421875 209.835938 C 287.421875 210 287.554688 210.132812 287.714844 210.132812 L 287.96875 210.132812 C 288.128906 210.132812 288.261719 210 288.261719 209.835938 L 288.261719 207.875 L 290.226562 207.875 C 290.390625 207.875 290.519531 207.742188 290.519531 207.582031 L 290.519531 207.328125 C 290.519531 207.167969 290.390625 207.035156 290.226562 207.035156 L 288.261719 207.035156 L 288.261719 205.066406 C 288.261719 204.902344 288.128906 204.777344 287.96875 204.777344 L 287.714844 204.777344 C 287.554688 204.777344 287.421875 204.90625 287.421875 205.066406 L 287.421875 207.035156 L 285.457031 207.035156 C 285.292969 207.035156 285.164062 207.167969 285.164062 207.328125 L 285.164062 207.582031 C 285.164062 207.742188 285.292969 207.875 285.457031 207.875 Z M 285.457031 207.875 " fill-opacity="1" fill-rule="nonzero"/><path fill="#ff5757" d="M 285.457031 207.875 L 287.421875 207.875 L 287.421875 209.835938 C 287.421875 210 287.554688 210.132812 287.714844 210.132812 L 287.96875 210.132812 C 288.128906 210.132812 288.261719 210 288.261719 209.835938 L 288.261719 207.875 L 290.226562 207.875 C 290.390625 207.875 290.519531 207.742188 290.519531 207.582031 L 290.519531 207.328125 C 290.519531 207.167969 290.390625 207.035156 290.226562 207.035156 L 288.261719 207.035156 L 288.261719 205.066406 C 288.261719 204.902344 288.128906 204.777344 287.96875 204.777344 L 287.714844 204.777344 C 287.554688 204.777344 287.421875 204.90625 287.421875 205.066406 L 287.421875 207.035156 L 285.457031 207.035156 C 285.292969 207.035156 285.164062 207.167969 285.164062 207.328125 L 285.164062 207.582031 C 285.164062 207.742188 285.292969 207.875 285.457031 207.875 Z M 285.457031 207.875 " fill-opacity="1" fill-rule="nonzero"/></g><g fill="#ff5757" fill-opacity="1"><g transform="translate(294.991634, 171.158824)"><g><path d="M -5.421875 33.328125 L -8.953125 33.328125 L -8.953125 0 L -5.421875 0 Z M -5.421875 33.328125 "/></g></g></g></svg>