<svg xmlns="http://www.w3.org/2000/svg" xmlns:xlink="http://www.w3.org/1999/xlink" width="500" zoomAndPan="magnify" viewBox="0 0 375 374.999991" height="500" preserveAspectRatio="xMidYMid meet" version="1.0"><defs><g/><clipPath id="22962e15cd"><path d="M 86.136719 255.910156 L 135.238281 255.910156 L 135.238281 312.609375 L 86.136719 312.609375 Z M 86.136719 255.910156 " clip-rule="nonzero"/></clipPath><clipPath id="275a0299a0"><path d="M 135.238281 312.609375 L 86.136719 284.261719 L 135.238281 255.910156 Z M 135.238281 312.609375 " clip-rule="nonzero"/></clipPath><clipPath id="9f6c5412c7"><path d="M 112.640625 277.480469 L 126.203125 277.480469 L 126.203125 291.046875 L 112.640625 291.046875 Z M 112.640625 277.480469 " clip-rule="nonzero"/></clipPath><clipPath id="cb1505cd3b"><path d="M 110.683594 274.84375 L 129.433594 274.84375 L 129.433594 293.59375 L 110.683594 293.59375 Z M 110.683594 274.84375 " clip-rule="nonzero"/></clipPath><clipPath id="af9e04a4a3"><path d="M 262.195312 62.460938 L 311.292969 62.460938 L 311.292969 119.160156 L 262.195312 119.160156 Z M 262.195312 62.460938 " clip-rule="nonzero"/></clipPath><clipPath id="61044faeb2"><path d="M 262.195312 62.460938 L 311.292969 90.808594 L 262.195312 119.160156 Z M 262.195312 62.460938 " clip-rule="nonzero"/></clipPath></defs><g fill="#3f475a" fill-opacity="1"><g transform="translate(137.659537, 271.272428)"><g><path d="M 67.125 -170.25 L 3.25 -170.25 L 3.25 0 L 66.660156 0 C 113.578125 0 152.132812 -38.207031 152.132812 -85.472656 C 152.132812 -132.042969 113.808594 -170.25 67.125 -170.25 Z M 67.125 -20.207031 L 24.15625 -20.207031 L 24.15625 -150.042969 L 66.660156 -150.042969 C 102.546875 -150.042969 131.695312 -120.894531 131.695312 -85.472656 C 131.695312 -49.589844 102.777344 -20.207031 67.125 -20.207031 Z M 66.660156 -147.371094 L 26.363281 -147.371094 L 26.363281 -22.878906 L 66.660156 -22.878906 C 101.035156 -22.878906 129.023438 -50.867188 129.023438 -85.472656 C 129.023438 -119.5 101.035156 -147.371094 66.660156 -147.371094 Z M 67.125 -42.96875 L 46.683594 -42.96875 L 46.683594 -127.28125 L 67.125 -127.28125 C 90.117188 -127.28125 108.585938 -107.886719 108.585938 -85.472656 C 108.585938 -62.015625 90.117188 -42.96875 67.125 -42.96875 Z M 67.125 -42.96875 "/></g></g></g><g fill="#3f475a" fill-opacity="1"><g transform="translate(106.625216, 236.11431)"><g><path d="M -35.8125 -18.652344 C -35.8125 -8.699219 -27.691406 -0.578125 -17.640625 -0.578125 C -7.6875 -0.578125 0.433594 -8.699219 0.433594 -18.652344 C 0.433594 -28.75 -7.6875 -36.824219 -17.640625 -36.824219 C -27.691406 -36.824219 -35.8125 -28.75 -35.8125 -18.652344 Z M -3.929688 -18.652344 C -3.929688 -11.085938 -10.074219 -4.988281 -17.640625 -4.988281 C -25.304688 -4.988281 -31.449219 -11.085938 -31.449219 -18.652344 C -31.449219 -26.367188 -25.304688 -32.460938 -17.640625 -32.460938 C -10.074219 -32.460938 -3.929688 -26.367188 -3.929688 -18.652344 Z M -30.945312 -18.652344 C -30.945312 -11.398438 -25.039062 -5.496094 -17.640625 -5.496094 C -10.386719 -5.496094 -4.507812 -11.398438 -4.507812 -18.652344 C -4.507812 -26.050781 -10.386719 -31.957031 -17.640625 -31.957031 C -25.039062 -31.957031 -30.945312 -26.050781 -30.945312 -18.652344 Z M -8.867188 -18.652344 C -8.867188 -13.859375 -12.84375 -9.882812 -17.640625 -9.882812 C -22.535156 -9.882812 -26.511719 -13.859375 -26.511719 -18.652344 C -26.511719 -23.667969 -22.535156 -27.570312 -17.640625 -27.570312 C -12.84375 -27.570312 -8.867188 -23.667969 -8.867188 -18.652344 Z M -8.867188 -18.652344 "/></g></g></g><g fill="#3f475a" fill-opacity="1"><g transform="translate(141.500209, 222.979974)"><g><path d="M 0 -1.203125 L 0 -5.617188 L -35.378906 -5.617188 L -35.378906 -1.203125 Z M 0 -6.121094 L 0 -10.484375 L -35.378906 -10.484375 L -35.378906 -6.121094 Z M 0 -6.121094 "/></g></g></g><g fill="#3f475a" fill-opacity="1"><g transform="translate(106.625216, 181.115189)"><g><path d="M -35.8125 -18.652344 C -35.8125 -8.699219 -27.691406 -0.578125 -17.640625 -0.578125 C -7.6875 -0.578125 0.433594 -8.699219 0.433594 -18.652344 C 0.433594 -28.75 -7.6875 -36.824219 -17.640625 -36.824219 C -27.691406 -36.824219 -35.8125 -28.75 -35.8125 -18.652344 Z M -3.929688 -18.652344 C -3.929688 -11.085938 -10.074219 -4.988281 -17.640625 -4.988281 C -25.304688 -4.988281 -31.449219 -11.085938 -31.449219 -18.652344 C -31.449219 -26.367188 -25.304688 -32.460938 -17.640625 -32.460938 C -10.074219 -32.460938 -3.929688 -26.367188 -3.929688 -18.652344 Z M -30.945312 -18.652344 C -30.945312 -11.398438 -25.039062 -5.496094 -17.640625 -5.496094 C -10.386719 -5.496094 -4.507812 -11.398438 -4.507812 -18.652344 C -4.507812 -26.050781 -10.386719 -31.957031 -17.640625 -31.957031 C -25.039062 -31.957031 -30.945312 -26.050781 -30.945312 -18.652344 Z M -8.867188 -18.652344 C -8.867188 -13.859375 -12.84375 -9.882812 -17.640625 -9.882812 C -22.535156 -9.882812 -26.511719 -13.859375 -26.511719 -18.652344 C -26.511719 -23.667969 -22.535156 -27.570312 -17.640625 -27.570312 C -12.84375 -27.570312 -8.867188 -23.667969 -8.867188 -18.652344 Z M -8.867188 -18.652344 "/></g></g></g><g fill="#3f475a" fill-opacity="1"><g transform="translate(141.500209, 167.980853)"><g><path d="M 0 -1.203125 L 0 -5.617188 L -35.378906 -5.617188 L -35.378906 -1.203125 Z M 0 -6.121094 L 0 -10.484375 L -35.378906 -10.484375 L -35.378906 -6.121094 Z M 0 -6.121094 "/></g></g></g><g fill="#3f475a" fill-opacity="1"><g transform="translate(77.031146, 209.373927)"><g><path d="M -35.8125 -18.652344 C -35.8125 -8.699219 -27.691406 -0.578125 -17.640625 -0.578125 C -7.6875 -0.578125 0.433594 -8.699219 0.433594 -18.652344 C 0.433594 -28.75 -7.6875 -36.824219 -17.640625 -36.824219 C -27.691406 -36.824219 -35.8125 -28.75 -35.8125 -18.652344 Z M -3.929688 -18.652344 C -3.929688 -11.085938 -10.074219 -4.988281 -17.640625 -4.988281 C -25.304688 -4.988281 -31.449219 -11.085938 -31.449219 -18.652344 C -31.449219 -26.367188 -25.304688 -32.460938 -17.640625 -32.460938 C -10.074219 -32.460938 -3.929688 -26.367188 -3.929688 -18.652344 Z M -30.945312 -18.652344 C -30.945312 -11.398438 -25.039062 -5.496094 -17.640625 -5.496094 C -10.386719 -5.496094 -4.507812 -11.398438 -4.507812 -18.652344 C -4.507812 -26.050781 -10.386719 -31.957031 -17.640625 -31.957031 C -25.039062 -31.957031 -30.945312 -26.050781 -30.945312 -18.652344 Z M -8.867188 -18.652344 C -8.867188 -13.859375 -12.84375 -9.882812 -17.640625 -9.882812 C -22.535156 -9.882812 -26.511719 -13.859375 -26.511719 -18.652344 C -26.511719 -23.667969 -22.535156 -27.570312 -17.640625 -27.570312 C -12.84375 -27.570312 -8.867188 -23.667969 -8.867188 -18.652344 Z M -8.867188 -18.652344 "/></g></g></g><g fill="#3f475a" fill-opacity="1"><g transform="translate(111.903837, 196.242183)"><g><path d="M 0 -1.203125 L 0 -5.617188 L -35.378906 -5.617188 L -35.378906 -1.203125 Z M 0 -6.121094 L 0 -10.484375 L -35.378906 -10.484375 L -35.378906 -6.121094 Z M 0 -6.121094 "/></g></g></g><g fill="#3f475a" fill-opacity="1"><g transform="translate(141.949388, 196.239591)"><g><path d="M 0 -1.203125 L 0 -5.617188 L -35.378906 -5.617188 L -35.378906 -1.203125 Z M 0 -6.121094 L 0 -10.484375 L -35.378906 -10.484375 L -35.378906 -6.121094 Z M 0 -6.121094 "/></g></g></g><g fill="#3f475a" fill-opacity="1"><g transform="translate(244.534688, 308.965138)"><g><path d="M -114.453125 -18.640625 L -114.453125 -30.734375 L 0 -30.734375 L 0 -18.640625 Z M -114.453125 -18.640625 "/></g></g></g><g clip-path="url(#22962e15cd)"><g clip-path="url(#275a0299a0)"><path fill="#3f475a" d="M 86.136719 312.609375 L 86.136719 255.910156 L 135.238281 255.910156 L 135.238281 312.609375 Z M 86.136719 312.609375 " fill-opacity="1" fill-rule="nonzero"/></g></g><g clip-path="url(#9f6c5412c7)"><path fill="#3f475a" d="M 112.640625 291.046875 L 112.640625 277.457031 L 126.230469 277.457031 L 126.230469 291.046875 Z M 112.640625 291.046875 " fill-opacity="1" fill-rule="nonzero"/></g><g clip-path="url(#cb1505cd3b)"><path fill="#000000" d="M 118.59375 275.871094 L 118.59375 282.753906 L 111.722656 282.753906 C 111.152344 282.753906 110.683594 283.210938 110.683594 283.78125 L 110.683594 284.660156 C 110.683594 285.230469 111.152344 285.683594 111.722656 285.683594 L 118.59375 285.683594 L 118.59375 292.570312 C 118.59375 293.140625 119.046875 293.59375 119.617188 293.59375 L 120.496094 293.59375 C 121.066406 293.59375 121.523438 293.140625 121.523438 292.570312 L 121.523438 285.683594 L 128.421875 285.683594 C 128.992188 285.683594 129.433594 285.230469 129.433594 284.660156 L 129.433594 283.78125 C 129.433594 283.210938 128.976562 282.753906 128.421875 282.753906 L 121.523438 282.753906 L 121.523438 275.871094 C 121.523438 275.300781 121.066406 274.84375 120.496094 274.84375 L 119.617188 274.84375 C 119.046875 274.84375 118.59375 275.300781 118.59375 275.871094 Z M 118.59375 275.871094 " fill-opacity="1" fill-rule="nonzero"/><path fill="#ff5757" d="M 118.59375 275.871094 L 118.59375 282.753906 L 111.722656 282.753906 C 111.152344 282.753906 110.683594 283.210938 110.683594 283.78125 L 110.683594 284.660156 C 110.683594 285.230469 111.152344 285.683594 111.722656 285.683594 L 118.59375 285.683594 L 118.59375 292.570312 C 118.59375 293.140625 119.046875 293.59375 119.617188 293.59375 L 120.496094 293.59375 C 121.066406 293.59375 121.523438 293.140625 121.523438 292.570312 L 121.523438 285.683594 L 128.421875 285.683594 C 128.992188 285.683594 129.433594 285.230469 129.433594 284.660156 L 129.433594 283.78125 C 129.433594 283.210938 128.976562 282.753906 128.421875 282.753906 L 121.523438 282.753906 L 121.523438 275.871094 C 121.523438 275.300781 121.066406 274.84375 120.496094 274.84375 L 119.617188 274.84375 C 119.046875 274.84375 118.59375 275.300781 118.59375 275.871094 Z M 118.59375 275.871094 " fill-opacity="1" fill-rule="nonzero"/></g><g clip-path="url(#af9e04a4a3)"><g clip-path="url(#61044faeb2)"><path fill="#3f475a" d="M 311.292969 62.460938 L 311.292969 119.160156 L 262.195312 119.160156 L 262.195312 62.460938 Z M 311.292969 62.460938 " fill-opacity="1" fill-rule="nonzero"/></g></g><g fill="#3f475a" fill-opacity="1"><g transform="translate(152.502462, 66.02408)"><g><path d="M 114.453125 18.640625 L 114.453125 30.734375 L 0 30.734375 L 0 18.640625 Z M 114.453125 18.640625 "/></g></g></g><g fill="#ff5757" fill-opacity="1"><g transform="translate(270.343984, 104.722857)"><g><path d="M 3.3125 -16.671875 L 17.78125 -16.671875 L 17.78125 -13.25 L 3.3125 -13.25 Z M 3.3125 -16.671875 "/></g></g></g></svg>