<svg xmlns="http://www.w3.org/2000/svg" xmlns:xlink="http://www.w3.org/1999/xlink" width="1080" zoomAndPan="magnify" viewBox="0 0 810 809.999993" height="1080" preserveAspectRatio="xMidYMid meet" version="1.0"><defs><clipPath id="984c8de4b8"><path d="M 0 15 L 184 15 L 184 288 L 0 288 Z M 0 15 " clip-rule="nonzero"/></clipPath><clipPath id="0dad41a8a4"><path d="M -110.421875 37.585938 L 131.785156 -61.652344 L 249.507812 225.664062 L 7.300781 324.90625 Z M -110.421875 37.585938 " clip-rule="nonzero"/></clipPath><clipPath id="1fc2630f55"><path d="M -110.421875 37.585938 L 131.785156 -61.652344 L 249.507812 225.664062 L 7.300781 324.90625 Z M -110.421875 37.585938 " clip-rule="nonzero"/></clipPath><clipPath id="d976797a75"><path d="M 339 158 L 666 158 L 666 411 L 339 411 Z M 339 158 " clip-rule="nonzero"/></clipPath><clipPath id="8c1f0f82a3"><path d="M 646.976562 141.085938 L 666.097656 409.65625 L 348.152344 432.292969 L 329.03125 163.722656 Z M 646.976562 141.085938 " clip-rule="nonzero"/></clipPath><clipPath id="7179882a77"><path d="M 666.082031 409.46875 L 646.960938 140.898438 L 329.015625 163.535156 L 348.136719 432.105469 Z M 666.082031 409.46875 " clip-rule="nonzero"/></clipPath><clipPath id="6a08835309"><path d="M 75 226 L 402 226 L 402 479 L 75 479 Z M 75 226 " clip-rule="nonzero"/></clipPath><clipPath id="9016dbc82c"><path d="M 393.40625 205.503906 L 411.679688 474.132812 L 93.664062 495.765625 L 75.394531 227.136719 Z M 393.40625 205.503906 " clip-rule="nonzero"/></clipPath><clipPath id="84f5efc80e"><path d="M 75.207031 227.148438 L 93.480469 495.777344 L 411.492188 474.144531 L 393.222656 205.515625 Z M 75.207031 227.148438 " clip-rule="nonzero"/></clipPath><clipPath id="2219bbc247"><path d="M 527 348 L 799 348 L 799 666 L 527 666 Z M 527 348 " clip-rule="nonzero"/></clipPath><clipPath id="578c436857"><path d="M 799.089844 661.472656 L 528.890625 678.742188 L 508.414062 358.398438 L 778.613281 341.125 Z M 799.089844 661.472656 " clip-rule="nonzero"/></clipPath><clipPath id="6227a4c944"><path d="M 799.089844 661.472656 L 528.890625 678.742188 L 508.414062 358.398438 L 778.613281 341.125 Z M 799.089844 661.472656 " clip-rule="nonzero"/></clipPath><clipPath id="08cfe0db34"><path d="M 531 657 L 799 657 L 799 810 L 531 810 Z M 531 657 " clip-rule="nonzero"/></clipPath><clipPath id="ec3b74995d"><path d="M 528.039062 650.960938 L 799.398438 659.660156 L 789.085938 981.246094 L 517.726562 972.542969 Z M 528.039062 650.960938 " clip-rule="nonzero"/></clipPath><clipPath id="d8949ec6b0"><path d="M 799.09375 659.652344 L 527.734375 650.949219 L 517.421875 972.535156 L 788.785156 981.234375 Z M 799.09375 659.652344 " clip-rule="nonzero"/></clipPath></defs><g clip-path="url(#984c8de4b8)"><g clip-path="url(#0dad41a8a4)"><g clip-path="url(#1fc2630f55)"><path fill="#dadddd" d="M 111.90625 282.246094 C 86.824219 292.523438 57.15625 287.910156 36.527344 270.101562 C 14.515625 251.140625 5.75 219.882812 14.820312 192.226562 C 21.675781 171.238281 38.292969 153.117188 62.84375 139.824219 C 70.621094 135.628906 78.332031 132.265625 85.789062 129.011719 C 93.671875 125.578125 101.128906 122.320312 107.535156 118.484375 C 117.222656 112.796875 123.746094 105.78125 124.945312 99.835938 C 126.179688 93.976562 121.253906 85.894531 114.875 83.152344 C 107.195312 79.9375 96 82.199219 88.9375 88.628906 C 86.148438 91.1875 83.019531 94.890625 79.839844 98.71875 C 75.785156 103.613281 71.265625 109.101562 65.597656 114.25 C 42.914062 135.0625 10.230469 143.300781 -19.636719 135.742188 C -42.71875 129.945312 -63.703125 115.210938 -80.339844 93.339844 C -93.839844 75.4375 -102.402344 56.015625 -110.035156 37.628906 L -55.964844 15.273438 C -49.78125 30.113281 -43.023438 45.625 -33.753906 57.890625 C -25.367188 68.996094 -15.238281 76.464844 -5.320312 78.96875 C 5.289062 81.691406 17.898438 78.441406 25.992188 71.085938 C 28.699219 68.5625 31.6875 65.015625 34.816406 61.308594 C 39.097656 56.222656 43.890625 50.417969 50.039062 44.96875 C 74.160156 23.472656 109.464844 17.1875 137.980469 29.34375 C 170.066406 43.0625 189.210938 78.453125 182.285156 111.59375 C 177.617188 134.214844 161.675781 154.480469 137.289062 168.917969 C 127.859375 174.5 118.417969 178.570312 109.269531 182.621094 C 102.59375 185.558594 96.351562 188.316406 90.628906 191.367188 C 79.625 197.292969 72.496094 204.050781 70.378906 210.472656 C 68.703125 215.503906 70.652344 222.484375 74.671875 225.886719 C 78.730469 229.375 85.835938 230.203125 90.535156 227.871094 L 116.714844 280.175781 C 115.105469 280.933594 113.464844 281.609375 111.90625 282.246094 Z M 111.90625 282.246094 " fill-opacity="1" fill-rule="nonzero"/></g></g></g><g clip-path="url(#d976797a75)"><g clip-path="url(#8c1f0f82a3)"><g clip-path="url(#7179882a77)"><path fill="#dadddd" d="M 339.714844 316.445312 C 341.691406 344.199219 359.453125 369.390625 385.234375 380.25 C 412.707031 391.859375 445.453125 385.679688 466.761719 364.730469 C 482.945312 348.863281 492.042969 325.320312 493.082031 296.675781 C 493.398438 287.613281 492.976562 278.984375 492.574219 270.644531 C 492.140625 261.824219 491.738281 253.484375 492.347656 245.84375 C 493.164062 234.339844 496.644531 225.144531 501.570312 221.332031 C 506.398438 217.523438 516.078125 218.375 521.503906 222.988281 C 527.960938 228.589844 530.980469 239.917969 528.285156 249.34375 C 527.203125 253.078125 525.222656 257.644531 523.148438 262.3125 C 520.496094 268.273438 517.503906 274.929688 515.351562 282.492188 C 506.546875 312.839844 513.859375 346.660156 534.421875 370.6875 C 550.273438 389.277344 573.390625 401.871094 601.085938 407.207031 C 623.707031 411.464844 645.472656 410.492188 665.867188 409.136719 L 661.792969 349.210938 C 645.324219 350.289062 627.972656 351.136719 612.46875 348.203125 C 598.429688 345.546875 586.945312 339.628906 580.125 331.652344 C 572.785156 323.132812 570.027344 310.054688 573.105469 299.253906 C 574.191406 295.617188 576.09375 291.246094 578.078125 286.683594 C 580.808594 280.425781 583.960938 273.375 586.171875 265.230469 C 594.957031 233.246094 584.648438 197.910156 560.472656 177.21875 C 533.230469 153.953125 491.953125 152.46875 464.625 173.941406 C 445.945312 188.546875 434.5625 212.441406 432.394531 241.453125 C 431.558594 252.671875 432.117188 263.214844 432.558594 273.476562 C 432.898438 280.953125 433.207031 287.953125 433.007812 294.605469 C 432.574219 307.429688 429.601562 317.066406 424.660156 321.941406 C 420.796875 325.773438 413.488281 327.160156 408.527344 325.011719 C 403.46875 322.871094 399.46875 316.710938 399.472656 311.324219 L 339.429688 311.078125 C 339.464844 312.90625 339.59375 314.722656 339.714844 316.445312 Z M 339.714844 316.445312 " fill-opacity="1" fill-rule="nonzero"/></g></g></g><g clip-path="url(#6a08835309)"><g clip-path="url(#9016dbc82c)"><g clip-path="url(#84f5efc80e)"><path fill="#dadddd" d="M 401.277344 321.199219 C 399.390625 293.4375 381.707031 268.195312 355.957031 257.25 C 328.523438 245.558594 295.757812 251.632812 274.386719 272.511719 C 258.152344 288.332031 248.980469 311.84375 247.851562 340.484375 C 247.503906 349.546875 247.898438 358.175781 248.273438 366.519531 C 248.683594 375.339844 249.058594 383.679688 248.421875 391.320312 C 247.570312 402.824219 244.058594 412.007812 239.125 415.804688 C 234.285156 419.59375 224.609375 418.714844 219.195312 414.082031 C 212.753906 408.460938 209.773438 397.125 212.496094 387.707031 C 213.589844 383.976562 215.585938 379.417969 217.675781 374.753906 C 220.347656 368.804688 223.355469 362.15625 225.535156 354.601562 C 234.4375 324.277344 227.230469 290.4375 206.742188 266.34375 C 190.953125 247.703125 167.875 235.039062 140.191406 229.613281 C 117.585938 225.285156 95.816406 226.1875 75.421875 227.480469 L 79.304688 287.417969 C 95.777344 286.394531 113.128906 285.597656 128.625 288.582031 C 142.65625 291.285156 154.121094 297.234375 160.917969 305.238281 C 168.230469 313.78125 170.949219 326.867188 167.835938 337.65625 C 166.734375 341.289062 164.820312 345.652344 162.824219 350.210938 C 160.074219 356.457031 156.898438 363.5 154.664062 371.636719 C 145.777344 403.59375 155.972656 438.964844 180.082031 459.730469 C 207.25 483.078125 248.523438 484.695312 275.917969 463.308594 C 294.644531 448.765625 306.101562 424.902344 308.359375 395.898438 C 309.230469 384.683594 308.707031 374.140625 308.296875 363.878906 C 307.980469 356.398438 307.699219 349.398438 307.917969 342.746094 C 308.390625 329.921875 311.390625 320.292969 316.351562 315.4375 C 320.226562 311.613281 327.539062 310.25 332.496094 312.414062 C 337.546875 314.570312 341.523438 320.746094 341.507812 326.132812 L 401.546875 326.566406 C 401.519531 324.742188 401.394531 322.921875 401.277344 321.199219 Z M 401.277344 321.199219 " fill-opacity="1" fill-rule="nonzero"/></g></g></g><g clip-path="url(#2219bbc247)"><g clip-path="url(#578c436857)"><g clip-path="url(#6227a4c944)"><path fill="#dadddd" d="M 662.28125 348.902344 C 690.199219 347.117188 717.695312 361.40625 732.003906 385.625 C 747.285156 411.425781 745.554688 444.882812 727.566406 468.945312 C 713.945312 487.214844 691.722656 499.460938 663.328125 504.371094 C 654.339844 505.910156 645.6875 506.65625 637.324219 507.386719 C 628.476562 508.144531 620.113281 508.871094 612.582031 510.511719 C 601.230469 512.882812 592.542969 517.59375 589.410156 523.015625 C 586.269531 528.339844 588.425781 537.867188 593.757812 542.648438 C 600.210938 548.328125 611.90625 549.800781 620.929688 545.84375 C 624.503906 544.261719 628.785156 541.667969 633.15625 538.972656 C 638.734375 535.519531 644.964844 531.644531 652.203125 528.472656 C 681.25 515.597656 715.933594 518.308594 742.652344 535.546875 C 763.316406 548.824219 778.984375 570.152344 788.050781 597.027344 C 795.351562 618.984375 797.324219 640.800781 798.730469 661.300781 L 738.476562 665.347656 C 737.324219 648.792969 735.824219 631.394531 730.800781 616.34375 C 726.257812 602.714844 718.8125 592.074219 709.941406 586.359375 C 700.460938 580.199219 687.058594 579.21875 676.714844 583.746094 C 673.238281 585.320312 669.144531 587.804688 664.863281 590.398438 C 659 593.964844 652.398438 598.058594 644.585938 601.363281 C 613.910156 614.441406 577.308594 608.949219 553.425781 587.664062 C 526.566406 563.667969 519.503906 522.746094 537.199219 492.613281 C 549.222656 472.03125 571.492188 457.460938 600.101562 451.378906 C 611.167969 449.027344 621.742188 448.160156 632.027344 447.210938 C 639.523438 446.539062 646.539062 445.898438 653.140625 444.796875 C 665.855469 442.632812 675.058594 438.371094 679.242188 432.785156 C 682.542969 428.417969 682.933594 420.949219 680.125 416.296875 C 677.304688 411.546875 670.628906 408.398438 665.261719 409.128906 L 656.898438 349.34375 C 658.71875 349.128906 660.550781 349.011719 662.28125 348.902344 Z M 662.28125 348.902344 " fill-opacity="1" fill-rule="nonzero"/></g></g></g><g clip-path="url(#08cfe0db34)"><g clip-path="url(#ec3b74995d)"><g clip-path="url(#d8949ec6b0)"><path fill="#dadddd" d="M 671.96875 977.195312 C 700 978.09375 727.09375 962.902344 740.660156 938.179688 C 755.144531 911.84375 752.347656 878.371094 733.558594 854.839844 C 719.328125 836.964844 696.671875 825.402344 668.0625 821.386719 C 659.007812 820.128906 650.3125 819.65625 641.910156 819.195312 C 633.023438 818.714844 624.621094 818.253906 617.023438 816.847656 C 605.574219 814.835938 596.71875 810.390625 593.40625 805.0625 C 590.089844 799.828125 591.945312 790.210938 597.136719 785.25 C 603.421875 779.355469 615.089844 777.503906 624.261719 781.183594 C 627.890625 782.65625 632.265625 785.117188 636.730469 787.679688 C 642.429688 790.957031 648.792969 794.644531 656.148438 797.589844 C 685.664062 809.566406 720.328125 805.746094 746.550781 787.621094 C 766.832031 773.660156 781.855469 751.792969 790.082031 724.578125 C 796.695312 702.339844 797.980469 680.417969 798.738281 659.832031 L 738.234375 657.699219 C 737.605469 674.320312 736.65625 691.804688 732.105469 707.042969 C 727.984375 720.84375 720.863281 731.742188 712.15625 737.753906 C 702.851562 744.226562 689.457031 745.636719 678.945312 741.429688 C 675.414062 739.960938 671.234375 737.601562 666.859375 735.140625 C 660.875 731.753906 654.128906 727.859375 646.195312 724.800781 C 615.042969 712.675781 578.542969 719.339844 555.289062 741.429688 C 529.140625 766.328125 523.371094 807.558594 542.0625 837.183594 C 554.765625 857.425781 577.542969 871.316406 606.402344 876.5 C 617.5625 878.5 628.1875 879.035156 638.519531 879.65625 C 646.054688 880.089844 653.105469 880.511719 659.75 881.402344 C 672.5625 883.167969 681.917969 887.144531 686.292969 892.605469 C 689.734375 896.875 690.367188 904.347656 687.699219 909.101562 C 685.027344 913.949219 678.4375 917.316406 673.035156 916.757812 L 666.558594 976.925781 C 668.390625 977.082031 670.226562 977.140625 671.96875 977.195312 Z M 671.96875 977.195312 " fill-opacity="1" fill-rule="nonzero"/></g></g></g><path stroke-linecap="butt" transform="matrix(-0.400646, 0.669234, -0.669234, -0.400646, 169.448287, 347.612287)" fill="none" stroke-linejoin="miter" d="M 25.195006 13.632821 C 11.751917 13.631619 0.779319 24.601522 0.781422 38.176881 C 0.780219 51.61997 11.751847 62.585698 25.194936 62.586901 C 38.828698 62.584856 49.731726 51.615743 49.732929 38.172654 C 49.733398 24.601592 38.828768 13.630776 25.195006 13.632821 Z M 25.19098 50.022434 C 18.717649 50.022077 13.343806 44.653124 13.345888 38.172925 C 13.34294 31.567325 18.714465 26.197779 25.192093 26.195563 C 31.964309 26.197932 37.235084 31.57022 37.238032 38.17582 C 37.233378 44.651722 31.960623 50.020507 25.19098 50.022434 Z M 25.19098 50.022434 " stroke="#a6a6a6" stroke-width="2.500012" stroke-opacity="1" stroke-miterlimit="4"/><path stroke-linecap="butt" transform="matrix(-0.148787, 0.765672, -0.765672, -0.148787, 152.291084, 375.133273)" fill="none" stroke-linejoin="miter" d="M 0.910415 62.00047 L 13.179738 61.998771 L 13.183588 50.151813 L 21.938669 50.154481 C 31.146568 50.150783 38.637188 42.858812 38.633491 33.650913 L 38.635049 30.849763 C 38.634754 21.738136 31.147653 14.1885 21.938799 14.187282 L 17.607414 14.187182 C 8.526239 14.186662 0.912158 21.604659 0.910821 30.655382 Z M 26.365726 30.851462 L 26.365617 34.106385 C 26.364242 36.514667 24.376648 39.150762 22.004689 39.152532 L 13.051193 39.152709 L 13.050393 30.852355 C 13.052327 28.34193 15.003929 26.360747 17.411256 26.357206 L 22.002915 26.357746 C 24.380746 26.359937 26.363699 28.346908 26.365726 30.851462 Z M 26.365726 30.851462 " stroke="#a6a6a6" stroke-width="2.500012" stroke-opacity="1" stroke-miterlimit="4"/><path stroke-linecap="butt" transform="matrix(0.0806727, 0.775811, -0.775811, 0.0806727, 146.789058, 399.445723)" fill="none" stroke-linejoin="miter" d="M 34.665362 62.0314 L 34.663752 50.183758 L 17.836362 50.18616 C 15.45986 50.185757 13.472932 47.939951 13.473336 45.563449 L 13.473152 43.967319 L 34.665851 43.965689 L 34.665164 32.641788 L 13.472984 32.638437 L 13.476064 30.720403 C 13.476467 28.343901 15.46054 26.259267 17.837042 26.25967 L 34.663914 26.262249 L 34.6627 14.313947 L 17.835311 14.316349 C 8.787252 14.317041 1.30232 21.801239 1.30126 30.914571 L 1.300561 45.496006 C 1.302487 54.483772 8.789914 62.034495 17.837973 62.033802 Z M 34.665362 62.0314 " stroke="#a6a6a6" stroke-width="2.500012" stroke-opacity="1" stroke-miterlimit="4"/><path stroke-linecap="butt" transform="matrix(0.313433, 0.714249, -0.714249, 0.313433, 147.612258, 421.654367)" fill="none" stroke-linejoin="miter" d="M 1.300865 61.997624 L 13.735643 62.001743 L 13.734479 45.304269 L 29.748029 45.303776 L 29.749193 62.00125 L 42.147845 62.000454 L 42.14855 14.316248 L 29.848544 14.316581 C 29.814991 14.318264 29.783451 14.315361 29.748215 14.283492 L 29.748233 33.55091 L 13.734683 33.551402 L 13.736348 14.317537 L 1.398203 14.317541 C 1.366663 14.314638 1.33311 14.316321 1.304473 14.281878 L 1.30157 14.313419 L 1.268017 14.315102 Z M 1.300865 61.997624 " stroke="#a6a6a6" stroke-width="2.500012" stroke-opacity="1" stroke-miterlimit="4"/><path stroke-linecap="butt" transform="matrix(0.531868, 0.570533, -0.570533, 0.531868, 157.274146, 446.889502)" fill="none" stroke-linejoin="miter" d="M 33.071544 66.393163 L 45.406241 66.396386 C 45.402963 61.251481 43.094703 56.662235 39.446363 53.56924 L 39.449117 30.916173 C 39.448569 21.70689 31.864067 14.184503 22.686759 14.187473 L 19.401965 14.185748 C 10.153628 14.184123 2.636085 21.704674 2.636633 30.913957 L 2.637543 53.570439 C -1.038393 56.66165 -3.350762 61.249959 -3.354562 66.395112 L 9.018939 66.393431 C 9.014815 63.952172 10.969702 62.002061 13.410961 61.997937 L 28.644075 61.998719 C 31.085583 62.001673 33.039108 63.952896 33.071544 66.393163 Z M 19.368195 26.457735 L 22.68838 26.458218 C 25.126224 26.457757 27.080803 28.540049 27.080271 30.949582 L 27.081791 50.087444 L 14.970427 50.087018 L 14.972322 30.945492 C 14.969439 28.539623 16.926687 26.454781 19.368195 26.457735 Z M 19.368195 26.457735 " stroke="#a6a6a6" stroke-width="2.500012" stroke-opacity="1" stroke-miterlimit="4"/><path stroke-linecap="butt" transform="matrix(0.699922, 0.34424, -0.34424, 0.699922, 174.028428, 467.777516)" fill="none" stroke-linejoin="miter" d="M 25.193366 13.633112 C 11.74836 13.632256 0.780177 24.602097 0.780723 38.174776 C 0.779866 51.619782 11.749707 62.587965 25.192503 62.584328 C 38.832371 62.584223 49.735576 51.618435 49.736432 38.173429 C 49.735886 24.60075 38.833234 13.633008 25.193366 13.633112 Z M 25.19205 50.021761 C 18.717047 50.019597 13.34783 44.65161 13.34329 38.174323 C 13.346336 31.564942 18.714323 26.195725 25.19382 26.195679 C 31.964467 26.197543 37.235112 31.569363 37.23656 38.176533 C 37.234396 44.651536 31.962698 50.023625 25.19205 50.021761 Z M 25.19205 50.021761 " stroke="#a6a6a6" stroke-width="2.500012" stroke-opacity="1" stroke-miterlimit="4"/><path stroke-linecap="butt" transform="matrix(0.776572, 0.0729923, -0.0729923, 0.776572, 202.350975, 482.826812)" fill="none" stroke-linejoin="miter" d="M 33.072036 66.394346 L 45.405675 66.391998 C 45.405371 61.251241 43.092545 56.659834 39.447211 53.571927 L 39.450478 30.91595 C 39.449973 21.705844 31.866823 14.184298 22.687102 14.186977 L 19.397155 14.184342 C 10.157132 14.187659 2.63448 21.705521 2.634985 30.915627 L 2.636704 53.571135 C -1.041421 56.6633 -3.351567 61.251614 -3.351264 66.39237 L 9.017746 66.391727 C 9.014821 63.952393 10.968934 61.998117 13.408737 62.000178 L 28.645115 62.001649 C 31.08445 61.998724 33.038726 63.952838 33.072036 66.394346 Z M 19.36848 26.455505 L 22.688344 26.455328 C 25.128147 26.457389 27.079182 28.53756 27.079295 30.946978 L 27.082504 50.086291 L 14.970127 50.087963 L 14.971904 30.948181 C 14.971791 28.538763 16.92416 26.458898 19.36848 26.455505 Z M 19.36848 26.455505 " stroke="#a6a6a6" stroke-width="2.500012" stroke-opacity="1" stroke-miterlimit="4"/><path stroke-linecap="butt" transform="matrix(0.75734, -0.18662, 0.18662, 0.75734, 229.46554, 486.579812)" fill="none" stroke-linejoin="miter" d="M 28.903622 61.999605 L 41.401023 61.999912 L 41.402495 30.784952 C 41.402757 21.511197 33.721399 13.960233 24.509591 13.959761 L 17.871598 13.959101 C 8.659789 13.958629 1.042796 21.510244 1.042534 30.783998 L 1.041063 61.998959 L 13.476518 61.999475 L 13.477902 50.900118 L 28.905007 50.900248 Z M 17.869534 26.296175 L 24.508726 26.291974 C 26.984161 26.293331 28.905253 28.314072 28.905094 30.784644 L 28.903767 38.304466 L 13.476662 38.304336 L 13.477989 30.784514 C 13.473286 28.312744 15.460908 26.295807 17.869534 26.296175 Z M 17.869534 26.296175 " stroke="#a6a6a6" stroke-width="2.500012" stroke-opacity="1" stroke-miterlimit="4"/><path stroke-linecap="butt" transform="matrix(0.657586, -0.41949, 0.41949, 0.657586, 255.863311, 481.179668)" fill="none" stroke-linejoin="miter" d="M 38.278285 28.309552 C 38.279044 20.011457 31.572141 14.247891 23.372755 14.250698 L 1.006996 14.251612 L 1.012041 61.967207 L 25.35476 61.968103 C 33.558368 61.967989 40.492114 56.108557 40.199001 47.842784 C 40.067806 44.230562 38.277321 39.215302 33.555405 37.296091 C 37.04088 35.082166 38.277935 31.0478 38.278285 28.309552 Z M 26.039744 30.006751 C 26.038735 31.954521 24.803632 33.192257 23.240728 33.193211 L 12.661463 33.192609 L 12.663321 26.326824 L 23.238364 26.324732 C 24.801268 26.323778 26.039659 27.660284 26.039744 30.006751 Z M 28.091839 46.410098 C 28.088571 47.970308 26.852743 49.861013 25.292533 49.857746 L 12.661401 49.861012 L 12.662313 43.155011 L 25.290752 43.155967 C 26.853656 43.155013 28.090884 44.847194 28.091839 46.410098 Z M 28.091839 46.410098 " stroke="#a6a6a6" stroke-width="2.500012" stroke-opacity="1" stroke-miterlimit="4"/><path stroke-linecap="butt" transform="matrix(0.502863, -0.596255, 0.596255, 0.502863, 278.332578, 467.6735)" fill="none" stroke-linejoin="miter" d="M 34.662699 62.031888 L 34.663425 50.186515 L 17.838932 50.185636 C 15.461269 50.186182 13.473686 47.938215 13.476368 45.564381 L 13.473375 43.968387 L 34.665888 43.967249 L 34.665183 32.640637 L 13.47267 32.641775 L 13.476089 30.719359 C 13.475542 28.341696 15.461339 26.260757 17.839001 26.26021 L 34.663495 26.261089 L 34.665559 14.316319 L 17.837237 14.318668 C 8.78889 14.317489 1.304366 21.802384 1.301019 30.918073 L 1.302314 45.500186 C 1.303302 54.481192 8.78603 62.033058 17.838205 62.031008 Z M 34.662699 62.031888 " stroke="#a6a6a6" stroke-width="2.500012" stroke-opacity="1" stroke-miterlimit="4"/><path stroke-linecap="butt" transform="matrix(0.300128, -0.719941, 0.719941, 0.300128, 293.740038, 451.523181)" fill="none" stroke-linejoin="miter" d="M 30.4664 64.701146 L 42.214126 64.703259 L 42.218266 62.032043 C 42.217595 58.321079 41.500761 54.54514 37.917265 52.170432 C 39.677101 50.508983 39.775368 48.558138 39.772698 46.57341 L 39.773408 14.284211 L 27.504845 14.282192 L 27.501783 46.344488 C 27.504476 48.459425 25.809674 49.730235 23.692834 49.858516 L 16.699673 49.860166 C 14.582785 49.728028 12.889747 47.970509 12.887041 45.790468 L 12.887893 14.282524 L 0.848159 14.282775 C 0.814222 24.730725 0.78032 35.37399 0.782203 45.79073 C 0.783887 55.100692 7.975916 61.966581 17.21615 61.966837 L 23.239292 61.968059 C 25.224019 61.965389 28.218418 61.807671 29.717848 60.211374 C 30.238755 60.601907 30.463494 61.414326 30.465917 62.031857 Z M 30.4664 64.701146 " stroke="#a6a6a6" stroke-width="2.500012" stroke-opacity="1" stroke-miterlimit="4"/><path stroke-linecap="butt" transform="matrix(0.0581316, -0.777825, 0.777825, 0.0581316, 304.865115, 427.477558)" fill="none" stroke-linejoin="miter" d="M 12.923138 14.248524 L 0.684536 14.249183 L 0.684435 45.561457 C 0.682952 54.545953 8.301125 62.001781 17.25029 62.000883 L 22.814754 62.001843 C 31.929471 61.998617 39.382776 54.481072 39.382162 45.401314 L 39.386259 42.633878 C 39.383032 33.519161 31.92803 26.096337 22.818307 26.09919 L 12.920029 26.100713 Z M 27.180802 42.406069 L 27.176137 45.434693 C 27.180125 47.83994 25.256772 49.856896 22.816193 49.858503 L 17.251728 49.857542 C 14.841113 49.85691 12.922689 47.840819 12.923322 45.430204 L 12.923779 37.977499 L 22.817437 37.981343 C 25.258016 37.979737 27.179053 40.030786 27.180802 42.406069 Z M 27.180802 42.406069 " stroke="#a6a6a6" stroke-width="2.500012" stroke-opacity="1" stroke-miterlimit="4"/></svg>