<svg xmlns="http://www.w3.org/2000/svg" xmlns:xlink="http://www.w3.org/1999/xlink" width="1080" zoomAndPan="magnify" viewBox="0 0 810 809.999993" height="1080" preserveAspectRatio="xMidYMid meet" version="1.0"><defs><clipPath id="49195c4199"><path d="M 0 15 L 184 15 L 184 288 L 0 288 Z M 0 15 " clip-rule="nonzero"/></clipPath><clipPath id="3d8b9a11b5"><path d="M -110.421875 37.585938 L 131.785156 -61.652344 L 249.507812 225.664062 L 7.300781 324.90625 Z M -110.421875 37.585938 " clip-rule="nonzero"/></clipPath><clipPath id="62dab48482"><path d="M -110.421875 37.585938 L 131.785156 -61.652344 L 249.507812 225.664062 L 7.300781 324.90625 Z M -110.421875 37.585938 " clip-rule="nonzero"/></clipPath><clipPath id="aed680c65a"><path d="M 339 158 L 666 158 L 666 411 L 339 411 Z M 339 158 " clip-rule="nonzero"/></clipPath><clipPath id="b038a282cb"><path d="M 646.976562 141.085938 L 666.097656 409.65625 L 348.152344 432.292969 L 329.03125 163.722656 Z M 646.976562 141.085938 " clip-rule="nonzero"/></clipPath><clipPath id="3a8a88e1a8"><path d="M 666.082031 409.46875 L 646.960938 140.898438 L 329.015625 163.535156 L 348.136719 432.105469 Z M 666.082031 409.46875 " clip-rule="nonzero"/></clipPath><clipPath id="b2b6275d28"><path d="M 75 226 L 402 226 L 402 479 L 75 479 Z M 75 226 " clip-rule="nonzero"/></clipPath><clipPath id="0c1f2389fb"><path d="M 393.40625 205.503906 L 411.679688 474.132812 L 93.664062 495.765625 L 75.394531 227.136719 Z M 393.40625 205.503906 " clip-rule="nonzero"/></clipPath><clipPath id="025d37deba"><path d="M 75.207031 227.148438 L 93.480469 495.777344 L 411.492188 474.144531 L 393.222656 205.515625 Z M 75.207031 227.148438 " clip-rule="nonzero"/></clipPath><clipPath id="b4c3afb660"><path d="M 527 348 L 799 348 L 799 666 L 527 666 Z M 527 348 " clip-rule="nonzero"/></clipPath><clipPath id="fc51fc3863"><path d="M 799.089844 661.472656 L 528.890625 678.742188 L 508.414062 358.398438 L 778.613281 341.125 Z M 799.089844 661.472656 " clip-rule="nonzero"/></clipPath><clipPath id="f469156871"><path d="M 799.089844 661.472656 L 528.890625 678.742188 L 508.414062 358.398438 L 778.613281 341.125 Z M 799.089844 661.472656 " clip-rule="nonzero"/></clipPath><clipPath id="1504d99e7a"><path d="M 531 657 L 799 657 L 799 810 L 531 810 Z M 531 657 " clip-rule="nonzero"/></clipPath><clipPath id="6ca6685c3b"><path d="M 528.039062 650.960938 L 799.398438 659.660156 L 789.085938 981.246094 L 517.726562 972.542969 Z M 528.039062 650.960938 " clip-rule="nonzero"/></clipPath><clipPath id="89bdb97d5d"><path d="M 799.09375 659.652344 L 527.734375 650.949219 L 517.421875 972.535156 L 788.785156 981.234375 Z M 799.09375 659.652344 " clip-rule="nonzero"/></clipPath></defs><g clip-path="url(#49195c4199)"><g clip-path="url(#3d8b9a11b5)"><g clip-path="url(#62dab48482)"><path fill="#dadddd" d="M 111.90625 282.246094 C 86.824219 292.523438 57.15625 287.910156 36.527344 270.101562 C 14.515625 251.140625 5.75 219.882812 14.820312 192.226562 C 21.675781 171.238281 38.292969 153.117188 62.84375 139.824219 C 70.621094 135.628906 78.332031 132.265625 85.789062 129.011719 C 93.671875 125.578125 101.128906 122.320312 107.535156 118.484375 C 117.222656 112.796875 123.746094 105.78125 124.945312 99.835938 C 126.179688 93.976562 121.253906 85.894531 114.875 83.152344 C 107.195312 79.9375 96 82.199219 88.9375 88.628906 C 86.148438 91.1875 83.019531 94.890625 79.839844 98.71875 C 75.785156 103.613281 71.265625 109.101562 65.597656 114.25 C 42.914062 135.0625 10.230469 143.300781 -19.636719 135.742188 C -42.71875 129.945312 -63.703125 115.210938 -80.339844 93.339844 C -93.839844 75.4375 -102.402344 56.015625 -110.035156 37.628906 L -55.964844 15.273438 C -49.78125 30.113281 -43.023438 45.625 -33.753906 57.890625 C -25.367188 68.996094 -15.238281 76.464844 -5.320312 78.96875 C 5.289062 81.691406 17.898438 78.441406 25.992188 71.085938 C 28.699219 68.5625 31.6875 65.015625 34.816406 61.308594 C 39.097656 56.222656 43.890625 50.417969 50.039062 44.96875 C 74.160156 23.472656 109.464844 17.1875 137.980469 29.34375 C 170.066406 43.066406 189.210938 78.453125 182.285156 111.59375 C 177.617188 134.214844 161.675781 154.480469 137.289062 168.917969 C 127.859375 174.5 118.417969 178.570312 109.269531 182.621094 C 102.59375 185.558594 96.351562 188.316406 90.628906 191.367188 C 79.625 197.292969 72.496094 204.050781 70.378906 210.472656 C 68.703125 215.503906 70.652344 222.484375 74.671875 225.886719 C 78.730469 229.375 85.835938 230.203125 90.535156 227.871094 L 116.714844 280.175781 C 115.105469 280.933594 113.464844 281.609375 111.90625 282.246094 Z M 111.90625 282.246094 " fill-opacity="1" fill-rule="nonzero"/></g></g></g><g clip-path="url(#aed680c65a)"><g clip-path="url(#b038a282cb)"><g clip-path="url(#3a8a88e1a8)"><path fill="#dadddd" d="M 339.714844 316.445312 C 341.691406 344.199219 359.453125 369.390625 385.234375 380.25 C 412.707031 391.859375 445.453125 385.679688 466.761719 364.730469 C 482.945312 348.863281 492.042969 325.320312 493.082031 296.675781 C 493.398438 287.613281 492.976562 278.984375 492.574219 270.644531 C 492.140625 261.824219 491.738281 253.484375 492.347656 245.84375 C 493.164062 234.339844 496.644531 225.144531 501.570312 221.332031 C 506.398438 217.523438 516.078125 218.375 521.503906 222.988281 C 527.960938 228.589844 530.980469 239.917969 528.285156 249.34375 C 527.203125 253.078125 525.222656 257.644531 523.148438 262.3125 C 520.496094 268.273438 517.503906 274.929688 515.351562 282.492188 C 506.546875 312.839844 513.859375 346.660156 534.421875 370.6875 C 550.273438 389.277344 573.390625 401.871094 601.085938 407.207031 C 623.707031 411.464844 645.472656 410.492188 665.867188 409.136719 L 661.792969 349.210938 C 645.324219 350.289062 627.972656 351.136719 612.46875 348.203125 C 598.429688 345.546875 586.945312 339.628906 580.125 331.652344 C 572.785156 323.132812 570.027344 310.054688 573.105469 299.253906 C 574.191406 295.617188 576.09375 291.246094 578.078125 286.683594 C 580.808594 280.425781 583.960938 273.375 586.171875 265.230469 C 594.957031 233.246094 584.648438 197.910156 560.472656 177.21875 C 533.230469 153.953125 491.953125 152.46875 464.625 173.941406 C 445.945312 188.546875 434.5625 212.441406 432.394531 241.453125 C 431.558594 252.671875 432.117188 263.214844 432.558594 273.476562 C 432.898438 280.953125 433.207031 287.953125 433.007812 294.605469 C 432.574219 307.429688 429.601562 317.066406 424.660156 321.941406 C 420.796875 325.773438 413.488281 327.160156 408.527344 325.011719 C 403.46875 322.871094 399.46875 316.710938 399.472656 311.324219 L 339.429688 311.078125 C 339.464844 312.90625 339.59375 314.722656 339.714844 316.445312 Z M 339.714844 316.445312 " fill-opacity="1" fill-rule="nonzero"/></g></g></g><g clip-path="url(#b2b6275d28)"><g clip-path="url(#0c1f2389fb)"><g clip-path="url(#025d37deba)"><path fill="#dadddd" d="M 401.277344 321.199219 C 399.390625 293.4375 381.707031 268.195312 355.957031 257.25 C 328.523438 245.558594 295.757812 251.632812 274.386719 272.515625 C 258.152344 288.332031 248.980469 311.84375 247.851562 340.484375 C 247.503906 349.546875 247.898438 358.175781 248.273438 366.519531 C 248.683594 375.339844 249.058594 383.679688 248.421875 391.320312 C 247.570312 402.824219 244.058594 412.007812 239.125 415.804688 C 234.285156 419.59375 224.609375 418.714844 219.195312 414.082031 C 212.753906 408.460938 209.773438 397.125 212.496094 387.707031 C 213.589844 383.976562 215.585938 379.417969 217.675781 374.753906 C 220.347656 368.804688 223.355469 362.15625 225.535156 354.601562 C 234.4375 324.277344 227.230469 290.4375 206.742188 266.34375 C 190.953125 247.703125 167.875 235.039062 140.191406 229.613281 C 117.585938 225.285156 95.816406 226.1875 75.421875 227.480469 L 79.304688 287.417969 C 95.777344 286.394531 113.128906 285.597656 128.625 288.582031 C 142.65625 291.285156 154.121094 297.234375 160.917969 305.238281 C 168.230469 313.78125 170.949219 326.867188 167.835938 337.65625 C 166.734375 341.289062 164.820312 345.652344 162.824219 350.210938 C 160.074219 356.457031 156.898438 363.5 154.664062 371.636719 C 145.777344 403.59375 155.972656 438.964844 180.082031 459.730469 C 207.25 483.078125 248.523438 484.695312 275.917969 463.308594 C 294.644531 448.765625 306.101562 424.902344 308.359375 395.898438 C 309.230469 384.683594 308.707031 374.140625 308.296875 363.878906 C 307.980469 356.398438 307.699219 349.398438 307.917969 342.746094 C 308.390625 329.921875 311.390625 320.292969 316.351562 315.4375 C 320.226562 311.613281 327.539062 310.25 332.496094 312.414062 C 337.546875 314.570312 341.523438 320.746094 341.507812 326.132812 L 401.546875 326.566406 C 401.519531 324.742188 401.394531 322.921875 401.277344 321.199219 Z M 401.277344 321.199219 " fill-opacity="1" fill-rule="nonzero"/></g></g></g><g clip-path="url(#b4c3afb660)"><g clip-path="url(#fc51fc3863)"><g clip-path="url(#f469156871)"><path fill="#dadddd" d="M 662.28125 348.902344 C 690.199219 347.117188 717.695312 361.40625 732.003906 385.625 C 747.285156 411.425781 745.554688 444.882812 727.566406 468.945312 C 713.945312 487.214844 691.722656 499.460938 663.328125 504.371094 C 654.339844 505.910156 645.6875 506.65625 637.324219 507.386719 C 628.476562 508.144531 620.113281 508.871094 612.582031 510.511719 C 601.230469 512.882812 592.542969 517.59375 589.410156 523.015625 C 586.269531 528.339844 588.425781 537.867188 593.757812 542.648438 C 600.210938 548.328125 611.90625 549.800781 620.929688 545.84375 C 624.503906 544.261719 628.785156 541.667969 633.15625 538.972656 C 638.734375 535.519531 644.964844 531.644531 652.203125 528.472656 C 681.25 515.597656 715.933594 518.308594 742.652344 535.546875 C 763.316406 548.824219 778.984375 570.152344 788.050781 597.027344 C 795.351562 618.984375 797.324219 640.800781 798.730469 661.300781 L 738.476562 665.347656 C 737.324219 648.792969 735.824219 631.394531 730.800781 616.34375 C 726.257812 602.714844 718.8125 592.074219 709.941406 586.359375 C 700.460938 580.199219 687.058594 579.21875 676.714844 583.746094 C 673.238281 585.320312 669.144531 587.804688 664.863281 590.398438 C 659 593.964844 652.398438 598.058594 644.585938 601.363281 C 613.910156 614.441406 577.308594 608.949219 553.425781 587.664062 C 526.566406 563.667969 519.503906 522.746094 537.199219 492.613281 C 549.222656 472.03125 571.492188 457.460938 600.101562 451.378906 C 611.167969 449.027344 621.742188 448.160156 632.027344 447.210938 C 639.523438 446.539062 646.539062 445.898438 653.140625 444.796875 C 665.855469 442.632812 675.058594 438.371094 679.242188 432.785156 C 682.542969 428.417969 682.933594 420.949219 680.125 416.296875 C 677.304688 411.546875 670.628906 408.398438 665.261719 409.128906 L 656.898438 349.34375 C 658.71875 349.128906 660.550781 349.011719 662.28125 348.902344 Z M 662.28125 348.902344 " fill-opacity="1" fill-rule="nonzero"/></g></g></g><g clip-path="url(#1504d99e7a)"><g clip-path="url(#6ca6685c3b)"><g clip-path="url(#89bdb97d5d)"><path fill="#dadddd" d="M 671.96875 977.195312 C 700 978.09375 727.09375 962.902344 740.660156 938.179688 C 755.144531 911.84375 752.347656 878.371094 733.558594 854.839844 C 719.328125 836.964844 696.671875 825.402344 668.0625 821.386719 C 659.007812 820.128906 650.3125 819.65625 641.910156 819.195312 C 633.023438 818.714844 624.621094 818.253906 617.023438 816.847656 C 605.574219 814.835938 596.71875 810.390625 593.40625 805.0625 C 590.089844 799.828125 591.945312 790.210938 597.136719 785.25 C 603.421875 779.355469 615.089844 777.503906 624.261719 781.183594 C 627.890625 782.65625 632.265625 785.117188 636.730469 787.679688 C 642.429688 790.957031 648.792969 794.644531 656.148438 797.589844 C 685.664062 809.566406 720.328125 805.746094 746.550781 787.621094 C 766.832031 773.660156 781.855469 751.792969 790.082031 724.578125 C 796.695312 702.339844 797.980469 680.417969 798.738281 659.832031 L 738.234375 657.699219 C 737.605469 674.320312 736.65625 691.804688 732.105469 707.042969 C 727.984375 720.84375 720.863281 731.742188 712.15625 737.753906 C 702.851562 744.226562 689.457031 745.636719 678.945312 741.429688 C 675.414062 739.960938 671.234375 737.601562 666.859375 735.140625 C 660.875 731.753906 654.128906 727.859375 646.195312 724.800781 C 615.042969 712.675781 578.542969 719.339844 555.289062 741.429688 C 529.140625 766.328125 523.371094 807.558594 542.0625 837.183594 C 554.765625 857.425781 577.542969 871.316406 606.402344 876.5 C 617.5625 878.5 628.1875 879.035156 638.519531 879.65625 C 646.054688 880.089844 653.105469 880.511719 659.75 881.402344 C 672.5625 883.167969 681.917969 887.144531 686.292969 892.605469 C 689.734375 896.875 690.367188 904.347656 687.699219 909.101562 C 685.027344 913.949219 678.4375 917.316406 673.035156 916.757812 L 666.558594 976.925781 C 668.390625 977.082031 670.226562 977.140625 671.96875 977.195312 Z M 671.96875 977.195312 " fill-opacity="1" fill-rule="nonzero"/></g></g></g><path stroke-linecap="butt" transform="matrix(0.511839, -0.588568, 0.588568, 0.511839, 407.470207, 158.458723)" fill="none" stroke-linejoin="miter" d="M 23.285257 12.295075 C 10.860888 12.294914 0.722129 22.432674 0.720658 34.977646 C 0.720496 47.402016 10.858257 57.540774 23.282626 57.540936 C 35.887899 57.543062 45.966357 47.404646 45.966518 34.980277 C 45.967989 22.435305 35.89053 12.297201 23.285257 12.295075 Z M 23.286435 45.92973 C 17.298039 45.927505 12.333417 40.966565 12.335642 34.978169 C 12.335399 28.872456 17.296338 23.907834 23.284735 23.91006 C 29.54309 23.90981 34.415371 28.871411 34.415614 34.977123 C 34.413389 40.965519 29.54479 45.929481 23.286435 45.92973 Z M 23.286435 45.92973 " stroke="#a6a6a6" stroke-width="2.041126" stroke-opacity="1" stroke-miterlimit="4"/><path stroke-linecap="butt" transform="matrix(0.690048, -0.363627, 0.363627, 0.690048, 442.865933, 122.657534)" fill="none" stroke-linejoin="miter" d="M 0.844643 57.000654 L 12.184466 56.998439 L 12.185086 46.050707 L 20.274363 46.050819 C 28.789319 46.048813 35.707354 39.312362 35.709778 30.799741 L 35.708983 28.21232 C 35.709497 19.789265 28.790678 12.809094 20.278056 12.806669 L 16.274818 12.808617 C 7.88092 12.806486 0.841534 19.665796 0.84455 28.028442 Z M 24.367064 28.20777 L 24.365546 31.218535 C 24.369555 33.445357 22.5322 35.879308 20.334535 35.881699 L 12.06379 35.882195 L 12.063924 28.211832 C 12.061826 25.895444 13.86856 24.056727 16.093047 24.057148 L 20.338162 24.058121 C 22.533492 24.060161 24.369396 25.893716 24.367064 28.20777 Z M 24.367064 28.20777 " stroke="#a6a6a6" stroke-width="2.041126" stroke-opacity="1" stroke-miterlimit="4"/><path stroke-linecap="butt" transform="matrix(0.768714, -0.132178, 0.132178, 0.768714, 479.514627, 105.604819)" fill="none" stroke-linejoin="miter" d="M 32.036412 57.03114 L 32.0391 46.08088 L 16.484779 46.079262 C 14.289792 46.077876 12.456178 44.004379 12.452628 41.808543 L 12.451959 40.33478 L 32.036491 40.333208 L 32.037525 29.86541 L 12.452993 29.866983 L 12.453888 28.088597 C 12.455274 25.893609 14.290476 23.968206 16.485464 23.969592 L 32.039785 23.97121 L 32.038005 12.928715 L 16.483685 12.927096 C 8.124423 12.927828 1.202583 19.847783 1.202153 28.272905 L 1.202144 41.749151 C 1.202339 50.052424 8.12283 57.030253 16.487028 57.03037 Z M 32.036412 57.03114 " stroke="#a6a6a6" stroke-width="2.041126" stroke-opacity="1" stroke-miterlimit="4"/><path stroke-linecap="butt" transform="matrix(0.770066, 0.124052, -0.124052, 0.770066, 517.888465, 100.599742)" fill="none" stroke-linejoin="miter" d="M 1.20123 57.002577 L 12.695744 57.002394 L 12.694724 41.566594 L 27.496557 41.56625 L 27.497576 57.00205 L 38.956683 57.002499 L 38.95798 12.926347 L 27.585316 12.927191 C 27.554853 12.927026 27.524391 12.92686 27.494094 12.896233 L 27.49705 30.705704 L 12.695218 30.706048 L 12.697041 12.926242 L 1.293914 12.926921 C 1.263452 12.926756 1.232989 12.92659 1.202692 12.895963 L 1.202527 12.926425 L 1.172065 12.92626 Z M 1.20123 57.002577 " stroke="#a6a6a6" stroke-width="2.041126" stroke-opacity="1" stroke-miterlimit="4"/><path stroke-linecap="butt" transform="matrix(0.677526, 0.386458, -0.386458, 0.677526, 561.587543, 109.96355)" fill="none" stroke-linejoin="miter" d="M 30.564713 61.058908 L 41.963841 61.060331 C 41.963814 56.309606 39.831529 52.065961 36.460789 49.209051 L 36.457838 28.270578 C 36.462603 19.758039 29.44939 12.809737 20.968527 12.809966 L 17.929133 12.80822 C 9.385531 12.809642 2.436035 19.760116 2.43562 28.270174 L 2.438571 49.208646 C -0.964572 52.066493 -3.098497 56.310543 -3.09847 61.061267 L 8.334203 61.060853 C 8.334095 58.806619 10.139387 56.99855 12.393621 56.998442 L 26.473108 56.998846 C 28.727342 56.998738 30.53541 58.80403 30.564713 61.058908 Z M 17.899804 24.148316 L 20.968392 24.150705 C 23.222626 24.150597 25.028119 26.072667 25.031352 28.302057 L 25.031243 45.990554 L 13.838346 45.986807 L 13.838455 28.29831 C 13.837703 26.073271 15.64122 24.150905 17.899804 24.148316 Z M 17.899804 24.148316 " stroke="#a6a6a6" stroke-width="2.041126" stroke-opacity="1" stroke-miterlimit="4"/><path stroke-linecap="butt" transform="matrix(0.499721, 0.598891, -0.598891, 0.499721, 599.400789, 134.243802)" fill="none" stroke-linejoin="miter" d="M 26.713674 57.000179 L 38.265804 56.999184 L 38.264259 28.148996 C 38.265857 19.5798 31.164349 12.597585 22.652219 12.597947 L 16.515151 12.597254 C 8.003021 12.597616 0.959969 19.576613 0.962217 28.149018 L 0.963762 56.999206 L 12.455617 57.000096 L 12.453802 46.738731 L 26.715704 46.742023 Z M 16.516882 23.999981 L 22.653951 24.000675 C 24.939884 23.996998 26.715505 25.863421 26.712129 28.149991 L 26.713485 35.097557 L 12.455428 35.097474 L 12.454072 28.149908 C 12.45424 25.867183 14.287378 23.998565 16.516882 23.999981 Z M 16.516882 23.999981 " stroke="#a6a6a6" stroke-width="2.041126" stroke-opacity="1" stroke-miterlimit="4"/><path stroke-linecap="butt" transform="matrix(0.271273, 0.731302, -0.731302, 0.271273, 625.640468, 169.314153)" fill="none" stroke-linejoin="miter" d="M 0.843985 57.002218 L 12.184834 56.999952 L 12.182197 46.048894 L 20.274603 46.048812 C 28.788457 46.050161 35.710371 39.312917 35.707024 30.797322 L 35.709548 28.212971 C 35.709459 19.78939 28.790307 12.810681 20.276453 12.809332 L 16.275386 12.810092 C 7.878765 12.809498 0.843559 19.664961 0.844025 28.029926 Z M 24.365745 28.2088 L 24.366485 31.21634 C 24.367968 33.444297 22.533789 35.883353 20.334535 35.879458 L 12.064538 35.883103 L 12.063025 28.212145 C 12.06298 25.893917 13.870589 24.059277 16.092108 24.060748 L 20.334077 24.058545 C 22.535073 24.057744 24.368654 25.897009 24.365745 28.2088 Z M 24.365745 28.2088 " stroke="#a6a6a6" stroke-width="2.041126" stroke-opacity="1" stroke-miterlimit="4"/><path stroke-linecap="butt" transform="matrix(0.0193746, 0.779754, -0.779754, 0.0193746, 638.038507, 208.30829)" fill="none" stroke-linejoin="miter" d="M 11.944091 12.870145 L 0.63244 12.869621 L 0.62973 41.809979 C 0.633877 50.110979 7.671544 56.9987 15.942381 56.998813 L 21.08717 57.001406 C 29.513333 57.000368 36.398815 50.052819 36.402037 41.656819 L 36.400395 39.101885 C 36.399357 30.675722 29.511264 23.816765 21.090107 23.817927 L 11.942635 23.816072 Z M 25.119002 38.89171 L 25.119679 41.687081 C 25.119394 43.916343 23.344756 45.780904 21.090461 45.779997 L 15.945672 45.777404 C 13.71641 45.777119 11.944205 43.914602 11.94449 41.68534 L 11.945315 34.797168 L 21.087781 34.7989 C 23.342076 34.799807 25.11854 36.692487 25.119002 38.89171 Z M 25.119002 38.89171 " stroke="#a6a6a6" stroke-width="2.041126" stroke-opacity="1" stroke-miterlimit="4"/></svg>