<svg xmlns="http://www.w3.org/2000/svg" xmlns:xlink="http://www.w3.org/1999/xlink" width="1080" zoomAndPan="magnify" viewBox="0 0 810 809.999993" height="1080" preserveAspectRatio="xMidYMid meet" version="1.0"><defs><clipPath id="540a2df037"><path d="M 0 15 L 184 15 L 184 288 L 0 288 Z M 0 15 " clip-rule="nonzero"/></clipPath><clipPath id="5458b9fa43"><path d="M -110.421875 37.585938 L 131.785156 -61.652344 L 249.507812 225.664062 L 7.300781 324.90625 Z M -110.421875 37.585938 " clip-rule="nonzero"/></clipPath><clipPath id="e4ee366058"><path d="M -110.421875 37.585938 L 131.785156 -61.652344 L 249.507812 225.664062 L 7.300781 324.90625 Z M -110.421875 37.585938 " clip-rule="nonzero"/></clipPath><clipPath id="f93f78aa08"><path d="M 339 158 L 666 158 L 666 411 L 339 411 Z M 339 158 " clip-rule="nonzero"/></clipPath><clipPath id="16ed4db0a9"><path d="M 646.976562 141.085938 L 666.097656 409.65625 L 348.152344 432.292969 L 329.03125 163.722656 Z M 646.976562 141.085938 " clip-rule="nonzero"/></clipPath><clipPath id="078e513601"><path d="M 666.082031 409.46875 L 646.960938 140.898438 L 329.015625 163.535156 L 348.136719 432.105469 Z M 666.082031 409.46875 " clip-rule="nonzero"/></clipPath><clipPath id="228581d17d"><path d="M 75 226 L 402 226 L 402 479 L 75 479 Z M 75 226 " clip-rule="nonzero"/></clipPath><clipPath id="5b30859569"><path d="M 393.40625 205.503906 L 411.679688 474.132812 L 93.664062 495.765625 L 75.394531 227.136719 Z M 393.40625 205.503906 " clip-rule="nonzero"/></clipPath><clipPath id="ac2ab98a6b"><path d="M 75.207031 227.148438 L 93.480469 495.777344 L 411.492188 474.144531 L 393.222656 205.515625 Z M 75.207031 227.148438 " clip-rule="nonzero"/></clipPath><clipPath id="a642f7fde2"><path d="M 527 348 L 799 348 L 799 666 L 527 666 Z M 527 348 " clip-rule="nonzero"/></clipPath><clipPath id="8bd4b0f4e3"><path d="M 799.089844 661.472656 L 528.890625 678.742188 L 508.414062 358.398438 L 778.613281 341.125 Z M 799.089844 661.472656 " clip-rule="nonzero"/></clipPath><clipPath id="d5ea32d287"><path d="M 799.089844 661.472656 L 528.890625 678.742188 L 508.414062 358.398438 L 778.613281 341.125 Z M 799.089844 661.472656 " clip-rule="nonzero"/></clipPath><clipPath id="099da35a55"><path d="M 531 657 L 799 657 L 799 810 L 531 810 Z M 531 657 " clip-rule="nonzero"/></clipPath><clipPath id="919943ff0e"><path d="M 528.039062 650.960938 L 799.398438 659.660156 L 789.085938 981.246094 L 517.726562 972.542969 Z M 528.039062 650.960938 " clip-rule="nonzero"/></clipPath><clipPath id="7888ec3356"><path d="M 799.09375 659.652344 L 527.734375 650.949219 L 517.421875 972.535156 L 788.785156 981.234375 Z M 799.09375 659.652344 " clip-rule="nonzero"/></clipPath></defs><g clip-path="url(#540a2df037)"><g clip-path="url(#5458b9fa43)"><g clip-path="url(#e4ee366058)"><path fill="#dadddd" d="M 111.90625 282.246094 C 86.824219 292.523438 57.15625 287.910156 36.527344 270.101562 C 14.515625 251.140625 5.75 219.882812 14.820312 192.226562 C 21.675781 171.238281 38.292969 153.117188 62.84375 139.824219 C 70.621094 135.628906 78.332031 132.265625 85.789062 129.011719 C 93.671875 125.578125 101.128906 122.320312 107.535156 118.484375 C 117.222656 112.796875 123.746094 105.78125 124.945312 99.835938 C 126.179688 93.976562 121.253906 85.894531 114.875 83.152344 C 107.195312 79.9375 96 82.199219 88.9375 88.628906 C 86.148438 91.1875 83.019531 94.890625 79.839844 98.71875 C 75.785156 103.613281 71.265625 109.101562 65.597656 114.25 C 42.914062 135.0625 10.230469 143.300781 -19.636719 135.742188 C -42.71875 129.945312 -63.703125 115.210938 -80.339844 93.339844 C -93.839844 75.4375 -102.402344 56.015625 -110.035156 37.628906 L -55.964844 15.273438 C -49.78125 30.113281 -43.023438 45.625 -33.753906 57.890625 C -25.367188 68.996094 -15.238281 76.464844 -5.320312 78.96875 C 5.289062 81.691406 17.898438 78.441406 25.992188 71.085938 C 28.699219 68.5625 31.6875 65.015625 34.816406 61.308594 C 39.097656 56.222656 43.890625 50.417969 50.039062 44.96875 C 74.160156 23.472656 109.464844 17.1875 137.980469 29.34375 C 170.066406 43.0625 189.210938 78.453125 182.285156 111.59375 C 177.617188 134.214844 161.675781 154.480469 137.289062 168.917969 C 127.859375 174.5 118.417969 178.570312 109.269531 182.621094 C 102.59375 185.558594 96.351562 188.316406 90.628906 191.367188 C 79.625 197.292969 72.496094 204.050781 70.378906 210.472656 C 68.703125 215.503906 70.652344 222.484375 74.671875 225.886719 C 78.730469 229.375 85.835938 230.203125 90.535156 227.871094 L 116.714844 280.175781 C 115.105469 280.933594 113.464844 281.609375 111.90625 282.246094 Z M 111.90625 282.246094 " fill-opacity="1" fill-rule="nonzero"/></g></g></g><g clip-path="url(#f93f78aa08)"><g clip-path="url(#16ed4db0a9)"><g clip-path="url(#078e513601)"><path fill="#dadddd" d="M 339.714844 316.445312 C 341.691406 344.199219 359.453125 369.390625 385.234375 380.25 C 412.707031 391.859375 445.453125 385.679688 466.761719 364.730469 C 482.945312 348.863281 492.042969 325.320312 493.082031 296.675781 C 493.398438 287.613281 492.976562 278.984375 492.574219 270.644531 C 492.140625 261.824219 491.738281 253.484375 492.347656 245.84375 C 493.164062 234.339844 496.644531 225.144531 501.570312 221.332031 C 506.398438 217.523438 516.078125 218.375 521.503906 222.988281 C 527.960938 228.589844 530.980469 239.917969 528.285156 249.34375 C 527.203125 253.078125 525.222656 257.644531 523.148438 262.3125 C 520.496094 268.273438 517.503906 274.929688 515.351562 282.492188 C 506.546875 312.839844 513.859375 346.660156 534.421875 370.6875 C 550.273438 389.277344 573.390625 401.871094 601.085938 407.207031 C 623.707031 411.464844 645.472656 410.492188 665.867188 409.136719 L 661.792969 349.210938 C 645.324219 350.289062 627.972656 351.136719 612.46875 348.203125 C 598.429688 345.546875 586.945312 339.628906 580.125 331.652344 C 572.785156 323.132812 570.027344 310.054688 573.105469 299.253906 C 574.191406 295.617188 576.09375 291.246094 578.078125 286.683594 C 580.808594 280.425781 583.960938 273.375 586.171875 265.230469 C 594.957031 233.246094 584.648438 197.910156 560.472656 177.21875 C 533.230469 153.953125 491.953125 152.46875 464.625 173.941406 C 445.945312 188.546875 434.5625 212.441406 432.394531 241.453125 C 431.558594 252.671875 432.117188 263.214844 432.558594 273.476562 C 432.898438 280.953125 433.207031 287.953125 433.007812 294.605469 C 432.574219 307.429688 429.601562 317.066406 424.660156 321.941406 C 420.796875 325.773438 413.488281 327.160156 408.527344 325.011719 C 403.46875 322.871094 399.46875 316.710938 399.472656 311.324219 L 339.429688 311.078125 C 339.464844 312.90625 339.59375 314.722656 339.714844 316.445312 Z M 339.714844 316.445312 " fill-opacity="1" fill-rule="nonzero"/></g></g></g><g clip-path="url(#228581d17d)"><g clip-path="url(#5b30859569)"><g clip-path="url(#ac2ab98a6b)"><path fill="#dadddd" d="M 401.277344 321.199219 C 399.390625 293.4375 381.707031 268.195312 355.957031 257.25 C 328.523438 245.558594 295.757812 251.632812 274.386719 272.511719 C 258.152344 288.332031 248.980469 311.84375 247.851562 340.484375 C 247.503906 349.546875 247.898438 358.175781 248.273438 366.519531 C 248.683594 375.339844 249.058594 383.679688 248.421875 391.320312 C 247.570312 402.824219 244.058594 412.007812 239.125 415.804688 C 234.285156 419.59375 224.609375 418.714844 219.195312 414.082031 C 212.753906 408.460938 209.773438 397.125 212.496094 387.707031 C 213.589844 383.976562 215.585938 379.417969 217.675781 374.753906 C 220.347656 368.804688 223.355469 362.15625 225.535156 354.601562 C 234.4375 324.277344 227.230469 290.4375 206.742188 266.34375 C 190.953125 247.703125 167.875 235.039062 140.191406 229.613281 C 117.585938 225.285156 95.816406 226.1875 75.421875 227.480469 L 79.304688 287.417969 C 95.777344 286.394531 113.128906 285.597656 128.625 288.582031 C 142.65625 291.285156 154.121094 297.234375 160.917969 305.238281 C 168.230469 313.78125 170.949219 326.867188 167.835938 337.65625 C 166.734375 341.289062 164.820312 345.652344 162.824219 350.210938 C 160.074219 356.457031 156.898438 363.5 154.664062 371.636719 C 145.777344 403.59375 155.972656 438.964844 180.082031 459.730469 C 207.25 483.078125 248.523438 484.695312 275.917969 463.308594 C 294.644531 448.765625 306.101562 424.902344 308.359375 395.898438 C 309.230469 384.683594 308.707031 374.140625 308.296875 363.878906 C 307.980469 356.398438 307.699219 349.398438 307.917969 342.746094 C 308.390625 329.921875 311.390625 320.292969 316.351562 315.4375 C 320.226562 311.613281 327.539062 310.25 332.496094 312.414062 C 337.546875 314.570312 341.523438 320.746094 341.507812 326.132812 L 401.546875 326.566406 C 401.519531 324.742188 401.394531 322.921875 401.277344 321.199219 Z M 401.277344 321.199219 " fill-opacity="1" fill-rule="nonzero"/></g></g></g><g clip-path="url(#a642f7fde2)"><g clip-path="url(#8bd4b0f4e3)"><g clip-path="url(#d5ea32d287)"><path fill="#dadddd" d="M 662.28125 348.902344 C 690.199219 347.117188 717.695312 361.40625 732.003906 385.625 C 747.285156 411.425781 745.554688 444.882812 727.566406 468.945312 C 713.945312 487.214844 691.722656 499.460938 663.328125 504.371094 C 654.339844 505.910156 645.6875 506.65625 637.324219 507.386719 C 628.476562 508.144531 620.113281 508.871094 612.582031 510.511719 C 601.230469 512.882812 592.542969 517.59375 589.410156 523.015625 C 586.269531 528.339844 588.425781 537.867188 593.757812 542.648438 C 600.210938 548.328125 611.90625 549.800781 620.929688 545.84375 C 624.503906 544.261719 628.785156 541.667969 633.15625 538.972656 C 638.734375 535.519531 644.964844 531.644531 652.203125 528.472656 C 681.25 515.597656 715.933594 518.308594 742.652344 535.546875 C 763.316406 548.824219 778.984375 570.152344 788.050781 597.027344 C 795.351562 618.984375 797.324219 640.800781 798.730469 661.300781 L 738.476562 665.347656 C 737.324219 648.792969 735.824219 631.394531 730.800781 616.34375 C 726.257812 602.714844 718.8125 592.074219 709.941406 586.359375 C 700.460938 580.199219 687.058594 579.21875 676.714844 583.746094 C 673.238281 585.320312 669.144531 587.804688 664.863281 590.398438 C 659 593.964844 652.398438 598.058594 644.585938 601.363281 C 613.910156 614.441406 577.308594 608.949219 553.425781 587.664062 C 526.566406 563.667969 519.503906 522.746094 537.199219 492.613281 C 549.222656 472.03125 571.492188 457.460938 600.101562 451.378906 C 611.167969 449.027344 621.742188 448.160156 632.027344 447.210938 C 639.523438 446.539062 646.539062 445.898438 653.140625 444.796875 C 665.855469 442.632812 675.058594 438.371094 679.242188 432.785156 C 682.542969 428.417969 682.933594 420.949219 680.125 416.296875 C 677.304688 411.546875 670.628906 408.398438 665.261719 409.128906 L 656.898438 349.34375 C 658.71875 349.128906 660.550781 349.011719 662.28125 348.902344 Z M 662.28125 348.902344 " fill-opacity="1" fill-rule="nonzero"/></g></g></g><g clip-path="url(#099da35a55)"><g clip-path="url(#919943ff0e)"><g clip-path="url(#7888ec3356)"><path fill="#dadddd" d="M 671.96875 977.195312 C 700 978.09375 727.09375 962.902344 740.660156 938.179688 C 755.144531 911.84375 752.347656 878.371094 733.558594 854.839844 C 719.328125 836.964844 696.671875 825.402344 668.0625 821.386719 C 659.007812 820.128906 650.3125 819.65625 641.910156 819.195312 C 633.023438 818.714844 624.621094 818.253906 617.023438 816.847656 C 605.574219 814.835938 596.71875 810.390625 593.40625 805.0625 C 590.089844 799.828125 591.945312 790.210938 597.136719 785.25 C 603.421875 779.355469 615.089844 777.503906 624.261719 781.183594 C 627.890625 782.65625 632.265625 785.117188 636.730469 787.679688 C 642.429688 790.957031 648.792969 794.644531 656.148438 797.589844 C 685.664062 809.566406 720.328125 805.746094 746.550781 787.621094 C 766.832031 773.660156 781.855469 751.792969 790.082031 724.578125 C 796.695312 702.339844 797.980469 680.417969 798.738281 659.832031 L 738.234375 657.699219 C 737.605469 674.320312 736.65625 691.804688 732.105469 707.042969 C 727.984375 720.84375 720.863281 731.742188 712.15625 737.753906 C 702.851562 744.226562 689.457031 745.636719 678.945312 741.429688 C 675.414062 739.960938 671.234375 737.601562 666.859375 735.140625 C 660.875 731.753906 654.128906 727.859375 646.195312 724.800781 C 615.042969 712.675781 578.542969 719.339844 555.289062 741.429688 C 529.140625 766.328125 523.371094 807.558594 542.0625 837.183594 C 554.765625 857.425781 577.542969 871.316406 606.402344 876.5 C 617.5625 878.5 628.1875 879.035156 638.519531 879.65625 C 646.054688 880.089844 653.105469 880.511719 659.75 881.402344 C 672.5625 883.167969 681.917969 887.144531 686.292969 892.605469 C 689.734375 896.875 690.367188 904.347656 687.699219 909.101562 C 685.027344 913.949219 678.4375 917.316406 673.035156 916.757812 L 666.558594 976.925781 C 668.390625 977.082031 670.226562 977.140625 671.96875 977.195312 Z M 671.96875 977.195312 " fill-opacity="1" fill-rule="nonzero"/></g></g></g><path stroke-linecap="butt" transform="matrix(0.42683, 0.616698, -0.616698, 0.42683, 205.238914, 11.800037)" fill="none" stroke-linejoin="miter" d="M 21.697945 11.344862 C 10.119726 11.344005 0.672615 20.792821 0.67276 32.479414 C 0.671902 44.057632 10.120718 53.504743 21.698937 53.505601 C 33.441858 53.506437 42.83264 44.05664 42.833498 32.478421 C 42.833353 20.791829 33.440866 11.345699 21.697945 11.344862 Z M 21.695277 42.684353 C 16.121433 42.684062 11.492071 38.061127 11.491043 32.480037 C 11.496261 26.789254 16.116231 22.164174 21.697322 22.163146 C 27.529748 22.165052 32.069513 26.789315 32.068578 32.483062 C 32.068287 38.056906 27.527704 42.686258 21.695277 42.684353 Z M 21.695277 42.684353 " stroke="#a6a6a6" stroke-width="1.901925" stroke-opacity="1" stroke-miterlimit="4"/><path stroke-linecap="butt" transform="matrix(0.210346, 0.719899, -0.719899, 0.210346, 228.342486, 49.219633)" fill="none" stroke-linejoin="miter" d="M 0.699275 52.998605 L 11.269068 52.999521 L 11.270639 42.798895 L 18.807724 42.798144 C 26.741894 42.794043 33.188246 36.516725 33.189144 28.584016 L 33.187803 26.174431 C 33.191786 18.324015 26.740953 11.821538 18.808244 11.82064 L 15.080118 11.821972 C 7.261159 11.821754 0.700377 18.212142 0.702463 26.004644 Z M 22.623009 26.174976 L 22.624163 28.975186 C 22.619622 31.052059 20.914781 33.321239 18.864365 33.319003 L 11.159156 33.319465 L 11.158217 26.173005 C 11.159672 24.013839 12.836118 22.306103 14.914452 22.305644 L 18.865078 22.304211 C 20.910495 22.304986 22.619465 24.014349 22.623009 26.174976 Z M 22.623009 26.174976 " stroke="#a6a6a6" stroke-width="1.901925" stroke-opacity="1" stroke-miterlimit="4"/><path stroke-linecap="butt" transform="matrix(0.0103087, 0.749929, -0.749929, 0.0103087, 236.832107, 83.329293)" fill="none" stroke-linejoin="miter" d="M 29.183821 53.026034 L 29.181517 42.962551 L 14.69051 42.966498 C 12.643471 42.964403 10.930324 41.029215 10.932419 38.982175 L 10.933923 37.357042 L 29.180429 37.357839 L 29.184084 27.99763 L 10.932371 27.996761 L 10.934108 25.975761 C 10.930995 23.92865 12.64332 22.134308 14.69036 22.136403 L 29.181296 22.137663 L 29.180925 11.933568 L 14.68999 11.932308 C 6.897555 11.934577 0.449009 18.377801 0.45049 26.227522 L 0.44975 38.78599 C 0.447527 46.526274 6.895243 53.02697 14.687606 53.02991 Z M 29.183821 53.026034 " stroke="#a6a6a6" stroke-width="1.901925" stroke-opacity="1" stroke-miterlimit="4"/><path stroke-linecap="butt" transform="matrix(-0.199834, 0.722888, -0.722888, -0.199834, 236.284079, 116.354121)" fill="none" stroke-linejoin="miter" d="M 0.673936 53.000586 L 11.379139 53.002474 L 11.37975 38.617721 L 25.170666 38.620382 L 25.173687 52.998727 L 35.852402 53.002534 L 35.852756 11.934503 L 25.25628 11.93498 C 25.228405 11.931878 25.201917 11.933797 25.172122 11.904208 L 25.171828 28.498976 L 11.3823 28.501336 L 11.379493 11.934443 L 0.755142 11.931818 C 0.728654 11.933737 0.700778 11.930636 0.672371 11.906066 L 0.67429 11.932554 L 0.647802 11.934473 Z M 0.673936 53.000586 " stroke="#a6a6a6" stroke-width="1.901925" stroke-opacity="1" stroke-miterlimit="4"/><path stroke-linecap="butt" transform="matrix(-0.411047, 0.627328, -0.627328, -0.411047, 224.429553, 153.298606)" fill="none" stroke-linejoin="miter" d="M 28.479651 56.78293 L 39.103069 56.783666 C 39.103626 52.35604 37.117007 48.402316 33.977457 45.739539 L 33.975249 26.226168 C 33.971897 18.29541 27.44337 11.819432 19.535747 11.820079 L 16.707282 11.8178 C 8.746179 11.822355 2.270649 18.294547 2.269645 26.228159 L 2.271853 45.74153 C -0.897058 48.403232 -2.885884 52.352774 -2.887943 56.787611 L 7.762966 56.782787 C 7.763775 54.683823 9.445637 53.002714 11.548959 53.000669 L 24.667187 52.998141 C 26.773363 53.000452 28.454472 54.682314 28.479651 56.78293 Z M 16.679504 22.390442 L 19.538314 22.391518 C 21.641635 22.389473 23.321847 24.184005 23.322689 26.256981 L 23.324464 42.73818 L 12.89604 42.74044 L 12.894266 26.259241 C 12.89778 24.183411 14.573328 22.388131 16.679504 22.390442 Z M 16.679504 22.390442 " stroke="#a6a6a6" stroke-width="1.901925" stroke-opacity="1" stroke-miterlimit="4"/><path stroke-linecap="butt" transform="matrix(-0.581988, 0.473065, -0.473065, -0.581988, 201.717356, 184.986179)" fill="none" stroke-linejoin="miter" d="M 24.639817 53.000339 L 35.406378 52.999536 L 35.404112 26.116481 C 35.40526 18.130237 28.787405 11.623353 20.853205 11.624237 L 15.136438 11.622043 C 7.202238 11.622927 0.646618 18.127336 0.642185 26.117621 L 0.644451 53.000677 L 11.351643 52.998599 L 11.353621 43.442442 L 24.637753 43.440897 Z M 15.137523 22.247884 L 20.854289 22.250078 C 22.983045 22.24875 24.639508 23.984486 24.63755 26.117284 L 24.643284 32.592229 L 11.351825 32.59453 L 11.353418 26.118828 C 11.355375 23.986031 13.064096 22.247202 15.137523 22.247884 Z M 15.137523 22.247884 " stroke="#a6a6a6" stroke-width="1.901925" stroke-opacity="1" stroke-miterlimit="4"/></svg>