<svg xmlns="http://www.w3.org/2000/svg" xmlns:xlink="http://www.w3.org/1999/xlink" width="500" zoomAndPan="magnify" viewBox="0 0 375 374.999991" height="500" preserveAspectRatio="xMidYMid meet" version="1.0"><defs><g/><clipPath id="921ea04236"><path d="M 144.152344 70.6875 L 231 70.6875 L 231 170.4375 L 144.152344 170.4375 Z M 144.152344 70.6875 " clip-rule="nonzero"/></clipPath></defs><rect x="-37.5" width="450" fill="#ffffff" y="-37.499999" height="449.999989" fill-opacity="1"/><g fill="#ff5757" fill-opacity="1"><g transform="translate(66.357595, 219.375161)"><g><path d="M 13.5625 -27.515625 L 16.75 -27.515625 L 16.75 -24.171875 L 18.046875 -24.171875 C 20.171875 -24.171875 22.007812 -23.75 23.5625 -22.90625 C 25.113281 -22.070312 26.300781 -20.882812 27.125 -19.34375 C 27.945312 -17.8125 28.359375 -16.066406 28.359375 -14.109375 C 28.359375 -12.046875 27.894531 -10.210938 26.96875 -8.609375 C 26.050781 -7.015625 24.789062 -5.8125 23.1875 -5 C 21.582031 -4.195312 19.691406 -3.796875 17.515625 -3.796875 L 16.75 -3.796875 L 16.75 0.375 L 13.5625 0.375 L 13.5625 -3.796875 L 12.734375 -3.796875 C 10.554688 -3.796875 8.664062 -4.203125 7.0625 -5.015625 C 5.46875 -5.835938 4.21875 -7.050781 3.3125 -8.65625 C 2.414062 -10.269531 1.96875 -12.070312 1.96875 -14.0625 C 1.96875 -16.019531 2.382812 -17.765625 3.21875 -19.296875 C 4.050781 -20.828125 5.242188 -22.019531 6.796875 -22.875 C 8.359375 -23.738281 10.203125 -24.171875 12.328125 -24.171875 L 13.5625 -24.171875 Z M 16.75 -6.453125 L 17.21875 -6.453125 C 19.707031 -6.453125 21.640625 -7.128906 23.015625 -8.484375 C 24.398438 -9.835938 25.09375 -11.722656 25.09375 -14.140625 C 25.09375 -16.429688 24.453125 -18.222656 23.171875 -19.515625 C 21.898438 -20.816406 20.117188 -21.46875 17.828125 -21.46875 L 16.75 -21.46875 Z M 13.5625 -21.46875 L 12.5 -21.46875 C 10.25 -21.46875 8.476562 -20.8125 7.1875 -19.5 C 5.894531 -18.1875 5.25 -16.398438 5.25 -14.140625 C 5.25 -11.703125 5.9375 -9.8125 7.3125 -8.46875 C 8.6875 -7.125 10.625 -6.453125 13.125 -6.453125 L 13.5625 -6.453125 Z M 13.5625 -21.46875 "/></g></g></g><g fill="#ff5757" fill-opacity="1"><g transform="translate(96.669719, 219.375161)"><g><path d="M 27.28125 -13.59375 C 27.28125 -9.257812 26.179688 -5.847656 23.984375 -3.359375 C 21.785156 -0.867188 18.734375 0.375 14.828125 0.375 C 10.828125 0.375 7.738281 -0.84375 5.5625 -3.28125 C 3.394531 -5.726562 2.3125 -9.179688 2.3125 -13.640625 C 2.3125 -18.054688 3.398438 -21.476562 5.578125 -23.90625 C 7.753906 -26.332031 10.847656 -27.546875 14.859375 -27.546875 C 18.753906 -27.546875 21.796875 -26.304688 23.984375 -23.828125 C 26.179688 -21.359375 27.28125 -17.945312 27.28125 -13.59375 Z M 5.65625 -13.59375 C 5.65625 -9.925781 6.4375 -7.140625 8 -5.234375 C 9.570312 -3.335938 11.847656 -2.390625 14.828125 -2.390625 C 17.828125 -2.390625 20.09375 -3.335938 21.625 -5.234375 C 23.164062 -7.128906 23.9375 -9.914062 23.9375 -13.59375 C 23.9375 -17.25 23.171875 -20.019531 21.640625 -21.90625 C 20.117188 -23.789062 17.859375 -24.734375 14.859375 -24.734375 C 11.859375 -24.734375 9.570312 -23.78125 8 -21.875 C 6.4375 -19.976562 5.65625 -17.21875 5.65625 -13.59375 Z M 5.65625 -13.59375 "/></g></g></g><g fill="#ff5757" fill-opacity="1"><g transform="translate(126.258359, 219.375161)"><g><path d="M 12.078125 0 L 8.921875 0 L 8.921875 -24.328125 L 0.328125 -24.328125 L 0.328125 -27.125 L 20.671875 -27.125 L 20.671875 -24.328125 L 12.078125 -24.328125 Z M 12.078125 0 "/></g></g></g><g fill="#ff5757" fill-opacity="1"><g transform="translate(147.276496, 219.375161)"><g><path d="M 27.28125 -13.59375 C 27.28125 -9.257812 26.179688 -5.847656 23.984375 -3.359375 C 21.785156 -0.867188 18.734375 0.375 14.828125 0.375 C 10.828125 0.375 7.738281 -0.84375 5.5625 -3.28125 C 3.394531 -5.726562 2.3125 -9.179688 2.3125 -13.640625 C 2.3125 -18.054688 3.398438 -21.476562 5.578125 -23.90625 C 7.753906 -26.332031 10.847656 -27.546875 14.859375 -27.546875 C 18.753906 -27.546875 21.796875 -26.304688 23.984375 -23.828125 C 26.179688 -21.359375 27.28125 -17.945312 27.28125 -13.59375 Z M 5.65625 -13.59375 C 5.65625 -9.925781 6.4375 -7.140625 8 -5.234375 C 9.570312 -3.335938 11.847656 -2.390625 14.828125 -2.390625 C 17.828125 -2.390625 20.09375 -3.335938 21.625 -5.234375 C 23.164062 -7.128906 23.9375 -9.914062 23.9375 -13.59375 C 23.9375 -17.25 23.171875 -20.019531 21.640625 -21.90625 C 20.117188 -23.789062 17.859375 -24.734375 14.859375 -24.734375 C 11.859375 -24.734375 9.570312 -23.78125 8 -21.875 C 6.4375 -19.976562 5.65625 -17.21875 5.65625 -13.59375 Z M 5.65625 -13.59375 "/></g></g></g><g fill="#ff5757" fill-opacity="1"><g transform="translate(176.865137, 219.375161)"><g/></g></g><g fill="#ff5757" fill-opacity="1"><g transform="translate(186.7342, 219.375161)"><g><path d="M 27.28125 -13.59375 C 27.28125 -9.257812 26.179688 -5.847656 23.984375 -3.359375 C 21.785156 -0.867188 18.734375 0.375 14.828125 0.375 C 10.828125 0.375 7.738281 -0.84375 5.5625 -3.28125 C 3.394531 -5.726562 2.3125 -9.179688 2.3125 -13.640625 C 2.3125 -18.054688 3.398438 -21.476562 5.578125 -23.90625 C 7.753906 -26.332031 10.847656 -27.546875 14.859375 -27.546875 C 18.753906 -27.546875 21.796875 -26.304688 23.984375 -23.828125 C 26.179688 -21.359375 27.28125 -17.945312 27.28125 -13.59375 Z M 5.65625 -13.59375 C 5.65625 -9.925781 6.4375 -7.140625 8 -5.234375 C 9.570312 -3.335938 11.847656 -2.390625 14.828125 -2.390625 C 17.828125 -2.390625 20.09375 -3.335938 21.625 -5.234375 C 23.164062 -7.128906 23.9375 -9.914062 23.9375 -13.59375 C 23.9375 -17.25 23.171875 -20.019531 21.640625 -21.90625 C 20.117188 -23.789062 17.859375 -24.734375 14.859375 -24.734375 C 11.859375 -24.734375 9.570312 -23.78125 8 -21.875 C 6.4375 -19.976562 5.65625 -17.21875 5.65625 -13.59375 Z M 5.65625 -13.59375 "/></g></g></g><g fill="#ff5757" fill-opacity="1"><g transform="translate(216.322841, 219.375161)"><g><path d="M 15.34375 -24.703125 C 12.363281 -24.703125 10.007812 -23.707031 8.28125 -21.71875 C 6.5625 -19.726562 5.703125 -17.007812 5.703125 -13.5625 C 5.703125 -10.007812 6.53125 -7.265625 8.1875 -5.328125 C 9.851562 -3.398438 12.226562 -2.4375 15.3125 -2.4375 C 17.195312 -2.4375 19.351562 -2.773438 21.78125 -3.453125 L 21.78125 -0.6875 C 19.90625 0.0195312 17.585938 0.375 14.828125 0.375 C 10.828125 0.375 7.738281 -0.835938 5.5625 -3.265625 C 3.394531 -5.691406 2.3125 -9.132812 2.3125 -13.59375 C 2.3125 -16.394531 2.832031 -18.847656 3.875 -20.953125 C 4.925781 -23.054688 6.4375 -24.675781 8.40625 -25.8125 C 10.382812 -26.945312 12.707031 -27.515625 15.375 -27.515625 C 18.226562 -27.515625 20.71875 -26.992188 22.84375 -25.953125 L 21.5 -23.25 C 19.445312 -24.21875 17.394531 -24.703125 15.34375 -24.703125 Z M 15.34375 -24.703125 "/></g></g></g><g fill="#ff5757" fill-opacity="1"><g transform="translate(240.290566, 219.375161)"><g><path d="M 18.859375 0 L 3.734375 0 L 3.734375 -27.125 L 18.859375 -27.125 L 18.859375 -24.328125 L 6.890625 -24.328125 L 6.890625 -15.59375 L 18.125 -15.59375 L 18.125 -12.796875 L 6.890625 -12.796875 L 6.890625 -2.828125 L 18.859375 -2.828125 Z M 18.859375 0 "/></g></g></g><g fill="#ff5757" fill-opacity="1"><g transform="translate(261.42002, 219.375161)"><g><path d="M 23.03125 0 L 19.875 0 L 19.875 -24.328125 L 11.0625 -24.328125 L 10.484375 -19.875 C 9.734375 -13.945312 9.066406 -9.613281 8.484375 -6.875 C 7.910156 -4.132812 7.15625 -2.222656 6.21875 -1.140625 C 5.28125 -0.0664062 4.03125 0.453125 2.46875 0.421875 C 1.550781 0.421875 0.726562 0.269531 0 -0.03125 L 0 -2.6875 C 0.664062 -2.363281 1.363281 -2.203125 2.09375 -2.203125 C 2.75 -2.203125 3.320312 -2.472656 3.8125 -3.015625 C 4.300781 -3.554688 4.734375 -4.488281 5.109375 -5.8125 C 5.484375 -7.144531 5.957031 -9.671875 6.53125 -13.390625 C 7.113281 -17.109375 7.75 -21.6875 8.4375 -27.125 L 23.03125 -27.125 Z M 23.03125 0 "/></g></g></g><g fill="#ff5757" fill-opacity="1"><g transform="translate(288.170377, 219.375161)"><g><path d="M 3.734375 0 L 3.734375 -27.125 L 6.890625 -27.125 L 6.890625 0 Z M 3.734375 0 "/></g></g></g><g fill="#ff5757" fill-opacity="1"><g transform="translate(298.752111, 219.375161)"><g/></g></g><g clip-path="url(#921ea04236)"><path fill="#ff5757" d="M 215.953125 170.429688 L 159.070312 170.429688 C 158.09375 170.425781 157.128906 170.332031 156.171875 170.140625 C 155.214844 169.949219 154.285156 169.667969 153.382812 169.296875 C 152.480469 168.921875 151.625 168.46875 150.8125 167.925781 C 150.003906 167.386719 149.253906 166.773438 148.5625 166.085938 C 147.871094 165.398438 147.257812 164.648438 146.714844 163.839844 C 146.171875 163.03125 145.714844 162.179688 145.339844 161.28125 C 144.964844 160.382812 144.683594 159.457031 144.492188 158.503906 C 144.300781 157.550781 144.203125 156.589844 144.203125 155.617188 L 144.203125 115.886719 C 144.199219 113.996094 144.550781 112.175781 145.261719 110.425781 C 145.972656 108.671875 146.988281 107.121094 148.3125 105.765625 L 178.742188 74.410156 C 179.308594 73.820312 179.929688 73.296875 180.605469 72.832031 C 181.277344 72.367188 181.992188 71.976562 182.746094 71.65625 C 183.5 71.339844 184.277344 71.097656 185.078125 70.933594 C 185.882812 70.769531 186.691406 70.6875 187.511719 70.6875 C 188.332031 70.6875 189.140625 70.769531 189.945312 70.933594 C 190.746094 71.097656 191.523438 71.339844 192.277344 71.65625 C 193.03125 71.976562 193.746094 72.367188 194.417969 72.832031 C 195.09375 73.296875 195.714844 73.820312 196.28125 74.410156 L 229.546875 108.683594 C 229.757812 108.898438 229.941406 109.128906 230.105469 109.378906 C 230.265625 109.625 230.402344 109.886719 230.511719 110.164062 C 230.625 110.441406 230.707031 110.722656 230.757812 111.015625 C 230.8125 111.308594 230.839844 111.601562 230.835938 111.898438 C 230.828125 112.195312 230.796875 112.488281 230.734375 112.78125 C 230.671875 113.070312 230.582031 113.351562 230.460938 113.625 C 230.34375 113.898438 230.199219 114.15625 230.03125 114.398438 C 229.859375 114.644531 229.667969 114.867188 229.457031 115.074219 C 229.242188 115.28125 229.007812 115.464844 228.757812 115.625 C 228.507812 115.785156 228.242188 115.921875 227.964844 116.03125 C 227.6875 116.136719 227.402344 116.21875 227.109375 116.269531 C 226.816406 116.324219 226.519531 116.347656 226.222656 116.339844 C 225.925781 116.335938 225.632812 116.300781 225.339844 116.238281 C 225.050781 116.175781 224.765625 116.082031 224.492188 115.964844 C 224.222656 115.84375 223.960938 115.699219 223.71875 115.53125 C 223.472656 115.359375 223.25 115.167969 223.042969 114.953125 L 189.773438 80.691406 C 189.480469 80.378906 189.136719 80.136719 188.742188 79.96875 C 188.351562 79.796875 187.941406 79.714844 187.511719 79.714844 C 187.082031 79.714844 186.671875 79.796875 186.277344 79.96875 C 185.886719 80.136719 185.542969 80.378906 185.25 80.691406 L 154.816406 112.03125 C 154.316406 112.550781 153.929688 113.144531 153.660156 113.8125 C 153.394531 114.480469 153.261719 115.175781 153.265625 115.894531 L 153.265625 155.617188 C 153.265625 155.996094 153.304688 156.371094 153.378906 156.746094 C 153.453125 157.117188 153.5625 157.480469 153.710938 157.832031 C 153.855469 158.183594 154.035156 158.519531 154.246094 158.835938 C 154.460938 159.148438 154.703125 159.441406 154.972656 159.710938 C 155.242188 159.980469 155.535156 160.222656 155.851562 160.433594 C 156.171875 160.644531 156.503906 160.824219 156.859375 160.96875 C 157.210938 161.113281 157.574219 161.226562 157.949219 161.300781 C 158.324219 161.375 158.699219 161.410156 159.082031 161.410156 L 215.964844 161.410156 C 216.261719 161.410156 216.558594 161.441406 216.847656 161.5 C 217.140625 161.554688 217.421875 161.640625 217.699219 161.753906 C 217.972656 161.867188 218.234375 162.007812 218.480469 162.171875 C 218.726562 162.335938 218.957031 162.523438 219.164062 162.734375 C 219.375 162.941406 219.5625 163.167969 219.726562 163.414062 C 219.894531 163.660156 220.03125 163.921875 220.144531 164.195312 C 220.261719 164.46875 220.34375 164.75 220.402344 165.039062 C 220.460938 165.332031 220.492188 165.625 220.492188 165.921875 C 220.492188 166.214844 220.460938 166.507812 220.402344 166.800781 C 220.34375 167.089844 220.261719 167.371094 220.144531 167.644531 C 220.03125 167.917969 219.894531 168.179688 219.726562 168.425781 C 219.5625 168.671875 219.375 168.898438 219.164062 169.109375 C 218.957031 169.316406 218.726562 169.503906 218.480469 169.667969 C 218.234375 169.832031 217.972656 169.972656 217.699219 170.085938 C 217.421875 170.199219 217.140625 170.285156 216.847656 170.34375 C 216.558594 170.398438 216.261719 170.429688 215.964844 170.429688 Z M 215.953125 170.429688 " fill-opacity="1" fill-rule="nonzero"/></g><g fill="#ff5757" fill-opacity="1"><g transform="translate(102.570306, 260.625218)"><g><path d="M 12.125 4.078125 L 10.390625 4.078125 L 10.390625 0 L 2.15625 0 L 2.15625 4.078125 L 0.4375 4.078125 L 0.4375 -1.53125 L 1.359375 -1.53125 C 2.316406 -2.832031 3.066406 -4.359375 3.609375 -6.109375 C 4.160156 -7.867188 4.445312 -9.757812 4.46875 -11.78125 L 10.4375 -11.78125 L 10.4375 -1.53125 L 12.125 -1.53125 Z M 8.71875 -1.53125 L 8.71875 -10.359375 L 6.0625 -10.359375 C 5.976562 -8.773438 5.675781 -7.164062 5.15625 -5.53125 C 4.632812 -3.90625 3.988281 -2.570312 3.21875 -1.53125 Z M 8.71875 -1.53125 "/></g></g></g><g fill="#ff5757" fill-opacity="1"><g transform="translate(118.579152, 260.625218)"><g><path d="M 10.671875 0 L 8.859375 0 L 8.859375 -10.25 L 5.328125 -10.25 C 5.128906 -7.695312 4.859375 -5.671875 4.515625 -4.171875 C 4.171875 -2.679688 3.722656 -1.585938 3.171875 -0.890625 C 2.628906 -0.191406 1.9375 0.15625 1.09375 0.15625 C 0.707031 0.15625 0.398438 0.109375 0.171875 0.015625 L 0.171875 -1.296875 C 0.328125 -1.253906 0.503906 -1.234375 0.703125 -1.234375 C 1.523438 -1.234375 2.179688 -2.101562 2.671875 -3.84375 C 3.160156 -5.582031 3.53125 -8.226562 3.78125 -11.78125 L 10.671875 -11.78125 Z M 10.671875 0 "/></g></g></g><g fill="#ff5757" fill-opacity="1"><g transform="translate(134.566517, 260.625218)"><g><path d="M 2.484375 0 L 0.390625 0 L 3.78125 -4.96875 C 2.875 -5.175781 2.175781 -5.566406 1.6875 -6.140625 C 1.207031 -6.710938 0.96875 -7.4375 0.96875 -8.3125 C 0.96875 -9.382812 1.328125 -10.226562 2.046875 -10.84375 C 2.773438 -11.46875 3.785156 -11.78125 5.078125 -11.78125 L 10.328125 -11.78125 L 10.328125 0 L 8.546875 0 L 8.546875 -4.703125 L 5.5625 -4.703125 Z M 2.703125 -8.296875 C 2.703125 -6.929688 3.691406 -6.25 5.671875 -6.25 L 8.546875 -6.25 L 8.546875 -10.234375 L 5.3125 -10.234375 C 3.570312 -10.234375 2.703125 -9.585938 2.703125 -8.296875 Z M 2.703125 -8.296875 "/></g></g></g><g fill="#ff5757" fill-opacity="1"><g transform="translate(150.210191, 260.625218)"><g/></g></g><g fill="#ff5757" fill-opacity="1"><g transform="translate(159.355994, 260.625218)"><g><path d="M 9.90625 -1.578125 L 9.8125 -1.578125 C 8.988281 -0.378906 7.753906 0.21875 6.109375 0.21875 C 4.566406 0.21875 3.367188 -0.304688 2.515625 -1.359375 C 1.660156 -2.410156 1.234375 -3.910156 1.234375 -5.859375 C 1.234375 -7.796875 1.660156 -9.300781 2.515625 -10.375 C 3.378906 -11.445312 4.578125 -11.984375 6.109375 -11.984375 C 7.710938 -11.984375 8.9375 -11.40625 9.78125 -10.25 L 9.921875 -10.25 L 9.84375 -11.09375 L 9.8125 -11.921875 L 9.8125 -16.71875 L 11.59375 -16.71875 L 11.59375 0 L 10.140625 0 Z M 6.34375 -1.28125 C 7.5625 -1.28125 8.441406 -1.609375 8.984375 -2.265625 C 9.535156 -2.929688 9.8125 -4.003906 9.8125 -5.484375 L 9.8125 -5.859375 C 9.8125 -7.523438 9.53125 -8.710938 8.96875 -9.421875 C 8.414062 -10.140625 7.53125 -10.5 6.3125 -10.5 C 5.269531 -10.5 4.46875 -10.09375 3.90625 -9.28125 C 3.351562 -8.46875 3.078125 -7.316406 3.078125 -5.828125 C 3.078125 -4.328125 3.351562 -3.191406 3.90625 -2.421875 C 4.457031 -1.660156 5.269531 -1.28125 6.34375 -1.28125 Z M 6.34375 -1.28125 "/></g></g></g><g fill="#ff5757" fill-opacity="1"><g transform="translate(176.267025, 260.625218)"><g><path d="M 3.671875 0 L 1.890625 0 L 1.890625 -11.78125 L 3.671875 -11.78125 Z M 1.734375 -14.96875 C 1.734375 -15.375 1.832031 -15.671875 2.03125 -15.859375 C 2.238281 -16.046875 2.492188 -16.140625 2.796875 -16.140625 C 3.078125 -16.140625 3.320312 -16.039062 3.53125 -15.84375 C 3.738281 -15.65625 3.84375 -15.363281 3.84375 -14.96875 C 3.84375 -14.5625 3.738281 -14.257812 3.53125 -14.0625 C 3.320312 -13.863281 3.078125 -13.765625 2.796875 -13.765625 C 2.492188 -13.765625 2.238281 -13.863281 2.03125 -14.0625 C 1.832031 -14.257812 1.734375 -14.5625 1.734375 -14.96875 Z M 1.734375 -14.96875 "/></g></g></g><g fill="#ff5757" fill-opacity="1"><g transform="translate(185.262463, 260.625218)"><g><path d="M 9.484375 -3.21875 C 9.484375 -2.113281 9.070312 -1.265625 8.25 -0.671875 C 7.4375 -0.078125 6.296875 0.21875 4.828125 0.21875 C 3.265625 0.21875 2.046875 -0.03125 1.171875 -0.53125 L 1.171875 -2.1875 C 1.734375 -1.894531 2.335938 -1.664062 2.984375 -1.5 C 3.640625 -1.332031 4.265625 -1.25 4.859375 -1.25 C 5.796875 -1.25 6.515625 -1.398438 7.015625 -1.703125 C 7.515625 -2.003906 7.765625 -2.457031 7.765625 -3.0625 C 7.765625 -3.519531 7.566406 -3.910156 7.171875 -4.234375 C 6.773438 -4.566406 6 -4.953125 4.84375 -5.390625 C 3.75 -5.796875 2.96875 -6.148438 2.5 -6.453125 C 2.039062 -6.765625 1.695312 -7.113281 1.46875 -7.5 C 1.25 -7.882812 1.140625 -8.347656 1.140625 -8.890625 C 1.140625 -9.847656 1.53125 -10.601562 2.3125 -11.15625 C 3.09375 -11.707031 4.160156 -11.984375 5.515625 -11.984375 C 6.785156 -11.984375 8.023438 -11.726562 9.234375 -11.21875 L 8.609375 -9.765625 C 7.421875 -10.253906 6.347656 -10.5 5.390625 -10.5 C 4.546875 -10.5 3.910156 -10.363281 3.484375 -10.09375 C 3.054688 -9.832031 2.84375 -9.46875 2.84375 -9 C 2.84375 -8.6875 2.921875 -8.414062 3.078125 -8.1875 C 3.234375 -7.96875 3.488281 -7.757812 3.84375 -7.5625 C 4.207031 -7.363281 4.898438 -7.070312 5.921875 -6.6875 C 7.316406 -6.1875 8.257812 -5.675781 8.75 -5.15625 C 9.238281 -4.644531 9.484375 -4 9.484375 -3.21875 Z M 9.484375 -3.21875 "/></g></g></g><g fill="#ff5757" fill-opacity="1"><g transform="translate(199.187696, 260.625218)"><g><path d="M 6.59375 0.21875 C 4.894531 0.21875 3.578125 -0.304688 2.640625 -1.359375 C 1.703125 -2.410156 1.234375 -3.894531 1.234375 -5.8125 C 1.234375 -7.78125 1.707031 -9.300781 2.65625 -10.375 C 3.601562 -11.445312 4.957031 -11.984375 6.71875 -11.984375 C 7.28125 -11.984375 7.84375 -11.921875 8.40625 -11.796875 C 8.976562 -11.679688 9.425781 -11.539062 9.75 -11.375 L 9.203125 -9.859375 C 8.804688 -10.015625 8.375 -10.144531 7.90625 -10.25 C 7.4375 -10.351562 7.023438 -10.40625 6.671875 -10.40625 C 4.273438 -10.40625 3.078125 -8.878906 3.078125 -5.828125 C 3.078125 -4.378906 3.367188 -3.269531 3.953125 -2.5 C 4.535156 -1.726562 5.398438 -1.34375 6.546875 -1.34375 C 7.535156 -1.34375 8.546875 -1.554688 9.578125 -1.984375 L 9.578125 -0.390625 C 8.785156 0.015625 7.789062 0.21875 6.59375 0.21875 Z M 6.59375 0.21875 "/></g></g></g><g fill="#ff5757" fill-opacity="1"><g transform="translate(213.091443, 260.625218)"><g><path d="M 3.5625 -11.78125 L 3.5625 -4.140625 C 3.5625 -3.179688 3.78125 -2.460938 4.21875 -1.984375 C 4.65625 -1.515625 5.34375 -1.28125 6.28125 -1.28125 C 7.507812 -1.28125 8.40625 -1.613281 8.96875 -2.28125 C 9.539062 -2.957031 9.828125 -4.0625 9.828125 -5.59375 L 9.828125 -11.78125 L 11.609375 -11.78125 L 11.609375 0 L 10.140625 0 L 9.890625 -1.578125 L 9.78125 -1.578125 C 9.414062 -0.992188 8.910156 -0.546875 8.265625 -0.234375 C 7.617188 0.0664062 6.878906 0.21875 6.046875 0.21875 C 4.617188 0.21875 3.546875 -0.117188 2.828125 -0.796875 C 2.117188 -1.484375 1.765625 -2.578125 1.765625 -4.078125 L 1.765625 -11.78125 Z M 3.5625 -11.78125 "/></g></g></g><g fill="#ff5757" fill-opacity="1"><g transform="translate(230.023948, 260.625218)"><g><path d="M 9.484375 -3.21875 C 9.484375 -2.113281 9.070312 -1.265625 8.25 -0.671875 C 7.4375 -0.078125 6.296875 0.21875 4.828125 0.21875 C 3.265625 0.21875 2.046875 -0.03125 1.171875 -0.53125 L 1.171875 -2.1875 C 1.734375 -1.894531 2.335938 -1.664062 2.984375 -1.5 C 3.640625 -1.332031 4.265625 -1.25 4.859375 -1.25 C 5.796875 -1.25 6.515625 -1.398438 7.015625 -1.703125 C 7.515625 -2.003906 7.765625 -2.457031 7.765625 -3.0625 C 7.765625 -3.519531 7.566406 -3.910156 7.171875 -4.234375 C 6.773438 -4.566406 6 -4.953125 4.84375 -5.390625 C 3.75 -5.796875 2.96875 -6.148438 2.5 -6.453125 C 2.039062 -6.765625 1.695312 -7.113281 1.46875 -7.5 C 1.25 -7.882812 1.140625 -8.347656 1.140625 -8.890625 C 1.140625 -9.847656 1.53125 -10.601562 2.3125 -11.15625 C 3.09375 -11.707031 4.160156 -11.984375 5.515625 -11.984375 C 6.785156 -11.984375 8.023438 -11.726562 9.234375 -11.21875 L 8.609375 -9.765625 C 7.421875 -10.253906 6.347656 -10.5 5.390625 -10.5 C 4.546875 -10.5 3.910156 -10.363281 3.484375 -10.09375 C 3.054688 -9.832031 2.84375 -9.46875 2.84375 -9 C 2.84375 -8.6875 2.921875 -8.414062 3.078125 -8.1875 C 3.234375 -7.96875 3.488281 -7.757812 3.84375 -7.5625 C 4.207031 -7.363281 4.898438 -7.070312 5.921875 -6.6875 C 7.316406 -6.1875 8.257812 -5.675781 8.75 -5.15625 C 9.238281 -4.644531 9.484375 -4 9.484375 -3.21875 Z M 9.484375 -3.21875 "/></g></g></g><g fill="#ff5757" fill-opacity="1"><g transform="translate(243.949175, 260.625218)"><g><path d="M 9.484375 -3.21875 C 9.484375 -2.113281 9.070312 -1.265625 8.25 -0.671875 C 7.4375 -0.078125 6.296875 0.21875 4.828125 0.21875 C 3.265625 0.21875 2.046875 -0.03125 1.171875 -0.53125 L 1.171875 -2.1875 C 1.734375 -1.894531 2.335938 -1.664062 2.984375 -1.5 C 3.640625 -1.332031 4.265625 -1.25 4.859375 -1.25 C 5.796875 -1.25 6.515625 -1.398438 7.015625 -1.703125 C 7.515625 -2.003906 7.765625 -2.457031 7.765625 -3.0625 C 7.765625 -3.519531 7.566406 -3.910156 7.171875 -4.234375 C 6.773438 -4.566406 6 -4.953125 4.84375 -5.390625 C 3.75 -5.796875 2.96875 -6.148438 2.5 -6.453125 C 2.039062 -6.765625 1.695312 -7.113281 1.46875 -7.5 C 1.25 -7.882812 1.140625 -8.347656 1.140625 -8.890625 C 1.140625 -9.847656 1.53125 -10.601562 2.3125 -11.15625 C 3.09375 -11.707031 4.160156 -11.984375 5.515625 -11.984375 C 6.785156 -11.984375 8.023438 -11.726562 9.234375 -11.21875 L 8.609375 -9.765625 C 7.421875 -10.253906 6.347656 -10.5 5.390625 -10.5 C 4.546875 -10.5 3.910156 -10.363281 3.484375 -10.09375 C 3.054688 -9.832031 2.84375 -9.46875 2.84375 -9 C 2.84375 -8.6875 2.921875 -8.414062 3.078125 -8.1875 C 3.234375 -7.96875 3.488281 -7.757812 3.84375 -7.5625 C 4.207031 -7.363281 4.898438 -7.070312 5.921875 -6.6875 C 7.316406 -6.1875 8.257812 -5.675781 8.75 -5.15625 C 9.238281 -4.644531 9.484375 -4 9.484375 -3.21875 Z M 9.484375 -3.21875 "/></g></g></g><g fill="#ff5757" fill-opacity="1"><g transform="translate(257.874402, 260.625218)"><g><path d="M 3.671875 0 L 1.890625 0 L 1.890625 -11.78125 L 3.671875 -11.78125 Z M 1.734375 -14.96875 C 1.734375 -15.375 1.832031 -15.671875 2.03125 -15.859375 C 2.238281 -16.046875 2.492188 -16.140625 2.796875 -16.140625 C 3.078125 -16.140625 3.320312 -16.039062 3.53125 -15.84375 C 3.738281 -15.65625 3.84375 -15.363281 3.84375 -14.96875 C 3.84375 -14.5625 3.738281 -14.257812 3.53125 -14.0625 C 3.320312 -13.863281 3.078125 -13.765625 2.796875 -13.765625 C 2.492188 -13.765625 2.238281 -13.863281 2.03125 -14.0625 C 1.832031 -14.257812 1.734375 -14.5625 1.734375 -14.96875 Z M 1.734375 -14.96875 "/></g></g></g><g fill="#ff5757" fill-opacity="1"><g transform="translate(266.869836, 260.625218)"><g><path d="M 3.671875 0 L 1.890625 0 L 1.890625 -11.78125 L 3.671875 -11.78125 Z M -0.21875 -14.96875 C -0.21875 -15.332031 -0.125 -15.597656 0.0625 -15.765625 C 0.257812 -15.929688 0.488281 -16.015625 0.75 -16.015625 C 1.019531 -16.015625 1.253906 -15.929688 1.453125 -15.765625 C 1.648438 -15.597656 1.75 -15.332031 1.75 -14.96875 C 1.75 -14.601562 1.648438 -14.332031 1.453125 -14.15625 C 1.253906 -13.988281 1.019531 -13.90625 0.75 -13.90625 C 0.488281 -13.90625 0.257812 -13.988281 0.0625 -14.15625 C -0.125 -14.332031 -0.21875 -14.601562 -0.21875 -14.96875 Z M 3.875 -14.96875 C 3.875 -15.332031 3.96875 -15.597656 4.15625 -15.765625 C 4.351562 -15.929688 4.582031 -16.015625 4.84375 -16.015625 C 5.113281 -16.015625 5.347656 -15.929688 5.546875 -15.765625 C 5.742188 -15.597656 5.84375 -15.332031 5.84375 -14.96875 C 5.84375 -14.601562 5.742188 -14.332031 5.546875 -14.15625 C 5.347656 -13.988281 5.113281 -13.90625 4.84375 -13.90625 C 4.582031 -13.90625 4.351562 -13.988281 4.15625 -14.15625 C 3.96875 -14.332031 3.875 -14.601562 3.875 -14.96875 Z M 3.875 -14.96875 "/></g></g></g></svg>