<svg xmlns="http://www.w3.org/2000/svg" xmlns:xlink="http://www.w3.org/1999/xlink" width="500" zoomAndPan="magnify" viewBox="0 0 375 374.999991" height="500" preserveAspectRatio="xMidYMid meet" version="1.0"><defs><g/><clipPath id="59ee9b9632"><path d="M 167 139.722656 L 208 139.722656 L 208 186.972656 L 167 186.972656 Z M 167 139.722656 " clip-rule="nonzero"/></clipPath></defs><rect x="-37.5" width="450" fill="#ffffff" y="-37.499999" height="449.999989" fill-opacity="1"/><g fill="#ff5757" fill-opacity="1"><g transform="translate(132.470827, 210.131765)"><g><path d="M 6.421875 -13.015625 L 7.921875 -13.015625 L 7.921875 -11.4375 L 8.546875 -11.4375 C 9.546875 -11.4375 10.410156 -11.238281 11.140625 -10.84375 C 11.878906 -10.445312 12.441406 -9.882812 12.828125 -9.15625 C 13.222656 -8.425781 13.421875 -7.597656 13.421875 -6.671875 C 13.421875 -5.703125 13.203125 -4.835938 12.765625 -4.078125 C 12.328125 -3.316406 11.726562 -2.742188 10.96875 -2.359375 C 10.207031 -1.984375 9.316406 -1.796875 8.296875 -1.796875 L 7.921875 -1.796875 L 7.921875 0.171875 L 6.421875 0.171875 L 6.421875 -1.796875 L 6.03125 -1.796875 C 5 -1.796875 4.101562 -1.988281 3.34375 -2.375 C 2.59375 -2.757812 2.003906 -3.332031 1.578125 -4.09375 C 1.148438 -4.863281 0.9375 -5.71875 0.9375 -6.65625 C 0.9375 -7.582031 1.128906 -8.40625 1.515625 -9.125 C 1.910156 -9.851562 2.476562 -10.421875 3.21875 -10.828125 C 3.957031 -11.234375 4.828125 -11.4375 5.828125 -11.4375 L 6.421875 -11.4375 Z M 7.921875 -3.0625 L 8.15625 -3.0625 C 9.332031 -3.0625 10.242188 -3.378906 10.890625 -4.015625 C 11.546875 -4.660156 11.875 -5.550781 11.875 -6.6875 C 11.875 -7.769531 11.570312 -8.617188 10.96875 -9.234375 C 10.363281 -9.847656 9.519531 -10.15625 8.4375 -10.15625 L 7.921875 -10.15625 Z M 6.421875 -10.15625 L 5.921875 -10.15625 C 4.859375 -10.15625 4.019531 -9.84375 3.40625 -9.21875 C 2.789062 -8.601562 2.484375 -7.757812 2.484375 -6.6875 C 2.484375 -5.539062 2.804688 -4.648438 3.453125 -4.015625 C 4.109375 -3.378906 5.023438 -3.0625 6.203125 -3.0625 L 6.421875 -3.0625 Z M 6.421875 -10.15625 "/></g></g></g><g fill="#ff5757" fill-opacity="1"><g transform="translate(146.824739, 210.131765)"><g><path d="M 12.90625 -6.4375 C 12.90625 -4.382812 12.382812 -2.769531 11.34375 -1.59375 C 10.3125 -0.414062 8.867188 0.171875 7.015625 0.171875 C 5.128906 0.171875 3.671875 -0.40625 2.640625 -1.5625 C 1.609375 -2.71875 1.09375 -4.347656 1.09375 -6.453125 C 1.09375 -8.546875 1.609375 -10.164062 2.640625 -11.3125 C 3.671875 -12.46875 5.132812 -13.046875 7.03125 -13.046875 C 8.875 -13.046875 10.3125 -12.457031 11.34375 -11.28125 C 12.382812 -10.113281 12.90625 -8.5 12.90625 -6.4375 Z M 2.671875 -6.4375 C 2.671875 -4.695312 3.039062 -3.375 3.78125 -2.46875 C 4.53125 -1.570312 5.609375 -1.125 7.015625 -1.125 C 8.441406 -1.125 9.515625 -1.570312 10.234375 -2.46875 C 10.960938 -3.363281 11.328125 -4.6875 11.328125 -6.4375 C 11.328125 -8.164062 10.960938 -9.472656 10.234375 -10.359375 C 9.515625 -11.253906 8.445312 -11.703125 7.03125 -11.703125 C 5.613281 -11.703125 4.53125 -11.253906 3.78125 -10.359375 C 3.039062 -9.460938 2.671875 -8.15625 2.671875 -6.4375 Z M 2.671875 -6.4375 "/></g></g></g><g fill="#ff5757" fill-opacity="1"><g transform="translate(160.836055, 210.131765)"><g><path d="M 5.71875 0 L 4.21875 0 L 4.21875 -11.515625 L 0.15625 -11.515625 L 0.15625 -12.84375 L 9.78125 -12.84375 L 9.78125 -11.515625 L 5.71875 -11.515625 Z M 5.71875 0 "/></g></g></g><g fill="#ff5757" fill-opacity="1"><g transform="translate(170.78892, 210.131765)"><g><path d="M 12.90625 -6.4375 C 12.90625 -4.382812 12.382812 -2.769531 11.34375 -1.59375 C 10.3125 -0.414062 8.867188 0.171875 7.015625 0.171875 C 5.128906 0.171875 3.671875 -0.40625 2.640625 -1.5625 C 1.609375 -2.71875 1.09375 -4.347656 1.09375 -6.453125 C 1.09375 -8.546875 1.609375 -10.164062 2.640625 -11.3125 C 3.671875 -12.46875 5.132812 -13.046875 7.03125 -13.046875 C 8.875 -13.046875 10.3125 -12.457031 11.34375 -11.28125 C 12.382812 -10.113281 12.90625 -8.5 12.90625 -6.4375 Z M 2.671875 -6.4375 C 2.671875 -4.695312 3.039062 -3.375 3.78125 -2.46875 C 4.53125 -1.570312 5.609375 -1.125 7.015625 -1.125 C 8.441406 -1.125 9.515625 -1.570312 10.234375 -2.46875 C 10.960938 -3.363281 11.328125 -4.6875 11.328125 -6.4375 C 11.328125 -8.164062 10.960938 -9.472656 10.234375 -10.359375 C 9.515625 -11.253906 8.445312 -11.703125 7.03125 -11.703125 C 5.613281 -11.703125 4.53125 -11.253906 3.78125 -10.359375 C 3.039062 -9.460938 2.671875 -8.15625 2.671875 -6.4375 Z M 2.671875 -6.4375 "/></g></g></g><g fill="#ff5757" fill-opacity="1"><g transform="translate(184.800236, 210.131765)"><g/></g></g><g fill="#ff5757" fill-opacity="1"><g transform="translate(189.473602, 210.131765)"><g><path d="M 12.90625 -6.4375 C 12.90625 -4.382812 12.382812 -2.769531 11.34375 -1.59375 C 10.3125 -0.414062 8.867188 0.171875 7.015625 0.171875 C 5.128906 0.171875 3.671875 -0.40625 2.640625 -1.5625 C 1.609375 -2.71875 1.09375 -4.347656 1.09375 -6.453125 C 1.09375 -8.546875 1.609375 -10.164062 2.640625 -11.3125 C 3.671875 -12.46875 5.132812 -13.046875 7.03125 -13.046875 C 8.875 -13.046875 10.3125 -12.457031 11.34375 -11.28125 C 12.382812 -10.113281 12.90625 -8.5 12.90625 -6.4375 Z M 2.671875 -6.4375 C 2.671875 -4.695312 3.039062 -3.375 3.78125 -2.46875 C 4.53125 -1.570312 5.609375 -1.125 7.015625 -1.125 C 8.441406 -1.125 9.515625 -1.570312 10.234375 -2.46875 C 10.960938 -3.363281 11.328125 -4.6875 11.328125 -6.4375 C 11.328125 -8.164062 10.960938 -9.472656 10.234375 -10.359375 C 9.515625 -11.253906 8.445312 -11.703125 7.03125 -11.703125 C 5.613281 -11.703125 4.53125 -11.253906 3.78125 -10.359375 C 3.039062 -9.460938 2.671875 -8.15625 2.671875 -6.4375 Z M 2.671875 -6.4375 "/></g></g></g><g fill="#ff5757" fill-opacity="1"><g transform="translate(203.484918, 210.131765)"><g><path d="M 7.265625 -11.6875 C 5.847656 -11.6875 4.734375 -11.21875 3.921875 -10.28125 C 3.109375 -9.34375 2.703125 -8.054688 2.703125 -6.421875 C 2.703125 -4.742188 3.09375 -3.445312 3.875 -2.53125 C 4.664062 -1.613281 5.789062 -1.15625 7.25 -1.15625 C 8.144531 -1.15625 9.164062 -1.316406 10.3125 -1.640625 L 10.3125 -0.328125 C 9.414062 0.00390625 8.316406 0.171875 7.015625 0.171875 C 5.128906 0.171875 3.671875 -0.398438 2.640625 -1.546875 C 1.609375 -2.691406 1.09375 -4.320312 1.09375 -6.4375 C 1.09375 -7.757812 1.335938 -8.914062 1.828125 -9.90625 C 2.328125 -10.90625 3.046875 -11.671875 3.984375 -12.203125 C 4.921875 -12.742188 6.019531 -13.015625 7.28125 -13.015625 C 8.625 -13.015625 9.800781 -12.769531 10.8125 -12.28125 L 10.171875 -11 C 9.203125 -11.457031 8.234375 -11.6875 7.265625 -11.6875 Z M 7.265625 -11.6875 "/></g></g></g><g fill="#ff5757" fill-opacity="1"><g transform="translate(214.834523, 210.131765)"><g><path d="M 8.921875 0 L 1.765625 0 L 1.765625 -12.84375 L 8.921875 -12.84375 L 8.921875 -11.515625 L 3.265625 -11.515625 L 3.265625 -7.375 L 8.578125 -7.375 L 8.578125 -6.0625 L 3.265625 -6.0625 L 3.265625 -1.328125 L 8.921875 -1.328125 Z M 8.921875 0 "/></g></g></g><g fill="#ff5757" fill-opacity="1"><g transform="translate(224.840101, 210.131765)"><g><path d="M 10.890625 0 L 9.40625 0 L 9.40625 -11.515625 L 5.234375 -11.515625 L 4.96875 -9.40625 C 4.601562 -6.601562 4.285156 -4.550781 4.015625 -3.25 C 3.742188 -1.957031 3.382812 -1.054688 2.9375 -0.546875 C 2.5 -0.0351562 1.910156 0.210938 1.171875 0.203125 C 0.734375 0.203125 0.34375 0.128906 0 -0.015625 L 0 -1.265625 C 0.3125 -1.117188 0.644531 -1.046875 1 -1.046875 C 1.300781 -1.046875 1.566406 -1.171875 1.796875 -1.421875 C 2.035156 -1.679688 2.242188 -2.125 2.421875 -2.75 C 2.597656 -3.382812 2.820312 -4.578125 3.09375 -6.328125 C 3.363281 -8.085938 3.664062 -10.257812 4 -12.84375 L 10.890625 -12.84375 Z M 10.890625 0 "/></g></g></g><g fill="#ff5757" fill-opacity="1"><g transform="translate(237.507384, 210.131765)"><g><path d="M 1.765625 0 L 1.765625 -12.84375 L 3.265625 -12.84375 L 3.265625 0 Z M 1.765625 0 "/></g></g></g><g fill="#ff5757" fill-opacity="1"><g transform="translate(242.523776, 210.131765)"><g/></g></g><g clip-path="url(#59ee9b9632)"><path fill="#ff5757" d="M 200.847656 186.945312 L 174.015625 186.945312 C 173.554688 186.945312 173.097656 186.898438 172.648438 186.808594 C 172.195312 186.71875 171.757812 186.585938 171.332031 186.410156 C 170.90625 186.234375 170.503906 186.015625 170.121094 185.761719 C 169.738281 185.503906 169.382812 185.214844 169.058594 184.886719 C 168.734375 184.5625 168.441406 184.207031 168.1875 183.824219 C 167.929688 183.445312 167.714844 183.039062 167.539062 182.613281 C 167.363281 182.1875 167.230469 181.75 167.136719 181.300781 C 167.046875 180.847656 167.003906 180.390625 167.003906 179.933594 L 167.003906 161.121094 C 167 160.226562 167.167969 159.367188 167.503906 158.535156 C 167.835938 157.707031 168.316406 156.972656 168.941406 156.328125 L 183.296875 141.484375 C 183.5625 141.207031 183.855469 140.957031 184.171875 140.738281 C 184.492188 140.519531 184.828125 140.332031 185.183594 140.183594 C 185.539062 140.03125 185.90625 139.917969 186.285156 139.839844 C 186.664062 139.761719 187.046875 139.722656 187.433594 139.722656 C 187.820312 139.722656 188.199219 139.761719 188.578125 139.839844 C 188.957031 139.917969 189.324219 140.03125 189.679688 140.183594 C 190.035156 140.332031 190.371094 140.519531 190.691406 140.738281 C 191.007812 140.957031 191.300781 141.207031 191.570312 141.484375 L 207.261719 157.710938 C 207.460938 157.914062 207.613281 158.148438 207.71875 158.414062 C 207.820312 158.675781 207.871094 158.949219 207.867188 159.234375 C 207.863281 159.519531 207.804688 159.789062 207.695312 160.050781 C 207.582031 160.3125 207.421875 160.539062 207.21875 160.738281 C 207.015625 160.933594 206.78125 161.085938 206.515625 161.191406 C 206.25 161.292969 205.976562 161.34375 205.695312 161.335938 C 205.410156 161.332031 205.136719 161.273438 204.878906 161.160156 C 204.617188 161.042969 204.390625 160.886719 204.191406 160.679688 L 188.5 144.457031 C 188.359375 144.3125 188.199219 144.195312 188.011719 144.117188 C 187.828125 144.035156 187.632812 143.996094 187.433594 143.996094 C 187.230469 143.996094 187.035156 144.035156 186.851562 144.117188 C 186.664062 144.195312 186.503906 144.3125 186.363281 144.457031 L 172.007812 159.296875 C 171.515625 159.808594 171.273438 160.417969 171.277344 161.125 L 171.277344 179.933594 C 171.277344 180.296875 171.347656 180.644531 171.488281 180.980469 C 171.625 181.316406 171.824219 181.613281 172.082031 181.871094 C 172.339844 182.128906 172.636719 182.328125 172.972656 182.464844 C 173.308594 182.605469 173.65625 182.675781 174.023438 182.675781 L 200.855469 182.675781 C 201.136719 182.675781 201.410156 182.730469 201.671875 182.839844 C 201.933594 182.945312 202.164062 183.101562 202.363281 183.300781 C 202.5625 183.5 202.71875 183.730469 202.828125 183.992188 C 202.933594 184.253906 202.988281 184.527344 202.988281 184.8125 C 202.988281 185.09375 202.933594 185.367188 202.828125 185.628906 C 202.71875 185.890625 202.5625 186.121094 202.363281 186.320312 C 202.164062 186.519531 201.933594 186.675781 201.671875 186.78125 C 201.410156 186.890625 201.136719 186.945312 200.855469 186.945312 Z M 200.847656 186.945312 " fill-opacity="1" fill-rule="nonzero"/></g><g fill="#ff5757" fill-opacity="1"><g transform="translate(144.39064, 231.393574)"><g><path d="M 1.765625 -12.84375 L 5.390625 -12.84375 C 7.097656 -12.84375 8.332031 -12.585938 9.09375 -12.078125 C 9.851562 -11.566406 10.234375 -10.757812 10.234375 -9.65625 C 10.234375 -8.894531 10.019531 -8.265625 9.59375 -7.765625 C 9.164062 -7.273438 8.546875 -6.957031 7.734375 -6.8125 L 7.734375 -6.734375 C 9.679688 -6.390625 10.65625 -5.363281 10.65625 -3.65625 C 10.65625 -2.507812 10.265625 -1.613281 9.484375 -0.96875 C 8.710938 -0.320312 7.632812 0 6.25 0 L 1.765625 0 Z M 3.265625 -7.34375 L 5.71875 -7.34375 C 6.769531 -7.34375 7.523438 -7.503906 7.984375 -7.828125 C 8.453125 -8.160156 8.6875 -8.722656 8.6875 -9.515625 C 8.6875 -10.234375 8.425781 -10.75 7.90625 -11.0625 C 7.394531 -11.382812 6.578125 -11.546875 5.453125 -11.546875 L 3.265625 -11.546875 Z M 3.265625 -6.078125 L 3.265625 -1.265625 L 5.9375 -1.265625 C 6.96875 -1.265625 7.742188 -1.460938 8.265625 -1.859375 C 8.796875 -2.265625 9.0625 -2.898438 9.0625 -3.765625 C 9.0625 -4.554688 8.789062 -5.140625 8.25 -5.515625 C 7.71875 -5.890625 6.90625 -6.078125 5.8125 -6.078125 Z M 3.265625 -6.078125 "/></g></g></g><g fill="#ff5757" fill-opacity="1"><g transform="translate(156.047704, 231.393574)"><g><path d="M 1.765625 0 L 1.765625 -12.84375 L 3.265625 -12.84375 L 3.265625 0 Z M 1.765625 0 "/></g></g></g><g fill="#ff5757" fill-opacity="1"><g transform="translate(161.063667, 231.393574)"><g><path d="M 11.890625 3.34375 L 10.46875 3.34375 L 10.46875 0 L 1.546875 0 L 1.546875 3.34375 L 0.125 3.34375 L 0.125 -1.359375 L 1.109375 -1.359375 C 2.015625 -2.867188 2.785156 -4.707031 3.421875 -6.875 C 4.066406 -9.050781 4.425781 -11.039062 4.5 -12.84375 L 10.265625 -12.84375 L 10.265625 -1.359375 L 11.890625 -1.359375 Z M 8.765625 -1.359375 L 8.765625 -11.5 L 5.84375 -11.5 C 5.738281 -10.082031 5.382812 -8.378906 4.78125 -6.390625 C 4.175781 -4.398438 3.472656 -2.722656 2.671875 -1.359375 Z M 8.765625 -1.359375 "/></g></g></g><g fill="#ff5757" fill-opacity="1"><g transform="translate(173.353215, 231.393574)"><g><path d="M 7.265625 -11.6875 C 5.847656 -11.6875 4.734375 -11.21875 3.921875 -10.28125 C 3.109375 -9.34375 2.703125 -8.054688 2.703125 -6.421875 C 2.703125 -4.742188 3.09375 -3.445312 3.875 -2.53125 C 4.664062 -1.613281 5.789062 -1.15625 7.25 -1.15625 C 8.144531 -1.15625 9.164062 -1.316406 10.3125 -1.640625 L 10.3125 -0.328125 C 9.414062 0.00390625 8.316406 0.171875 7.015625 0.171875 C 5.128906 0.171875 3.671875 -0.398438 2.640625 -1.546875 C 1.609375 -2.691406 1.09375 -4.320312 1.09375 -6.4375 C 1.09375 -7.757812 1.335938 -8.914062 1.828125 -9.90625 C 2.328125 -10.90625 3.046875 -11.671875 3.984375 -12.203125 C 4.921875 -12.742188 6.019531 -13.015625 7.28125 -13.015625 C 8.625 -13.015625 9.800781 -12.769531 10.8125 -12.28125 L 10.171875 -11 C 9.203125 -11.457031 8.234375 -11.6875 7.265625 -11.6875 Z M 7.265625 -11.6875 "/></g></g></g><g fill="#ff5757" fill-opacity="1"><g transform="translate(184.70282, 231.393574)"><g><path d="M 2.578125 0.171875 C 1.921875 0.171875 1.347656 0.0820312 0.859375 -0.09375 L 0.859375 -1.546875 C 1.398438 -1.296875 1.953125 -1.171875 2.515625 -1.171875 C 3.160156 -1.171875 3.675781 -1.316406 4.0625 -1.609375 C 4.457031 -1.910156 4.847656 -2.46875 5.234375 -3.28125 L 0.234375 -12.84375 L 1.890625 -12.84375 L 5.6875 -5.546875 C 5.832031 -5.253906 5.945312 -4.972656 6.03125 -4.703125 L 6.09375 -4.703125 C 6.257812 -5.191406 6.375 -5.5 6.4375 -5.625 L 9.59375 -12.84375 L 11.171875 -12.84375 L 7.0625 -3.65625 C 6.570312 -2.5625 6.128906 -1.765625 5.734375 -1.265625 C 5.335938 -0.765625 4.890625 -0.398438 4.390625 -0.171875 C 3.898438 0.0546875 3.296875 0.171875 2.578125 0.171875 Z M 2.578125 0.171875 "/></g></g></g><g fill="#ff5757" fill-opacity="1"><g transform="translate(195.876734, 231.393574)"><g><path d="M 5.71875 0 L 4.21875 0 L 4.21875 -11.515625 L 0.15625 -11.515625 L 0.15625 -12.84375 L 9.78125 -12.84375 L 9.78125 -11.515625 L 5.71875 -11.515625 Z M 5.71875 0 "/></g></g></g><g fill="#ff5757" fill-opacity="1"><g transform="translate(205.8296, 231.393574)"><g><path d="M 11.515625 0 L 10.015625 0 L 10.015625 -6.046875 L 3.265625 -6.046875 L 3.265625 0 L 1.765625 0 L 1.765625 -12.84375 L 3.265625 -12.84375 L 3.265625 -7.375 L 10.015625 -7.375 L 10.015625 -12.84375 L 11.515625 -12.84375 Z M 11.515625 0 "/></g></g></g><g fill="#ff5757" fill-opacity="1"><g transform="translate(219.103015, 231.393574)"><g><path d="M 7.328125 -11.6875 C 6.003906 -11.6875 4.945312 -11.320312 4.15625 -10.59375 C 3.375 -9.863281 2.894531 -8.789062 2.71875 -7.375 L 9.0625 -7.375 L 9.0625 -6.0625 L 2.671875 -6.0625 C 2.734375 -4.457031 3.15625 -3.238281 3.9375 -2.40625 C 4.71875 -1.570312 5.835938 -1.15625 7.296875 -1.15625 C 8.242188 -1.15625 9.304688 -1.316406 10.484375 -1.640625 L 10.484375 -0.328125 C 9.546875 0.00390625 8.414062 0.171875 7.09375 0.171875 C 5.144531 0.171875 3.65625 -0.394531 2.625 -1.53125 C 1.601562 -2.664062 1.09375 -4.300781 1.09375 -6.4375 C 1.09375 -8.488281 1.644531 -10.101562 2.75 -11.28125 C 3.851562 -12.457031 5.382812 -13.046875 7.34375 -13.046875 C 8.726562 -13.046875 9.941406 -12.785156 10.984375 -12.265625 L 10.359375 -10.96875 C 9.367188 -11.445312 8.359375 -11.6875 7.328125 -11.6875 Z M 7.328125 -11.6875 "/></g></g></g></svg>