<svg xmlns="http://www.w3.org/2000/svg" xmlns:xlink="http://www.w3.org/1999/xlink" width="500" zoomAndPan="magnify" viewBox="0 0 375 374.999991" height="500" preserveAspectRatio="xMidYMid meet" version="1.0"><defs><g/><clipPath id="1822b1f930"><path d="M 37.5 149.375 L 143.25 149.375 L 143.25 230.375 L 37.5 230.375 Z M 37.5 149.375 " clip-rule="nonzero"/></clipPath><clipPath id="b077767aee"><path d="M 143.820312 163 L 157.691406 163 L 157.691406 175.011719 L 143.820312 175.011719 Z M 143.820312 163 " clip-rule="nonzero"/></clipPath><clipPath id="ae8c77e9c9"><path d="M 143.820312 175.011719 L 150.757812 163 L 157.691406 175.011719 Z M 143.820312 175.011719 " clip-rule="nonzero"/></clipPath><clipPath id="980959f23b"><path d="M 149.097656 169.484375 L 152.414062 169.484375 L 152.414062 172.804688 L 149.097656 172.804688 Z M 149.097656 169.484375 " clip-rule="nonzero"/></clipPath><clipPath id="86232cec84"><path d="M 148.472656 169.007812 L 152.972656 169.007812 L 152.972656 173.507812 L 148.472656 173.507812 Z M 148.472656 169.007812 " clip-rule="nonzero"/></clipPath><clipPath id="c3606eb293"><path d="M 300.390625 173.570312 L 336.390625 173.570312 L 336.390625 202.820312 L 300.390625 202.820312 Z M 300.390625 173.570312 " clip-rule="nonzero"/></clipPath><clipPath id="78ada37c8a"><path d="M 288.0625 201.035156 L 301.933594 201.035156 L 301.933594 213.046875 L 288.0625 213.046875 Z M 288.0625 201.035156 " clip-rule="nonzero"/></clipPath><clipPath id="960aa574c1"><path d="M 301.933594 201.035156 L 294.996094 213.046875 L 288.0625 201.035156 Z M 301.933594 201.035156 " clip-rule="nonzero"/></clipPath><clipPath id="1b3e347eb6"><path d="M 293.335938 203.246094 L 296.65625 203.246094 L 296.65625 206.5625 L 293.335938 206.5625 Z M 293.335938 203.246094 " clip-rule="nonzero"/></clipPath><clipPath id="ad0d0d0c2d"><path d="M 292.777344 202.542969 L 297.277344 202.542969 L 297.277344 207.042969 L 292.777344 207.042969 Z M 292.777344 202.542969 " clip-rule="nonzero"/></clipPath></defs><g clip-path="url(#1822b1f930)"><path fill="#000000" d="M 63.683594 160.617188 L 52.71875 160.617188 C 51.820312 157.363281 48.820312 154.964844 45.257812 154.964844 C 40.984375 154.964844 37.519531 158.40625 37.519531 162.652344 C 37.519531 166.894531 40.984375 170.335938 45.257812 170.335938 C 48.820312 170.335938 51.820312 167.949219 52.71875 164.695312 L 63.683594 164.695312 L 63.683594 181.714844 L 123.527344 181.714844 C 122.953125 180.28125 122.242188 178.914062 121.402344 177.636719 L 67.789062 177.636719 L 67.789062 160.617188 Z M 71.996094 149.375 L 102.453125 149.375 C 124.882812 149.375 143.230469 167.59375 143.230469 189.875 C 143.230469 212.144531 124.882812 230.375 102.453125 230.375 L 71.996094 230.375 L 71.996094 217.078125 L 102.453125 217.078125 C 117.523438 217.078125 129.851562 204.832031 129.851562 189.875 C 129.851562 174.90625 117.523438 162.671875 102.453125 162.671875 L 71.996094 162.671875 Z M 52.71875 187.828125 L 124.984375 187.828125 C 125.050781 188.507812 125.082031 189.183594 125.082031 189.875 C 125.082031 190.5625 125.050781 191.238281 124.984375 191.90625 L 52.71875 191.90625 C 51.820312 195.160156 48.820312 197.558594 45.257812 197.558594 C 40.984375 197.558594 37.519531 194.117188 37.519531 189.875 C 37.519531 185.628906 40.984375 182.1875 45.257812 182.1875 C 48.820312 182.1875 51.820312 184.574219 52.71875 187.828125 Z M 63.683594 219.128906 L 52.71875 219.128906 C 51.820312 222.382812 48.820312 224.769531 45.257812 224.769531 C 40.984375 224.769531 37.519531 221.332031 37.519531 217.097656 C 37.519531 212.851562 40.984375 209.410156 45.257812 209.410156 C 48.820312 209.410156 51.820312 211.800781 52.71875 215.050781 L 63.683594 215.050781 L 63.683594 198.03125 L 123.527344 198.03125 C 122.953125 199.464844 122.242188 200.832031 121.402344 202.109375 L 67.789062 202.109375 L 67.789062 219.128906 Z M 63.683594 219.128906 " fill-opacity="1" fill-rule="evenodd"/></g><g fill="#545454" fill-opacity="1"><g transform="translate(154.573367, 225.008309)"><g><path d="M 2.453125 0.046875 C 2.035156 0.046875 1.632812 -0.0195312 1.25 -0.15625 C 0.875 -0.289062 0.582031 -0.46875 0.375 -0.6875 L 0.609375 -1.140625 C 0.804688 -0.929688 1.070312 -0.765625 1.40625 -0.640625 C 1.75 -0.515625 2.097656 -0.453125 2.453125 -0.453125 C 2.953125 -0.453125 3.328125 -0.546875 3.578125 -0.734375 C 3.828125 -0.921875 3.953125 -1.160156 3.953125 -1.453125 C 3.953125 -1.671875 3.882812 -1.847656 3.75 -1.984375 C 3.613281 -2.117188 3.445312 -2.222656 3.25 -2.296875 C 3.050781 -2.367188 2.78125 -2.445312 2.4375 -2.53125 C 2.007812 -2.632812 1.671875 -2.734375 1.421875 -2.828125 C 1.171875 -2.929688 0.957031 -3.082031 0.78125 -3.28125 C 0.601562 -3.488281 0.515625 -3.765625 0.515625 -4.109375 C 0.515625 -4.390625 0.585938 -4.644531 0.734375 -4.875 C 0.878906 -5.113281 1.109375 -5.300781 1.421875 -5.4375 C 1.734375 -5.570312 2.117188 -5.640625 2.578125 -5.640625 C 2.898438 -5.640625 3.210938 -5.597656 3.515625 -5.515625 C 3.816406 -5.429688 4.082031 -5.3125 4.3125 -5.15625 L 4.109375 -4.6875 C 3.878906 -4.832031 3.628906 -4.941406 3.359375 -5.015625 C 3.085938 -5.097656 2.828125 -5.140625 2.578125 -5.140625 C 2.085938 -5.140625 1.71875 -5.046875 1.46875 -4.859375 C 1.21875 -4.671875 1.09375 -4.425781 1.09375 -4.125 C 1.09375 -3.90625 1.160156 -3.726562 1.296875 -3.59375 C 1.429688 -3.457031 1.601562 -3.351562 1.8125 -3.28125 C 2.019531 -3.207031 2.296875 -3.128906 2.640625 -3.046875 C 3.046875 -2.941406 3.375 -2.835938 3.625 -2.734375 C 3.882812 -2.640625 4.101562 -2.488281 4.28125 -2.28125 C 4.457031 -2.082031 4.546875 -1.816406 4.546875 -1.484375 C 4.546875 -1.203125 4.46875 -0.941406 4.3125 -0.703125 C 4.164062 -0.472656 3.929688 -0.289062 3.609375 -0.15625 C 3.296875 -0.0195312 2.910156 0.046875 2.453125 0.046875 Z M 2.453125 0.046875 "/></g></g></g><g fill="#545454" fill-opacity="1"><g transform="translate(165.621447, 225.008309)"><g><path d="M 0.90625 -5.59375 L 1.5 -5.59375 L 1.5 0 L 0.90625 0 Z M 0.90625 -5.59375 "/></g></g></g><g fill="#545454" fill-opacity="1"><g transform="translate(174.165499, 225.008309)"><g><path d="M 6.734375 -5.59375 L 6.734375 0 L 6.15625 0 L 6.15625 -4.484375 L 3.953125 -0.71875 L 3.6875 -0.71875 L 1.484375 -4.453125 L 1.484375 0 L 0.90625 0 L 0.90625 -5.59375 L 1.40625 -5.59375 L 3.828125 -1.453125 L 6.234375 -5.59375 Z M 6.734375 -5.59375 "/></g></g></g><g fill="#545454" fill-opacity="1"><g transform="translate(187.933612, 225.008309)"><g><path d="M 3.015625 -5.59375 C 3.722656 -5.59375 4.28125 -5.421875 4.6875 -5.078125 C 5.09375 -4.742188 5.296875 -4.28125 5.296875 -3.6875 C 5.296875 -3.082031 5.09375 -2.609375 4.6875 -2.265625 C 4.28125 -1.929688 3.722656 -1.765625 3.015625 -1.765625 L 1.5 -1.765625 L 1.5 0 L 0.90625 0 L 0.90625 -5.59375 Z M 2.984375 -2.28125 C 3.546875 -2.28125 3.972656 -2.398438 4.265625 -2.640625 C 4.554688 -2.890625 4.703125 -3.238281 4.703125 -3.6875 C 4.703125 -4.132812 4.554688 -4.476562 4.265625 -4.71875 C 3.972656 -4.96875 3.546875 -5.09375 2.984375 -5.09375 L 1.5 -5.09375 L 1.5 -2.28125 Z M 2.984375 -2.28125 "/></g></g></g><g fill="#545454" fill-opacity="1"><g transform="translate(199.805701, 225.008309)"><g><path d="M 0.90625 -5.59375 L 1.5 -5.59375 L 1.5 -0.515625 L 4.640625 -0.515625 L 4.640625 0 L 0.90625 0 Z M 0.90625 -5.59375 "/></g></g></g><g fill="#545454" fill-opacity="1"><g transform="translate(210.645782, 225.008309)"><g><path d="M 0.90625 -5.59375 L 1.5 -5.59375 L 1.5 0 L 0.90625 0 Z M 0.90625 -5.59375 "/></g></g></g><g fill="#545454" fill-opacity="1"><g transform="translate(219.189834, 225.008309)"><g><path d="M 1.5 -5.09375 L 1.5 -2.890625 L 4.40625 -2.890625 L 4.40625 -2.375 L 1.5 -2.375 L 1.5 0 L 0.90625 0 L 0.90625 -5.59375 L 4.75 -5.59375 L 4.75 -5.09375 Z M 1.5 -5.09375 "/></g></g></g><g fill="#545454" fill-opacity="1"><g transform="translate(230.381917, 225.008309)"><g><path d="M 2.828125 -1.9375 L 2.828125 0 L 2.25 0 L 2.25 -1.9375 L 0.015625 -5.59375 L 0.640625 -5.59375 L 2.5625 -2.453125 L 4.484375 -5.59375 L 5.078125 -5.59375 Z M 2.828125 -1.9375 "/></g></g></g><g fill="#545454" fill-opacity="1"><g transform="translate(241.590001, 225.008309)"><g/></g></g><g fill="#545454" fill-opacity="1"><g transform="translate(249.814054, 225.008309)"><g><path d="M 3.015625 -5.59375 C 3.722656 -5.59375 4.28125 -5.421875 4.6875 -5.078125 C 5.09375 -4.742188 5.296875 -4.28125 5.296875 -3.6875 C 5.296875 -3.082031 5.09375 -2.609375 4.6875 -2.265625 C 4.28125 -1.929688 3.722656 -1.765625 3.015625 -1.765625 L 1.5 -1.765625 L 1.5 0 L 0.90625 0 L 0.90625 -5.59375 Z M 2.984375 -2.28125 C 3.546875 -2.28125 3.972656 -2.398438 4.265625 -2.640625 C 4.554688 -2.890625 4.703125 -3.238281 4.703125 -3.6875 C 4.703125 -4.132812 4.554688 -4.476562 4.265625 -4.71875 C 3.972656 -4.96875 3.546875 -5.09375 2.984375 -5.09375 L 1.5 -5.09375 L 1.5 -2.28125 Z M 2.984375 -2.28125 "/></g></g></g><g fill="#545454" fill-opacity="1"><g transform="translate(261.686143, 225.008309)"><g><path d="M 4.734375 0 L 3.453125 -1.796875 C 3.304688 -1.785156 3.160156 -1.78125 3.015625 -1.78125 L 1.5 -1.78125 L 1.5 0 L 0.90625 0 L 0.90625 -5.59375 L 3.015625 -5.59375 C 3.722656 -5.59375 4.28125 -5.421875 4.6875 -5.078125 C 5.09375 -4.742188 5.296875 -4.28125 5.296875 -3.6875 C 5.296875 -3.25 5.179688 -2.878906 4.953125 -2.578125 C 4.734375 -2.273438 4.421875 -2.054688 4.015625 -1.921875 L 5.390625 0 Z M 2.984375 -2.28125 C 3.546875 -2.28125 3.972656 -2.398438 4.265625 -2.640625 C 4.554688 -2.890625 4.703125 -3.238281 4.703125 -3.6875 C 4.703125 -4.132812 4.554688 -4.476562 4.265625 -4.71875 C 3.972656 -4.96875 3.546875 -5.09375 2.984375 -5.09375 L 1.5 -5.09375 L 1.5 -2.28125 Z M 2.984375 -2.28125 "/></g></g></g><g fill="#545454" fill-opacity="1"><g transform="translate(273.59823, 225.008309)"><g><path d="M 3.359375 0.046875 C 2.804688 0.046875 2.300781 -0.078125 1.84375 -0.328125 C 1.394531 -0.578125 1.046875 -0.914062 0.796875 -1.34375 C 0.546875 -1.769531 0.421875 -2.253906 0.421875 -2.796875 C 0.421875 -3.335938 0.546875 -3.820312 0.796875 -4.25 C 1.046875 -4.6875 1.394531 -5.023438 1.84375 -5.265625 C 2.300781 -5.515625 2.804688 -5.640625 3.359375 -5.640625 C 3.910156 -5.640625 4.410156 -5.515625 4.859375 -5.265625 C 5.304688 -5.023438 5.65625 -4.6875 5.90625 -4.25 C 6.164062 -3.820312 6.296875 -3.335938 6.296875 -2.796875 C 6.296875 -2.253906 6.164062 -1.765625 5.90625 -1.328125 C 5.65625 -0.898438 5.304688 -0.5625 4.859375 -0.3125 C 4.410156 -0.0703125 3.910156 0.046875 3.359375 0.046875 Z M 3.359375 -0.484375 C 3.804688 -0.484375 4.207031 -0.582031 4.5625 -0.78125 C 4.914062 -0.976562 5.191406 -1.253906 5.390625 -1.609375 C 5.597656 -1.960938 5.703125 -2.359375 5.703125 -2.796875 C 5.703125 -3.234375 5.597656 -3.628906 5.390625 -3.984375 C 5.191406 -4.335938 4.914062 -4.613281 4.5625 -4.8125 C 4.207031 -5.019531 3.804688 -5.125 3.359375 -5.125 C 2.921875 -5.125 2.519531 -5.019531 2.15625 -4.8125 C 1.789062 -4.613281 1.503906 -4.335938 1.296875 -3.984375 C 1.097656 -3.628906 1 -3.234375 1 -2.796875 C 1 -2.359375 1.097656 -1.960938 1.296875 -1.609375 C 1.503906 -1.253906 1.789062 -0.976562 2.15625 -0.78125 C 2.519531 -0.582031 2.921875 -0.484375 3.359375 -0.484375 Z M 3.359375 -0.484375 "/></g></g></g><g fill="#545454" fill-opacity="1"><g transform="translate(286.43833, 225.008309)"><g><path d="M 3.015625 -5.59375 C 3.722656 -5.59375 4.28125 -5.421875 4.6875 -5.078125 C 5.09375 -4.742188 5.296875 -4.28125 5.296875 -3.6875 C 5.296875 -3.082031 5.09375 -2.609375 4.6875 -2.265625 C 4.28125 -1.929688 3.722656 -1.765625 3.015625 -1.765625 L 1.5 -1.765625 L 1.5 0 L 0.90625 0 L 0.90625 -5.59375 Z M 2.984375 -2.28125 C 3.546875 -2.28125 3.972656 -2.398438 4.265625 -2.640625 C 4.554688 -2.890625 4.703125 -3.238281 4.703125 -3.6875 C 4.703125 -4.132812 4.554688 -4.476562 4.265625 -4.71875 C 3.972656 -4.96875 3.546875 -5.09375 2.984375 -5.09375 L 1.5 -5.09375 L 1.5 -2.28125 Z M 2.984375 -2.28125 "/></g></g></g><g fill="#545454" fill-opacity="1"><g transform="translate(298.310419, 225.008309)"><g><path d="M 4.875 -0.515625 L 4.875 0 L 0.90625 0 L 0.90625 -5.59375 L 4.75 -5.59375 L 4.75 -5.09375 L 1.5 -5.09375 L 1.5 -3.09375 L 4.40625 -3.09375 L 4.40625 -2.59375 L 1.5 -2.59375 L 1.5 -0.515625 Z M 4.875 -0.515625 "/></g></g></g><g fill="#545454" fill-opacity="1"><g transform="translate(309.790508, 225.008309)"><g><path d="M 4.734375 0 L 3.453125 -1.796875 C 3.304688 -1.785156 3.160156 -1.78125 3.015625 -1.78125 L 1.5 -1.78125 L 1.5 0 L 0.90625 0 L 0.90625 -5.59375 L 3.015625 -5.59375 C 3.722656 -5.59375 4.28125 -5.421875 4.6875 -5.078125 C 5.09375 -4.742188 5.296875 -4.28125 5.296875 -3.6875 C 5.296875 -3.25 5.179688 -2.878906 4.953125 -2.578125 C 4.734375 -2.273438 4.421875 -2.054688 4.015625 -1.921875 L 5.390625 0 Z M 2.984375 -2.28125 C 3.546875 -2.28125 3.972656 -2.398438 4.265625 -2.640625 C 4.554688 -2.890625 4.703125 -3.238281 4.703125 -3.6875 C 4.703125 -4.132812 4.554688 -4.476562 4.265625 -4.71875 C 3.972656 -4.96875 3.546875 -5.09375 2.984375 -5.09375 L 1.5 -5.09375 L 1.5 -2.28125 Z M 2.984375 -2.28125 "/></g></g></g><g fill="#545454" fill-opacity="1"><g transform="translate(321.702595, 225.008309)"><g><path d="M 2 -5.09375 L 0.03125 -5.09375 L 0.03125 -5.59375 L 4.5625 -5.59375 L 4.5625 -5.09375 L 2.59375 -5.09375 L 2.59375 0 L 2 0 Z M 2 -5.09375 "/></g></g></g><g fill="#545454" fill-opacity="1"><g transform="translate(332.422671, 225.008309)"><g><path d="M 2.828125 -1.9375 L 2.828125 0 L 2.25 0 L 2.25 -1.9375 L 0.015625 -5.59375 L 0.640625 -5.59375 L 2.5625 -2.453125 L 4.484375 -5.59375 L 5.078125 -5.59375 Z M 2.828125 -1.9375 "/></g></g></g><g fill="#545454" fill-opacity="1"><g transform="translate(165.969247, 235.67502)"><g><path d="M 6.734375 -5.59375 L 6.734375 0 L 6.15625 0 L 6.15625 -4.484375 L 3.953125 -0.71875 L 3.6875 -0.71875 L 1.484375 -4.453125 L 1.484375 0 L 0.90625 0 L 0.90625 -5.59375 L 1.40625 -5.59375 L 3.828125 -1.453125 L 6.234375 -5.59375 Z M 6.734375 -5.59375 "/></g></g></g><g fill="#545454" fill-opacity="1"><g transform="translate(179.73736, 235.67502)"><g><path d="M 4.421875 -1.5 L 1.296875 -1.5 L 0.625 0 L 0.015625 0 L 2.578125 -5.59375 L 3.15625 -5.59375 L 5.71875 0 L 5.09375 0 Z M 4.203125 -1.96875 L 2.859375 -4.984375 L 1.515625 -1.96875 Z M 4.203125 -1.96875 "/></g></g></g><g fill="#545454" fill-opacity="1"><g transform="translate(191.601453, 235.67502)"><g><path d="M 5.59375 -5.59375 L 5.59375 0 L 5.109375 0 L 1.5 -4.546875 L 1.5 0 L 0.90625 0 L 0.90625 -5.59375 L 1.40625 -5.59375 L 5.015625 -1.0625 L 5.015625 -5.59375 Z M 5.59375 -5.59375 "/></g></g></g><g fill="#545454" fill-opacity="1"><g transform="translate(204.233554, 235.67502)"><g><path d="M 4.421875 -1.5 L 1.296875 -1.5 L 0.625 0 L 0.015625 0 L 2.578125 -5.59375 L 3.15625 -5.59375 L 5.71875 0 L 5.09375 0 Z M 4.203125 -1.96875 L 2.859375 -4.984375 L 1.515625 -1.96875 Z M 4.203125 -1.96875 "/></g></g></g><g fill="#545454" fill-opacity="1"><g transform="translate(216.097647, 235.67502)"><g><path d="M 4.859375 -2.796875 L 5.421875 -2.796875 L 5.421875 -0.65625 C 5.160156 -0.425781 4.847656 -0.25 4.484375 -0.125 C 4.128906 -0.0078125 3.757812 0.046875 3.375 0.046875 C 2.8125 0.046875 2.304688 -0.0703125 1.859375 -0.3125 C 1.410156 -0.5625 1.054688 -0.898438 0.796875 -1.328125 C 0.546875 -1.765625 0.421875 -2.253906 0.421875 -2.796875 C 0.421875 -3.335938 0.546875 -3.820312 0.796875 -4.25 C 1.054688 -4.6875 1.410156 -5.023438 1.859375 -5.265625 C 2.304688 -5.515625 2.8125 -5.640625 3.375 -5.640625 C 3.800781 -5.640625 4.191406 -5.570312 4.546875 -5.4375 C 4.910156 -5.300781 5.210938 -5.101562 5.453125 -4.84375 L 5.09375 -4.46875 C 4.644531 -4.90625 4.082031 -5.125 3.40625 -5.125 C 2.945312 -5.125 2.535156 -5.019531 2.171875 -4.8125 C 1.804688 -4.613281 1.519531 -4.335938 1.3125 -3.984375 C 1.101562 -3.628906 1 -3.234375 1 -2.796875 C 1 -2.359375 1.101562 -1.960938 1.3125 -1.609375 C 1.519531 -1.265625 1.804688 -0.988281 2.171875 -0.78125 C 2.535156 -0.582031 2.941406 -0.484375 3.390625 -0.484375 C 3.960938 -0.484375 4.453125 -0.625 4.859375 -0.90625 Z M 4.859375 -2.796875 "/></g></g></g><g fill="#545454" fill-opacity="1"><g transform="translate(228.40974, 235.67502)"><g><path d="M 4.875 -0.515625 L 4.875 0 L 0.90625 0 L 0.90625 -5.59375 L 4.75 -5.59375 L 4.75 -5.09375 L 1.5 -5.09375 L 1.5 -3.09375 L 4.40625 -3.09375 L 4.40625 -2.59375 L 1.5 -2.59375 L 1.5 -0.515625 Z M 4.875 -0.515625 "/></g></g></g><g fill="#545454" fill-opacity="1"><g transform="translate(239.889828, 235.67502)"><g><path d="M 6.734375 -5.59375 L 6.734375 0 L 6.15625 0 L 6.15625 -4.484375 L 3.953125 -0.71875 L 3.6875 -0.71875 L 1.484375 -4.453125 L 1.484375 0 L 0.90625 0 L 0.90625 -5.59375 L 1.40625 -5.59375 L 3.828125 -1.453125 L 6.234375 -5.59375 Z M 6.734375 -5.59375 "/></g></g></g><g fill="#545454" fill-opacity="1"><g transform="translate(253.657941, 235.67502)"><g><path d="M 4.875 -0.515625 L 4.875 0 L 0.90625 0 L 0.90625 -5.59375 L 4.75 -5.59375 L 4.75 -5.09375 L 1.5 -5.09375 L 1.5 -3.09375 L 4.40625 -3.09375 L 4.40625 -2.59375 L 1.5 -2.59375 L 1.5 -0.515625 Z M 4.875 -0.515625 "/></g></g></g><g fill="#545454" fill-opacity="1"><g transform="translate(265.13803, 235.67502)"><g><path d="M 5.59375 -5.59375 L 5.59375 0 L 5.109375 0 L 1.5 -4.546875 L 1.5 0 L 0.90625 0 L 0.90625 -5.59375 L 1.40625 -5.59375 L 5.015625 -1.0625 L 5.015625 -5.59375 Z M 5.59375 -5.59375 "/></g></g></g><g fill="#545454" fill-opacity="1"><g transform="translate(277.770131, 235.67502)"><g><path d="M 2 -5.09375 L 0.03125 -5.09375 L 0.03125 -5.59375 L 4.5625 -5.59375 L 4.5625 -5.09375 L 2.59375 -5.09375 L 2.59375 0 L 2 0 Z M 2 -5.09375 "/></g></g></g><g fill="#545454" fill-opacity="1"><g transform="translate(288.490207, 235.67502)"><g/></g></g><g fill="#545454" fill-opacity="1"><g transform="translate(296.71426, 235.67502)"><g><path d="M 8.59375 -5.59375 L 6.71875 0 L 6.09375 0 L 4.453125 -4.78125 L 2.796875 0 L 2.1875 0 L 0.296875 -5.59375 L 0.90625 -5.59375 L 2.515625 -0.78125 L 4.1875 -5.59375 L 4.75 -5.59375 L 6.390625 -0.765625 L 8.03125 -5.59375 Z M 8.59375 -5.59375 "/></g></g></g><g fill="#545454" fill-opacity="1"><g transform="translate(311.730385, 235.67502)"><g><path d="M 0.90625 -5.59375 L 1.5 -5.59375 L 1.5 0 L 0.90625 0 Z M 0.90625 -5.59375 "/></g></g></g><g fill="#545454" fill-opacity="1"><g transform="translate(320.274437, 235.67502)"><g><path d="M 2 -5.09375 L 0.03125 -5.09375 L 0.03125 -5.59375 L 4.5625 -5.59375 L 4.5625 -5.09375 L 2.59375 -5.09375 L 2.59375 0 L 2 0 Z M 2 -5.09375 "/></g></g></g><g fill="#545454" fill-opacity="1"><g transform="translate(330.994512, 235.67502)"><g><path d="M 5.59375 -5.59375 L 5.59375 0 L 5.015625 0 L 5.015625 -2.578125 L 1.5 -2.578125 L 1.5 0 L 0.90625 0 L 0.90625 -5.59375 L 1.5 -5.59375 L 1.5 -3.109375 L 5.015625 -3.109375 L 5.015625 -5.59375 Z M 5.59375 -5.59375 "/></g></g></g><g fill="#ff5757" fill-opacity="1"><g transform="translate(243.177899, 246.34173)"><g><path d="M 0.84375 -5.59375 L 3.203125 -5.59375 C 3.796875 -5.59375 4.320312 -5.472656 4.78125 -5.234375 C 5.238281 -5.003906 5.59375 -4.675781 5.84375 -4.25 C 6.09375 -3.832031 6.21875 -3.347656 6.21875 -2.796875 C 6.21875 -2.242188 6.09375 -1.753906 5.84375 -1.328125 C 5.59375 -0.910156 5.238281 -0.582031 4.78125 -0.34375 C 4.320312 -0.113281 3.796875 0 3.203125 0 L 0.84375 0 Z M 3.15625 -0.703125 C 3.601562 -0.703125 4 -0.785156 4.34375 -0.953125 C 4.6875 -1.128906 4.953125 -1.375 5.140625 -1.6875 C 5.328125 -2.007812 5.421875 -2.378906 5.421875 -2.796875 C 5.421875 -3.210938 5.328125 -3.578125 5.140625 -3.890625 C 4.953125 -4.210938 4.6875 -4.460938 4.34375 -4.640625 C 4 -4.816406 3.601562 -4.90625 3.15625 -4.90625 L 1.640625 -4.90625 L 1.640625 -0.703125 Z M 3.15625 -0.703125 "/></g></g></g><g fill="#ff5757" fill-opacity="1"><g transform="translate(255.913994, 246.34173)"><g><path d="M 0.84375 -5.59375 L 1.640625 -5.59375 L 1.640625 0 L 0.84375 0 Z M 0.84375 -5.59375 "/></g></g></g><g fill="#ff5757" fill-opacity="1"><g transform="translate(264.522052, 246.34173)"><g><path d="M 2.46875 0.0625 C 2.050781 0.0625 1.644531 0 1.25 -0.125 C 0.851562 -0.257812 0.546875 -0.429688 0.328125 -0.640625 L 0.625 -1.265625 C 0.832031 -1.066406 1.101562 -0.90625 1.4375 -0.78125 C 1.769531 -0.664062 2.113281 -0.609375 2.46875 -0.609375 C 2.9375 -0.609375 3.285156 -0.6875 3.515625 -0.84375 C 3.742188 -1.007812 3.859375 -1.222656 3.859375 -1.484375 C 3.859375 -1.671875 3.796875 -1.820312 3.671875 -1.9375 C 3.546875 -2.0625 3.390625 -2.15625 3.203125 -2.21875 C 3.015625 -2.28125 2.753906 -2.351562 2.421875 -2.4375 C 2.003906 -2.539062 1.664062 -2.640625 1.40625 -2.734375 C 1.144531 -2.835938 0.921875 -2.992188 0.734375 -3.203125 C 0.554688 -3.421875 0.46875 -3.707031 0.46875 -4.0625 C 0.46875 -4.363281 0.546875 -4.632812 0.703125 -4.875 C 0.859375 -5.113281 1.09375 -5.300781 1.40625 -5.4375 C 1.726562 -5.582031 2.128906 -5.65625 2.609375 -5.65625 C 2.941406 -5.65625 3.265625 -5.613281 3.578125 -5.53125 C 3.898438 -5.445312 4.175781 -5.328125 4.40625 -5.171875 L 4.140625 -4.53125 C 3.910156 -4.675781 3.660156 -4.785156 3.390625 -4.859375 C 3.117188 -4.941406 2.859375 -4.984375 2.609375 -4.984375 C 2.148438 -4.984375 1.804688 -4.898438 1.578125 -4.734375 C 1.359375 -4.566406 1.25 -4.351562 1.25 -4.09375 C 1.25 -3.90625 1.3125 -3.75 1.4375 -3.625 C 1.5625 -3.507812 1.71875 -3.414062 1.90625 -3.34375 C 2.101562 -3.28125 2.363281 -3.210938 2.6875 -3.140625 C 3.101562 -3.035156 3.441406 -2.929688 3.703125 -2.828125 C 3.960938 -2.734375 4.179688 -2.582031 4.359375 -2.375 C 4.546875 -2.164062 4.640625 -1.882812 4.640625 -1.53125 C 4.640625 -1.238281 4.554688 -0.96875 4.390625 -0.71875 C 4.234375 -0.476562 3.992188 -0.285156 3.671875 -0.140625 C 3.347656 -0.00390625 2.945312 0.0625 2.46875 0.0625 Z M 2.46875 0.0625 "/></g></g></g><g fill="#ff5757" fill-opacity="1"><g transform="translate(275.618136, 246.34173)"><g><path d="M 3.34375 0.0625 C 2.78125 0.0625 2.273438 -0.0625 1.828125 -0.3125 C 1.378906 -0.5625 1.023438 -0.898438 0.765625 -1.328125 C 0.515625 -1.765625 0.390625 -2.253906 0.390625 -2.796875 C 0.390625 -3.335938 0.515625 -3.828125 0.765625 -4.265625 C 1.023438 -4.703125 1.378906 -5.039062 1.828125 -5.28125 C 2.285156 -5.53125 2.796875 -5.65625 3.359375 -5.65625 C 3.796875 -5.65625 4.191406 -5.582031 4.546875 -5.4375 C 4.910156 -5.289062 5.222656 -5.078125 5.484375 -4.796875 L 4.953125 -4.28125 C 4.535156 -4.726562 4.015625 -4.953125 3.390625 -4.953125 C 2.972656 -4.953125 2.59375 -4.859375 2.25 -4.671875 C 1.914062 -4.484375 1.65625 -4.222656 1.46875 -3.890625 C 1.28125 -3.566406 1.1875 -3.203125 1.1875 -2.796875 C 1.1875 -2.390625 1.28125 -2.019531 1.46875 -1.6875 C 1.65625 -1.363281 1.914062 -1.109375 2.25 -0.921875 C 2.59375 -0.734375 2.972656 -0.640625 3.390625 -0.640625 C 4.003906 -0.640625 4.523438 -0.863281 4.953125 -1.3125 L 5.484375 -0.8125 C 5.222656 -0.53125 4.910156 -0.3125 4.546875 -0.15625 C 4.179688 -0.0078125 3.78125 0.0625 3.34375 0.0625 Z M 3.34375 0.0625 "/></g></g></g><g fill="#ff5757" fill-opacity="1"><g transform="translate(287.530224, 246.34173)"><g><path d="M 3.15625 0.0625 C 2.414062 0.0625 1.835938 -0.148438 1.421875 -0.578125 C 1.003906 -1.003906 0.796875 -1.617188 0.796875 -2.421875 L 0.796875 -5.59375 L 1.59375 -5.59375 L 1.59375 -2.453125 C 1.59375 -1.242188 2.117188 -0.640625 3.171875 -0.640625 C 3.679688 -0.640625 4.070312 -0.785156 4.34375 -1.078125 C 4.613281 -1.378906 4.75 -1.835938 4.75 -2.453125 L 4.75 -5.59375 L 5.53125 -5.59375 L 5.53125 -2.421875 C 5.53125 -1.609375 5.320312 -0.988281 4.90625 -0.5625 C 4.488281 -0.144531 3.90625 0.0625 3.15625 0.0625 Z M 3.15625 0.0625 "/></g></g></g><g fill="#ff5757" fill-opacity="1"><g transform="translate(299.98632, 246.34173)"><g><path d="M 2.46875 0.0625 C 2.050781 0.0625 1.644531 0 1.25 -0.125 C 0.851562 -0.257812 0.546875 -0.429688 0.328125 -0.640625 L 0.625 -1.265625 C 0.832031 -1.066406 1.101562 -0.90625 1.4375 -0.78125 C 1.769531 -0.664062 2.113281 -0.609375 2.46875 -0.609375 C 2.9375 -0.609375 3.285156 -0.6875 3.515625 -0.84375 C 3.742188 -1.007812 3.859375 -1.222656 3.859375 -1.484375 C 3.859375 -1.671875 3.796875 -1.820312 3.671875 -1.9375 C 3.546875 -2.0625 3.390625 -2.15625 3.203125 -2.21875 C 3.015625 -2.28125 2.753906 -2.351562 2.421875 -2.4375 C 2.003906 -2.539062 1.664062 -2.640625 1.40625 -2.734375 C 1.144531 -2.835938 0.921875 -2.992188 0.734375 -3.203125 C 0.554688 -3.421875 0.46875 -3.707031 0.46875 -4.0625 C 0.46875 -4.363281 0.546875 -4.632812 0.703125 -4.875 C 0.859375 -5.113281 1.09375 -5.300781 1.40625 -5.4375 C 1.726562 -5.582031 2.128906 -5.65625 2.609375 -5.65625 C 2.941406 -5.65625 3.265625 -5.613281 3.578125 -5.53125 C 3.898438 -5.445312 4.175781 -5.328125 4.40625 -5.171875 L 4.140625 -4.53125 C 3.910156 -4.675781 3.660156 -4.785156 3.390625 -4.859375 C 3.117188 -4.941406 2.859375 -4.984375 2.609375 -4.984375 C 2.148438 -4.984375 1.804688 -4.898438 1.578125 -4.734375 C 1.359375 -4.566406 1.25 -4.351562 1.25 -4.09375 C 1.25 -3.90625 1.3125 -3.75 1.4375 -3.625 C 1.5625 -3.507812 1.71875 -3.414062 1.90625 -3.34375 C 2.101562 -3.28125 2.363281 -3.210938 2.6875 -3.140625 C 3.101562 -3.035156 3.441406 -2.929688 3.703125 -2.828125 C 3.960938 -2.734375 4.179688 -2.582031 4.359375 -2.375 C 4.546875 -2.164062 4.640625 -1.882812 4.640625 -1.53125 C 4.640625 -1.238281 4.554688 -0.96875 4.390625 -0.71875 C 4.234375 -0.476562 3.992188 -0.285156 3.671875 -0.140625 C 3.347656 -0.00390625 2.945312 0.0625 2.46875 0.0625 Z M 2.46875 0.0625 "/></g></g></g><g fill="#ff5757" fill-opacity="1"><g transform="translate(311.082404, 246.34173)"><g><path d="M 2.46875 0.0625 C 2.050781 0.0625 1.644531 0 1.25 -0.125 C 0.851562 -0.257812 0.546875 -0.429688 0.328125 -0.640625 L 0.625 -1.265625 C 0.832031 -1.066406 1.101562 -0.90625 1.4375 -0.78125 C 1.769531 -0.664062 2.113281 -0.609375 2.46875 -0.609375 C 2.9375 -0.609375 3.285156 -0.6875 3.515625 -0.84375 C 3.742188 -1.007812 3.859375 -1.222656 3.859375 -1.484375 C 3.859375 -1.671875 3.796875 -1.820312 3.671875 -1.9375 C 3.546875 -2.0625 3.390625 -2.15625 3.203125 -2.21875 C 3.015625 -2.28125 2.753906 -2.351562 2.421875 -2.4375 C 2.003906 -2.539062 1.664062 -2.640625 1.40625 -2.734375 C 1.144531 -2.835938 0.921875 -2.992188 0.734375 -3.203125 C 0.554688 -3.421875 0.46875 -3.707031 0.46875 -4.0625 C 0.46875 -4.363281 0.546875 -4.632812 0.703125 -4.875 C 0.859375 -5.113281 1.09375 -5.300781 1.40625 -5.4375 C 1.726562 -5.582031 2.128906 -5.65625 2.609375 -5.65625 C 2.941406 -5.65625 3.265625 -5.613281 3.578125 -5.53125 C 3.898438 -5.445312 4.175781 -5.328125 4.40625 -5.171875 L 4.140625 -4.53125 C 3.910156 -4.675781 3.660156 -4.785156 3.390625 -4.859375 C 3.117188 -4.941406 2.859375 -4.984375 2.609375 -4.984375 C 2.148438 -4.984375 1.804688 -4.898438 1.578125 -4.734375 C 1.359375 -4.566406 1.25 -4.351562 1.25 -4.09375 C 1.25 -3.90625 1.3125 -3.75 1.4375 -3.625 C 1.5625 -3.507812 1.71875 -3.414062 1.90625 -3.34375 C 2.101562 -3.28125 2.363281 -3.210938 2.6875 -3.140625 C 3.101562 -3.035156 3.441406 -2.929688 3.703125 -2.828125 C 3.960938 -2.734375 4.179688 -2.582031 4.359375 -2.375 C 4.546875 -2.164062 4.640625 -1.882812 4.640625 -1.53125 C 4.640625 -1.238281 4.554688 -0.96875 4.390625 -0.71875 C 4.234375 -0.476562 3.992188 -0.285156 3.671875 -0.140625 C 3.347656 -0.00390625 2.945312 0.0625 2.46875 0.0625 Z M 2.46875 0.0625 "/></g></g></g><g fill="#ff5757" fill-opacity="1"><g transform="translate(322.178489, 246.34173)"><g><path d="M 0.84375 -5.59375 L 1.640625 -5.59375 L 1.640625 0 L 0.84375 0 Z M 0.84375 -5.59375 "/></g></g></g><g fill="#ff5757" fill-opacity="1"><g transform="translate(330.786546, 246.34173)"><g><path d="M 3.375 0.0625 C 2.800781 0.0625 2.285156 -0.0625 1.828125 -0.3125 C 1.378906 -0.5625 1.023438 -0.898438 0.765625 -1.328125 C 0.515625 -1.765625 0.390625 -2.253906 0.390625 -2.796875 C 0.390625 -3.335938 0.515625 -3.828125 0.765625 -4.265625 C 1.023438 -4.703125 1.378906 -5.039062 1.828125 -5.28125 C 2.285156 -5.53125 2.800781 -5.65625 3.375 -5.65625 C 3.925781 -5.65625 4.425781 -5.53125 4.875 -5.28125 C 5.332031 -5.039062 5.6875 -4.703125 5.9375 -4.265625 C 6.195312 -3.828125 6.328125 -3.335938 6.328125 -2.796875 C 6.328125 -2.253906 6.195312 -1.765625 5.9375 -1.328125 C 5.6875 -0.898438 5.332031 -0.5625 4.875 -0.3125 C 4.425781 -0.0625 3.925781 0.0625 3.375 0.0625 Z M 3.375 -0.640625 C 3.78125 -0.640625 4.144531 -0.734375 4.46875 -0.921875 C 4.800781 -1.109375 5.0625 -1.363281 5.25 -1.6875 C 5.4375 -2.019531 5.53125 -2.390625 5.53125 -2.796875 C 5.53125 -3.203125 5.4375 -3.566406 5.25 -3.890625 C 5.0625 -4.222656 4.800781 -4.484375 4.46875 -4.671875 C 4.144531 -4.859375 3.78125 -4.953125 3.375 -4.953125 C 2.957031 -4.953125 2.582031 -4.859375 2.25 -4.671875 C 1.914062 -4.484375 1.65625 -4.222656 1.46875 -3.890625 C 1.28125 -3.566406 1.1875 -3.203125 1.1875 -2.796875 C 1.1875 -2.390625 1.28125 -2.019531 1.46875 -1.6875 C 1.65625 -1.363281 1.914062 -1.109375 2.25 -0.921875 C 2.582031 -0.734375 2.957031 -0.640625 3.375 -0.640625 Z M 3.375 -0.640625 "/></g></g></g><g fill="#000000" fill-opacity="1"><g transform="translate(155.315809, 201.302068)"><g><path d="M 12.28125 0.234375 C 10.195312 0.234375 8.203125 -0.0976562 6.296875 -0.765625 C 4.390625 -1.429688 2.914062 -2.3125 1.875 -3.40625 L 3.046875 -5.6875 C 4.054688 -4.664062 5.398438 -3.84375 7.078125 -3.21875 C 8.753906 -2.59375 10.488281 -2.28125 12.28125 -2.28125 C 14.789062 -2.28125 16.671875 -2.738281 17.921875 -3.65625 C 19.171875 -4.582031 19.796875 -5.773438 19.796875 -7.234375 C 19.796875 -8.359375 19.457031 -9.253906 18.78125 -9.921875 C 18.101562 -10.585938 17.269531 -11.097656 16.28125 -11.453125 C 15.289062 -11.816406 13.914062 -12.210938 12.15625 -12.640625 C 10.050781 -13.171875 8.367188 -13.679688 7.109375 -14.171875 C 5.859375 -14.671875 4.785156 -15.425781 3.890625 -16.4375 C 3.003906 -17.445312 2.5625 -18.820312 2.5625 -20.5625 C 2.5625 -21.976562 2.929688 -23.265625 3.671875 -24.421875 C 4.421875 -25.578125 5.566406 -26.5 7.109375 -27.1875 C 8.660156 -27.882812 10.582031 -28.234375 12.875 -28.234375 C 14.476562 -28.234375 16.046875 -28.015625 17.578125 -27.578125 C 19.109375 -27.140625 20.4375 -26.535156 21.5625 -25.765625 L 20.5625 -23.40625 C 19.382812 -24.175781 18.128906 -24.753906 16.796875 -25.140625 C 15.460938 -25.523438 14.15625 -25.71875 12.875 -25.71875 C 10.425781 -25.71875 8.582031 -25.242188 7.34375 -24.296875 C 6.101562 -23.347656 5.484375 -22.128906 5.484375 -20.640625 C 5.484375 -19.515625 5.820312 -18.613281 6.5 -17.9375 C 7.175781 -17.257812 8.023438 -16.738281 9.046875 -16.375 C 10.078125 -16.019531 11.460938 -15.628906 13.203125 -15.203125 C 15.253906 -14.691406 16.910156 -14.1875 18.171875 -13.6875 C 19.441406 -13.195312 20.515625 -12.453125 21.390625 -11.453125 C 22.273438 -10.453125 22.71875 -9.101562 22.71875 -7.40625 C 22.71875 -5.988281 22.335938 -4.695312 21.578125 -3.53125 C 20.816406 -2.375 19.648438 -1.457031 18.078125 -0.78125 C 16.503906 -0.101562 14.570312 0.234375 12.28125 0.234375 Z M 12.28125 0.234375 "/></g></g></g><g fill="#000000" fill-opacity="1"><g transform="translate(179.753361, 201.302068)"><g><path d="M 16.71875 0.234375 C 13.945312 0.234375 11.445312 -0.375 9.21875 -1.59375 C 6.988281 -2.820312 5.238281 -4.519531 3.96875 -6.6875 C 2.707031 -8.863281 2.078125 -11.300781 2.078125 -14 C 2.078125 -16.695312 2.707031 -19.128906 3.96875 -21.296875 C 5.238281 -23.472656 6.992188 -25.171875 9.234375 -26.390625 C 11.472656 -27.617188 13.984375 -28.234375 16.765625 -28.234375 C 18.835938 -28.234375 20.753906 -27.882812 22.515625 -27.1875 C 24.273438 -26.5 25.769531 -25.488281 27 -24.15625 L 25.125 -22.28125 C 22.9375 -24.488281 20.175781 -25.59375 16.84375 -25.59375 C 14.625 -25.59375 12.609375 -25.085938 10.796875 -24.078125 C 8.984375 -23.066406 7.5625 -21.679688 6.53125 -19.921875 C 5.507812 -18.160156 5 -16.1875 5 -14 C 5 -11.8125 5.507812 -9.835938 6.53125 -8.078125 C 7.5625 -6.316406 8.984375 -4.929688 10.796875 -3.921875 C 12.609375 -2.910156 14.625 -2.40625 16.84375 -2.40625 C 20.195312 -2.40625 22.957031 -3.523438 25.125 -5.765625 L 27 -3.875 C 25.769531 -2.539062 24.269531 -1.519531 22.5 -0.8125 C 20.726562 -0.113281 18.800781 0.234375 16.71875 0.234375 Z M 16.71875 0.234375 "/></g></g></g><g fill="#000000" fill-opacity="1"><g transform="translate(208.350508, 201.302068)"><g><path d="M 15.84375 0.234375 C 12.21875 0.234375 9.390625 -0.800781 7.359375 -2.875 C 5.328125 -4.957031 4.3125 -7.984375 4.3125 -11.953125 L 4.3125 -28 L 7.28125 -28 L 7.28125 -12.078125 C 7.28125 -8.828125 8.015625 -6.398438 9.484375 -4.796875 C 10.953125 -3.203125 13.070312 -2.40625 15.84375 -2.40625 C 18.644531 -2.40625 20.773438 -3.203125 22.234375 -4.796875 C 23.703125 -6.398438 24.4375 -8.828125 24.4375 -12.078125 L 24.4375 -28 L 27.3125 -28 L 27.3125 -11.953125 C 27.3125 -7.984375 26.304688 -4.957031 24.296875 -2.875 C 22.285156 -0.800781 19.46875 0.234375 15.84375 0.234375 Z M 15.84375 0.234375 "/></g></g></g><g fill="#000000" fill-opacity="1"><g transform="translate(239.867363, 201.302068)"><g><path d="M 12.28125 0.234375 C 10.195312 0.234375 8.203125 -0.0976562 6.296875 -0.765625 C 4.390625 -1.429688 2.914062 -2.3125 1.875 -3.40625 L 3.046875 -5.6875 C 4.054688 -4.664062 5.398438 -3.84375 7.078125 -3.21875 C 8.753906 -2.59375 10.488281 -2.28125 12.28125 -2.28125 C 14.789062 -2.28125 16.671875 -2.738281 17.921875 -3.65625 C 19.171875 -4.582031 19.796875 -5.773438 19.796875 -7.234375 C 19.796875 -8.359375 19.457031 -9.253906 18.78125 -9.921875 C 18.101562 -10.585938 17.269531 -11.097656 16.28125 -11.453125 C 15.289062 -11.816406 13.914062 -12.210938 12.15625 -12.640625 C 10.050781 -13.171875 8.367188 -13.679688 7.109375 -14.171875 C 5.859375 -14.671875 4.785156 -15.425781 3.890625 -16.4375 C 3.003906 -17.445312 2.5625 -18.820312 2.5625 -20.5625 C 2.5625 -21.976562 2.929688 -23.265625 3.671875 -24.421875 C 4.421875 -25.578125 5.566406 -26.5 7.109375 -27.1875 C 8.660156 -27.882812 10.582031 -28.234375 12.875 -28.234375 C 14.476562 -28.234375 16.046875 -28.015625 17.578125 -27.578125 C 19.109375 -27.140625 20.4375 -26.535156 21.5625 -25.765625 L 20.5625 -23.40625 C 19.382812 -24.175781 18.128906 -24.753906 16.796875 -25.140625 C 15.460938 -25.523438 14.15625 -25.71875 12.875 -25.71875 C 10.425781 -25.71875 8.582031 -25.242188 7.34375 -24.296875 C 6.101562 -23.347656 5.484375 -22.128906 5.484375 -20.640625 C 5.484375 -19.515625 5.820312 -18.613281 6.5 -17.9375 C 7.175781 -17.257812 8.023438 -16.738281 9.046875 -16.375 C 10.078125 -16.019531 11.460938 -15.628906 13.203125 -15.203125 C 15.253906 -14.691406 16.910156 -14.1875 18.171875 -13.6875 C 19.441406 -13.195312 20.515625 -12.453125 21.390625 -11.453125 C 22.273438 -10.453125 22.71875 -9.101562 22.71875 -7.40625 C 22.71875 -5.988281 22.335938 -4.695312 21.578125 -3.53125 C 20.816406 -2.375 19.648438 -1.457031 18.078125 -0.78125 C 16.503906 -0.101562 14.570312 0.234375 12.28125 0.234375 Z M 12.28125 0.234375 "/></g></g></g><g fill="#000000" fill-opacity="1"><g transform="translate(264.304915, 201.302068)"><g><path d="M 12.28125 0.234375 C 10.195312 0.234375 8.203125 -0.0976562 6.296875 -0.765625 C 4.390625 -1.429688 2.914062 -2.3125 1.875 -3.40625 L 3.046875 -5.6875 C 4.054688 -4.664062 5.398438 -3.84375 7.078125 -3.21875 C 8.753906 -2.59375 10.488281 -2.28125 12.28125 -2.28125 C 14.789062 -2.28125 16.671875 -2.738281 17.921875 -3.65625 C 19.171875 -4.582031 19.796875 -5.773438 19.796875 -7.234375 C 19.796875 -8.359375 19.457031 -9.253906 18.78125 -9.921875 C 18.101562 -10.585938 17.269531 -11.097656 16.28125 -11.453125 C 15.289062 -11.816406 13.914062 -12.210938 12.15625 -12.640625 C 10.050781 -13.171875 8.367188 -13.679688 7.109375 -14.171875 C 5.859375 -14.671875 4.785156 -15.425781 3.890625 -16.4375 C 3.003906 -17.445312 2.5625 -18.820312 2.5625 -20.5625 C 2.5625 -21.976562 2.929688 -23.265625 3.671875 -24.421875 C 4.421875 -25.578125 5.566406 -26.5 7.109375 -27.1875 C 8.660156 -27.882812 10.582031 -28.234375 12.875 -28.234375 C 14.476562 -28.234375 16.046875 -28.015625 17.578125 -27.578125 C 19.109375 -27.140625 20.4375 -26.535156 21.5625 -25.765625 L 20.5625 -23.40625 C 19.382812 -24.175781 18.128906 -24.753906 16.796875 -25.140625 C 15.460938 -25.523438 14.15625 -25.71875 12.875 -25.71875 C 10.425781 -25.71875 8.582031 -25.242188 7.34375 -24.296875 C 6.101562 -23.347656 5.484375 -22.128906 5.484375 -20.640625 C 5.484375 -19.515625 5.820312 -18.613281 6.5 -17.9375 C 7.175781 -17.257812 8.023438 -16.738281 9.046875 -16.375 C 10.078125 -16.019531 11.460938 -15.628906 13.203125 -15.203125 C 15.253906 -14.691406 16.910156 -14.1875 18.171875 -13.6875 C 19.441406 -13.195312 20.515625 -12.453125 21.390625 -11.453125 C 22.273438 -10.453125 22.71875 -9.101562 22.71875 -7.40625 C 22.71875 -5.988281 22.335938 -4.695312 21.578125 -3.53125 C 20.816406 -2.375 19.648438 -1.457031 18.078125 -0.78125 C 16.503906 -0.101562 14.570312 0.234375 12.28125 0.234375 Z M 12.28125 0.234375 "/></g></g></g><g clip-path="url(#b077767aee)"><g clip-path="url(#ae8c77e9c9)"><path fill="#ff5757" d="M 143.820312 163 L 157.691406 163 L 157.691406 175.011719 L 143.820312 175.011719 Z M 143.820312 163 " fill-opacity="1" fill-rule="nonzero"/></g></g><g clip-path="url(#980959f23b)"><path fill="#ffffff" d="M 149.097656 169.484375 L 152.421875 169.484375 L 152.421875 172.808594 L 149.097656 172.808594 Z M 149.097656 169.484375 " fill-opacity="1" fill-rule="nonzero"/></g><g clip-path="url(#86232cec84)"><path fill="#000000" d="M 152.726562 170.90625 L 151.074219 170.90625 L 151.074219 169.253906 C 151.074219 169.117188 150.96875 169.007812 150.828125 169.007812 L 150.617188 169.007812 C 150.480469 169.007812 150.371094 169.117188 150.371094 169.253906 L 150.371094 170.90625 L 148.71875 170.90625 C 148.582031 170.90625 148.472656 171.011719 148.472656 171.152344 L 148.472656 171.363281 C 148.472656 171.5 148.582031 171.609375 148.71875 171.609375 L 150.371094 171.609375 L 150.371094 173.261719 C 150.371094 173.402344 150.480469 173.507812 150.617188 173.507812 L 150.828125 173.507812 C 150.96875 173.507812 151.074219 173.398438 151.074219 173.261719 L 151.074219 171.609375 L 152.726562 171.609375 C 152.867188 171.609375 152.972656 171.5 152.972656 171.363281 L 152.972656 171.152344 C 152.972656 171.011719 152.867188 170.90625 152.726562 170.90625 Z M 152.726562 170.90625 " fill-opacity="1" fill-rule="nonzero"/><path fill="#ff5757" d="M 152.726562 170.90625 L 151.074219 170.90625 L 151.074219 169.253906 C 151.074219 169.117188 150.96875 169.007812 150.828125 169.007812 L 150.617188 169.007812 C 150.480469 169.007812 150.371094 169.117188 150.371094 169.253906 L 150.371094 170.90625 L 148.71875 170.90625 C 148.582031 170.90625 148.472656 171.011719 148.472656 171.152344 L 148.472656 171.363281 C 148.472656 171.5 148.582031 171.609375 148.71875 171.609375 L 150.371094 171.609375 L 150.371094 173.261719 C 150.371094 173.402344 150.480469 173.507812 150.617188 173.507812 L 150.828125 173.507812 C 150.96875 173.507812 151.074219 173.398438 151.074219 173.261719 L 151.074219 171.609375 L 152.726562 171.609375 C 152.867188 171.609375 152.972656 171.5 152.972656 171.363281 L 152.972656 171.152344 C 152.972656 171.011719 152.867188 170.90625 152.726562 170.90625 Z M 152.726562 170.90625 " fill-opacity="1" fill-rule="nonzero"/></g><g fill="#ff5757" fill-opacity="1"><g transform="translate(144.713769, 201.749912)"><g><path d="M 4.5625 -28 L 7.515625 -28 L 7.515625 0 L 4.5625 0 Z M 4.5625 -28 "/></g></g></g><g clip-path="url(#c3606eb293)"><path fill="#000000" d="M 321.675781 197.042969 C 322.886719 197.042969 324.003906 196.8125 325.046875 196.347656 C 326.070312 195.886719 326.960938 195.273438 327.679688 194.464844 C 328.398438 193.65625 328.96875 192.734375 329.382812 191.675781 C 329.800781 190.617188 329.988281 189.484375 329.988281 188.273438 L 329.988281 188.195312 C 329.988281 186.984375 329.78125 185.851562 329.382812 184.773438 C 328.96875 183.695312 328.398438 182.753906 327.640625 181.964844 C 326.882812 181.15625 325.996094 180.523438 324.972656 180.0625 C 323.949219 179.601562 322.8125 179.351562 321.601562 179.351562 C 320.351562 179.351562 319.234375 179.582031 318.210938 180.042969 C 317.1875 180.503906 316.316406 181.117188 315.597656 181.925781 C 314.878906 182.734375 314.308594 183.65625 313.894531 184.714844 C 313.476562 185.773438 313.289062 186.90625 313.289062 188.117188 L 313.289062 188.195312 C 313.289062 189.40625 313.496094 190.542969 313.894531 191.617188 C 314.308594 192.695312 314.878906 193.636719 315.636719 194.425781 C 316.394531 195.234375 317.265625 195.867188 318.285156 196.332031 C 319.308594 196.8125 320.445312 197.042969 321.675781 197.042969 Z M 305.710938 201.15625 L 310.390625 201.15625 C 310.769531 201.15625 311.070312 201.464844 311.070312 201.847656 C 311.070312 202.234375 310.769531 202.542969 310.390625 202.542969 L 305.710938 202.542969 C 305.332031 202.542969 305.03125 202.234375 305.03125 201.847656 C 305.03125 201.464844 305.332031 201.15625 305.710938 201.15625 Z M 304.140625 195.695312 L 306.8125 195.695312 C 307.1875 195.695312 307.492188 196.003906 307.492188 196.386719 C 307.492188 196.773438 307.1875 197.078125 306.8125 197.078125 L 304.140625 197.078125 C 303.761719 197.078125 303.457031 196.773438 303.457031 196.386719 C 303.457031 196.003906 303.761719 195.695312 304.140625 195.695312 Z M 303.382812 184.753906 L 305.011719 184.753906 C 305.390625 184.753906 305.691406 185.0625 305.691406 185.445312 C 305.691406 185.832031 305.390625 186.136719 305.011719 186.136719 L 303.382812 186.136719 C 303.003906 186.136719 302.703125 185.832031 302.703125 185.445312 C 302.71875 185.0625 303.023438 184.753906 303.382812 184.753906 Z M 301.074219 187.484375 L 304.195312 187.484375 C 304.574219 187.484375 304.878906 187.792969 304.878906 188.175781 C 304.878906 188.5625 304.574219 188.867188 304.195312 188.867188 L 301.074219 188.867188 C 300.695312 188.867188 300.390625 188.5625 300.390625 188.175781 C 300.390625 187.792969 300.695312 187.484375 301.074219 187.484375 Z M 312.53125 199.792969 L 311.015625 199.792969 C 310.636719 199.792969 310.332031 199.484375 310.332031 199.097656 C 310.332031 198.734375 310.617188 198.445312 310.957031 198.425781 L 311.5625 198.425781 C 311.941406 198.425781 312.246094 198.117188 312.246094 197.734375 C 312.246094 197.347656 311.941406 197.042969 311.5625 197.042969 L 308.742188 197.042969 C 308.363281 197.042969 308.058594 196.734375 308.058594 196.347656 C 308.058594 195.964844 308.363281 195.65625 308.742188 195.65625 L 310.558594 195.65625 C 310.9375 195.65625 311.242188 195.347656 311.242188 194.964844 C 311.242188 194.582031 310.9375 194.273438 310.558594 194.273438 L 307.757812 194.273438 C 307.378906 194.273438 307.074219 193.964844 307.074219 193.582031 C 307.074219 193.234375 307.320312 192.964844 307.644531 192.90625 L 313.003906 192.90625 C 313.382812 192.90625 313.683594 192.597656 313.683594 192.214844 C 313.683594 191.832031 313.382812 191.523438 313.003906 191.523438 L 306.203125 191.523438 C 305.824219 191.523438 305.523438 191.214844 305.523438 190.832031 C 305.523438 190.445312 305.824219 190.136719 306.203125 190.136719 L 308.496094 190.136719 C 308.875 190.136719 309.179688 189.832031 309.179688 189.445312 C 309.179688 189.0625 308.875 188.753906 308.496094 188.753906 L 306.070312 188.753906 C 305.691406 188.753906 305.390625 188.445312 305.390625 188.0625 C 305.390625 187.675781 305.691406 187.367188 306.070312 187.367188 L 308.554688 187.367188 C 308.929688 187.367188 309.234375 187.0625 309.234375 186.675781 C 309.234375 186.292969 308.929688 185.984375 308.554688 185.984375 L 307.039062 185.984375 L 307.058594 185.90625 C 306.828125 185.792969 306.679688 185.5625 306.679688 185.292969 C 306.679688 184.925781 306.960938 184.636719 307.304688 184.617188 L 311.28125 184.617188 C 311.660156 184.617188 311.960938 184.3125 311.960938 183.925781 C 311.960938 183.542969 311.660156 183.234375 311.28125 183.234375 L 309.160156 183.234375 C 308.78125 183.234375 308.476562 182.925781 308.476562 182.542969 C 308.476562 182.15625 308.78125 181.851562 309.160156 181.851562 L 310.371094 181.851562 C 310.75 181.851562 311.050781 181.542969 311.050781 181.15625 C 311.050781 180.8125 310.804688 180.542969 310.484375 180.484375 L 307.113281 180.484375 C 306.734375 180.484375 306.433594 180.175781 306.433594 179.792969 C 306.433594 179.40625 306.734375 179.101562 307.113281 179.101562 L 312.8125 179.101562 C 312.871094 179.101562 312.925781 179.101562 312.984375 179.117188 L 313.171875 179.117188 C 313.550781 179.117188 313.855469 178.8125 313.855469 178.425781 C 313.855469 178.082031 313.609375 177.8125 313.289062 177.753906 L 310.824219 177.753906 C 310.445312 177.753906 310.144531 177.445312 310.144531 177.0625 C 310.144531 176.675781 310.445312 176.371094 310.824219 176.371094 L 312.605469 176.371094 C 312.625 176.371094 312.625 176.371094 312.644531 176.371094 L 315.277344 176.371094 C 315.65625 176.371094 315.957031 176.0625 315.957031 175.675781 C 315.957031 175.332031 315.710938 175.0625 315.390625 175.003906 L 312.832031 175.003906 C 312.453125 175.003906 312.152344 174.695312 312.152344 174.3125 C 312.152344 173.925781 312.453125 173.621094 312.832031 173.621094 C 315.824219 173.871094 318.796875 173.636719 321.675781 173.636719 C 323.816406 173.636719 325.785156 174.023438 327.585938 174.792969 C 329.382812 175.5625 330.9375 176.582031 332.242188 177.886719 C 333.550781 179.195312 334.574219 180.714844 335.292969 182.464844 C 336.011719 184.214844 336.390625 186.101562 336.390625 188.117188 L 336.390625 188.195312 C 336.390625 190.214844 336.011719 192.097656 335.273438 193.847656 C 334.535156 195.597656 333.511719 197.136719 332.207031 198.484375 C 330.898438 199.8125 329.347656 200.847656 327.527344 201.617188 C 325.710938 202.386719 323.742188 202.773438 321.601562 202.773438 C 318.703125 202.773438 315.710938 202.542969 312.71875 202.542969 C 312.339844 202.542969 312.039062 202.234375 312.039062 201.847656 C 312.039062 201.464844 312.339844 201.15625 312.71875 201.15625 L 314.785156 201.15625 C 315.160156 201.15625 315.464844 200.847656 315.464844 200.464844 C 315.464844 200.078125 315.160156 199.773438 314.785156 199.773438 L 312.53125 199.773438 Z M 310.164062 173.871094 L 311.167969 173.871094 C 311.546875 173.871094 311.847656 174.175781 311.847656 174.5625 C 311.847656 174.945312 311.546875 175.253906 311.167969 175.253906 L 310.164062 175.253906 C 309.785156 175.253906 309.480469 174.945312 309.480469 174.5625 C 309.5 174.175781 309.800781 173.871094 310.164062 173.871094 Z M 304.59375 192.964844 L 305.464844 192.964844 C 305.84375 192.964844 306.148438 193.273438 306.148438 193.65625 C 306.148438 194.042969 305.84375 194.347656 305.464844 194.347656 L 304.59375 194.347656 C 304.214844 194.347656 303.914062 194.042969 303.914062 193.65625 C 303.914062 193.273438 304.214844 192.964844 304.59375 192.964844 Z M 304.59375 192.964844 " fill-opacity="1" fill-rule="evenodd"/></g><g clip-path="url(#78ada37c8a)"><g clip-path="url(#960aa574c1)"><path fill="#ff5757" d="M 301.933594 213.046875 L 288.0625 213.046875 L 288.0625 201.035156 L 301.933594 201.035156 Z M 301.933594 213.046875 " fill-opacity="1" fill-rule="nonzero"/></g></g><g clip-path="url(#1b3e347eb6)"><path fill="#ffffff" d="M 296.65625 206.5625 L 293.332031 206.5625 L 293.332031 203.238281 L 296.65625 203.238281 Z M 296.65625 206.5625 " fill-opacity="1" fill-rule="nonzero"/></g><g clip-path="url(#ad0d0d0c2d)"><path fill="#000000" d="M 293.023438 205.144531 L 294.675781 205.144531 L 294.675781 206.792969 C 294.675781 206.929688 294.785156 207.042969 294.921875 207.042969 L 295.132812 207.042969 C 295.273438 207.042969 295.378906 206.929688 295.378906 206.792969 L 295.378906 205.144531 L 297.03125 205.144531 C 297.171875 205.144531 297.277344 205.035156 297.277344 204.898438 L 297.277344 204.6875 C 297.277344 204.550781 297.171875 204.441406 297.03125 204.441406 L 295.378906 204.441406 L 295.378906 202.785156 C 295.378906 202.648438 295.273438 202.542969 295.132812 202.542969 L 294.921875 202.542969 C 294.785156 202.542969 294.675781 202.652344 294.675781 202.785156 L 294.675781 204.441406 L 293.023438 204.441406 C 292.886719 204.441406 292.777344 204.550781 292.777344 204.6875 L 292.777344 204.898438 C 292.777344 205.035156 292.886719 205.144531 293.023438 205.144531 Z M 293.023438 205.144531 " fill-opacity="1" fill-rule="nonzero"/><path fill="#ff5757" d="M 293.023438 205.144531 L 294.675781 205.144531 L 294.675781 206.792969 C 294.675781 206.929688 294.785156 207.042969 294.921875 207.042969 L 295.132812 207.042969 C 295.273438 207.042969 295.378906 206.929688 295.378906 206.792969 L 295.378906 205.144531 L 297.03125 205.144531 C 297.171875 205.144531 297.277344 205.035156 297.277344 204.898438 L 297.277344 204.6875 C 297.277344 204.550781 297.171875 204.441406 297.03125 204.441406 L 295.378906 204.441406 L 295.378906 202.785156 C 295.378906 202.648438 295.273438 202.542969 295.132812 202.542969 L 294.921875 202.542969 C 294.785156 202.542969 294.675781 202.652344 294.675781 202.785156 L 294.675781 204.441406 L 293.023438 204.441406 C 292.886719 204.441406 292.777344 204.550781 292.777344 204.6875 L 292.777344 204.898438 C 292.777344 205.035156 292.886719 205.144531 293.023438 205.144531 Z M 293.023438 205.144531 " fill-opacity="1" fill-rule="nonzero"/></g><g fill="#ff5757" fill-opacity="1"><g transform="translate(301.039701, 174.298289)"><g><path d="M -4.5625 28 L -7.515625 28 L -7.515625 0 L -4.5625 0 Z M -4.5625 28 "/></g></g></g></svg>