<svg xmlns="http://www.w3.org/2000/svg" xmlns:xlink="http://www.w3.org/1999/xlink" width="500" zoomAndPan="magnify" viewBox="0 0 375 374.999991" height="500" preserveAspectRatio="xMidYMid meet" version="1.0"><defs><g/><clipPath id="37ff52be50"><path d="M 171.558594 139.722656 L 203.792969 139.722656 L 203.792969 187.722656 L 171.558594 187.722656 Z M 171.558594 139.722656 " clip-rule="nonzero"/></clipPath></defs><rect x="-37.5" width="450" fill="#ffffff" y="-37.499999" height="449.999989" fill-opacity="1"/><g clip-path="url(#37ff52be50)"><path fill="#ff5757" d="M 197.984375 187.488281 C 198.859375 184.703125 199.136719 181.796875 198.828125 178.957031 L 198.828125 178.839844 L 176.191406 178.839844 L 176.191406 178.957031 C 175.890625 181.796875 176.15625 184.710938 177.03125 187.488281 L 172.527344 187.488281 C 171.769531 184.519531 171.554688 181.464844 171.886719 178.464844 C 172.25 175.046875 173.339844 171.683594 175.089844 168.628906 C 176.691406 165.875 178.570312 163.847656 180.597656 162.277344 C 181.078125 161.882812 181.601562 161.519531 182.117188 161.15625 C 181.207031 160.609375 180.386719 159.949219 179.660156 159.191406 C 177.695312 157.097656 176.507812 154.320312 176.507812 151.257812 C 176.507812 148.234375 177.695312 145.414062 179.660156 143.355469 C 181.59375 141.261719 184.324219 139.9375 187.378906 139.753906 L 187.496094 139.722656 L 187.613281 139.757812 C 190.667969 139.9375 193.390625 141.273438 195.335938 143.355469 C 197.300781 145.414062 198.488281 148.222656 198.488281 151.257812 C 198.488281 154.3125 197.300781 157.097656 195.335938 159.191406 C 194.609375 159.949219 193.789062 160.609375 192.878906 161.15625 C 193.394531 161.519531 193.90625 161.882812 194.394531 162.277344 C 196.425781 163.847656 198.304688 165.875 199.90625 168.632812 C 201.65625 171.683594 202.746094 175.050781 203.109375 178.464844 C 203.441406 181.464844 203.226562 184.519531 202.46875 187.488281 Z M 197.835938 174.472656 C 197.40625 173.203125 196.832031 171.996094 196.167969 170.808594 C 194.867188 168.566406 193.351562 166.933594 191.746094 165.660156 C 190.414062 164.605469 188.960938 163.75 187.507812 163.023438 C 186.054688 163.75 184.636719 164.59375 183.269531 165.660156 C 181.667969 166.933594 180.148438 168.566406 178.847656 170.808594 C 178.183594 171.996094 177.609375 173.203125 177.179688 174.472656 Z M 182.808594 156.222656 C 183.996094 157.492188 185.648438 158.316406 187.496094 158.464844 C 189.34375 158.316406 191.011719 157.492188 192.183594 156.222656 C 193.390625 154.917969 194.152344 153.199219 194.152344 151.257812 C 194.152344 149.34375 193.390625 147.625 192.183594 146.324219 C 191 145.050781 189.34375 144.230469 187.496094 144.082031 C 185.648438 144.230469 183.984375 145.050781 182.808594 146.324219 C 181.601562 147.625 180.84375 149.34375 180.84375 151.257812 C 180.855469 153.191406 181.601562 154.917969 182.808594 156.222656 Z M 182.808594 156.222656 " fill-opacity="1" fill-rule="nonzero"/></g><g fill="#ff5757" fill-opacity="1"><g transform="translate(161.332535, 210.131765)"><g><path d="M 6.421875 -13.015625 L 7.921875 -13.015625 L 7.921875 -11.4375 L 8.546875 -11.4375 C 9.546875 -11.4375 10.410156 -11.238281 11.140625 -10.84375 C 11.878906 -10.445312 12.441406 -9.882812 12.828125 -9.15625 C 13.222656 -8.425781 13.421875 -7.597656 13.421875 -6.671875 C 13.421875 -5.703125 13.203125 -4.835938 12.765625 -4.078125 C 12.328125 -3.316406 11.726562 -2.742188 10.96875 -2.359375 C 10.207031 -1.984375 9.316406 -1.796875 8.296875 -1.796875 L 7.921875 -1.796875 L 7.921875 0.171875 L 6.421875 0.171875 L 6.421875 -1.796875 L 6.03125 -1.796875 C 5 -1.796875 4.101562 -1.988281 3.34375 -2.375 C 2.59375 -2.757812 2.003906 -3.332031 1.578125 -4.09375 C 1.148438 -4.863281 0.9375 -5.71875 0.9375 -6.65625 C 0.9375 -7.582031 1.128906 -8.40625 1.515625 -9.125 C 1.910156 -9.851562 2.476562 -10.421875 3.21875 -10.828125 C 3.957031 -11.234375 4.828125 -11.4375 5.828125 -11.4375 L 6.421875 -11.4375 Z M 7.921875 -3.0625 L 8.15625 -3.0625 C 9.332031 -3.0625 10.242188 -3.378906 10.890625 -4.015625 C 11.546875 -4.660156 11.875 -5.550781 11.875 -6.6875 C 11.875 -7.769531 11.570312 -8.617188 10.96875 -9.234375 C 10.363281 -9.847656 9.519531 -10.15625 8.4375 -10.15625 L 7.921875 -10.15625 Z M 6.421875 -10.15625 L 5.921875 -10.15625 C 4.859375 -10.15625 4.019531 -9.84375 3.40625 -9.21875 C 2.789062 -8.601562 2.484375 -7.757812 2.484375 -6.6875 C 2.484375 -5.539062 2.804688 -4.648438 3.453125 -4.015625 C 4.109375 -3.378906 5.023438 -3.0625 6.203125 -3.0625 L 6.421875 -3.0625 Z M 6.421875 -10.15625 "/></g></g></g><g fill="#ff5757" fill-opacity="1"><g transform="translate(175.686447, 210.131765)"><g><path d="M 12.90625 -6.4375 C 12.90625 -4.382812 12.382812 -2.769531 11.34375 -1.59375 C 10.3125 -0.414062 8.867188 0.171875 7.015625 0.171875 C 5.128906 0.171875 3.671875 -0.40625 2.640625 -1.5625 C 1.609375 -2.71875 1.09375 -4.347656 1.09375 -6.453125 C 1.09375 -8.546875 1.609375 -10.164062 2.640625 -11.3125 C 3.671875 -12.46875 5.132812 -13.046875 7.03125 -13.046875 C 8.875 -13.046875 10.3125 -12.457031 11.34375 -11.28125 C 12.382812 -10.113281 12.90625 -8.5 12.90625 -6.4375 Z M 2.671875 -6.4375 C 2.671875 -4.695312 3.039062 -3.375 3.78125 -2.46875 C 4.53125 -1.570312 5.609375 -1.125 7.015625 -1.125 C 8.441406 -1.125 9.515625 -1.570312 10.234375 -2.46875 C 10.960938 -3.363281 11.328125 -4.6875 11.328125 -6.4375 C 11.328125 -8.164062 10.960938 -9.472656 10.234375 -10.359375 C 9.515625 -11.253906 8.445312 -11.703125 7.03125 -11.703125 C 5.613281 -11.703125 4.53125 -11.253906 3.78125 -10.359375 C 3.039062 -9.460938 2.671875 -8.15625 2.671875 -6.4375 Z M 2.671875 -6.4375 "/></g></g></g><g fill="#ff5757" fill-opacity="1"><g transform="translate(189.697762, 210.131765)"><g><path d="M 5.71875 0 L 4.21875 0 L 4.21875 -11.515625 L 0.15625 -11.515625 L 0.15625 -12.84375 L 9.78125 -12.84375 L 9.78125 -11.515625 L 5.71875 -11.515625 Z M 5.71875 0 "/></g></g></g><g fill="#ff5757" fill-opacity="1"><g transform="translate(199.650628, 210.131765)"><g><path d="M 12.90625 -6.4375 C 12.90625 -4.382812 12.382812 -2.769531 11.34375 -1.59375 C 10.3125 -0.414062 8.867188 0.171875 7.015625 0.171875 C 5.128906 0.171875 3.671875 -0.40625 2.640625 -1.5625 C 1.609375 -2.71875 1.09375 -4.347656 1.09375 -6.453125 C 1.09375 -8.546875 1.609375 -10.164062 2.640625 -11.3125 C 3.671875 -12.46875 5.132812 -13.046875 7.03125 -13.046875 C 8.875 -13.046875 10.3125 -12.457031 11.34375 -11.28125 C 12.382812 -10.113281 12.90625 -8.5 12.90625 -6.4375 Z M 2.671875 -6.4375 C 2.671875 -4.695312 3.039062 -3.375 3.78125 -2.46875 C 4.53125 -1.570312 5.609375 -1.125 7.015625 -1.125 C 8.441406 -1.125 9.515625 -1.570312 10.234375 -2.46875 C 10.960938 -3.363281 11.328125 -4.6875 11.328125 -6.4375 C 11.328125 -8.164062 10.960938 -9.472656 10.234375 -10.359375 C 9.515625 -11.253906 8.445312 -11.703125 7.03125 -11.703125 C 5.613281 -11.703125 4.53125 -11.253906 3.78125 -10.359375 C 3.039062 -9.460938 2.671875 -8.15625 2.671875 -6.4375 Z M 2.671875 -6.4375 "/></g></g></g><g fill="#ff5757" fill-opacity="1"><g transform="translate(213.66207, 210.131765)"><g/></g></g><g fill="#ff5757" fill-opacity="1"><g transform="translate(144.39064, 231.393574)"><g><path d="M 1.765625 -12.84375 L 5.390625 -12.84375 C 7.097656 -12.84375 8.332031 -12.585938 9.09375 -12.078125 C 9.851562 -11.566406 10.234375 -10.757812 10.234375 -9.65625 C 10.234375 -8.894531 10.019531 -8.265625 9.59375 -7.765625 C 9.164062 -7.273438 8.546875 -6.957031 7.734375 -6.8125 L 7.734375 -6.734375 C 9.679688 -6.390625 10.65625 -5.363281 10.65625 -3.65625 C 10.65625 -2.507812 10.265625 -1.613281 9.484375 -0.96875 C 8.710938 -0.320312 7.632812 0 6.25 0 L 1.765625 0 Z M 3.265625 -7.34375 L 5.71875 -7.34375 C 6.769531 -7.34375 7.523438 -7.503906 7.984375 -7.828125 C 8.453125 -8.160156 8.6875 -8.722656 8.6875 -9.515625 C 8.6875 -10.234375 8.425781 -10.75 7.90625 -11.0625 C 7.394531 -11.382812 6.578125 -11.546875 5.453125 -11.546875 L 3.265625 -11.546875 Z M 3.265625 -6.078125 L 3.265625 -1.265625 L 5.9375 -1.265625 C 6.96875 -1.265625 7.742188 -1.460938 8.265625 -1.859375 C 8.796875 -2.265625 9.0625 -2.898438 9.0625 -3.765625 C 9.0625 -4.554688 8.789062 -5.140625 8.25 -5.515625 C 7.71875 -5.890625 6.90625 -6.078125 5.8125 -6.078125 Z M 3.265625 -6.078125 "/></g></g></g><g fill="#ff5757" fill-opacity="1"><g transform="translate(156.047704, 231.393574)"><g><path d="M 1.765625 0 L 1.765625 -12.84375 L 3.265625 -12.84375 L 3.265625 0 Z M 1.765625 0 "/></g></g></g><g fill="#ff5757" fill-opacity="1"><g transform="translate(161.063667, 231.393574)"><g><path d="M 11.890625 3.34375 L 10.46875 3.34375 L 10.46875 0 L 1.546875 0 L 1.546875 3.34375 L 0.125 3.34375 L 0.125 -1.359375 L 1.109375 -1.359375 C 2.015625 -2.867188 2.785156 -4.707031 3.421875 -6.875 C 4.066406 -9.050781 4.425781 -11.039062 4.5 -12.84375 L 10.265625 -12.84375 L 10.265625 -1.359375 L 11.890625 -1.359375 Z M 8.765625 -1.359375 L 8.765625 -11.5 L 5.84375 -11.5 C 5.738281 -10.082031 5.382812 -8.378906 4.78125 -6.390625 C 4.175781 -4.398438 3.472656 -2.722656 2.671875 -1.359375 Z M 8.765625 -1.359375 "/></g></g></g><g fill="#ff5757" fill-opacity="1"><g transform="translate(173.353215, 231.393574)"><g><path d="M 7.265625 -11.6875 C 5.847656 -11.6875 4.734375 -11.21875 3.921875 -10.28125 C 3.109375 -9.34375 2.703125 -8.054688 2.703125 -6.421875 C 2.703125 -4.742188 3.09375 -3.445312 3.875 -2.53125 C 4.664062 -1.613281 5.789062 -1.15625 7.25 -1.15625 C 8.144531 -1.15625 9.164062 -1.316406 10.3125 -1.640625 L 10.3125 -0.328125 C 9.414062 0.00390625 8.316406 0.171875 7.015625 0.171875 C 5.128906 0.171875 3.671875 -0.398438 2.640625 -1.546875 C 1.609375 -2.691406 1.09375 -4.320312 1.09375 -6.4375 C 1.09375 -7.757812 1.335938 -8.914062 1.828125 -9.90625 C 2.328125 -10.90625 3.046875 -11.671875 3.984375 -12.203125 C 4.921875 -12.742188 6.019531 -13.015625 7.28125 -13.015625 C 8.625 -13.015625 9.800781 -12.769531 10.8125 -12.28125 L 10.171875 -11 C 9.203125 -11.457031 8.234375 -11.6875 7.265625 -11.6875 Z M 7.265625 -11.6875 "/></g></g></g><g fill="#ff5757" fill-opacity="1"><g transform="translate(184.70282, 231.393574)"><g><path d="M 2.578125 0.171875 C 1.921875 0.171875 1.347656 0.0820312 0.859375 -0.09375 L 0.859375 -1.546875 C 1.398438 -1.296875 1.953125 -1.171875 2.515625 -1.171875 C 3.160156 -1.171875 3.675781 -1.316406 4.0625 -1.609375 C 4.457031 -1.910156 4.847656 -2.46875 5.234375 -3.28125 L 0.234375 -12.84375 L 1.890625 -12.84375 L 5.6875 -5.546875 C 5.832031 -5.253906 5.945312 -4.972656 6.03125 -4.703125 L 6.09375 -4.703125 C 6.257812 -5.191406 6.375 -5.5 6.4375 -5.625 L 9.59375 -12.84375 L 11.171875 -12.84375 L 7.0625 -3.65625 C 6.570312 -2.5625 6.128906 -1.765625 5.734375 -1.265625 C 5.335938 -0.765625 4.890625 -0.398438 4.390625 -0.171875 C 3.898438 0.0546875 3.296875 0.171875 2.578125 0.171875 Z M 2.578125 0.171875 "/></g></g></g><g fill="#ff5757" fill-opacity="1"><g transform="translate(195.876734, 231.393574)"><g><path d="M 5.71875 0 L 4.21875 0 L 4.21875 -11.515625 L 0.15625 -11.515625 L 0.15625 -12.84375 L 9.78125 -12.84375 L 9.78125 -11.515625 L 5.71875 -11.515625 Z M 5.71875 0 "/></g></g></g><g fill="#ff5757" fill-opacity="1"><g transform="translate(205.8296, 231.393574)"><g><path d="M 11.515625 0 L 10.015625 0 L 10.015625 -6.046875 L 3.265625 -6.046875 L 3.265625 0 L 1.765625 0 L 1.765625 -12.84375 L 3.265625 -12.84375 L 3.265625 -7.375 L 10.015625 -7.375 L 10.015625 -12.84375 L 11.515625 -12.84375 Z M 11.515625 0 "/></g></g></g><g fill="#ff5757" fill-opacity="1"><g transform="translate(219.103015, 231.393574)"><g><path d="M 7.328125 -11.6875 C 6.003906 -11.6875 4.945312 -11.320312 4.15625 -10.59375 C 3.375 -9.863281 2.894531 -8.789062 2.71875 -7.375 L 9.0625 -7.375 L 9.0625 -6.0625 L 2.671875 -6.0625 C 2.734375 -4.457031 3.15625 -3.238281 3.9375 -2.40625 C 4.71875 -1.570312 5.835938 -1.15625 7.296875 -1.15625 C 8.242188 -1.15625 9.304688 -1.316406 10.484375 -1.640625 L 10.484375 -0.328125 C 9.546875 0.00390625 8.414062 0.171875 7.09375 0.171875 C 5.144531 0.171875 3.65625 -0.394531 2.625 -1.53125 C 1.601562 -2.664062 1.09375 -4.300781 1.09375 -6.4375 C 1.09375 -8.488281 1.644531 -10.101562 2.75 -11.28125 C 3.851562 -12.457031 5.382812 -13.046875 7.34375 -13.046875 C 8.726562 -13.046875 9.941406 -12.785156 10.984375 -12.265625 L 10.359375 -10.96875 C 9.367188 -11.445312 8.359375 -11.6875 7.328125 -11.6875 Z M 7.328125 -11.6875 "/></g></g></g></svg>