<svg xmlns="http://www.w3.org/2000/svg" xmlns:xlink="http://www.w3.org/1999/xlink" width="500" zoomAndPan="magnify" viewBox="0 0 375 374.999991" height="500" preserveAspectRatio="xMidYMid meet" version="1.0"><defs><g/><clipPath id="922abf494d"><path d="M 153 83.371094 L 222.46875 83.371094 L 222.46875 187.621094 L 153 187.621094 Z M 153 83.371094 " clip-rule="nonzero"/></clipPath></defs><rect x="-37.5" width="450" fill="#ffffff" y="-37.499999" height="449.999989" fill-opacity="1"/><rect x="-37.5" width="450" fill="#ffffff" y="-37.499999" height="449.999989" fill-opacity="1"/><g clip-path="url(#922abf494d)"><path fill="#ff5757" d="M 210.519531 187.621094 C 212.433594 181.535156 213.039062 175.199219 212.363281 169 L 212.363281 168.742188 L 162.875 168.742188 L 162.875 169 C 162.222656 175.199219 162.804688 181.5625 164.71875 187.621094 L 154.867188 187.621094 C 153.210938 181.140625 152.746094 174.476562 153.46875 167.925781 C 154.261719 160.46875 156.640625 153.125 160.46875 146.460938 C 163.972656 140.445312 168.078125 136.019531 172.515625 132.59375 C 173.566406 131.730469 174.710938 130.9375 175.828125 130.144531 C 173.84375 128.957031 172.046875 127.511719 170.460938 125.855469 C 166.164062 121.289062 163.574219 115.230469 163.574219 108.539062 C 163.574219 101.945312 166.164062 95.792969 170.460938 91.292969 C 174.683594 86.726562 180.660156 83.835938 187.339844 83.4375 L 187.59375 83.371094 L 187.851562 83.441406 C 194.527344 83.835938 200.480469 86.75 204.730469 91.296875 C 209.027344 95.792969 211.617188 101.921875 211.617188 108.542969 C 211.617188 115.207031 209.027344 121.289062 204.730469 125.859375 C 203.144531 127.511719 201.34375 128.957031 199.363281 130.148438 C 200.484375 130.9375 201.601562 131.730469 202.675781 132.59375 C 207.113281 136.019531 211.21875 140.449219 214.722656 146.460938 C 218.550781 153.128906 220.929688 160.46875 221.722656 167.925781 C 222.449219 174.476562 221.980469 181.140625 220.324219 187.621094 Z M 210.195312 159.210938 C 209.261719 156.4375 208 153.804688 206.550781 151.214844 C 203.703125 146.320312 200.390625 142.753906 196.886719 139.980469 C 193.96875 137.671875 190.792969 135.808594 187.617188 134.226562 C 184.445312 135.808594 181.339844 137.652344 178.351562 139.980469 C 174.847656 142.753906 171.535156 146.320312 168.683594 151.214844 C 167.238281 153.804688 165.976562 156.4375 165.042969 159.210938 Z M 177.347656 119.378906 C 179.941406 122.152344 183.554688 123.945312 187.59375 124.269531 C 191.632812 123.945312 195.277344 122.152344 197.84375 119.378906 C 200.480469 116.535156 202.140625 112.78125 202.140625 108.539062 C 202.140625 104.367188 200.480469 100.613281 197.84375 97.773438 C 195.25 95 191.632812 93.203125 187.59375 92.878906 C 183.554688 93.203125 179.914062 95 177.347656 97.773438 C 174.710938 100.617188 173.050781 104.367188 173.050781 108.539062 C 173.078125 112.761719 174.710938 116.535156 177.347656 119.378906 Z M 177.347656 119.378906 " fill-opacity="1" fill-rule="nonzero"/></g><g fill="#ff5757" fill-opacity="1"><g transform="translate(102.570306, 290.595099)"><g><path d="M 12.125 4.078125 L 10.390625 4.078125 L 10.390625 0 L 2.15625 0 L 2.15625 4.078125 L 0.4375 4.078125 L 0.4375 -1.53125 L 1.359375 -1.53125 C 2.316406 -2.832031 3.066406 -4.359375 3.609375 -6.109375 C 4.160156 -7.867188 4.445312 -9.757812 4.46875 -11.78125 L 10.4375 -11.78125 L 10.4375 -1.53125 L 12.125 -1.53125 Z M 8.71875 -1.53125 L 8.71875 -10.359375 L 6.0625 -10.359375 C 5.976562 -8.773438 5.675781 -7.164062 5.15625 -5.53125 C 4.632812 -3.90625 3.988281 -2.570312 3.21875 -1.53125 Z M 8.71875 -1.53125 "/></g></g></g><g fill="#ff5757" fill-opacity="1"><g transform="translate(118.579152, 290.595099)"><g><path d="M 10.671875 0 L 8.859375 0 L 8.859375 -10.25 L 5.328125 -10.25 C 5.128906 -7.695312 4.859375 -5.671875 4.515625 -4.171875 C 4.171875 -2.679688 3.722656 -1.585938 3.171875 -0.890625 C 2.628906 -0.191406 1.9375 0.15625 1.09375 0.15625 C 0.707031 0.15625 0.398438 0.109375 0.171875 0.015625 L 0.171875 -1.296875 C 0.328125 -1.253906 0.503906 -1.234375 0.703125 -1.234375 C 1.523438 -1.234375 2.179688 -2.101562 2.671875 -3.84375 C 3.160156 -5.582031 3.53125 -8.226562 3.78125 -11.78125 L 10.671875 -11.78125 Z M 10.671875 0 "/></g></g></g><g fill="#ff5757" fill-opacity="1"><g transform="translate(134.566517, 290.595099)"><g><path d="M 2.484375 0 L 0.390625 0 L 3.78125 -4.96875 C 2.875 -5.175781 2.175781 -5.566406 1.6875 -6.140625 C 1.207031 -6.710938 0.96875 -7.4375 0.96875 -8.3125 C 0.96875 -9.382812 1.328125 -10.226562 2.046875 -10.84375 C 2.773438 -11.46875 3.785156 -11.78125 5.078125 -11.78125 L 10.328125 -11.78125 L 10.328125 0 L 8.546875 0 L 8.546875 -4.703125 L 5.5625 -4.703125 Z M 2.703125 -8.296875 C 2.703125 -6.929688 3.691406 -6.25 5.671875 -6.25 L 8.546875 -6.25 L 8.546875 -10.234375 L 5.3125 -10.234375 C 3.570312 -10.234375 2.703125 -9.585938 2.703125 -8.296875 Z M 2.703125 -8.296875 "/></g></g></g><g fill="#ff5757" fill-opacity="1"><g transform="translate(150.210191, 290.595099)"><g/></g></g><g fill="#ff5757" fill-opacity="1"><g transform="translate(159.355994, 290.595099)"><g><path d="M 9.90625 -1.578125 L 9.8125 -1.578125 C 8.988281 -0.378906 7.753906 0.21875 6.109375 0.21875 C 4.566406 0.21875 3.367188 -0.304688 2.515625 -1.359375 C 1.660156 -2.410156 1.234375 -3.910156 1.234375 -5.859375 C 1.234375 -7.796875 1.660156 -9.300781 2.515625 -10.375 C 3.378906 -11.445312 4.578125 -11.984375 6.109375 -11.984375 C 7.710938 -11.984375 8.9375 -11.40625 9.78125 -10.25 L 9.921875 -10.25 L 9.84375 -11.09375 L 9.8125 -11.921875 L 9.8125 -16.71875 L 11.59375 -16.71875 L 11.59375 0 L 10.140625 0 Z M 6.34375 -1.28125 C 7.5625 -1.28125 8.441406 -1.609375 8.984375 -2.265625 C 9.535156 -2.929688 9.8125 -4.003906 9.8125 -5.484375 L 9.8125 -5.859375 C 9.8125 -7.523438 9.53125 -8.710938 8.96875 -9.421875 C 8.414062 -10.140625 7.53125 -10.5 6.3125 -10.5 C 5.269531 -10.5 4.46875 -10.09375 3.90625 -9.28125 C 3.351562 -8.46875 3.078125 -7.316406 3.078125 -5.828125 C 3.078125 -4.328125 3.351562 -3.191406 3.90625 -2.421875 C 4.457031 -1.660156 5.269531 -1.28125 6.34375 -1.28125 Z M 6.34375 -1.28125 "/></g></g></g><g fill="#ff5757" fill-opacity="1"><g transform="translate(176.267025, 290.595099)"><g><path d="M 3.671875 0 L 1.890625 0 L 1.890625 -11.78125 L 3.671875 -11.78125 Z M 1.734375 -14.96875 C 1.734375 -15.375 1.832031 -15.671875 2.03125 -15.859375 C 2.238281 -16.046875 2.492188 -16.140625 2.796875 -16.140625 C 3.078125 -16.140625 3.320312 -16.039062 3.53125 -15.84375 C 3.738281 -15.65625 3.84375 -15.363281 3.84375 -14.96875 C 3.84375 -14.5625 3.738281 -14.257812 3.53125 -14.0625 C 3.320312 -13.863281 3.078125 -13.765625 2.796875 -13.765625 C 2.492188 -13.765625 2.238281 -13.863281 2.03125 -14.0625 C 1.832031 -14.257812 1.734375 -14.5625 1.734375 -14.96875 Z M 1.734375 -14.96875 "/></g></g></g><g fill="#ff5757" fill-opacity="1"><g transform="translate(185.262463, 290.595099)"><g><path d="M 9.484375 -3.21875 C 9.484375 -2.113281 9.070312 -1.265625 8.25 -0.671875 C 7.4375 -0.078125 6.296875 0.21875 4.828125 0.21875 C 3.265625 0.21875 2.046875 -0.03125 1.171875 -0.53125 L 1.171875 -2.1875 C 1.734375 -1.894531 2.335938 -1.664062 2.984375 -1.5 C 3.640625 -1.332031 4.265625 -1.25 4.859375 -1.25 C 5.796875 -1.25 6.515625 -1.398438 7.015625 -1.703125 C 7.515625 -2.003906 7.765625 -2.457031 7.765625 -3.0625 C 7.765625 -3.519531 7.566406 -3.910156 7.171875 -4.234375 C 6.773438 -4.566406 6 -4.953125 4.84375 -5.390625 C 3.75 -5.796875 2.96875 -6.148438 2.5 -6.453125 C 2.039062 -6.765625 1.695312 -7.113281 1.46875 -7.5 C 1.25 -7.882812 1.140625 -8.347656 1.140625 -8.890625 C 1.140625 -9.847656 1.53125 -10.601562 2.3125 -11.15625 C 3.09375 -11.707031 4.160156 -11.984375 5.515625 -11.984375 C 6.785156 -11.984375 8.023438 -11.726562 9.234375 -11.21875 L 8.609375 -9.765625 C 7.421875 -10.253906 6.347656 -10.5 5.390625 -10.5 C 4.546875 -10.5 3.910156 -10.363281 3.484375 -10.09375 C 3.054688 -9.832031 2.84375 -9.46875 2.84375 -9 C 2.84375 -8.6875 2.921875 -8.414062 3.078125 -8.1875 C 3.234375 -7.96875 3.488281 -7.757812 3.84375 -7.5625 C 4.207031 -7.363281 4.898438 -7.070312 5.921875 -6.6875 C 7.316406 -6.1875 8.257812 -5.675781 8.75 -5.15625 C 9.238281 -4.644531 9.484375 -4 9.484375 -3.21875 Z M 9.484375 -3.21875 "/></g></g></g><g fill="#ff5757" fill-opacity="1"><g transform="translate(199.187696, 290.595099)"><g><path d="M 6.59375 0.21875 C 4.894531 0.21875 3.578125 -0.304688 2.640625 -1.359375 C 1.703125 -2.410156 1.234375 -3.894531 1.234375 -5.8125 C 1.234375 -7.78125 1.707031 -9.300781 2.65625 -10.375 C 3.601562 -11.445312 4.957031 -11.984375 6.71875 -11.984375 C 7.28125 -11.984375 7.84375 -11.921875 8.40625 -11.796875 C 8.976562 -11.679688 9.425781 -11.539062 9.75 -11.375 L 9.203125 -9.859375 C 8.804688 -10.015625 8.375 -10.144531 7.90625 -10.25 C 7.4375 -10.351562 7.023438 -10.40625 6.671875 -10.40625 C 4.273438 -10.40625 3.078125 -8.878906 3.078125 -5.828125 C 3.078125 -4.378906 3.367188 -3.269531 3.953125 -2.5 C 4.535156 -1.726562 5.398438 -1.34375 6.546875 -1.34375 C 7.535156 -1.34375 8.546875 -1.554688 9.578125 -1.984375 L 9.578125 -0.390625 C 8.785156 0.015625 7.789062 0.21875 6.59375 0.21875 Z M 6.59375 0.21875 "/></g></g></g><g fill="#ff5757" fill-opacity="1"><g transform="translate(213.091443, 290.595099)"><g><path d="M 3.5625 -11.78125 L 3.5625 -4.140625 C 3.5625 -3.179688 3.78125 -2.460938 4.21875 -1.984375 C 4.65625 -1.515625 5.34375 -1.28125 6.28125 -1.28125 C 7.507812 -1.28125 8.40625 -1.613281 8.96875 -2.28125 C 9.539062 -2.957031 9.828125 -4.0625 9.828125 -5.59375 L 9.828125 -11.78125 L 11.609375 -11.78125 L 11.609375 0 L 10.140625 0 L 9.890625 -1.578125 L 9.78125 -1.578125 C 9.414062 -0.992188 8.910156 -0.546875 8.265625 -0.234375 C 7.617188 0.0664062 6.878906 0.21875 6.046875 0.21875 C 4.617188 0.21875 3.546875 -0.117188 2.828125 -0.796875 C 2.117188 -1.484375 1.765625 -2.578125 1.765625 -4.078125 L 1.765625 -11.78125 Z M 3.5625 -11.78125 "/></g></g></g><g fill="#ff5757" fill-opacity="1"><g transform="translate(230.023948, 290.595099)"><g><path d="M 9.484375 -3.21875 C 9.484375 -2.113281 9.070312 -1.265625 8.25 -0.671875 C 7.4375 -0.078125 6.296875 0.21875 4.828125 0.21875 C 3.265625 0.21875 2.046875 -0.03125 1.171875 -0.53125 L 1.171875 -2.1875 C 1.734375 -1.894531 2.335938 -1.664062 2.984375 -1.5 C 3.640625 -1.332031 4.265625 -1.25 4.859375 -1.25 C 5.796875 -1.25 6.515625 -1.398438 7.015625 -1.703125 C 7.515625 -2.003906 7.765625 -2.457031 7.765625 -3.0625 C 7.765625 -3.519531 7.566406 -3.910156 7.171875 -4.234375 C 6.773438 -4.566406 6 -4.953125 4.84375 -5.390625 C 3.75 -5.796875 2.96875 -6.148438 2.5 -6.453125 C 2.039062 -6.765625 1.695312 -7.113281 1.46875 -7.5 C 1.25 -7.882812 1.140625 -8.347656 1.140625 -8.890625 C 1.140625 -9.847656 1.53125 -10.601562 2.3125 -11.15625 C 3.09375 -11.707031 4.160156 -11.984375 5.515625 -11.984375 C 6.785156 -11.984375 8.023438 -11.726562 9.234375 -11.21875 L 8.609375 -9.765625 C 7.421875 -10.253906 6.347656 -10.5 5.390625 -10.5 C 4.546875 -10.5 3.910156 -10.363281 3.484375 -10.09375 C 3.054688 -9.832031 2.84375 -9.46875 2.84375 -9 C 2.84375 -8.6875 2.921875 -8.414062 3.078125 -8.1875 C 3.234375 -7.96875 3.488281 -7.757812 3.84375 -7.5625 C 4.207031 -7.363281 4.898438 -7.070312 5.921875 -6.6875 C 7.316406 -6.1875 8.257812 -5.675781 8.75 -5.15625 C 9.238281 -4.644531 9.484375 -4 9.484375 -3.21875 Z M 9.484375 -3.21875 "/></g></g></g><g fill="#ff5757" fill-opacity="1"><g transform="translate(243.949175, 290.595099)"><g><path d="M 9.484375 -3.21875 C 9.484375 -2.113281 9.070312 -1.265625 8.25 -0.671875 C 7.4375 -0.078125 6.296875 0.21875 4.828125 0.21875 C 3.265625 0.21875 2.046875 -0.03125 1.171875 -0.53125 L 1.171875 -2.1875 C 1.734375 -1.894531 2.335938 -1.664062 2.984375 -1.5 C 3.640625 -1.332031 4.265625 -1.25 4.859375 -1.25 C 5.796875 -1.25 6.515625 -1.398438 7.015625 -1.703125 C 7.515625 -2.003906 7.765625 -2.457031 7.765625 -3.0625 C 7.765625 -3.519531 7.566406 -3.910156 7.171875 -4.234375 C 6.773438 -4.566406 6 -4.953125 4.84375 -5.390625 C 3.75 -5.796875 2.96875 -6.148438 2.5 -6.453125 C 2.039062 -6.765625 1.695312 -7.113281 1.46875 -7.5 C 1.25 -7.882812 1.140625 -8.347656 1.140625 -8.890625 C 1.140625 -9.847656 1.53125 -10.601562 2.3125 -11.15625 C 3.09375 -11.707031 4.160156 -11.984375 5.515625 -11.984375 C 6.785156 -11.984375 8.023438 -11.726562 9.234375 -11.21875 L 8.609375 -9.765625 C 7.421875 -10.253906 6.347656 -10.5 5.390625 -10.5 C 4.546875 -10.5 3.910156 -10.363281 3.484375 -10.09375 C 3.054688 -9.832031 2.84375 -9.46875 2.84375 -9 C 2.84375 -8.6875 2.921875 -8.414062 3.078125 -8.1875 C 3.234375 -7.96875 3.488281 -7.757812 3.84375 -7.5625 C 4.207031 -7.363281 4.898438 -7.070312 5.921875 -6.6875 C 7.316406 -6.1875 8.257812 -5.675781 8.75 -5.15625 C 9.238281 -4.644531 9.484375 -4 9.484375 -3.21875 Z M 9.484375 -3.21875 "/></g></g></g><g fill="#ff5757" fill-opacity="1"><g transform="translate(257.874402, 290.595099)"><g><path d="M 3.671875 0 L 1.890625 0 L 1.890625 -11.78125 L 3.671875 -11.78125 Z M 1.734375 -14.96875 C 1.734375 -15.375 1.832031 -15.671875 2.03125 -15.859375 C 2.238281 -16.046875 2.492188 -16.140625 2.796875 -16.140625 C 3.078125 -16.140625 3.320312 -16.039062 3.53125 -15.84375 C 3.738281 -15.65625 3.84375 -15.363281 3.84375 -14.96875 C 3.84375 -14.5625 3.738281 -14.257812 3.53125 -14.0625 C 3.320312 -13.863281 3.078125 -13.765625 2.796875 -13.765625 C 2.492188 -13.765625 2.238281 -13.863281 2.03125 -14.0625 C 1.832031 -14.257812 1.734375 -14.5625 1.734375 -14.96875 Z M 1.734375 -14.96875 "/></g></g></g><g fill="#ff5757" fill-opacity="1"><g transform="translate(266.869836, 290.595099)"><g><path d="M 3.671875 0 L 1.890625 0 L 1.890625 -11.78125 L 3.671875 -11.78125 Z M -0.21875 -14.96875 C -0.21875 -15.332031 -0.125 -15.597656 0.0625 -15.765625 C 0.257812 -15.929688 0.488281 -16.015625 0.75 -16.015625 C 1.019531 -16.015625 1.253906 -15.929688 1.453125 -15.765625 C 1.648438 -15.597656 1.75 -15.332031 1.75 -14.96875 C 1.75 -14.601562 1.648438 -14.332031 1.453125 -14.15625 C 1.253906 -13.988281 1.019531 -13.90625 0.75 -13.90625 C 0.488281 -13.90625 0.257812 -13.988281 0.0625 -14.15625 C -0.125 -14.332031 -0.21875 -14.601562 -0.21875 -14.96875 Z M 3.875 -14.96875 C 3.875 -15.332031 3.96875 -15.597656 4.15625 -15.765625 C 4.351562 -15.929688 4.582031 -16.015625 4.84375 -16.015625 C 5.113281 -16.015625 5.347656 -15.929688 5.546875 -15.765625 C 5.742188 -15.597656 5.84375 -15.332031 5.84375 -14.96875 C 5.84375 -14.601562 5.742188 -14.332031 5.546875 -14.15625 C 5.347656 -13.988281 5.113281 -13.90625 4.84375 -13.90625 C 4.582031 -13.90625 4.351562 -13.988281 4.15625 -14.15625 C 3.96875 -14.332031 3.875 -14.601562 3.875 -14.96875 Z M 3.875 -14.96875 "/></g></g></g><g fill="#ff5757" fill-opacity="1"><g transform="translate(67.869313, 242.595087)"><g><path d="M 3.734375 -27.125 L 11.390625 -27.125 C 14.992188 -27.125 17.597656 -26.585938 19.203125 -25.515625 C 20.804688 -24.441406 21.609375 -22.738281 21.609375 -20.40625 C 21.609375 -18.800781 21.160156 -17.472656 20.265625 -16.421875 C 19.367188 -15.378906 18.0625 -14.707031 16.34375 -14.40625 L 16.34375 -14.21875 C 20.46875 -13.507812 22.53125 -11.34375 22.53125 -7.71875 C 22.53125 -5.289062 21.707031 -3.394531 20.0625 -2.03125 C 18.425781 -0.675781 16.132812 0 13.1875 0 L 3.734375 0 Z M 6.890625 -15.515625 L 12.078125 -15.515625 C 14.304688 -15.515625 15.90625 -15.863281 16.875 -16.5625 C 17.851562 -17.257812 18.34375 -18.4375 18.34375 -20.09375 C 18.34375 -21.613281 17.796875 -22.710938 16.703125 -23.390625 C 15.617188 -24.066406 13.890625 -24.40625 11.515625 -24.40625 L 6.890625 -24.40625 Z M 6.890625 -12.84375 L 6.890625 -2.6875 L 12.546875 -2.6875 C 14.734375 -2.6875 16.378906 -3.109375 17.484375 -3.953125 C 18.597656 -4.804688 19.15625 -6.132812 19.15625 -7.9375 C 19.15625 -9.625 18.585938 -10.863281 17.453125 -11.65625 C 16.316406 -12.445312 14.59375 -12.84375 12.28125 -12.84375 Z M 6.890625 -12.84375 "/></g></g></g><g fill="#ff5757" fill-opacity="1"><g transform="translate(92.48632, 242.595087)"><g><path d="M 20.78125 0 L 17.40625 -8.625 L 6.53125 -8.625 L 3.1875 0 L 0 0 L 10.71875 -27.234375 L 13.375 -27.234375 L 24.046875 0 Z M 16.421875 -11.46875 L 13.265625 -19.875 C 12.859375 -20.9375 12.4375 -22.238281 12 -23.78125 C 11.726562 -22.59375 11.34375 -21.289062 10.84375 -19.875 L 7.640625 -11.46875 Z M 16.421875 -11.46875 "/></g></g></g><g fill="#ff5757" fill-opacity="1"><g transform="translate(116.52825, 242.595087)"><g><path d="M 35.5 0 L 3.734375 0 L 3.734375 -27.125 L 6.890625 -27.125 L 6.890625 -2.859375 L 18.015625 -2.859375 L 18.015625 -27.125 L 21.171875 -27.125 L 21.171875 -2.859375 L 32.296875 -2.859375 L 32.296875 -27.125 L 35.5 -27.125 Z M 35.5 0 "/></g></g></g><g fill="#ff5757" fill-opacity="1"><g transform="translate(155.744792, 242.595087)"><g><path d="M 18.859375 0 L 3.734375 0 L 3.734375 -27.125 L 18.859375 -27.125 L 18.859375 -24.328125 L 6.890625 -24.328125 L 6.890625 -15.59375 L 18.125 -15.59375 L 18.125 -12.796875 L 6.890625 -12.796875 L 6.890625 -2.828125 L 18.859375 -2.828125 Z M 18.859375 0 "/></g></g></g><g fill="#ff5757" fill-opacity="1"><g transform="translate(176.874235, 242.595087)"><g/></g></g><g fill="#ff5757" fill-opacity="1"><g transform="translate(186.743298, 242.595087)"><g><path d="M 13.5625 -27.515625 L 16.75 -27.515625 L 16.75 -24.171875 L 18.046875 -24.171875 C 20.171875 -24.171875 22.007812 -23.75 23.5625 -22.90625 C 25.113281 -22.070312 26.300781 -20.882812 27.125 -19.34375 C 27.945312 -17.8125 28.359375 -16.066406 28.359375 -14.109375 C 28.359375 -12.046875 27.894531 -10.210938 26.96875 -8.609375 C 26.050781 -7.015625 24.789062 -5.8125 23.1875 -5 C 21.582031 -4.195312 19.691406 -3.796875 17.515625 -3.796875 L 16.75 -3.796875 L 16.75 0.375 L 13.5625 0.375 L 13.5625 -3.796875 L 12.734375 -3.796875 C 10.554688 -3.796875 8.664062 -4.203125 7.0625 -5.015625 C 5.46875 -5.835938 4.21875 -7.050781 3.3125 -8.65625 C 2.414062 -10.269531 1.96875 -12.070312 1.96875 -14.0625 C 1.96875 -16.019531 2.382812 -17.765625 3.21875 -19.296875 C 4.050781 -20.828125 5.242188 -22.019531 6.796875 -22.875 C 8.359375 -23.738281 10.203125 -24.171875 12.328125 -24.171875 L 13.5625 -24.171875 Z M 16.75 -6.453125 L 17.21875 -6.453125 C 19.707031 -6.453125 21.640625 -7.128906 23.015625 -8.484375 C 24.398438 -9.835938 25.09375 -11.722656 25.09375 -14.140625 C 25.09375 -16.429688 24.453125 -18.222656 23.171875 -19.515625 C 21.898438 -20.816406 20.117188 -21.46875 17.828125 -21.46875 L 16.75 -21.46875 Z M 13.5625 -21.46875 L 12.5 -21.46875 C 10.25 -21.46875 8.476562 -20.8125 7.1875 -19.5 C 5.894531 -18.1875 5.25 -16.398438 5.25 -14.140625 C 5.25 -11.703125 5.9375 -9.8125 7.3125 -8.46875 C 8.6875 -7.125 10.625 -6.453125 13.125 -6.453125 L 13.5625 -6.453125 Z M 13.5625 -21.46875 "/></g></g></g><g fill="#ff5757" fill-opacity="1"><g transform="translate(217.055422, 242.595087)"><g><path d="M 27.28125 -13.59375 C 27.28125 -9.257812 26.179688 -5.847656 23.984375 -3.359375 C 21.785156 -0.867188 18.734375 0.375 14.828125 0.375 C 10.828125 0.375 7.738281 -0.84375 5.5625 -3.28125 C 3.394531 -5.726562 2.3125 -9.179688 2.3125 -13.640625 C 2.3125 -18.054688 3.398438 -21.476562 5.578125 -23.90625 C 7.753906 -26.332031 10.847656 -27.546875 14.859375 -27.546875 C 18.753906 -27.546875 21.796875 -26.304688 23.984375 -23.828125 C 26.179688 -21.359375 27.28125 -17.945312 27.28125 -13.59375 Z M 5.65625 -13.59375 C 5.65625 -9.925781 6.4375 -7.140625 8 -5.234375 C 9.570312 -3.335938 11.847656 -2.390625 14.828125 -2.390625 C 17.828125 -2.390625 20.09375 -3.335938 21.625 -5.234375 C 23.164062 -7.128906 23.9375 -9.914062 23.9375 -13.59375 C 23.9375 -17.25 23.171875 -20.019531 21.640625 -21.90625 C 20.117188 -23.789062 17.859375 -24.734375 14.859375 -24.734375 C 11.859375 -24.734375 9.570312 -23.78125 8 -21.875 C 6.4375 -19.976562 5.65625 -17.21875 5.65625 -13.59375 Z M 5.65625 -13.59375 "/></g></g></g><g fill="#ff5757" fill-opacity="1"><g transform="translate(246.644063, 242.595087)"><g><path d="M 12.078125 0 L 8.921875 0 L 8.921875 -24.328125 L 0.328125 -24.328125 L 0.328125 -27.125 L 20.671875 -27.125 L 20.671875 -24.328125 L 12.078125 -24.328125 Z M 12.078125 0 "/></g></g></g><g fill="#ff5757" fill-opacity="1"><g transform="translate(267.6622, 242.595087)"><g><path d="M 27.28125 -13.59375 C 27.28125 -9.257812 26.179688 -5.847656 23.984375 -3.359375 C 21.785156 -0.867188 18.734375 0.375 14.828125 0.375 C 10.828125 0.375 7.738281 -0.84375 5.5625 -3.28125 C 3.394531 -5.726562 2.3125 -9.179688 2.3125 -13.640625 C 2.3125 -18.054688 3.398438 -21.476562 5.578125 -23.90625 C 7.753906 -26.332031 10.847656 -27.546875 14.859375 -27.546875 C 18.753906 -27.546875 21.796875 -26.304688 23.984375 -23.828125 C 26.179688 -21.359375 27.28125 -17.945312 27.28125 -13.59375 Z M 5.65625 -13.59375 C 5.65625 -9.925781 6.4375 -7.140625 8 -5.234375 C 9.570312 -3.335938 11.847656 -2.390625 14.828125 -2.390625 C 17.828125 -2.390625 20.09375 -3.335938 21.625 -5.234375 C 23.164062 -7.128906 23.9375 -9.914062 23.9375 -13.59375 C 23.9375 -17.25 23.171875 -20.019531 21.640625 -21.90625 C 20.117188 -23.789062 17.859375 -24.734375 14.859375 -24.734375 C 11.859375 -24.734375 9.570312 -23.78125 8 -21.875 C 6.4375 -19.976562 5.65625 -17.21875 5.65625 -13.59375 Z M 5.65625 -13.59375 "/></g></g></g><g fill="#ff5757" fill-opacity="1"><g transform="translate(297.240396, 242.595087)"><g/></g></g></svg>